<?xml version="1.0" encoding="UTF-8" standalone="no"?>
<svg
   xmlns:dc="http://purl.org/dc/elements/1.1/"
   xmlns:cc="http://creativecommons.org/ns#"
   xmlns:rdf="http://www.w3.org/1999/02/22-rdf-syntax-ns#"
   xmlns:svg="http://www.w3.org/2000/svg"
   xmlns="http://www.w3.org/2000/svg"
   xmlns:sodipodi="http://sodipodi.sourceforge.net/DTD/sodipodi-0.dtd"
   xmlns:inkscape="http://www.inkscape.org/namespaces/inkscape"
   width="60.959999mm"
   height="128.5mm"
   viewBox="0 0 60.959999 128.5"
   version="1.1"
   id="svg1138"
   inkscape:version="1.0beta1 (32d4812, 2019-09-19)"
   sodipodi:docname="ABIn.svg">
  <defs
     id="defs1132" />
  <sodipodi:namedview
     inkscape:snap-bbox-midpoints="true"
     inkscape:snap-bbox="true"
     id="base"
     pagecolor="#ffffff"
     bordercolor="#666666"
     borderopacity="1.0"
     inkscape:pageopacity="0.0"
     inkscape:pageshadow="2"
     inkscape:zoom="1.6451524"
     inkscape:cx="115.2"
     inkscape:cy="242.83465"
     inkscape:document-units="mm"
     inkscape:current-layer="layer2"
     inkscape:document-rotation="0"
     showgrid="true"
     inkscape:snap-object-midpoints="true"
     inkscape:window-width="1920"
     inkscape:window-height="989"
     inkscape:window-x="1440"
     inkscape:window-y="23"
     inkscape:window-maximized="1">
    <inkscape:grid
       type="xygrid"
       id="grid1738" />
  </sodipodi:namedview>
  <metadata
     id="metadata1135">
    <rdf:RDF>
      <cc:Work
         rdf:about="">
        <dc:format>image/svg+xml</dc:format>
        <dc:type
           rdf:resource="http://purl.org/dc/dcmitype/StillImage" />
        <dc:title />
      </cc:Work>
    </rdf:RDF>
  </metadata>
  <g
     inkscape:label="Background"
     inkscape:groupmode="layer"
     id="layer1"
     sodipodi:insensitive="true">
    <rect
       style="display:inline;fill:#f8f8f8;fill-opacity:1;stroke:none;stroke-width:0.173754"
       id="rect10"
       width="60.959999"
       height="128.5"
       x="0"
       y="0" />
  </g>
  <g
     sodipodi:insensitive="true"
     inkscape:groupmode="layer"
     id="layer3"
     inkscape:label="boxes">
    <rect
       y="6.879159"
       x="43.656075"
       height="10.583333"
       width="10.583333"
       id="rect1740-1"
       style="display:inline;fill:#000000;fill-opacity:0.5;stroke:none;stroke-width:0.53;stroke-miterlimit:4;stroke-dasharray:0.53, 1.06;stroke-dashoffset:0;stroke-opacity:1" />
    <rect
       y="21.431232"
       x="43.656075"
       height="10.583333"
       width="10.583333"
       id="rect1740-1-5"
       style="display:inline;fill:#000000;fill-opacity:0.5;stroke:none;stroke-width:0.53;stroke-miterlimit:4;stroke-dasharray:0.53, 1.06;stroke-dashoffset:0;stroke-opacity:1" />
    <rect
       y="35.983307"
       x="43.656075"
       height="10.583333"
       width="10.583333"
       id="rect1740-1-9"
       style="display:inline;fill:#000000;fill-opacity:0.5;stroke:none;stroke-width:0.53;stroke-miterlimit:4;stroke-dasharray:0.53, 1.06;stroke-dashoffset:0;stroke-opacity:1" />
    <rect
       y="50.643188"
       x="43.656075"
       height="10.583333"
       width="10.583333"
       id="rect1740-1-7"
       style="display:inline;fill:#000000;fill-opacity:0.5;stroke:none;stroke-width:0.53;stroke-miterlimit:4;stroke-dasharray:0.53, 1.06;stroke-dashoffset:0;stroke-opacity:1" />
    <rect
       y="65.087486"
       x="43.656075"
       height="10.583333"
       width="10.583333"
       id="rect1740-1-53"
       style="display:inline;fill:#000000;fill-opacity:0.5;stroke:none;stroke-width:0.53;stroke-miterlimit:4;stroke-dasharray:0.53, 1.06;stroke-dashoffset:0;stroke-opacity:1" />
    <rect
       y="79.639565"
       x="43.656075"
       height="10.583333"
       width="10.583333"
       id="rect1740-1-90"
       style="display:inline;fill:#000000;fill-opacity:0.5;stroke:none;stroke-width:0.53;stroke-miterlimit:4;stroke-dasharray:0.53, 1.06;stroke-dashoffset:0;stroke-opacity:1" />
    <rect
       y="94.191635"
       x="43.656075"
       height="10.583333"
       width="10.583333"
       id="rect1740-1-55"
       style="display:inline;fill:#000000;fill-opacity:0.5;stroke:none;stroke-width:0.53;stroke-miterlimit:4;stroke-dasharray:0.53, 1.06;stroke-dashoffset:0;stroke-opacity:1" />
    <rect
       y="108.74371"
       x="43.656075"
       height="10.583333"
       width="10.583333"
       id="rect1740-1-6"
       style="display:inline;fill:#000000;fill-opacity:0.5;stroke:none;stroke-width:0.53;stroke-miterlimit:4;stroke-dasharray:0.53, 1.06;stroke-dashoffset:0;stroke-opacity:1" />
  </g>
  <g
     sodipodi:insensitive="true"
     inkscape:groupmode="layer"
     id="layer4"
     inkscape:label="text"
     style="display:inline;opacity:1">
    <g
       aria-label="STALYS"
       id="text1717-2"
       style="font-size:6.35px;line-height:1.25;font-family:Futura;-inkscape-font-specification:Futura;display:inline;opacity:1;stroke-width:0.264583"
       transform="translate(-71.695688,-0.06042158)">
      <path
         d="m 94.892412,122.92583 -0.586011,0.34727 q -0.164331,-0.28526 -0.313159,-0.37207 -0.155029,-0.0992 -0.399976,-0.0992 -0.300757,0 -0.499194,0.17053 -0.198438,0.16743 -0.198438,0.42168 0,0.35036 0.520899,0.56431 l 0.47749,0.19533 q 0.58291,0.23565 0.852661,0.57671 0.269751,0.33796 0.269751,0.83096 0,0.66042 -0.440283,1.0914 -0.443384,0.43409 -1.100708,0.43409 -0.623218,0 -1.029395,-0.36897 -0.399975,-0.36897 -0.499194,-1.0387 l 0.731738,-0.16123 q 0.04961,0.42168 0.173633,0.58291 0.223242,0.31006 0.651123,0.31006 0.337964,0 0.561206,-0.22634 0.223243,-0.22635 0.223243,-0.57361 0,-0.13953 -0.04031,-0.25425 -0.03721,-0.11782 -0.120923,-0.21394 -0.08061,-0.0992 -0.21084,-0.18294 -0.130224,-0.0868 -0.310058,-0.16433 l -0.461988,-0.19223 q -0.982885,-0.41548 -0.982885,-1.21543 0,-0.5395 0.412378,-0.90227 0.412377,-0.36587 1.026293,-0.36587 0.827857,0 1.292945,0.80615 z"
         style="stroke-width:0.264583"
         id="path2113"
         inkscape:connector-curvature="0" />
      <path
         d="M 97.307768,122.89172 V 127 h -0.722436 v -4.10828 h -1.100708 v -0.67902 h 2.920751 v 0.67902 z"
         style="stroke-width:0.264583"
         id="path2115"
         inkscape:connector-curvature="0" />
      <path
         d="M 101.60208,125.83728 H 99.552592 L 99.019291,127 h -0.778247 l 2.368846,-5.08806 2.28513,5.08806 h -0.79065 z m -0.29456,-0.67903 -0.71003,-1.62781 -0.744141,1.62781 z"
         style="stroke-width:0.264583"
         id="path2117"
         inkscape:connector-curvature="0" />
      <path
         d="m 104.21897,122.2127 v 4.10827 h 1.40767 V 127 h -2.1301 v -4.7873 z"
         style="stroke-width:0.264583"
         id="path2119"
         inkscape:connector-curvature="0" />
      <path
         d="m 106.87618,124.93191 -1.5627,-2.71921 h 0.83096 l 1.0945,1.91306 1.09761,-1.91306 h 0.83096 l -1.5689,2.71921 V 127 h -0.72243 z"
         style="stroke-width:0.264583"
         id="path2121"
         inkscape:connector-curvature="0" />
      <path
         d="m 112.2805,122.92583 -0.58601,0.34727 q -0.16433,-0.28526 -0.31316,-0.37207 -0.15503,-0.0992 -0.39998,-0.0992 -0.30075,0 -0.49919,0.17053 -0.19844,0.16743 -0.19844,0.42168 0,0.35036 0.5209,0.56431 l 0.47749,0.19533 q 0.58291,0.23565 0.85266,0.57671 0.26975,0.33796 0.26975,0.83096 0,0.66042 -0.44028,1.0914 -0.44339,0.43409 -1.10071,0.43409 -0.62322,0 -1.02939,-0.36897 -0.39998,-0.36897 -0.4992,-1.0387 l 0.73174,-0.16123 q 0.0496,0.42168 0.17363,0.58291 0.22324,0.31006 0.65113,0.31006 0.33796,0 0.5612,-0.22634 0.22324,-0.22635 0.22324,-0.57361 0,-0.13953 -0.0403,-0.25425 -0.0372,-0.11782 -0.12093,-0.21394 -0.0806,-0.0992 -0.21084,-0.18294 -0.13022,-0.0868 -0.31006,-0.16433 l -0.46198,-0.19223 q -0.98289,-0.41548 -0.98289,-1.21543 0,-0.5395 0.41238,-0.90227 0.41238,-0.36587 1.02629,-0.36587 0.82786,0 1.29295,0.80615 z"
         style="stroke-width:0.264583"
         id="path2123"
         inkscape:connector-curvature="0" />
    </g>
    <text
       xml:space="preserve"
       style="font-size:6.35px;line-height:1.25;font-family:Futura;-inkscape-font-specification:Futura;stroke-width:0.264583"
       x="7.9375"
       y="19.84375"
       id="text1987"><tspan
         sodipodi:role="line"
         id="tspan1985"
         x="7.9375"
         y="19.84375"
         style="stroke-width:0.264583" /></text>
  </g>
  <g
     inkscape:groupmode="layer"
     id="layer2"
     inkscape:label="components"
     style="display:inline">
    <circle
       style="display:inline;fill:#f2f2f2;stroke:#00ff00;stroke-width:0.264583;stroke-opacity:1"
       id="path15"
       cx="9.260416"
       cy="12.170834"
       r="2.6458333"
       inkscape:label="a1" />
    <circle
       style="display:inline;fill:#f2f2f2;stroke:#00ff00;stroke-width:0.264583;stroke-opacity:1"
       id="path17"
       cx="9.2604151"
       cy="26.722906"
       r="2.6458333"
       inkscape:label="a2" />
    <circle
       style="display:inline;fill:#f2f2f2;stroke:#00ff00;stroke-width:0.264583;stroke-opacity:1"
       id="path34"
       cx="9.2604151"
       cy="41.274986"
       r="2.6458333"
       inkscape:label="a3" />
    <circle
       inkscape:label="a4"
       r="2.6458333"
       cy="55.934864"
       cx="9.2604151"
       id="path15-0"
       style="display:inline;fill:#f2f2f2;stroke:#00ff00;stroke-width:0.264583;stroke-opacity:1" />
    <circle
       inkscape:label="a5"
       r="2.6458333"
       cy="70.379158"
       cx="9.2604151"
       id="path17-5"
       style="display:inline;fill:#f2f2f2;stroke:#00ff00;stroke-width:0.264583;stroke-opacity:1" />
    <circle
       inkscape:label="a6"
       r="2.6458333"
       cy="84.931236"
       cx="9.2604141"
       id="path34-6"
       style="display:inline;fill:#f2f2f2;stroke:#00ff00;stroke-width:0.264583;stroke-opacity:1" />
    <circle
       style="display:inline;fill:#f2f2f2;stroke:#00ff00;stroke-width:0.264583;stroke-opacity:1"
       id="path17-5-3"
       cx="9.2604141"
       cy="99.483322"
       r="2.6458333"
       inkscape:label="a7" />
    <circle
       style="display:inline;fill:#f2f2f2;stroke:#00ff00;stroke-width:0.264583;stroke-opacity:1"
       id="path34-6-8"
       cx="9.2604141"
       cy="114.03542"
       r="2.6458333"
       inkscape:label="a8" />
    <circle
       inkscape:label="b1"
       r="2.6458333"
       cy="12.170835"
       cx="22.489584"
       id="path15-4"
       style="display:inline;fill:#f2f2f2;stroke:#00ff00;stroke-width:0.264583;stroke-opacity:1" />
    <circle
       inkscape:label="b2"
       r="2.6458333"
       cy="26.722906"
       cx="22.489584"
       id="path17-0"
       style="display:inline;fill:#f2f2f2;stroke:#00ff00;stroke-width:0.264583;stroke-opacity:1" />
    <circle
       inkscape:label="b3"
       r="2.6458333"
       cy="41.27499"
       cx="22.489584"
       id="path34-0"
       style="display:inline;fill:#f2f2f2;stroke:#00ff00;stroke-width:0.264583;stroke-opacity:1" />
    <circle
       style="display:inline;fill:#f2f2f2;stroke:#00ff00;stroke-width:0.264583;stroke-opacity:1"
       id="path15-0-9"
       cx="22.489584"
       cy="55.934872"
       r="2.6458333"
       inkscape:label="b4" />
    <circle
       style="display:inline;fill:#f2f2f2;stroke:#00ff00;stroke-width:0.264583;stroke-opacity:1"
       id="path17-5-37"
       cx="22.489584"
       cy="70.379158"
       r="2.6458333"
       inkscape:label="b5" />
    <circle
       style="display:inline;fill:#f2f2f2;stroke:#00ff00;stroke-width:0.264583;stroke-opacity:1"
       id="path34-6-5"
       cx="22.489584"
       cy="84.931236"
       r="2.6458333"
       inkscape:label="b6" />
    <circle
       inkscape:label="b7"
       r="2.6458333"
       cy="99.483322"
       cx="22.489584"
       id="path17-5-3-7"
       style="display:inline;fill:#f2f2f2;stroke:#00ff00;stroke-width:0.264583;stroke-opacity:1" />
    <circle
       inkscape:label="b8"
       r="2.6458333"
       cy="114.03542"
       cx="22.489584"
       id="path34-6-8-2"
       style="display:inline;fill:#f2f2f2;stroke:#00ff00;stroke-width:0.264583;stroke-opacity:1" />
    <circle
       style="display:inline;fill:#f2f2f2;stroke:#00ff00;stroke-width:0.264583;stroke-opacity:1"
       id="path15-4-6"
       cx="35.71875"
       cy="12.170835"
       r="2.6458333"
       inkscape:label="trig1" />
    <circle
       style="display:inline;fill:#f2f2f2;stroke:#00ff00;stroke-width:0.264583;stroke-opacity:1"
       id="path17-0-5"
       cx="35.71875"
       cy="26.722906"
       r="2.6458333"
       inkscape:label="trig2" />
    <circle
       style="display:inline;fill:#f2f2f2;stroke:#00ff00;stroke-width:0.264583;stroke-opacity:1"
       id="path34-0-3"
       cx="35.71875"
       cy="41.27499"
       r="2.6458333"
       inkscape:label="trig3" />
    <circle
       inkscape:label="trig4"
       r="2.6458333"
       cy="55.934872"
       cx="35.71875"
       id="path15-0-9-0"
       style="display:inline;fill:#f2f2f2;stroke:#00ff00;stroke-width:0.264583;stroke-opacity:1" />
    <circle
       inkscape:label="trig5"
       r="2.6458333"
       cy="70.379173"
       cx="35.71875"
       id="path17-5-37-4"
       style="display:inline;fill:#f2f2f2;stroke:#00ff00;stroke-width:0.264583;stroke-opacity:1" />
    <circle
       inkscape:label="trig6"
       r="2.6458333"
       cy="84.931236"
       cx="35.71875"
       id="path34-6-5-8"
       style="display:inline;fill:#f2f2f2;stroke:#00ff00;stroke-width:0.264583;stroke-opacity:1" />
    <circle
       style="display:inline;fill:#f2f2f2;stroke:#00ff00;stroke-width:0.264583;stroke-opacity:1"
       id="path17-5-3-7-5"
       cx="35.71875"
       cy="99.483322"
       r="2.6458333"
       inkscape:label="trig7" />
    <circle
       style="display:inline;fill:#f2f2f2;stroke:#00ff00;stroke-width:0.264583;stroke-opacity:1"
       id="path34-6-8-2-5"
       cx="35.71875"
       cy="114.03542"
       r="2.6458333"
       inkscape:label="trig8" />
    <circle
       inkscape:label="out1"
       r="2.6458333"
       cy="12.170826"
       cx="48.947918"
       id="path15-4-6-5"
       style="display:inline;fill:#f2f2f2;stroke:#0000ff;stroke-width:0.264583;stroke-opacity:1" />
    <circle
       inkscape:label="out2"
       r="2.6458333"
       cy="26.722897"
       cx="48.947918"
       id="path17-0-5-4"
       style="display:inline;fill:#f2f2f2;stroke:#0000ff;stroke-width:0.264583;stroke-opacity:1" />
    <circle
       inkscape:label="out3"
       r="2.6458333"
       cy="41.274986"
       cx="48.947918"
       id="path34-0-3-2"
       style="display:inline;fill:#f2f2f2;stroke:#0000ff;stroke-width:0.264583;stroke-opacity:1" />
    <circle
       style="display:inline;fill:#f2f2f2;stroke:#0000ff;stroke-width:0.264583;stroke-opacity:1"
       id="path15-0-9-0-1"
       cx="48.947918"
       cy="55.934864"
       r="2.6458333"
       inkscape:label="out4" />
    <circle
       style="display:inline;fill:#f2f2f2;stroke:#0000ff;stroke-width:0.264583;stroke-opacity:1"
       id="path17-5-37-4-9"
       cx="48.947918"
       cy="70.379158"
       r="2.6458333"
       inkscape:label="out5" />
    <circle
       style="display:inline;fill:#f2f2f2;stroke:#0000ff;stroke-width:0.264583;stroke-opacity:1"
       id="path34-6-5-8-2"
       cx="48.947918"
       cy="84.931221"
       r="2.6458333"
       inkscape:label="out6" />
    <circle
       inkscape:label="out7"
       r="2.6458333"
       cy="99.483322"
       cx="48.947918"
       id="path17-5-3-7-5-4"
       style="display:inline;fill:#f2f2f2;stroke:#0000ff;stroke-width:0.264583;stroke-opacity:1" />
    <circle
       inkscape:label="out8"
       r="2.6458333"
       cy="114.03542"
       cx="48.947918"
       id="path34-6-8-2-5-5"
       style="display:inline;fill:#f2f2f2;stroke:#0000ff;stroke-width:0.264583;stroke-opacity:1" />
  </g>
  <g
     style="font-size:6.35px;line-height:1.25;font-family:Futura;-inkscape-font-specification:Futura;stroke-width:0.264583"
     id="text1045"
     aria-label="8 A/B Y">
    <path
       id="path1237"
       style="stroke-width:0.264583"
       d="m 19.648103,3.6936306 q -0.5271,-0.3720703 -0.5271,-1.0138915 0,-0.5829102 0.399976,-0.973584 0.403076,-0.3906738 1.001489,-0.3906738 0.595313,0 0.992188,0.3906738 0.396875,0.3875732 0.396875,0.9766845 0,0.6170166 -0.523999,1.0076905 0.288354,0.1550292 0.452685,0.4526855 0.167432,0.2976562 0.167432,0.6697265 0,0.6356202 -0.415479,1.0417969 -0.415478,0.4061768 -1.063501,0.4061768 -0.663525,0 -1.094506,-0.4092774 -0.434083,-0.4092773 -0.434083,-1.0293945 0,-0.8061523 0.648023,-1.1286133 z m 0.151929,-1.0169921 q 0,0.306958 0.207739,0.5146972 0.21084,0.2108399 0.508496,0.2108399 0.294556,0 0.505395,-0.2108399 0.21084,-0.2108398 0.21084,-0.5053955 0,-0.2945556 -0.21084,-0.5053955 -0.210839,-0.2108398 -0.505395,-0.2108398 -0.294556,0 -0.505396,0.2108398 -0.210839,0.2108399 -0.210839,0.4960938 z m -0.08992,2.1208007 q 0,0.3317627 0.229443,0.5705078 0.232544,0.2356445 0.564307,0.2356445 0.328662,0 0.561206,-0.2325439 0.232544,-0.2356445 0.232544,-0.5643066 0,-0.3317627 -0.232544,-0.5643067 -0.232544,-0.2325439 -0.561206,-0.2325439 -0.325562,0 -0.561206,0.2325439 -0.232544,0.232544 -0.232544,0.5550049 z" />
    <path
       id="path1239"
       style="stroke-width:0.264583"
       d="M 27.808845,5.0206814 H 25.759358 L 25.226057,6.1834011 H 24.44781 l 2.368847,-5.0880614 2.285132,5.0880614 H 28.31114 Z M 27.514289,4.3416531 26.804255,2.7138455 26.060114,4.3416531 Z" />
    <path
       id="path1241"
       style="stroke-width:0.264583"
       d="M 31.814802,0.89380158 32.391511,1.1480496 29.650593,7.4918484 29.080085,7.2344997 Z" />
    <path
       id="path1243"
       style="stroke-width:0.264583"
       d="M 32.983723,6.1834011 V 1.3960965 h 0.719336 q 0.48059,0 0.765844,0.074414 0.288355,0.074414 0.486792,0.2511474 0.201538,0.1829346 0.319361,0.4557861 0.120923,0.2759522 0.120923,0.5581055 0,0.5146973 -0.393775,0.8712646 0.381372,0.1302246 0.601514,0.4557862 0.223242,0.3224609 0.223242,0.7503417 0,0.5612061 -0.396875,0.9487793 -0.238745,0.2387451 -0.536401,0.3317627 -0.325562,0.089917 -0.815455,0.089917 z m 0.722436,-2.7316162 h 0.226343 q 0.403076,0 0.589111,-0.1767334 0.189136,-0.1798339 0.189136,-0.5270996 0,-0.3379638 -0.192236,-0.5115966 -0.192237,-0.1767334 -0.558106,-0.1767334 h -0.254248 z m 0,2.0525879 h 0.446485 q 0.489892,0 0.719335,-0.1922363 0.241846,-0.2077393 0.241846,-0.5270996 0,-0.3100586 -0.232544,-0.5208985 -0.226343,-0.2077392 -0.809253,-0.2077392 h -0.365869 z" />
    <path
       id="path1245"
       style="stroke-width:0.264583"
       d="M 39.668585,4.1153103 38.10589,1.3960965 h 0.830957 l 1.094507,1.9130615 1.097607,-1.9130615 h 0.830957 l -1.568896,2.7192138 v 2.0680908 h -0.722437 z" />
  </g>
  <text
     id="text1049"
     y="2.6458333"
     x="23.8125"
     style="font-size:3.52777px;line-height:1.25;font-family:Futura;-inkscape-font-specification:Futura;stroke-width:0.264583"
     xml:space="preserve"><tspan
       style="stroke-width:0.264583"
       y="2.6458333"
       x="23.8125"
       id="tspan1047"
       sodipodi:role="line" /></text>
  <g
     style="font-size:3.52777px;line-height:1.25;font-family:Futura;-inkscape-font-specification:Futura;stroke-width:0.264583"
     id="text1053"
     aria-label="A">
    <path
       id="path1248"
       style="stroke-width:0.264583"
       d="M 9.834885,19.205959 H 8.6962834 L 8.4000058,19.851913 H 7.9676473 l 1.3160236,-2.826694 1.2695151,2.826694 H 10.113937 Z M 9.6712433,18.828722 9.2767807,17.924387 8.8633702,18.828722 Z" />
  </g>
  <g
     style="font-size:3.52777px;line-height:1.25;font-family:Futura;-inkscape-font-specification:Futura;stroke-width:0.264583"
     id="text1057"
     aria-label="B">
    <path
       id="path1251"
       style="stroke-width:0.264583"
       d="M 21.699797,19.850637 V 17.19103 h 0.39963 q 0.266995,0 0.425469,0.04134 0.160196,0.04134 0.270439,0.139526 0.111965,0.10163 0.177422,0.253214 0.06718,0.153306 0.06718,0.310058 0,0.285942 -0.218763,0.484034 0.211873,0.07235 0.334174,0.253214 0.124023,0.179145 0.124023,0.416856 0,0.31178 -0.220486,0.527098 -0.132636,0.132636 -0.298,0.184313 -0.180867,0.04995 -0.453029,0.04995 z m 0.401353,-1.517561 h 0.125745 q 0.223931,0 0.327284,-0.09818 0.105075,-0.09991 0.105075,-0.292832 0,-0.187758 -0.106798,-0.28422 -0.106797,-0.09819 -0.310058,-0.09819 H 22.10115 Z m 0,1.140324 h 0.248046 q 0.272162,0 0.39963,-0.106797 0.134359,-0.115411 0.134359,-0.292833 0,-0.172254 -0.129191,-0.289387 -0.125746,-0.115411 -0.449584,-0.115411 h -0.20326 z" />
  </g>
  <g
     style="font-size:3.52777px;line-height:1.25;font-family:Futura;-inkscape-font-specification:Futura;stroke-width:0.264583"
     id="text1061"
     aria-label="Trig">
    <path
       id="path1254"
       style="stroke-width:0.264583"
       d="m 33.891994,17.556969 v 2.282371 h -0.401353 v -2.282371 h -0.611503 v -0.377237 h 1.622636 v 0.377237 z" />
    <path
       id="path1256"
       style="stroke-width:0.264583"
       d="m 34.672306,18.161582 h 0.387573 v 0.149862 q 0.106797,-0.111966 0.18948,-0.153307 0.0844,-0.04306 0.199815,-0.04306 0.153306,0 0.320393,0.09991 l -0.177422,0.354844 q -0.110243,-0.07924 -0.215318,-0.07924 -0.316948,0 -0.316948,0.478868 v 0.869884 h -0.387573 z" />
    <path
       id="path1258"
       style="stroke-width:0.264583"
       d="m 36.441359,18.161582 v 1.677758 h -0.387572 v -1.677758 z m -0.446139,-0.69763 q 0,-0.10163 0.07407,-0.175699 0.07407,-0.07407 0.177422,-0.07407 0.105076,0 0.179145,0.07407 0.07407,0.07235 0.07407,0.177422 0,0.105075 -0.07407,0.179144 -0.07235,0.07407 -0.177422,0.07407 -0.105075,0 -0.179145,-0.07407 -0.07407,-0.07407 -0.07407,-0.180867 z" />
    <path
       id="path1260"
       style="stroke-width:0.264583"
       d="m 38.558365,19.799722 q 0,0.118855 -0.0086,0.208428 -0.0069,0.09129 -0.02067,0.160196 -0.04134,0.18948 -0.161919,0.325561 -0.227376,0.261827 -0.625283,0.261827 -0.335896,0 -0.552937,-0.180868 -0.223931,-0.186034 -0.258382,-0.51504 h 0.389295 q 0.02239,0.124023 0.07407,0.191202 0.120578,0.156752 0.351399,0.156752 0.425468,0 0.425468,-0.521931 v -0.234266 q -0.230821,0.235988 -0.532266,0.235988 -0.342786,0 -0.561549,-0.248046 -0.220486,-0.251491 -0.220486,-0.628728 0,-0.366902 0.204983,-0.623561 0.220485,-0.272162 0.58222,-0.272162 0.316948,0 0.527098,0.235988 v -0.18948 h 0.387572 z m -0.372069,-0.795816 q 0,-0.244601 -0.130913,-0.391017 -0.132636,-0.149861 -0.339342,-0.149861 -0.220485,0 -0.347953,0.163641 -0.115411,0.146416 -0.115411,0.37896 0,0.229098 0.115411,0.375515 0.125745,0.160196 0.347953,0.160196 0.222209,0 0.351399,-0.161919 0.118856,-0.146416 0.118856,-0.375515 z" />
  </g>
  <g
     style="font-size:3.52777px;line-height:1.25;font-family:Futura;-inkscape-font-specification:Futura;stroke-width:0.264583"
     id="text1053-5"
     aria-label="A">
    <path
       id="path1263"
       style="stroke-width:0.264583"
       d="M 9.834885,33.758042 H 8.6962834 L 8.4000058,34.403996 H 7.9676473 l 1.3160236,-2.826695 1.2695151,2.826695 H 10.113937 Z M 9.6712433,33.380804 9.2767807,32.476469 8.8633702,33.380804 Z" />
  </g>
  <g
     style="font-size:3.52777px;line-height:1.25;font-family:Futura;-inkscape-font-specification:Futura;stroke-width:0.264583"
     id="text1057-4"
     aria-label="B">
    <path
       id="path1266"
       style="stroke-width:0.264583"
       d="m 21.699797,34.402721 v -2.659607 h 0.39963 q 0.266995,0 0.425469,0.04134 0.160196,0.04134 0.270439,0.139526 0.111965,0.10163 0.177422,0.253214 0.06718,0.153306 0.06718,0.310058 0,0.285942 -0.218763,0.484034 0.211873,0.07235 0.334174,0.253214 0.124023,0.179145 0.124023,0.416856 0,0.31178 -0.220486,0.527098 -0.132636,0.132636 -0.298,0.184313 -0.180867,0.04995 -0.453029,0.04995 z M 22.10115,32.88516 h 0.125745 q 0.223931,0 0.327284,-0.09819 0.105075,-0.09991 0.105075,-0.292832 0,-0.187758 -0.106798,-0.28422 -0.106797,-0.09819 -0.310058,-0.09819 H 22.10115 Z m 0,1.140324 h 0.248046 q 0.272162,0 0.39963,-0.106797 0.134359,-0.115411 0.134359,-0.292833 0,-0.172254 -0.129191,-0.289387 -0.125746,-0.115411 -0.449584,-0.115411 h -0.20326 z" />
  </g>
  <g
     style="font-size:3.52777px;line-height:1.25;font-family:Futura;-inkscape-font-specification:Futura;stroke-width:0.264583"
     id="text1061-8"
     aria-label="Trig">
    <path
       id="path1269"
       style="stroke-width:0.264583"
       d="m 33.891994,32.109052 v 2.28237 h -0.401353 v -2.28237 h -0.611503 v -0.377238 h 1.622636 v 0.377238 z" />
    <path
       id="path1271"
       style="stroke-width:0.264583"
       d="m 34.672306,32.713664 h 0.387573 v 0.149862 q 0.106797,-0.111966 0.18948,-0.153307 0.0844,-0.04306 0.199815,-0.04306 0.153306,0 0.320393,0.09991 l -0.177422,0.354844 q -0.110243,-0.07924 -0.215318,-0.07924 -0.316948,0 -0.316948,0.478868 v 0.869884 h -0.387573 z" />
    <path
       id="path1273"
       style="stroke-width:0.264583"
       d="m 36.441359,32.713664 v 1.677758 h -0.387572 v -1.677758 z m -0.446139,-0.69763 q 0,-0.10163 0.07407,-0.175699 0.07407,-0.07407 0.177422,-0.07407 0.105076,0 0.179145,0.07407 0.07407,0.07235 0.07407,0.177422 0,0.105075 -0.07407,0.179144 -0.07235,0.07407 -0.177422,0.07407 -0.105075,0 -0.179145,-0.07407 -0.07407,-0.07407 -0.07407,-0.180867 z" />
    <path
       id="path1275"
       style="stroke-width:0.264583"
       d="m 38.558365,34.351804 q 0,0.118855 -0.0086,0.208428 -0.0069,0.09129 -0.02067,0.160196 -0.04134,0.18948 -0.161919,0.325561 -0.227376,0.261827 -0.625283,0.261827 -0.335896,0 -0.552937,-0.180867 -0.223931,-0.186035 -0.258382,-0.515041 h 0.389295 q 0.02239,0.124023 0.07407,0.191202 0.120578,0.156752 0.351399,0.156752 0.425468,0 0.425468,-0.521931 v -0.234266 q -0.230821,0.235989 -0.532266,0.235989 -0.342786,0 -0.561549,-0.248047 -0.220486,-0.251491 -0.220486,-0.628728 0,-0.366902 0.204983,-0.623561 0.220485,-0.272162 0.58222,-0.272162 0.316948,0 0.527098,0.235988 v -0.18948 h 0.387572 z m -0.372069,-0.795816 q 0,-0.244601 -0.130913,-0.391017 -0.132636,-0.149861 -0.339342,-0.149861 -0.220485,0 -0.347953,0.163641 -0.115411,0.146417 -0.115411,0.37896 0,0.229098 0.115411,0.375515 0.125745,0.160196 0.347953,0.160196 0.222209,0 0.351399,-0.161919 0.118856,-0.146416 0.118856,-0.375515 z" />
  </g>
  <g
     style="font-size:3.52777px;line-height:1.25;font-family:Futura;-inkscape-font-specification:Futura;stroke-width:0.264583"
     id="text1053-3"
     aria-label="A">
    <path
       id="path1278"
       style="stroke-width:0.264583"
       d="M 9.834885,48.310127 H 8.6962834 L 8.4000058,48.956081 H 7.9676473 l 1.3160236,-2.826694 1.2695151,2.826694 H 10.113937 Z M 9.6712433,47.93289 9.2767807,47.028555 8.8633702,47.93289 Z" />
  </g>
  <g
     style="font-size:3.52777px;line-height:1.25;font-family:Futura;-inkscape-font-specification:Futura;stroke-width:0.264583"
     id="text1057-2"
     aria-label="B">
    <path
       id="path1281"
       style="stroke-width:0.264583"
       d="m 21.699797,48.954803 v -2.659607 h 0.39963 q 0.266995,0 0.425469,0.04134 0.160196,0.04134 0.270439,0.139526 0.111965,0.10163 0.177422,0.253214 0.06718,0.153306 0.06718,0.310058 0,0.285942 -0.218763,0.484034 0.211873,0.07235 0.334174,0.253214 0.124023,0.179145 0.124023,0.416856 0,0.31178 -0.220486,0.527098 -0.132636,0.132636 -0.298,0.184313 -0.180867,0.04995 -0.453029,0.04995 z m 0.401353,-1.517561 h 0.125745 q 0.223931,0 0.327284,-0.09819 0.105075,-0.09991 0.105075,-0.292832 0,-0.187758 -0.106798,-0.28422 -0.106797,-0.09819 -0.310058,-0.09819 H 22.10115 Z m 0,1.140324 h 0.248046 q 0.272162,0 0.39963,-0.106797 0.134359,-0.115411 0.134359,-0.292833 0,-0.172254 -0.129191,-0.289387 -0.125746,-0.115411 -0.449584,-0.115411 h -0.20326 z" />
  </g>
  <g
     style="font-size:3.52777px;line-height:1.25;font-family:Futura;-inkscape-font-specification:Futura;stroke-width:0.264583"
     id="text1061-6"
     aria-label="Trig">
    <path
       id="path1284"
       style="stroke-width:0.264583"
       d="m 33.891994,46.661137 v 2.282371 H 33.490641 V 46.661137 H 32.879138 V 46.2839 h 1.622636 v 0.377237 z" />
    <path
       id="path1286"
       style="stroke-width:0.264583"
       d="m 34.672306,47.26575 h 0.387573 v 0.149862 q 0.106797,-0.111966 0.18948,-0.153307 0.0844,-0.04306 0.199815,-0.04306 0.153306,0 0.320393,0.09991 l -0.177422,0.354844 q -0.110243,-0.07924 -0.215318,-0.07924 -0.316948,0 -0.316948,0.478867 v 0.869885 h -0.387573 z" />
    <path
       id="path1288"
       style="stroke-width:0.264583"
       d="m 36.441359,47.26575 v 1.677758 H 36.053787 V 47.26575 Z M 35.99522,46.56812 q 0,-0.10163 0.07407,-0.175699 0.07407,-0.07407 0.177422,-0.07407 0.105076,0 0.179145,0.07407 0.07407,0.07235 0.07407,0.177422 0,0.105075 -0.07407,0.179144 -0.07235,0.07407 -0.177422,0.07407 -0.105075,0 -0.179145,-0.07407 -0.07407,-0.07407 -0.07407,-0.180867 z" />
    <path
       id="path1290"
       style="stroke-width:0.264583"
       d="m 38.558365,48.90389 q 0,0.118855 -0.0086,0.208427 -0.0069,0.0913 -0.02067,0.160197 -0.04134,0.18948 -0.161919,0.325561 -0.227376,0.261827 -0.625283,0.261827 -0.335896,0 -0.552937,-0.180868 -0.223931,-0.186034 -0.258382,-0.51504 h 0.389295 q 0.02239,0.124023 0.07407,0.191202 0.120578,0.156752 0.351399,0.156752 0.425468,0 0.425468,-0.521931 v -0.234266 q -0.230821,0.235988 -0.532266,0.235988 -0.342786,0 -0.561549,-0.248046 -0.220486,-0.251491 -0.220486,-0.628728 0,-0.366902 0.204983,-0.623561 0.220485,-0.272162 0.58222,-0.272162 0.316948,0 0.527098,0.235988 v -0.18948 h 0.387572 z m -0.372069,-0.795816 q 0,-0.244601 -0.130913,-0.391017 -0.132636,-0.149861 -0.339342,-0.149861 -0.220485,0 -0.347953,0.163641 -0.115411,0.146416 -0.115411,0.37896 0,0.229098 0.115411,0.375514 0.125745,0.160197 0.347953,0.160197 0.222209,0 0.351399,-0.161919 0.118856,-0.146416 0.118856,-0.375515 z" />
  </g>
  <g
     style="font-size:3.52777px;line-height:1.25;font-family:Futura;-inkscape-font-specification:Futura;stroke-width:0.264583"
     id="text1053-8"
     aria-label="A">
    <path
       id="path1293"
       style="stroke-width:0.264583"
       d="M 9.834885,62.862209 H 8.6962834 L 8.4000058,63.508163 H 7.9676473 l 1.3160236,-2.826694 1.2695151,2.826694 H 10.113937 Z M 9.6712433,62.484972 9.2767807,61.580637 8.8633702,62.484972 Z" />
  </g>
  <g
     style="font-size:3.52777px;line-height:1.25;font-family:Futura;-inkscape-font-specification:Futura;stroke-width:0.264583"
     id="text1057-1"
     aria-label="B">
    <path
       id="path1296"
       style="stroke-width:0.264583"
       d="m 21.699797,63.506886 v -2.659608 h 0.39963 q 0.266995,0 0.425469,0.04134 0.160196,0.04134 0.270439,0.139526 0.111965,0.10163 0.177422,0.253214 0.06718,0.153306 0.06718,0.310058 0,0.285942 -0.218763,0.484034 0.211873,0.07235 0.334174,0.253214 0.124023,0.179145 0.124023,0.416856 0,0.311781 -0.220486,0.527099 -0.132636,0.132635 -0.298,0.184312 -0.180867,0.04995 -0.453029,0.04995 z m 0.401353,-1.517562 h 0.125745 q 0.223931,0 0.327284,-0.09819 0.105075,-0.09991 0.105075,-0.292832 0,-0.187757 -0.106798,-0.28422 -0.106797,-0.09819 -0.310058,-0.09819 H 22.10115 Z m 0,1.140324 h 0.248046 q 0.272162,0 0.39963,-0.106797 0.134359,-0.115411 0.134359,-0.292833 0,-0.172254 -0.129191,-0.289387 Q 22.628248,62.32522 22.30441,62.32522 h -0.20326 z" />
  </g>
  <g
     style="font-size:3.52777px;line-height:1.25;font-family:Futura;-inkscape-font-specification:Futura;stroke-width:0.264583"
     id="text1061-1"
     aria-label="Trig">
    <path
       id="path1299"
       style="stroke-width:0.264583"
       d="m 33.891994,61.213219 v 2.282371 h -0.401353 v -2.282371 h -0.611503 v -0.377237 h 1.622636 v 0.377237 z" />
    <path
       id="path1301"
       style="stroke-width:0.264583"
       d="m 34.672306,61.817832 h 0.387573 v 0.149862 q 0.106797,-0.111966 0.18948,-0.153307 0.0844,-0.04306 0.199815,-0.04306 0.153306,0 0.320393,0.09991 l -0.177422,0.354844 q -0.110243,-0.07924 -0.215318,-0.07924 -0.316948,0 -0.316948,0.478868 v 0.869884 h -0.387573 z" />
    <path
       id="path1303"
       style="stroke-width:0.264583"
       d="m 36.441359,61.817832 v 1.677758 h -0.387572 v -1.677758 z m -0.446139,-0.69763 q 0,-0.10163 0.07407,-0.175699 0.07407,-0.07407 0.177422,-0.07407 0.105076,0 0.179145,0.07407 0.07407,0.07235 0.07407,0.177422 0,0.105075 -0.07407,0.179144 -0.07235,0.07407 -0.177422,0.07407 -0.105075,0 -0.179145,-0.07407 -0.07407,-0.07407 -0.07407,-0.180867 z" />
    <path
       id="path1305"
       style="stroke-width:0.264583"
       d="m 38.558365,63.455972 q 0,0.118855 -0.0086,0.208428 -0.0069,0.09129 -0.02067,0.160196 -0.04134,0.18948 -0.161919,0.325561 -0.227376,0.261827 -0.625283,0.261827 -0.335896,0 -0.552937,-0.180868 -0.223931,-0.186034 -0.258382,-0.51504 h 0.389295 q 0.02239,0.124023 0.07407,0.191202 0.120578,0.156752 0.351399,0.156752 0.425468,0 0.425468,-0.521931 v -0.234266 q -0.230821,0.235988 -0.532266,0.235988 -0.342786,0 -0.561549,-0.248046 -0.220486,-0.251491 -0.220486,-0.628728 0,-0.366902 0.204983,-0.623561 0.220485,-0.272162 0.58222,-0.272162 0.316948,0 0.527098,0.235988 v -0.18948 h 0.387572 z m -0.372069,-0.795816 q 0,-0.244601 -0.130913,-0.391017 -0.132636,-0.149861 -0.339342,-0.149861 -0.220485,0 -0.347953,0.163641 -0.115411,0.146416 -0.115411,0.37896 0,0.229098 0.115411,0.375515 0.125745,0.160196 0.347953,0.160196 0.222209,0 0.351399,-0.161919 0.118856,-0.146416 0.118856,-0.375515 z" />
  </g>
  <g
     style="font-size:3.52777px;line-height:1.25;font-family:Futura;-inkscape-font-specification:Futura;stroke-width:0.264583"
     id="text1053-87"
     aria-label="A">
    <path
       id="path1308"
       style="stroke-width:0.264583"
       d="M 9.834885,77.414295 H 8.6962834 L 8.4000058,78.060249 H 7.9676473 l 1.3160236,-2.826694 1.2695151,2.826694 H 10.113937 Z M 9.6712433,77.037058 9.2767807,76.132723 8.8633702,77.037058 Z" />
  </g>
  <g
     style="font-size:3.52777px;line-height:1.25;font-family:Futura;-inkscape-font-specification:Futura;stroke-width:0.264583"
     id="text1057-44"
     aria-label="B">
    <path
       id="path1311"
       style="stroke-width:0.264583"
       d="M 21.699797,78.058968 V 75.39936 h 0.39963 q 0.266995,0 0.425469,0.04134 0.160196,0.04134 0.270439,0.139526 0.111965,0.10163 0.177422,0.253214 0.06718,0.153306 0.06718,0.310058 0,0.285942 -0.218763,0.484035 0.211873,0.07235 0.334174,0.253214 0.124023,0.179144 0.124023,0.416855 0,0.311781 -0.220486,0.527099 -0.132636,0.132635 -0.298,0.184312 -0.180867,0.04995 -0.453029,0.04995 z m 0.401353,-1.517562 h 0.125745 q 0.223931,0 0.327284,-0.09819 0.105075,-0.09991 0.105075,-0.292832 0,-0.187757 -0.106798,-0.28422 -0.106797,-0.09819 -0.310058,-0.09819 H 22.10115 Z m 0,1.140324 h 0.248046 q 0.272162,0 0.39963,-0.106797 0.134359,-0.115411 0.134359,-0.292833 0,-0.172254 -0.129191,-0.289387 -0.125746,-0.115411 -0.449584,-0.115411 h -0.20326 z" />
  </g>
  <g
     style="font-size:3.52777px;line-height:1.25;font-family:Futura;-inkscape-font-specification:Futura;stroke-width:0.264583"
     id="text1061-15"
     aria-label="Trig">
    <path
       id="path1314"
       style="stroke-width:0.264583"
       d="m 33.891994,75.765305 v 2.282371 h -0.401353 v -2.282371 h -0.611503 v -0.377237 h 1.622636 v 0.377237 z" />
    <path
       id="path1316"
       style="stroke-width:0.264583"
       d="m 34.672306,76.369918 h 0.387573 v 0.149862 q 0.106797,-0.111966 0.18948,-0.153307 0.0844,-0.04306 0.199815,-0.04306 0.153306,0 0.320393,0.09991 l -0.177422,0.354844 q -0.110243,-0.07924 -0.215318,-0.07924 -0.316948,0 -0.316948,0.478867 v 0.869885 h -0.387573 z" />
    <path
       id="path1318"
       style="stroke-width:0.264583"
       d="m 36.441359,76.369918 v 1.677758 h -0.387572 v -1.677758 z m -0.446139,-0.69763 q 0,-0.10163 0.07407,-0.1757 0.07407,-0.07407 0.177422,-0.07407 0.105076,0 0.179145,0.07407 0.07407,0.07235 0.07407,0.177423 0,0.105075 -0.07407,0.179144 -0.07235,0.07407 -0.177422,0.07407 -0.105075,0 -0.179145,-0.07407 -0.07407,-0.07407 -0.07407,-0.180867 z" />
    <path
       id="path1320"
       style="stroke-width:0.264583"
       d="m 38.558365,78.008058 q 0,0.118855 -0.0086,0.208427 -0.0069,0.09129 -0.02067,0.160197 -0.04134,0.18948 -0.161919,0.325561 -0.227376,0.261826 -0.625283,0.261826 -0.335896,0 -0.552937,-0.180867 -0.223931,-0.186034 -0.258382,-0.51504 h 0.389295 q 0.02239,0.124023 0.07407,0.191202 0.120578,0.156752 0.351399,0.156752 0.425468,0 0.425468,-0.521931 v -0.234266 q -0.230821,0.235988 -0.532266,0.235988 -0.342786,0 -0.561549,-0.248046 -0.220486,-0.251491 -0.220486,-0.628729 0,-0.366901 0.204983,-0.62356 0.220485,-0.272162 0.58222,-0.272162 0.316948,0 0.527098,0.235988 v -0.18948 h 0.387572 z m -0.372069,-0.795816 q 0,-0.244601 -0.130913,-0.391017 -0.132636,-0.149862 -0.339342,-0.149862 -0.220485,0 -0.347953,0.163642 -0.115411,0.146416 -0.115411,0.37896 0,0.229098 0.115411,0.375514 0.125745,0.160197 0.347953,0.160197 0.222209,0 0.351399,-0.161919 0.118856,-0.146416 0.118856,-0.375515 z" />
  </g>
  <g
     style="font-size:3.52777px;line-height:1.25;font-family:Futura;-inkscape-font-specification:Futura;stroke-width:0.264583"
     id="text1053-58"
     aria-label="A">
    <path
       id="path1323"
       style="stroke-width:0.264583"
       d="M 9.834885,91.966374 H 8.6962834 L 8.4000058,92.612328 H 7.9676473 l 1.3160236,-2.826695 1.2695151,2.826695 H 10.113937 Z M 9.6712433,91.589136 9.2767807,90.684801 8.8633702,91.589136 Z" />
  </g>
  <g
     style="font-size:3.52777px;line-height:1.25;font-family:Futura;-inkscape-font-specification:Futura;stroke-width:0.264583"
     id="text1057-9"
     aria-label="B">
    <path
       id="path1326"
       style="stroke-width:0.264583"
       d="m 21.699797,92.611053 v -2.659607 h 0.39963 q 0.266995,0 0.425469,0.04134 0.160196,0.04134 0.270439,0.139526 0.111965,0.10163 0.177422,0.253214 0.06718,0.153306 0.06718,0.310058 0,0.285942 -0.218763,0.484034 0.211873,0.07235 0.334174,0.253214 0.124023,0.179145 0.124023,0.416856 0,0.31178 -0.220486,0.527098 -0.132636,0.132636 -0.298,0.184313 -0.180867,0.04995 -0.453029,0.04995 z m 0.401353,-1.517561 h 0.125745 q 0.223931,0 0.327284,-0.09819 0.105075,-0.09991 0.105075,-0.292832 0,-0.187758 -0.106798,-0.28422 -0.106797,-0.09819 -0.310058,-0.09819 H 22.10115 Z m 0,1.140324 h 0.248046 q 0.272162,0 0.39963,-0.106797 0.134359,-0.115411 0.134359,-0.292833 0,-0.172254 -0.129191,-0.289387 -0.125746,-0.115411 -0.449584,-0.115411 h -0.20326 z" />
  </g>
  <g
     style="font-size:3.52777px;line-height:1.25;font-family:Futura;-inkscape-font-specification:Futura;stroke-width:0.264583"
     id="text1061-2"
     aria-label="Trig">
    <path
       id="path1329"
       style="stroke-width:0.264583"
       d="m 33.891994,90.317384 v 2.28237 h -0.401353 v -2.28237 h -0.611503 v -0.377238 h 1.622636 v 0.377238 z" />
    <path
       id="path1331"
       style="stroke-width:0.264583"
       d="m 34.672306,90.921997 h 0.387573 v 0.149861 q 0.106797,-0.111966 0.18948,-0.153307 0.0844,-0.04306 0.199815,-0.04306 0.153306,0 0.320393,0.09991 l -0.177422,0.354844 q -0.110243,-0.07924 -0.215318,-0.07924 -0.316948,0 -0.316948,0.478868 v 0.869884 h -0.387573 z" />
    <path
       id="path1333"
       style="stroke-width:0.264583"
       d="m 36.441359,90.921997 v 1.677757 H 36.053787 V 90.921997 Z M 35.99522,90.224366 q 0,-0.10163 0.07407,-0.175699 0.07407,-0.07407 0.177422,-0.07407 0.105076,0 0.179145,0.07407 0.07407,0.07235 0.07407,0.177422 0,0.105075 -0.07407,0.179144 -0.07235,0.07407 -0.177422,0.07407 -0.105075,0 -0.179145,-0.07407 -0.07407,-0.07407 -0.07407,-0.180867 z" />
    <path
       id="path1335"
       style="stroke-width:0.264583"
       d="m 38.558365,92.560136 q 0,0.118855 -0.0086,0.208428 -0.0069,0.09129 -0.02067,0.160196 -0.04134,0.18948 -0.161919,0.325561 -0.227376,0.261827 -0.625283,0.261827 -0.335896,0 -0.552937,-0.180867 -0.223931,-0.186035 -0.258382,-0.515041 h 0.389295 q 0.02239,0.124023 0.07407,0.191202 0.120578,0.156752 0.351399,0.156752 0.425468,0 0.425468,-0.521931 v -0.234266 q -0.230821,0.235989 -0.532266,0.235989 -0.342786,0 -0.561549,-0.248047 -0.220486,-0.251491 -0.220486,-0.628728 0,-0.366902 0.204983,-0.623561 0.220485,-0.272162 0.58222,-0.272162 0.316948,0 0.527098,0.235988 v -0.189479 h 0.387572 z m -0.372069,-0.795815 q 0,-0.244602 -0.130913,-0.391018 -0.132636,-0.149861 -0.339342,-0.149861 -0.220485,0 -0.347953,0.163641 -0.115411,0.146417 -0.115411,0.37896 0,0.229098 0.115411,0.375515 0.125745,0.160196 0.347953,0.160196 0.222209,0 0.351399,-0.161919 0.118856,-0.146416 0.118856,-0.375514 z" />
  </g>
  <g
     style="font-size:3.52777px;line-height:1.25;font-family:Futura;-inkscape-font-specification:Futura;stroke-width:0.264583"
     id="text1053-7"
     aria-label="A">
    <path
       id="path1338"
       style="stroke-width:0.264583"
       d="M 9.834885,106.51846 H 8.6962834 l -0.2962776,0.64595 H 7.9676473 l 1.3160236,-2.82669 1.2695151,2.82669 h -0.439249 z m -0.1636417,-0.37724 -0.3944626,-0.90433 -0.4134105,0.90433 z" />
  </g>
  <g
     style="font-size:3.52777px;line-height:1.25;font-family:Futura;-inkscape-font-specification:Futura;stroke-width:0.264583"
     id="text1057-5"
     aria-label="B">
    <path
       id="path1341"
       style="stroke-width:0.264583"
       d="m 21.699797,107.16314 v -2.65961 h 0.39963 q 0.266995,0 0.425469,0.0413 0.160196,0.0413 0.270439,0.13953 0.111965,0.10163 0.177422,0.25321 0.06718,0.15331 0.06718,0.31006 0,0.28594 -0.218763,0.48404 0.211873,0.0723 0.334174,0.25321 0.124023,0.17914 0.124023,0.41685 0,0.31179 -0.220486,0.5271 -0.132636,0.13264 -0.298,0.18432 -0.180867,0.0499 -0.453029,0.0499 z m 0.401353,-1.51756 h 0.125745 q 0.223931,0 0.327284,-0.0982 0.105075,-0.0999 0.105075,-0.29283 0,-0.18776 -0.106798,-0.28422 -0.106797,-0.0982 -0.310058,-0.0982 H 22.10115 Z m 0,1.14032 h 0.248046 q 0.272162,0 0.39963,-0.1068 0.134359,-0.11541 0.134359,-0.29283 0,-0.17225 -0.129191,-0.28939 -0.125746,-0.11541 -0.449584,-0.11541 h -0.20326 z" />
  </g>
  <g
     style="font-size:3.52777px;line-height:1.25;font-family:Futura;-inkscape-font-specification:Futura;stroke-width:0.264583"
     id="text1061-0"
     aria-label="Trig">
    <path
       id="path1344"
       style="stroke-width:0.264583"
       d="m 33.891994,104.86947 v 2.28237 h -0.401353 v -2.28237 h -0.611503 v -0.37724 h 1.622636 v 0.37724 z" />
    <path
       id="path1346"
       style="stroke-width:0.264583"
       d="m 34.672306,105.47408 h 0.387573 v 0.14986 q 0.106797,-0.11196 0.18948,-0.1533 0.0844,-0.0431 0.199815,-0.0431 0.153306,0 0.320393,0.0999 l -0.177422,0.35485 q -0.110243,-0.0792 -0.215318,-0.0792 -0.316948,0 -0.316948,0.47887 v 0.86988 h -0.387573 z" />
    <path
       id="path1348"
       style="stroke-width:0.264583"
       d="m 36.441359,105.47408 v 1.67776 h -0.387572 v -1.67776 z m -0.446139,-0.69763 q 0,-0.10163 0.07407,-0.1757 0.07407,-0.0741 0.177422,-0.0741 0.105076,0 0.179145,0.0741 0.07407,0.0724 0.07407,0.17742 0,0.10508 -0.07407,0.17915 -0.07235,0.0741 -0.177422,0.0741 -0.105075,0 -0.179145,-0.0741 -0.07407,-0.0741 -0.07407,-0.18087 z" />
    <path
       id="path1350"
       style="stroke-width:0.264583"
       d="m 38.558365,107.11222 q 0,0.11886 -0.0086,0.20843 -0.0069,0.0913 -0.02067,0.1602 -0.04134,0.18948 -0.161919,0.32556 -0.227376,0.26182 -0.625283,0.26182 -0.335896,0 -0.552937,-0.18086 -0.223931,-0.18604 -0.258382,-0.51504 h 0.389295 q 0.02239,0.12402 0.07407,0.1912 0.120578,0.15675 0.351399,0.15675 0.425468,0 0.425468,-0.52193 v -0.23427 q -0.230821,0.23599 -0.532266,0.23599 -0.342786,0 -0.561549,-0.24804 -0.220486,-0.2515 -0.220486,-0.62873 0,-0.36691 0.204983,-0.62356 0.220485,-0.27217 0.58222,-0.27217 0.316948,0 0.527098,0.23599 v -0.18948 h 0.387572 z m -0.372069,-0.79581 q 0,-0.2446 -0.130913,-0.39102 -0.132636,-0.14986 -0.339342,-0.14986 -0.220485,0 -0.347953,0.16364 -0.115411,0.14642 -0.115411,0.37896 0,0.2291 0.115411,0.37551 0.125745,0.1602 0.347953,0.1602 0.222209,0 0.351399,-0.16192 0.118856,-0.14642 0.118856,-0.37551 z" />
  </g>
  <g
     style="font-size:3.52777px;line-height:1.25;font-family:Futura;-inkscape-font-specification:Futura;stroke-width:0.264583"
     id="text1053-0"
     aria-label="A">
    <path
       id="path1353"
       style="stroke-width:0.264583"
       d="M 9.834885,121.07055 H 8.6962834 L 8.4000058,121.7165 H 7.9676473 l 1.3160236,-2.8267 1.2695151,2.8267 h -0.439249 z m -0.1636417,-0.37724 -0.3944626,-0.90434 -0.4134105,0.90434 z" />
  </g>
  <g
     style="font-size:3.52777px;line-height:1.25;font-family:Futura;-inkscape-font-specification:Futura;stroke-width:0.264583"
     id="text1057-56"
     aria-label="B">
    <path
       id="path1356"
       style="stroke-width:0.264583"
       d="m 21.699797,121.71522 v -2.65961 h 0.39963 q 0.266995,0 0.425469,0.0413 0.160196,0.0413 0.270439,0.13953 0.111965,0.10163 0.177422,0.25321 0.06718,0.15331 0.06718,0.31006 0,0.28594 -0.218763,0.48403 0.211873,0.0724 0.334174,0.25322 0.124023,0.17914 0.124023,0.41685 0,0.31178 -0.220486,0.5271 -0.132636,0.13264 -0.298,0.18431 -0.180867,0.05 -0.453029,0.05 z m 0.401353,-1.51756 h 0.125745 q 0.223931,0 0.327284,-0.0982 0.105075,-0.0999 0.105075,-0.29283 0,-0.18776 -0.106798,-0.28422 -0.106797,-0.0982 -0.310058,-0.0982 H 22.10115 Z m 0,1.14032 h 0.248046 q 0.272162,0 0.39963,-0.1068 0.134359,-0.11541 0.134359,-0.29283 0,-0.17225 -0.129191,-0.28939 -0.125746,-0.11541 -0.449584,-0.11541 h -0.20326 z" />
  </g>
  <g
     style="font-size:3.52777px;line-height:1.25;font-family:Futura;-inkscape-font-specification:Futura;stroke-width:0.264583"
     id="text1061-85"
     aria-label="Trig">
    <path
       id="path1359"
       style="stroke-width:0.264583"
       d="m 33.891994,119.42156 v 2.28237 h -0.401353 v -2.28237 h -0.611503 v -0.37723 h 1.622636 v 0.37723 z" />
    <path
       id="path1361"
       style="stroke-width:0.264583"
       d="m 34.672306,120.02618 h 0.387573 v 0.14986 q 0.106797,-0.11197 0.18948,-0.15331 0.0844,-0.0431 0.199815,-0.0431 0.153306,0 0.320393,0.0999 l -0.177422,0.35485 q -0.110243,-0.0792 -0.215318,-0.0792 -0.316948,0 -0.316948,0.47887 v 0.86988 h -0.387573 z" />
    <path
       id="path1363"
       style="stroke-width:0.264583"
       d="m 36.441359,120.02618 v 1.67775 h -0.387572 v -1.67775 z m -0.446139,-0.69763 q 0,-0.10163 0.07407,-0.1757 0.07407,-0.0741 0.177422,-0.0741 0.105076,0 0.179145,0.0741 0.07407,0.0723 0.07407,0.17742 0,0.10507 -0.07407,0.17914 -0.07235,0.0741 -0.177422,0.0741 -0.105075,0 -0.179145,-0.0741 -0.07407,-0.0741 -0.07407,-0.18086 z" />
    <path
       id="path1365"
       style="stroke-width:0.264583"
       d="m 38.558365,121.66432 q 0,0.11885 -0.0086,0.20842 -0.0069,0.0913 -0.02067,0.1602 -0.04134,0.18948 -0.161919,0.32556 -0.227376,0.26183 -0.625283,0.26183 -0.335896,0 -0.552937,-0.18087 -0.223931,-0.18603 -0.258382,-0.51504 h 0.389295 q 0.02239,0.12402 0.07407,0.1912 0.120578,0.15675 0.351399,0.15675 0.425468,0 0.425468,-0.52193 v -0.23426 q -0.230821,0.23598 -0.532266,0.23598 -0.342786,0 -0.561549,-0.24804 -0.220486,-0.25149 -0.220486,-0.62873 0,-0.3669 0.204983,-0.62356 0.220485,-0.27216 0.58222,-0.27216 0.316948,0 0.527098,0.23599 v -0.18948 h 0.387572 z m -0.372069,-0.79582 q 0,-0.2446 -0.130913,-0.39102 -0.132636,-0.14986 -0.339342,-0.14986 -0.220485,0 -0.347953,0.16364 -0.115411,0.14642 -0.115411,0.37896 0,0.2291 0.115411,0.37552 0.125745,0.16019 0.347953,0.16019 0.222209,0 0.351399,-0.16192 0.118856,-0.14641 0.118856,-0.37551 z" />
  </g>
</svg>
