<?xml version="1.0" encoding="UTF-8" standalone="no"?>
<svg
   xmlns:dc="http://purl.org/dc/elements/1.1/"
   xmlns:cc="http://creativecommons.org/ns#"
   xmlns:rdf="http://www.w3.org/1999/02/22-rdf-syntax-ns#"
   xmlns:svg="http://www.w3.org/2000/svg"
   xmlns="http://www.w3.org/2000/svg"
   xmlns:sodipodi="http://sodipodi.sourceforge.net/DTD/sodipodi-0.dtd"
   xmlns:inkscape="http://www.inkscape.org/namespaces/inkscape"
   width="60.959999mm"
   height="128.5mm"
   viewBox="0 0 60.959999 128.5"
   version="1.1"
   id="svg1138"
   inkscape:version="1.0beta1 (32d4812, 2019-09-19)"
   sodipodi:docname="And.svg">
  <defs
     id="defs1132" />
  <sodipodi:namedview
     inkscape:snap-bbox-midpoints="true"
     inkscape:snap-bbox="true"
     id="base"
     pagecolor="#ffffff"
     bordercolor="#666666"
     borderopacity="1.0"
     inkscape:pageopacity="0.0"
     inkscape:pageshadow="2"
     inkscape:zoom="1.7954604"
     inkscape:cx="115.2"
     inkscape:cy="216.96106"
     inkscape:document-units="mm"
     inkscape:current-layer="layer4"
     inkscape:document-rotation="0"
     showgrid="true"
     inkscape:snap-object-midpoints="true"
     inkscape:window-width="1920"
     inkscape:window-height="1080"
     inkscape:window-x="1440"
     inkscape:window-y="0"
     inkscape:window-maximized="0">
    <inkscape:grid
       type="xygrid"
       id="grid1738" />
  </sodipodi:namedview>
  <metadata
     id="metadata1135">
    <rdf:RDF>
      <cc:Work
         rdf:about="">
        <dc:format>image/svg+xml</dc:format>
        <dc:type
           rdf:resource="http://purl.org/dc/dcmitype/StillImage" />
        <dc:title />
      </cc:Work>
    </rdf:RDF>
  </metadata>
  <g
     inkscape:label="Background"
     inkscape:groupmode="layer"
     id="layer1"
     sodipodi:insensitive="true">
    <rect
       style="display:inline;fill:#f8f8f8;fill-opacity:1;stroke:none;stroke-width:0.173754"
       id="rect10"
       width="60.959999"
       height="128.5"
       x="0"
       y="0" />
  </g>
  <g
     sodipodi:insensitive="true"
     inkscape:groupmode="layer"
     id="layer3"
     inkscape:label="boxes">
    <rect
       y="6.879159"
       x="43.656075"
       height="10.583333"
       width="10.583333"
       id="rect1740-1"
       style="display:inline;fill:#000000;fill-opacity:0.5;stroke:none;stroke-width:0.53;stroke-miterlimit:4;stroke-dasharray:0.53, 1.06;stroke-dashoffset:0;stroke-opacity:1" />
    <rect
       y="21.431232"
       x="43.656075"
       height="10.583333"
       width="10.583333"
       id="rect1740-1-5"
       style="display:inline;fill:#000000;fill-opacity:0.5;stroke:none;stroke-width:0.53;stroke-miterlimit:4;stroke-dasharray:0.53, 1.06;stroke-dashoffset:0;stroke-opacity:1" />
    <rect
       y="35.983307"
       x="43.656075"
       height="10.583333"
       width="10.583333"
       id="rect1740-1-9"
       style="display:inline;fill:#000000;fill-opacity:0.5;stroke:none;stroke-width:0.53;stroke-miterlimit:4;stroke-dasharray:0.53, 1.06;stroke-dashoffset:0;stroke-opacity:1" />
    <rect
       y="50.643188"
       x="43.656075"
       height="10.583333"
       width="10.583333"
       id="rect1740-1-7"
       style="display:inline;fill:#000000;fill-opacity:0.5;stroke:none;stroke-width:0.53;stroke-miterlimit:4;stroke-dasharray:0.53, 1.06;stroke-dashoffset:0;stroke-opacity:1" />
    <rect
       y="65.087486"
       x="43.656075"
       height="10.583333"
       width="10.583333"
       id="rect1740-1-53"
       style="display:inline;fill:#000000;fill-opacity:0.5;stroke:none;stroke-width:0.53;stroke-miterlimit:4;stroke-dasharray:0.53, 1.06;stroke-dashoffset:0;stroke-opacity:1" />
    <rect
       y="79.639565"
       x="43.656075"
       height="10.583333"
       width="10.583333"
       id="rect1740-1-90"
       style="display:inline;fill:#000000;fill-opacity:0.5;stroke:none;stroke-width:0.53;stroke-miterlimit:4;stroke-dasharray:0.53, 1.06;stroke-dashoffset:0;stroke-opacity:1" />
    <rect
       y="94.191635"
       x="43.656075"
       height="10.583333"
       width="10.583333"
       id="rect1740-1-55"
       style="display:inline;fill:#000000;fill-opacity:0.5;stroke:none;stroke-width:0.53;stroke-miterlimit:4;stroke-dasharray:0.53, 1.06;stroke-dashoffset:0;stroke-opacity:1" />
    <rect
       y="108.74371"
       x="43.656075"
       height="10.583333"
       width="10.583333"
       id="rect1740-1-6"
       style="display:inline;fill:#000000;fill-opacity:0.5;stroke:none;stroke-width:0.53;stroke-miterlimit:4;stroke-dasharray:0.53, 1.06;stroke-dashoffset:0;stroke-opacity:1" />
  </g>
  <g
     sodipodi:insensitive="true"
     inkscape:groupmode="layer"
     id="layer4"
     inkscape:label="text"
     style="display:inline;opacity:1">
    <g
       aria-label="STALYS"
       id="text1717-2"
       style="font-size:6.35px;line-height:1.25;font-family:Futura;-inkscape-font-specification:Futura;display:inline;opacity:1;stroke-width:0.264583"
       transform="translate(-71.695688,-0.06042158)">
      <path
         d="m 94.892412,122.92583 -0.586011,0.34727 q -0.164331,-0.28526 -0.313159,-0.37207 -0.155029,-0.0992 -0.399976,-0.0992 -0.300757,0 -0.499194,0.17053 -0.198438,0.16743 -0.198438,0.42168 0,0.35036 0.520899,0.56431 l 0.47749,0.19533 q 0.58291,0.23565 0.852661,0.57671 0.269751,0.33796 0.269751,0.83096 0,0.66042 -0.440283,1.0914 -0.443384,0.43409 -1.100708,0.43409 -0.623218,0 -1.029395,-0.36897 -0.399975,-0.36897 -0.499194,-1.0387 l 0.731738,-0.16123 q 0.04961,0.42168 0.173633,0.58291 0.223242,0.31006 0.651123,0.31006 0.337964,0 0.561206,-0.22634 0.223243,-0.22635 0.223243,-0.57361 0,-0.13953 -0.04031,-0.25425 -0.03721,-0.11782 -0.120923,-0.21394 -0.08061,-0.0992 -0.21084,-0.18294 -0.130224,-0.0868 -0.310058,-0.16433 l -0.461988,-0.19223 q -0.982885,-0.41548 -0.982885,-1.21543 0,-0.5395 0.412378,-0.90227 0.412377,-0.36587 1.026293,-0.36587 0.827857,0 1.292945,0.80615 z"
         style="stroke-width:0.264583"
         id="path2113"
         inkscape:connector-curvature="0" />
      <path
         d="M 97.307768,122.89172 V 127 h -0.722436 v -4.10828 h -1.100708 v -0.67902 h 2.920751 v 0.67902 z"
         style="stroke-width:0.264583"
         id="path2115"
         inkscape:connector-curvature="0" />
      <path
         d="M 101.60208,125.83728 H 99.552592 L 99.019291,127 h -0.778247 l 2.368846,-5.08806 2.28513,5.08806 h -0.79065 z m -0.29456,-0.67903 -0.71003,-1.62781 -0.744141,1.62781 z"
         style="stroke-width:0.264583"
         id="path2117"
         inkscape:connector-curvature="0" />
      <path
         d="m 104.21897,122.2127 v 4.10827 h 1.40767 V 127 h -2.1301 v -4.7873 z"
         style="stroke-width:0.264583"
         id="path2119"
         inkscape:connector-curvature="0" />
      <path
         d="m 106.87618,124.93191 -1.5627,-2.71921 h 0.83096 l 1.0945,1.91306 1.09761,-1.91306 h 0.83096 l -1.5689,2.71921 V 127 h -0.72243 z"
         style="stroke-width:0.264583"
         id="path2121"
         inkscape:connector-curvature="0" />
      <path
         d="m 112.2805,122.92583 -0.58601,0.34727 q -0.16433,-0.28526 -0.31316,-0.37207 -0.15503,-0.0992 -0.39998,-0.0992 -0.30075,0 -0.49919,0.17053 -0.19844,0.16743 -0.19844,0.42168 0,0.35036 0.5209,0.56431 l 0.47749,0.19533 q 0.58291,0.23565 0.85266,0.57671 0.26975,0.33796 0.26975,0.83096 0,0.66042 -0.44028,1.0914 -0.44339,0.43409 -1.10071,0.43409 -0.62322,0 -1.02939,-0.36897 -0.39998,-0.36897 -0.4992,-1.0387 l 0.73174,-0.16123 q 0.0496,0.42168 0.17363,0.58291 0.22324,0.31006 0.65113,0.31006 0.33796,0 0.5612,-0.22634 0.22324,-0.22635 0.22324,-0.57361 0,-0.13953 -0.0403,-0.25425 -0.0372,-0.11782 -0.12093,-0.21394 -0.0806,-0.0992 -0.21084,-0.18294 -0.13022,-0.0868 -0.31006,-0.16433 l -0.46198,-0.19223 q -0.98289,-0.41548 -0.98289,-1.21543 0,-0.5395 0.41238,-0.90227 0.41238,-0.36587 1.02629,-0.36587 0.82786,0 1.29295,0.80615 z"
         style="stroke-width:0.264583"
         id="path2123"
         inkscape:connector-curvature="0" />
    </g>
    <text
       xml:space="preserve"
       style="font-size:6.35px;line-height:1.25;font-family:Futura;-inkscape-font-specification:Futura;stroke-width:0.264583"
       x="7.9375"
       y="19.84375"
       id="text1987"><tspan
         sodipodi:role="line"
         id="tspan1985"
         x="7.9375"
         y="19.84375"
         style="stroke-width:0.264583" /></text>
    <g
       style="font-size:3.52777px;line-height:1.25;font-family:Futura;-inkscape-font-specification:Futura;stroke-width:0.264583"
       id="text1102"
       aria-label="∧">
      <path
         inkscape:connector-curvature="0"
         id="path1222"
         style="stroke-width:0.264583"
         d="M 16.795699,12.907909 H 16.489087 L 15.874138,11.2491 15.260913,12.907909 H 14.9543 l 0.776867,-2.003318 h 0.287665 z" />
    </g>
    <g
       style="font-size:3.52777px;line-height:1.25;font-family:Futura;-inkscape-font-specification:Futura;display:inline;opacity:1;stroke-width:0.264583"
       id="text1102-3"
       aria-label="∧">
      <path
         inkscape:connector-curvature="0"
         id="path1225"
         style="stroke-width:0.264583"
         d="M 30.024866,12.907909 H 29.718254 L 29.103305,11.2491 28.49008,12.907909 h -0.306613 l 0.776867,-2.003318 h 0.287665 z" />
    </g>
    <g
       style="font-size:3.52777px;line-height:1.25;font-family:Futura;-inkscape-font-specification:Futura;display:inline;opacity:1;stroke-width:0.264583"
       id="text1102-9"
       aria-label="∧">
      <path
         inkscape:connector-curvature="0"
         id="path1228"
         style="stroke-width:0.264583"
         d="m 16.795699,27.459993 h -0.306612 l -0.614949,-1.658809 -0.613225,1.658809 H 14.9543 l 0.776867,-2.003318 h 0.287665 z" />
    </g>
    <g
       style="font-size:3.52777px;line-height:1.25;font-family:Futura;-inkscape-font-specification:Futura;display:inline;opacity:1;stroke-width:0.264583"
       id="text1102-3-2"
       aria-label="∧">
      <path
         inkscape:connector-curvature="0"
         id="path1231"
         style="stroke-width:0.264583"
         d="m 30.024866,27.459993 h -0.306612 l -0.614949,-1.658809 -0.613225,1.658809 h -0.306613 l 0.776867,-2.003318 h 0.287665 z" />
    </g>
    <g
       style="font-size:3.52777px;line-height:1.25;font-family:Futura;-inkscape-font-specification:Futura;display:inline;opacity:1;stroke-width:0.264583"
       id="text1102-99"
       aria-label="∧">
      <path
         inkscape:connector-curvature="0"
         id="path1234"
         style="stroke-width:0.264583"
         d="m 16.795699,42.012077 h -0.306612 l -0.614949,-1.65881 -0.613225,1.65881 H 14.9543 l 0.776867,-2.003318 h 0.287665 z" />
    </g>
    <g
       style="font-size:3.52777px;line-height:1.25;font-family:Futura;-inkscape-font-specification:Futura;display:inline;opacity:1;stroke-width:0.264583"
       id="text1102-3-3"
       aria-label="∧">
      <path
         inkscape:connector-curvature="0"
         id="path1237"
         style="stroke-width:0.264583"
         d="m 30.024866,42.012077 h -0.306612 l -0.614949,-1.65881 -0.613225,1.65881 h -0.306613 l 0.776867,-2.003318 h 0.287665 z" />
    </g>
    <g
       style="font-size:3.52777px;line-height:1.25;font-family:Futura;-inkscape-font-specification:Futura;display:inline;opacity:1;stroke-width:0.264583"
       id="text1102-8"
       aria-label="∧">
      <path
         inkscape:connector-curvature="0"
         id="path1240"
         style="stroke-width:0.264583"
         d="M 16.795699,56.564159 H 16.489087 L 15.874138,54.90535 15.260913,56.564159 H 14.9543 l 0.776867,-2.003318 h 0.287665 z" />
    </g>
    <g
       style="font-size:3.52777px;line-height:1.25;font-family:Futura;-inkscape-font-specification:Futura;display:inline;opacity:1;stroke-width:0.264583"
       id="text1102-3-5"
       aria-label="∧">
      <path
         inkscape:connector-curvature="0"
         id="path1243"
         style="stroke-width:0.264583"
         d="M 30.024866,56.564159 H 29.718254 L 29.103305,54.90535 28.49008,56.564159 h -0.306613 l 0.776867,-2.003318 h 0.287665 z" />
    </g>
    <g
       style="font-size:3.52777px;line-height:1.25;font-family:Futura;-inkscape-font-specification:Futura;display:inline;opacity:1;stroke-width:0.264583"
       id="text1102-6"
       aria-label="∧">
      <path
         inkscape:connector-curvature="0"
         id="path1246"
         style="stroke-width:0.264583"
         d="m 16.795699,71.116241 h -0.306612 l -0.614949,-1.658809 -0.613225,1.658809 H 14.9543 l 0.776867,-2.003318 h 0.287665 z" />
    </g>
    <g
       style="font-size:3.52777px;line-height:1.25;font-family:Futura;-inkscape-font-specification:Futura;display:inline;opacity:1;stroke-width:0.264583"
       id="text1102-3-7"
       aria-label="∧">
      <path
         inkscape:connector-curvature="0"
         id="path1249"
         style="stroke-width:0.264583"
         d="m 30.024866,71.116241 h -0.306612 l -0.614949,-1.658809 -0.613225,1.658809 h -0.306613 l 0.776867,-2.003318 h 0.287665 z" />
    </g>
    <g
       style="font-size:3.52777px;line-height:1.25;font-family:Futura;-inkscape-font-specification:Futura;display:inline;opacity:1;stroke-width:0.264583"
       id="text1102-39"
       aria-label="∧">
      <path
         inkscape:connector-curvature="0"
         id="path1252"
         style="stroke-width:0.264583"
         d="m 16.795699,85.668327 h -0.306612 l -0.614949,-1.65881 -0.613225,1.65881 H 14.9543 l 0.776867,-2.003318 h 0.287665 z" />
    </g>
    <g
       style="font-size:3.52777px;line-height:1.25;font-family:Futura;-inkscape-font-specification:Futura;display:inline;opacity:1;stroke-width:0.264583"
       id="text1102-3-9"
       aria-label="∧">
      <path
         inkscape:connector-curvature="0"
         id="path1255"
         style="stroke-width:0.264583"
         d="m 30.024866,85.668327 h -0.306612 l -0.614949,-1.65881 -0.613225,1.65881 h -0.306613 l 0.776867,-2.003318 h 0.287665 z" />
    </g>
    <g
       style="font-size:3.52777px;line-height:1.25;font-family:Futura;-inkscape-font-specification:Futura;display:inline;opacity:1;stroke-width:0.264583"
       id="text1102-7"
       aria-label="∧">
      <path
         inkscape:connector-curvature="0"
         id="path1258"
         style="stroke-width:0.264583"
         d="m 16.795699,100.22041 h -0.306612 l -0.614949,-1.658807 -0.613225,1.658807 H 14.9543 l 0.776867,-2.003315 h 0.287665 z" />
    </g>
    <g
       style="font-size:3.52777px;line-height:1.25;font-family:Futura;-inkscape-font-specification:Futura;display:inline;opacity:1;stroke-width:0.264583"
       id="text1102-3-6"
       aria-label="∧">
      <path
         inkscape:connector-curvature="0"
         id="path1261"
         style="stroke-width:0.264583"
         d="m 30.024866,100.22041 h -0.306612 l -0.614949,-1.658807 -0.613225,1.658807 h -0.306613 l 0.776867,-2.003315 h 0.287665 z" />
    </g>
    <g
       style="font-size:3.52778px;line-height:1.25;font-family:Futura;-inkscape-font-specification:Futura;display:inline;opacity:1;stroke-width:0.264583"
       id="text1102-5"
       aria-label="∧">
      <path
         inkscape:connector-curvature="0"
         id="path1264"
         style="stroke-width:0.264583"
         d="M 16.795704,114.77249 H 16.48909 l -0.61495,-1.65881 -0.613226,1.65881 H 14.9543 l 0.776869,-2.00332 h 0.287666 z" />
    </g>
    <g
       style="font-size:3.52778px;line-height:1.25;font-family:Futura;-inkscape-font-specification:Futura;display:inline;opacity:1;stroke-width:0.264583"
       id="text1102-3-1"
       aria-label="∧">
      <path
         inkscape:connector-curvature="0"
         id="path1267"
         style="stroke-width:0.264583"
         d="m 30.02487,114.77249 h -0.306613 l -0.61495,-1.65881 -0.613226,1.65881 h -0.306614 l 0.776869,-2.00332 h 0.287665 z" />
    </g>
    <g
       style="font-size:6.35px;line-height:1.25;font-family:Futura;-inkscape-font-specification:Futura;stroke-width:0.264583"
       id="text1220"
       aria-label="8 And">
      <path
         inkscape:connector-curvature="0"
         id="path1270"
         style="stroke-width:0.264583"
         d="m 22.640168,3.701251 q -0.527099,-0.3720703 -0.527099,-1.0138916 0,-0.5829102 0.399975,-0.973584 0.403077,-0.3906738 1.00149,-0.3906738 0.595312,0 0.992187,0.3906738 0.396875,0.3875733 0.396875,0.9766846 0,0.6170166 -0.523999,1.0076904 0.288355,0.1550293 0.452686,0.4526855 0.167431,0.2976563 0.167431,0.6697266 0,0.6356201 -0.415478,1.0417968 -0.415479,0.4061768 -1.063501,0.4061768 -0.663526,0 -1.094507,-0.4092773 -0.434082,-0.4092774 -0.434082,-1.0293946 0,-0.8061523 0.648022,-1.1286132 z m 0.151929,-1.0169922 q 0,0.306958 0.207739,0.5146973 0.21084,0.2108398 0.508496,0.2108398 0.294556,0 0.505396,-0.2108398 0.21084,-0.2108399 0.21084,-0.5053955 0,-0.2945557 -0.21084,-0.5053955 -0.21084,-0.2108399 -0.505396,-0.2108399 -0.294555,0 -0.505395,0.2108399 -0.21084,0.2108398 -0.21084,0.4960937 z m -0.08992,2.1208007 q 0,0.3317627 0.229443,0.5705079 0.232544,0.2356445 0.564307,0.2356445 0.328662,0 0.561206,-0.232544 0.232544,-0.2356445 0.232544,-0.5643066 0,-0.3317627 -0.232544,-0.5643066 -0.232544,-0.232544 -0.561206,-0.232544 -0.325561,0 -0.561206,0.232544 -0.232544,0.2325439 -0.232544,0.5550048 z" />
      <path
         inkscape:connector-curvature="0"
         id="path1272"
         style="stroke-width:0.264583"
         d="M 30.80091,5.0283017 H 28.751423 L 28.218122,6.1910214 H 27.439875 L 29.808723,1.10296 32.093855,6.1910214 h -0.79065 z M 30.506355,4.3492734 29.79632,2.7214658 29.05218,4.3492734 Z" />
      <path
         inkscape:connector-curvature="0"
         id="path1274"
         style="stroke-width:0.264583"
         d="m 32.555842,3.1710508 h 0.700732 V 3.4501035 Q 33.622443,3.087335 34.08133,3.087335 q 0.5271,0 0.821655,0.3317627 0.254248,0.2821533 0.254248,0.920874 V 6.1910214 H 34.456501 V 4.5043027 q 0,-0.4464844 -0.124023,-0.6170166 -0.120923,-0.1736328 -0.440284,-0.1736328 -0.347265,0 -0.492993,0.2294434 -0.142627,0.2263427 -0.142627,0.7906494 v 1.4572753 h -0.700732 z" />
      <path
         inkscape:connector-curvature="0"
         id="path1276"
         style="stroke-width:0.264583"
         d="m 38.267121,0.95413187 h 0.700733 V 6.1910214 H 38.267121 V 5.8747617 q -0.412378,0.4030761 -0.933276,0.4030761 -0.620117,0 -1.029395,-0.4526855 -0.406176,-0.4619873 -0.406176,-1.1534179 0,-0.6759278 0.406176,-1.1286133 0.403077,-0.4557861 1.013892,-0.4557861 0.5302,0 0.948779,0.434082 z M 36.611408,4.6717344 q 0,0.434082 0.232544,0.7069335 0.238745,0.2759522 0.601514,0.2759522 0.387573,0 0.626318,-0.2666504 0.238745,-0.2759521 0.238745,-0.7007324 0,-0.4247803 -0.238745,-0.7007324 -0.238745,-0.269751 -0.620117,-0.269751 -0.359668,0 -0.601513,0.2728516 -0.238746,0.2759521 -0.238746,0.6821289 z" />
    </g>
  </g>
  <g
     sodipodi:insensitive="true"
     inkscape:groupmode="layer"
     id="layer2"
     inkscape:label="components"
     style="display:inline">
    <circle
       style="display:inline;fill:#f2f2f2;stroke:#00ff00;stroke-width:0.264583;stroke-opacity:1"
       id="path15"
       cx="9.260416"
       cy="12.170834"
       r="2.6458333"
       inkscape:label="in1" />
    <circle
       style="display:inline;fill:#f2f2f2;stroke:#00ff00;stroke-width:0.264583;stroke-opacity:1"
       id="path17"
       cx="9.2604151"
       cy="26.722906"
       r="2.6458333"
       inkscape:label="in4" />
    <circle
       style="display:inline;fill:#f2f2f2;stroke:#00ff00;stroke-width:0.264583;stroke-opacity:1"
       id="path34"
       cx="9.2604151"
       cy="41.274986"
       r="2.6458333"
       inkscape:label="in7" />
    <circle
       inkscape:label="in10"
       r="2.6458333"
       cy="55.934864"
       cx="9.2604151"
       id="path15-0"
       style="display:inline;fill:#f2f2f2;stroke:#00ff00;stroke-width:0.264583;stroke-opacity:1" />
    <circle
       inkscape:label="in13"
       r="2.6458333"
       cy="70.379158"
       cx="9.2604151"
       id="path17-5"
       style="display:inline;fill:#f2f2f2;stroke:#00ff00;stroke-width:0.264583;stroke-opacity:1" />
    <circle
       inkscape:label="in16"
       r="2.6458333"
       cy="84.931236"
       cx="9.2604141"
       id="path34-6"
       style="display:inline;fill:#f2f2f2;stroke:#00ff00;stroke-width:0.264583;stroke-opacity:1" />
    <circle
       style="display:inline;fill:#f2f2f2;stroke:#00ff00;stroke-width:0.264583;stroke-opacity:1"
       id="path17-5-3"
       cx="9.2604141"
       cy="99.483322"
       r="2.6458333"
       inkscape:label="in19" />
    <circle
       style="display:inline;fill:#f2f2f2;stroke:#00ff00;stroke-width:0.264583;stroke-opacity:1"
       id="path34-6-8"
       cx="9.2604141"
       cy="114.03542"
       r="2.6458333"
       inkscape:label="in22" />
    <circle
       inkscape:label="in2"
       r="2.6458333"
       cy="12.170835"
       cx="22.489584"
       id="path15-4"
       style="display:inline;fill:#f2f2f2;stroke:#00ff00;stroke-width:0.264583;stroke-opacity:1" />
    <circle
       inkscape:label="in5"
       r="2.6458333"
       cy="26.722906"
       cx="22.489584"
       id="path17-0"
       style="display:inline;fill:#f2f2f2;stroke:#00ff00;stroke-width:0.264583;stroke-opacity:1" />
    <circle
       inkscape:label="in8"
       r="2.6458333"
       cy="41.27499"
       cx="22.489584"
       id="path34-0"
       style="display:inline;fill:#f2f2f2;stroke:#00ff00;stroke-width:0.264583;stroke-opacity:1" />
    <circle
       style="display:inline;fill:#f2f2f2;stroke:#00ff00;stroke-width:0.264583;stroke-opacity:1"
       id="path15-0-9"
       cx="22.489584"
       cy="55.934872"
       r="2.6458333"
       inkscape:label="in11" />
    <circle
       style="display:inline;fill:#f2f2f2;stroke:#00ff00;stroke-width:0.264583;stroke-opacity:1"
       id="path17-5-37"
       cx="22.489584"
       cy="70.379158"
       r="2.6458333"
       inkscape:label="in14" />
    <circle
       style="display:inline;fill:#f2f2f2;stroke:#00ff00;stroke-width:0.264583;stroke-opacity:1"
       id="path34-6-5"
       cx="22.489584"
       cy="84.931236"
       r="2.6458333"
       inkscape:label="in17" />
    <circle
       inkscape:label="in20"
       r="2.6458333"
       cy="99.483322"
       cx="22.489584"
       id="path17-5-3-7"
       style="display:inline;fill:#f2f2f2;stroke:#00ff00;stroke-width:0.264583;stroke-opacity:1" />
    <circle
       inkscape:label="in23"
       r="2.6458333"
       cy="114.03542"
       cx="22.489584"
       id="path34-6-8-2"
       style="display:inline;fill:#f2f2f2;stroke:#00ff00;stroke-width:0.264583;stroke-opacity:1" />
    <circle
       style="display:inline;fill:#f2f2f2;stroke:#00ff00;stroke-width:0.264583;stroke-opacity:1"
       id="path15-4-6"
       cx="35.71875"
       cy="12.170835"
       r="2.6458333"
       inkscape:label="in3" />
    <circle
       style="display:inline;fill:#f2f2f2;stroke:#00ff00;stroke-width:0.264583;stroke-opacity:1"
       id="path17-0-5"
       cx="35.71875"
       cy="26.722906"
       r="2.6458333"
       inkscape:label="in6" />
    <circle
       style="display:inline;fill:#f2f2f2;stroke:#00ff00;stroke-width:0.264583;stroke-opacity:1"
       id="path34-0-3"
       cx="35.71875"
       cy="41.27499"
       r="2.6458333"
       inkscape:label="in9" />
    <circle
       inkscape:label="in12"
       r="2.6458333"
       cy="55.934872"
       cx="35.71875"
       id="path15-0-9-0"
       style="display:inline;fill:#f2f2f2;stroke:#00ff00;stroke-width:0.264583;stroke-opacity:1" />
    <circle
       inkscape:label="in15"
       r="2.6458333"
       cy="70.379173"
       cx="35.71875"
       id="path17-5-37-4"
       style="display:inline;fill:#f2f2f2;stroke:#00ff00;stroke-width:0.264583;stroke-opacity:1" />
    <circle
       inkscape:label="in18"
       r="2.6458333"
       cy="84.931236"
       cx="35.71875"
       id="path34-6-5-8"
       style="display:inline;fill:#f2f2f2;stroke:#00ff00;stroke-width:0.264583;stroke-opacity:1" />
    <circle
       style="display:inline;fill:#f2f2f2;stroke:#00ff00;stroke-width:0.264583;stroke-opacity:1"
       id="path17-5-3-7-5"
       cx="35.71875"
       cy="99.483322"
       r="2.6458333"
       inkscape:label="in21" />
    <circle
       style="display:inline;fill:#f2f2f2;stroke:#00ff00;stroke-width:0.264583;stroke-opacity:1"
       id="path34-6-8-2-5"
       cx="35.71875"
       cy="114.03542"
       r="2.6458333"
       inkscape:label="in24" />
    <circle
       inkscape:label="out1"
       r="2.6458333"
       cy="12.170826"
       cx="48.947918"
       id="path15-4-6-5"
       style="display:inline;fill:#f2f2f2;stroke:#0000ff;stroke-width:0.264583;stroke-opacity:1" />
    <circle
       inkscape:label="out2"
       r="2.6458333"
       cy="26.722897"
       cx="48.947918"
       id="path17-0-5-4"
       style="display:inline;fill:#f2f2f2;stroke:#0000ff;stroke-width:0.264583;stroke-opacity:1" />
    <circle
       inkscape:label="out3"
       r="2.6458333"
       cy="41.274986"
       cx="48.947918"
       id="path34-0-3-2"
       style="display:inline;fill:#f2f2f2;stroke:#0000ff;stroke-width:0.264583;stroke-opacity:1" />
    <circle
       style="display:inline;fill:#f2f2f2;stroke:#0000ff;stroke-width:0.264583;stroke-opacity:1"
       id="path15-0-9-0-1"
       cx="48.947918"
       cy="55.934864"
       r="2.6458333"
       inkscape:label="out4" />
    <circle
       style="display:inline;fill:#f2f2f2;stroke:#0000ff;stroke-width:0.264583;stroke-opacity:1"
       id="path17-5-37-4-9"
       cx="48.947918"
       cy="70.379158"
       r="2.6458333"
       inkscape:label="out5" />
    <circle
       style="display:inline;fill:#f2f2f2;stroke:#0000ff;stroke-width:0.264583;stroke-opacity:1"
       id="path34-6-5-8-2"
       cx="48.947918"
       cy="84.931221"
       r="2.6458333"
       inkscape:label="out6" />
    <circle
       inkscape:label="out7"
       r="2.6458333"
       cy="99.483322"
       cx="48.947918"
       id="path17-5-3-7-5-4"
       style="display:inline;fill:#f2f2f2;stroke:#0000ff;stroke-width:0.264583;stroke-opacity:1" />
    <circle
       inkscape:label="out8"
       r="2.6458333"
       cy="114.03542"
       cx="48.947918"
       id="path34-6-8-2-5-5"
       style="display:inline;fill:#f2f2f2;stroke:#0000ff;stroke-width:0.264583;stroke-opacity:1" />
  </g>
</svg>
