<?xml version="1.0" encoding="UTF-8" standalone="no"?>
<svg
   xmlns:dc="http://purl.org/dc/elements/1.1/"
   xmlns:cc="http://creativecommons.org/ns#"
   xmlns:rdf="http://www.w3.org/1999/02/22-rdf-syntax-ns#"
   xmlns:svg="http://www.w3.org/2000/svg"
   xmlns="http://www.w3.org/2000/svg"
   xmlns:sodipodi="http://sodipodi.sourceforge.net/DTD/sodipodi-0.dtd"
   xmlns:inkscape="http://www.inkscape.org/namespaces/inkscape"
   width="30.48mm"
   height="128.5mm"
   viewBox="0 0 30.48 128.5"
   version="1.1"
   id="svg1138"
   inkscape:version="1.0beta1 (32d4812, 2019-09-19)"
   sodipodi:docname="ASR.svg">
  <defs
     id="defs1132" />
  <sodipodi:namedview
     inkscape:snap-bbox-midpoints="true"
     inkscape:snap-bbox="true"
     id="base"
     pagecolor="#ffffff"
     bordercolor="#666666"
     borderopacity="1.0"
     inkscape:pageopacity="0.0"
     inkscape:pageshadow="2"
     inkscape:zoom="2.6643645"
     inkscape:cx="39.682501"
     inkscape:cy="49.906885"
     inkscape:document-units="mm"
     inkscape:current-layer="layer4"
     inkscape:document-rotation="0"
     showgrid="true"
     inkscape:snap-object-midpoints="true"
     inkscape:window-width="1440"
     inkscape:window-height="855"
     inkscape:window-x="0"
     inkscape:window-y="748"
     inkscape:window-maximized="0">
    <inkscape:grid
       type="xygrid"
       id="grid1738" />
  </sodipodi:namedview>
  <metadata
     id="metadata1135">
    <rdf:RDF>
      <cc:Work
         rdf:about="">
        <dc:format>image/svg+xml</dc:format>
        <dc:type
           rdf:resource="http://purl.org/dc/dcmitype/StillImage" />
        <dc:title />
      </cc:Work>
    </rdf:RDF>
  </metadata>
  <g
     inkscape:label="Background"
     inkscape:groupmode="layer"
     id="layer1"
     sodipodi:insensitive="true">
    <rect
       style="display:inline;fill:#f8f8f8;fill-opacity:1;stroke:none;stroke-width:0.122863"
       id="rect10"
       width="30.48"
       height="128.5"
       x="0"
       y="0" />
  </g>
  <g
     inkscape:groupmode="layer"
     id="layer3"
     inkscape:label="boxes"
     sodipodi:insensitive="true">
    <rect
       y="6.614593"
       x="17.197918"
       height="10.583333"
       width="10.583333"
       id="rect1740-1"
       style="display:inline;fill:#000000;fill-opacity:0.5;stroke:none;stroke-width:0.53;stroke-miterlimit:4;stroke-dasharray:0.53, 1.06;stroke-dashoffset:0;stroke-opacity:1" />
    <rect
       y="21.166666"
       x="17.197918"
       height="10.583333"
       width="10.583333"
       id="rect1740-1-5"
       style="display:inline;fill:#000000;fill-opacity:0.5;stroke:none;stroke-width:0.53;stroke-miterlimit:4;stroke-dasharray:0.53, 1.06;stroke-dashoffset:0;stroke-opacity:1" />
    <rect
       y="35.718742"
       x="17.197918"
       height="10.583333"
       width="10.583333"
       id="rect1740-1-9"
       style="display:inline;fill:#000000;fill-opacity:0.5;stroke:none;stroke-width:0.53;stroke-miterlimit:4;stroke-dasharray:0.53, 1.06;stroke-dashoffset:0;stroke-opacity:1" />
    <rect
       y="50.378624"
       x="17.197918"
       height="10.583333"
       width="10.583333"
       id="rect1740-1-7"
       style="display:inline;fill:#000000;fill-opacity:0.5;stroke:none;stroke-width:0.53;stroke-miterlimit:4;stroke-dasharray:0.53, 1.06;stroke-dashoffset:0;stroke-opacity:1" />
    <rect
       y="64.822922"
       x="17.197918"
       height="10.583333"
       width="10.583333"
       id="rect1740-1-53"
       style="display:inline;fill:#000000;fill-opacity:0.5;stroke:none;stroke-width:0.53;stroke-miterlimit:4;stroke-dasharray:0.53, 1.06;stroke-dashoffset:0;stroke-opacity:1" />
    <rect
       y="79.375"
       x="17.197918"
       height="10.583333"
       width="10.583333"
       id="rect1740-1-90"
       style="display:inline;fill:#000000;fill-opacity:0.5;stroke:none;stroke-width:0.53;stroke-miterlimit:4;stroke-dasharray:0.53, 1.06;stroke-dashoffset:0;stroke-opacity:1" />
    <rect
       y="93.927071"
       x="17.197918"
       height="10.583333"
       width="10.583333"
       id="rect1740-1-55"
       style="display:inline;fill:#000000;fill-opacity:0.5;stroke:none;stroke-width:0.53;stroke-miterlimit:4;stroke-dasharray:0.53, 1.06;stroke-dashoffset:0;stroke-opacity:1" />
    <rect
       y="108.47915"
       x="17.197918"
       height="10.583333"
       width="10.583333"
       id="rect1740-1-6"
       style="display:inline;fill:#000000;fill-opacity:0.5;stroke:none;stroke-width:0.53;stroke-miterlimit:4;stroke-dasharray:0.53, 1.06;stroke-dashoffset:0;stroke-opacity:1" />
  </g>
  <g
     sodipodi:insensitive="true"
     inkscape:groupmode="layer"
     id="layer5"
     inkscape:label="lines" />
  <g
     inkscape:groupmode="layer"
     id="layer4"
     inkscape:label="text"
     style="display:inline;opacity:1">
    <g
       aria-label="STALYS"
       id="text1717-2"
       style="font-size:6.35px;line-height:1.25;font-family:Futura;-inkscape-font-specification:Futura;display:inline;opacity:1;stroke-width:0.264583"
       transform="translate(-86.935688,-0.06042158)">
      <path
         d="m 94.892412,122.92583 -0.586011,0.34727 q -0.164331,-0.28526 -0.313159,-0.37207 -0.155029,-0.0992 -0.399976,-0.0992 -0.300757,0 -0.499194,0.17053 -0.198438,0.16743 -0.198438,0.42168 0,0.35036 0.520899,0.56431 l 0.47749,0.19533 q 0.58291,0.23565 0.852661,0.57671 0.269751,0.33796 0.269751,0.83096 0,0.66042 -0.440283,1.0914 -0.443384,0.43409 -1.100708,0.43409 -0.623218,0 -1.029395,-0.36897 -0.399975,-0.36897 -0.499194,-1.0387 l 0.731738,-0.16123 q 0.04961,0.42168 0.173633,0.58291 0.223242,0.31006 0.651123,0.31006 0.337964,0 0.561206,-0.22634 0.223243,-0.22635 0.223243,-0.57361 0,-0.13953 -0.04031,-0.25425 -0.03721,-0.11782 -0.120923,-0.21394 -0.08061,-0.0992 -0.21084,-0.18294 -0.130224,-0.0868 -0.310058,-0.16433 l -0.461988,-0.19223 q -0.982885,-0.41548 -0.982885,-1.21543 0,-0.5395 0.412378,-0.90227 0.412377,-0.36587 1.026293,-0.36587 0.827857,0 1.292945,0.80615 z"
         style="stroke-width:0.264583"
         id="path2113"
         inkscape:connector-curvature="0" />
      <path
         d="M 97.307768,122.89172 V 127 h -0.722436 v -4.10828 h -1.100708 v -0.67902 h 2.920751 v 0.67902 z"
         style="stroke-width:0.264583"
         id="path2115"
         inkscape:connector-curvature="0" />
      <path
         d="M 101.60208,125.83728 H 99.552592 L 99.019291,127 h -0.778247 l 2.368846,-5.08806 2.28513,5.08806 h -0.79065 z m -0.29456,-0.67903 -0.71003,-1.62781 -0.744141,1.62781 z"
         style="stroke-width:0.264583"
         id="path2117"
         inkscape:connector-curvature="0" />
      <path
         d="m 104.21897,122.2127 v 4.10827 h 1.40767 V 127 h -2.1301 v -4.7873 z"
         style="stroke-width:0.264583"
         id="path2119"
         inkscape:connector-curvature="0" />
      <path
         d="m 106.87618,124.93191 -1.5627,-2.71921 h 0.83096 l 1.0945,1.91306 1.09761,-1.91306 h 0.83096 l -1.5689,2.71921 V 127 h -0.72243 z"
         style="stroke-width:0.264583"
         id="path2121"
         inkscape:connector-curvature="0" />
      <path
         d="m 112.2805,122.92583 -0.58601,0.34727 q -0.16433,-0.28526 -0.31316,-0.37207 -0.15503,-0.0992 -0.39998,-0.0992 -0.30075,0 -0.49919,0.17053 -0.19844,0.16743 -0.19844,0.42168 0,0.35036 0.5209,0.56431 l 0.47749,0.19533 q 0.58291,0.23565 0.85266,0.57671 0.26975,0.33796 0.26975,0.83096 0,0.66042 -0.44028,1.0914 -0.44339,0.43409 -1.10071,0.43409 -0.62322,0 -1.02939,-0.36897 -0.39998,-0.36897 -0.4992,-1.0387 l 0.73174,-0.16123 q 0.0496,0.42168 0.17363,0.58291 0.22324,0.31006 0.65113,0.31006 0.33796,0 0.5612,-0.22634 0.22324,-0.22635 0.22324,-0.57361 0,-0.13953 -0.0403,-0.25425 -0.0372,-0.11782 -0.12093,-0.21394 -0.0806,-0.0992 -0.21084,-0.18294 -0.13022,-0.0868 -0.31006,-0.16433 l -0.46198,-0.19223 q -0.98289,-0.41548 -0.98289,-1.21543 0,-0.5395 0.41238,-0.90227 0.41238,-0.36587 1.02629,-0.36587 0.82786,0 1.29295,0.80615 z"
         style="stroke-width:0.264583"
         id="path2123"
         inkscape:connector-curvature="0" />
    </g>
    <text
       xml:space="preserve"
       style="font-size:6.35px;line-height:1.25;font-family:Futura;-inkscape-font-specification:Futura;stroke-width:0.264583"
       x="7.9375"
       y="19.84375"
       id="text1987"><tspan
         sodipodi:role="line"
         id="tspan1985"
         x="7.9375"
         y="19.84375"
         style="stroke-width:0.264583" /></text>
    <g
       transform="translate(-1.3987777,1.1029894)"
       style="font-size:6.35px;line-height:1.25;font-family:Futura;-inkscape-font-specification:Futura;stroke-width:0.264583"
       id="text1024"
       aria-label="ASR">
      <path
         inkscape:connector-curvature="0"
         id="path1026"
         style="stroke-width:0.264583"
         d="M 13.969173,4.1289468 H 11.919686 L 11.386385,5.2916665 H 10.608138 L 12.976985,0.20360506 15.262117,5.2916665 H 14.471468 Z M 13.674617,3.4499185 12.964583,1.8221109 12.220442,3.4499185 Z" />
      <path
         inkscape:connector-curvature="0"
         id="path1028"
         style="stroke-width:0.264583"
         d="M 18.564241,1.2174966 17.97823,1.5647623 Q 17.813899,1.2795084 17.665071,1.192692 17.510042,1.093473 17.265095,1.093473 q -0.300756,0 -0.499194,0.1705322 -0.198437,0.1674317 -0.198437,0.4216797 0,0.3503662 0.520898,0.5643066 l 0.47749,0.195337 q 0.58291,0.2356445 0.852661,0.5767089 0.269751,0.3379639 0.269751,0.8309571 0,0.6604247 -0.440283,1.0914062 -0.443384,0.434082 -1.100708,0.434082 -0.623218,0 -1.029394,-0.3689697 -0.399976,-0.3689697 -0.499195,-1.0386963 l 0.731739,-0.1612304 q 0.04961,0.4216796 0.173632,0.5829101 0.223243,0.3100586 0.651123,0.3100586 0.337964,0 0.561207,-0.2263428 0.223242,-0.2263428 0.223242,-0.5736084 0,-0.1395263 -0.04031,-0.254248 Q 17.882112,3.5305337 17.798396,3.4344156 17.717781,3.3351968 17.587556,3.251481 17.457332,3.1646646 17.277498,3.0871499 L 16.815511,2.8949136 q -0.982886,-0.4154785 -0.982886,-1.2154297 0,-0.5395019 0.412378,-0.90227045 0.412378,-0.36586913 1.026294,-0.36586913 0.827856,0 1.292944,0.80615228 z" />
      <path
         inkscape:connector-curvature="0"
         id="path1030"
         style="stroke-width:0.264583"
         d="m 21.187337,3.251481 1.48208,2.0401855 H 21.78575 L 20.418391,3.3320962 H 20.288167 V 5.2916665 H 19.56573 V 0.50436189 h 0.84646 q 0.948779,0 1.370459,0.35656738 0.465088,0.39687503 0.465088,1.04799803 0,0.5084961 -0.291455,0.8743652 -0.291455,0.3658692 -0.768945,0.4681885 z m -0.89917,-0.5488037 h 0.229443 q 1.026294,0 1.026294,-0.7844482 0,-0.7348389 -0.998389,-0.7348389 h -0.257348 z" />
    </g>
    <g
       style="font-size:3.52777px;line-height:1.25;font-family:Futura;-inkscape-font-specification:Futura;stroke-width:0.264583"
       id="text1035"
       aria-label="Clock">
      <path
         id="path1046"
         style="stroke-width:0.264583"
         d="m 5.6267072,18.757686 v 0.475422 q -0.3479538,-0.29111 -0.7200233,-0.29111 -0.4099655,0 -0.6907402,0.294555 -0.2824972,0.292832 -0.2824972,0.716578 0,0.418578 0.2824972,0.706243 0.2824972,0.287665 0.6924627,0.287665 0.2118729,0 0.3600117,-0.0689 0.082682,-0.03445 0.1705318,-0.09302 0.089572,-0.05857 0.1877573,-0.141249 v 0.484035 q -0.3445088,0.194648 -0.7234684,0.194648 -0.5701621,0 -0.9732374,-0.397908 -0.4013527,-0.401353 -0.4013527,-0.96807 0,-0.50815 0.3358961,-0.906058 0.4134105,-0.48748 1.0696998,-0.48748 0.3582891,0 0.6924626,0.194648 z" />
      <path
         id="path1048"
         style="stroke-width:0.264583"
         d="m 6.4483608,18.364946 v 2.909377 H 6.0607884 v -2.909377 z" />
      <path
         id="path1050"
         style="stroke-width:0.264583"
         d="m 6.8634939,20.423386 q 0,-0.363457 0.2601041,-0.618393 0.2601042,-0.254937 0.6338962,-0.254937 0.3755146,0 0.6373413,0.256659 0.2583816,0.256659 0.2583816,0.630451 0,0.377237 -0.2601042,0.632174 -0.2618267,0.253214 -0.6425089,0.253214 -0.3772371,0 -0.6321736,-0.258382 -0.2549365,-0.254936 -0.2549365,-0.640786 z m 0.3961851,0.0069 q 0,0.251491 0.1343584,0.397908 0.1378035,0.148138 0.3634568,0.148138 0.2273758,0 0.3634568,-0.146416 0.1360809,-0.146416 0.1360809,-0.391017 0,-0.244602 -0.1360809,-0.391018 -0.1378035,-0.148139 -0.3634568,-0.148139 -0.2222082,0 -0.3600117,0.148139 Q 7.259679,20.19601 7.259679,20.430276 Z" />
      <path
         id="path1052"
         style="stroke-width:0.264583"
         d="m 10.370593,19.668912 v 0.51504 q -0.132636,-0.161919 -0.237711,-0.222208 -0.103352,-0.06201 -0.2428785,-0.06201 -0.2187631,0 -0.3634568,0.153307 -0.1446937,0.153306 -0.1446937,0.384127 0,0.235989 0.1395261,0.387573 0.1412486,0.151583 0.3600117,0.151583 0.1395262,0 0.2463242,-0.06029 0.103352,-0.05857 0.242878,-0.227375 v 0.511595 q -0.235988,0.122301 -0.4719768,0.122301 -0.3892949,0 -0.6511216,-0.251492 -0.2618267,-0.253214 -0.2618267,-0.628728 0,-0.375515 0.2652718,-0.633896 0.2652717,-0.258382 0.6511216,-0.258382 0.2480467,0 0.4685317,0.118856 z" />
      <path
         id="path1054"
         style="stroke-width:0.264583"
         d="m 11.226698,18.364946 v 1.77422 l 0.546046,-0.542601 h 0.520208 l -0.728636,0.70452 0.782035,0.973238 h -0.502982 l -0.55466,-0.707966 -0.06201,0.06201 v 0.645954 h -0.387573 v -2.909377 z" />
    </g>
    <g
       style="font-size:3.52777px;line-height:1.25;font-family:Futura;-inkscape-font-specification:Futura;stroke-width:0.264583"
       id="text1039"
       aria-label="In">
      <path
         id="path1041"
         style="stroke-width:0.264583"
         d="m 7.1330721,32.736159 v 2.659608 H 6.7317194 v -2.659608 z" />
      <path
         id="path1043"
         style="stroke-width:0.264583"
         d="m 7.6980666,33.718009 h 0.3892949 v 0.155029 q 0.2032602,-0.201537 0.4581967,-0.201537 0.2928325,0 0.4564742,0.184312 0.1412486,0.156751 0.1412486,0.511595 v 1.028359 H 8.753986 v -0.937064 q 0,-0.248046 -0.068902,-0.342786 -0.067179,-0.09646 -0.2446013,-0.09646 -0.1929249,0 -0.2738845,0.127468 -0.079237,0.125746 -0.079237,0.439249 v 0.809595 H 7.6980666 Z" />
    </g>
  </g>
  <g
     sodipodi:insensitive="true"
     inkscape:groupmode="layer"
     id="layer2"
     inkscape:label="components"
     style="display:inline">
    <circle
       style="display:inline;fill:#f2f2f2;stroke:#00ff00;stroke-width:0.264583;stroke-opacity:1"
       id="path15"
       cx="7.937501"
       cy="11.79847"
       r="2.6458333"
       inkscape:label="clock" />
    <circle
       style="display:inline;fill:#f2f2f2;stroke:#00ff00;stroke-width:0.264583;stroke-opacity:1"
       id="path17"
       cx="7.9375"
       cy="26.350542"
       r="2.6458333"
       inkscape:label="signal" />
    <circle
       inkscape:label="out1"
       r="2.6458333"
       cy="11.90626"
       cx="22.489761"
       id="path15-4-6-5"
       style="display:inline;fill:#f2f2f2;stroke:#0000ff;stroke-width:0.264583;stroke-opacity:1" />
    <circle
       inkscape:label="out2"
       r="2.6458333"
       cy="26.45833"
       cx="22.489761"
       id="path17-0-5-4"
       style="display:inline;fill:#f2f2f2;stroke:#0000ff;stroke-width:0.264583;stroke-opacity:1" />
    <circle
       inkscape:label="out3"
       r="2.6458333"
       cy="41.010422"
       cx="22.489761"
       id="path34-0-3-2"
       style="display:inline;fill:#f2f2f2;stroke:#0000ff;stroke-width:0.264583;stroke-opacity:1" />
    <circle
       style="display:inline;fill:#f2f2f2;stroke:#0000ff;stroke-width:0.264583;stroke-opacity:1"
       id="path15-0-9-0-1"
       cx="22.489761"
       cy="55.6703"
       r="2.6458333"
       inkscape:label="out4" />
    <circle
       style="display:inline;fill:#f2f2f2;stroke:#0000ff;stroke-width:0.264583;stroke-opacity:1"
       id="path17-5-37-4-9"
       cx="22.489761"
       cy="70.114594"
       r="2.6458333"
       inkscape:label="out5" />
    <circle
       style="display:inline;fill:#f2f2f2;stroke:#0000ff;stroke-width:0.264583;stroke-opacity:1"
       id="path34-6-5-8-2"
       cx="22.489761"
       cy="84.666656"
       r="2.6458333"
       inkscape:label="out6" />
    <circle
       inkscape:label="out7"
       r="2.6458333"
       cy="99.218758"
       cx="22.489761"
       id="path17-5-3-7-5-4"
       style="display:inline;fill:#f2f2f2;stroke:#0000ff;stroke-width:0.264583;stroke-opacity:1" />
    <circle
       inkscape:label="out8"
       r="2.6458333"
       cy="113.77086"
       cx="22.489761"
       id="path34-6-8-2-5-5"
       style="display:inline;fill:#f2f2f2;stroke:#0000ff;stroke-width:0.264583;stroke-opacity:1" />
  </g>
</svg>
