<?xml version="1.0" encoding="UTF-8" standalone="no"?>
<svg
   xmlns:dc="http://purl.org/dc/elements/1.1/"
   xmlns:cc="http://creativecommons.org/ns#"
   xmlns:rdf="http://www.w3.org/1999/02/22-rdf-syntax-ns#"
   xmlns:svg="http://www.w3.org/2000/svg"
   xmlns="http://www.w3.org/2000/svg"
   xmlns:sodipodi="http://sodipodi.sourceforge.net/DTD/sodipodi-0.dtd"
   xmlns:inkscape="http://www.inkscape.org/namespaces/inkscape"
   width="60.959999mm"
   height="128.5mm"
   viewBox="0 0 60.959999 128.5"
   version="1.1"
   id="svg1138"
   inkscape:version="1.0beta1 (32d4812, 2019-09-19)"
   sodipodi:docname="Avg.svg">
  <defs
     id="defs1132" />
  <sodipodi:namedview
     inkscape:snap-bbox-midpoints="true"
     inkscape:snap-bbox="true"
     id="base"
     pagecolor="#ffffff"
     bordercolor="#666666"
     borderopacity="1.0"
     inkscape:pageopacity="0.0"
     inkscape:pageshadow="2"
     inkscape:zoom="1.6080901"
     inkscape:cx="115.2"
     inkscape:cy="242.83465"
     inkscape:document-units="mm"
     inkscape:current-layer="layer2"
     inkscape:document-rotation="0"
     showgrid="true"
     inkscape:snap-object-midpoints="true"
     inkscape:window-width="1920"
     inkscape:window-height="989"
     inkscape:window-x="1440"
     inkscape:window-y="23"
     inkscape:window-maximized="1">
    <inkscape:grid
       type="xygrid"
       id="grid1738" />
  </sodipodi:namedview>
  <metadata
     id="metadata1135">
    <rdf:RDF>
      <cc:Work
         rdf:about="">
        <dc:format>image/svg+xml</dc:format>
        <dc:type
           rdf:resource="http://purl.org/dc/dcmitype/StillImage" />
        <dc:title />
      </cc:Work>
    </rdf:RDF>
  </metadata>
  <g
     inkscape:label="Background"
     inkscape:groupmode="layer"
     id="layer1"
     sodipodi:insensitive="true">
    <rect
       style="display:inline;fill:#f8f8f8;fill-opacity:1;stroke:none;stroke-width:0.173754"
       id="rect10"
       width="60.959999"
       height="128.5"
       x="0"
       y="0" />
  </g>
  <g
     sodipodi:insensitive="true"
     inkscape:groupmode="layer"
     id="layer3"
     inkscape:label="boxes">
    <rect
       y="6.879159"
       x="43.656075"
       height="10.583333"
       width="10.583333"
       id="rect1740-1"
       style="display:inline;fill:#000000;fill-opacity:0.5;stroke:none;stroke-width:0.53;stroke-miterlimit:4;stroke-dasharray:0.53, 1.06;stroke-dashoffset:0;stroke-opacity:1" />
    <rect
       y="21.431232"
       x="43.656075"
       height="10.583333"
       width="10.583333"
       id="rect1740-1-5"
       style="display:inline;fill:#000000;fill-opacity:0.5;stroke:none;stroke-width:0.53;stroke-miterlimit:4;stroke-dasharray:0.53, 1.06;stroke-dashoffset:0;stroke-opacity:1" />
    <rect
       y="35.983307"
       x="43.656075"
       height="10.583333"
       width="10.583333"
       id="rect1740-1-9"
       style="display:inline;fill:#000000;fill-opacity:0.5;stroke:none;stroke-width:0.53;stroke-miterlimit:4;stroke-dasharray:0.53, 1.06;stroke-dashoffset:0;stroke-opacity:1" />
    <rect
       y="50.643188"
       x="43.656075"
       height="10.583333"
       width="10.583333"
       id="rect1740-1-7"
       style="display:inline;fill:#000000;fill-opacity:0.5;stroke:none;stroke-width:0.53;stroke-miterlimit:4;stroke-dasharray:0.53, 1.06;stroke-dashoffset:0;stroke-opacity:1" />
    <rect
       y="65.087486"
       x="43.656075"
       height="10.583333"
       width="10.583333"
       id="rect1740-1-53"
       style="display:inline;fill:#000000;fill-opacity:0.5;stroke:none;stroke-width:0.53;stroke-miterlimit:4;stroke-dasharray:0.53, 1.06;stroke-dashoffset:0;stroke-opacity:1" />
    <rect
       y="79.639565"
       x="43.656075"
       height="10.583333"
       width="10.583333"
       id="rect1740-1-90"
       style="display:inline;fill:#000000;fill-opacity:0.5;stroke:none;stroke-width:0.53;stroke-miterlimit:4;stroke-dasharray:0.53, 1.06;stroke-dashoffset:0;stroke-opacity:1" />
    <rect
       y="94.191635"
       x="43.656075"
       height="10.583333"
       width="10.583333"
       id="rect1740-1-55"
       style="display:inline;fill:#000000;fill-opacity:0.5;stroke:none;stroke-width:0.53;stroke-miterlimit:4;stroke-dasharray:0.53, 1.06;stroke-dashoffset:0;stroke-opacity:1" />
    <rect
       y="108.74371"
       x="43.656075"
       height="10.583333"
       width="10.583333"
       id="rect1740-1-6"
       style="display:inline;fill:#000000;fill-opacity:0.5;stroke:none;stroke-width:0.53;stroke-miterlimit:4;stroke-dasharray:0.53, 1.06;stroke-dashoffset:0;stroke-opacity:1" />
  </g>
  <g
     sodipodi:insensitive="true"
     inkscape:groupmode="layer"
     id="layer4"
     inkscape:label="text"
     style="display:inline;opacity:1">
    <g
       aria-label="STALYS"
       id="text1717-2"
       style="font-size:6.35px;line-height:1.25;font-family:Futura;-inkscape-font-specification:Futura;display:inline;opacity:1;stroke-width:0.264583"
       transform="translate(-71.695688,-0.06042158)">
      <path
         d="m 94.892412,122.92583 -0.586011,0.34727 q -0.164331,-0.28526 -0.313159,-0.37207 -0.155029,-0.0992 -0.399976,-0.0992 -0.300757,0 -0.499194,0.17053 -0.198438,0.16743 -0.198438,0.42168 0,0.35036 0.520899,0.56431 l 0.47749,0.19533 q 0.58291,0.23565 0.852661,0.57671 0.269751,0.33796 0.269751,0.83096 0,0.66042 -0.440283,1.0914 -0.443384,0.43409 -1.100708,0.43409 -0.623218,0 -1.029395,-0.36897 -0.399975,-0.36897 -0.499194,-1.0387 l 0.731738,-0.16123 q 0.04961,0.42168 0.173633,0.58291 0.223242,0.31006 0.651123,0.31006 0.337964,0 0.561206,-0.22634 0.223243,-0.22635 0.223243,-0.57361 0,-0.13953 -0.04031,-0.25425 -0.03721,-0.11782 -0.120923,-0.21394 -0.08061,-0.0992 -0.21084,-0.18294 -0.130224,-0.0868 -0.310058,-0.16433 l -0.461988,-0.19223 q -0.982885,-0.41548 -0.982885,-1.21543 0,-0.5395 0.412378,-0.90227 0.412377,-0.36587 1.026293,-0.36587 0.827857,0 1.292945,0.80615 z"
         style="stroke-width:0.264583"
         id="path2113"
         inkscape:connector-curvature="0" />
      <path
         d="M 97.307768,122.89172 V 127 h -0.722436 v -4.10828 h -1.100708 v -0.67902 h 2.920751 v 0.67902 z"
         style="stroke-width:0.264583"
         id="path2115"
         inkscape:connector-curvature="0" />
      <path
         d="M 101.60208,125.83728 H 99.552592 L 99.019291,127 h -0.778247 l 2.368846,-5.08806 2.28513,5.08806 h -0.79065 z m -0.29456,-0.67903 -0.71003,-1.62781 -0.744141,1.62781 z"
         style="stroke-width:0.264583"
         id="path2117"
         inkscape:connector-curvature="0" />
      <path
         d="m 104.21897,122.2127 v 4.10827 h 1.40767 V 127 h -2.1301 v -4.7873 z"
         style="stroke-width:0.264583"
         id="path2119"
         inkscape:connector-curvature="0" />
      <path
         d="m 106.87618,124.93191 -1.5627,-2.71921 h 0.83096 l 1.0945,1.91306 1.09761,-1.91306 h 0.83096 l -1.5689,2.71921 V 127 h -0.72243 z"
         style="stroke-width:0.264583"
         id="path2121"
         inkscape:connector-curvature="0" />
      <path
         d="m 112.2805,122.92583 -0.58601,0.34727 q -0.16433,-0.28526 -0.31316,-0.37207 -0.15503,-0.0992 -0.39998,-0.0992 -0.30075,0 -0.49919,0.17053 -0.19844,0.16743 -0.19844,0.42168 0,0.35036 0.5209,0.56431 l 0.47749,0.19533 q 0.58291,0.23565 0.85266,0.57671 0.26975,0.33796 0.26975,0.83096 0,0.66042 -0.44028,1.0914 -0.44339,0.43409 -1.10071,0.43409 -0.62322,0 -1.02939,-0.36897 -0.39998,-0.36897 -0.4992,-1.0387 l 0.73174,-0.16123 q 0.0496,0.42168 0.17363,0.58291 0.22324,0.31006 0.65113,0.31006 0.33796,0 0.5612,-0.22634 0.22324,-0.22635 0.22324,-0.57361 0,-0.13953 -0.0403,-0.25425 -0.0372,-0.11782 -0.12093,-0.21394 -0.0806,-0.0992 -0.21084,-0.18294 -0.13022,-0.0868 -0.31006,-0.16433 l -0.46198,-0.19223 q -0.98289,-0.41548 -0.98289,-1.21543 0,-0.5395 0.41238,-0.90227 0.41238,-0.36587 1.02629,-0.36587 0.82786,0 1.29295,0.80615 z"
         style="stroke-width:0.264583"
         id="path2123"
         inkscape:connector-curvature="0" />
    </g>
    <text
       xml:space="preserve"
       style="font-size:6.35px;line-height:1.25;font-family:Futura;-inkscape-font-specification:Futura;stroke-width:0.264583"
       x="7.9375"
       y="19.84375"
       id="text1987"><tspan
         sodipodi:role="line"
         id="tspan1985"
         x="7.9375"
         y="19.84375"
         style="stroke-width:0.264583" /></text>
    <g
       style="font-size:6.35px;line-height:1.25;font-family:Futura;-inkscape-font-specification:Futura;stroke-width:0.264583"
       id="text1102"
       aria-label="8 Avg">
      <path
         inkscape:connector-curvature="0"
         id="path1222"
         style="stroke-width:0.264583"
         d="m 22.866512,3.6977572 q -0.5271,-0.3720703 -0.5271,-1.0138916 0,-0.5829101 0.399975,-0.973584 0.403077,-0.3906738 1.00149,-0.3906738 0.595312,0 0.992187,0.3906738 0.396875,0.3875733 0.396875,0.9766846 0,0.6170166 -0.523999,1.0076904 0.288355,0.1550293 0.452686,0.4526855 0.167431,0.2976563 0.167431,0.6697266 0,0.6356201 -0.415478,1.0417969 -0.415479,0.4061767 -1.063501,0.4061767 -0.663525,0 -1.094507,-0.4092773 -0.434082,-0.4092774 -0.434082,-1.0293945 0,-0.8061524 0.648023,-1.1286133 z M 23.01844,2.680765 q 0,0.306958 0.207739,0.5146973 0.21084,0.2108398 0.508497,0.2108398 0.294555,0 0.505395,-0.2108398 0.21084,-0.2108399 0.21084,-0.5053955 0,-0.2945557 -0.21084,-0.5053955 -0.21084,-0.2108399 -0.505395,-0.2108399 -0.294556,0 -0.505396,0.2108399 -0.21084,0.2108398 -0.21084,0.4960937 z m -0.08992,2.1208008 q 0,0.3317627 0.229444,0.5705078 0.232544,0.2356445 0.564306,0.2356445 0.328662,0 0.561206,-0.2325439 0.232544,-0.2356446 0.232544,-0.5643067 0,-0.3317627 -0.232544,-0.5643066 -0.232544,-0.232544 -0.561206,-0.232544 -0.325561,0 -0.561206,0.232544 -0.232544,0.2325439 -0.232544,0.5550049 z" />
      <path
         inkscape:connector-curvature="0"
         id="path1224"
         style="stroke-width:0.264583"
         d="m 31.027253,5.0248079 h -2.049487 l -0.533301,1.1627198 h -0.778247 l 2.368848,-5.0880615 2.285132,5.0880615 h -0.79065 z M 30.732698,4.3457796 30.022664,2.717972 29.278523,4.3457796 Z" />
      <path
         inkscape:connector-curvature="0"
         id="path1226"
         style="stroke-width:0.264583"
         d="m 33.008528,3.167557 0.781348,1.6960205 0.778247,-1.6960205 h 0.784448 L 33.783675,6.3952669 32.227181,3.167557 Z" />
      <path
         inkscape:connector-curvature="0"
         id="path1228"
         style="stroke-width:0.264583"
         d="m 38.741511,6.1162142 q 0,0.2139404 -0.0155,0.3751709 -0.0124,0.164331 -0.03721,0.2883545 -0.07441,0.3410644 -0.291455,0.5860107 -0.409277,0.4712891 -1.125513,0.4712891 -0.604614,0 -0.995288,-0.3255616 -0.403076,-0.3348632 -0.465088,-0.9270751 h 0.700733 q 0.04031,0.2232421 0.133325,0.344165 0.217041,0.2821533 0.63252,0.2821533 0.765844,0 0.765844,-0.9394775 V 5.8495638 q -0.415478,0.4247803 -0.958081,0.4247803 -0.617016,0 -1.010791,-0.4464844 -0.396875,-0.4526855 -0.396875,-1.1317139 0,-0.6604248 0.36897,-1.122412 0.396875,-0.4898926 1.047998,-0.4898926 0.570508,0 0.948779,0.4247802 V 3.167557 h 0.697632 z M 38.071785,4.6837435 q 0,-0.4402832 -0.235645,-0.703833 -0.238745,-0.269751 -0.610815,-0.269751 -0.396875,0 -0.626319,0.2945557 -0.207739,0.2635498 -0.207739,0.6821289 0,0.4123779 0.207739,0.6759277 0.226343,0.2883545 0.626319,0.2883545 0.399975,0 0.632519,-0.2914551 0.213941,-0.2635498 0.213941,-0.6759277 z" />
    </g>
    <g
       style="font-size:3.52777px;line-height:1.25;font-family:Futura;-inkscape-font-specification:Futura;stroke-width:0.264583"
       id="text1106"
       aria-label=",">
      <path
         inkscape:connector-curvature="0"
         id="path1231"
         style="stroke-width:0.264583"
         d="m 15.906866,12.670201 0.344509,0.134359 -0.490925,0.983572 -0.261827,-0.10852 z" />
    </g>
    <g
       style="font-size:3.52777px;line-height:1.25;font-family:Futura;-inkscape-font-specification:Futura;stroke-width:0.264583"
       id="text1106-8"
       aria-label=",">
      <path
         inkscape:connector-curvature="0"
         id="path1234"
         style="stroke-width:0.264583"
         d="m 29.136033,12.670201 0.344509,0.134359 -0.490925,0.983572 -0.261827,-0.10852 z" />
    </g>
    <g
       style="font-size:3.52777px;line-height:1.25;font-family:Futura;-inkscape-font-specification:Futura;stroke-width:0.264583"
       id="text1106-5"
       aria-label=",">
      <path
         inkscape:connector-curvature="0"
         id="path1237"
         style="stroke-width:0.264583"
         d="m 15.906866,27.222285 0.344509,0.134359 -0.490925,0.983572 -0.261827,-0.10852 z" />
    </g>
    <g
       style="font-size:3.52777px;line-height:1.25;font-family:Futura;-inkscape-font-specification:Futura;stroke-width:0.264583"
       id="text1106-8-6"
       aria-label=",">
      <path
         inkscape:connector-curvature="0"
         id="path1240"
         style="stroke-width:0.264583"
         d="m 29.136033,27.222285 0.344509,0.134359 -0.490925,0.983572 -0.261827,-0.10852 z" />
    </g>
    <g
       style="font-size:3.52777px;line-height:1.25;font-family:Futura;-inkscape-font-specification:Futura;stroke-width:0.264583"
       id="text1106-7"
       aria-label=",">
      <path
         inkscape:connector-curvature="0"
         id="path1243"
         style="stroke-width:0.264583"
         d="m 15.906866,41.774367 0.344509,0.134359 -0.490925,0.983572 -0.261827,-0.10852 z" />
    </g>
    <g
       style="font-size:3.52777px;line-height:1.25;font-family:Futura;-inkscape-font-specification:Futura;stroke-width:0.264583"
       id="text1106-8-3"
       aria-label=",">
      <path
         inkscape:connector-curvature="0"
         id="path1246"
         style="stroke-width:0.264583"
         d="m 29.136033,41.774367 0.344509,0.134359 -0.490925,0.983572 -0.261827,-0.10852 z" />
    </g>
    <g
       style="font-size:3.52777px;line-height:1.25;font-family:Futura;-inkscape-font-specification:Futura;stroke-width:0.264583"
       id="text1106-9"
       aria-label=",">
      <path
         inkscape:connector-curvature="0"
         id="path1249"
         style="stroke-width:0.264583"
         d="m 15.906866,56.326453 0.344509,0.134359 -0.490925,0.983572 -0.261827,-0.10852 z" />
    </g>
    <g
       style="font-size:3.52777px;line-height:1.25;font-family:Futura;-inkscape-font-specification:Futura;stroke-width:0.264583"
       id="text1106-8-1"
       aria-label=",">
      <path
         inkscape:connector-curvature="0"
         id="path1252"
         style="stroke-width:0.264583"
         d="m 29.136033,56.326453 0.344509,0.134359 -0.490925,0.983572 -0.261827,-0.10852 z" />
    </g>
    <g
       style="font-size:3.52777px;line-height:1.25;font-family:Futura;-inkscape-font-specification:Futura;stroke-width:0.264583"
       id="text1106-2"
       aria-label=",">
      <path
         inkscape:connector-curvature="0"
         id="path1255"
         style="stroke-width:0.264583"
         d="m 15.906866,70.878535 0.344509,0.134359 -0.490925,0.983572 -0.261827,-0.10852 z" />
    </g>
    <g
       style="font-size:3.52777px;line-height:1.25;font-family:Futura;-inkscape-font-specification:Futura;stroke-width:0.264583"
       id="text1106-8-65"
       aria-label=",">
      <path
         inkscape:connector-curvature="0"
         id="path1258"
         style="stroke-width:0.264583"
         d="m 29.136033,70.878535 0.344509,0.134359 -0.490925,0.983572 -0.261827,-0.10852 z" />
    </g>
    <g
       style="font-size:3.52777px;line-height:1.25;font-family:Futura;-inkscape-font-specification:Futura;stroke-width:0.264583"
       id="text1106-81"
       aria-label=",">
      <path
         inkscape:connector-curvature="0"
         id="path1261"
         style="stroke-width:0.264583"
         d="m 15.906866,85.430621 0.344509,0.134359 -0.490925,0.983572 -0.261827,-0.10852 z" />
    </g>
    <g
       style="font-size:3.52777px;line-height:1.25;font-family:Futura;-inkscape-font-specification:Futura;stroke-width:0.264583"
       id="text1106-8-7"
       aria-label=",">
      <path
         inkscape:connector-curvature="0"
         id="path1264"
         style="stroke-width:0.264583"
         d="m 29.136033,85.430621 0.344509,0.134359 -0.490925,0.983572 -0.261827,-0.10852 z" />
    </g>
    <g
       style="font-size:3.52777px;line-height:1.25;font-family:Futura;-inkscape-font-specification:Futura;stroke-width:0.264583"
       id="text1106-3"
       aria-label=",">
      <path
         inkscape:connector-curvature="0"
         id="path1267"
         style="stroke-width:0.264583"
         d="m 15.906866,99.982692 0.344509,0.134358 -0.490925,0.98357 -0.261827,-0.10852 z" />
    </g>
    <g
       style="font-size:3.52777px;line-height:1.25;font-family:Futura;-inkscape-font-specification:Futura;stroke-width:0.264583"
       id="text1106-8-4"
       aria-label=",">
      <path
         inkscape:connector-curvature="0"
         id="path1270"
         style="stroke-width:0.264583"
         d="m 29.136033,99.982692 0.344509,0.134358 -0.490925,0.98357 -0.261827,-0.10852 z" />
    </g>
    <g
       style="font-size:3.52777px;line-height:1.25;font-family:Futura;-inkscape-font-specification:Futura;stroke-width:0.264583"
       id="text1106-0"
       aria-label=",">
      <path
         inkscape:connector-curvature="0"
         id="path1273"
         style="stroke-width:0.264583"
         d="m 15.906866,114.53479 0.344509,0.13435 -0.490925,0.98358 -0.261827,-0.10852 z" />
    </g>
    <g
       style="font-size:3.52777px;line-height:1.25;font-family:Futura;-inkscape-font-specification:Futura;stroke-width:0.264583"
       id="text1106-8-0"
       aria-label=",">
      <path
         inkscape:connector-curvature="0"
         id="path1276"
         style="stroke-width:0.264583"
         d="m 29.136033,114.53479 0.344509,0.13435 -0.490925,0.98358 -0.261827,-0.10852 z" />
    </g>
  </g>
  <g
     inkscape:groupmode="layer"
     id="layer2"
     inkscape:label="components"
     style="display:inline">
    <circle
       style="display:inline;fill:#f2f2f2;stroke:#00ff00;stroke-width:0.264583;stroke-opacity:1"
       id="path15"
       cx="9.260416"
       cy="12.170834"
       r="2.6458333"
       inkscape:label="in1" />
    <circle
       style="display:inline;fill:#f2f2f2;stroke:#00ff00;stroke-width:0.264583;stroke-opacity:1"
       id="path17"
       cx="9.2604151"
       cy="26.722906"
       r="2.6458333"
       inkscape:label="in4" />
    <circle
       style="display:inline;fill:#f2f2f2;stroke:#00ff00;stroke-width:0.264583;stroke-opacity:1"
       id="path34"
       cx="9.2604151"
       cy="41.274986"
       r="2.6458333"
       inkscape:label="in7" />
    <circle
       inkscape:label="in10"
       r="2.6458333"
       cy="55.934864"
       cx="9.2604151"
       id="path15-0"
       style="display:inline;fill:#f2f2f2;stroke:#00ff00;stroke-width:0.264583;stroke-opacity:1" />
    <circle
       inkscape:label="in13"
       r="2.6458333"
       cy="70.379158"
       cx="9.2604151"
       id="path17-5"
       style="display:inline;fill:#f2f2f2;stroke:#00ff00;stroke-width:0.264583;stroke-opacity:1" />
    <circle
       inkscape:label="in16"
       r="2.6458333"
       cy="84.931236"
       cx="9.2604141"
       id="path34-6"
       style="display:inline;fill:#f2f2f2;stroke:#00ff00;stroke-width:0.264583;stroke-opacity:1" />
    <circle
       style="display:inline;fill:#f2f2f2;stroke:#00ff00;stroke-width:0.264583;stroke-opacity:1"
       id="path17-5-3"
       cx="9.2604141"
       cy="99.483322"
       r="2.6458333"
       inkscape:label="in19" />
    <circle
       style="display:inline;fill:#f2f2f2;stroke:#00ff00;stroke-width:0.264583;stroke-opacity:1"
       id="path34-6-8"
       cx="9.2604141"
       cy="114.03542"
       r="2.6458333"
       inkscape:label="in22" />
    <circle
       inkscape:label="in2"
       r="2.6458333"
       cy="12.170835"
       cx="22.489584"
       id="path15-4"
       style="display:inline;fill:#f2f2f2;stroke:#00ff00;stroke-width:0.264583;stroke-opacity:1" />
    <circle
       inkscape:label="in5"
       r="2.6458333"
       cy="26.722906"
       cx="22.489584"
       id="path17-0"
       style="display:inline;fill:#f2f2f2;stroke:#00ff00;stroke-width:0.264583;stroke-opacity:1" />
    <circle
       inkscape:label="in8"
       r="2.6458333"
       cy="41.27499"
       cx="22.489584"
       id="path34-0"
       style="display:inline;fill:#f2f2f2;stroke:#00ff00;stroke-width:0.264583;stroke-opacity:1" />
    <circle
       style="display:inline;fill:#f2f2f2;stroke:#00ff00;stroke-width:0.264583;stroke-opacity:1"
       id="path15-0-9"
       cx="22.489584"
       cy="55.934872"
       r="2.6458333"
       inkscape:label="in11" />
    <circle
       style="display:inline;fill:#f2f2f2;stroke:#00ff00;stroke-width:0.264583;stroke-opacity:1"
       id="path17-5-37"
       cx="22.489584"
       cy="70.379158"
       r="2.6458333"
       inkscape:label="in14" />
    <circle
       style="display:inline;fill:#f2f2f2;stroke:#00ff00;stroke-width:0.264583;stroke-opacity:1"
       id="path34-6-5"
       cx="22.489584"
       cy="84.931236"
       r="2.6458333"
       inkscape:label="in17" />
    <circle
       inkscape:label="in20"
       r="2.6458333"
       cy="99.483322"
       cx="22.489584"
       id="path17-5-3-7"
       style="display:inline;fill:#f2f2f2;stroke:#00ff00;stroke-width:0.264583;stroke-opacity:1" />
    <circle
       inkscape:label="in23"
       r="2.6458333"
       cy="114.03542"
       cx="22.489584"
       id="path34-6-8-2"
       style="display:inline;fill:#f2f2f2;stroke:#00ff00;stroke-width:0.264583;stroke-opacity:1" />
    <circle
       style="display:inline;fill:#f2f2f2;stroke:#00ff00;stroke-width:0.264583;stroke-opacity:1"
       id="path15-4-6"
       cx="35.71875"
       cy="12.170835"
       r="2.6458333"
       inkscape:label="in3" />
    <circle
       style="display:inline;fill:#f2f2f2;stroke:#00ff00;stroke-width:0.264583;stroke-opacity:1"
       id="path17-0-5"
       cx="35.71875"
       cy="26.722906"
       r="2.6458333"
       inkscape:label="in6" />
    <circle
       style="display:inline;fill:#f2f2f2;stroke:#00ff00;stroke-width:0.264583;stroke-opacity:1"
       id="path34-0-3"
       cx="35.71875"
       cy="41.27499"
       r="2.6458333"
       inkscape:label="in9" />
    <circle
       inkscape:label="in12"
       r="2.6458333"
       cy="55.934872"
       cx="35.71875"
       id="path15-0-9-0"
       style="display:inline;fill:#f2f2f2;stroke:#00ff00;stroke-width:0.264583;stroke-opacity:1" />
    <circle
       inkscape:label="in15"
       r="2.6458333"
       cy="70.379173"
       cx="35.71875"
       id="path17-5-37-4"
       style="display:inline;fill:#f2f2f2;stroke:#00ff00;stroke-width:0.264583;stroke-opacity:1" />
    <circle
       inkscape:label="in18"
       r="2.6458333"
       cy="84.931236"
       cx="35.71875"
       id="path34-6-5-8"
       style="display:inline;fill:#f2f2f2;stroke:#00ff00;stroke-width:0.264583;stroke-opacity:1" />
    <circle
       style="display:inline;fill:#f2f2f2;stroke:#00ff00;stroke-width:0.264583;stroke-opacity:1"
       id="path17-5-3-7-5"
       cx="35.71875"
       cy="99.483322"
       r="2.6458333"
       inkscape:label="in21" />
    <circle
       style="display:inline;fill:#f2f2f2;stroke:#00ff00;stroke-width:0.264583;stroke-opacity:1"
       id="path34-6-8-2-5"
       cx="35.71875"
       cy="114.03542"
       r="2.6458333"
       inkscape:label="in24" />
    <circle
       inkscape:label="out1"
       r="2.6458333"
       cy="12.170826"
       cx="48.947918"
       id="path15-4-6-5"
       style="display:inline;fill:#f2f2f2;stroke:#0000ff;stroke-width:0.264583;stroke-opacity:1" />
    <circle
       inkscape:label="out2"
       r="2.6458333"
       cy="26.722897"
       cx="48.947918"
       id="path17-0-5-4"
       style="display:inline;fill:#f2f2f2;stroke:#0000ff;stroke-width:0.264583;stroke-opacity:1" />
    <circle
       inkscape:label="out3"
       r="2.6458333"
       cy="41.274986"
       cx="48.947918"
       id="path34-0-3-2"
       style="display:inline;fill:#f2f2f2;stroke:#0000ff;stroke-width:0.264583;stroke-opacity:1" />
    <circle
       style="display:inline;fill:#f2f2f2;stroke:#0000ff;stroke-width:0.264583;stroke-opacity:1"
       id="path15-0-9-0-1"
       cx="48.947918"
       cy="55.934864"
       r="2.6458333"
       inkscape:label="out4" />
    <circle
       style="display:inline;fill:#f2f2f2;stroke:#0000ff;stroke-width:0.264583;stroke-opacity:1"
       id="path17-5-37-4-9"
       cx="48.947918"
       cy="70.379158"
       r="2.6458333"
       inkscape:label="out5" />
    <circle
       style="display:inline;fill:#f2f2f2;stroke:#0000ff;stroke-width:0.264583;stroke-opacity:1"
       id="path34-6-5-8-2"
       cx="48.947918"
       cy="84.931221"
       r="2.6458333"
       inkscape:label="out6" />
    <circle
       inkscape:label="out7"
       r="2.6458333"
       cy="99.483322"
       cx="48.947918"
       id="path17-5-3-7-5-4"
       style="display:inline;fill:#f2f2f2;stroke:#0000ff;stroke-width:0.264583;stroke-opacity:1" />
    <circle
       inkscape:label="out8"
       r="2.6458333"
       cy="114.03542"
       cx="48.947918"
       id="path34-6-8-2-5-5"
       style="display:inline;fill:#f2f2f2;stroke:#0000ff;stroke-width:0.264583;stroke-opacity:1" />
  </g>
</svg>
