<?xml version="1.0" encoding="UTF-8" standalone="no"?>
<svg
   xmlns:dc="http://purl.org/dc/elements/1.1/"
   xmlns:cc="http://creativecommons.org/ns#"
   xmlns:rdf="http://www.w3.org/1999/02/22-rdf-syntax-ns#"
   xmlns:svg="http://www.w3.org/2000/svg"
   xmlns="http://www.w3.org/2000/svg"
   xmlns:sodipodi="http://sodipodi.sourceforge.net/DTD/sodipodi-0.dtd"
   xmlns:inkscape="http://www.inkscape.org/namespaces/inkscape"
   sodipodi:docname="Clip.svg"
   inkscape:version="1.0beta1 (32d4812, 2019-09-19)"
   id="svg1138"
   version="1.1"
   viewBox="0 0 60.959999 128.5"
   height="128.5mm"
   width="60.959999mm">
  <defs
     id="defs1132" />
  <sodipodi:namedview
     inkscape:window-maximized="1"
     inkscape:window-y="23"
     inkscape:window-x="1440"
     inkscape:window-height="989"
     inkscape:window-width="1920"
     inkscape:snap-object-midpoints="true"
     showgrid="true"
     inkscape:document-rotation="0"
     inkscape:current-layer="layer2"
     inkscape:document-units="mm"
     inkscape:cy="247.42785"
     inkscape:cx="115.2"
     inkscape:zoom="1.6451524"
     inkscape:pageshadow="2"
     inkscape:pageopacity="0.0"
     borderopacity="1.0"
     bordercolor="#666666"
     pagecolor="#ffffff"
     id="base"
     inkscape:snap-bbox="true"
     inkscape:snap-bbox-midpoints="true">
    <inkscape:grid
       id="grid1738"
       type="xygrid" />
  </sodipodi:namedview>
  <metadata
     id="metadata1135">
    <rdf:RDF>
      <cc:Work
         rdf:about="">
        <dc:format>image/svg+xml</dc:format>
        <dc:type
           rdf:resource="http://purl.org/dc/dcmitype/StillImage" />
        <dc:title />
      </cc:Work>
    </rdf:RDF>
  </metadata>
  <g
     sodipodi:insensitive="true"
     id="layer1"
     inkscape:groupmode="layer"
     inkscape:label="Background">
    <rect
       y="0"
       x="0"
       height="128.5"
       width="60.959999"
       id="rect10"
       style="display:inline;fill:#f8f8f8;fill-opacity:1;stroke:none;stroke-width:0.173754" />
  </g>
  <g
     inkscape:label="boxes"
     id="layer3"
     inkscape:groupmode="layer"
     sodipodi:insensitive="true">
    <rect
       style="display:inline;fill:#000000;fill-opacity:0.5;stroke:none;stroke-width:0.53;stroke-miterlimit:4;stroke-dasharray:0.53, 1.06;stroke-dashoffset:0;stroke-opacity:1"
       id="rect1740-1"
       width="10.583333"
       height="10.583333"
       x="43.656075"
       y="6.879159" />
    <rect
       style="display:inline;fill:#000000;fill-opacity:0.5;stroke:none;stroke-width:0.53;stroke-miterlimit:4;stroke-dasharray:0.53, 1.06;stroke-dashoffset:0;stroke-opacity:1"
       id="rect1740-1-5"
       width="10.583333"
       height="10.583333"
       x="43.656075"
       y="21.431232" />
    <rect
       style="display:inline;fill:#000000;fill-opacity:0.5;stroke:none;stroke-width:0.53;stroke-miterlimit:4;stroke-dasharray:0.53, 1.06;stroke-dashoffset:0;stroke-opacity:1"
       id="rect1740-1-9"
       width="10.583333"
       height="10.583333"
       x="43.656075"
       y="35.983307" />
    <rect
       style="display:inline;fill:#000000;fill-opacity:0.5;stroke:none;stroke-width:0.53;stroke-miterlimit:4;stroke-dasharray:0.53, 1.06;stroke-dashoffset:0;stroke-opacity:1"
       id="rect1740-1-7"
       width="10.583333"
       height="10.583333"
       x="43.656075"
       y="50.643188" />
    <rect
       style="display:inline;fill:#000000;fill-opacity:0.5;stroke:none;stroke-width:0.53;stroke-miterlimit:4;stroke-dasharray:0.53, 1.06;stroke-dashoffset:0;stroke-opacity:1"
       id="rect1740-1-53"
       width="10.583333"
       height="10.583333"
       x="43.656075"
       y="65.087486" />
    <rect
       style="display:inline;fill:#000000;fill-opacity:0.5;stroke:none;stroke-width:0.53;stroke-miterlimit:4;stroke-dasharray:0.53, 1.06;stroke-dashoffset:0;stroke-opacity:1"
       id="rect1740-1-90"
       width="10.583333"
       height="10.583333"
       x="43.656075"
       y="79.639565" />
    <rect
       style="display:inline;fill:#000000;fill-opacity:0.5;stroke:none;stroke-width:0.53;stroke-miterlimit:4;stroke-dasharray:0.53, 1.06;stroke-dashoffset:0;stroke-opacity:1"
       id="rect1740-1-55"
       width="10.583333"
       height="10.583333"
       x="43.656075"
       y="94.191635" />
    <rect
       style="display:inline;fill:#000000;fill-opacity:0.5;stroke:none;stroke-width:0.53;stroke-miterlimit:4;stroke-dasharray:0.53, 1.06;stroke-dashoffset:0;stroke-opacity:1"
       id="rect1740-1-6"
       width="10.583333"
       height="10.583333"
       x="43.656075"
       y="108.74371" />
  </g>
  <g
     sodipodi:insensitive="true"
     style="display:inline;opacity:1"
     inkscape:label="text"
     id="layer4"
     inkscape:groupmode="layer">
    <g
       transform="translate(-71.695688,-0.06042158)"
       style="font-size:6.35px;line-height:1.25;font-family:Futura;-inkscape-font-specification:Futura;display:inline;opacity:1;stroke-width:0.264583"
       id="text1717-2"
       aria-label="STALYS">
      <path
         inkscape:connector-curvature="0"
         id="path2113"
         style="stroke-width:0.264583"
         d="m 94.892412,122.92583 -0.586011,0.34727 q -0.164331,-0.28526 -0.313159,-0.37207 -0.155029,-0.0992 -0.399976,-0.0992 -0.300757,0 -0.499194,0.17053 -0.198438,0.16743 -0.198438,0.42168 0,0.35036 0.520899,0.56431 l 0.47749,0.19533 q 0.58291,0.23565 0.852661,0.57671 0.269751,0.33796 0.269751,0.83096 0,0.66042 -0.440283,1.0914 -0.443384,0.43409 -1.100708,0.43409 -0.623218,0 -1.029395,-0.36897 -0.399975,-0.36897 -0.499194,-1.0387 l 0.731738,-0.16123 q 0.04961,0.42168 0.173633,0.58291 0.223242,0.31006 0.651123,0.31006 0.337964,0 0.561206,-0.22634 0.223243,-0.22635 0.223243,-0.57361 0,-0.13953 -0.04031,-0.25425 -0.03721,-0.11782 -0.120923,-0.21394 -0.08061,-0.0992 -0.21084,-0.18294 -0.130224,-0.0868 -0.310058,-0.16433 l -0.461988,-0.19223 q -0.982885,-0.41548 -0.982885,-1.21543 0,-0.5395 0.412378,-0.90227 0.412377,-0.36587 1.026293,-0.36587 0.827857,0 1.292945,0.80615 z" />
      <path
         inkscape:connector-curvature="0"
         id="path2115"
         style="stroke-width:0.264583"
         d="M 97.307768,122.89172 V 127 h -0.722436 v -4.10828 h -1.100708 v -0.67902 h 2.920751 v 0.67902 z" />
      <path
         inkscape:connector-curvature="0"
         id="path2117"
         style="stroke-width:0.264583"
         d="M 101.60208,125.83728 H 99.552592 L 99.019291,127 h -0.778247 l 2.368846,-5.08806 2.28513,5.08806 h -0.79065 z m -0.29456,-0.67903 -0.71003,-1.62781 -0.744141,1.62781 z" />
      <path
         inkscape:connector-curvature="0"
         id="path2119"
         style="stroke-width:0.264583"
         d="m 104.21897,122.2127 v 4.10827 h 1.40767 V 127 h -2.1301 v -4.7873 z" />
      <path
         inkscape:connector-curvature="0"
         id="path2121"
         style="stroke-width:0.264583"
         d="m 106.87618,124.93191 -1.5627,-2.71921 h 0.83096 l 1.0945,1.91306 1.09761,-1.91306 h 0.83096 l -1.5689,2.71921 V 127 h -0.72243 z" />
      <path
         inkscape:connector-curvature="0"
         id="path2123"
         style="stroke-width:0.264583"
         d="m 112.2805,122.92583 -0.58601,0.34727 q -0.16433,-0.28526 -0.31316,-0.37207 -0.15503,-0.0992 -0.39998,-0.0992 -0.30075,0 -0.49919,0.17053 -0.19844,0.16743 -0.19844,0.42168 0,0.35036 0.5209,0.56431 l 0.47749,0.19533 q 0.58291,0.23565 0.85266,0.57671 0.26975,0.33796 0.26975,0.83096 0,0.66042 -0.44028,1.0914 -0.44339,0.43409 -1.10071,0.43409 -0.62322,0 -1.02939,-0.36897 -0.39998,-0.36897 -0.4992,-1.0387 l 0.73174,-0.16123 q 0.0496,0.42168 0.17363,0.58291 0.22324,0.31006 0.65113,0.31006 0.33796,0 0.5612,-0.22634 0.22324,-0.22635 0.22324,-0.57361 0,-0.13953 -0.0403,-0.25425 -0.0372,-0.11782 -0.12093,-0.21394 -0.0806,-0.0992 -0.21084,-0.18294 -0.13022,-0.0868 -0.31006,-0.16433 l -0.46198,-0.19223 q -0.98289,-0.41548 -0.98289,-1.21543 0,-0.5395 0.41238,-0.90227 0.41238,-0.36587 1.02629,-0.36587 0.82786,0 1.29295,0.80615 z" />
    </g>
    <text
       id="text1987"
       y="19.84375"
       x="7.9375"
       style="font-size:6.35px;line-height:1.25;font-family:Futura;-inkscape-font-specification:Futura;stroke-width:0.264583"
       xml:space="preserve"><tspan
         style="stroke-width:0.264583"
         y="19.84375"
         x="7.9375"
         id="tspan1985"
         sodipodi:role="line" /></text>
    <g
       style="font-size:3.52777px;line-height:1.25;font-family:Futura;-inkscape-font-specification:Futura;stroke-width:0.264583"
       id="text1188"
       aria-label="8 Clip">
      <path
         inkscape:connector-curvature="0"
         id="path1354"
         style="font-size:6.35px;stroke-width:0.264583"
         d="m 22.847907,3.684833 q -0.527099,-0.3720703 -0.527099,-1.0138916 0,-0.5829101 0.399975,-0.973584 0.403076,-0.3906738 1.001489,-0.3906738 0.595313,0 0.992188,0.3906738 0.396875,0.3875733 0.396875,0.9766846 0,0.6170166 -0.523999,1.0076904 0.288354,0.1550293 0.452685,0.4526855 0.167432,0.2976563 0.167432,0.6697266 0,0.6356201 -0.415478,1.0417969 -0.415479,0.4061767 -1.063501,0.4061767 -0.663526,0 -1.094507,-0.4092773 -0.434082,-0.4092774 -0.434082,-1.0293945 0,-0.8061524 0.648022,-1.1286133 z m 0.151929,-1.0169922 q 0,0.306958 0.207739,0.5146973 0.21084,0.2108398 0.508496,0.2108398 0.294556,0 0.505396,-0.2108398 0.21084,-0.2108399 0.21084,-0.5053955 0,-0.2945557 -0.21084,-0.5053955 -0.21084,-0.2108399 -0.505396,-0.2108399 -0.294555,0 -0.505395,0.2108399 -0.21084,0.2108398 -0.21084,0.4960937 z m -0.08992,2.1208008 q 0,0.3317627 0.229443,0.5705078 0.232544,0.2356445 0.564307,0.2356445 0.328662,0 0.561206,-0.2325439 0.232544,-0.2356446 0.232544,-0.5643067 0,-0.3317627 -0.232544,-0.5643066 -0.232544,-0.2325439 -0.561206,-0.2325439 -0.325562,0 -0.561206,0.2325439 -0.232544,0.2325439 -0.232544,0.5550049 z" />
      <path
         inkscape:connector-curvature="0"
         id="path1356"
         style="font-size:6.35px;stroke-width:0.264583"
         d="m 31.734186,1.6446475 v 0.8557617 q -0.626318,-0.523999 -1.296045,-0.523999 -0.737939,0 -1.243335,0.5302002 -0.508496,0.5270996 -0.508496,1.2898437 0,0.7534424 0.508496,1.2712402 0.508497,0.5177978 1.246436,0.5177978 0.381372,0 0.648022,-0.1240234 0.148829,-0.062012 0.306958,-0.1674316 0.161231,-0.10542 0.337964,-0.2542481 v 0.8712647 q -0.620117,0.3503662 -1.302246,0.3503662 -1.026294,0 -1.751831,-0.7162354 -0.722436,-0.7224365 -0.722436,-1.7425292 0,-0.9146729 0.604614,-1.6309082 0.744141,-0.8774658 1.925464,-0.8774658 0.644922,0 1.246435,0.3503662 z" />
      <path
         inkscape:connector-curvature="0"
         id="path1358"
         style="font-size:6.35px;stroke-width:0.264583"
         d="M 33.213166,0.93771389 V 6.1746035 H 32.515534 V 0.93771389 Z" />
      <path
         inkscape:connector-curvature="0"
         id="path1360"
         style="font-size:6.35px;stroke-width:0.264583"
         d="M 34.800665,3.1546328 V 6.1746035 H 34.103033 V 3.1546328 Z M 33.997614,1.8988955 q 0,-0.1829345 0.133325,-0.3162597 0.133325,-0.1333252 0.31936,-0.1333252 0.189136,0 0.322461,0.1333252 0.133325,0.1302246 0.133325,0.3193603 0,0.1891357 -0.133325,0.3224609 -0.130225,0.1333252 -0.31936,0.1333252 -0.189136,0 -0.322461,-0.1333252 -0.133325,-0.1333252 -0.133325,-0.3255615 z" />
      <path
         inkscape:connector-curvature="0"
         id="path1362"
         style="font-size:6.35px;stroke-width:0.264583"
         d="M 36.388166,7.817914 H 35.690534 V 3.1546328 h 0.697632 v 0.3286621 q 0.412378,-0.4123779 0.936377,-0.4123779 0.623218,0 1.026294,0.4588867 0.409277,0.4557861 0.409277,1.1503174 0,0.6790283 -0.406177,1.1317138 -0.403076,0.449585 -1.016992,0.449585 -0.5302,0 -0.948779,-0.4247803 z m 1.658813,-3.1346924 q 0,-0.434082 -0.235644,-0.7069335 -0.238745,-0.2759522 -0.601514,-0.2759522 -0.384473,0 -0.623218,0.2666504 -0.238745,0.2666504 -0.238745,0.7007324 0,0.4247803 0.238745,0.7007324 0.235645,0.269751 0.620118,0.269751 0.362768,0 0.598413,-0.2728516 0.241845,-0.2728515 0.241845,-0.6821289 z" />
    </g>
    <g
       style="font-size:3.52777px;line-height:1.25;font-family:Futura;-inkscape-font-specification:Futura;stroke-width:0.264583"
       id="text1192"
       aria-label="In">
      <path
         inkscape:connector-curvature="0"
         id="path1365"
         style="stroke-width:0.264583"
         d="m 8.4559886,17.19103 v 2.659607 H 8.0546359 V 17.19103 Z" />
      <path
         inkscape:connector-curvature="0"
         id="path1367"
         style="stroke-width:0.264583"
         d="M 9.0209831,18.17288 H 9.410278 v 0.155029 q 0.2032602,-0.201538 0.4581967,-0.201538 0.2928323,0 0.4564743,0.184312 0.141248,0.156752 0.141248,0.511596 v 1.028358 h -0.389294 v -0.937063 q 0,-0.248047 -0.0689,-0.342787 -0.067179,-0.09646 -0.2446015,-0.09646 -0.1929249,0 -0.2738844,0.127468 -0.079237,0.125746 -0.079237,0.439249 v 0.809595 h -0.389297 z" />
    </g>
    <g
       style="font-size:3.52777px;line-height:1.25;font-family:Futura;-inkscape-font-specification:Futura;stroke-width:0.264583"
       id="text1196"
       aria-label="Ratio">
      <path
         inkscape:connector-curvature="0"
         id="path1370"
         style="stroke-width:0.264583"
         d="m 26.172396,18.693087 0.823376,1.133434 h -0.490925 l -0.759642,-1.088648 h -0.07235 v 1.088648 h -0.401352 v -2.659608 h 0.470254 q 0.527099,0 0.761365,0.198093 0.258381,0.220485 0.258381,0.582219 0,0.282498 -0.161919,0.485758 -0.161919,0.20326 -0.427191,0.260104 z m -0.499538,-0.30489 h 0.127469 q 0.570162,0 0.570162,-0.435804 0,-0.408243 -0.554659,-0.408243 h -0.142972 z" />
      <path
         inkscape:connector-curvature="0"
         id="path1372"
         style="stroke-width:0.264583"
         d="m 28.497831,18.148763 h 0.389295 v 1.677758 h -0.389295 v -0.1757 q -0.239434,0.223931 -0.515041,0.223931 -0.347954,0 -0.57533,-0.251491 -0.225653,-0.256659 -0.225653,-0.640787 0,-0.377237 0.225653,-0.628728 0.225654,-0.251492 0.564995,-0.251492 0.292832,0 0.525376,0.241157 z m -0.919839,0.833711 q 0,0.241157 0.129191,0.39274 0.132636,0.153307 0.334173,0.153307 0.215318,0 0.347954,-0.148139 0.132636,-0.153306 0.132636,-0.389295 0,-0.235988 -0.132636,-0.389295 -0.132636,-0.149861 -0.344508,-0.149861 -0.199816,0 -0.334174,0.151584 -0.132636,0.153306 -0.132636,0.378959 z" />
      <path
         inkscape:connector-curvature="0"
         id="path1374"
         style="stroke-width:0.264583"
         d="m 29.779403,18.510497 v 1.316024 h -0.387572 v -1.316024 h -0.165364 v -0.361734 h 0.165364 v -0.614948 h 0.387572 v 0.614948 h 0.301446 v 0.361734 z" />
      <path
         inkscape:connector-curvature="0"
         id="path1376"
         style="stroke-width:0.264583"
         d="m 30.73197,18.148763 v 1.677758 h -0.387572 v -1.677758 z m -0.446139,-0.69763 q 0,-0.10163 0.07407,-0.1757 0.07407,-0.07407 0.177422,-0.07407 0.105076,0 0.179145,0.07407 0.07407,0.07235 0.07407,0.177422 0,0.105076 -0.07407,0.179145 -0.07235,0.07407 -0.177422,0.07407 -0.105075,0 -0.179145,-0.07407 -0.07407,-0.07407 -0.07407,-0.180867 z" />
      <path
         inkscape:connector-curvature="0"
         id="path1378"
         style="stroke-width:0.264583"
         d="m 31.147103,18.975584 q 0,-0.363457 0.260104,-0.618393 0.260105,-0.254937 0.633897,-0.254937 0.375514,0 0.637341,0.256659 0.258381,0.25666 0.258381,0.630452 0,0.377237 -0.260104,0.632173 -0.261826,0.253214 -0.642509,0.253214 -0.377237,0 -0.632173,-0.258381 -0.254937,-0.254937 -0.254937,-0.640787 z m 0.396185,0.0069 q 0,0.251492 0.134359,0.397908 0.137803,0.148139 0.363457,0.148139 0.227375,0 0.363456,-0.146416 0.136081,-0.146417 0.136081,-0.391018 0,-0.244601 -0.136081,-0.391017 -0.137803,-0.148139 -0.363456,-0.148139 -0.222209,0 -0.360012,0.148139 -0.137804,0.148138 -0.137804,0.382404 z" />
    </g>
    <g
       style="font-size:3.52777px;line-height:1.25;font-family:Futura;-inkscape-font-specification:Futura;display:inline;opacity:1;stroke-width:0.264583"
       id="text1192-8"
       aria-label="In">
      <path
         inkscape:connector-curvature="0"
         id="path1381"
         style="stroke-width:0.264583"
         d="m 8.4559886,31.743114 v 2.659607 H 8.0546359 v -2.659607 z" />
      <path
         inkscape:connector-curvature="0"
         id="path1383"
         style="stroke-width:0.264583"
         d="M 9.0209831,32.724964 H 9.410278 v 0.155029 q 0.2032602,-0.201538 0.4581967,-0.201538 0.2928323,0 0.4564743,0.184312 0.141248,0.156752 0.141248,0.511596 v 1.028358 h -0.389294 v -0.937064 q 0,-0.248046 -0.0689,-0.342786 -0.067179,-0.09646 -0.2446015,-0.09646 -0.1929249,0 -0.2738844,0.127468 -0.079237,0.125746 -0.079237,0.439249 v 0.809595 h -0.389297 z" />
    </g>
    <g
       style="font-size:3.52777px;line-height:1.25;font-family:Futura;-inkscape-font-specification:Futura;display:inline;opacity:1;stroke-width:0.264583"
       id="text1196-3"
       aria-label="Ratio">
      <path
         inkscape:connector-curvature="0"
         id="path1386"
         style="stroke-width:0.264583"
         d="m 26.172396,33.245171 0.823376,1.133434 h -0.490925 l -0.759642,-1.088648 h -0.07235 v 1.088648 h -0.401352 v -2.659608 h 0.470254 q 0.527099,0 0.761365,0.198093 0.258381,0.220485 0.258381,0.582219 0,0.282498 -0.161919,0.485758 -0.161919,0.20326 -0.427191,0.260104 z m -0.499538,-0.30489 h 0.127469 q 0.570162,0 0.570162,-0.435804 0,-0.408243 -0.554659,-0.408243 h -0.142972 z" />
      <path
         inkscape:connector-curvature="0"
         id="path1388"
         style="stroke-width:0.264583"
         d="m 28.497831,32.700847 h 0.389295 v 1.677758 h -0.389295 v -0.1757 q -0.239434,0.223931 -0.515041,0.223931 -0.347954,0 -0.57533,-0.251491 -0.225653,-0.256659 -0.225653,-0.640787 0,-0.377237 0.225653,-0.628728 0.225654,-0.251492 0.564995,-0.251492 0.292832,0 0.525376,0.241157 z m -0.919839,0.833711 q 0,0.241157 0.129191,0.39274 0.132636,0.153307 0.334173,0.153307 0.215318,0 0.347954,-0.148139 0.132636,-0.153306 0.132636,-0.389295 0,-0.235988 -0.132636,-0.389295 -0.132636,-0.149861 -0.344508,-0.149861 -0.199816,0 -0.334174,0.151584 -0.132636,0.153306 -0.132636,0.378959 z" />
      <path
         inkscape:connector-curvature="0"
         id="path1390"
         style="stroke-width:0.264583"
         d="m 29.779403,33.062581 v 1.316024 h -0.387572 v -1.316024 h -0.165364 v -0.361734 h 0.165364 v -0.614948 h 0.387572 v 0.614948 h 0.301446 v 0.361734 z" />
      <path
         inkscape:connector-curvature="0"
         id="path1392"
         style="stroke-width:0.264583"
         d="m 30.73197,32.700847 v 1.677758 h -0.387572 v -1.677758 z m -0.446139,-0.69763 q 0,-0.10163 0.07407,-0.1757 0.07407,-0.07407 0.177422,-0.07407 0.105076,0 0.179145,0.07407 0.07407,0.07235 0.07407,0.177422 0,0.105075 -0.07407,0.179145 -0.07235,0.07407 -0.177422,0.07407 -0.105075,0 -0.179145,-0.07407 -0.07407,-0.07407 -0.07407,-0.180867 z" />
      <path
         inkscape:connector-curvature="0"
         id="path1394"
         style="stroke-width:0.264583"
         d="m 31.147103,33.527668 q 0,-0.363457 0.260104,-0.618393 0.260105,-0.254937 0.633897,-0.254937 0.375514,0 0.637341,0.256659 0.258381,0.256659 0.258381,0.630452 0,0.377237 -0.260104,0.632173 -0.261826,0.253214 -0.642509,0.253214 -0.377237,0 -0.632173,-0.258381 -0.254937,-0.254937 -0.254937,-0.640787 z m 0.396185,0.0069 q 0,0.251492 0.134359,0.397908 0.137803,0.148139 0.363457,0.148139 0.227375,0 0.363456,-0.146416 0.136081,-0.146417 0.136081,-0.391018 0,-0.244601 -0.136081,-0.391017 -0.137803,-0.148139 -0.363456,-0.148139 -0.222209,0 -0.360012,0.148139 -0.137804,0.148138 -0.137804,0.382404 z" />
    </g>
    <g
       style="font-size:3.52777px;line-height:1.25;font-family:Futura;-inkscape-font-specification:Futura;display:inline;opacity:1;stroke-width:0.264583"
       id="text1192-1"
       aria-label="In">
      <path
         inkscape:connector-curvature="0"
         id="path1397"
         style="stroke-width:0.264583"
         d="m 8.4559886,46.295196 v 2.659607 H 8.0546359 v -2.659607 z" />
      <path
         inkscape:connector-curvature="0"
         id="path1399"
         style="stroke-width:0.264583"
         d="M 9.0209831,47.277046 H 9.410278 v 0.155029 q 0.2032602,-0.201538 0.4581967,-0.201538 0.2928323,0 0.4564743,0.184312 0.141248,0.156752 0.141248,0.511596 v 1.028358 H 10.076903 V 48.01774 q 0,-0.248047 -0.0689,-0.342787 -0.067179,-0.09646 -0.2446015,-0.09646 -0.1929249,0 -0.2738844,0.127468 -0.079237,0.125746 -0.079237,0.439249 v 0.809595 h -0.389297 z" />
    </g>
    <g
       style="font-size:3.52777px;line-height:1.25;font-family:Futura;-inkscape-font-specification:Futura;display:inline;opacity:1;stroke-width:0.264583"
       id="text1196-35"
       aria-label="Ratio">
      <path
         inkscape:connector-curvature="0"
         id="path1402"
         style="stroke-width:0.264583"
         d="m 26.172396,47.797253 0.823376,1.133434 h -0.490925 l -0.759642,-1.088648 h -0.07235 v 1.088648 h -0.401352 v -2.659608 h 0.470254 q 0.527099,0 0.761365,0.198093 0.258381,0.220485 0.258381,0.582219 0,0.282498 -0.161919,0.485758 -0.161919,0.20326 -0.427191,0.260104 z m -0.499538,-0.30489 h 0.127469 q 0.570162,0 0.570162,-0.435804 0,-0.408243 -0.554659,-0.408243 h -0.142972 z" />
      <path
         inkscape:connector-curvature="0"
         id="path1404"
         style="stroke-width:0.264583"
         d="m 28.497831,47.252929 h 0.389295 v 1.677758 h -0.389295 v -0.1757 q -0.239434,0.223931 -0.515041,0.223931 -0.347954,0 -0.57533,-0.251491 -0.225653,-0.256659 -0.225653,-0.640787 0,-0.377237 0.225653,-0.628728 0.225654,-0.251492 0.564995,-0.251492 0.292832,0 0.525376,0.241157 z m -0.919839,0.833711 q 0,0.241157 0.129191,0.39274 0.132636,0.153307 0.334173,0.153307 0.215318,0 0.347954,-0.148139 0.132636,-0.153306 0.132636,-0.389295 0,-0.235988 -0.132636,-0.389295 -0.132636,-0.149861 -0.344508,-0.149861 -0.199816,0 -0.334174,0.151584 -0.132636,0.153306 -0.132636,0.378959 z" />
      <path
         inkscape:connector-curvature="0"
         id="path1406"
         style="stroke-width:0.264583"
         d="m 29.779403,47.614663 v 1.316024 h -0.387572 v -1.316024 h -0.165364 v -0.361734 h 0.165364 v -0.614948 h 0.387572 v 0.614948 h 0.301446 v 0.361734 z" />
      <path
         inkscape:connector-curvature="0"
         id="path1408"
         style="stroke-width:0.264583"
         d="m 30.73197,47.252929 v 1.677758 h -0.387572 v -1.677758 z m -0.446139,-0.69763 q 0,-0.10163 0.07407,-0.1757 0.07407,-0.07407 0.177422,-0.07407 0.105076,0 0.179145,0.07407 0.07407,0.07235 0.07407,0.177422 0,0.105076 -0.07407,0.179145 -0.07235,0.07407 -0.177422,0.07407 -0.105075,0 -0.179145,-0.07407 -0.07407,-0.07407 -0.07407,-0.180867 z" />
      <path
         inkscape:connector-curvature="0"
         id="path1410"
         style="stroke-width:0.264583"
         d="m 31.147103,48.07975 q 0,-0.363457 0.260104,-0.618393 0.260105,-0.254937 0.633897,-0.254937 0.375514,0 0.637341,0.256659 0.258381,0.25666 0.258381,0.630452 0,0.377237 -0.260104,0.632173 -0.261826,0.253214 -0.642509,0.253214 -0.377237,0 -0.632173,-0.258381 Q 31.147103,48.4656 31.147103,48.07975 Z m 0.396185,0.0069 q 0,0.251492 0.134359,0.397908 0.137803,0.148139 0.363457,0.148139 0.227375,0 0.363456,-0.146416 0.136081,-0.146417 0.136081,-0.391018 0,-0.244601 -0.136081,-0.391017 -0.137803,-0.148139 -0.363456,-0.148139 -0.222209,0 -0.360012,0.148139 -0.137804,0.148138 -0.137804,0.382404 z" />
    </g>
    <g
       style="font-size:3.52777px;line-height:1.25;font-family:Futura;-inkscape-font-specification:Futura;display:inline;opacity:1;stroke-width:0.264583"
       id="text1192-5"
       aria-label="In">
      <path
         inkscape:connector-curvature="0"
         id="path1413"
         style="stroke-width:0.264583"
         d="m 8.4559886,60.847278 v 2.659608 H 8.0546359 v -2.659608 z" />
      <path
         inkscape:connector-curvature="0"
         id="path1415"
         style="stroke-width:0.264583"
         d="M 9.0209831,61.829128 H 9.410278 v 0.155029 q 0.2032602,-0.201538 0.4581967,-0.201538 0.2928323,0 0.4564743,0.184312 0.141248,0.156752 0.141248,0.511596 v 1.028359 h -0.389294 v -0.937064 q 0,-0.248047 -0.0689,-0.342787 -0.067179,-0.09646 -0.2446015,-0.09646 -0.1929249,0 -0.2738844,0.127468 -0.079237,0.125746 -0.079237,0.439249 v 0.809596 h -0.389297 z" />
    </g>
    <g
       style="font-size:3.52777px;line-height:1.25;font-family:Futura;-inkscape-font-specification:Futura;display:inline;opacity:1;stroke-width:0.264583"
       id="text1196-9"
       aria-label="Ratio">
      <path
         inkscape:connector-curvature="0"
         id="path1418"
         style="stroke-width:0.264583"
         d="m 26.172396,62.349335 0.823376,1.133434 h -0.490925 l -0.759642,-1.088648 h -0.07235 v 1.088648 h -0.401352 v -2.659608 h 0.470254 q 0.527099,0 0.761365,0.198093 0.258381,0.220485 0.258381,0.58222 0,0.282497 -0.161919,0.485757 -0.161919,0.20326 -0.427191,0.260104 z m -0.499538,-0.30489 h 0.127469 q 0.570162,0 0.570162,-0.435804 0,-0.408243 -0.554659,-0.408243 h -0.142972 z" />
      <path
         inkscape:connector-curvature="0"
         id="path1420"
         style="stroke-width:0.264583"
         d="m 28.497831,61.805011 h 0.389295 v 1.677758 H 28.497831 V 63.30707 Q 28.258397,63.531 27.98279,63.531 q -0.347954,0 -0.57533,-0.251491 -0.225653,-0.256659 -0.225653,-0.640787 0,-0.377237 0.225653,-0.628728 0.225654,-0.251491 0.564995,-0.251491 0.292832,0 0.525376,0.241156 z m -0.919839,0.833711 q 0,0.241157 0.129191,0.39274 0.132636,0.153307 0.334173,0.153307 0.215318,0 0.347954,-0.148139 0.132636,-0.153306 0.132636,-0.389295 0,-0.235988 -0.132636,-0.389295 -0.132636,-0.149861 -0.344508,-0.149861 -0.199816,0 -0.334174,0.151584 -0.132636,0.153306 -0.132636,0.378959 z" />
      <path
         inkscape:connector-curvature="0"
         id="path1422"
         style="stroke-width:0.264583"
         d="m 29.779403,62.166745 v 1.316024 h -0.387572 v -1.316024 h -0.165364 v -0.361734 h 0.165364 v -0.614948 h 0.387572 v 0.614948 h 0.301446 v 0.361734 z" />
      <path
         inkscape:connector-curvature="0"
         id="path1424"
         style="stroke-width:0.264583"
         d="m 30.73197,61.805011 v 1.677758 h -0.387572 v -1.677758 z m -0.446139,-0.69763 q 0,-0.10163 0.07407,-0.1757 0.07407,-0.07407 0.177422,-0.07407 0.105076,0 0.179145,0.07407 0.07407,0.07235 0.07407,0.177422 0,0.105076 -0.07407,0.179145 -0.07235,0.07407 -0.177422,0.07407 -0.105075,0 -0.179145,-0.07407 -0.07407,-0.07407 -0.07407,-0.180867 z" />
      <path
         inkscape:connector-curvature="0"
         id="path1426"
         style="stroke-width:0.264583"
         d="m 31.147103,62.631832 q 0,-0.363456 0.260104,-0.618393 0.260105,-0.254936 0.633897,-0.254936 0.375514,0 0.637341,0.256659 0.258381,0.256659 0.258381,0.630451 0,0.377237 -0.260104,0.632173 -0.261826,0.253214 -0.642509,0.253214 -0.377237,0 -0.632173,-0.258381 -0.254937,-0.254937 -0.254937,-0.640787 z m 0.396185,0.0069 q 0,0.251492 0.134359,0.397908 0.137803,0.148139 0.363457,0.148139 0.227375,0 0.363456,-0.146416 0.136081,-0.146417 0.136081,-0.391018 0,-0.244601 -0.136081,-0.391017 -0.137803,-0.148139 -0.363456,-0.148139 -0.222209,0 -0.360012,0.148139 -0.137804,0.148138 -0.137804,0.382404 z" />
    </g>
    <g
       style="font-size:3.52777px;line-height:1.25;font-family:Futura;-inkscape-font-specification:Futura;display:inline;opacity:1;stroke-width:0.264583"
       id="text1192-83"
       aria-label="In">
      <path
         inkscape:connector-curvature="0"
         id="path1429"
         style="stroke-width:0.264583"
         d="m 8.4559886,75.39936 v 2.659608 H 8.0546359 V 75.39936 Z" />
      <path
         inkscape:connector-curvature="0"
         id="path1431"
         style="stroke-width:0.264583"
         d="M 9.0209831,76.38121 H 9.410278 v 0.155029 q 0.2032602,-0.201538 0.4581967,-0.201538 0.2928323,0 0.4564743,0.184312 0.141248,0.156752 0.141248,0.511596 v 1.028359 h -0.389294 v -0.937064 q 0,-0.248047 -0.0689,-0.342787 -0.067179,-0.09646 -0.2446015,-0.09646 -0.1929249,0 -0.2738844,0.127468 -0.079237,0.125746 -0.079237,0.439249 v 0.809596 h -0.389297 z" />
    </g>
    <g
       style="font-size:3.52777px;line-height:1.25;font-family:Futura;-inkscape-font-specification:Futura;display:inline;opacity:1;stroke-width:0.264583"
       id="text1196-2"
       aria-label="Ratio">
      <path
         inkscape:connector-curvature="0"
         id="path1434"
         style="stroke-width:0.264583"
         d="m 26.172396,76.901417 0.823376,1.133434 h -0.490925 l -0.759642,-1.088648 h -0.07235 v 1.088648 h -0.401352 v -2.659608 h 0.470254 q 0.527099,0 0.761365,0.198093 0.258381,0.220485 0.258381,0.58222 0,0.282497 -0.161919,0.485757 -0.161919,0.20326 -0.427191,0.260104 z m -0.499538,-0.30489 h 0.127469 q 0.570162,0 0.570162,-0.435804 0,-0.408243 -0.554659,-0.408243 h -0.142972 z" />
      <path
         inkscape:connector-curvature="0"
         id="path1436"
         style="stroke-width:0.264583"
         d="m 28.497831,76.357093 h 0.389295 v 1.677758 h -0.389295 v -0.175699 q -0.239434,0.22393 -0.515041,0.22393 -0.347954,0 -0.57533,-0.251491 -0.225653,-0.256659 -0.225653,-0.640786 0,-0.377238 0.225653,-0.628729 0.225654,-0.251491 0.564995,-0.251491 0.292832,0 0.525376,0.241156 z m -0.919839,0.833712 q 0,0.241156 0.129191,0.39274 0.132636,0.153306 0.334173,0.153306 0.215318,0 0.347954,-0.148139 0.132636,-0.153306 0.132636,-0.389295 0,-0.235988 -0.132636,-0.389295 -0.132636,-0.149861 -0.344508,-0.149861 -0.199816,0 -0.334174,0.151584 -0.132636,0.153306 -0.132636,0.37896 z" />
      <path
         inkscape:connector-curvature="0"
         id="path1438"
         style="stroke-width:0.264583"
         d="m 29.779403,76.718827 v 1.316024 h -0.387572 v -1.316024 h -0.165364 v -0.361734 h 0.165364 v -0.614948 h 0.387572 v 0.614948 h 0.301446 v 0.361734 z" />
      <path
         inkscape:connector-curvature="0"
         id="path1440"
         style="stroke-width:0.264583"
         d="m 30.73197,76.357093 v 1.677758 h -0.387572 v -1.677758 z m -0.446139,-0.69763 q 0,-0.10163 0.07407,-0.1757 0.07407,-0.07407 0.177422,-0.07407 0.105076,0 0.179145,0.07407 0.07407,0.07235 0.07407,0.177422 0,0.105076 -0.07407,0.179145 -0.07235,0.07407 -0.177422,0.07407 -0.105075,0 -0.179145,-0.07407 -0.07407,-0.07407 -0.07407,-0.180867 z" />
      <path
         inkscape:connector-curvature="0"
         id="path1442"
         style="stroke-width:0.264583"
         d="m 31.147103,77.183914 q 0,-0.363456 0.260104,-0.618393 0.260105,-0.254936 0.633897,-0.254936 0.375514,0 0.637341,0.256659 0.258381,0.256659 0.258381,0.630451 0,0.377237 -0.260104,0.632173 -0.261826,0.253214 -0.642509,0.253214 -0.377237,0 -0.632173,-0.258381 -0.254937,-0.254937 -0.254937,-0.640787 z m 0.396185,0.0069 q 0,0.251491 0.134359,0.397907 0.137803,0.148139 0.363457,0.148139 0.227375,0 0.363456,-0.146416 0.136081,-0.146417 0.136081,-0.391018 0,-0.244601 -0.136081,-0.391017 -0.137803,-0.148139 -0.363456,-0.148139 -0.222209,0 -0.360012,0.148139 -0.137804,0.148139 -0.137804,0.382405 z" />
    </g>
    <g
       style="font-size:3.52777px;line-height:1.25;font-family:Futura;-inkscape-font-specification:Futura;display:inline;opacity:1;stroke-width:0.264583"
       id="text1192-6"
       aria-label="In">
      <path
         inkscape:connector-curvature="0"
         id="path1445"
         style="stroke-width:0.264583"
         d="m 8.4559886,89.951446 v 2.659607 H 8.0546359 v -2.659607 z" />
      <path
         inkscape:connector-curvature="0"
         id="path1447"
         style="stroke-width:0.264583"
         d="M 9.0209831,90.933296 H 9.410278 v 0.155029 q 0.2032602,-0.201538 0.4581967,-0.201538 0.2928323,0 0.4564743,0.184312 0.141248,0.156752 0.141248,0.511596 v 1.028358 H 10.076903 V 91.67399 q 0,-0.248047 -0.0689,-0.342787 -0.067179,-0.09646 -0.2446015,-0.09646 -0.1929249,0 -0.2738844,0.127468 -0.079237,0.125746 -0.079237,0.439249 v 0.809595 h -0.389297 z" />
    </g>
    <g
       style="font-size:3.52777px;line-height:1.25;font-family:Futura;-inkscape-font-specification:Futura;display:inline;opacity:1;stroke-width:0.264583"
       id="text1196-8"
       aria-label="Ratio">
      <path
         inkscape:connector-curvature="0"
         id="path1450"
         style="stroke-width:0.264583"
         d="m 26.172396,91.453503 0.823376,1.133434 h -0.490925 l -0.759642,-1.088648 h -0.07235 v 1.088648 h -0.401352 v -2.659608 h 0.470254 q 0.527099,0 0.761365,0.198093 0.258381,0.220485 0.258381,0.582219 0,0.282498 -0.161919,0.485758 -0.161919,0.20326 -0.427191,0.260104 z m -0.499538,-0.30489 h 0.127469 q 0.570162,0 0.570162,-0.435804 0,-0.408243 -0.554659,-0.408243 h -0.142972 z" />
      <path
         inkscape:connector-curvature="0"
         id="path1452"
         style="stroke-width:0.264583"
         d="m 28.497831,90.909179 h 0.389295 v 1.677758 h -0.389295 v -0.1757 q -0.239434,0.223931 -0.515041,0.223931 -0.347954,0 -0.57533,-0.251491 -0.225653,-0.256659 -0.225653,-0.640787 0,-0.377237 0.225653,-0.628728 0.225654,-0.251492 0.564995,-0.251492 0.292832,0 0.525376,0.241157 z m -0.919839,0.833711 q 0,0.241157 0.129191,0.39274 0.132636,0.153307 0.334173,0.153307 0.215318,0 0.347954,-0.148139 0.132636,-0.153306 0.132636,-0.389295 0,-0.235988 -0.132636,-0.389295 -0.132636,-0.149861 -0.344508,-0.149861 -0.199816,0 -0.334174,0.151584 -0.132636,0.153306 -0.132636,0.378959 z" />
      <path
         inkscape:connector-curvature="0"
         id="path1454"
         style="stroke-width:0.264583"
         d="m 29.779403,91.270913 v 1.316024 h -0.387572 v -1.316024 h -0.165364 v -0.361734 h 0.165364 v -0.614948 h 0.387572 v 0.614948 h 0.301446 v 0.361734 z" />
      <path
         inkscape:connector-curvature="0"
         id="path1456"
         style="stroke-width:0.264583"
         d="m 30.73197,90.909179 v 1.677758 h -0.387572 v -1.677758 z m -0.446139,-0.69763 q 0,-0.10163 0.07407,-0.1757 0.07407,-0.07407 0.177422,-0.07407 0.105076,0 0.179145,0.07407 0.07407,0.07235 0.07407,0.177422 0,0.105076 -0.07407,0.179145 -0.07235,0.07407 -0.177422,0.07407 -0.105075,0 -0.179145,-0.07407 -0.07407,-0.07407 -0.07407,-0.180867 z" />
      <path
         inkscape:connector-curvature="0"
         id="path1458"
         style="stroke-width:0.264583"
         d="m 31.147103,91.736 q 0,-0.363457 0.260104,-0.618393 0.260105,-0.254937 0.633897,-0.254937 0.375514,0 0.637341,0.256659 0.258381,0.25666 0.258381,0.630452 0,0.377237 -0.260104,0.632173 -0.261826,0.253214 -0.642509,0.253214 -0.377237,0 -0.632173,-0.258381 Q 31.147103,92.12185 31.147103,91.736 Z m 0.396185,0.0069 q 0,0.251492 0.134359,0.397908 0.137803,0.148139 0.363457,0.148139 0.227375,0 0.363456,-0.146416 0.136081,-0.146417 0.136081,-0.391018 0,-0.244601 -0.136081,-0.391017 -0.137803,-0.148139 -0.363456,-0.148139 -0.222209,0 -0.360012,0.148139 -0.137804,0.148138 -0.137804,0.382404 z" />
    </g>
    <g
       style="font-size:3.52777px;line-height:1.25;font-family:Futura;-inkscape-font-specification:Futura;display:inline;opacity:1;stroke-width:0.264583"
       id="text1192-7"
       aria-label="In">
      <path
         inkscape:connector-curvature="0"
         id="path1461"
         style="stroke-width:0.264583"
         d="m 8.4559886,104.50353 v 2.65961 H 8.0546359 v -2.65961 z" />
      <path
         inkscape:connector-curvature="0"
         id="path1463"
         style="stroke-width:0.264583"
         d="M 9.0209831,105.48538 H 9.410278 v 0.15503 q 0.2032602,-0.20154 0.4581967,-0.20154 0.2928323,0 0.4564743,0.18432 0.141248,0.15675 0.141248,0.51159 v 1.02836 h -0.389294 v -0.93706 q 0,-0.24805 -0.0689,-0.34279 -0.067179,-0.0965 -0.2446015,-0.0965 -0.1929249,0 -0.2738844,0.12746 -0.079237,0.12575 -0.079237,0.43925 v 0.8096 h -0.389297 z" />
    </g>
    <g
       style="font-size:3.52777px;line-height:1.25;font-family:Futura;-inkscape-font-specification:Futura;display:inline;opacity:1;stroke-width:0.264583"
       id="text1196-87"
       aria-label="Ratio">
      <path
         inkscape:connector-curvature="0"
         id="path1466"
         style="stroke-width:0.264583"
         d="m 26.172396,106.00559 0.823376,1.13343 h -0.490925 l -0.759642,-1.08864 h -0.07235 v 1.08864 h -0.401352 v -2.65961 h 0.470254 q 0.527099,0 0.761365,0.1981 0.258381,0.22048 0.258381,0.58222 0,0.28249 -0.161919,0.48575 -0.161919,0.20326 -0.427191,0.26011 z m -0.499538,-0.30489 h 0.127469 q 0.570162,0 0.570162,-0.43581 0,-0.40824 -0.554659,-0.40824 h -0.142972 z" />
      <path
         inkscape:connector-curvature="0"
         id="path1468"
         style="stroke-width:0.264583"
         d="m 28.497831,105.46127 h 0.389295 v 1.67775 h -0.389295 v -0.1757 q -0.239434,0.22393 -0.515041,0.22393 -0.347954,0 -0.57533,-0.25149 -0.225653,-0.25666 -0.225653,-0.64078 0,-0.37724 0.225653,-0.62873 0.225654,-0.25149 0.564995,-0.25149 0.292832,0 0.525376,0.24115 z m -0.919839,0.83371 q 0,0.24115 0.129191,0.39274 0.132636,0.1533 0.334173,0.1533 0.215318,0 0.347954,-0.14814 0.132636,-0.1533 0.132636,-0.38929 0,-0.23599 -0.132636,-0.3893 -0.132636,-0.14986 -0.344508,-0.14986 -0.199816,0 -0.334174,0.15159 -0.132636,0.1533 -0.132636,0.37896 z" />
      <path
         inkscape:connector-curvature="0"
         id="path1470"
         style="stroke-width:0.264583"
         d="m 29.779403,105.823 v 1.31602 H 29.391831 V 105.823 h -0.165364 v -0.36173 h 0.165364 v -0.61495 h 0.387572 v 0.61495 h 0.301446 v 0.36173 z" />
      <path
         inkscape:connector-curvature="0"
         id="path1472"
         style="stroke-width:0.264583"
         d="m 30.73197,105.46127 v 1.67775 h -0.387572 v -1.67775 z m -0.446139,-0.69764 q 0,-0.10163 0.07407,-0.17569 0.07407,-0.0741 0.177422,-0.0741 0.105076,0 0.179145,0.0741 0.07407,0.0723 0.07407,0.17742 0,0.10507 -0.07407,0.17914 -0.07235,0.0741 -0.177422,0.0741 -0.105075,0 -0.179145,-0.0741 -0.07407,-0.0741 -0.07407,-0.18087 z" />
      <path
         inkscape:connector-curvature="0"
         id="path1474"
         style="stroke-width:0.264583"
         d="m 31.147103,106.28809 q 0,-0.36346 0.260104,-0.6184 0.260105,-0.25493 0.633897,-0.25493 0.375514,0 0.637341,0.25666 0.258381,0.25665 0.258381,0.63045 0,0.37723 -0.260104,0.63217 -0.261826,0.25321 -0.642509,0.25321 -0.377237,0 -0.632173,-0.25838 -0.254937,-0.25493 -0.254937,-0.64078 z m 0.396185,0.007 q 0,0.25149 0.134359,0.3979 0.137803,0.14814 0.363457,0.14814 0.227375,0 0.363456,-0.14641 0.136081,-0.14642 0.136081,-0.39102 0,-0.2446 -0.136081,-0.39102 -0.137803,-0.14814 -0.363456,-0.14814 -0.222209,0 -0.360012,0.14814 -0.137804,0.14814 -0.137804,0.38241 z" />
    </g>
    <g
       style="font-size:3.52777px;line-height:1.25;font-family:Futura;-inkscape-font-specification:Futura;display:inline;opacity:1;stroke-width:0.264583"
       id="text1192-55"
       aria-label="In">
      <path
         inkscape:connector-curvature="0"
         id="path1477"
         style="stroke-width:0.264583"
         d="m 8.4559886,119.05561 v 2.65961 H 8.0546359 v -2.65961 z" />
      <path
         inkscape:connector-curvature="0"
         id="path1479"
         style="stroke-width:0.264583"
         d="M 9.0209831,120.03746 H 9.410278 v 0.15503 q 0.2032602,-0.20154 0.4581967,-0.20154 0.2928323,0 0.4564743,0.18431 0.141248,0.15675 0.141248,0.5116 v 1.02836 h -0.389294 v -0.93707 q 0,-0.24804 -0.0689,-0.34278 -0.067179,-0.0965 -0.2446015,-0.0965 -0.1929249,0 -0.2738844,0.12747 -0.079237,0.12575 -0.079237,0.43925 v 0.8096 h -0.389297 z" />
    </g>
    <g
       style="font-size:3.52777px;line-height:1.25;font-family:Futura;-inkscape-font-specification:Futura;display:inline;opacity:1;stroke-width:0.264583"
       id="text1196-98"
       aria-label="Ratio">
      <path
         inkscape:connector-curvature="0"
         id="path1482"
         style="stroke-width:0.264583"
         d="m 26.172396,120.55767 0.823376,1.13343 h -0.490925 l -0.759642,-1.08865 h -0.07235 v 1.08865 h -0.401352 v -2.65961 h 0.470254 q 0.527099,0 0.761365,0.1981 0.258381,0.22048 0.258381,0.58222 0,0.28249 -0.161919,0.48575 -0.161919,0.20326 -0.427191,0.26011 z m -0.499538,-0.30489 h 0.127469 q 0.570162,0 0.570162,-0.43581 0,-0.40824 -0.554659,-0.40824 h -0.142972 z" />
      <path
         inkscape:connector-curvature="0"
         id="path1484"
         style="stroke-width:0.264583"
         d="m 28.497831,120.01334 h 0.389295 v 1.67776 h -0.389295 v -0.1757 q -0.239434,0.22393 -0.515041,0.22393 -0.347954,0 -0.57533,-0.25149 -0.225653,-0.25666 -0.225653,-0.64079 0,-0.37723 0.225653,-0.62872 0.225654,-0.2515 0.564995,-0.2515 0.292832,0 0.525376,0.24116 z m -0.919839,0.83371 q 0,0.24116 0.129191,0.39274 0.132636,0.15331 0.334173,0.15331 0.215318,0 0.347954,-0.14814 0.132636,-0.1533 0.132636,-0.38929 0,-0.23599 -0.132636,-0.3893 -0.132636,-0.14986 -0.344508,-0.14986 -0.199816,0 -0.334174,0.15158 -0.132636,0.15331 -0.132636,0.37896 z" />
      <path
         inkscape:connector-curvature="0"
         id="path1486"
         style="stroke-width:0.264583"
         d="m 29.779403,120.37508 v 1.31602 h -0.387572 v -1.31602 h -0.165364 v -0.36174 h 0.165364 v -0.61494 h 0.387572 v 0.61494 h 0.301446 v 0.36174 z" />
      <path
         inkscape:connector-curvature="0"
         id="path1488"
         style="stroke-width:0.264583"
         d="m 30.73197,120.01334 v 1.67776 h -0.387572 v -1.67776 z m -0.446139,-0.69763 q 0,-0.10163 0.07407,-0.1757 0.07407,-0.0741 0.177422,-0.0741 0.105076,0 0.179145,0.0741 0.07407,0.0724 0.07407,0.17743 0,0.10507 -0.07407,0.17914 -0.07235,0.0741 -0.177422,0.0741 -0.105075,0 -0.179145,-0.0741 -0.07407,-0.0741 -0.07407,-0.18087 z" />
      <path
         inkscape:connector-curvature="0"
         id="path1490"
         style="stroke-width:0.264583"
         d="m 31.147103,120.84016 q 0,-0.36345 0.260104,-0.61839 0.260105,-0.25494 0.633897,-0.25494 0.375514,0 0.637341,0.25666 0.258381,0.25666 0.258381,0.63045 0,0.37724 -0.260104,0.63218 -0.261826,0.25321 -0.642509,0.25321 -0.377237,0 -0.632173,-0.25838 -0.254937,-0.25494 -0.254937,-0.64079 z m 0.396185,0.007 q 0,0.2515 0.134359,0.39791 0.137803,0.14814 0.363457,0.14814 0.227375,0 0.363456,-0.14642 0.136081,-0.14641 0.136081,-0.39101 0,-0.2446 -0.136081,-0.39102 -0.137803,-0.14814 -0.363456,-0.14814 -0.222209,0 -0.360012,0.14814 -0.137804,0.14814 -0.137804,0.3824 z" />
    </g>
  </g>
  <g
     style="display:inline"
     inkscape:label="components"
     id="layer2"
     inkscape:groupmode="layer">
    <circle
       inkscape:label="in1"
       r="2.6458333"
       cy="12.170834"
       cx="9.260416"
       id="path15"
       style="display:inline;fill:#f2f2f2;stroke:#00ff00;stroke-width:0.264583;stroke-opacity:1" />
    <circle
       inkscape:label="in2"
       r="2.6458333"
       cy="26.722906"
       cx="9.2604151"
       id="path17"
       style="display:inline;fill:#f2f2f2;stroke:#00ff00;stroke-width:0.264583;stroke-opacity:1" />
    <circle
       inkscape:label="in3"
       r="2.6458333"
       cy="41.274986"
       cx="9.2604151"
       id="path34"
       style="display:inline;fill:#f2f2f2;stroke:#00ff00;stroke-width:0.264583;stroke-opacity:1" />
    <circle
       style="display:inline;fill:#f2f2f2;stroke:#00ff00;stroke-width:0.264583;stroke-opacity:1"
       id="path15-0"
       cx="9.2604151"
       cy="55.934864"
       r="2.6458333"
       inkscape:label="in4" />
    <circle
       style="display:inline;fill:#f2f2f2;stroke:#00ff00;stroke-width:0.264583;stroke-opacity:1"
       id="path17-5"
       cx="9.2604151"
       cy="70.379158"
       r="2.6458333"
       inkscape:label="in5" />
    <circle
       style="display:inline;fill:#f2f2f2;stroke:#00ff00;stroke-width:0.264583;stroke-opacity:1"
       id="path34-6"
       cx="9.2604141"
       cy="84.931236"
       r="2.6458333"
       inkscape:label="in6" />
    <circle
       inkscape:label="in7"
       r="2.6458333"
       cy="99.483322"
       cx="9.2604141"
       id="path17-5-3"
       style="display:inline;fill:#f2f2f2;stroke:#00ff00;stroke-width:0.264583;stroke-opacity:1" />
    <circle
       inkscape:label="in8"
       r="2.6458333"
       cy="114.03542"
       cx="9.2604141"
       id="path34-6-8"
       style="display:inline;fill:#f2f2f2;stroke:#00ff00;stroke-width:0.264583;stroke-opacity:1" />
    <circle
       style="display:inline;fill:#f2f2f2;stroke:#ff0000;stroke-width:0.264583;stroke-opacity:1"
       id="path15-4"
       cx="22.489584"
       cy="12.170835"
       r="2.6458333"
       inkscape:label="ratio_level1" />
    <circle
       style="display:inline;fill:#f2f2f2;stroke:#ff0000;stroke-width:0.264583;stroke-opacity:1"
       id="path17-0"
       cx="22.489584"
       cy="26.722906"
       r="2.6458333"
       inkscape:label="ratio_level2" />
    <circle
       style="display:inline;fill:#f2f2f2;stroke:#ff0000;stroke-width:0.264583;stroke-opacity:1"
       id="path34-0"
       cx="22.489584"
       cy="41.27499"
       r="2.6458333"
       inkscape:label="ratio_level3" />
    <circle
       inkscape:label="ratio_level4"
       r="2.6458333"
       cy="55.934872"
       cx="22.489584"
       id="path15-0-9"
       style="display:inline;fill:#f2f2f2;stroke:#ff0000;stroke-width:0.264583;stroke-opacity:1" />
    <circle
       inkscape:label="ratio_level5"
       r="2.6458333"
       cy="70.379158"
       cx="22.489584"
       id="path17-5-37"
       style="display:inline;fill:#f2f2f2;stroke:#ff0000;stroke-width:0.264583;stroke-opacity:1" />
    <circle
       inkscape:label="ratio_level6"
       r="2.6458333"
       cy="84.931236"
       cx="22.489584"
       id="path34-6-5"
       style="display:inline;fill:#f2f2f2;stroke:#ff0000;stroke-width:0.264583;stroke-opacity:1" />
    <circle
       style="display:inline;fill:#f2f2f2;stroke:#ff0000;stroke-width:0.264583;stroke-opacity:1"
       id="path17-5-3-7"
       cx="22.489584"
       cy="99.483322"
       r="2.6458333"
       inkscape:label="ratio_level7" />
    <circle
       style="display:inline;fill:#f2f2f2;stroke:#ff0000;stroke-width:0.264583;stroke-opacity:1"
       id="path34-6-8-2"
       cx="22.489584"
       cy="114.03542"
       r="2.6458333"
       inkscape:label="ratio_level8" />
    <circle
       inkscape:label="ratio1"
       r="2.6458333"
       cy="12.170835"
       cx="35.71875"
       id="path15-4-6"
       style="display:inline;fill:#f2f2f2;stroke:#00ff00;stroke-width:0.264583;stroke-opacity:1" />
    <circle
       inkscape:label="ratio2"
       r="2.6458333"
       cy="26.722906"
       cx="35.71875"
       id="path17-0-5"
       style="display:inline;fill:#f2f2f2;stroke:#00ff00;stroke-width:0.264583;stroke-opacity:1" />
    <circle
       inkscape:label="ratio3"
       r="2.6458333"
       cy="41.27499"
       cx="35.71875"
       id="path34-0-3"
       style="display:inline;fill:#f2f2f2;stroke:#00ff00;stroke-width:0.264583;stroke-opacity:1" />
    <circle
       style="display:inline;fill:#f2f2f2;stroke:#00ff00;stroke-width:0.264583;stroke-opacity:1"
       id="path15-0-9-0"
       cx="35.71875"
       cy="55.934872"
       r="2.6458333"
       inkscape:label="ratio4" />
    <circle
       style="display:inline;fill:#f2f2f2;stroke:#00ff00;stroke-width:0.264583;stroke-opacity:1"
       id="path17-5-37-4"
       cx="35.71875"
       cy="70.379173"
       r="2.6458333"
       inkscape:label="ratio5" />
    <circle
       style="display:inline;fill:#f2f2f2;stroke:#00ff00;stroke-width:0.264583;stroke-opacity:1"
       id="path34-6-5-8"
       cx="35.71875"
       cy="84.931236"
       r="2.6458333"
       inkscape:label="ratio6" />
    <circle
       inkscape:label="ratio7"
       r="2.6458333"
       cy="99.483322"
       cx="35.71875"
       id="path17-5-3-7-5"
       style="display:inline;fill:#f2f2f2;stroke:#00ff00;stroke-width:0.264583;stroke-opacity:1" />
    <circle
       inkscape:label="ratio8"
       r="2.6458333"
       cy="114.03542"
       cx="35.71875"
       id="path34-6-8-2-5"
       style="display:inline;fill:#f2f2f2;stroke:#00ff00;stroke-width:0.264583;stroke-opacity:1" />
    <circle
       style="display:inline;fill:#f2f2f2;stroke:#0000ff;stroke-width:0.264583;stroke-opacity:1"
       id="path15-4-6-5"
       cx="48.947918"
       cy="12.170826"
       r="2.6458333"
       inkscape:label="out1" />
    <circle
       style="display:inline;fill:#f2f2f2;stroke:#0000ff;stroke-width:0.264583;stroke-opacity:1"
       id="path17-0-5-4"
       cx="48.947918"
       cy="26.722897"
       r="2.6458333"
       inkscape:label="out2" />
    <circle
       style="display:inline;fill:#f2f2f2;stroke:#0000ff;stroke-width:0.264583;stroke-opacity:1"
       id="path34-0-3-2"
       cx="48.947918"
       cy="41.274986"
       r="2.6458333"
       inkscape:label="out3" />
    <circle
       inkscape:label="out4"
       r="2.6458333"
       cy="55.934864"
       cx="48.947918"
       id="path15-0-9-0-1"
       style="display:inline;fill:#f2f2f2;stroke:#0000ff;stroke-width:0.264583;stroke-opacity:1" />
    <circle
       inkscape:label="out5"
       r="2.6458333"
       cy="70.379158"
       cx="48.947918"
       id="path17-5-37-4-9"
       style="display:inline;fill:#f2f2f2;stroke:#0000ff;stroke-width:0.264583;stroke-opacity:1" />
    <circle
       inkscape:label="out6"
       r="2.6458333"
       cy="84.931221"
       cx="48.947918"
       id="path34-6-5-8-2"
       style="display:inline;fill:#f2f2f2;stroke:#0000ff;stroke-width:0.264583;stroke-opacity:1" />
    <circle
       style="display:inline;fill:#f2f2f2;stroke:#0000ff;stroke-width:0.264583;stroke-opacity:1"
       id="path17-5-3-7-5-4"
       cx="48.947918"
       cy="99.483322"
       r="2.6458333"
       inkscape:label="out7" />
    <circle
       style="display:inline;fill:#f2f2f2;stroke:#0000ff;stroke-width:0.264583;stroke-opacity:1"
       id="path34-6-8-2-5-5"
       cx="48.947918"
       cy="114.03542"
       r="2.6458333"
       inkscape:label="out8" />
  </g>
  <text
     xml:space="preserve"
     style="font-size:3.52777px;line-height:1.25;font-family:Futura;-inkscape-font-specification:Futura;stroke-width:0.264583"
     x="23.8125"
     y="2.6458333"
     id="text1049"><tspan
       sodipodi:role="line"
       id="tspan1047"
       x="23.8125"
       y="2.6458333"
       style="stroke-width:0.264583" /></text>
</svg>
