<?xml version="1.0" encoding="UTF-8" standalone="no"?>
<svg
   xmlns:dc="http://purl.org/dc/elements/1.1/"
   xmlns:cc="http://creativecommons.org/ns#"
   xmlns:rdf="http://www.w3.org/1999/02/22-rdf-syntax-ns#"
   xmlns:svg="http://www.w3.org/2000/svg"
   xmlns="http://www.w3.org/2000/svg"
   xmlns:sodipodi="http://sodipodi.sourceforge.net/DTD/sodipodi-0.dtd"
   xmlns:inkscape="http://www.inkscape.org/namespaces/inkscape"
   width="30.48mm"
   height="128.5mm"
   viewBox="0 0 30.48 128.5"
   version="1.1"
   id="svg1138"
   inkscape:version="1.0beta1 (32d4812, 2019-09-19)"
   sodipodi:docname="CtV.svg">
  <defs
     id="defs1132" />
  <sodipodi:namedview
     id="base"
     pagecolor="#ffffff"
     bordercolor="#666666"
     borderopacity="1.0"
     inkscape:pageopacity="0.0"
     inkscape:pageshadow="2"
     inkscape:zoom="1.7398671"
     inkscape:cx="57.599999"
     inkscape:cy="242.83465"
     inkscape:document-units="mm"
     inkscape:current-layer="layer4"
     inkscape:document-rotation="0"
     showgrid="true"
     inkscape:snap-object-midpoints="true"
     inkscape:window-width="1920"
     inkscape:window-height="1035"
     inkscape:window-x="1440"
     inkscape:window-y="23"
     inkscape:window-maximized="1">
    <inkscape:grid
       type="xygrid"
       id="grid1738" />
  </sodipodi:namedview>
  <metadata
     id="metadata1135">
    <rdf:RDF>
      <cc:Work
         rdf:about="">
        <dc:format>image/svg+xml</dc:format>
        <dc:type
           rdf:resource="http://purl.org/dc/dcmitype/StillImage" />
        <dc:title />
      </cc:Work>
    </rdf:RDF>
  </metadata>
  <g
     inkscape:label="Background"
     inkscape:groupmode="layer"
     id="layer1"
     sodipodi:insensitive="true">
    <rect
       style="display:inline;fill:#f8f8f8;fill-opacity:1;stroke:none;stroke-width:0.122863"
       id="rect10"
       width="30.48"
       height="128.5"
       x="0"
       y="0" />
  </g>
  <g
     inkscape:groupmode="layer"
     id="layer3"
     inkscape:label="boxes"
     sodipodi:insensitive="true">
    <rect
       y="6.614593"
       x="17.197918"
       height="10.583333"
       width="10.583333"
       id="rect1740-1"
       style="display:inline;fill:#000000;fill-opacity:0.5;stroke:none;stroke-width:0.53;stroke-miterlimit:4;stroke-dasharray:0.53, 1.06;stroke-dashoffset:0;stroke-opacity:1" />
    <rect
       y="21.166666"
       x="17.197918"
       height="10.583333"
       width="10.583333"
       id="rect1740-1-5"
       style="display:inline;fill:#000000;fill-opacity:0.5;stroke:none;stroke-width:0.53;stroke-miterlimit:4;stroke-dasharray:0.53, 1.06;stroke-dashoffset:0;stroke-opacity:1" />
    <rect
       y="35.718742"
       x="17.197918"
       height="10.583333"
       width="10.583333"
       id="rect1740-1-9"
       style="display:inline;fill:#000000;fill-opacity:0.5;stroke:none;stroke-width:0.53;stroke-miterlimit:4;stroke-dasharray:0.53, 1.06;stroke-dashoffset:0;stroke-opacity:1" />
    <rect
       y="50.378624"
       x="17.197918"
       height="10.583333"
       width="10.583333"
       id="rect1740-1-7"
       style="display:inline;fill:#000000;fill-opacity:0.5;stroke:none;stroke-width:0.53;stroke-miterlimit:4;stroke-dasharray:0.53, 1.06;stroke-dashoffset:0;stroke-opacity:1" />
    <rect
       y="64.822922"
       x="17.197918"
       height="10.583333"
       width="10.583333"
       id="rect1740-1-53"
       style="display:inline;fill:#000000;fill-opacity:0.5;stroke:none;stroke-width:0.53;stroke-miterlimit:4;stroke-dasharray:0.53, 1.06;stroke-dashoffset:0;stroke-opacity:1" />
    <rect
       y="79.375"
       x="17.197918"
       height="10.583333"
       width="10.583333"
       id="rect1740-1-90"
       style="display:inline;fill:#000000;fill-opacity:0.5;stroke:none;stroke-width:0.53;stroke-miterlimit:4;stroke-dasharray:0.53, 1.06;stroke-dashoffset:0;stroke-opacity:1" />
    <rect
       y="93.927071"
       x="17.197918"
       height="10.583333"
       width="10.583333"
       id="rect1740-1-55"
       style="display:inline;fill:#000000;fill-opacity:0.5;stroke:none;stroke-width:0.53;stroke-miterlimit:4;stroke-dasharray:0.53, 1.06;stroke-dashoffset:0;stroke-opacity:1" />
    <rect
       y="108.47915"
       x="17.197918"
       height="10.583333"
       width="10.583333"
       id="rect1740-1-6"
       style="display:inline;fill:#000000;fill-opacity:0.5;stroke:none;stroke-width:0.53;stroke-miterlimit:4;stroke-dasharray:0.53, 1.06;stroke-dashoffset:0;stroke-opacity:1" />
  </g>
  <g
     inkscape:groupmode="layer"
     id="layer5"
     inkscape:label="lines"
     sodipodi:insensitive="true">
    <path
       style="display:inline;opacity:1;fill:none;stroke:#000000;stroke-width:0.53;stroke-linecap:butt;stroke-linejoin:miter;stroke-miterlimit:4;stroke-dasharray:none;stroke-opacity:1"
       d="m 10.583333,11.90625 h 6.614583"
       id="path2743"
       inkscape:connector-curvature="0" />
    <path
       inkscape:connector-curvature="0"
       id="path2743-1"
       d="m 10.583333,26.458333 h 6.614583"
       style="display:inline;opacity:1;fill:none;stroke:#000000;stroke-width:0.53;stroke-linecap:butt;stroke-linejoin:miter;stroke-miterlimit:4;stroke-dasharray:none;stroke-opacity:1" />
    <path
       inkscape:connector-curvature="0"
       id="path2743-10"
       d="m 10.583333,41.010417 h 6.614583"
       style="display:inline;opacity:1;fill:none;stroke:#000000;stroke-width:0.53;stroke-linecap:butt;stroke-linejoin:miter;stroke-miterlimit:4;stroke-dasharray:none;stroke-opacity:1" />
    <path
       inkscape:connector-curvature="0"
       id="path2743-18"
       d="m 10.583333,55.5625 h 6.614583"
       style="display:inline;opacity:1;fill:none;stroke:#000000;stroke-width:0.53;stroke-linecap:butt;stroke-linejoin:miter;stroke-miterlimit:4;stroke-dasharray:none;stroke-opacity:1" />
    <path
       inkscape:connector-curvature="0"
       id="path2743-7"
       d="m 10.583333,70.114583 h 6.614583"
       style="display:inline;opacity:1;fill:none;stroke:#000000;stroke-width:0.53;stroke-linecap:butt;stroke-linejoin:miter;stroke-miterlimit:4;stroke-dasharray:none;stroke-opacity:1" />
    <path
       inkscape:connector-curvature="0"
       id="path2743-6"
       d="m 10.583333,84.666667 h 6.614583"
       style="display:inline;opacity:1;fill:none;stroke:#000000;stroke-width:0.53;stroke-linecap:butt;stroke-linejoin:miter;stroke-miterlimit:4;stroke-dasharray:none;stroke-opacity:1" />
    <path
       inkscape:connector-curvature="0"
       id="path2743-0"
       d="m 10.583333,99.21875 h 6.614583"
       style="display:inline;opacity:1;fill:none;stroke:#000000;stroke-width:0.53;stroke-linecap:butt;stroke-linejoin:miter;stroke-miterlimit:4;stroke-dasharray:none;stroke-opacity:1" />
    <path
       inkscape:connector-curvature="0"
       id="path2743-09"
       d="m 10.583333,113.77083 h 6.614583"
       style="display:inline;opacity:1;fill:none;stroke:#000000;stroke-width:0.53;stroke-linecap:butt;stroke-linejoin:miter;stroke-miterlimit:4;stroke-dasharray:none;stroke-opacity:1" />
  </g>
  <g
     sodipodi:insensitive="true"
     inkscape:groupmode="layer"
     id="layer4"
     inkscape:label="text"
     style="display:inline;opacity:1">
    <g
       aria-label="STALYS"
       id="text1717-2"
       style="font-size:6.35px;line-height:1.25;font-family:Futura;-inkscape-font-specification:Futura;display:inline;opacity:1;stroke-width:0.264583"
       transform="translate(-86.935688,-0.06042158)">
      <path
         d="m 94.892412,122.92583 -0.586011,0.34727 q -0.164331,-0.28526 -0.313159,-0.37207 -0.155029,-0.0992 -0.399976,-0.0992 -0.300757,0 -0.499194,0.17053 -0.198438,0.16743 -0.198438,0.42168 0,0.35036 0.520899,0.56431 l 0.47749,0.19533 q 0.58291,0.23565 0.852661,0.57671 0.269751,0.33796 0.269751,0.83096 0,0.66042 -0.440283,1.0914 -0.443384,0.43409 -1.100708,0.43409 -0.623218,0 -1.029395,-0.36897 -0.399975,-0.36897 -0.499194,-1.0387 l 0.731738,-0.16123 q 0.04961,0.42168 0.173633,0.58291 0.223242,0.31006 0.651123,0.31006 0.337964,0 0.561206,-0.22634 0.223243,-0.22635 0.223243,-0.57361 0,-0.13953 -0.04031,-0.25425 -0.03721,-0.11782 -0.120923,-0.21394 -0.08061,-0.0992 -0.21084,-0.18294 -0.130224,-0.0868 -0.310058,-0.16433 l -0.461988,-0.19223 q -0.982885,-0.41548 -0.982885,-1.21543 0,-0.5395 0.412378,-0.90227 0.412377,-0.36587 1.026293,-0.36587 0.827857,0 1.292945,0.80615 z"
         style="stroke-width:0.264583"
         id="path2113"
         inkscape:connector-curvature="0" />
      <path
         d="M 97.307768,122.89172 V 127 h -0.722436 v -4.10828 h -1.100708 v -0.67902 h 2.920751 v 0.67902 z"
         style="stroke-width:0.264583"
         id="path2115"
         inkscape:connector-curvature="0" />
      <path
         d="M 101.60208,125.83728 H 99.552592 L 99.019291,127 h -0.778247 l 2.368846,-5.08806 2.28513,5.08806 h -0.79065 z m -0.29456,-0.67903 -0.71003,-1.62781 -0.744141,1.62781 z"
         style="stroke-width:0.264583"
         id="path2117"
         inkscape:connector-curvature="0" />
      <path
         d="m 104.21897,122.2127 v 4.10827 h 1.40767 V 127 h -2.1301 v -4.7873 z"
         style="stroke-width:0.264583"
         id="path2119"
         inkscape:connector-curvature="0" />
      <path
         d="m 106.87618,124.93191 -1.5627,-2.71921 h 0.83096 l 1.0945,1.91306 1.09761,-1.91306 h 0.83096 l -1.5689,2.71921 V 127 h -0.72243 z"
         style="stroke-width:0.264583"
         id="path2121"
         inkscape:connector-curvature="0" />
      <path
         d="m 112.2805,122.92583 -0.58601,0.34727 q -0.16433,-0.28526 -0.31316,-0.37207 -0.15503,-0.0992 -0.39998,-0.0992 -0.30075,0 -0.49919,0.17053 -0.19844,0.16743 -0.19844,0.42168 0,0.35036 0.5209,0.56431 l 0.47749,0.19533 q 0.58291,0.23565 0.85266,0.57671 0.26975,0.33796 0.26975,0.83096 0,0.66042 -0.44028,1.0914 -0.44339,0.43409 -1.10071,0.43409 -0.62322,0 -1.02939,-0.36897 -0.39998,-0.36897 -0.4992,-1.0387 l 0.73174,-0.16123 q 0.0496,0.42168 0.17363,0.58291 0.22324,0.31006 0.65113,0.31006 0.33796,0 0.5612,-0.22634 0.22324,-0.22635 0.22324,-0.57361 0,-0.13953 -0.0403,-0.25425 -0.0372,-0.11782 -0.12093,-0.21394 -0.0806,-0.0992 -0.21084,-0.18294 -0.13022,-0.0868 -0.31006,-0.16433 l -0.46198,-0.19223 q -0.98289,-0.41548 -0.98289,-1.21543 0,-0.5395 0.41238,-0.90227 0.41238,-0.36587 1.02629,-0.36587 0.82786,0 1.29295,0.80615 z"
         style="stroke-width:0.264583"
         id="path2123"
         inkscape:connector-curvature="0" />
    </g>
    <text
       xml:space="preserve"
       style="font-size:6.35px;line-height:1.25;font-family:Futura;-inkscape-font-specification:Futura;stroke-width:0.264583"
       x="7.9375"
       y="19.84375"
       id="text1987"><tspan
         sodipodi:role="line"
         id="tspan1985"
         x="7.9375"
         y="19.84375"
         style="stroke-width:0.264583" /></text>
    <g
       style="font-size:6.35px;line-height:1.25;font-family:Futura;-inkscape-font-specification:Futura;stroke-width:0.264583"
       id="text1024"
       aria-label="8 C2V/O">
      <path
         inkscape:connector-curvature="0"
         id="path1026"
         style="stroke-width:0.264583"
         d="M 2.5322483,2.8316831 Q 2.0051487,2.4596128 2.0051487,1.8177915 q 0,-0.5829101 0.3999756,-0.97358396 0.4030762,-0.39067382 1.0014892,-0.39067382 0.5953125,0 0.9921875,0.39067382 0.396875,0.38757326 0.396875,0.97668456 0,0.6170166 -0.523999,1.0076904 0.2883545,0.1550293 0.4526855,0.4526856 0.1674317,0.2976562 0.1674317,0.6697265 0,0.6356201 -0.4154785,1.0417969 -0.4154785,0.4061767 -1.063501,0.4061767 -0.6635254,0 -1.0945068,-0.4092773 -0.434082,-0.4092774 -0.434082,-1.0293945 0,-0.8061524 0.6480224,-1.1286133 z M 2.684177,1.8146909 q 0,0.306958 0.2077393,0.5146973 0.2108398,0.2108398 0.5084961,0.2108398 0.2945556,0 0.5053955,-0.2108398 0.2108398,-0.2108399 0.2108398,-0.5053955 0,-0.2945557 -0.2108398,-0.5053955 Q 3.694968,1.1077573 3.4004124,1.1077573 q -0.2945557,0 -0.5053955,0.2108399 Q 2.684177,1.529437 2.684177,1.8146909 Z M 2.59426,3.9354917 q 0,0.3317627 0.2294434,0.5705078 0.2325439,0.2356445 0.5643066,0.2356445 0.3286621,0 0.5612061,-0.2325439 Q 4.18176,4.2734555 4.18176,3.9447934 4.18176,3.6130307 3.9492161,3.3804868 3.7166721,3.1479429 3.38801,3.1479429 q -0.3255615,0 -0.561206,0.2325439 Q 2.59426,3.6130307 2.59426,3.9354917 Z" />
      <path
         inkscape:connector-curvature="0"
         id="path1028"
         style="stroke-width:0.264583"
         d="M 11.418527,0.79149758 V 1.6472593 q -0.626318,-0.523999 -1.296045,-0.523999 -0.737939,0 -1.2433345,0.5302002 -0.5084961,0.5270996 -0.5084961,1.2898437 0,0.7534424 0.5084961,1.2712402 0.5084961,0.5177979 1.2464355,0.5177979 0.381372,0 0.648023,-0.1240235 0.148828,-0.062012 0.306958,-0.1674316 0.16123,-0.1054199 0.337963,-0.2542481 V 5.0579038 Q 10.79841,5.40827 10.116281,5.40827 9.0899874,5.40827 8.3644503,4.6920346 7.6420138,3.9695981 7.6420138,2.9495054 q 0,-0.9146729 0.6046142,-1.6309082 0.7441406,-0.87746582 1.925464,-0.87746582 0.644922,0 1.246435,0.3503662 z" />
      <path
         inkscape:connector-curvature="0"
         id="path1030"
         style="stroke-width:0.264583"
         d="m 13.350192,4.6424253 h 1.782837 v 0.6790283 h -3.215307 l 1.661914,-2.0122803 q 0.244946,-0.3007568 0.409277,-0.5208984 0.167432,-0.2201416 0.254248,-0.3689697 0.176733,-0.2914551 0.176733,-0.523999 0,-0.3348633 -0.235644,-0.5612061 -0.235645,-0.2263428 -0.58291,-0.2263428 -0.725537,0 -0.830957,0.8588623 h -0.719336 q 0.173633,-1.51308588 1.528589,-1.51308588 0.654223,0 1.097607,0.41547851 0.446484,0.41547847 0.446484,1.02939447 0,0.3906739 -0.207739,0.7658448 -0.10542,0.1953369 -0.310058,0.4650878 -0.201539,0.2666504 -0.511597,0.6325196 z" />
      <path
         inkscape:connector-curvature="0"
         id="path1032"
         style="stroke-width:0.264583"
         d="m 16.494187,0.53414896 1.32395,3.31762694 1.342553,-3.31762694 h 0.79065 L 17.802634,5.6811215 15.703537,0.53414896 Z" />
      <path
         inkscape:connector-curvature="0"
         id="path1034"
         style="stroke-width:0.264583"
         d="M 22.661252,0.03185404 23.237961,0.28610208 20.497043,6.6299008 19.926535,6.3725522 Z" />
      <path
         inkscape:connector-curvature="0"
         id="path1036"
         style="stroke-width:0.264583"
         d="m 23.591428,2.9060972 q 0,-1.010791 0.74104,-1.7363281 0.737939,-0.72553714 1.773535,-0.72553714 1.023194,0 1.754932,0.73173824 0.734839,0.7317383 0.734839,1.7580322 0,1.0324951 -0.73794,1.7518311 -0.74104,0.7224365 -1.789038,0.7224365 -0.927075,0 -1.665014,-0.6418213 -0.812354,-0.7100342 -0.812354,-1.8603515 z m 0.728638,0.0093 q 0,0.79375 0.5333,1.3053467 0.530201,0.5115967 1.224732,0.5115967 0.753442,0 1.27124,-0.5208985 0.517798,-0.5270996 0.517798,-1.2836425 0,-0.7658448 -0.511597,-1.2836426 -0.508496,-0.5208984 -1.258838,-0.5208984 -0.747241,0 -1.261938,0.5208984 -0.514697,0.5146973 -0.514697,1.2712402 z" />
    </g>
  </g>
  <g
     inkscape:groupmode="layer"
     id="layer2"
     inkscape:label="components"
     style="display:inline"
     sodipodi:insensitive="true">
    <circle
       style="display:inline;fill:#f2f2f2;stroke:#00ff00;stroke-width:0.264583;stroke-opacity:1"
       id="path15"
       cx="7.937501"
       cy="11.79847"
       r="2.6458333"
       inkscape:label="in1" />
    <circle
       style="display:inline;fill:#f2f2f2;stroke:#00ff00;stroke-width:0.264583;stroke-opacity:1"
       id="path17"
       cx="7.9375"
       cy="26.350542"
       r="2.6458333"
       inkscape:label="in2" />
    <circle
       style="display:inline;fill:#f2f2f2;stroke:#00ff00;stroke-width:0.264583;stroke-opacity:1"
       id="path34"
       cx="7.9375"
       cy="40.902622"
       r="2.6458333"
       inkscape:label="in3" />
    <circle
       inkscape:label="in4"
       r="2.6458333"
       cy="55.5625"
       cx="7.9375"
       id="path15-0"
       style="display:inline;fill:#f2f2f2;stroke:#00ff00;stroke-width:0.264583;stroke-opacity:1" />
    <circle
       inkscape:label="in5"
       r="2.6458333"
       cy="70.00679"
       cx="7.9375"
       id="path17-5"
       style="display:inline;fill:#f2f2f2;stroke:#00ff00;stroke-width:0.264583;stroke-opacity:1" />
    <circle
       inkscape:label="in6"
       r="2.6458333"
       cy="84.558868"
       cx="7.937499"
       id="path34-6"
       style="display:inline;fill:#f2f2f2;stroke:#00ff00;stroke-width:0.264583;stroke-opacity:1" />
    <circle
       style="display:inline;fill:#f2f2f2;stroke:#00ff00;stroke-width:0.264583;stroke-opacity:1"
       id="path17-5-3"
       cx="7.937499"
       cy="99.110954"
       r="2.6458333"
       inkscape:label="in7" />
    <circle
       style="display:inline;fill:#f2f2f2;stroke:#00ff00;stroke-width:0.264583;stroke-opacity:1"
       id="path34-6-8"
       cx="7.937499"
       cy="113.66306"
       r="2.6458333"
       inkscape:label="in8" />
    <circle
       inkscape:label="out1"
       r="2.6458333"
       cy="11.90626"
       cx="22.489761"
       id="path15-4-6-5"
       style="display:inline;fill:#f2f2f2;stroke:#0000ff;stroke-width:0.264583;stroke-opacity:1" />
    <circle
       inkscape:label="out2"
       r="2.6458333"
       cy="26.45833"
       cx="22.489761"
       id="path17-0-5-4"
       style="display:inline;fill:#f2f2f2;stroke:#0000ff;stroke-width:0.264583;stroke-opacity:1" />
    <circle
       inkscape:label="out3"
       r="2.6458333"
       cy="41.010422"
       cx="22.489761"
       id="path34-0-3-2"
       style="display:inline;fill:#f2f2f2;stroke:#0000ff;stroke-width:0.264583;stroke-opacity:1" />
    <circle
       style="display:inline;fill:#f2f2f2;stroke:#0000ff;stroke-width:0.264583;stroke-opacity:1"
       id="path15-0-9-0-1"
       cx="22.489761"
       cy="55.6703"
       r="2.6458333"
       inkscape:label="out4" />
    <circle
       style="display:inline;fill:#f2f2f2;stroke:#0000ff;stroke-width:0.264583;stroke-opacity:1"
       id="path17-5-37-4-9"
       cx="22.489761"
       cy="70.114594"
       r="2.6458333"
       inkscape:label="out5" />
    <circle
       style="display:inline;fill:#f2f2f2;stroke:#0000ff;stroke-width:0.264583;stroke-opacity:1"
       id="path34-6-5-8-2"
       cx="22.489761"
       cy="84.666656"
       r="2.6458333"
       inkscape:label="out6" />
    <circle
       inkscape:label="out7"
       r="2.6458333"
       cy="99.218758"
       cx="22.489761"
       id="path17-5-3-7-5-4"
       style="display:inline;fill:#f2f2f2;stroke:#0000ff;stroke-width:0.264583;stroke-opacity:1" />
    <circle
       inkscape:label="out8"
       r="2.6458333"
       cy="113.77086"
       cx="22.489761"
       id="path34-6-8-2-5-5"
       style="display:inline;fill:#f2f2f2;stroke:#0000ff;stroke-width:0.264583;stroke-opacity:1" />
  </g>
</svg>
