<?xml version="1.0" encoding="UTF-8" standalone="no"?>
<svg
   xmlns:dc="http://purl.org/dc/elements/1.1/"
   xmlns:cc="http://creativecommons.org/ns#"
   xmlns:rdf="http://www.w3.org/1999/02/22-rdf-syntax-ns#"
   xmlns:svg="http://www.w3.org/2000/svg"
   xmlns="http://www.w3.org/2000/svg"
   xmlns:sodipodi="http://sodipodi.sourceforge.net/DTD/sodipodi-0.dtd"
   xmlns:inkscape="http://www.inkscape.org/namespaces/inkscape"
   sodipodi:docname="DAC.svg"
   inkscape:version="1.0beta1 (32d4812, 2019-09-19)"
   id="svg1138"
   version="1.1"
   viewBox="0 0 30.48 128.5"
   height="128.5mm"
   width="30.48mm">
  <defs
     id="defs1132" />
  <sodipodi:namedview
     inkscape:window-maximized="1"
     inkscape:window-y="23"
     inkscape:window-x="1440"
     inkscape:window-height="1035"
     inkscape:window-width="1920"
     inkscape:snap-object-midpoints="true"
     showgrid="true"
     inkscape:document-rotation="0"
     inkscape:current-layer="layer2"
     inkscape:document-units="mm"
     inkscape:cy="242.83465"
     inkscape:cx="57.599999"
     inkscape:zoom="1.7028048"
     inkscape:pageshadow="2"
     inkscape:pageopacity="0.0"
     borderopacity="1.0"
     bordercolor="#666666"
     pagecolor="#ffffff"
     id="base"
     inkscape:snap-bbox="true"
     inkscape:snap-bbox-midpoints="true">
    <inkscape:grid
       id="grid1738"
       type="xygrid" />
  </sodipodi:namedview>
  <metadata
     id="metadata1135">
    <rdf:RDF>
      <cc:Work
         rdf:about="">
        <dc:format>image/svg+xml</dc:format>
        <dc:type
           rdf:resource="http://purl.org/dc/dcmitype/StillImage" />
        <dc:title />
      </cc:Work>
    </rdf:RDF>
  </metadata>
  <g
     sodipodi:insensitive="true"
     id="layer1"
     inkscape:groupmode="layer"
     inkscape:label="Background">
    <rect
       y="0"
       x="0"
       height="128.5"
       width="30.48"
       id="rect10"
       style="display:inline;fill:#f8f8f8;fill-opacity:1;stroke:none;stroke-width:0.122863" />
  </g>
  <g
     sodipodi:insensitive="true"
     inkscape:label="boxes"
     id="layer3"
     inkscape:groupmode="layer">
    <rect
       style="display:inline;fill:#000000;fill-opacity:0.5;stroke:none;stroke-width:0.53;stroke-miterlimit:4;stroke-dasharray:0.53, 1.06;stroke-dashoffset:0;stroke-opacity:1"
       id="rect1740-1"
       width="10.583333"
       height="10.583333"
       x="17.197918"
       y="6.614593" />
  </g>
  <g
     inkscape:label="lines"
     id="layer5"
     inkscape:groupmode="layer"
     sodipodi:insensitive="true" />
  <g
     sodipodi:insensitive="true"
     style="display:inline;opacity:1"
     inkscape:label="text"
     id="layer4"
     inkscape:groupmode="layer">
    <g
       transform="translate(-86.935688,-0.06042158)"
       style="font-size:6.35px;line-height:1.25;font-family:Futura;-inkscape-font-specification:Futura;display:inline;opacity:1;stroke-width:0.264583"
       id="text1717-2"
       aria-label="STALYS">
      <path
         inkscape:connector-curvature="0"
         id="path2113"
         style="stroke-width:0.264583"
         d="m 94.892412,122.92583 -0.586011,0.34727 q -0.164331,-0.28526 -0.313159,-0.37207 -0.155029,-0.0992 -0.399976,-0.0992 -0.300757,0 -0.499194,0.17053 -0.198438,0.16743 -0.198438,0.42168 0,0.35036 0.520899,0.56431 l 0.47749,0.19533 q 0.58291,0.23565 0.852661,0.57671 0.269751,0.33796 0.269751,0.83096 0,0.66042 -0.440283,1.0914 -0.443384,0.43409 -1.100708,0.43409 -0.623218,0 -1.029395,-0.36897 -0.399975,-0.36897 -0.499194,-1.0387 l 0.731738,-0.16123 q 0.04961,0.42168 0.173633,0.58291 0.223242,0.31006 0.651123,0.31006 0.337964,0 0.561206,-0.22634 0.223243,-0.22635 0.223243,-0.57361 0,-0.13953 -0.04031,-0.25425 -0.03721,-0.11782 -0.120923,-0.21394 -0.08061,-0.0992 -0.21084,-0.18294 -0.130224,-0.0868 -0.310058,-0.16433 l -0.461988,-0.19223 q -0.982885,-0.41548 -0.982885,-1.21543 0,-0.5395 0.412378,-0.90227 0.412377,-0.36587 1.026293,-0.36587 0.827857,0 1.292945,0.80615 z" />
      <path
         inkscape:connector-curvature="0"
         id="path2115"
         style="stroke-width:0.264583"
         d="M 97.307768,122.89172 V 127 h -0.722436 v -4.10828 h -1.100708 v -0.67902 h 2.920751 v 0.67902 z" />
      <path
         inkscape:connector-curvature="0"
         id="path2117"
         style="stroke-width:0.264583"
         d="M 101.60208,125.83728 H 99.552592 L 99.019291,127 h -0.778247 l 2.368846,-5.08806 2.28513,5.08806 h -0.79065 z m -0.29456,-0.67903 -0.71003,-1.62781 -0.744141,1.62781 z" />
      <path
         inkscape:connector-curvature="0"
         id="path2119"
         style="stroke-width:0.264583"
         d="m 104.21897,122.2127 v 4.10827 h 1.40767 V 127 h -2.1301 v -4.7873 z" />
      <path
         inkscape:connector-curvature="0"
         id="path2121"
         style="stroke-width:0.264583"
         d="m 106.87618,124.93191 -1.5627,-2.71921 h 0.83096 l 1.0945,1.91306 1.09761,-1.91306 h 0.83096 l -1.5689,2.71921 V 127 h -0.72243 z" />
      <path
         inkscape:connector-curvature="0"
         id="path2123"
         style="stroke-width:0.264583"
         d="m 112.2805,122.92583 -0.58601,0.34727 q -0.16433,-0.28526 -0.31316,-0.37207 -0.15503,-0.0992 -0.39998,-0.0992 -0.30075,0 -0.49919,0.17053 -0.19844,0.16743 -0.19844,0.42168 0,0.35036 0.5209,0.56431 l 0.47749,0.19533 q 0.58291,0.23565 0.85266,0.57671 0.26975,0.33796 0.26975,0.83096 0,0.66042 -0.44028,1.0914 -0.44339,0.43409 -1.10071,0.43409 -0.62322,0 -1.02939,-0.36897 -0.39998,-0.36897 -0.4992,-1.0387 l 0.73174,-0.16123 q 0.0496,0.42168 0.17363,0.58291 0.22324,0.31006 0.65113,0.31006 0.33796,0 0.5612,-0.22634 0.22324,-0.22635 0.22324,-0.57361 0,-0.13953 -0.0403,-0.25425 -0.0372,-0.11782 -0.12093,-0.21394 -0.0806,-0.0992 -0.21084,-0.18294 -0.13022,-0.0868 -0.31006,-0.16433 l -0.46198,-0.19223 q -0.98289,-0.41548 -0.98289,-1.21543 0,-0.5395 0.41238,-0.90227 0.41238,-0.36587 1.02629,-0.36587 0.82786,0 1.29295,0.80615 z" />
    </g>
    <text
       id="text1987"
       y="19.84375"
       x="7.9375"
       style="font-size:6.35px;line-height:1.25;font-family:Futura;-inkscape-font-specification:Futura;stroke-width:0.264583"
       xml:space="preserve"><tspan
         style="stroke-width:0.264583"
         y="19.84375"
         x="7.9375"
         id="tspan1985"
         sodipodi:role="line" /></text>
    <g
       style="font-size:3.52777px;line-height:1.25;font-family:Futura;-inkscape-font-specification:Futura;stroke-width:0.264583"
       id="text1048"
       aria-label="DAC">
      <path
         inkscape:connector-curvature="0"
         id="path1120"
         style="font-size:6.35px;stroke-width:0.264583"
         d="M 9.0372772,6.2240849 V 1.4367802 h 1.0045898 q 0.722437,0 1.141016,0.142627 0.449585,0.1395264 0.815454,0.4743896 0.74104,0.6759278 0.74104,1.7766357 0,1.1038086 -0.772046,1.7859375 -0.387573,0.3410645 -0.812354,0.4743897 -0.396875,0.1333252 -1.125512,0.1333252 z M 9.7597137,5.5450565 h 0.3255613 q 0.486792,0 0.809253,-0.1023193 0.322461,-0.1085205 0.58291,-0.344165 0.533301,-0.486792 0.533301,-1.2681397 0,-0.7875488 -0.5271,-1.2774413 Q 11.00925,2.1158085 10.085275,2.1158085 H 9.7597137 Z" />
      <path
         inkscape:connector-curvature="0"
         id="path1122"
         style="font-size:6.35px;stroke-width:0.264583"
         d="M 16.233737,5.0613651 H 14.18425 l -0.533301,1.1627198 h -0.778247 l 2.368848,-5.0880615 2.285132,5.0880615 h -0.79065 z M 15.939182,4.3823368 15.229147,2.7545292 14.485007,4.3823368 Z" />
      <path
         inkscape:connector-curvature="0"
         id="path1124"
         style="font-size:6.35px;stroke-width:0.264583"
         d="m 21.442721,1.6941289 v 0.8557617 q -0.626318,-0.523999 -1.296044,-0.523999 -0.73794,0 -1.243335,0.5302001 -0.508496,0.5270996 -0.508496,1.2898438 0,0.7534423 0.508496,1.2712402 0.508496,0.5177978 1.246435,0.5177978 0.381372,0 0.648023,-0.1240234 0.148828,-0.062012 0.306958,-0.1674316 0.16123,-0.10542 0.337963,-0.2542481 v 0.8712647 q -0.620117,0.3503662 -1.302246,0.3503662 -1.026294,0 -1.751831,-0.7162354 -0.722436,-0.7224365 -0.722436,-1.7425293 0,-0.9146728 0.604614,-1.6309081 0.744141,-0.8774658 1.925464,-0.8774658 0.644922,0 1.246435,0.3503662 z" />
    </g>
    <g
       style="font-size:3.52777px;line-height:1.25;font-family:Futura;-inkscape-font-specification:Futura;stroke-width:0.264583"
       id="text1052"
       aria-label="Trig1">
      <path
         inkscape:connector-curvature="0"
         id="path1127"
         style="stroke-width:0.264583"
         d="m 3.9851199,17.11007 v 2.282371 H 3.5837672 V 17.11007 H 2.9722641 v -0.377237 h 1.6226364 v 0.377237 z" />
      <path
         inkscape:connector-curvature="0"
         id="path1129"
         style="stroke-width:0.264583"
         d="m 4.7654324,17.714683 h 0.3875723 v 0.149861 q 0.1067978,-0.111965 0.1894799,-0.153306 0.084405,-0.04306 0.1998151,-0.04306 0.1533064,0 0.3203932,0.09991 l -0.1774221,0.354844 q -0.1102428,-0.07924 -0.215318,-0.07924 -0.3169481,0 -0.3169481,0.478867 v 0.869885 H 4.7654324 Z" />
      <path
         inkscape:connector-curvature="0"
         id="path1131"
         style="stroke-width:0.264583"
         d="m 6.534485,17.714683 v 1.677758 H 6.1469126 v -1.677758 z m -0.4461389,-0.69763 q 0,-0.10163 0.074069,-0.1757 0.074069,-0.07407 0.177422,-0.07407 0.1050752,0 0.1791446,0.07407 0.074069,0.07235 0.074069,0.177422 0,0.105075 -0.074069,0.179145 -0.072347,0.07407 -0.1774221,0.07407 -0.1050751,0 -0.1791445,-0.07407 -0.074069,-0.07407 -0.074069,-0.180867 z" />
      <path
         inkscape:connector-curvature="0"
         id="path1133"
         style="stroke-width:0.264583"
         d="m 8.6514915,19.352822 q 0,0.118856 -0.00861,0.208428 -0.00689,0.09129 -0.020671,0.160197 -0.041341,0.18948 -0.1619191,0.325561 -0.2273758,0.261826 -0.6252834,0.261826 -0.3358961,0 -0.5529367,-0.180867 -0.2239307,-0.186035 -0.2583816,-0.515041 h 0.389295 q 0.022393,0.124024 0.074069,0.191203 0.1205781,0.156751 0.3513989,0.156751 0.4254684,0 0.4254684,-0.521931 v -0.234265 q -0.2308209,0.235988 -0.5322661,0.235988 -0.3427862,0 -0.5615493,-0.248046 Q 6.94962,18.941134 6.94962,18.563897 q 0,-0.366902 0.2049827,-0.623561 0.2204856,-0.272162 0.5822198,-0.272162 0.3169481,0 0.5270985,0.235989 v -0.18948 H 8.6514915 Z M 8.279422,18.557007 q 0,-0.244601 -0.1309133,-0.391018 -0.1326359,-0.149861 -0.3393412,-0.149861 -0.2204856,0 -0.3479539,0.163642 -0.1154104,0.146416 -0.1154104,0.37896 0,0.229098 0.1154104,0.375514 0.1257457,0.160197 0.3479539,0.160197 0.2222082,0 0.351399,-0.161919 0.1188555,-0.146417 0.1188555,-0.375515 z" />
      <path
         inkscape:connector-curvature="0"
         id="path1135"
         style="stroke-width:0.264583"
         d="M 9.8555497,17.108347 H 9.3956305 l 0.2204856,-0.375514 h 0.6407859 v 2.659608 H 9.8555497 Z" />
    </g>
    <g
       style="font-size:3.52777px;line-height:1.25;font-family:Futura;-inkscape-font-specification:Futura;display:inline;opacity:1;stroke-width:0.264583"
       id="text1052-8"
       aria-label="Trig2">
      <path
         inkscape:connector-curvature="0"
         id="path1138"
         style="stroke-width:0.264583"
         d="m 3.9851199,31.662152 v 2.282371 H 3.5837672 V 31.662152 H 2.9722641 v -0.377237 h 1.6226364 v 0.377237 z" />
      <path
         inkscape:connector-curvature="0"
         id="path1140"
         style="stroke-width:0.264583"
         d="m 4.7654324,32.266765 h 0.3875723 v 0.149861 q 0.1067978,-0.111965 0.1894799,-0.153306 0.084405,-0.04306 0.1998151,-0.04306 0.1533064,0 0.3203932,0.09991 l -0.1774221,0.354844 q -0.1102428,-0.07924 -0.215318,-0.07924 -0.3169481,0 -0.3169481,0.478867 v 0.869885 H 4.7654324 Z" />
      <path
         inkscape:connector-curvature="0"
         id="path1142"
         style="stroke-width:0.264583"
         d="m 6.534485,32.266765 v 1.677758 H 6.1469126 v -1.677758 z m -0.4461389,-0.69763 q 0,-0.10163 0.074069,-0.1757 0.074069,-0.07407 0.177422,-0.07407 0.1050752,0 0.1791446,0.07407 0.074069,0.07235 0.074069,0.177422 0,0.105075 -0.074069,0.179145 -0.072347,0.07407 -0.1774221,0.07407 -0.1050751,0 -0.1791445,-0.07407 -0.074069,-0.07407 -0.074069,-0.180867 z" />
      <path
         inkscape:connector-curvature="0"
         id="path1144"
         style="stroke-width:0.264583"
         d="m 8.6514915,33.904904 q 0,0.118856 -0.00861,0.208428 -0.00689,0.0913 -0.020671,0.160197 -0.041341,0.18948 -0.1619191,0.325561 -0.2273758,0.261826 -0.6252834,0.261826 -0.3358961,0 -0.5529367,-0.180867 -0.2239307,-0.186035 -0.2583816,-0.515041 h 0.389295 q 0.022393,0.124024 0.074069,0.191203 0.1205781,0.156751 0.3513989,0.156751 0.4254684,0 0.4254684,-0.52193 v -0.234266 q -0.2308209,0.235988 -0.5322661,0.235988 -0.3427862,0 -0.5615493,-0.248046 Q 6.94962,33.493216 6.94962,33.115979 q 0,-0.366902 0.2049827,-0.623561 0.2204856,-0.272162 0.5822198,-0.272162 0.3169481,0 0.5270985,0.235989 v -0.18948 H 8.6514915 Z M 8.279422,33.109089 q 0,-0.244601 -0.1309133,-0.391017 -0.1326359,-0.149862 -0.3393412,-0.149862 -0.2204856,0 -0.3479539,0.163642 -0.1154104,0.146416 -0.1154104,0.37896 0,0.229098 0.1154104,0.375514 0.1257457,0.160197 0.3479539,0.160197 0.2222082,0 0.351399,-0.161919 0.1188555,-0.146417 0.1188555,-0.375515 z" />
      <path
         inkscape:connector-curvature="0"
         id="path1146"
         style="stroke-width:0.264583"
         d="m 9.7832029,33.567286 h 0.9904631 v 0.377237 H 8.9873875 l 0.9232836,-1.117931 q 0.1360809,-0.167087 0.2273759,-0.289388 0.09302,-0.1223 0.141249,-0.204982 0.09818,-0.161919 0.09818,-0.29111 0,-0.186035 -0.130914,-0.311781 -0.130913,-0.125745 -0.3238381,-0.125745 -0.4030753,0 -0.4616418,0.477144 H 9.0614569 q 0.096463,-0.840601 0.8492142,-0.840601 0.3634569,0 0.6097809,0.230821 0.248046,0.230821 0.248046,0.571884 0,0.217041 -0.11541,0.425469 -0.05857,0.10852 -0.172255,0.258381 -0.111965,0.148139 -0.28422,0.351399 z" />
    </g>
    <g
       style="font-size:3.52777px;line-height:1.25;font-family:Futura;-inkscape-font-specification:Futura;display:inline;opacity:1;stroke-width:0.264583"
       id="text1052-1"
       aria-label="Trig3">
      <path
         inkscape:connector-curvature="0"
         id="path1149"
         style="stroke-width:0.264583"
         d="m 3.9851199,46.214238 v 2.282371 H 3.5837672 V 46.214238 H 2.9722641 v -0.377237 h 1.6226364 v 0.377237 z" />
      <path
         inkscape:connector-curvature="0"
         id="path1151"
         style="stroke-width:0.264583"
         d="m 4.7654324,46.818851 h 0.3875723 v 0.149861 q 0.1067978,-0.111965 0.1894799,-0.153306 0.084405,-0.04306 0.1998151,-0.04306 0.1533064,0 0.3203932,0.09991 L 5.6852708,47.2271 q -0.1102428,-0.07924 -0.215318,-0.07924 -0.3169481,0 -0.3169481,0.478867 v 0.869885 H 4.7654324 Z" />
      <path
         inkscape:connector-curvature="0"
         id="path1153"
         style="stroke-width:0.264583"
         d="m 6.534485,46.818851 v 1.677758 H 6.1469126 v -1.677758 z m -0.4461389,-0.69763 q 0,-0.10163 0.074069,-0.1757 0.074069,-0.07407 0.177422,-0.07407 0.1050752,0 0.1791446,0.07407 0.074069,0.07235 0.074069,0.177422 0,0.105075 -0.074069,0.179145 -0.072347,0.07407 -0.1774221,0.07407 -0.1050751,0 -0.1791445,-0.07407 -0.074069,-0.07407 -0.074069,-0.180867 z" />
      <path
         inkscape:connector-curvature="0"
         id="path1155"
         style="stroke-width:0.264583"
         d="m 8.6514915,48.45699 q 0,0.118856 -0.00861,0.208428 -0.00689,0.09129 -0.020671,0.160197 -0.041341,0.189479 -0.1619191,0.32556 -0.2273758,0.261827 -0.6252834,0.261827 -0.3358961,0 -0.5529367,-0.180867 Q 7.0581383,49.0461 7.0236874,48.717094 h 0.389295 q 0.022393,0.124024 0.074069,0.191203 0.1205781,0.156751 0.3513989,0.156751 0.4254684,0 0.4254684,-0.521931 V 48.308851 Q 8.0330982,48.54484 7.731653,48.54484 q -0.3427862,0 -0.5615493,-0.248046 -0.2204856,-0.251492 -0.2204856,-0.628729 0,-0.366902 0.2049827,-0.623561 0.2204856,-0.272162 0.5822198,-0.272162 0.3169481,0 0.5270985,0.235989 v -0.18948 H 8.6514915 Z M 8.279422,47.661175 q 0,-0.244601 -0.1309133,-0.391018 -0.1326359,-0.149861 -0.3393412,-0.149861 -0.2204856,0 -0.3479539,0.163642 -0.1154104,0.146416 -0.1154104,0.378959 0,0.229099 0.1154104,0.375515 0.1257457,0.160197 0.3479539,0.160197 0.2222082,0 0.351399,-0.16192 0.1188555,-0.146416 0.1188555,-0.375514 z" />
      <path
         inkscape:connector-curvature="0"
         id="path1157"
         style="stroke-width:0.264583"
         d="m 9.8124861,47.261545 v -0.342787 q 0.2549369,0 0.3427859,-0.05684 0.156752,-0.09991 0.156752,-0.320394 0,-0.170532 -0.113688,-0.277329 -0.111965,-0.108521 -0.29111,-0.108521 -0.1670867,0 -0.2583816,0.08096 -0.08785,0.08268 -0.1309133,0.279052 H 9.1183009 q 0.062012,-0.375514 0.2549365,-0.549491 0.1929249,-0.1757 0.5391563,-0.1757 0.3496763,0 0.5701623,0.206705 0.220485,0.204983 0.220485,0.528821 0,0.36518 -0.289387,0.56844 0.330728,0.194647 0.330728,0.632174 0,0.358289 -0.241156,0.585665 -0.241156,0.227375 -0.618393,0.227375 -0.4805898,0 -0.7131333,-0.353121 -0.096462,-0.148139 -0.1223006,-0.409966 h 0.3875724 q 0.031006,0.192925 0.1498613,0.296278 0.1205781,0.10163 0.313503,0.10163 0.1946472,0 0.3221162,-0.129191 0.127468,-0.132636 0.127468,-0.335896 0,-0.268717 -0.191203,-0.382405 -0.111965,-0.06546 -0.3462309,-0.06546 z" />
    </g>
    <g
       style="font-size:3.52777px;line-height:1.25;font-family:Futura;-inkscape-font-specification:Futura;display:inline;opacity:1;stroke-width:0.264583"
       id="text1052-18"
       aria-label="Trig4">
      <path
         inkscape:connector-curvature="0"
         id="path1160"
         style="stroke-width:0.264583"
         d="m 3.9851199,60.76632 v 2.282371 H 3.5837672 V 60.76632 H 2.9722641 v -0.377237 h 1.6226364 v 0.377237 z" />
      <path
         inkscape:connector-curvature="0"
         id="path1162"
         style="stroke-width:0.264583"
         d="m 4.7654324,61.370933 h 0.3875723 v 0.149861 q 0.1067978,-0.111965 0.1894799,-0.153306 0.084405,-0.04306 0.1998151,-0.04306 0.1533064,0 0.3203932,0.09991 l -0.1774221,0.354844 q -0.1102428,-0.07924 -0.215318,-0.07924 -0.3169481,0 -0.3169481,0.478867 v 0.869885 H 4.7654324 Z" />
      <path
         inkscape:connector-curvature="0"
         id="path1164"
         style="stroke-width:0.264583"
         d="m 6.534485,61.370933 v 1.677758 H 6.1469126 v -1.677758 z m -0.4461389,-0.69763 q 0,-0.10163 0.074069,-0.1757 0.074069,-0.07407 0.177422,-0.07407 0.1050752,0 0.1791446,0.07407 0.074069,0.07235 0.074069,0.177422 0,0.105075 -0.074069,0.179145 -0.072347,0.07407 -0.1774221,0.07407 -0.1050751,0 -0.1791445,-0.07407 -0.074069,-0.07407 -0.074069,-0.180867 z" />
      <path
         inkscape:connector-curvature="0"
         id="path1166"
         style="stroke-width:0.264583"
         d="m 8.6514915,63.009072 q 0,0.118856 -0.00861,0.208428 -0.00689,0.0913 -0.020671,0.160197 -0.041341,0.18948 -0.1619191,0.325561 -0.2273758,0.261826 -0.6252834,0.261826 -0.3358961,0 -0.5529367,-0.180867 -0.2239307,-0.186035 -0.2583816,-0.515041 h 0.389295 q 0.022393,0.124024 0.074069,0.191203 0.1205781,0.156751 0.3513989,0.156751 0.4254684,0 0.4254684,-0.521931 v -0.234265 q -0.2308209,0.235988 -0.5322661,0.235988 -0.3427862,0 -0.5615493,-0.248046 Q 6.94962,62.597384 6.94962,62.220147 q 0,-0.366902 0.2049827,-0.623561 0.2204856,-0.272162 0.5822198,-0.272162 0.3169481,0 0.5270985,0.235989 v -0.18948 H 8.6514915 Z M 8.279422,62.213257 q 0,-0.244601 -0.1309133,-0.391018 -0.1326359,-0.149861 -0.3393412,-0.149861 -0.2204856,0 -0.3479539,0.163642 -0.1154104,0.146416 -0.1154104,0.37896 0,0.229098 0.1154104,0.375514 0.1257457,0.160197 0.3479539,0.160197 0.2222082,0 0.351399,-0.161919 0.1188555,-0.146417 0.1188555,-0.375515 z" />
      <path
         inkscape:connector-curvature="0"
         id="path1168"
         style="stroke-width:0.264583"
         d="m 10.639307,62.306274 h 0.282497 v 0.36518 h -0.282497 v 0.377237 H 10.237954 V 62.671454 H 8.9322661 L 10.639307,60.19099 Z m -0.401353,0 v -0.890555 l -0.6132252,0.890555 z" />
    </g>
    <g
       style="font-size:3.52777px;line-height:1.25;font-family:Futura;-inkscape-font-specification:Futura;display:inline;opacity:1;stroke-width:0.264583"
       id="text1052-7"
       aria-label="Trig5">
      <path
         inkscape:connector-curvature="0"
         id="path1171"
         style="stroke-width:0.264583"
         d="m 3.9851199,75.318406 v 2.282371 H 3.5837672 V 75.318406 H 2.9722641 v -0.377237 h 1.6226364 v 0.377237 z" />
      <path
         inkscape:connector-curvature="0"
         id="path1173"
         style="stroke-width:0.264583"
         d="m 4.7654324,75.923019 h 0.3875723 v 0.149861 q 0.1067978,-0.111965 0.1894799,-0.153306 0.084405,-0.04306 0.1998151,-0.04306 0.1533064,0 0.3203932,0.09991 l -0.1774221,0.354844 q -0.1102428,-0.07924 -0.215318,-0.07924 -0.3169481,0 -0.3169481,0.478867 V 77.60078 H 4.7654324 Z" />
      <path
         inkscape:connector-curvature="0"
         id="path1175"
         style="stroke-width:0.264583"
         d="m 6.534485,75.923019 v 1.677758 H 6.1469126 v -1.677758 z m -0.4461389,-0.69763 q 0,-0.101631 0.074069,-0.1757 0.074069,-0.07407 0.177422,-0.07407 0.1050752,0 0.1791446,0.07407 0.074069,0.07235 0.074069,0.177422 0,0.105075 -0.074069,0.179145 -0.072347,0.07407 -0.1774221,0.07407 -0.1050751,0 -0.1791445,-0.07407 -0.074069,-0.07407 -0.074069,-0.180867 z" />
      <path
         inkscape:connector-curvature="0"
         id="path1177"
         style="stroke-width:0.264583"
         d="m 8.6514915,77.561158 q 0,0.118856 -0.00861,0.208428 -0.00689,0.0913 -0.020671,0.160197 -0.041341,0.189479 -0.1619191,0.32556 -0.2273758,0.261827 -0.6252834,0.261827 -0.3358961,0 -0.5529367,-0.180867 -0.2239307,-0.186035 -0.2583816,-0.515041 h 0.389295 q 0.022393,0.124023 0.074069,0.191203 0.1205781,0.156751 0.3513989,0.156751 0.4254684,0 0.4254684,-0.521931 v -0.234266 q -0.2308209,0.235989 -0.5322661,0.235989 -0.3427862,0 -0.5615493,-0.248046 Q 6.94962,77.14947 6.94962,76.772233 q 0,-0.366902 0.2049827,-0.623561 0.2204856,-0.272162 0.5822198,-0.272162 0.3169481,0 0.5270985,0.235989 v -0.18948 H 8.6514915 Z M 8.279422,76.765343 q 0,-0.244601 -0.1309133,-0.391018 -0.1326359,-0.149861 -0.3393412,-0.149861 -0.2204856,0 -0.3479539,0.163642 -0.1154104,0.146416 -0.1154104,0.378959 0,0.229099 0.1154104,0.375515 0.1257457,0.160197 0.3479539,0.160197 0.2222082,0 0.351399,-0.16192 0.1188555,-0.146416 0.1188555,-0.375514 z" />
      <path
         inkscape:connector-curvature="0"
         id="path1179"
         style="stroke-width:0.264583"
         d="M 10.754718,75.316683 H 9.9347867 l -0.1309133,0.440972 q 0.029283,-0.0034 0.055121,-0.0052 0.027561,-0.0017 0.049954,-0.0017 0.3875726,0 0.6356186,0.261827 0.249769,0.260104 0.249769,0.666625 0,0.4203 -0.282497,0.692462 -0.282497,0.272162 -0.7114109,0.272162 -0.528821,0 -0.8337113,-0.496092 L 9.2698846,76.89108 q 0.1257457,0.213595 0.2532139,0.301445 0.1274683,0.08613 0.3117805,0.08613 0.241156,0 0.404798,-0.168809 0.163642,-0.173977 0.163642,-0.422024 0,-0.254936 -0.161919,-0.416855 -0.16192,-0.167087 -0.4047985,-0.167087 -0.2704394,0 -0.4668094,0.235988 H 9.2371564 l 0.4185782,-1.398705 h 1.0989834 z" />
    </g>
    <g
       style="font-size:3.52777px;line-height:1.25;font-family:Futura;-inkscape-font-specification:Futura;display:inline;opacity:1;stroke-width:0.264583"
       id="text1052-4"
       aria-label="Trig6">
      <path
         inkscape:connector-curvature="0"
         id="path1182"
         style="stroke-width:0.264583"
         d="m 3.9851199,89.870484 v 2.282371 H 3.5837672 V 89.870484 H 2.9722641 v -0.377237 h 1.6226364 v 0.377237 z" />
      <path
         inkscape:connector-curvature="0"
         id="path1184"
         style="stroke-width:0.264583"
         d="m 4.7654324,90.475097 h 0.3875723 v 0.149861 q 0.1067978,-0.111965 0.1894799,-0.153306 0.084405,-0.04306 0.1998151,-0.04306 0.1533064,0 0.3203932,0.09991 L 5.6852708,90.88334 Q 5.575028,90.8041 5.4699528,90.8041 q -0.3169481,0 -0.3169481,0.478867 v 0.869885 H 4.7654324 Z" />
      <path
         inkscape:connector-curvature="0"
         id="path1186"
         style="stroke-width:0.264583"
         d="m 6.534485,90.475097 v 1.677758 H 6.1469126 v -1.677758 z m -0.4461389,-0.69763 q 0,-0.10163 0.074069,-0.1757 0.074069,-0.07407 0.177422,-0.07407 0.1050752,0 0.1791446,0.07407 0.074069,0.07235 0.074069,0.177422 0,0.105076 -0.074069,0.179145 -0.072347,0.07407 -0.1774221,0.07407 -0.1050751,0 -0.1791445,-0.07407 -0.074069,-0.07407 -0.074069,-0.180867 z" />
      <path
         inkscape:connector-curvature="0"
         id="path1188"
         style="stroke-width:0.264583"
         d="m 8.6514915,92.113236 q 0,0.118856 -0.00861,0.208428 -0.00689,0.0913 -0.020671,0.160197 -0.041341,0.18948 -0.1619191,0.325561 -0.2273758,0.261826 -0.6252834,0.261826 -0.3358961,0 -0.5529367,-0.180867 -0.2239307,-0.186035 -0.2583816,-0.51504 h 0.389295 q 0.022393,0.124023 0.074069,0.191202 0.1205781,0.156751 0.3513989,0.156751 0.4254684,0 0.4254684,-0.52193 v -0.234266 q -0.2308209,0.235988 -0.5322661,0.235988 -0.3427862,0 -0.5615493,-0.248046 Q 6.94962,91.701548 6.94962,91.324311 q 0,-0.366902 0.2049827,-0.623561 0.2204856,-0.272162 0.5822198,-0.272162 0.3169481,0 0.5270985,0.235989 v -0.18948 H 8.6514915 Z M 8.279422,91.317421 q 0,-0.244601 -0.1309133,-0.391017 -0.1326359,-0.149862 -0.3393412,-0.149862 -0.2204856,0 -0.3479539,0.163642 -0.1154104,0.146416 -0.1154104,0.37896 0,0.229098 0.1154104,0.375514 0.1257457,0.160197 0.3479539,0.160197 0.2222082,0 0.351399,-0.161919 0.1188555,-0.146417 0.1188555,-0.375515 z" />
      <path
         inkscape:connector-curvature="0"
         id="path1190"
         style="stroke-width:0.264583"
         d="m 10.284463,89.40023 0.294555,0.220485 -0.6356186,0.864717 q 0.051676,-0.0069 0.08785,-0.01033 0.03617,-0.0034 0.05684,-0.0034 0.323838,0 0.559827,0.248046 0.234266,0.244602 0.234266,0.58911 0,0.36518 -0.261827,0.627006 -0.260104,0.260105 -0.6252824,0.260105 -0.3617343,0 -0.6338962,-0.25666 -0.2669943,-0.256659 -0.2669943,-0.608058 0,-0.315225 0.2601041,-0.668347 z m 0.206705,1.934417 q 0,-0.211873 -0.146416,-0.35829 -0.148139,-0.148138 -0.3565664,-0.148138 -0.2101504,0 -0.3565666,0.146416 -0.1464162,0.146416 -0.1464162,0.354844 0,0.208428 0.1464162,0.354844 0.1464162,0.146416 0.3582891,0.146416 0.2067049,0 0.3531219,-0.146416 0.148138,-0.148139 0.148138,-0.349676 z" />
    </g>
    <g
       style="font-size:3.52777px;line-height:1.25;font-family:Futura;-inkscape-font-specification:Futura;display:inline;opacity:1;stroke-width:0.264583"
       id="text1052-15"
       aria-label="Trig7">
      <path
         inkscape:connector-curvature="0"
         id="path1193"
         style="stroke-width:0.264583"
         d="m 3.9851199,104.42257 v 2.28237 H 3.5837672 v -2.28237 H 2.9722641 v -0.37724 h 1.6226364 v 0.37724 z" />
      <path
         inkscape:connector-curvature="0"
         id="path1195"
         style="stroke-width:0.264583"
         d="m 4.7654324,105.02718 h 0.3875723 v 0.14986 q 0.1067978,-0.11196 0.1894799,-0.1533 0.084405,-0.0431 0.1998151,-0.0431 0.1533064,0 0.3203932,0.0999 l -0.1774221,0.35485 q -0.1102428,-0.0792 -0.215318,-0.0792 -0.3169481,0 -0.3169481,0.47887 v 0.86988 H 4.7654324 Z" />
      <path
         inkscape:connector-curvature="0"
         id="path1197"
         style="stroke-width:0.264583"
         d="m 6.534485,105.02718 v 1.67776 H 6.1469126 v -1.67776 z m -0.4461389,-0.69763 q 0,-0.10163 0.074069,-0.1757 0.074069,-0.0741 0.177422,-0.0741 0.1050752,0 0.1791446,0.0741 0.074069,0.0724 0.074069,0.17743 0,0.10507 -0.074069,0.17914 -0.072347,0.0741 -0.1774221,0.0741 -0.1050751,0 -0.1791445,-0.0741 -0.074069,-0.0741 -0.074069,-0.18087 z" />
      <path
         inkscape:connector-curvature="0"
         id="path1199"
         style="stroke-width:0.264583"
         d="m 8.6514915,106.66532 q 0,0.11886 -0.00861,0.20843 -0.00689,0.0913 -0.020671,0.1602 -0.041341,0.18948 -0.1619191,0.32556 -0.2273758,0.26182 -0.6252834,0.26182 -0.3358961,0 -0.5529367,-0.18086 -0.2239307,-0.18604 -0.2583816,-0.51504 h 0.389295 q 0.022393,0.12402 0.074069,0.1912 0.1205781,0.15675 0.3513989,0.15675 0.4254684,0 0.4254684,-0.52193 v -0.23427 q -0.2308209,0.23599 -0.5322661,0.23599 -0.3427862,0 -0.5615493,-0.24804 -0.2204856,-0.2515 -0.2204856,-0.62873 0,-0.3669 0.2049827,-0.62356 0.2204856,-0.27217 0.5822198,-0.27217 0.3169481,0 0.5270985,0.23599 v -0.18948 H 8.6514915 Z M 8.279422,105.86951 q 0,-0.2446 -0.1309133,-0.39102 -0.1326359,-0.14986 -0.3393412,-0.14986 -0.2204856,0 -0.3479539,0.16364 -0.1154104,0.14642 -0.1154104,0.37896 0,0.2291 0.1154104,0.37551 0.1257457,0.1602 0.3479539,0.1602 0.2222082,0 0.351399,-0.16192 0.1188555,-0.14641 0.1188555,-0.37551 z" />
      <path
         inkscape:connector-curvature="0"
         id="path1201"
         style="stroke-width:0.264583"
         d="M 10.394706,104.42085 H 9.0821275 v -0.37552 h 1.9826485 l -1.6777583,2.75091 -0.3186706,-0.20154 z" />
    </g>
    <g
       style="font-size:3.52777px;line-height:1.25;font-family:Futura;-inkscape-font-specification:Futura;display:inline;opacity:1;stroke-width:0.264583"
       id="text1052-5"
       aria-label="Trig8">
      <path
         inkscape:connector-curvature="0"
         id="path1204"
         style="stroke-width:0.264583"
         d="m 3.9851199,118.97466 v 2.28237 H 3.5837672 v -2.28237 H 2.9722641 v -0.37724 h 1.6226364 v 0.37724 z" />
      <path
         inkscape:connector-curvature="0"
         id="path1206"
         style="stroke-width:0.264583"
         d="m 4.7654324,119.57927 h 0.3875723 v 0.14986 q 0.1067978,-0.11197 0.1894799,-0.15331 0.084405,-0.0431 0.1998151,-0.0431 0.1533064,0 0.3203932,0.0999 l -0.1774221,0.35484 q -0.1102428,-0.0792 -0.215318,-0.0792 -0.3169481,0 -0.3169481,0.47887 v 0.86989 H 4.7654324 Z" />
      <path
         inkscape:connector-curvature="0"
         id="path1208"
         style="stroke-width:0.264583"
         d="m 6.534485,119.57927 v 1.67776 H 6.1469126 v -1.67776 z m -0.4461389,-0.69763 q 0,-0.10163 0.074069,-0.1757 0.074069,-0.0741 0.177422,-0.0741 0.1050752,0 0.1791446,0.0741 0.074069,0.0724 0.074069,0.17742 0,0.10508 -0.074069,0.17915 -0.072347,0.0741 -0.1774221,0.0741 -0.1050751,0 -0.1791445,-0.0741 -0.074069,-0.0741 -0.074069,-0.18087 z" />
      <path
         inkscape:connector-curvature="0"
         id="path1210"
         style="stroke-width:0.264583"
         d="m 8.6514915,121.21741 q 0,0.11885 -0.00861,0.20843 -0.00689,0.0913 -0.020671,0.16019 -0.041341,0.18948 -0.1619191,0.32556 -0.2273758,0.26183 -0.6252834,0.26183 -0.3358961,0 -0.5529367,-0.18087 -0.2239307,-0.18603 -0.2583816,-0.51504 h 0.389295 q 0.022393,0.12403 0.074069,0.1912 0.1205781,0.15676 0.3513989,0.15676 0.4254684,0 0.4254684,-0.52193 v -0.23427 q -0.2308209,0.23599 -0.5322661,0.23599 -0.3427862,0 -0.5615493,-0.24805 -0.2204856,-0.25149 -0.2204856,-0.62873 0,-0.3669 0.2049827,-0.62356 0.2204856,-0.27216 0.5822198,-0.27216 0.3169481,0 0.5270985,0.23599 v -0.18948 H 8.6514915 Z M 8.279422,120.42159 q 0,-0.2446 -0.1309133,-0.39101 -0.1326359,-0.14987 -0.3393412,-0.14987 -0.2204856,0 -0.3479539,0.16365 -0.1154104,0.14641 -0.1154104,0.37896 0,0.22909 0.1154104,0.37551 0.1257457,0.1602 0.3479539,0.1602 0.2222082,0 0.351399,-0.16192 0.1188555,-0.14642 0.1188555,-0.37552 z" />
      <path
         inkscape:connector-curvature="0"
         id="path1212"
         style="stroke-width:0.264583"
         d="m 9.5127635,119.87382 q -0.2928325,-0.2067 -0.2928325,-0.56327 0,-0.32384 0.2222082,-0.54088 0.2239307,-0.21704 0.5563817,-0.21704 0.3307281,0 0.5512141,0.21704 0.220486,0.21532 0.220486,0.5426 0,0.34279 -0.29111,0.55983 0.160196,0.0861 0.251491,0.25149 0.09302,0.16537 0.09302,0.37207 0,0.35312 -0.23082,0.57878 -0.230821,0.22565 -0.590833,0.22565 -0.3686245,0 -0.6080581,-0.22738 -0.2411561,-0.22737 -0.2411561,-0.57188 0,-0.44786 0.3600117,-0.62701 z m 0.084405,-0.56499 q 0,0.17053 0.1154105,0.28594 0.1171329,0.11713 0.2824972,0.11713 0.1636408,0 0.2807738,-0.11713 0.117133,-0.11713 0.117133,-0.28077 0,-0.16364 -0.117133,-0.28078 -0.117133,-0.11713 -0.2807738,-0.11713 -0.1636417,0 -0.2807747,0.11713 -0.117133,0.11714 -0.117133,0.27561 z m -0.049954,1.17822 q 0,0.18431 0.1274683,0.31695 0.1291908,0.13091 0.313503,0.13091 0.1825892,0 0.3117802,-0.12919 0.129191,-0.13091 0.129191,-0.3135 0,-0.18432 -0.129191,-0.31351 -0.129191,-0.12919 -0.3117802,-0.12919 -0.1808671,0 -0.3117805,0.12919 -0.1291908,0.12919 -0.1291908,0.30834 z" />
    </g>
  </g>
  <g
     sodipodi:insensitive="true"
     style="display:none"
     inkscape:label="components"
     id="layer2"
     inkscape:groupmode="layer">
    <circle
       style="display:inline;fill:#f2f2f2;stroke:#0000ff;stroke-width:0.264583;stroke-opacity:1"
       id="path15-4-6-5"
       cx="22.489761"
       cy="11.90626"
       r="2.6458333"
       inkscape:label="out" />
    <circle
       inkscape:label="trig1"
       r="2.6458333"
       cy="11.798461"
       cx="6.6145835"
       id="path15-4-6-5-9"
       style="display:inline;fill:#f2f2f2;stroke:#00ff00;stroke-width:0.264583;stroke-opacity:1" />
    <circle
       inkscape:label="trig2"
       r="2.6458333"
       cy="26.350533"
       cx="6.6145835"
       id="path17-0-5-4-8"
       style="display:inline;fill:#f2f2f2;stroke:#00ff00;stroke-width:0.264583;stroke-opacity:1" />
    <circle
       inkscape:label="trig3"
       r="2.6458333"
       cy="40.902622"
       cx="6.6145835"
       id="path34-0-3-2-6"
       style="display:inline;fill:#f2f2f2;stroke:#00ff00;stroke-width:0.264583;stroke-opacity:1" />
    <circle
       style="display:inline;fill:#f2f2f2;stroke:#00ff00;stroke-width:0.264583;stroke-opacity:1"
       id="path15-0-9-0-1-5"
       cx="6.6145835"
       cy="55.5625"
       r="2.6458333"
       inkscape:label="trig4" />
    <circle
       style="display:inline;fill:#f2f2f2;stroke:#00ff00;stroke-width:0.264583;stroke-opacity:1"
       id="path17-5-37-4-9-7"
       cx="6.6145835"
       cy="70.00679"
       r="2.6458333"
       inkscape:label="trig5" />
    <circle
       style="display:inline;fill:#f2f2f2;stroke:#00ff00;stroke-width:0.264583;stroke-opacity:1"
       id="path34-6-5-8-2-6"
       cx="6.6145835"
       cy="84.558861"
       r="2.6458333"
       inkscape:label="trig6" />
    <circle
       inkscape:label="trig7"
       r="2.6458333"
       cy="99.110954"
       cx="6.6145835"
       id="path17-5-3-7-5-4-2"
       style="display:inline;fill:#f2f2f2;stroke:#00ff00;stroke-width:0.264583;stroke-opacity:1" />
    <circle
       inkscape:label="trig8"
       r="2.6458333"
       cy="113.66306"
       cx="6.6145835"
       id="path34-6-8-2-5-5-7"
       style="display:inline;fill:#f2f2f2;stroke:#00ff00;stroke-width:0.264583;stroke-opacity:1" />
  </g>
</svg>
