<?xml version="1.0" encoding="UTF-8" standalone="no"?>
<svg
   xmlns:dc="http://purl.org/dc/elements/1.1/"
   xmlns:cc="http://creativecommons.org/ns#"
   xmlns:rdf="http://www.w3.org/1999/02/22-rdf-syntax-ns#"
   xmlns:svg="http://www.w3.org/2000/svg"
   xmlns="http://www.w3.org/2000/svg"
   xmlns:sodipodi="http://sodipodi.sourceforge.net/DTD/sodipodi-0.dtd"
   xmlns:inkscape="http://www.inkscape.org/namespaces/inkscape"
   sodipodi:docname="Function.svg"
   inkscape:version="1.0beta1 (32d4812, 2019-09-19)"
   id="svg1138"
   version="1.1"
   viewBox="0 0 132.08 128.5"
   height="128.5mm"
   width="132.08mm">
  <defs
     id="defs1132" />
  <sodipodi:namedview
     inkscape:window-maximized="0"
     inkscape:window-y="0"
     inkscape:window-x="1440"
     inkscape:window-height="1080"
     inkscape:window-width="1920"
     inkscape:snap-object-midpoints="true"
     showgrid="true"
     inkscape:document-rotation="0"
     inkscape:current-layer="layer2"
     inkscape:document-units="mm"
     inkscape:cy="242.83465"
     inkscape:cx="249.6"
     inkscape:zoom="1.7954604"
     inkscape:pageshadow="2"
     inkscape:pageopacity="0.0"
     borderopacity="1.0"
     bordercolor="#666666"
     pagecolor="#ffffff"
     id="base"
     inkscape:snap-bbox="true"
     inkscape:snap-bbox-midpoints="true"
     inkscape:snap-bbox-edge-midpoints="false"
     inkscape:bbox-nodes="false"
     inkscape:bbox-paths="false">
    <inkscape:grid
       id="grid1738"
       type="xygrid" />
  </sodipodi:namedview>
  <metadata
     id="metadata1135">
    <rdf:RDF>
      <cc:Work
         rdf:about="">
        <dc:format>image/svg+xml</dc:format>
        <dc:type
           rdf:resource="http://purl.org/dc/dcmitype/StillImage" />
        <dc:title></dc:title>
      </cc:Work>
    </rdf:RDF>
  </metadata>
  <g
     sodipodi:insensitive="true"
     id="layer1"
     inkscape:groupmode="layer"
     inkscape:label="Background">
    <rect
       y="0"
       x="0"
       height="128.5"
       width="132.08"
       id="rect10"
       style="display:inline;fill:#f8f8f8;fill-opacity:1;stroke:none;stroke-width:0.255759" />
  </g>
  <g
     sodipodi:insensitive="true"
     inkscape:label="boxes"
     id="layer3"
     inkscape:groupmode="layer">
    <rect
       style="display:inline;fill:#000000;fill-opacity:0.5;stroke:none;stroke-width:0.53;stroke-miterlimit:4;stroke-dasharray:0.53, 1.06;stroke-dashoffset:0;stroke-opacity:1"
       id="rect1740-1"
       width="10.583333"
       height="10.583333"
       x="79.374992"
       y="6.6145873" />
    <rect
       y="6.6145835"
       x="92.604156"
       height="10.583333"
       width="10.583333"
       id="rect1740-1-4"
       style="display:inline;fill:#000000;fill-opacity:0.5;stroke:none;stroke-width:0.53;stroke-miterlimit:4;stroke-dasharray:0.53, 1.06;stroke-dashoffset:0;stroke-opacity:1" />
    <rect
       y="6.6145835"
       x="105.83333"
       height="10.583333"
       width="10.583333"
       id="rect1740-1-92"
       style="display:inline;fill:#000000;fill-opacity:0.5;stroke:none;stroke-width:0.53;stroke-miterlimit:4;stroke-dasharray:0.53, 1.06;stroke-dashoffset:0;stroke-opacity:1" />
    <rect
       y="6.6145835"
       x="119.06248"
       height="10.583333"
       width="10.583333"
       id="rect1740-1-97"
       style="display:inline;fill:#000000;fill-opacity:0.5;stroke:none;stroke-width:0.53;stroke-miterlimit:4;stroke-dasharray:0.53, 1.06;stroke-dashoffset:0;stroke-opacity:1" />
    <rect
       y="21.166656"
       x="119.06248"
       height="10.583333"
       width="10.583333"
       id="rect1740-1-5-3"
       style="display:inline;fill:#000000;fill-opacity:0.5;stroke:none;stroke-width:0.53;stroke-miterlimit:4;stroke-dasharray:0.53, 1.06;stroke-dashoffset:0;stroke-opacity:1" />
    <rect
       y="35.718731"
       x="119.06248"
       height="10.583333"
       width="10.583333"
       id="rect1740-1-9-7"
       style="display:inline;fill:#000000;fill-opacity:0.5;stroke:none;stroke-width:0.53;stroke-miterlimit:4;stroke-dasharray:0.53, 1.06;stroke-dashoffset:0;stroke-opacity:1" />
    <rect
       y="50.378613"
       x="119.06248"
       height="10.583333"
       width="10.583333"
       id="rect1740-1-7-50"
       style="display:inline;fill:#000000;fill-opacity:0.5;stroke:none;stroke-width:0.53;stroke-miterlimit:4;stroke-dasharray:0.53, 1.06;stroke-dashoffset:0;stroke-opacity:1" />
    <rect
       y="64.822906"
       x="119.06248"
       height="10.583333"
       width="10.583333"
       id="rect1740-1-53-21"
       style="display:inline;fill:#000000;fill-opacity:0.5;stroke:none;stroke-width:0.53;stroke-miterlimit:4;stroke-dasharray:0.53, 1.06;stroke-dashoffset:0;stroke-opacity:1" />
    <rect
       y="79.374985"
       x="119.06248"
       height="10.583333"
       width="10.583333"
       id="rect1740-1-90-8"
       style="display:inline;fill:#000000;fill-opacity:0.5;stroke:none;stroke-width:0.53;stroke-miterlimit:4;stroke-dasharray:0.53, 1.06;stroke-dashoffset:0;stroke-opacity:1" />
    <rect
       y="93.927063"
       x="119.06248"
       height="10.583333"
       width="10.583333"
       id="rect1740-1-55-7"
       style="display:inline;fill:#000000;fill-opacity:0.5;stroke:none;stroke-width:0.53;stroke-miterlimit:4;stroke-dasharray:0.53, 1.06;stroke-dashoffset:0;stroke-opacity:1" />
    <rect
       y="108.47913"
       x="119.06248"
       height="10.583333"
       width="10.583333"
       id="rect1740-1-6-15"
       style="display:inline;fill:#000000;fill-opacity:0.5;stroke:none;stroke-width:0.53;stroke-miterlimit:4;stroke-dasharray:0.53, 1.06;stroke-dashoffset:0;stroke-opacity:1" />
  </g>
  <g
     sodipodi:insensitive="true"
     style="display:inline"
     inkscape:label="text"
     id="layer4"
     inkscape:groupmode="layer">
    <g
       transform="translate(-36.135687,-0.06042158)"
       style="font-size:6.35px;line-height:1.25;font-family:Futura;-inkscape-font-specification:Futura;display:inline;opacity:1;stroke-width:0.264583"
       id="text1717-2"
       aria-label="STALYS">
      <path
         inkscape:connector-curvature="0"
         id="path2113"
         style="stroke-width:0.264583"
         d="m 94.892412,122.92583 -0.586011,0.34727 q -0.164331,-0.28526 -0.313159,-0.37207 -0.155029,-0.0992 -0.399976,-0.0992 -0.300757,0 -0.499194,0.17053 -0.198438,0.16743 -0.198438,0.42168 0,0.35036 0.520899,0.56431 l 0.47749,0.19533 q 0.58291,0.23565 0.852661,0.57671 0.269751,0.33796 0.269751,0.83096 0,0.66042 -0.440283,1.0914 -0.443384,0.43409 -1.100708,0.43409 -0.623218,0 -1.029395,-0.36897 -0.399975,-0.36897 -0.499194,-1.0387 l 0.731738,-0.16123 q 0.04961,0.42168 0.173633,0.58291 0.223242,0.31006 0.651123,0.31006 0.337964,0 0.561206,-0.22634 0.223243,-0.22635 0.223243,-0.57361 0,-0.13953 -0.04031,-0.25425 -0.03721,-0.11782 -0.120923,-0.21394 -0.08061,-0.0992 -0.21084,-0.18294 -0.130224,-0.0868 -0.310058,-0.16433 l -0.461988,-0.19223 q -0.982885,-0.41548 -0.982885,-1.21543 0,-0.5395 0.412378,-0.90227 0.412377,-0.36587 1.026293,-0.36587 0.827857,0 1.292945,0.80615 z" />
      <path
         inkscape:connector-curvature="0"
         id="path2115"
         style="stroke-width:0.264583"
         d="M 97.307768,122.89172 V 127 h -0.722436 v -4.10828 h -1.100708 v -0.67902 h 2.920751 v 0.67902 z" />
      <path
         inkscape:connector-curvature="0"
         id="path2117"
         style="stroke-width:0.264583"
         d="M 101.60208,125.83728 H 99.552592 L 99.019291,127 h -0.778247 l 2.368846,-5.08806 2.28513,5.08806 h -0.79065 z m -0.29456,-0.67903 -0.71003,-1.62781 -0.744141,1.62781 z" />
      <path
         inkscape:connector-curvature="0"
         id="path2119"
         style="stroke-width:0.264583"
         d="m 104.21897,122.2127 v 4.10827 h 1.40767 V 127 h -2.1301 v -4.7873 z" />
      <path
         inkscape:connector-curvature="0"
         id="path2121"
         style="stroke-width:0.264583"
         d="m 106.87618,124.93191 -1.5627,-2.71921 h 0.83096 l 1.0945,1.91306 1.09761,-1.91306 h 0.83096 l -1.5689,2.71921 V 127 h -0.72243 z" />
      <path
         inkscape:connector-curvature="0"
         id="path2123"
         style="stroke-width:0.264583"
         d="m 112.2805,122.92583 -0.58601,0.34727 q -0.16433,-0.28526 -0.31316,-0.37207 -0.15503,-0.0992 -0.39998,-0.0992 -0.30075,0 -0.49919,0.17053 -0.19844,0.16743 -0.19844,0.42168 0,0.35036 0.5209,0.56431 l 0.47749,0.19533 q 0.58291,0.23565 0.85266,0.57671 0.26975,0.33796 0.26975,0.83096 0,0.66042 -0.44028,1.0914 -0.44339,0.43409 -1.10071,0.43409 -0.62322,0 -1.02939,-0.36897 -0.39998,-0.36897 -0.4992,-1.0387 l 0.73174,-0.16123 q 0.0496,0.42168 0.17363,0.58291 0.22324,0.31006 0.65113,0.31006 0.33796,0 0.5612,-0.22634 0.22324,-0.22635 0.22324,-0.57361 0,-0.13953 -0.0403,-0.25425 -0.0372,-0.11782 -0.12093,-0.21394 -0.0806,-0.0992 -0.21084,-0.18294 -0.13022,-0.0868 -0.31006,-0.16433 l -0.46198,-0.19223 q -0.98289,-0.41548 -0.98289,-1.21543 0,-0.5395 0.41238,-0.90227 0.41238,-0.36587 1.02629,-0.36587 0.82786,0 1.29295,0.80615 z" />
    </g>
    <text
       id="text1987"
       y="19.84375"
       x="7.9375"
       style="font-size:6.35px;line-height:1.25;font-family:Futura;-inkscape-font-specification:Futura;stroke-width:0.264583"
       xml:space="preserve"><tspan
         style="stroke-width:0.264583"
         y="19.84375"
         x="7.9375"
         id="tspan1985"
         sodipodi:role="line" /></text>
    <g
       transform="translate(5.0799994)"
       aria-label="8 Function generators"
       id="text1818"
       style="font-size:6.35px;line-height:1.25;font-family:Futura;-inkscape-font-specification:Futura;stroke-width:0.264583">
      <path
         d="m 30.602164,3.6562247 q -0.527099,-0.3720703 -0.527099,-1.0138916 0,-0.5829102 0.399975,-0.973584 0.403077,-0.3906738 1.00149,-0.3906738 0.595312,0 0.992187,0.3906738 0.396875,0.3875732 0.396875,0.9766846 0,0.6170166 -0.523999,1.0076904 0.288355,0.1550293 0.452686,0.4526855 0.167431,0.2976563 0.167431,0.6697266 0,0.6356201 -0.415478,1.0417968 -0.415479,0.4061768 -1.063501,0.4061768 -0.663526,0 -1.094507,-0.4092774 -0.434082,-0.4092773 -0.434082,-1.0293945 0,-0.8061523 0.648022,-1.1286132 z m 0.151929,-1.0169922 q 0,0.306958 0.207739,0.5146973 0.21084,0.2108398 0.508496,0.2108398 0.294556,0 0.505396,-0.2108398 0.21084,-0.2108399 0.21084,-0.5053955 0,-0.2945557 -0.21084,-0.5053955 -0.21084,-0.2108399 -0.505396,-0.2108399 -0.294555,0 -0.505395,0.2108399 -0.21084,0.2108398 -0.21084,0.4960937 z m -0.08992,2.1208007 q 0,0.3317627 0.229444,0.5705079 0.232543,0.2356445 0.564306,0.2356445 0.328662,0 0.561206,-0.232544 0.232544,-0.2356445 0.232544,-0.5643066 0,-0.3317627 -0.232544,-0.5643066 -0.232544,-0.232544 -0.561206,-0.232544 -0.325561,0 -0.561206,0.232544 -0.232544,0.2325439 -0.232544,0.5550048 z"
         style="stroke-width:0.264583"
         id="path1955"
         inkscape:connector-curvature="0" />
      <path
         d="m 38.341227,2.0377188 h -1.668115 v 1.1503174 h 1.609204 V 3.8670645 H 36.673112 V 6.1459951 H 35.950675 V 1.3586905 h 2.390552 z"
         style="stroke-width:0.264583"
         id="path1957"
         inkscape:connector-curvature="0" />
      <path
         d="M 39.68378,3.1260245 V 4.859252 q 0,0.7503418 0.592212,0.7503418 0.592212,0 0.592212,-0.7503418 V 3.1260245 h 0.697632 v 1.7487304 q 0,0.3627686 -0.08992,0.6263184 -0.08682,0.2356445 -0.300757,0.4247802 -0.353467,0.306958 -0.89917,0.306958 -0.542603,0 -0.896069,-0.306958 Q 39.162882,5.7367178 39.072965,5.5010733 38.986148,5.2902334 38.986148,4.8747549 V 3.1260245 Z"
         style="stroke-width:0.264583"
         id="path1959"
         inkscape:connector-curvature="0" />
      <path
         d="m 42.452604,3.1260245 h 0.700732 v 0.2790527 q 0.365869,-0.3627685 0.824756,-0.3627685 0.5271,0 0.821655,0.3317627 0.254248,0.2821533 0.254248,0.920874 V 6.1459951 H 44.353263 V 4.4592764 q 0,-0.4464844 -0.124024,-0.6170166 -0.120922,-0.1736328 -0.440283,-0.1736328 -0.347265,0 -0.492993,0.2294434 -0.142627,0.2263427 -0.142627,0.7906494 v 1.4572753 h -0.700732 z"
         style="stroke-width:0.264583"
         id="path1961"
         inkscape:connector-curvature="0" />
      <path
         d="M 48.287907,3.2562491 V 4.1833243 Q 48.049161,3.8918692 47.860026,3.7833487 47.673991,3.6717276 47.422843,3.6717276 q -0.393774,0 -0.654223,0.2759521 -0.26045,0.2759522 -0.26045,0.6914307 0,0.4247803 0.251148,0.6976318 0.254248,0.2728516 0.648022,0.2728516 0.251148,0 0.443384,-0.1085205 0.186035,-0.1054199 0.437183,-0.4092774 v 0.920874 q -0.424781,0.2201416 -0.849561,0.2201416 -0.700732,0 -1.172021,-0.4526855 -0.471289,-0.4557861 -0.471289,-1.1317138 0,-0.6759278 0.47749,-1.1410157 0.47749,-0.4650878 1.172021,-0.4650878 0.446485,0 0.84336,0.2139404 z"
         style="stroke-width:0.264583"
         id="path1963"
         inkscape:connector-curvature="0" />
      <path
         d="M 49.683169,3.7771475 V 6.1459951 H 48.985537 V 3.7771475 h -0.297656 v -0.651123 h 0.297656 V 2.0191153 h 0.697632 v 1.1069092 h 0.542603 v 0.651123 z"
         style="stroke-width:0.264583"
         id="path1965"
         inkscape:connector-curvature="0" />
      <path
         d="M 51.397793,3.1260245 V 6.1459951 H 50.700161 V 3.1260245 Z M 50.594741,1.8702872 q 0,-0.1829346 0.133326,-0.3162598 0.133325,-0.1333252 0.31936,-0.1333252 0.189136,0 0.322461,0.1333252 0.133325,0.1302246 0.133325,0.3193604 0,0.1891357 -0.133325,0.3224609 -0.130225,0.1333252 -0.31936,0.1333252 -0.189136,0 -0.322461,-0.1333252 -0.133326,-0.1333252 -0.133326,-0.3255615 z"
         style="stroke-width:0.264583"
         id="path1967"
         inkscape:connector-curvature="0" />
      <path
         d="m 52.145036,4.6143057 q 0,-0.6542236 0.468188,-1.1131103 0.468189,-0.4588867 1.141016,-0.4588867 0.675928,0 1.147217,0.4619873 0.465088,0.4619873 0.465088,1.1348144 0,0.6790283 -0.468189,1.137915 -0.471289,0.4557861 -1.156518,0.4557861 -0.679029,0 -1.137915,-0.4650878 -0.458887,-0.4588868 -0.458887,-1.153418 z m 0.713135,0.012402 q 0,0.4526855 0.241845,0.7162353 0.248047,0.2666504 0.654224,0.2666504 0.409277,0 0.654224,-0.2635498 0.244946,-0.2635498 0.244946,-0.703833 0,-0.4402832 -0.244946,-0.703833 -0.248047,-0.2666504 -0.654224,-0.2666504 -0.399976,0 -0.648022,0.2666504 -0.248047,0.2666504 -0.248047,0.6883301 z"
         style="stroke-width:0.264583"
         id="path1969"
         inkscape:connector-curvature="0" />
      <path
         d="m 56.107584,3.1260245 h 0.700733 v 0.2790527 q 0.365869,-0.3627685 0.824756,-0.3627685 0.527099,0 0.821655,0.3317627 0.254248,0.2821533 0.254248,0.920874 V 6.1459951 H 58.008244 V 4.4592764 q 0,-0.4464844 -0.124024,-0.6170166 -0.120923,-0.1736328 -0.440283,-0.1736328 -0.347266,0 -0.492993,0.2294434 -0.142627,0.2263427 -0.142627,0.7906494 v 1.4572753 h -0.700733 z"
         style="stroke-width:0.264583"
         id="path1971"
         inkscape:connector-curvature="0" />
      <path
         d="m 64.472964,6.0746817 q 0,0.2139404 -0.0155,0.3751709 -0.0124,0.164331 -0.03721,0.2883544 -0.07441,0.3410645 -0.291455,0.5860108 -0.409277,0.471289 -1.125513,0.471289 -0.604614,0 -0.995288,-0.3255615 Q 61.604922,7.135082 61.54291,6.5428701 h 0.700733 q 0.04031,0.2232422 0.133325,0.3441651 0.217041,0.2821533 0.63252,0.2821533 0.765844,0 0.765844,-0.9394775 V 5.8080313 q -0.415478,0.4247802 -0.958081,0.4247802 -0.617016,0 -1.010791,-0.4464843 -0.396875,-0.4526856 -0.396875,-1.1317139 0,-0.6604248 0.36897,-1.1224121 0.396875,-0.4898925 1.047998,-0.4898925 0.570508,0 0.948779,0.4247802 V 3.1260245 h 0.697632 z M 63.803237,4.642211 q 0,-0.4402832 -0.235644,-0.703833 -0.238745,-0.269751 -0.610815,-0.269751 -0.396875,0 -0.626319,0.2945557 -0.207739,0.2635498 -0.207739,0.6821289 0,0.4123779 0.207739,0.6759277 0.226343,0.2883545 0.626319,0.2883545 0.399975,0 0.632519,-0.2914551 0.21394,-0.2635498 0.21394,-0.6759277 z"
         style="stroke-width:0.264583"
         id="path1973"
         inkscape:connector-curvature="0" />
      <path
         d="m 68.109952,4.8003409 h -2.164209 q 0.02791,0.3720703 0.241845,0.5922119 0.213941,0.217041 0.548804,0.217041 0.260449,0 0.430982,-0.1240235 0.167431,-0.1240234 0.381372,-0.4588867 l 0.589111,0.3286621 q -0.136426,0.232544 -0.288354,0.3999756 -0.151929,0.1643311 -0.325562,0.2728516 -0.173633,0.1054199 -0.375171,0.1550293 -0.201538,0.049609 -0.437183,0.049609 -0.675927,0 -1.085205,-0.434082 -0.409277,-0.4371826 -0.409277,-1.1596191 0,-0.7162353 0.396875,-1.1596191 0.399976,-0.4371826 1.0604,-0.4371826 0.666626,0 1.0542,0.4247802 0.384472,0.4216797 0.384472,1.1689209 z M 67.393716,4.2298331 q -0.145727,-0.5581055 -0.703833,-0.5581055 -0.127124,0 -0.238745,0.040308 -0.111621,0.037207 -0.204638,0.1116211 -0.08992,0.071314 -0.15503,0.1736328 -0.06511,0.1023194 -0.09922,0.232544 z"
         style="stroke-width:0.264583"
         id="path1975"
         inkscape:connector-curvature="0" />
      <path
         d="m 68.869597,3.1260245 h 0.700732 v 0.2790527 q 0.365869,-0.3627685 0.824756,-0.3627685 0.5271,0 0.821655,0.3317627 0.254248,0.2821533 0.254248,0.920874 V 6.1459951 H 70.770256 V 4.4592764 q 0,-0.4464844 -0.124023,-0.6170166 Q 70.52531,3.668627 70.205949,3.668627 q -0.347265,0 -0.492993,0.2294434 -0.142627,0.2263427 -0.142627,0.7906494 v 1.4572753 h -0.700732 z"
         style="stroke-width:0.264583"
         id="path1977"
         inkscape:connector-curvature="0" />
      <path
         d="m 75.104874,4.8003409 h -2.164209 q 0.02791,0.3720703 0.241846,0.5922119 0.213941,0.217041 0.548804,0.217041 0.260449,0 0.430981,-0.1240235 0.167432,-0.1240234 0.381372,-0.4588867 l 0.589112,0.3286621 q -0.136426,0.232544 -0.288355,0.3999756 -0.151929,0.1643311 -0.325561,0.2728516 -0.173633,0.1054199 -0.375171,0.1550293 -0.201538,0.049609 -0.437183,0.049609 -0.675928,0 -1.085205,-0.434082 -0.409277,-0.4371826 -0.409277,-1.1596191 0,-0.7162353 0.396875,-1.1596191 0.399975,-0.4371826 1.0604,-0.4371826 0.666626,0 1.054199,0.4247802 0.384473,0.4216797 0.384473,1.1689209 z M 74.388639,4.2298331 q -0.145728,-0.5581055 -0.703833,-0.5581055 -0.127124,0 -0.238745,0.040308 -0.111621,0.037207 -0.204639,0.1116211 -0.08992,0.071314 -0.155029,0.1736328 -0.06511,0.1023194 -0.09922,0.232544 z"
         style="stroke-width:0.264583"
         id="path1979"
         inkscape:connector-curvature="0" />
      <path
         d="m 75.864516,3.1260245 h 0.697632 v 0.269751 q 0.192236,-0.2015381 0.341064,-0.2759522 0.151929,-0.077515 0.359668,-0.077515 0.275952,0 0.576709,0.1798339 l -0.31936,0.6387207 Q 77.321791,3.718236 77.132655,3.718236 q -0.570507,0 -0.570507,0.8619629 v 1.5657958 h -0.697632 z"
         style="stroke-width:0.264583"
         id="path1981"
         inkscape:connector-curvature="0" />
      <path
         d="m 80.440983,3.1260245 h 0.700732 V 6.1459951 H 80.440983 V 5.8297354 q -0.430982,0.4030761 -0.927075,0.4030761 -0.626319,0 -1.035596,-0.4526855 -0.406177,-0.4619873 -0.406177,-1.1534179 0,-0.6790284 0.406177,-1.1317139 0.406177,-0.4526855 1.016992,-0.4526855 0.5271,0 0.945679,0.434082 z M 78.78527,4.6267081 q 0,0.434082 0.232544,0.7069335 0.238745,0.2759522 0.601514,0.2759522 0.387573,0 0.626318,-0.2666504 0.238745,-0.2759521 0.238745,-0.7007324 0,-0.4247803 -0.238745,-0.7007324 -0.238745,-0.269751 -0.620117,-0.269751 -0.359668,0 -0.601514,0.2728516 -0.238745,0.2759521 -0.238745,0.6821289 z"
         style="stroke-width:0.264583"
         id="path1983"
         inkscape:connector-curvature="0" />
      <path
         d="M 82.747819,3.7771475 V 6.1459951 H 82.050187 V 3.7771475 h -0.297656 v -0.651123 h 0.297656 V 2.0191153 h 0.697632 v 1.1069092 h 0.542602 v 0.651123 z"
         style="stroke-width:0.264583"
         id="path1985"
         inkscape:connector-curvature="0" />
      <path
         d="m 83.67179,4.6143057 q 0,-0.6542236 0.468189,-1.1131103 0.468188,-0.4588867 1.141015,-0.4588867 0.675928,0 1.147217,0.4619873 0.465088,0.4619873 0.465088,1.1348144 0,0.6790283 -0.468188,1.137915 -0.471289,0.4557861 -1.156519,0.4557861 -0.679028,0 -1.137915,-0.4650878 Q 83.67179,5.3088369 83.67179,4.6143057 Z m 0.713135,0.012402 q 0,0.4526855 0.241846,0.7162353 0.248047,0.2666504 0.654223,0.2666504 0.409278,0 0.654224,-0.2635498 0.244946,-0.2635498 0.244946,-0.703833 0,-0.4402832 -0.244946,-0.703833 -0.248047,-0.2666504 -0.654224,-0.2666504 -0.399975,0 -0.648022,0.2666504 -0.248047,0.2666504 -0.248047,0.6883301 z"
         style="stroke-width:0.264583"
         id="path1987"
         inkscape:connector-curvature="0" />
      <path
         d="m 87.634341,3.1260245 h 0.697631 v 0.269751 q 0.192237,-0.2015381 0.341065,-0.2759522 0.151929,-0.077515 0.359668,-0.077515 0.275952,0 0.576709,0.1798339 l -0.31936,0.6387207 Q 89.091616,3.7182364 88.90248,3.7182364 q -0.570508,0 -0.570508,0.8619629 v 1.5657958 h -0.697631 z"
         style="stroke-width:0.264583"
         id="path1989"
         inkscape:connector-curvature="0" />
      <path
         d="m 91.770521,3.6407217 -0.576709,0.306958 Q 91.057386,3.668627 90.855848,3.668627 q -0.09612,0 -0.164331,0.065112 -0.06821,0.062012 -0.06821,0.1612305 0,0.1736328 0.403076,0.344165 0.555005,0.2387451 0.747241,0.4402832 0.192237,0.2015381 0.192237,0.5426025 0,0.4371827 -0.322461,0.7317383 -0.313159,0.2790527 -0.756543,0.2790527 -0.759644,0 -1.075904,-0.74104 l 0.595313,-0.2759521 q 0.124023,0.217041 0.189136,0.2759521 0.127124,0.1178223 0.303857,0.1178223 0.353467,0 0.353467,-0.322461 0,-0.1860351 -0.272852,-0.3472656 -0.10542,-0.05271 -0.210839,-0.1023193 -0.10542,-0.049609 -0.213941,-0.1023193 -0.303857,-0.1488282 -0.427881,-0.2976563 -0.15813,-0.1891357 -0.15813,-0.486792 0,-0.3937744 0.269751,-0.651123 0.275952,-0.2573486 0.669727,-0.2573486 0.579809,0 0.861963,0.598413 z"
         style="stroke-width:0.264583"
         id="path1991"
         inkscape:connector-curvature="0" />
    </g>
    <path
       id="rect1740-1-5"
       style="display:inline;fill:#000000;fill-opacity:0.5;stroke:none;stroke-width:0.53;stroke-miterlimit:4;stroke-dasharray:0.53, 1.06;stroke-dashoffset:0;stroke-opacity:1"
       d="M 79.374993,21.166661 H 89.958326 V 31.749994 H 79.374993 Z"
       inkscape:connector-curvature="0" />
    <path
       id="rect1740-1-9"
       style="display:inline;fill:#000000;fill-opacity:0.5;stroke:none;stroke-width:0.53;stroke-miterlimit:4;stroke-dasharray:0.53, 1.06;stroke-dashoffset:0;stroke-opacity:1"
       d="M 79.374993,35.718737 H 89.958326 V 46.30207 H 79.374993 Z"
       inkscape:connector-curvature="0" />
    <path
       id="rect1740-1-7"
       style="display:inline;fill:#000000;fill-opacity:0.5;stroke:none;stroke-width:0.53;stroke-miterlimit:4;stroke-dasharray:0.53, 1.06;stroke-dashoffset:0;stroke-opacity:1"
       d="M 79.374993,50.378619 H 89.958326 V 60.961952 H 79.374993 Z"
       inkscape:connector-curvature="0" />
    <path
       id="rect1740-1-53"
       style="display:inline;fill:#000000;fill-opacity:0.5;stroke:none;stroke-width:0.53;stroke-miterlimit:4;stroke-dasharray:0.53, 1.06;stroke-dashoffset:0;stroke-opacity:1"
       d="M 79.374993,64.822921 H 89.958326 V 75.406254 H 79.374993 Z"
       inkscape:connector-curvature="0" />
    <path
       id="rect1740-1-90"
       style="display:inline;fill:#000000;fill-opacity:0.5;stroke:none;stroke-width:0.53;stroke-miterlimit:4;stroke-dasharray:0.53, 1.06;stroke-dashoffset:0;stroke-opacity:1"
       d="M 79.374993,79.374999 H 89.958326 V 89.958332 H 79.374993 Z"
       inkscape:connector-curvature="0" />
    <path
       id="rect1740-1-55"
       style="display:inline;fill:#000000;fill-opacity:0.5;stroke:none;stroke-width:0.53;stroke-miterlimit:4;stroke-dasharray:0.53, 1.06;stroke-dashoffset:0;stroke-opacity:1"
       d="m 79.374993,93.92707 h 10.583333 v 10.58334 H 79.374993 Z"
       inkscape:connector-curvature="0" />
    <path
       id="rect1740-1-6"
       style="display:inline;fill:#000000;fill-opacity:0.5;stroke:none;stroke-width:0.53;stroke-miterlimit:4;stroke-dasharray:0.53, 1.06;stroke-dashoffset:0;stroke-opacity:1"
       d="m 79.374993,108.47915 h 10.583333 v 10.58333 H 79.374993 Z"
       inkscape:connector-curvature="0" />
    <path
       id="rect1740-1-5-8"
       style="display:inline;fill:#000000;fill-opacity:0.5;stroke:none;stroke-width:0.53;stroke-miterlimit:4;stroke-dasharray:0.53, 1.06;stroke-dashoffset:0;stroke-opacity:1"
       d="M 92.604157,21.166657 H 103.1875 V 31.74999 H 92.604157 Z"
       inkscape:connector-curvature="0" />
    <path
       id="rect1740-1-9-5"
       style="display:inline;fill:#000000;fill-opacity:0.5;stroke:none;stroke-width:0.53;stroke-miterlimit:4;stroke-dasharray:0.53, 1.06;stroke-dashoffset:0;stroke-opacity:1"
       d="M 92.604157,35.718734 H 103.1875 V 46.302067 H 92.604157 Z"
       inkscape:connector-curvature="0" />
    <path
       id="rect1740-1-7-5"
       style="display:inline;fill:#000000;fill-opacity:0.5;stroke:none;stroke-width:0.53;stroke-miterlimit:4;stroke-dasharray:0.53, 1.06;stroke-dashoffset:0;stroke-opacity:1"
       d="M 92.604157,50.378615 H 103.1875 V 60.961948 H 92.604157 Z"
       inkscape:connector-curvature="0" />
    <path
       id="rect1740-1-53-5"
       style="display:inline;fill:#000000;fill-opacity:0.5;stroke:none;stroke-width:0.53;stroke-miterlimit:4;stroke-dasharray:0.53, 1.06;stroke-dashoffset:0;stroke-opacity:1"
       d="M 92.604157,64.822913 H 103.1875 V 75.406246 H 92.604157 Z"
       inkscape:connector-curvature="0" />
    <path
       id="rect1740-1-90-4"
       style="display:inline;fill:#000000;fill-opacity:0.5;stroke:none;stroke-width:0.53;stroke-miterlimit:4;stroke-dasharray:0.53, 1.06;stroke-dashoffset:0;stroke-opacity:1"
       d="M 92.604157,79.374991 H 103.1875 V 89.958324 H 92.604157 Z"
       inkscape:connector-curvature="0" />
    <path
       id="rect1740-1-55-2"
       style="display:inline;fill:#000000;fill-opacity:0.5;stroke:none;stroke-width:0.53;stroke-miterlimit:4;stroke-dasharray:0.53, 1.06;stroke-dashoffset:0;stroke-opacity:1"
       d="M 92.604157,93.92707 H 103.1875 v 10.58334 H 92.604157 Z"
       inkscape:connector-curvature="0" />
    <path
       id="rect1740-1-6-1"
       style="display:inline;fill:#000000;fill-opacity:0.5;stroke:none;stroke-width:0.53;stroke-miterlimit:4;stroke-dasharray:0.53, 1.06;stroke-dashoffset:0;stroke-opacity:1"
       d="M 92.604157,108.47915 H 103.1875 v 10.58333 H 92.604157 Z"
       inkscape:connector-curvature="0" />
    <path
       id="rect1740-1-5-4"
       style="display:inline;fill:#000000;fill-opacity:0.5;stroke:none;stroke-width:0.53;stroke-miterlimit:4;stroke-dasharray:0.53, 1.06;stroke-dashoffset:0;stroke-opacity:1"
       d="m 105.83333,21.166657 h 10.58333 V 31.74999 h -10.58333 z"
       inkscape:connector-curvature="0" />
    <path
       id="rect1740-1-9-58"
       style="display:inline;fill:#000000;fill-opacity:0.5;stroke:none;stroke-width:0.53;stroke-miterlimit:4;stroke-dasharray:0.53, 1.06;stroke-dashoffset:0;stroke-opacity:1"
       d="m 105.83333,35.718734 h 10.58333 v 10.583333 h -10.58333 z"
       inkscape:connector-curvature="0" />
    <path
       id="rect1740-1-7-6"
       style="display:inline;fill:#000000;fill-opacity:0.5;stroke:none;stroke-width:0.53;stroke-miterlimit:4;stroke-dasharray:0.53, 1.06;stroke-dashoffset:0;stroke-opacity:1"
       d="m 105.83333,50.378615 h 10.58333 v 10.583333 h -10.58333 z"
       inkscape:connector-curvature="0" />
    <path
       id="rect1740-1-53-2"
       style="display:inline;fill:#000000;fill-opacity:0.5;stroke:none;stroke-width:0.53;stroke-miterlimit:4;stroke-dasharray:0.53, 1.06;stroke-dashoffset:0;stroke-opacity:1"
       d="m 105.83333,64.822913 h 10.58333 v 10.583333 h -10.58333 z"
       inkscape:connector-curvature="0" />
    <path
       id="rect1740-1-90-5"
       style="display:inline;fill:#000000;fill-opacity:0.5;stroke:none;stroke-width:0.53;stroke-miterlimit:4;stroke-dasharray:0.53, 1.06;stroke-dashoffset:0;stroke-opacity:1"
       d="m 105.83333,79.374991 h 10.58333 v 10.583333 h -10.58333 z"
       inkscape:connector-curvature="0" />
    <path
       id="rect1740-1-55-1"
       style="display:inline;fill:#000000;fill-opacity:0.5;stroke:none;stroke-width:0.53;stroke-miterlimit:4;stroke-dasharray:0.53, 1.06;stroke-dashoffset:0;stroke-opacity:1"
       d="m 105.83333,93.92707 h 10.58333 v 10.58334 h -10.58333 z"
       inkscape:connector-curvature="0" />
    <path
       id="rect1740-1-6-3"
       style="display:inline;fill:#000000;fill-opacity:0.5;stroke:none;stroke-width:0.53;stroke-miterlimit:4;stroke-dasharray:0.53, 1.06;stroke-dashoffset:0;stroke-opacity:1"
       d="m 105.83333,108.47915 h 10.58333 v 10.58333 h -10.58333 z"
       inkscape:connector-curvature="0" />
    <g
       transform="translate(10.58333,0.10778629)"
       aria-label="→"
       id="text1544"
       style="font-size:3.52777px;line-height:1.25;font-family:Futura;-inkscape-font-specification:Futura;stroke-width:0.264583">
      <path
         d="m 8.853032,17.90158 q 0.2290984,0.249769 0.3961851,0.380682 0.1670868,0.129191 0.3152256,0.192925 v 0.07751 Q 9.3939108,18.635377 9.2337142,18.76457 9.0735176,18.892038 8.8513095,19.140085 H 8.7186736 Q 8.8805927,18.793857 9.0580147,18.607823 H 6.3105571 V 18.433846 H 9.0580147 Q 8.9271014,18.266759 8.8754251,18.185799 8.8237488,18.10484 8.7221187,17.90158 Z"
         style="stroke-width:0.264583"
         id="path2015"
         inkscape:connector-curvature="0" />
    </g>
    <g
       transform="translate(10.58333,0.10778629)"
       aria-label="↗ "
       id="text1548"
       style="font-size:3.52777px;line-height:1.25;font-family:Futura;-inkscape-font-specification:Futura;stroke-width:0.264583">
      <path
         d="m 28.638216,17.724156 q -0.136081,0.280775 -0.136081,0.620116 0,0.118856 0.02067,0.211873 l -0.08441,0.08785 q -0.11541,-0.227376 -0.134358,-0.525376 l -1.25918,1.259179 -0.120578,-0.120578 1.25918,-1.259179 q -0.298,-0.01723 -0.525376,-0.132636 l 0.08785,-0.08613 q 0.09474,0.02067 0.211872,0.02067 0.339342,0 0.621839,-0.136081 z"
         style="stroke-width:0.264583"
         id="path2018"
         inkscape:connector-curvature="0" />
    </g>
    <g
       transform="translate(10.58333,0.10778629)"
       aria-label="↘"
       id="text1552"
       style="font-size:3.52777px;line-height:1.25;font-family:Futura;-inkscape-font-specification:Futura;stroke-width:0.264583">
      <path
         d="m 53.382619,17.784446 0.120578,-0.120578 1.25918,1.259179 q 0.01895,-0.298 0.134358,-0.525376 l 0.08441,0.08785 q -0.02067,0.09474 -0.02067,0.211873 0,0.339341 0.136081,0.621838 l -0.05857,0.05857 q -0.282497,-0.136081 -0.621839,-0.136081 -0.117133,0 -0.211872,0.02067 l -0.08785,-0.0844 q 0.227376,-0.115411 0.525376,-0.134359 z"
         style="stroke-width:0.264583"
         id="path2021"
         inkscape:connector-curvature="0" />
    </g>
    <g
       transform="translate(10.58333,0.10778629)"
       aria-label="→ "
       id="text1556"
       style="font-size:3.52777px;line-height:1.25;font-family:Futura;-inkscape-font-specification:Futura;stroke-width:0.264583">
      <path
         d="m 75.573804,17.791709 q 0.229099,0.249769 0.396185,0.380682 0.167087,0.129191 0.315226,0.192925 v 0.07751 q -0.170532,0.08268 -0.330729,0.211873 -0.160196,0.127469 -0.382404,0.375515 h -0.132636 q 0.161919,-0.346231 0.339341,-0.532266 h -2.747458 v -0.173977 h 2.747458 q -0.130913,-0.167087 -0.18259,-0.248046 -0.05168,-0.08096 -0.153306,-0.28422 z"
         style="stroke-width:0.264583"
         id="path2024"
         inkscape:connector-curvature="0" />
    </g>
    <g
       transform="translate(10.58333,0.10778629)"
       aria-label="↗ "
       id="text1560"
       style="font-size:3.52777px;line-height:1.25;font-family:Futura;-inkscape-font-specification:Futura;stroke-width:0.264583">
      <path
         d="m 88.169464,17.724156 q -0.136081,0.280775 -0.136081,0.620116 0,0.118856 0.02067,0.211873 l -0.0844,0.08785 q -0.11541,-0.227376 -0.134358,-0.525376 l -1.25918,1.259179 -0.120578,-0.120578 1.25918,-1.259179 q -0.298,-0.01723 -0.525376,-0.132636 l 0.08785,-0.08613 q 0.09474,0.02067 0.211873,0.02067 0.339341,0 0.621838,-0.136081 z"
         style="stroke-width:0.264583"
         id="path2027"
         inkscape:connector-curvature="0" />
    </g>
    <g
       transform="translate(10.58333,0.10778629)"
       aria-label="↘ "
       id="text1564"
       style="font-size:3.52777px;line-height:1.25;font-family:Futura;-inkscape-font-specification:Futura;stroke-width:0.264583">
      <path
         d="m 99.684697,17.784446 0.120578,-0.120578 1.259185,1.259179 q 0.0189,-0.298 0.13435,-0.525376 l 0.0844,0.08785 q -0.0207,0.09474 -0.0207,0.211873 0,0.339341 0.13608,0.621838 l -0.0586,0.05857 q -0.2825,-0.136081 -0.62184,-0.136081 -0.11713,0 -0.21187,0.02067 l -0.0879,-0.0844 q 0.22738,-0.115411 0.52538,-0.134359 z"
         style="stroke-width:0.264583"
         id="path2030"
         inkscape:connector-curvature="0" />
    </g>
    <g
       transform="translate(10.58333,0.10778629)"
       aria-label="↑ "
       id="text1568"
       style="font-size:3.52777px;line-height:1.25;font-family:Futura;-inkscape-font-specification:Futura;stroke-width:0.264583">
      <path
         d="m 113.15158,17.709515 q 0.24977,-0.229099 0.37896,-0.396186 0.13091,-0.167086 0.19465,-0.315225 h 0.0792 q 0.081,0.170532 0.20843,0.330728 0.12919,0.160197 0.37724,0.382405 v 0.132636 q -0.34623,-0.161919 -0.53227,-0.339341 v 2.53903 h -0.17397 v -2.53903 q -0.16537,0.130913 -0.24805,0.182589 -0.081,0.05168 -0.28422,0.153307 z"
         style="stroke-width:0.264583"
         id="path2033"
         inkscape:connector-curvature="0" />
    </g>
    <g
       transform="translate(10.58333,0.10778629)"
       aria-label="→"
       id="text1544-6"
       style="font-size:3.52777px;line-height:1.25;font-family:Futura;-inkscape-font-specification:Futura;stroke-width:0.264583">
      <path
         d="m 8.853032,32.453664 q 0.2290984,0.249769 0.3961851,0.380682 0.1670868,0.129191 0.3152256,0.192925 v 0.07751 q -0.1705319,0.08268 -0.3307285,0.211873 -0.1601966,0.127468 -0.3824047,0.375515 H 8.7186736 Q 8.8805927,33.345941 9.0580147,33.159907 H 6.3105571 V 32.98593 H 9.0580147 Q 8.9271014,32.818843 8.8754251,32.737883 8.8237488,32.656924 8.7221187,32.453664 Z"
         style="stroke-width:0.264583"
         id="path2036"
         inkscape:connector-curvature="0" />
    </g>
    <g
       transform="translate(10.58333,0.10778629)"
       aria-label="↗ "
       id="text1548-2"
       style="font-size:3.52777px;line-height:1.25;font-family:Futura;-inkscape-font-specification:Futura;stroke-width:0.264583">
      <path
         d="m 28.638216,32.27624 q -0.136081,0.280775 -0.136081,0.620116 0,0.118856 0.02067,0.211873 l -0.08441,0.08785 q -0.11541,-0.227376 -0.134358,-0.525376 l -1.25918,1.259179 -0.120578,-0.120578 1.25918,-1.259179 q -0.298,-0.01723 -0.525376,-0.132636 l 0.08785,-0.08613 q 0.09474,0.02067 0.211872,0.02067 0.339342,0 0.621839,-0.136081 z"
         style="stroke-width:0.264583"
         id="path2039"
         inkscape:connector-curvature="0" />
    </g>
    <g
       transform="translate(10.58333,0.10778629)"
       aria-label="↘"
       id="text1552-4"
       style="font-size:3.52777px;line-height:1.25;font-family:Futura;-inkscape-font-specification:Futura;stroke-width:0.264583">
      <path
         d="m 53.382623,32.336528 0.120578,-0.120578 1.25918,1.259179 q 0.01895,-0.298 0.134358,-0.525376 l 0.08441,0.08785 q -0.02067,0.09474 -0.02067,0.211873 0,0.339341 0.136081,0.621838 l -0.05857,0.05857 Q 54.75549,33.7938 54.416149,33.7938 q -0.117133,0 -0.211873,0.02067 l -0.08785,-0.0844 q 0.227375,-0.115411 0.525376,-0.134359 z"
         style="stroke-width:0.264583"
         id="path2042"
         inkscape:connector-curvature="0" />
    </g>
    <g
       transform="translate(10.58333,0.10778629)"
       aria-label="→ "
       id="text1556-5"
       style="font-size:3.52777px;line-height:1.25;font-family:Futura;-inkscape-font-specification:Futura;stroke-width:0.264583">
      <path
         d="m 75.573804,32.343793 q 0.229099,0.249769 0.396185,0.380682 0.167087,0.129191 0.315226,0.192925 v 0.07751 q -0.170532,0.08268 -0.330729,0.211873 -0.160196,0.127469 -0.382404,0.375515 h -0.132636 q 0.161919,-0.346231 0.339341,-0.532266 h -2.747458 v -0.173977 h 2.747458 q -0.130913,-0.167087 -0.18259,-0.248047 -0.05168,-0.08096 -0.153306,-0.284219 z"
         style="stroke-width:0.264583"
         id="path2045"
         inkscape:connector-curvature="0" />
    </g>
    <g
       transform="translate(10.58333,0.10778629)"
       aria-label="↗ "
       id="text1560-7"
       style="font-size:3.52777px;line-height:1.25;font-family:Futura;-inkscape-font-specification:Futura;stroke-width:0.264583">
      <path
         d="m 88.169464,32.27624 q -0.136081,0.280775 -0.136081,0.620116 0,0.118856 0.02067,0.211873 l -0.0844,0.08785 q -0.11541,-0.227376 -0.134358,-0.525376 l -1.25918,1.259179 -0.120578,-0.120578 1.25918,-1.259179 q -0.298,-0.01723 -0.525376,-0.132636 l 0.08785,-0.08613 q 0.09474,0.02067 0.211873,0.02067 0.339341,0 0.621838,-0.136081 z"
         style="stroke-width:0.264583"
         id="path2048"
         inkscape:connector-curvature="0" />
    </g>
    <g
       transform="translate(10.58333,0.10778629)"
       aria-label="↘ "
       id="text1564-3"
       style="font-size:3.52777px;line-height:1.25;font-family:Futura;-inkscape-font-specification:Futura;stroke-width:0.264583">
      <path
         d="m 99.684697,32.336528 0.120578,-0.120578 1.259185,1.259179 q 0.0189,-0.298 0.13435,-0.525376 l 0.0844,0.08785 q -0.0207,0.09474 -0.0207,0.211873 0,0.339341 0.13608,0.621838 l -0.0586,0.05857 q -0.2825,-0.136081 -0.62184,-0.136081 -0.11713,0 -0.21187,0.02067 l -0.0879,-0.0844 q 0.22738,-0.115411 0.52538,-0.134359 z"
         style="stroke-width:0.264583"
         id="path2051"
         inkscape:connector-curvature="0" />
    </g>
    <g
       transform="translate(10.58333,0.10778629)"
       aria-label="↑ "
       id="text1568-0"
       style="font-size:3.52777px;line-height:1.25;font-family:Futura;-inkscape-font-specification:Futura;stroke-width:0.264583">
      <path
         d="m 113.15158,32.261598 q 0.24977,-0.229098 0.37896,-0.396185 0.13091,-0.167086 0.19465,-0.315225 h 0.0792 q 0.081,0.170532 0.20843,0.330728 0.12919,0.160197 0.37724,0.382405 v 0.132636 q -0.34623,-0.161919 -0.53227,-0.339341 v 2.53903 h -0.17397 v -2.53903 q -0.16537,0.130913 -0.24805,0.182589 -0.081,0.05168 -0.28422,0.153307 z"
         style="stroke-width:0.264583"
         id="path2054"
         inkscape:connector-curvature="0" />
    </g>
    <g
       transform="translate(10.58333,0.10778629)"
       aria-label="→"
       id="text1544-5"
       style="font-size:3.52777px;line-height:1.25;font-family:Futura;-inkscape-font-specification:Futura;stroke-width:0.264583">
      <path
         d="m 8.853032,47.005746 q 0.2290984,0.249769 0.3961851,0.380682 0.1670868,0.129191 0.3152256,0.192925 v 0.07751 Q 9.3939108,47.739549 9.2337142,47.86874 9.0735176,47.996208 8.8513095,48.244255 H 8.7186736 Q 8.8805927,47.898023 9.0580147,47.711989 H 6.3105571 V 47.538012 H 9.0580147 Q 8.9271014,47.370925 8.8754251,47.289965 8.8237488,47.209006 8.7221187,47.005746 Z"
         style="stroke-width:0.264583"
         id="path2057"
         inkscape:connector-curvature="0" />
    </g>
    <g
       transform="translate(10.58333,0.10778629)"
       aria-label="↗ "
       id="text1548-3"
       style="font-size:3.52777px;line-height:1.25;font-family:Futura;-inkscape-font-specification:Futura;stroke-width:0.264583">
      <path
         d="m 28.638216,46.828322 q -0.136081,0.280775 -0.136081,0.620116 0,0.118856 0.02067,0.211873 l -0.08441,0.08785 q -0.11541,-0.227376 -0.134358,-0.525376 l -1.25918,1.259179 -0.120578,-0.120578 1.25918,-1.259179 q -0.298,-0.01723 -0.525376,-0.132636 l 0.08785,-0.08613 q 0.09474,0.02067 0.211872,0.02067 0.339342,0 0.621839,-0.136081 z"
         style="stroke-width:0.264583"
         id="path2060"
         inkscape:connector-curvature="0" />
    </g>
    <g
       transform="translate(10.58333,0.10778629)"
       aria-label="↘"
       id="text1552-6"
       style="font-size:3.52777px;line-height:1.25;font-family:Futura;-inkscape-font-specification:Futura;stroke-width:0.264583">
      <path
         d="m 53.382623,46.888614 0.120578,-0.120578 1.25918,1.259179 q 0.01895,-0.298 0.134358,-0.525376 l 0.08441,0.08785 q -0.02067,0.09474 -0.02067,0.211873 0,0.339341 0.136081,0.621838 l -0.05857,0.05857 q -0.282498,-0.136081 -0.621839,-0.136081 -0.117133,0 -0.211873,0.02067 l -0.08785,-0.0844 q 0.227375,-0.115411 0.525376,-0.134359 z"
         style="stroke-width:0.264583"
         id="path2063"
         inkscape:connector-curvature="0" />
    </g>
    <g
       transform="translate(10.58333,0.10778629)"
       aria-label="→ "
       id="text1556-9"
       style="font-size:3.52777px;line-height:1.25;font-family:Futura;-inkscape-font-specification:Futura;stroke-width:0.264583">
      <path
         d="m 75.573804,46.895875 q 0.229099,0.249769 0.396185,0.380682 0.167087,0.129191 0.315226,0.192925 v 0.07751 q -0.170532,0.08268 -0.330729,0.211873 -0.160196,0.127469 -0.382404,0.375515 h -0.132636 q 0.161919,-0.346231 0.339341,-0.532266 h -2.747458 v -0.173977 h 2.747458 q -0.130913,-0.167087 -0.18259,-0.248046 -0.05168,-0.08096 -0.153306,-0.28422 z"
         style="stroke-width:0.264583"
         id="path2066"
         inkscape:connector-curvature="0" />
    </g>
    <g
       transform="translate(10.58333,0.10778629)"
       aria-label="↗ "
       id="text1560-4"
       style="font-size:3.52777px;line-height:1.25;font-family:Futura;-inkscape-font-specification:Futura;stroke-width:0.264583">
      <path
         d="m 88.169464,46.828322 q -0.136081,0.280775 -0.136081,0.620116 0,0.118856 0.02067,0.211873 l -0.0844,0.08785 q -0.11541,-0.227376 -0.134358,-0.525376 l -1.25918,1.259179 -0.120578,-0.120578 1.25918,-1.259179 q -0.298,-0.01723 -0.525376,-0.132636 l 0.08785,-0.08613 q 0.09474,0.02067 0.211873,0.02067 0.339341,0 0.621838,-0.136081 z"
         style="stroke-width:0.264583"
         id="path2069"
         inkscape:connector-curvature="0" />
    </g>
    <g
       transform="translate(10.58333,0.10778629)"
       aria-label="↘ "
       id="text1564-8"
       style="font-size:3.52777px;line-height:1.25;font-family:Futura;-inkscape-font-specification:Futura;stroke-width:0.264583">
      <path
         d="m 99.684697,46.888614 0.120578,-0.120578 1.259185,1.259179 q 0.0189,-0.298 0.13435,-0.525376 l 0.0844,0.08785 q -0.0207,0.09474 -0.0207,0.211873 0,0.339341 0.13608,0.621838 l -0.0586,0.05857 q -0.2825,-0.136081 -0.62184,-0.136081 -0.11713,0 -0.21187,0.02067 l -0.0879,-0.0844 q 0.22738,-0.115411 0.52538,-0.134359 z"
         style="stroke-width:0.264583"
         id="path2072"
         inkscape:connector-curvature="0" />
    </g>
    <g
       transform="translate(10.58333,0.10778629)"
       aria-label="↑ "
       id="text1568-1"
       style="font-size:3.52777px;line-height:1.25;font-family:Futura;-inkscape-font-specification:Futura;stroke-width:0.264583">
      <path
         d="m 113.15158,46.813681 q 0.24977,-0.229099 0.37896,-0.396186 0.13091,-0.167086 0.19465,-0.315225 h 0.0792 q 0.081,0.170532 0.20843,0.330728 0.12919,0.160197 0.37724,0.382405 v 0.132636 q -0.34623,-0.161919 -0.53227,-0.339341 v 2.53903 h -0.17397 v -2.53903 q -0.16537,0.130913 -0.24805,0.182589 -0.081,0.05168 -0.28422,0.153307 z"
         style="stroke-width:0.264583"
         id="path2075"
         inkscape:connector-curvature="0" />
    </g>
    <g
       transform="translate(10.58333,0.10778629)"
       aria-label="→"
       id="text1544-3"
       style="font-size:3.52777px;line-height:1.25;font-family:Futura;-inkscape-font-specification:Futura;stroke-width:0.264583">
      <path
         d="m 8.853032,61.557828 q 0.2290984,0.249769 0.3961851,0.380682 0.1670868,0.129191 0.3152256,0.192925 v 0.07751 q -0.1705319,0.08268 -0.3307285,0.211873 -0.1601966,0.127469 -0.3824047,0.375515 H 8.7186736 Q 8.8805927,62.450106 9.0580147,62.264071 H 6.3105571 V 62.090094 H 9.0580147 Q 8.9271014,61.923007 8.8754251,61.842048 8.8237488,61.761088 8.7221187,61.557828 Z"
         style="stroke-width:0.264583"
         id="path2078"
         inkscape:connector-curvature="0" />
    </g>
    <g
       transform="translate(10.58333,0.10778629)"
       aria-label="↗ "
       id="text1548-4"
       style="font-size:3.52777px;line-height:1.25;font-family:Futura;-inkscape-font-specification:Futura;stroke-width:0.264583">
      <path
         d="m 28.638216,61.380404 q -0.136081,0.280775 -0.136081,0.620116 0,0.118856 0.02067,0.211873 l -0.08441,0.08785 q -0.11541,-0.227376 -0.134358,-0.525376 l -1.25918,1.25918 -0.120578,-0.120579 1.25918,-1.259179 q -0.298,-0.01723 -0.525376,-0.132636 l 0.08785,-0.08613 q 0.09474,0.02067 0.211872,0.02067 0.339342,0 0.621839,-0.136081 z"
         style="stroke-width:0.264583"
         id="path2081"
         inkscape:connector-curvature="0" />
    </g>
    <g
       transform="translate(10.58333,0.10778629)"
       aria-label="↘"
       id="text1552-5"
       style="font-size:3.52777px;line-height:1.25;font-family:Futura;-inkscape-font-specification:Futura;stroke-width:0.264583">
      <path
         d="m 53.382623,61.440696 0.120578,-0.120578 1.25918,1.259179 q 0.01895,-0.298 0.134358,-0.525376 l 0.08441,0.08785 q -0.02067,0.09474 -0.02067,0.211873 0,0.339341 0.136081,0.621838 l -0.05857,0.05857 q -0.282498,-0.136081 -0.621839,-0.136081 -0.117133,0 -0.211873,0.02067 l -0.08785,-0.0844 q 0.227375,-0.115411 0.525376,-0.134359 z"
         style="stroke-width:0.264583"
         id="path2084"
         inkscape:connector-curvature="0" />
    </g>
    <g
       transform="translate(10.58333,0.10778629)"
       aria-label="→ "
       id="text1556-0"
       style="font-size:3.52777px;line-height:1.25;font-family:Futura;-inkscape-font-specification:Futura;stroke-width:0.264583">
      <path
         d="m 75.573804,61.447957 q 0.229099,0.249769 0.396185,0.380682 0.167087,0.129191 0.315226,0.192925 v 0.07751 q -0.170532,0.08268 -0.330729,0.211873 -0.160196,0.127469 -0.382404,0.375515 h -0.132636 q 0.161919,-0.346231 0.339341,-0.532266 h -2.747458 v -0.173977 h 2.747458 q -0.130913,-0.167087 -0.18259,-0.248046 -0.05168,-0.08096 -0.153306,-0.28422 z"
         style="stroke-width:0.264583"
         id="path2087"
         inkscape:connector-curvature="0" />
    </g>
    <g
       transform="translate(10.58333,0.10778629)"
       aria-label="↗ "
       id="text1560-40"
       style="font-size:3.52777px;line-height:1.25;font-family:Futura;-inkscape-font-specification:Futura;stroke-width:0.264583">
      <path
         d="m 88.169464,61.380404 q -0.136081,0.280775 -0.136081,0.620116 0,0.118856 0.02067,0.211873 l -0.0844,0.08785 q -0.11541,-0.227376 -0.134358,-0.525376 l -1.25918,1.25918 -0.120578,-0.120579 1.25918,-1.259179 q -0.298,-0.01723 -0.525376,-0.132636 l 0.08785,-0.08613 q 0.09474,0.02067 0.211873,0.02067 0.339341,0 0.621838,-0.136081 z"
         style="stroke-width:0.264583"
         id="path2090"
         inkscape:connector-curvature="0" />
    </g>
    <g
       transform="translate(10.58333,0.10778629)"
       aria-label="↘ "
       id="text1564-5"
       style="font-size:3.52777px;line-height:1.25;font-family:Futura;-inkscape-font-specification:Futura;stroke-width:0.264583">
      <path
         d="m 99.684697,61.440696 0.120578,-0.120578 1.259185,1.259179 q 0.0189,-0.298 0.13435,-0.525376 l 0.0844,0.08785 q -0.0207,0.09474 -0.0207,0.211873 0,0.339341 0.13608,0.621838 l -0.0586,0.05857 q -0.2825,-0.136081 -0.62184,-0.136081 -0.11713,0 -0.21187,0.02067 l -0.0879,-0.0844 q 0.22738,-0.115411 0.52538,-0.134359 z"
         style="stroke-width:0.264583"
         id="path2093"
         inkscape:connector-curvature="0" />
    </g>
    <g
       transform="translate(10.58333,0.10778629)"
       aria-label="↑ "
       id="text1568-06"
       style="font-size:3.52777px;line-height:1.25;font-family:Futura;-inkscape-font-specification:Futura;stroke-width:0.264583">
      <path
         d="m 113.15158,61.365763 q 0.24977,-0.229099 0.37896,-0.396186 0.13091,-0.167086 0.19465,-0.315225 h 0.0792 q 0.081,0.170532 0.20843,0.330728 0.12919,0.160197 0.37724,0.382405 v 0.132636 q -0.34623,-0.161919 -0.53227,-0.339341 v 2.53903 h -0.17397 v -2.53903 q -0.16537,0.130913 -0.24805,0.18259 -0.081,0.05168 -0.28422,0.153306 z"
         style="stroke-width:0.264583"
         id="path2096"
         inkscape:connector-curvature="0" />
    </g>
    <g
       transform="translate(10.58333,0.10778629)"
       aria-label="→"
       id="text1544-7"
       style="font-size:3.52777px;line-height:1.25;font-family:Futura;-inkscape-font-specification:Futura;stroke-width:0.264583">
      <path
         d="m 8.853032,76.10991 q 0.2290984,0.249769 0.3961851,0.380682 0.1670868,0.129191 0.3152256,0.192925 v 0.07751 Q 9.3939108,76.843707 9.2337142,76.9729 9.0735176,77.100369 8.8513095,77.348415 H 8.7186736 Q 8.8805927,77.002188 9.0580147,76.816153 H 6.3105571 V 76.642176 H 9.0580147 Q 8.9271014,76.475089 8.8754251,76.39413 8.8237488,76.31317 8.7221187,76.10991 Z"
         style="stroke-width:0.264583"
         id="path2099"
         inkscape:connector-curvature="0" />
    </g>
    <g
       transform="translate(10.58333,0.10778629)"
       aria-label="↗ "
       id="text1548-40"
       style="font-size:3.52777px;line-height:1.25;font-family:Futura;-inkscape-font-specification:Futura;stroke-width:0.264583">
      <path
         d="m 28.638216,75.93249 q -0.136081,0.280775 -0.136081,0.620116 0,0.118856 0.02067,0.211873 l -0.08441,0.08785 q -0.11541,-0.227376 -0.134358,-0.525376 l -1.25918,1.259179 -0.120578,-0.120578 1.25918,-1.259179 q -0.298,-0.01723 -0.525376,-0.132636 l 0.08785,-0.08613 q 0.09474,0.02067 0.211872,0.02067 0.339342,0 0.621839,-0.136081 z"
         style="stroke-width:0.264583"
         id="path2102"
         inkscape:connector-curvature="0" />
    </g>
    <g
       transform="translate(10.58333,0.10778629)"
       aria-label="↘"
       id="text1552-2"
       style="font-size:3.52777px;line-height:1.25;font-family:Futura;-inkscape-font-specification:Futura;stroke-width:0.264583">
      <path
         d="m 53.382623,75.992782 0.120578,-0.120579 1.25918,1.25918 q 0.01895,-0.298 0.134358,-0.525376 l 0.08441,0.08785 q -0.02067,0.09474 -0.02067,0.211873 0,0.339341 0.136081,0.621838 l -0.05857,0.05857 q -0.282498,-0.136081 -0.621839,-0.136081 -0.117133,0 -0.211873,0.02067 l -0.08785,-0.0844 q 0.227375,-0.115411 0.525376,-0.134359 z"
         style="stroke-width:0.264583"
         id="path2105"
         inkscape:connector-curvature="0" />
    </g>
    <g
       transform="translate(10.58333,0.10778629)"
       aria-label="→ "
       id="text1556-4"
       style="font-size:3.52777px;line-height:1.25;font-family:Futura;-inkscape-font-specification:Futura;stroke-width:0.264583">
      <path
         d="m 75.573804,76.000039 q 0.229099,0.249769 0.396185,0.380682 0.167087,0.129191 0.315226,0.192925 v 0.07752 q -0.170532,0.08268 -0.330729,0.211872 -0.160196,0.127469 -0.382404,0.375515 h -0.132636 q 0.161919,-0.346231 0.339341,-0.532266 H 73.031329 V 76.53231 h 2.747458 q -0.130913,-0.167087 -0.18259,-0.248046 -0.05168,-0.08096 -0.153306,-0.28422 z"
         style="stroke-width:0.264583"
         id="path2108"
         inkscape:connector-curvature="0" />
    </g>
    <g
       transform="translate(10.58333,0.10778629)"
       aria-label="↗ "
       id="text1560-5"
       style="font-size:3.52777px;line-height:1.25;font-family:Futura;-inkscape-font-specification:Futura;stroke-width:0.264583">
      <path
         d="m 88.169464,75.93249 q -0.136081,0.280775 -0.136081,0.620116 0,0.118856 0.02067,0.211873 l -0.0844,0.08785 q -0.11541,-0.227376 -0.134358,-0.525376 l -1.25918,1.259179 -0.120578,-0.120578 1.25918,-1.259179 q -0.298,-0.01723 -0.525376,-0.132636 l 0.08785,-0.08613 q 0.09474,0.02067 0.211873,0.02067 0.339341,0 0.621838,-0.136081 z"
         style="stroke-width:0.264583"
         id="path2111"
         inkscape:connector-curvature="0" />
    </g>
    <g
       transform="translate(10.58333,0.10778629)"
       aria-label="↘ "
       id="text1564-9"
       style="font-size:3.52777px;line-height:1.25;font-family:Futura;-inkscape-font-specification:Futura;stroke-width:0.264583">
      <path
         d="m 99.684697,75.992782 0.120578,-0.120579 1.259185,1.25918 q 0.0189,-0.298 0.13435,-0.525376 l 0.0844,0.08785 q -0.0207,0.09474 -0.0207,0.211873 0,0.339341 0.13608,0.621838 l -0.0586,0.05857 q -0.2825,-0.136081 -0.62184,-0.136081 -0.11713,0 -0.21187,0.02067 l -0.0879,-0.0844 q 0.22738,-0.115411 0.52538,-0.134359 z"
         style="stroke-width:0.264583"
         id="path2114"
         inkscape:connector-curvature="0" />
    </g>
    <g
       transform="translate(10.58333,0.10778629)"
       aria-label="↑ "
       id="text1568-3"
       style="font-size:3.52777px;line-height:1.25;font-family:Futura;-inkscape-font-specification:Futura;stroke-width:0.264583">
      <path
         d="m 113.15158,75.917848 q 0.24977,-0.229098 0.37896,-0.396185 0.13091,-0.167086 0.19465,-0.315225 h 0.0792 q 0.081,0.170532 0.20843,0.330728 0.12919,0.160197 0.37724,0.382405 v 0.132636 q -0.34623,-0.161919 -0.53227,-0.339341 v 2.53903 h -0.17397 v -2.53903 q -0.16537,0.130913 -0.24805,0.182589 -0.081,0.05168 -0.28422,0.153307 z"
         style="stroke-width:0.264583"
         id="path2118"
         inkscape:connector-curvature="0" />
    </g>
    <g
       transform="translate(10.58333,0.10778629)"
       aria-label="→"
       id="text1544-73"
       style="font-size:3.52777px;line-height:1.25;font-family:Futura;-inkscape-font-specification:Futura;stroke-width:0.264583">
      <path
         d="m 8.853032,90.661996 q 0.2290984,0.249769 0.3961851,0.380682 0.1670868,0.129191 0.3152256,0.192925 v 0.07751 Q 9.3939108,91.395799 9.2337142,91.52499 9.0735176,91.652458 8.8513095,91.900505 H 8.7186736 Q 8.8805927,91.554273 9.0580147,91.368239 H 6.3105571 V 91.194262 H 9.0580147 Q 8.9271014,91.027175 8.8754251,90.946215 8.8237488,90.865256 8.7221187,90.661996 Z"
         style="stroke-width:0.264583"
         id="path2122"
         inkscape:connector-curvature="0" />
    </g>
    <g
       transform="translate(10.58333,0.10778629)"
       aria-label="↗ "
       id="text1548-5"
       style="font-size:3.52777px;line-height:1.25;font-family:Futura;-inkscape-font-specification:Futura;stroke-width:0.264583">
      <path
         d="m 28.638216,90.484576 q -0.136081,0.280775 -0.136081,0.620116 0,0.118855 0.02067,0.211873 l -0.08441,0.08785 q -0.11541,-0.227376 -0.134358,-0.525376 l -1.25918,1.259179 -0.120578,-0.120578 1.25918,-1.259179 q -0.298,-0.01723 -0.525376,-0.132636 l 0.08785,-0.08613 q 0.09474,0.02067 0.211872,0.02067 0.339342,0 0.621839,-0.136081 z"
         style="stroke-width:0.264583"
         id="path2125"
         inkscape:connector-curvature="0" />
    </g>
    <g
       transform="translate(10.58333,0.10778629)"
       aria-label="↘"
       id="text1552-3"
       style="font-size:3.52777px;line-height:1.25;font-family:Futura;-inkscape-font-specification:Futura;stroke-width:0.264583">
      <path
         d="m 53.382623,90.54486 0.120578,-0.120578 1.25918,1.259179 q 0.01895,-0.298 0.134358,-0.525376 l 0.08441,0.08785 q -0.02067,0.09474 -0.02067,0.211873 0,0.339341 0.136081,0.621838 l -0.05857,0.05857 q -0.282498,-0.136081 -0.621839,-0.136081 -0.117133,0 -0.211873,0.02067 l -0.08785,-0.0844 q 0.227375,-0.115411 0.525376,-0.134359 z"
         style="stroke-width:0.264583"
         id="path2128"
         inkscape:connector-curvature="0" />
    </g>
    <g
       transform="translate(10.58333,0.10778629)"
       aria-label="→ "
       id="text1556-6"
       style="font-size:3.52777px;line-height:1.25;font-family:Futura;-inkscape-font-specification:Futura;stroke-width:0.264583">
      <path
         d="m 75.573804,90.552125 q 0.229099,0.249769 0.396185,0.380682 0.167087,0.129191 0.315226,0.192925 v 0.07751 q -0.170532,0.08268 -0.330729,0.211873 -0.160196,0.127469 -0.382404,0.375515 h -0.132636 q 0.161919,-0.346231 0.339341,-0.532266 h -2.747458 v -0.173977 h 2.747458 q -0.130913,-0.167087 -0.18259,-0.248046 -0.05168,-0.08096 -0.153306,-0.28422 z"
         style="stroke-width:0.264583"
         id="path2131"
         inkscape:connector-curvature="0" />
    </g>
    <g
       transform="translate(10.58333,0.10778629)"
       aria-label="↗ "
       id="text1560-405"
       style="font-size:3.52777px;line-height:1.25;font-family:Futura;-inkscape-font-specification:Futura;stroke-width:0.264583">
      <path
         d="m 88.169464,90.484576 q -0.136081,0.280775 -0.136081,0.620116 0,0.118855 0.02067,0.211873 l -0.0844,0.08785 q -0.11541,-0.227376 -0.134358,-0.525376 l -1.25918,1.259179 -0.120578,-0.120578 1.25918,-1.259179 q -0.298,-0.01723 -0.525376,-0.132636 l 0.08785,-0.08613 q 0.09474,0.02067 0.211873,0.02067 0.339341,0 0.621838,-0.136081 z"
         style="stroke-width:0.264583"
         id="path2134"
         inkscape:connector-curvature="0" />
    </g>
    <g
       transform="translate(10.58333,0.10778629)"
       aria-label="↘ "
       id="text1564-85"
       style="font-size:3.52777px;line-height:1.25;font-family:Futura;-inkscape-font-specification:Futura;stroke-width:0.264583">
      <path
         d="m 99.684697,90.54486 0.120578,-0.120578 1.259185,1.259179 q 0.0189,-0.298 0.13435,-0.525376 l 0.0844,0.08785 q -0.0207,0.09474 -0.0207,0.211873 0,0.339341 0.13608,0.621838 l -0.0586,0.05857 q -0.2825,-0.136081 -0.62184,-0.136081 -0.11713,0 -0.21187,0.02067 l -0.0879,-0.0844 q 0.22738,-0.115411 0.52538,-0.134359 z"
         style="stroke-width:0.264583"
         id="path2137"
         inkscape:connector-curvature="0" />
    </g>
    <g
       transform="translate(10.58333,0.10778629)"
       aria-label="↑ "
       id="text1568-7"
       style="font-size:3.52777px;line-height:1.25;font-family:Futura;-inkscape-font-specification:Futura;stroke-width:0.264583">
      <path
         d="m 113.15158,90.469934 q 0.24977,-0.229098 0.37896,-0.396185 0.13091,-0.167087 0.19465,-0.315225 h 0.0792 q 0.081,0.170532 0.20843,0.330728 0.12919,0.160197 0.37724,0.382405 v 0.132636 q -0.34623,-0.161919 -0.53227,-0.339341 v 2.539029 h -0.17397 v -2.539029 q -0.16537,0.130913 -0.24805,0.182589 -0.081,0.05168 -0.28422,0.153307 z"
         style="stroke-width:0.264583"
         id="path2140"
         inkscape:connector-curvature="0" />
    </g>
    <g
       transform="translate(10.58333,0.10778629)"
       aria-label="→"
       id="text1544-8"
       style="font-size:3.52777px;line-height:1.25;font-family:Futura;-inkscape-font-specification:Futura;stroke-width:0.264583">
      <path
         d="m 8.853032,105.21408 q 0.2290984,0.24977 0.3961851,0.38068 0.1670868,0.12919 0.3152256,0.19293 v 0.0775 q -0.1705319,0.0827 -0.3307285,0.21188 -0.1601966,0.12746 -0.3824047,0.37551 H 8.7186736 q 0.1619191,-0.34623 0.3393411,-0.53227 H 6.3105571 v -0.17397 h 2.7474576 q -0.1309133,-0.16709 -0.1825896,-0.24805 -0.051676,-0.081 -0.1533064,-0.28422 z"
         style="stroke-width:0.264583"
         id="path2143"
         inkscape:connector-curvature="0" />
    </g>
    <g
       transform="translate(10.58333,0.10778629)"
       aria-label="↗ "
       id="text1548-1"
       style="font-size:3.52777px;line-height:1.25;font-family:Futura;-inkscape-font-specification:Futura;stroke-width:0.264583">
      <path
         d="m 28.638216,105.03665 q -0.136081,0.28078 -0.136081,0.62012 0,0.11886 0.02067,0.21187 l -0.08441,0.0879 q -0.11541,-0.22737 -0.134358,-0.52537 l -1.25918,1.25918 -0.120578,-0.12058 1.25918,-1.25918 q -0.298,-0.0172 -0.525376,-0.13264 l 0.08785,-0.0861 q 0.09474,0.0207 0.211872,0.0207 0.339342,0 0.621839,-0.13608 z"
         style="stroke-width:0.264583"
         id="path2146"
         inkscape:connector-curvature="0" />
    </g>
    <g
       transform="translate(10.58333,0.10778629)"
       aria-label="↘"
       id="text1552-49"
       style="font-size:3.52777px;line-height:1.25;font-family:Futura;-inkscape-font-specification:Futura;stroke-width:0.264583">
      <path
         d="m 53.382623,105.09695 0.120578,-0.12057 1.25918,1.25917 q 0.01895,-0.298 0.134358,-0.52537 l 0.08441,0.0879 q -0.02067,0.0947 -0.02067,0.21187 0,0.33934 0.136081,0.62184 l -0.05857,0.0586 q -0.282498,-0.13608 -0.621839,-0.13608 -0.117133,0 -0.211873,0.0207 l -0.08785,-0.0844 q 0.227375,-0.11541 0.525376,-0.13436 z"
         style="stroke-width:0.264583"
         id="path2149"
         inkscape:connector-curvature="0" />
    </g>
    <g
       transform="translate(10.58333,0.10778629)"
       aria-label="→ "
       id="text1556-3"
       style="font-size:3.52777px;line-height:1.25;font-family:Futura;-inkscape-font-specification:Futura;stroke-width:0.264583">
      <path
         d="m 75.573804,105.10421 q 0.229099,0.24977 0.396185,0.38068 0.167087,0.12919 0.315226,0.19293 v 0.0775 q -0.170532,0.0827 -0.330729,0.21188 -0.160196,0.12746 -0.382404,0.37551 h -0.132636 q 0.161919,-0.34623 0.339341,-0.53227 h -2.747458 v -0.17397 h 2.747458 q -0.130913,-0.16709 -0.18259,-0.24805 -0.05168,-0.081 -0.153306,-0.28422 z"
         style="stroke-width:0.264583"
         id="path2152"
         inkscape:connector-curvature="0" />
    </g>
    <g
       transform="translate(10.58333,0.10778629)"
       aria-label="↗ "
       id="text1560-2"
       style="font-size:3.52777px;line-height:1.25;font-family:Futura;-inkscape-font-specification:Futura;stroke-width:0.264583">
      <path
         d="m 88.169464,105.03665 q -0.136081,0.28078 -0.136081,0.62012 0,0.11886 0.02067,0.21187 l -0.0844,0.0879 q -0.11541,-0.22737 -0.134358,-0.52537 l -1.25918,1.25918 -0.120578,-0.12058 1.25918,-1.25918 q -0.298,-0.0172 -0.525376,-0.13264 l 0.08785,-0.0861 q 0.09474,0.0207 0.211873,0.0207 0.339341,0 0.621838,-0.13608 z"
         style="stroke-width:0.264583"
         id="path2155"
         inkscape:connector-curvature="0" />
    </g>
    <g
       transform="translate(10.58333,0.10778629)"
       aria-label="↘ "
       id="text1564-7"
       style="font-size:3.52777px;line-height:1.25;font-family:Futura;-inkscape-font-specification:Futura;stroke-width:0.264583">
      <path
         d="m 99.684697,105.09695 0.120578,-0.12057 1.259185,1.25917 q 0.0189,-0.298 0.13435,-0.52537 l 0.0844,0.0879 q -0.0207,0.0947 -0.0207,0.21187 0,0.33934 0.13608,0.62184 l -0.0586,0.0586 q -0.2825,-0.13608 -0.62184,-0.13608 -0.11713,0 -0.21187,0.0207 l -0.0879,-0.0844 q 0.22738,-0.11541 0.52538,-0.13436 z"
         style="stroke-width:0.264583"
         id="path2158"
         inkscape:connector-curvature="0" />
    </g>
    <g
       transform="translate(10.58333,0.10778629)"
       aria-label="↑ "
       id="text1568-8"
       style="font-size:3.52777px;line-height:1.25;font-family:Futura;-inkscape-font-specification:Futura;stroke-width:0.264583">
      <path
         d="m 113.15158,105.02201 q 0.24977,-0.2291 0.37896,-0.39618 0.13091,-0.16709 0.19465,-0.31523 h 0.0792 q 0.081,0.17053 0.20843,0.33073 0.12919,0.1602 0.37724,0.38241 v 0.13263 q -0.34623,-0.16192 -0.53227,-0.33934 v 2.53903 h -0.17397 v -2.53903 q -0.16537,0.13091 -0.24805,0.18259 -0.081,0.0517 -0.28422,0.15331 z"
         style="stroke-width:0.264583"
         id="path2161"
         inkscape:connector-curvature="0" />
    </g>
    <g
       transform="translate(10.58333,0.10778629)"
       aria-label="→"
       id="text1544-74"
       style="font-size:3.52778px;line-height:1.25;font-family:Futura;-inkscape-font-specification:Futura;stroke-width:0.264583">
      <path
         d="m 8.8530396,119.76616 q 0.229099,0.24977 0.3961863,0.38068 0.1670872,0.12919 0.3152264,0.19292 v 0.0775 q -0.1705323,0.0827 -0.3307294,0.21187 -0.160197,0.12747 -0.3824058,0.37552 H 8.7186808 q 0.1619196,-0.34623 0.3393421,-0.53227 H 6.3105575 v -0.17398 h 2.7474654 q -0.1309137,-0.16708 -0.1825901,-0.24804 -0.051677,-0.081 -0.1533069,-0.28422 z"
         style="stroke-width:0.264583"
         id="path2164"
         inkscape:connector-curvature="0" />
    </g>
    <g
       transform="translate(10.58333,0.10778629)"
       aria-label="↗ "
       id="text1548-405"
       style="font-size:3.52778px;line-height:1.25;font-family:Futura;-inkscape-font-specification:Futura;stroke-width:0.264583">
      <path
         d="m 28.638223,119.58873 q -0.136082,0.28077 -0.136082,0.62011 0,0.11886 0.02067,0.21188 l -0.0844,0.0879 Q 28.323,120.28124 28.304052,119.98324 l -1.259183,1.25918 -0.120579,-0.12057 1.259184,-1.25919 q -0.298001,-0.0172 -0.525378,-0.13263 l 0.08785,-0.0861 q 0.09474,0.0207 0.211874,0.0207 0.339342,0 0.62184,-0.13608 z"
         style="stroke-width:0.264583"
         id="path2167"
         inkscape:connector-curvature="0" />
    </g>
    <g
       transform="translate(10.58333,0.10778629)"
       aria-label="↘"
       id="text1552-0"
       style="font-size:3.52778px;line-height:1.25;font-family:Futura;-inkscape-font-specification:Futura;stroke-width:0.264583">
      <path
         d="m 53.382624,119.64903 0.120579,-0.12058 1.259183,1.25918 q 0.01895,-0.298 0.134359,-0.52538 l 0.0844,0.0879 q -0.02067,0.0947 -0.02067,0.21188 0,0.33934 0.136081,0.62184 l -0.05857,0.0586 q -0.282498,-0.13608 -0.621841,-0.13608 -0.117133,0 -0.211873,0.0207 l -0.08785,-0.0844 q 0.227376,-0.11541 0.525377,-0.13436 z"
         style="stroke-width:0.264583"
         id="path2170"
         inkscape:connector-curvature="0" />
    </g>
    <g
       transform="translate(10.58333,0.10778629)"
       aria-label="→ "
       id="text1556-56"
       style="font-size:3.52778px;line-height:1.25;font-family:Futura;-inkscape-font-specification:Futura;stroke-width:0.264583">
      <path
         d="m 75.573812,119.65628 q 0.229099,0.24977 0.396186,0.38069 0.167087,0.12919 0.315227,0.19292 v 0.0775 q -0.170533,0.0827 -0.33073,0.21187 -0.160197,0.12747 -0.382406,0.37552 h -0.132636 q 0.16192,-0.34624 0.339342,-0.53227 H 73.03133 v -0.17398 h 2.747465 q -0.130914,-0.16709 -0.18259,-0.24804 -0.05168,-0.081 -0.153307,-0.28423 z"
         style="stroke-width:0.264583"
         id="path2173"
         inkscape:connector-curvature="0" />
    </g>
    <g
       transform="translate(10.58333,0.10778629)"
       aria-label="↗ "
       id="text1560-8"
       style="font-size:3.52778px;line-height:1.25;font-family:Futura;-inkscape-font-specification:Futura;stroke-width:0.264583">
      <path
         d="m 88.169471,119.58873 q -0.136082,0.28077 -0.136082,0.62011 0,0.11886 0.02067,0.21188 l -0.08441,0.0879 q -0.115411,-0.22738 -0.134359,-0.52538 l -1.259183,1.25918 -0.120579,-0.12057 1.259184,-1.25919 q -0.298001,-0.0172 -0.525378,-0.13263 l 0.08785,-0.0861 q 0.09474,0.0207 0.211874,0.0207 0.339342,0 0.62184,-0.13608 z"
         style="stroke-width:0.264583"
         id="path2176"
         inkscape:connector-curvature="0" />
    </g>
    <g
       transform="translate(10.58333,0.10778629)"
       aria-label="↘ "
       id="text1564-6"
       style="font-size:3.52778px;line-height:1.25;font-family:Futura;-inkscape-font-specification:Futura;stroke-width:0.264583">
      <path
         d="m 99.684699,119.64903 0.120578,-0.12058 1.259183,1.25918 q 0.019,-0.298 0.13436,-0.52538 l 0.0844,0.0879 q -0.0207,0.0947 -0.0207,0.21188 0,0.33934 0.13608,0.62184 l -0.0586,0.0586 q -0.2825,-0.13608 -0.62184,-0.13608 -0.11714,0 -0.21188,0.0207 l -0.0879,-0.0844 q 0.22738,-0.11541 0.52538,-0.13436 z"
         style="stroke-width:0.264583"
         id="path2179"
         inkscape:connector-curvature="0" />
    </g>
    <g
       transform="translate(10.58333,0.10778629)"
       aria-label="↑ "
       id="text1568-73"
       style="font-size:3.52778px;line-height:1.25;font-family:Futura;-inkscape-font-specification:Futura;stroke-width:0.264583">
      <path
         d="m 113.15158,119.57409 q 0.24977,-0.2291 0.37896,-0.39619 0.13092,-0.16709 0.19465,-0.31523 h 0.0792 q 0.081,0.17054 0.20843,0.33073 0.12919,0.1602 0.37723,0.38241 v 0.13264 q -0.34623,-0.16192 -0.53226,-0.33935 v 2.53904 h -0.17398 v -2.53904 q -0.16537,0.13092 -0.24805,0.18259 -0.081,0.0517 -0.28422,0.15331 z"
         style="stroke-width:0.264583"
         id="path2182"
         inkscape:connector-curvature="0" />
    </g>
    <g
       style="font-size:6.35px;line-height:1.25;font-family:Futura;-inkscape-font-specification:Futura;stroke-width:0.264583"
       id="text1168"
       aria-label="↓">
      <path
         inkscape:connector-curvature="0"
         id="path1244"
         style="font-size:3.52778px;stroke-width:0.264583"
         d="m 4.6724102,19.332153 v -0.130914 q 0.2049833,0.101631 0.2859431,0.153307 0.08096,0.05168 0.2463245,0.18259 v -2.539037 h 0.1739774 v 2.539037 q 0.1860353,-0.177422 0.5322676,-0.339342 v 0.132636 q -0.248047,0.222209 -0.3772382,0.382406 -0.1274686,0.160197 -0.2084284,0.33073 H 5.246019 Q 5.1822846,19.895426 5.0513709,19.728339 4.9221798,19.561252 4.6724102,19.332153 Z" />
    </g>
    <g
       style="font-size:6.35px;line-height:1.25;font-family:Futura;-inkscape-font-specification:Futura;display:inline;stroke-width:0.264583"
       id="text1168-8"
       aria-label="↓">
      <path
         inkscape:connector-curvature="0"
         id="path1247"
         style="font-size:3.52777px;stroke-width:0.264583"
         d="m 4.6724104,33.884239 v -0.130914 q 0.2049827,0.10163 0.2859423,0.153307 0.08096,0.05168 0.2463238,0.182589 v -2.539029 h 0.1739769 v 2.539029 Q 5.5646882,33.911799 5.9109195,33.74988 v 0.132636 Q 5.6628732,34.104724 5.5336824,34.264921 5.4062141,34.425118 5.3252546,34.595649 H 5.2460175 Q 5.1822834,34.447511 5.0513701,34.280424 4.9221793,34.113337 4.6724104,33.884239 Z" />
    </g>
    <g
       style="font-size:6.35px;line-height:1.25;font-family:Futura;-inkscape-font-specification:Futura;display:inline;stroke-width:0.264583"
       id="text1168-4"
       aria-label="↓">
      <path
         inkscape:connector-curvature="0"
         id="path1250"
         style="font-size:3.52777px;stroke-width:0.264583"
         d="m 4.6724104,48.436321 v -0.130914 q 0.2049827,0.101631 0.2859423,0.153307 0.08096,0.05168 0.2463238,0.18259 v -2.53903 h 0.1739769 v 2.53903 q 0.1860348,-0.177423 0.5322661,-0.339342 v 0.132636 Q 5.6628732,48.656806 5.5336824,48.817003 5.4062141,48.9772 5.3252546,49.147731 H 5.2460175 Q 5.1822834,48.999593 5.0513701,48.832506 4.9221793,48.665419 4.6724104,48.436321 Z" />
    </g>
    <g
       style="font-size:6.35px;line-height:1.25;font-family:Futura;-inkscape-font-specification:Futura;display:inline;stroke-width:0.264583"
       id="text1168-6"
       aria-label="↓">
      <path
         inkscape:connector-curvature="0"
         id="path1253"
         style="font-size:3.52777px;stroke-width:0.264583"
         d="m 4.6724104,62.988407 v -0.130914 q 0.2049827,0.10163 0.2859423,0.153307 0.08096,0.05168 0.2463238,0.182589 V 60.65436 h 0.1739769 v 2.539029 q 0.1860348,-0.177422 0.5322661,-0.339341 v 0.132636 Q 5.6628732,63.208892 5.5336824,63.369089 5.4062141,63.529285 5.3252546,63.699817 H 5.2460175 Q 5.1822834,63.551679 5.0513701,63.384592 4.9221793,63.217505 4.6724104,62.988407 Z" />
    </g>
    <g
       style="font-size:6.35px;line-height:1.25;font-family:Futura;-inkscape-font-specification:Futura;display:inline;stroke-width:0.264583"
       id="text1168-41"
       aria-label="↓">
      <path
         inkscape:connector-curvature="0"
         id="path1256"
         style="font-size:3.52777px;stroke-width:0.264583"
         d="m 4.6724104,77.540485 v -0.130913 q 0.2049827,0.10163 0.2859423,0.153306 0.08096,0.05168 0.2463238,0.18259 v -2.53903 h 0.1739769 v 2.53903 q 0.1860348,-0.177422 0.5322661,-0.339342 v 0.132636 Q 5.6628732,77.760971 5.5336824,77.921167 5.4062141,78.081364 5.3252546,78.251896 H 5.2460175 Q 5.1822834,78.103757 5.0513701,77.93667 4.9221793,77.769583 4.6724104,77.540485 Z" />
    </g>
    <g
       style="font-size:6.35px;line-height:1.25;font-family:Futura;-inkscape-font-specification:Futura;display:inline;stroke-width:0.264583"
       id="text1168-7"
       aria-label="↓">
      <path
         inkscape:connector-curvature="0"
         id="path1259"
         style="font-size:3.52777px;stroke-width:0.264583"
         d="m 4.6724104,92.092571 v -0.130914 q 0.2049827,0.101631 0.2859423,0.153307 0.08096,0.05168 0.2463238,0.18259 v -2.53903 h 0.1739769 v 2.53903 q 0.1860348,-0.177423 0.5322661,-0.339342 v 0.132636 Q 5.6628732,92.313056 5.5336824,92.473253 5.4062141,92.63345 5.3252546,92.803981 H 5.2460175 Q 5.1822834,92.655843 5.0513701,92.488756 4.9221793,92.321669 4.6724104,92.092571 Z" />
    </g>
    <g
       style="font-size:6.35px;line-height:1.25;font-family:Futura;-inkscape-font-specification:Futura;display:inline;stroke-width:0.264583"
       id="text1168-83"
       aria-label="↓">
      <path
         inkscape:connector-curvature="0"
         id="path1262"
         style="font-size:3.52777px;stroke-width:0.264583"
         d="m 4.6724104,106.64466 v -0.13091 q 0.2049827,0.10163 0.2859423,0.15331 0.08096,0.0517 0.2463238,0.18259 v -2.53903 h 0.1739769 v 2.53903 q 0.1860348,-0.17743 0.5322661,-0.33934 v 0.13263 q -0.2480463,0.22221 -0.3772371,0.38241 -0.1274683,0.16019 -0.2084278,0.33072 h -0.079237 q -0.063734,-0.14813 -0.1946474,-0.31522 -0.1291908,-0.16709 -0.3789598,-0.39619 z" />
    </g>
    <g
       style="font-size:6.35px;line-height:1.25;font-family:Futura;-inkscape-font-specification:Futura;display:inline;stroke-width:0.264583"
       id="text1168-5"
       aria-label="↓">
      <path
         inkscape:connector-curvature="0"
         id="path1265"
         style="font-size:3.52777px;stroke-width:0.264583"
         d="m 4.6724104,121.19673 v -0.13092 q 0.2049827,0.10163 0.2859423,0.15331 0.08096,0.0517 0.2463238,0.18259 v -2.53903 h 0.1739769 v 2.53903 q 0.1860348,-0.17742 0.5322661,-0.33934 v 0.13263 q -0.2480463,0.22221 -0.3772371,0.38241 -0.1274683,0.1602 -0.2084278,0.33073 H 5.2460175 Q 5.1822834,121.76 5.0513701,121.59291 4.9221793,121.42583 4.6724104,121.19673 Z" />
    </g>
  </g>
  <g
     style="display:inline"
     inkscape:label="components"
     id="layer2"
     inkscape:groupmode="layer">
    <circle
       inkscape:label="rise_level1"
       r="2.6458333"
       cy="11.984688"
       cx="31.887711"
       id="path15"
       style="display:inline;fill:#f2f2f2;stroke:#ff0000;stroke-width:0.264583;stroke-opacity:1" />
    <circle
       inkscape:label="rise_level2"
       r="2.6458333"
       cy="26.56612"
       cx="31.749996"
       id="path17"
       style="display:inline;fill:#f2f2f2;stroke:#ff0000;stroke-width:0.264583;stroke-opacity:1" />
    <circle
       inkscape:label="rise_level3"
       r="2.6458333"
       cy="41.118195"
       cx="31.749996"
       id="path34"
       style="display:inline;fill:#f2f2f2;stroke:#ff0000;stroke-width:0.264583;stroke-opacity:1" />
    <circle
       style="display:inline;fill:#f2f2f2;stroke:#ff0000;stroke-width:0.264583;stroke-opacity:1"
       id="path15-0"
       cx="31.749996"
       cy="55.778072"
       r="2.6458333"
       inkscape:label="rise_level4" />
    <circle
       style="display:inline;fill:#f2f2f2;stroke:#ff0000;stroke-width:0.264583;stroke-opacity:1"
       id="path17-5"
       cx="31.749996"
       cy="70.222359"
       r="2.6458333"
       inkscape:label="rise_level5" />
    <circle
       style="display:inline;fill:#f2f2f2;stroke:#ff0000;stroke-width:0.264583;stroke-opacity:1"
       id="path34-6"
       cx="31.749994"
       cy="84.774437"
       r="2.6458333"
       inkscape:label="rise_level6" />
    <circle
       inkscape:label="rise_level7"
       r="2.6458333"
       cy="99.326523"
       cx="31.749994"
       id="path17-5-3"
       style="display:inline;fill:#f2f2f2;stroke:#ff0000;stroke-width:0.264583;stroke-opacity:1" />
    <circle
       inkscape:label="rise_level8"
       r="2.6458333"
       cy="113.87859"
       cx="31.749994"
       id="path34-6-8"
       style="display:inline;fill:#f2f2f2;stroke:#ff0000;stroke-width:0.264583;stroke-opacity:1" />
    <circle
       style="display:inline;fill:#f2f2f2;stroke:#00ff00;stroke-width:0.264583;stroke-opacity:1"
       id="path15-4"
       cx="45.116886"
       cy="11.984688"
       r="2.6458333"
       inkscape:label="rise1" />
    <circle
       style="display:inline;fill:#f2f2f2;stroke:#00ff00;stroke-width:0.264583;stroke-opacity:1"
       id="path17-0"
       cx="45.116886"
       cy="26.536758"
       r="2.6458333"
       inkscape:label="rise2" />
    <circle
       style="display:inline;fill:#f2f2f2;stroke:#00ff00;stroke-width:0.264583;stroke-opacity:1"
       id="path34-0"
       cx="45.116886"
       cy="41.088844"
       r="2.6458333"
       inkscape:label="rise3" />
    <circle
       inkscape:label="rise4"
       r="2.6458333"
       cy="55.748726"
       cx="45.116886"
       id="path15-0-9"
       style="display:inline;fill:#f2f2f2;stroke:#00ff00;stroke-width:0.264583;stroke-opacity:1" />
    <circle
       inkscape:label="rise5"
       r="2.6458333"
       cy="70.193008"
       cx="45.116886"
       id="path17-5-37"
       style="display:inline;fill:#f2f2f2;stroke:#00ff00;stroke-width:0.264583;stroke-opacity:1" />
    <circle
       inkscape:label="rise6"
       r="2.6458333"
       cy="84.745087"
       cx="45.116886"
       id="path34-6-5"
       style="display:inline;fill:#f2f2f2;stroke:#00ff00;stroke-width:0.264583;stroke-opacity:1" />
    <circle
       style="display:inline;fill:#f2f2f2;stroke:#00ff00;stroke-width:0.264583;stroke-opacity:1"
       id="path17-5-3-7"
       cx="45.116886"
       cy="99.297173"
       r="2.6458333"
       inkscape:label="rise7" />
    <circle
       style="display:inline;fill:#f2f2f2;stroke:#00ff00;stroke-width:0.264583;stroke-opacity:1"
       id="path34-6-8-2"
       cx="45.116886"
       cy="113.84927"
       r="2.6458333"
       inkscape:label="rise8" />
    <circle
       inkscape:label="fall_level1"
       r="2.6458333"
       cy="11.984688"
       cx="58.346054"
       id="path15-4-6"
       style="display:inline;fill:#f2f2f2;stroke:#ff0000;stroke-width:0.264583;stroke-opacity:1" />
    <circle
       inkscape:label="fall_level2"
       r="2.6458333"
       cy="26.536758"
       cx="58.346054"
       id="path17-0-5"
       style="display:inline;fill:#f2f2f2;stroke:#ff0000;stroke-width:0.264583;stroke-opacity:1" />
    <circle
       inkscape:label="fall_level3"
       r="2.6458333"
       cy="41.088844"
       cx="58.346054"
       id="path34-0-3"
       style="display:inline;fill:#f2f2f2;stroke:#ff0000;stroke-width:0.264583;stroke-opacity:1" />
    <circle
       style="display:inline;fill:#f2f2f2;stroke:#ff0000;stroke-width:0.264583;stroke-opacity:1"
       id="path15-0-9-0"
       cx="58.346054"
       cy="55.748726"
       r="2.6458333"
       inkscape:label="fall_level4" />
    <circle
       style="display:inline;fill:#f2f2f2;stroke:#ff0000;stroke-width:0.264583;stroke-opacity:1"
       id="path17-5-37-4"
       cx="58.346054"
       cy="70.193024"
       r="2.6458333"
       inkscape:label="fall_level5" />
    <circle
       style="display:inline;fill:#f2f2f2;stroke:#ff0000;stroke-width:0.264583;stroke-opacity:1"
       id="path34-6-5-8"
       cx="58.346054"
       cy="84.745087"
       r="2.6458333"
       inkscape:label="fall_level6" />
    <circle
       inkscape:label="fall_level7"
       r="2.6458333"
       cy="99.297173"
       cx="58.346054"
       id="path17-5-3-7-5"
       style="display:inline;fill:#f2f2f2;stroke:#ff0000;stroke-width:0.264583;stroke-opacity:1" />
    <circle
       inkscape:label="fall_level8"
       r="2.6458333"
       cy="113.84927"
       cx="58.346054"
       id="path34-6-8-2-5"
       style="display:inline;fill:#f2f2f2;stroke:#ff0000;stroke-width:0.264583;stroke-opacity:1" />
    <circle
       style="display:inline;fill:#f2f2f2;stroke:#00ff00;stroke-width:0.264583;stroke-opacity:1"
       id="path15-4-6-5"
       cx="71.575218"
       cy="11.984679"
       r="2.6458333"
       inkscape:label="fall1" />
    <circle
       style="display:inline;fill:#f2f2f2;stroke:#00ff00;stroke-width:0.264583;stroke-opacity:1"
       id="path17-0-5-4"
       cx="71.575218"
       cy="26.536749"
       r="2.6458333"
       inkscape:label="fall2" />
    <circle
       style="display:inline;fill:#f2f2f2;stroke:#00ff00;stroke-width:0.264583;stroke-opacity:1"
       id="path34-0-3-2"
       cx="71.575218"
       cy="41.08884"
       r="2.6458333"
       inkscape:label="fall3" />
    <circle
       inkscape:label="fall4"
       r="2.6458333"
       cy="55.748718"
       cx="71.575218"
       id="path15-0-9-0-1"
       style="display:inline;fill:#f2f2f2;stroke:#00ff00;stroke-width:0.264583;stroke-opacity:1" />
    <circle
       inkscape:label="fall5"
       r="2.6458333"
       cy="70.193008"
       cx="71.575218"
       id="path17-5-37-4-9"
       style="display:inline;fill:#f2f2f2;stroke:#00ff00;stroke-width:0.264583;stroke-opacity:1" />
    <circle
       inkscape:label="fall6"
       r="2.6458333"
       cy="84.745071"
       cx="71.575218"
       id="path34-6-5-8-2"
       style="display:inline;fill:#f2f2f2;stroke:#00ff00;stroke-width:0.264583;stroke-opacity:1" />
    <circle
       style="display:inline;fill:#f2f2f2;stroke:#00ff00;stroke-width:0.264583;stroke-opacity:1"
       id="path17-5-3-7-5-4"
       cx="71.575218"
       cy="99.297173"
       r="2.6458333"
       inkscape:label="fall7" />
    <circle
       style="display:inline;fill:#f2f2f2;stroke:#00ff00;stroke-width:0.264583;stroke-opacity:1"
       id="path34-6-8-2-5-5"
       cx="71.575218"
       cy="113.84927"
       r="2.6458333"
       inkscape:label="fall8" />
    <circle
       style="display:inline;fill:#f2f2f2;stroke:#00ff00;stroke-width:0.264583;stroke-opacity:1"
       id="path15-2"
       cx="18.658379"
       cy="11.876889"
       r="2.6458333"
       inkscape:label="signal1" />
    <circle
       style="display:inline;fill:#f2f2f2;stroke:#00ff00;stroke-width:0.264583;stroke-opacity:1"
       id="path17-7"
       cx="18.520664"
       cy="26.458323"
       r="2.6458333"
       inkscape:label="signal2" />
    <circle
       style="display:inline;fill:#f2f2f2;stroke:#00ff00;stroke-width:0.264583;stroke-opacity:1"
       id="path34-03"
       cx="18.520664"
       cy="41.010395"
       r="2.6458333"
       inkscape:label="signal3" />
    <circle
       inkscape:label="signal4"
       r="2.6458333"
       cy="55.670273"
       cx="18.520664"
       id="path15-0-99"
       style="display:inline;fill:#f2f2f2;stroke:#00ff00;stroke-width:0.264583;stroke-opacity:1" />
    <circle
       inkscape:label="signal5"
       r="2.6458333"
       cy="70.114555"
       cx="18.520664"
       id="path17-5-9"
       style="display:inline;fill:#f2f2f2;stroke:#00ff00;stroke-width:0.264583;stroke-opacity:1" />
    <circle
       inkscape:label="signal6"
       r="2.6458333"
       cy="84.666634"
       cx="18.520662"
       id="path34-6-1"
       style="display:inline;fill:#f2f2f2;stroke:#00ff00;stroke-width:0.264583;stroke-opacity:1" />
    <circle
       style="display:inline;fill:#f2f2f2;stroke:#00ff00;stroke-width:0.264583;stroke-opacity:1"
       id="path17-5-3-72"
       cx="18.520662"
       cy="99.218719"
       r="2.6458333"
       inkscape:label="signal7" />
    <circle
       style="display:inline;fill:#f2f2f2;stroke:#00ff00;stroke-width:0.264583;stroke-opacity:1"
       id="path34-6-8-3"
       cx="18.520662"
       cy="113.7708"
       r="2.6458333"
       inkscape:label="signal8" />
    <text
       xml:space="preserve"
       style="font-size:3.52777px;line-height:1.25;font-family:Futura;-inkscape-font-specification:Futura;stroke-width:0.264583"
       x="15.875"
       y="63.5"
       id="text1418"><tspan
         sodipodi:role="line"
         id="tspan1416"
         x="15.875"
         y="63.5"
         style="stroke-width:0.264583" /></text>
    <circle
       style="display:inline;fill:#f2f2f2;stroke:#0000ff;stroke-width:0.264583;stroke-opacity:1"
       id="path15-5"
       cx="98.065346"
       cy="11.804033"
       r="2.6458333"
       inkscape:label="rise_gate1" />
    <circle
       style="display:inline;fill:#f2f2f2;stroke:#0000ff;stroke-width:0.264583;stroke-opacity:1"
       id="path17-2"
       cx="97.927635"
       cy="26.385468"
       r="2.6458333"
       inkscape:label="rise_gate2" />
    <circle
       style="display:inline;fill:#f2f2f2;stroke:#0000ff;stroke-width:0.264583;stroke-opacity:1"
       id="path34-2"
       cx="97.927635"
       cy="40.937546"
       r="2.6458333"
       inkscape:label="rise_gate3" />
    <circle
       inkscape:label="rise_gate4"
       r="2.6458333"
       cy="55.59742"
       cx="97.927635"
       id="path15-0-6"
       style="display:inline;fill:#f2f2f2;stroke:#0000ff;stroke-width:0.264583;stroke-opacity:1" />
    <circle
       inkscape:label="rise_gate5"
       r="2.6458333"
       cy="70.04171"
       cx="97.927635"
       id="path17-5-6"
       style="display:inline;fill:#f2f2f2;stroke:#0000ff;stroke-width:0.264583;stroke-opacity:1" />
    <circle
       inkscape:label="rise_gate6"
       r="2.6458333"
       cy="84.593781"
       cx="97.927628"
       id="path34-6-7"
       style="display:inline;fill:#f2f2f2;stroke:#0000ff;stroke-width:0.264583;stroke-opacity:1" />
    <circle
       style="display:inline;fill:#f2f2f2;stroke:#0000ff;stroke-width:0.264583;stroke-opacity:1"
       id="path17-5-3-8"
       cx="97.927628"
       cy="99.145866"
       r="2.6458333"
       inkscape:label="rise_gate7" />
    <circle
       style="display:inline;fill:#f2f2f2;stroke:#0000ff;stroke-width:0.264583;stroke-opacity:1"
       id="path34-6-8-4"
       cx="97.927628"
       cy="113.69794"
       r="2.6458333"
       inkscape:label="rise_gate8" />
    <circle
       inkscape:label="fall_gate1"
       r="2.6458333"
       cy="11.804034"
       cx="111.29453"
       id="path15-4-1"
       style="display:inline;fill:#f2f2f2;stroke:#0000ff;stroke-width:0.264583;stroke-opacity:1" />
    <circle
       inkscape:label="fall_gate2"
       r="2.6458333"
       cy="26.356104"
       cx="111.29453"
       id="path17-0-7"
       style="display:inline;fill:#f2f2f2;stroke:#0000ff;stroke-width:0.264583;stroke-opacity:1" />
    <circle
       inkscape:label="fall_gate3"
       r="2.6458333"
       cy="40.908188"
       cx="111.29453"
       id="path34-0-1"
       style="display:inline;fill:#f2f2f2;stroke:#0000ff;stroke-width:0.264583;stroke-opacity:1" />
    <circle
       style="display:inline;fill:#f2f2f2;stroke:#0000ff;stroke-width:0.264583;stroke-opacity:1"
       id="path15-0-9-8"
       cx="111.29453"
       cy="55.568073"
       r="2.6458333"
       inkscape:label="fall_gate4" />
    <circle
       style="display:inline;fill:#f2f2f2;stroke:#0000ff;stroke-width:0.264583;stroke-opacity:1"
       id="path17-5-37-7"
       cx="111.29453"
       cy="70.01236"
       r="2.6458333"
       inkscape:label="fall_gate5" />
    <circle
       style="display:inline;fill:#f2f2f2;stroke:#0000ff;stroke-width:0.264583;stroke-opacity:1"
       id="path34-6-5-87"
       cx="111.29453"
       cy="84.56443"
       r="2.6458333"
       inkscape:label="fall_gate6" />
    <circle
       inkscape:label="fall_gate7"
       r="2.6458333"
       cy="99.116516"
       cx="111.29453"
       id="path17-5-3-7-7"
       style="display:inline;fill:#f2f2f2;stroke:#0000ff;stroke-width:0.264583;stroke-opacity:1" />
    <circle
       inkscape:label="fall_gate8"
       r="2.6458333"
       cy="113.66864"
       cx="111.29453"
       id="path34-6-8-2-4"
       style="display:inline;fill:#f2f2f2;stroke:#0000ff;stroke-width:0.264583;stroke-opacity:1" />
    <circle
       style="display:inline;fill:#f2f2f2;stroke:#0000ff;stroke-width:0.264583;stroke-opacity:1"
       id="path15-4-6-4"
       cx="124.52369"
       cy="11.804034"
       r="2.6458333"
       inkscape:label="eoc1" />
    <circle
       style="display:inline;fill:#f2f2f2;stroke:#0000ff;stroke-width:0.264583;stroke-opacity:1"
       id="path17-0-5-9"
       cx="124.52369"
       cy="26.356104"
       r="2.6458333"
       inkscape:label="eoc2" />
    <circle
       style="display:inline;fill:#f2f2f2;stroke:#0000ff;stroke-width:0.264583;stroke-opacity:1"
       id="path34-0-3-1"
       cx="124.52369"
       cy="40.908188"
       r="2.6458333"
       inkscape:label="eoc3" />
    <circle
       inkscape:label="eoc4"
       r="2.6458333"
       cy="55.568073"
       cx="124.52369"
       id="path15-0-9-0-5"
       style="display:inline;fill:#f2f2f2;stroke:#0000ff;stroke-width:0.264583;stroke-opacity:1" />
    <circle
       inkscape:label="eoc5"
       r="2.6458333"
       cy="70.012375"
       cx="124.52369"
       id="path17-5-37-4-5"
       style="display:inline;fill:#f2f2f2;stroke:#0000ff;stroke-width:0.264583;stroke-opacity:1" />
    <circle
       inkscape:label="eoc6"
       r="2.6458333"
       cy="84.56443"
       cx="124.52369"
       id="path34-6-5-8-5"
       style="display:inline;fill:#f2f2f2;stroke:#0000ff;stroke-width:0.264583;stroke-opacity:1" />
    <circle
       style="display:inline;fill:#f2f2f2;stroke:#0000ff;stroke-width:0.264583;stroke-opacity:1"
       id="path17-5-3-7-5-8"
       cx="124.52369"
       cy="99.116516"
       r="2.6458333"
       inkscape:label="eoc7" />
    <circle
       style="display:inline;fill:#f2f2f2;stroke:#0000ff;stroke-width:0.264583;stroke-opacity:1"
       id="path34-6-8-2-5-2"
       cx="124.52369"
       cy="113.66864"
       r="2.6458333"
       inkscape:label="eoc8" />
    <circle
       inkscape:label="out1"
       r="2.6458333"
       cy="11.696235"
       cx="84.836014"
       id="path15-2-9"
       style="display:inline;fill:#f2f2f2;stroke:#0000ff;stroke-width:0.264583;stroke-opacity:1" />
    <circle
       inkscape:label="out2"
       r="2.6458333"
       cy="26.277668"
       cx="84.698303"
       id="path17-7-8"
       style="display:inline;fill:#f2f2f2;stroke:#0000ff;stroke-width:0.264583;stroke-opacity:1" />
    <circle
       inkscape:label="out3"
       r="2.6458333"
       cy="40.829742"
       cx="84.698303"
       id="path34-03-2"
       style="display:inline;fill:#f2f2f2;stroke:#0000ff;stroke-width:0.264583;stroke-opacity:1" />
    <circle
       style="display:inline;fill:#f2f2f2;stroke:#0000ff;stroke-width:0.264583;stroke-opacity:1"
       id="path15-0-99-0"
       cx="84.698303"
       cy="55.48962"
       r="2.6458333"
       inkscape:label="out4" />
    <circle
       style="display:inline;fill:#f2f2f2;stroke:#0000ff;stroke-width:0.264583;stroke-opacity:1"
       id="path17-5-9-7"
       cx="84.698303"
       cy="69.933907"
       r="2.6458333"
       inkscape:label="out5" />
    <circle
       style="display:inline;fill:#f2f2f2;stroke:#0000ff;stroke-width:0.264583;stroke-opacity:1"
       id="path34-6-1-4"
       cx="84.698296"
       cy="84.485985"
       r="2.6458333"
       inkscape:label="out6" />
    <circle
       inkscape:label="out7"
       r="2.6458333"
       cy="99.038063"
       cx="84.698296"
       id="path17-5-3-72-8"
       style="display:inline;fill:#f2f2f2;stroke:#0000ff;stroke-width:0.264583;stroke-opacity:1" />
    <circle
       inkscape:label="out8"
       r="2.6458333"
       cy="113.59015"
       cx="84.698296"
       id="path34-6-8-3-5"
       style="display:inline;fill:#f2f2f2;stroke:#0000ff;stroke-width:0.264583;stroke-opacity:1" />
    <circle
       inkscape:label="trig1"
       r="2.6458333"
       cy="11.906227"
       cx="5.2916603"
       id="path15-2-91"
       style="display:inline;fill:#f2f2f2;stroke:#00ff00;stroke-width:0.264583;stroke-opacity:1" />
    <circle
       inkscape:label="trig2"
       r="2.6458333"
       cy="26.487659"
       cx="5.1539459"
       id="path17-7-7"
       style="display:inline;fill:#f2f2f2;stroke:#00ff00;stroke-width:0.264583;stroke-opacity:1" />
    <circle
       inkscape:label="trig3"
       r="2.6458333"
       cy="41.039734"
       cx="5.1539459"
       id="path34-03-23"
       style="display:inline;fill:#f2f2f2;stroke:#00ff00;stroke-width:0.264583;stroke-opacity:1" />
    <circle
       style="display:inline;fill:#f2f2f2;stroke:#00ff00;stroke-width:0.264583;stroke-opacity:1"
       id="path15-0-99-6"
       cx="5.1539459"
       cy="55.699612"
       r="2.6458333"
       inkscape:label="trig4" />
    <circle
       style="display:inline;fill:#f2f2f2;stroke:#00ff00;stroke-width:0.264583;stroke-opacity:1"
       id="path17-5-9-5"
       cx="5.1539459"
       cy="70.14389"
       r="2.6458333"
       inkscape:label="trig5" />
    <circle
       style="display:inline;fill:#f2f2f2;stroke:#00ff00;stroke-width:0.264583;stroke-opacity:1"
       id="path34-6-1-5"
       cx="5.153944"
       cy="84.695969"
       r="2.6458333"
       inkscape:label="trig6" />
    <circle
       inkscape:label="trig7"
       r="2.6458333"
       cy="99.248055"
       cx="5.153944"
       id="path17-5-3-72-81"
       style="display:inline;fill:#f2f2f2;stroke:#00ff00;stroke-width:0.264583;stroke-opacity:1" />
    <circle
       inkscape:label="trig8"
       r="2.6458333"
       cy="113.80014"
       cx="5.153944"
       id="path34-6-8-3-4"
       style="display:inline;fill:#f2f2f2;stroke:#00ff00;stroke-width:0.264583;stroke-opacity:1" />
  </g>
</svg>
