<?xml version="1.0" encoding="UTF-8" standalone="no"?>
<svg
   xmlns:dc="http://purl.org/dc/elements/1.1/"
   xmlns:cc="http://creativecommons.org/ns#"
   xmlns:rdf="http://www.w3.org/1999/02/22-rdf-syntax-ns#"
   xmlns:svg="http://www.w3.org/2000/svg"
   xmlns="http://www.w3.org/2000/svg"
   xmlns:sodipodi="http://sodipodi.sourceforge.net/DTD/sodipodi-0.dtd"
   xmlns:inkscape="http://www.inkscape.org/namespaces/inkscape"
   width="60.959999mm"
   height="128.5mm"
   viewBox="0 0 60.959999 128.5"
   version="1.1"
   id="svg1138"
   inkscape:version="1.0beta1 (32d4812, 2019-09-19)"
   sodipodi:docname="Min.svg">
  <defs
     id="defs1132">
    <filter
       style="color-interpolation-filters:sRGB"
       inkscape:label="Bump"
       id="filter912">
      <feGaussianBlur
         in="SourceGraphic"
         stdDeviation="0.01"
         result="blur1"
         id="feGaussianBlur890" />
      <feColorMatrix
         in="BackgroundImage"
         values="1 0 0 0 0 0 1 0 0 0 0 0 1 0 0 0 0 0 1 0 "
         result="colormatrix1"
         id="feColorMatrix892" />
      <feColorMatrix
         in="colormatrix1"
         type="luminanceToAlpha"
         result="colormatrix2"
         id="feColorMatrix894" />
      <feComposite
         k4="0"
         k1="0"
         in2="blur1"
         operator="arithmetic"
         k2="1"
         k3="0"
         result="composite1"
         id="feComposite896" />
      <feGaussianBlur
         in="composite1"
         stdDeviation="0.01"
         result="blur2"
         id="feGaussianBlur898" />
      <feSpecularLighting
         lighting-color="#ffffff"
         surfaceScale="5"
         specularConstant="1"
         specularExponent="15"
         result="lighting"
         id="feSpecularLighting902">
        <feDistantLight
           azimuth="225"
           elevation="45"
           id="feDistantLight900" />
      </feSpecularLighting>
      <feFlood
         flood-color="rgb(197,41,41)"
         flood-opacity="1"
         result="flood"
         id="feFlood904" />
      <feComposite
         k4="0"
         k1="0"
         in="lighting"
         in2="blur1"
         operator="arithmetic"
         k3="1"
         k2="1"
         result="composite2"
         id="feComposite906" />
      <feBlend
         in2="SourceGraphic"
         mode="normal"
         result="blend"
         id="feBlend908" />
      <feComposite
         in="blend"
         in2="SourceGraphic"
         operator="in"
         result="composite3"
         id="feComposite910" />
    </filter>
    <filter
       id="filter2180"
       inkscape:label="Bump"
       style="color-interpolation-filters:sRGB">
      <feGaussianBlur
         id="feGaussianBlur2158"
         result="blur1"
         stdDeviation="0.01"
         in="SourceGraphic" />
      <feColorMatrix
         id="feColorMatrix2160"
         result="colormatrix1"
         values="1 0 0 0 0 0 1 0 0 0 0 0 1 0 0 0 0 0 1 0 "
         in="BackgroundImage" />
      <feColorMatrix
         id="feColorMatrix2162"
         result="colormatrix2"
         type="luminanceToAlpha"
         in="colormatrix1" />
      <feComposite
         k4="0"
         k1="0"
         id="feComposite2164"
         result="composite1"
         k3="0"
         k2="1"
         operator="arithmetic"
         in2="blur1" />
      <feGaussianBlur
         id="feGaussianBlur2166"
         result="blur2"
         stdDeviation="0.01"
         in="composite1" />
      <feSpecularLighting
         id="feSpecularLighting2170"
         result="lighting"
         specularExponent="15"
         specularConstant="1"
         surfaceScale="5"
         lighting-color="#ffffff">
        <feDistantLight
           id="feDistantLight2168"
           elevation="45"
           azimuth="225" />
      </feSpecularLighting>
      <feFlood
         id="feFlood2172"
         result="flood"
         flood-opacity="1"
         flood-color="rgb(197,41,41)" />
      <feComposite
         k4="0"
         k1="0"
         id="feComposite2174"
         result="composite2"
         k2="1"
         k3="1"
         operator="arithmetic"
         in2="blur1"
         in="lighting" />
      <feBlend
         id="feBlend2176"
         result="blend"
         mode="normal"
         in2="SourceGraphic" />
      <feComposite
         id="feComposite2178"
         result="composite3"
         operator="in"
         in2="SourceGraphic"
         in="blend" />
    </filter>
  </defs>
  <sodipodi:namedview
     inkscape:snap-bbox-midpoints="true"
     inkscape:snap-bbox="true"
     id="base"
     pagecolor="#ffffff"
     bordercolor="#666666"
     borderopacity="1.0"
     inkscape:pageopacity="0.0"
     inkscape:pageshadow="2"
     inkscape:zoom="1.7789883"
     inkscape:cx="115.2"
     inkscape:cy="242.83465"
     inkscape:document-units="mm"
     inkscape:current-layer="layer4"
     inkscape:document-rotation="0"
     showgrid="true"
     inkscape:snap-object-midpoints="true"
     inkscape:window-width="1920"
     inkscape:window-height="1054"
     inkscape:window-x="1440"
     inkscape:window-y="26"
     inkscape:window-maximized="0">
    <inkscape:grid
       spacingy="2.54"
       spacingx="2.54"
       units="mm"
       type="xygrid"
       id="grid1738" />
  </sodipodi:namedview>
  <metadata
     id="metadata1135">
    <rdf:RDF>
      <cc:Work
         rdf:about="">
        <dc:format>image/svg+xml</dc:format>
        <dc:type
           rdf:resource="http://purl.org/dc/dcmitype/StillImage" />
        <dc:title />
      </cc:Work>
    </rdf:RDF>
  </metadata>
  <g
     sodipodi:insensitive="true"
     inkscape:label="Background"
     inkscape:groupmode="layer"
     id="layer1">
    <rect
       style="display:inline;fill:#ffcb00;fill-opacity:1;stroke:none;stroke-width:0.173754"
       id="rect10"
       width="60.959999"
       height="128.5"
       x="0"
       y="0" />
  </g>
  <g
     sodipodi:insensitive="true"
     inkscape:groupmode="layer"
     id="layer3"
     inkscape:label="boxes">
    <rect
       style="display:inline;fill:#224477;fill-opacity:0.501961;stroke:none;stroke-width:0.508799;stroke-miterlimit:4;stroke-dasharray:0.508799, 1.0176;stroke-dashoffset:0;stroke-opacity:1"
       id="rect1740-1"
       width="10.160002"
       height="10.160002"
       x="48.259998"
       y="5.0799952" />
    <rect
       style="display:inline;fill:#224477;fill-opacity:0.501961;stroke:none;stroke-width:0.508799;stroke-miterlimit:4;stroke-dasharray:0.508799, 1.0176;stroke-dashoffset:0;stroke-opacity:1"
       id="rect1740-1-0"
       width="10.160002"
       height="10.160002"
       x="48.259998"
       y="20.319996" />
    <rect
       y="35.559994"
       x="48.259998"
       height="10.160002"
       width="10.160002"
       id="rect1740-1-0-3"
       style="display:inline;fill:#224477;fill-opacity:0.501961;stroke:none;stroke-width:0.508799;stroke-miterlimit:4;stroke-dasharray:0.508799, 1.0176;stroke-dashoffset:0;stroke-opacity:1" />
    <rect
       y="50.799992"
       x="48.259998"
       height="10.160002"
       width="10.160002"
       id="rect1740-1-0-5"
       style="display:inline;fill:#224477;fill-opacity:0.501961;stroke:none;stroke-width:0.508799;stroke-miterlimit:4;stroke-dasharray:0.508799, 1.0176;stroke-dashoffset:0;stroke-opacity:1" />
    <rect
       y="66.039993"
       x="48.259998"
       height="10.160002"
       width="10.160002"
       id="rect1740-1-0-4"
       style="display:inline;fill:#224477;fill-opacity:0.501961;stroke:none;stroke-width:0.508799;stroke-miterlimit:4;stroke-dasharray:0.508799, 1.0176;stroke-dashoffset:0;stroke-opacity:1" />
    <rect
       y="81.279991"
       x="48.259998"
       height="10.160002"
       width="10.160002"
       id="rect1740-1-0-36"
       style="display:inline;fill:#224477;fill-opacity:0.501961;stroke:none;stroke-width:0.508799;stroke-miterlimit:4;stroke-dasharray:0.508799, 1.0176;stroke-dashoffset:0;stroke-opacity:1" />
    <rect
       y="96.520004"
       x="48.259998"
       height="10.160002"
       width="10.160002"
       id="rect1740-1-0-59"
       style="display:inline;fill:#224477;fill-opacity:0.501961;stroke:none;stroke-width:0.508799;stroke-miterlimit:4;stroke-dasharray:0.508799, 1.0176;stroke-dashoffset:0;stroke-opacity:1" />
    <rect
       y="111.75999"
       x="48.259998"
       height="10.160002"
       width="10.160002"
       id="rect1740-1-0-54"
       style="display:inline;fill:#224477;fill-opacity:0.501961;stroke:none;stroke-width:0.508799;stroke-miterlimit:4;stroke-dasharray:0.508799, 1.0176;stroke-dashoffset:0;stroke-opacity:1" />
  </g>
  <g
     sodipodi:insensitive="true"
     inkscape:groupmode="layer"
     id="layer4"
     inkscape:label="text"
     style="display:inline;opacity:1">
    <text
       xml:space="preserve"
       style="font-size:6.35px;line-height:1.25;font-family:Futura;-inkscape-font-specification:Futura;stroke-width:0.264583"
       x="7.9375"
       y="19.84375"
       id="text1987"><tspan
         sodipodi:role="line"
         id="tspan1985"
         x="7.9375"
         y="19.84375"
         style="stroke-width:0.264583" /></text>
    <g
       style="display:inline;opacity:1"
       transform="translate(10.615339,0.03718092)"
       id="g2200">
      <g
         transform="matrix(0.13229166,0,0,0.13229166,-10.822541,109.90112)"
         id="g971">
        <g
           data-v-fde0c5aa=""
           id="b1560e19-ee0a-4c5c-a1e3-872fa4d571f9"
           stroke="none"
           fill="#000000"
           transform="matrix(0.38004571,0,0,0.38004571,177.21513,100.89119)"
           style="opacity:1;fill:#224477;fill-opacity:1;filter:url(#filter912);stop-opacity:1">
          <path
             d="M 15.88,75.262 14.006,73.346 35.661,52.171 v -3.915 l 8.825,-8.822 V 27.077 l 3.479,-5.144 V 3.223 h 2.68 v 19.531 l -3.479,5.144 v 12.646 l -8.825,8.823 v 3.931 z"
             id="path844"
             inkscape:connector-curvature="0"
             style="fill:#224477;fill-opacity:1" />
          <path
             d="m 42.998,72.05 h -2.68 V 49.8 l 6.842,-8.212 h 6.881 L 65.068,28.841 h 10.416 v 2.68 H 66.293 L 55.266,44.268 h -6.851 l -5.417,6.502 z"
             id="path846"
             inkscape:connector-curvature="0"
             style="fill:#224477;fill-opacity:1" />
          <path
             d="M 59.14,90.004 53.313,84.698 V 71.493 L 45.221,64.634 V 49.942 l 4.004,-3.695 h 10.262 l 3.039,-3.039 1.895,1.895 -3.824,3.824 H 50.271 L 47.9,51.115 v 12.277 l 8.093,6.859 v 13.264 l 4.951,4.508 z M 28.026,51.507 26.194,49.551 41.21,35.488 V 7.773 h 2.68 V 36.65 Z M 41.658,72.05 a 4.2740001,4.2740001 0 1 0 0.002,8.548 4.2740001,4.2740001 0 0 0 -0.002,-8.548 z m -12.62,3.491 a 4.278,4.278 0 0 0 -4.276,4.278 4.272,4.272 0 0 0 4.276,4.272 4.27,4.27 0 0 0 4.271,-4.272 4.277,4.277 0 0 0 -4.271,-4.278 z"
             id="path848"
             inkscape:connector-curvature="0"
             style="fill:#224477;fill-opacity:1" />
          <circle
             cx="29.038"
             cy="79.819"
             r="2.138"
             id="circle850"
             style="fill:#224477;fill-opacity:1" />
          <path
             d="m 41.658,88.231 a 4.271,4.271 0 0 0 -4.272,4.27 4.274,4.274 0 1 0 4.272,-4.27 z"
             id="path852"
             inkscape:connector-curvature="0"
             style="fill:#224477;fill-opacity:1" />
          <path
             d="m 41.658,90.366 a 2.137,2.137 0 1 0 0,4.274 2.136,2.136 0 0 0 2.139,-2.139 2.135,2.135 0 0 0 -2.139,-2.135 z M 11.76,73.409 Z m 0,2.132 a 2.1395,2.1395 0 0 0 0,4.279 2.14,2.14 0 0 0 0,-4.279 z M 66.721,38.318 a 4.272,4.272 0 0 0 -4.27,4.276 4.27,4.27 0 0 0 4.27,4.271 4.271,4.271 0 0 0 4.276,-4.271 4.272,4.272 0 0 0 -4.276,-4.276 z"
             id="path854"
             inkscape:connector-curvature="0"
             style="fill:#224477;fill-opacity:1" />
          <path
             d="m 66.721,40.455 a 2.139,2.139 0 0 0 0,4.276 c 1.183,0 2.14,-0.963 2.14,-2.137 a 2.14,2.14 0 0 0 -2.14,-2.139 z M 78.856,25.912 a 4.27,4.27 0 0 0 -4.275,4.27 4.273,4.273 0 0 0 4.275,4.278 4.272,4.272 0 0 0 4.274,-4.278 4.267,4.267 0 0 0 -4.274,-4.27 z"
             id="path856"
             inkscape:connector-curvature="0"
             style="fill:#224477;fill-opacity:1" />
          <path
             d="m 78.856,28.046 a 2.135,2.135 0 0 0 -2.139,2.135 c 0,1.185 0.956,2.137 2.139,2.137 a 2.133,2.133 0 0 0 2.135,-2.137 2.134,2.134 0 0 0 -2.135,-2.135 z M 53.903,51.115 a 4.275,4.275 0 1 0 0,8.55 4.273,4.273 0 0 0 4.27,-4.276 4.274,4.274 0 0 0 -4.27,-4.274 z"
             id="path858"
             inkscape:connector-curvature="0"
             style="fill:#224477;fill-opacity:1" />
          <path
             d="m 53.903,53.252 a 2.14,2.14 0 1 0 0,4.277 2.136,2.136 0 0 0 2.133,-2.139 2.137,2.137 0 0 0 -2.133,-2.138 z m 11.745,3.477 H 58.173 V 54.05 h 6.313 l 28.098,-30.019 1.957,1.831 z M 24.968,48.798 A 4.275,4.275 0 0 0 20.69,53.07 4.28,4.28 0 0 0 24.968,57.346 4.277,4.277 0 0 0 29.24,53.07 4.272,4.272 0 0 0 24.968,48.798 Z M 62.11,87.126 a 4.2740001,4.2740001 0 1 0 0.002,8.548 4.2740001,4.2740001 0 0 0 -0.002,-8.548 z"
             id="path860"
             inkscape:connector-curvature="0"
             style="fill:#224477;fill-opacity:1" />
        </g>
      </g>
      <g
         aria-label="Stalys"
         id="text2143"
         style="font-size:3.52777px;line-height:1.25;font-family:Futura;-inkscape-font-specification:Futura;stroke-width:0.264583;filter:url(#filter2180)">
        <path
           inkscape:connector-curvature="0"
           d="m 19.395719,124.86158 q -0.04233,-0.11642 -0.148166,-0.18344 -0.105833,-0.067 -0.246944,-0.067 -0.109361,0 -0.204611,0.0423 -0.09172,0.0423 -0.162277,0.11289 -0.06703,0.067 -0.105833,0.15875 -0.03528,0.0917 -0.03528,0.1905 0,0.0953 0.02822,0.16228 0.02822,0.067 0.08114,0.11994 0.05292,0.0529 0.123472,0.0988 0.07056,0.0459 0.155222,0.0953 0.08114,0.0494 0.155222,0.0988 0.07408,0.0459 0.130527,0.10936 0.05645,0.06 0.08819,0.14464 0.03528,0.0811 0.03528,0.20108 0,0.14111 -0.0635,0.28928 -0.0635,0.14816 -0.186971,0.27163 -0.119945,0.11995 -0.299861,0.19403 -0.179916,0.0741 -0.416277,0.0741 -0.134055,0 -0.264582,-0.0282 -0.127,-0.0247 -0.239889,-0.0917 0.03528,-0.067 0.0635,-0.13405 0.03175,-0.0706 0.05292,-0.13759 h 0.02469 q 0.0388,0.0741 0.09878,0.12347 0.0635,0.0494 0.130527,0.0811 0.07055,0.0282 0.141111,0.0423 0.07055,0.0106 0.123472,0.0106 0.137583,0 0.243416,-0.0529 0.109361,-0.0564 0.179916,-0.14111 0.07056,-0.0847 0.105833,-0.18697 0.03881,-0.1023 0.03881,-0.19403 0,-0.0953 -0.03175,-0.16227 -0.02822,-0.0706 -0.07761,-0.12348 -0.04939,-0.0529 -0.119944,-0.0988 -0.06703,-0.0459 -0.141111,-0.0953 -0.08114,-0.0494 -0.15875,-0.0988 -0.07408,-0.0529 -0.134055,-0.11642 -0.05644,-0.067 -0.09172,-0.15169 -0.03528,-0.0882 -0.03528,-0.20814 0,-0.15169 0.0635,-0.28222 0.0635,-0.13406 0.176389,-0.22931 0.116416,-0.0988 0.271638,-0.15522 0.15875,-0.0564 0.345721,-0.0564 0.172861,0 0.282222,0.0388 0.109361,0.0388 0.169333,0.067 -0.04586,0.0811 -0.07056,0.13406 -0.02117,0.0494 -0.04939,0.13405 h -0.0247 z"
           style="font-style:italic;font-variant:normal;font-weight:normal;font-stretch:normal;font-family:Optima;-inkscape-font-specification:'Optima Italic';fill:#224477;fill-opacity:1;stroke-width:0.264583"
           id="path2145" />
        <path
           inkscape:connector-curvature="0"
           d="m 20.376439,124.82278 q -0.03528,0.12347 -0.0635,0.24341 -0.0247,0.11995 -0.05292,0.24342 0.08114,0 0.176389,-0.004 0.09878,-0.007 0.190499,-0.0106 -0.02117,0.0741 -0.02117,0.14464 -0.09172,-0.004 -0.194027,-0.007 -0.09878,-0.007 -0.179916,-0.007 l -0.137583,0.66322 q -0.01058,0.0564 -0.0247,0.127 -0.01411,0.067 -0.02822,0.13406 -0.01058,0.067 -0.02117,0.13053 -0.0071,0.06 -0.0071,0.1023 0,0.0706 0.02469,0.11995 0.02469,0.0494 0.05997,0.0811 0.0388,0.0282 0.08114,0.0423 0.04586,0.0141 0.08467,0.0141 0.05997,0 0.119944,-0.0176 0.05997,-0.0212 0.112889,-0.0529 l -0.0071,0.0917 q -0.07055,0.0564 -0.172861,0.0776 -0.09878,0.0212 -0.186971,0.0212 -0.06703,0 -0.137583,-0.0212 -0.06703,-0.0176 -0.119945,-0.0564 -0.05292,-0.0388 -0.08819,-0.0988 -0.03175,-0.0635 -0.03175,-0.14464 0,-0.0706 0.01411,-0.14817 0.01764,-0.0776 0.03528,-0.1658 0.0388,-0.17992 0.0635,-0.29281 0.02469,-0.11289 0.04233,-0.20108 0.02117,-0.0917 0.0388,-0.17992 0.01764,-0.0917 0.04586,-0.22578 -0.04939,0 -0.112889,0.004 -0.05997,0 -0.119944,0.004 0.01058,-0.0282 0.01411,-0.0564 0.0071,-0.0282 0.0071,-0.0811 0.05644,0.004 0.116417,0.0106 0.0635,0.004 0.109361,0.004 l 0.0635,-0.37395 0.306916,-0.11288 z"
           style="font-style:italic;font-variant:normal;font-weight:normal;font-stretch:normal;font-family:Optima;-inkscape-font-specification:'Optima Italic';fill:#224477;fill-opacity:1;stroke-width:0.264583"
           id="path2147" />
        <path
           inkscape:connector-curvature="0"
           d="m 20.933386,126.54786 q 0,0.13052 0.08114,0.20108 0.08467,0.067 0.194027,0.067 0.148167,0 0.264583,-0.0811 0.116416,-0.0811 0.197555,-0.19756 0.02117,-0.12347 0.04586,-0.24341 0.0247,-0.12348 0.05997,-0.24695 -0.08114,0.0176 -0.158749,0.0318 -0.07761,0.0141 -0.15875,0.0318 -0.08819,0.0212 -0.183444,0.0529 -0.09172,0.0282 -0.169333,0.0811 -0.07408,0.0494 -0.123472,0.12347 -0.04939,0.0741 -0.04939,0.17992 z m 0.105833,-1.12889 q 0.134056,-0.0917 0.271639,-0.13758 0.14111,-0.0494 0.29986,-0.0494 0.22225,0 0.352777,0.10936 0.134055,0.10936 0.134055,0.28222 0,0.0741 -0.01764,0.15169 -0.01411,0.0776 -0.02469,0.12348 l -0.102305,0.43038 q -0.02822,0.11289 -0.03881,0.18698 -0.01058,0.0741 -0.01058,0.12699 0,0.0635 0.03175,0.11289 0.03528,0.0459 0.105833,0.0459 0.03175,0 0.05292,-0.007 0.02469,-0.0106 0.04233,-0.0247 l 0.01764,0.0741 q -0.05997,0.0388 -0.123472,0.06 -0.0635,0.0212 -0.137583,0.0212 -0.109361,0 -0.169333,-0.0564 -0.05645,-0.06 -0.0635,-0.16933 -0.105833,0.11289 -0.243416,0.1905 -0.134056,0.0741 -0.306916,0.0741 -0.07761,0 -0.155222,-0.0212 -0.07761,-0.0212 -0.141111,-0.067 -0.05997,-0.0494 -0.09878,-0.11995 -0.0388,-0.0741 -0.0388,-0.1658 0,-0.16933 0.08819,-0.27517 0.08819,-0.10583 0.211666,-0.1658 0.123472,-0.0635 0.254,-0.0917 0.130527,-0.0318 0.211666,-0.0494 0.07055,-0.0141 0.151694,-0.0247 0.08114,-0.0141 0.130528,-0.0353 0.07408,-0.0318 0.09172,-0.10936 0.02117,-0.0776 0.02117,-0.15169 0,-0.15875 -0.102305,-0.23283 -0.102305,-0.0776 -0.250472,-0.0776 -0.148166,0 -0.253999,0.067 -0.102305,0.0635 -0.197555,0.16581 h -0.04233 z"
           style="font-style:italic;font-variant:normal;font-weight:normal;font-stretch:normal;font-family:Optima;-inkscape-font-specification:'Optima Italic';fill:#224477;fill-opacity:1;stroke-width:0.264583"
           id="path2149" />
        <path
           inkscape:connector-curvature="0"
           d="m 23.30052,124.29714 q -0.01411,0.0459 -0.05644,0.21872 -0.03881,0.16933 -0.09525,0.41275 -0.05292,0.24341 -0.116416,0.53269 -0.0635,0.28575 -0.123472,0.56445 -0.05645,0.27516 -0.102306,0.51858 -0.04586,0.23989 -0.07055,0.381 -0.02822,-0.004 -0.0635,-0.004 -0.03175,0 -0.08114,0 -0.04586,0 -0.08114,0 -0.03175,0 -0.05997,0.004 0.05644,-0.20461 0.112888,-0.4445 0.05997,-0.24342 0.116417,-0.49389 0.05644,-0.25047 0.105833,-0.49742 0.05292,-0.24694 0.09525,-0.46919 0.04233,-0.22225 0.07408,-0.40922 0.03175,-0.18697 0.04939,-0.31397 0.05292,0.0141 0.134056,0.0141 0.0388,0 0.08114,-0.004 0.04233,-0.004 0.08114,-0.0106 z"
           style="font-style:italic;font-variant:normal;font-weight:normal;font-stretch:normal;font-family:Optima;-inkscape-font-specification:'Optima Italic';fill:#224477;fill-opacity:1;stroke-width:0.264583"
           id="path2151" />
        <path
           inkscape:connector-curvature="0"
           d="m 24.063345,126.60783 q 0.07055,-0.127 0.144638,-0.254 0.07761,-0.13053 0.148167,-0.26106 0.109361,-0.20108 0.176388,-0.32455 0.07056,-0.127 0.112889,-0.20461 0.04233,-0.0811 0.0635,-0.127 0.02117,-0.0459 0.0388,-0.0882 l 0.03528,-0.0847 q 0.05292,0.0141 0.123472,0.0141 0.07055,0 0.112889,-0.0141 -0.194028,0.30691 -0.395111,0.63147 -0.201083,0.32455 -0.39511,0.65616 -0.194027,0.33161 -0.377471,0.65617 -0.179917,0.32455 -0.331611,0.635 -0.0388,-0.0141 -0.112888,-0.0141 -0.07056,0 -0.109361,0.0141 0.148166,-0.23284 0.296332,-0.4692 0.148167,-0.23636 0.282222,-0.45155 -0.105833,-0.43392 -0.211666,-0.83256 -0.102305,-0.40216 -0.215194,-0.82549 0.03175,0.007 0.07055,0.0106 0.03881,0.004 0.07761,0.004 0.08467,0 0.137583,-0.0141 0.04233,0.24341 0.119944,0.58561 0.07761,0.34219 0.1905,0.75847 h 0.01764 z"
           style="font-style:italic;font-variant:normal;font-weight:normal;font-stretch:normal;font-family:Optima;-inkscape-font-specification:'Optima Italic';fill:#224477;fill-opacity:1;stroke-width:0.264583"
           id="path2153" />
        <path
           inkscape:connector-curvature="0"
           d="m 26.088285,125.54597 q -0.02822,-0.0988 -0.109361,-0.1517 -0.07761,-0.0564 -0.179916,-0.0564 -0.07761,0 -0.141111,0.0318 -0.05997,0.0282 -0.105833,0.0776 -0.04233,0.0459 -0.06703,0.10583 -0.02117,0.06 -0.02117,0.11995 0,0.0635 0.02469,0.11289 0.02469,0.0459 0.06703,0.0811 0.04233,0.0353 0.09525,0.0635 0.05645,0.0282 0.116417,0.0529 0.05644,0.0247 0.112888,0.0564 0.05645,0.0282 0.102306,0.0705 0.04586,0.0423 0.07408,0.10231 0.02822,0.06 0.02822,0.14464 0,0.12347 -0.05644,0.23636 -0.05645,0.10936 -0.155222,0.19402 -0.09525,0.0847 -0.229305,0.13053 -0.130528,0.0459 -0.285749,0.0459 -0.109361,0 -0.201083,-0.0212 -0.08819,-0.0212 -0.179917,-0.0706 0.03881,-0.0635 0.06703,-0.13053 0.02822,-0.067 0.04586,-0.10583 h 0.02469 q 0.03881,0.10583 0.134056,0.15875 0.09878,0.0529 0.215194,0.0529 0.102305,0 0.17286,-0.0353 0.07408,-0.0353 0.119945,-0.0882 0.04586,-0.0529 0.06703,-0.11641 0.02469,-0.067 0.02469,-0.12347 0,-0.11289 -0.07056,-0.16934 -0.07055,-0.0564 -0.211666,-0.11994 -0.05644,-0.0247 -0.116416,-0.0564 -0.05645,-0.0318 -0.102306,-0.0776 -0.04586,-0.0459 -0.07408,-0.10936 -0.02822,-0.067 -0.02822,-0.16228 0,-0.0917 0.03528,-0.1905 0.03528,-0.0988 0.10936,-0.18344 0.07761,-0.0847 0.201083,-0.13758 0.123472,-0.0564 0.299861,-0.0564 0.09525,0 0.165805,0.0176 0.07055,0.0141 0.155222,0.0529 -0.05292,0.11994 -0.07056,0.16933 -0.01411,0.0494 -0.02117,0.0847 h -0.03175 z"
           style="font-style:italic;font-variant:normal;font-weight:normal;font-stretch:normal;font-family:Optima;-inkscape-font-specification:'Optima Italic';fill:#224477;fill-opacity:1;stroke-width:0.264583"
           id="path2155" />
      </g>
    </g>
    <g
       transform="translate(-2.608796,1.2595297)"
       style="font-size:3.52777px;line-height:1.25;font-family:Futura;-inkscape-font-specification:Futura;stroke-width:0.264583"
       id="text2913"
       aria-label="8 Min/And operator">
      <path
         inkscape:connector-curvature="0"
         id="path2915"
         style="font-style:italic;font-variant:normal;font-weight:normal;font-stretch:normal;font-family:Optima;-inkscape-font-specification:'Optima Italic';fill:#3a5c8f;fill-opacity:1;stroke-width:0.264583"
         d="m 18.224498,2.0320011 q 0,0.084666 0.02117,0.1693329 0.02469,0.081139 0.07408,0.1446386 0.04939,0.0635 0.123472,0.1023053 0.07761,0.038806 0.186971,0.038806 0.148167,0 0.257528,-0.070555 0.112888,-0.074083 0.183444,-0.183444 0.07408,-0.1128887 0.10936,-0.2434162 0.03528,-0.1340552 0.03528,-0.2539994 0,-0.1164164 -0.03175,-0.1975551 -0.03175,-0.084666 -0.08819,-0.1375831 -0.05292,-0.056444 -0.127,-0.081139 -0.07408,-0.028222 -0.155222,-0.028222 -0.151694,0 -0.264582,0.074083 -0.112889,0.074083 -0.183444,0.1869718 -0.07056,0.1093609 -0.105833,0.2398884 -0.03528,0.1269997 -0.03528,0.2398884 z m 0.338666,-1.18885853 q 0,0.16227743 0.07761,0.25752723 0.07761,0.09525 0.246944,0.09525 0.102305,0 0.186971,-0.045861 0.08467,-0.045861 0.141111,-0.123472 0.05997,-0.0776109 0.09172,-0.17638849 0.03175,-0.0987776 0.03175,-0.20461066 0,-0.14816634 -0.08114,-0.25047167 -0.07761,-0.10230534 -0.23636,-0.10230534 -0.08819,0 -0.172861,0.0388055 -0.08114,0.0388055 -0.144638,0.11288864 -0.0635,0.0705554 -0.102306,0.17286073 -0.0388,0.10230533 -0.0388,0.22577728 z m 0.945442,0.90663693 q 0,0.1481663 -0.05997,0.2998604 -0.05644,0.1481664 -0.172861,0.2681105 -0.112888,0.1199442 -0.278694,0.1940274 -0.165805,0.070555 -0.380999,0.070555 -0.123472,0 -0.246944,-0.028222 -0.119944,-0.024694 -0.215194,-0.091722 -0.09525,-0.070555 -0.155221,-0.1799163 -0.05645,-0.1128886 -0.05645,-0.2716382 0,-0.1481664 0.04586,-0.2751661 0.04939,-0.1305275 0.134055,-0.2293051 0.0882,-0.1023053 0.211667,-0.1693329 0.126999,-0.070555 0.282221,-0.098778 V 1.220614 Q 18.556106,1.202975 18.49966,1.171225 18.44322,1.135947 18.397355,1.083031 q -0.04586,-0.052917 -0.07408,-0.11994415 -0.02469,-0.0705554 -0.02469,-0.15522188 0,-0.10230533 0.0388,-0.2116662 0.04233,-0.10936087 0.130528,-0.20108289 0.08819,-0.091722 0.229305,-0.14816635 0.144639,-0.0599721 0.349249,-0.0599721 0.179916,0 0.289277,0.0529166 0.112889,0.0493888 0.172861,0.12347196 0.0635,0.0705554 0.08114,0.15169411 0.02117,0.0776109 0.02117,0.13758303 0,0.11994418 -0.04233,0.21519397 -0.0388,0.0952498 -0.109361,0.1658052 -0.07055,0.070555 -0.162277,0.1199441 -0.09172,0.049389 -0.197555,0.077611 v 0.017639 q 0.194027,0.049389 0.29986,0.1869718 0.109361,0.1340553 0.109361,0.3139716 z" />
      <path
         inkscape:connector-curvature="0"
         id="path2917"
         style="font-style:italic;font-variant:normal;font-weight:normal;font-stretch:normal;font-family:Optima;-inkscape-font-specification:'Optima Italic';fill:#3a5c8f;fill-opacity:1;stroke-width:0.264583"
         d="M 22.07324,2.5788054 Q 22.06266,2.5364724 22.02385,2.3988892 21.98857,2.2577784 21.93566,2.0708065 21.88627,1.8838347 21.822771,1.6686408 q -0.0635,-0.215194 -0.123472,-0.4233324 -0.05997,-0.2081385 -0.112888,-0.38805475 -0.05292,-0.17991627 -0.08819,-0.29280491 -0.0035,0.0141111 -0.03175,0.12699972 -0.02469,0.10936087 -0.0635,0.2822216 -0.03528,0.17286074 -0.08114,0.38805474 -0.04586,0.2151939 -0.08819,0.4303879 -0.03881,0.215194 -0.07056,0.4162769 -0.02822,0.1975551 -0.0388,0.3351381 Q 21.099575,2.54 21.067826,2.54 q -0.03175,0 -0.05997,0 -0.02822,0 -0.0635,0 -0.03528,0 -0.0635,0.00353 0.03528,-0.1058331 0.08114,-0.2857493 0.04939,-0.1834441 0.09878,-0.3986381 0.05292,-0.2187217 0.105833,-0.4586101 0.05644,-0.2398883 0.102305,-0.46919338 0.04939,-0.23283282 0.09172,-0.43744348 0.04233,-0.20813844 0.07056,-0.35630478 0.02822,0.007056 0.05292,0.0105833 0.02822,0.003528 0.07056,0.003528 0.04586,0 0.07055,-0.003528 0.0247,-0.003528 0.04939,-0.0105833 0.05644,0.22930506 0.09878,0.40216579 0.04233,0.17286073 0.08819,0.34572146 0.04586,0.17286069 0.102305,0.37747139 0.05997,0.2046107 0.148166,0.5009434 0.0247,0.084666 0.04233,0.1411108 0.01764,0.056444 0.02822,0.098777 0.01411,0.042333 0.02117,0.074083 0.01058,0.028222 0.02117,0.059972 0.03881,-0.049389 0.137583,-0.1869718 0.09878,-0.1411108 0.229305,-0.3280826 0.130528,-0.1869719 0.278694,-0.4021658 0.148166,-0.2187218 0.285749,-0.42333244 0.137583,-0.20461066 0.250472,-0.37747139 0.112889,-0.17638851 0.176389,-0.28222161 0.05292,0.0141111 0.123472,0.0141111 0.07761,0 0.130527,-0.0141111 -0.01058,0.0317499 -0.04586,0.17286074 -0.03528,0.13758303 -0.08467,0.34572146 -0.04939,0.20461066 -0.105834,0.45861014 -0.05292,0.2539994 -0.105833,0.5115266 -0.05292,0.2575272 -0.09525,0.5009434 -0.04233,0.2398883 -0.0635,0.4162768 Q 23.304432,2.54 23.269154,2.54 q -0.03528,0 -0.08467,0 -0.04586,0 -0.0882,0 -0.0388,0 -0.07761,0.00353 0.03881,-0.1199441 0.08467,-0.3104437 0.04939,-0.1940274 0.09878,-0.4092214 0.04939,-0.2151939 0.09525,-0.4303879 0.04586,-0.215194 0.08114,-0.3880547 0.03528,-0.17638851 0.05644,-0.28927715 0.0247,-0.11641641 0.02822,-0.12699972 -0.03175,0.0423332 -0.134055,0.18697181 -0.09878,0.1411108 -0.232833,0.33866596 -0.134055,0.1940273 -0.289277,0.4198046 -0.151694,0.2222495 -0.289277,0.4303879 -0.137583,0.2081385 -0.246944,0.3739437 -0.109361,0.1658052 -0.155222,0.2398883 h -0.04233 z" />
      <path
         inkscape:connector-curvature="0"
         id="path2919"
         style="font-style:italic;font-variant:normal;font-weight:normal;font-stretch:normal;font-family:Optima;-inkscape-font-specification:'Optima Italic';fill:#3a5c8f;fill-opacity:1;stroke-width:0.264583"
         d="m 24.410994,0.32456038 q 0,-0.0705554 0.04939,-0.11994419 0.04939,-0.0493888 0.119944,-0.0493888 0.07055,0 0.119944,0.0493888 0.04939,0.0493888 0.04939,0.11994419 0,0.0705554 -0.04939,0.11994418 -0.04939,0.0493888 -0.119944,0.0493888 -0.07056,0 -0.119944,-0.0493888 -0.04939,-0.0493888 -0.04939,-0.11994418 z m 0.194027,0.55738766 q -0.01764,0.0564443 -0.04939,0.17638846 -0.02822,0.1164165 -0.06703,0.2681106 -0.03528,0.1516941 -0.07408,0.3245548 -0.03528,0.169333 -0.07056,0.3351382 -0.03175,0.1658052 -0.05997,0.3139715 Q 24.2593,2.4482779 24.248716,2.5435277 24.209911,2.54 24.167578,2.54 q -0.04233,0 -0.08114,0 -0.04233,0 -0.07761,0 -0.03175,0 -0.05997,0.00353 0.0388,-0.1128886 0.08114,-0.275166 0.04233,-0.1622775 0.08114,-0.338666 0.03881,-0.1763885 0.07408,-0.3492492 0.03528,-0.1728607 0.05997,-0.3174993 0.02822,-0.1446386 0.04586,-0.2469439 0.01764,-0.10230533 0.02117,-0.13405526 0.07056,0.0141111 0.148167,0.0141111 0.08819,0 0.144638,-0.0141111 z" />
      <path
         inkscape:connector-curvature="0"
         id="path2921"
         style="font-style:italic;font-variant:normal;font-weight:normal;font-stretch:normal;font-family:Optima;-inkscape-font-specification:'Optima Italic';fill:#3a5c8f;fill-opacity:1;stroke-width:0.264583"
         d="m 25.367846,1.1500586 q 0.03528,-0.049389 0.09172,-0.098778 0.05997,-0.049389 0.134056,-0.091722 0.07408,-0.0423332 0.165805,-0.0670276 0.09172,-0.0282222 0.190499,-0.0282222 0.09525,0 0.183444,0.0282222 0.08819,0.0246944 0.155222,0.0776109 0.07056,0.0529165 0.112889,0.1340553 0.04233,0.077611 0.04233,0.183444 0,0.035278 -0.0035,0.0635 0,0.028222 -0.01058,0.074083 -0.0071,0.045861 -0.02469,0.1164164 -0.01411,0.070555 -0.04233,0.1904996 -0.01411,0.0635 -0.03881,0.1799163 -0.02469,0.1128886 -0.04939,0.2398884 -0.02469,0.1234719 -0.04586,0.2363606 -0.02117,0.1093608 -0.02469,0.1552218 Q 26.175706,2.54 26.140428,2.54 q -0.03175,0 -0.07055,0 -0.03881,0 -0.08114,0 -0.04233,0 -0.07408,0.00353 0.01411,-0.028222 0.0388,-0.1164164 0.0247,-0.088194 0.05292,-0.2010829 0.03175,-0.1128886 0.05997,-0.2434161 0.03175,-0.1305275 0.05644,-0.2504717 0.02469,-0.1234719 0.03881,-0.2257773 0.01764,-0.1023053 0.01764,-0.1622774 0,-0.081139 -0.03175,-0.137583 -0.02822,-0.059972 -0.07761,-0.098778 -0.04939,-0.038805 -0.112889,-0.056444 -0.05997,-0.021167 -0.127,-0.021167 -0.04233,0 -0.112888,0.014111 -0.07056,0.014111 -0.148167,0.056444 -0.07408,0.038806 -0.144638,0.1128886 -0.06703,0.074083 -0.105833,0.1940274 -0.02117,0.059972 -0.04586,0.1622774 -0.0247,0.098778 -0.05292,0.2187217 -0.02469,0.1164165 -0.04939,0.2398884 -0.02469,0.123472 -0.04586,0.2328328 -0.01764,0.1058331 -0.03175,0.1834441 -0.01411,0.077611 -0.01764,0.098777 Q 25.046819,2.54 25.015069,2.54 q -0.03175,0 -0.07055,0 -0.03881,0 -0.07761,0 -0.03528,0 -0.0635,0.00353 0.0247,-0.070555 0.05644,-0.2046106 0.03528,-0.1375831 0.07056,-0.2998605 0.03528,-0.1622774 0.07056,-0.3351381 0.03881,-0.1763885 0.07056,-0.3351382 0.03175,-0.1587496 0.05292,-0.2857494 0.0247,-0.13052746 0.03528,-0.20108286 0.05292,0.0141111 0.127,0.0141111 0.03175,0 0.06703,-0.003528 0.03528,-0.003528 0.06703,-0.0105833 L 25.353735,1.143003 Z" />
      <path
         inkscape:connector-curvature="0"
         id="path2923"
         style="font-style:italic;font-variant:normal;font-weight:normal;font-stretch:normal;font-family:Optima;-inkscape-font-specification:'Optima Italic';fill:#3a5c8f;fill-opacity:1;stroke-width:0.264583"
         d="M 26.908214,2.6634719 H 26.721242 L 28.019461,0.038811 h 0.186972 z" />
      <path
         inkscape:connector-curvature="0"
         id="path2925"
         style="font-style:italic;font-variant:normal;font-weight:normal;font-stretch:normal;font-family:Optima;-inkscape-font-specification:'Optima Italic';fill:#3a5c8f;fill-opacity:1;stroke-width:0.264583"
         d="M 29.454106,0.52917104 28.840274,1.4640301 q 0.201083,0.010583 0.409222,0.010583 0.20461,0 0.409221,-0.010583 L 29.46469,0.52917104 Z m 0.71261,2.01435666 Q 30.131438,2.54 30.092633,2.54 q -0.03881,0 -0.08819,0 -0.04939,0 -0.0882,0 -0.03528,0 -0.07055,0.00353 -0.01058,-0.084666 -0.03175,-0.2187217 -0.02117,-0.137583 -0.04586,-0.2751661 -0.02117,-0.137583 -0.04586,-0.2575272 -0.02117,-0.1234719 -0.03528,-0.1904996 -0.05292,-0.00353 -0.186972,-0.00706 -0.134055,-0.00353 -0.282221,-0.00353 -0.116417,0 -0.232833,0.00353 -0.116416,0.00353 -0.232833,0.00706 -0.04939,0.070555 -0.127,0.1975552 Q 28.550997,1.9226402 28.469859,2.063751 28.38872,2.201334 28.314637,2.3353893 28.240554,2.4659168 28.19822,2.5435277 28.173526,2.54 28.148832,2.54 q -0.02469,0 -0.0635,0 -0.02822,0 -0.05645,0 -0.02822,0 -0.06703,0.00353 Q 28.26524,2.099031 28.558045,1.654532 28.854378,1.210033 29.154238,0.74789508 29.284765,0.54328442 29.383543,0.39864585 29.485848,0.2504795 29.57757,0.09878539 h 0.06703 q 0.01764,0.09172202 0.05644,0.28574938 0.03881,0.19402735 0.0882,0.43744348 0.04939,0.24341615 0.102305,0.51505445 0.05644,0.2681105 0.109361,0.5115266 0.05292,0.2398884 0.09525,0.430388 0.04586,0.1869718 0.07056,0.2645827 z" />
      <path
         inkscape:connector-curvature="0"
         id="path2927"
         style="font-style:italic;font-variant:normal;font-weight:normal;font-stretch:normal;font-family:Optima;-inkscape-font-specification:'Optima Italic';fill:#3a5c8f;fill-opacity:1;stroke-width:0.264583"
         d="m 31.059132,1.1500586 q 0.03528,-0.049389 0.09172,-0.098778 0.05997,-0.049389 0.134055,-0.091722 0.07408,-0.0423332 0.165805,-0.0670276 0.09172,-0.0282222 0.1905,-0.0282222 0.09525,0 0.183444,0.0282222 0.08819,0.0246944 0.155222,0.0776109 0.07055,0.0529165 0.112889,0.1340553 0.04233,0.077611 0.04233,0.183444 0,0.035278 -0.0035,0.0635 0,0.028222 -0.01058,0.074083 -0.0071,0.045861 -0.02469,0.1164164 -0.01411,0.070555 -0.04233,0.1904996 -0.01411,0.0635 -0.03881,0.1799163 -0.0247,0.1128886 -0.04939,0.2398884 -0.0247,0.1234719 -0.04586,0.2363606 -0.02117,0.1093608 -0.0247,0.1552218 Q 31.866991,2.54 31.831714,2.54 q -0.03175,0 -0.07056,0 -0.0388,0 -0.08114,0 -0.04233,0 -0.07408,0.00353 0.01411,-0.028222 0.03881,-0.1164164 0.02469,-0.088194 0.05292,-0.2010829 0.03175,-0.1128886 0.05997,-0.2434161 0.03175,-0.1305275 0.05645,-0.2504717 0.02469,-0.1234719 0.0388,-0.2257773 0.01764,-0.1023053 0.01764,-0.1622774 0,-0.081139 -0.03175,-0.137583 -0.02822,-0.059972 -0.07761,-0.098778 -0.04939,-0.038805 -0.112888,-0.056444 -0.05997,-0.021167 -0.127,-0.021167 -0.04233,0 -0.112889,0.014111 -0.07055,0.014111 -0.148166,0.056444 -0.07408,0.038806 -0.144639,0.1128886 -0.06703,0.074083 -0.105833,0.1940274 -0.02117,0.059972 -0.04586,0.1622774 -0.02469,0.098778 -0.05292,0.2187217 -0.02469,0.1164165 -0.04939,0.2398884 -0.0247,0.123472 -0.04586,0.2328328 -0.01764,0.1058331 -0.03175,0.1834441 -0.01411,0.077611 -0.01764,0.098777 Q 30.738105,2.54 30.706355,2.54 q -0.03175,0 -0.07055,0 -0.03881,0 -0.07761,0 -0.03528,0 -0.0635,0.00353 0.02469,-0.070555 0.05644,-0.2046106 0.03528,-0.1375831 0.07055,-0.2998605 0.03528,-0.1622774 0.07056,-0.3351381 0.0388,-0.1763885 0.07056,-0.3351382 0.03175,-0.1587496 0.05292,-0.2857494 0.02469,-0.13052746 0.03528,-0.20108286 0.05292,0.0141111 0.126999,0.0141111 0.03175,0 0.06703,-0.003528 0.03528,-0.003528 0.06703,-0.0105833 L 31.045021,1.143003 Z" />
      <path
         inkscape:connector-curvature="0"
         id="path2929"
         style="font-style:italic;font-variant:normal;font-weight:normal;font-stretch:normal;font-family:Optima;-inkscape-font-specification:'Optima Italic';fill:#3a5c8f;fill-opacity:1;stroke-width:0.264583"
         d="m 32.789999,1.9332235 q 0,0.2575272 0.109361,0.3951103 0.112889,0.1340552 0.3175,0.1340552 0.201083,0 0.33161,-0.1128886 0.130528,-0.1128887 0.208138,-0.2716383 0.08114,-0.1587497 0.112889,-0.3280826 0.03175,-0.169333 0.03175,-0.2857494 0,-0.052917 -0.01411,-0.1340553 -0.01058,-0.081139 -0.05644,-0.1587496 -0.04586,-0.077611 -0.130528,-0.1305275 -0.08467,-0.0564443 -0.229305,-0.0564443 -0.204611,0 -0.338666,0.1093608 -0.130527,0.1093609 -0.208138,0.2645828 -0.07761,0.1516941 -0.105833,0.3139715 -0.02822,0.1587497 -0.02822,0.261055 z m 0.980721,0.306916 q -0.04233,0.056444 -0.09878,0.1199442 -0.05644,0.0635 -0.130528,0.1164164 -0.07408,0.052917 -0.17286,0.081139 -0.09878,0.03175 -0.225778,0.03175 -0.158749,0 -0.278693,-0.049389 -0.119945,-0.052917 -0.201083,-0.1481664 -0.07761,-0.09525 -0.116417,-0.2187217 -0.0388,-0.123472 -0.0388,-0.261055 0,-0.1658052 0.05644,-0.3492492 0.05644,-0.1869719 0.169333,-0.3421937 0.116417,-0.1587497 0.289277,-0.26105502 0.172861,-0.10230533 0.405694,-0.10230533 0.141111,0 0.232833,0.0388055 0.09525,0.0388055 0.155222,0.0952498 0.0635,0.0529166 0.09525,0.11288865 0.03175,0.059972 0.04939,0.1023053 h 0.01411 q 0.0635,-0.3386659 0.130528,-0.67027628 0.06703,-0.33161039 0.112888,-0.62088753 0.05292,0.01411108 0.141111,0.01411108 0.08467,0 0.137583,-0.01411108 Q 34.41983,0.22931072 34.363385,0.47272686 34.306945,0.71261522 34.26108,0.93486473 34.21522,1.1535864 34.16936,1.3793637 34.1235,1.605141 34.067054,1.8838348 34.03883,2.0143622 34.00708,2.1942785 33.97533,2.370667 33.947108,2.5435277 33.922414,2.54 33.897719,2.54 q -0.02469,0 -0.07055,0 -0.04586,0 -0.07761,0 -0.02822,0 -0.05644,0.00353 z" />
      <path
         inkscape:connector-curvature="0"
         id="path2931"
         style="font-style:italic;font-variant:normal;font-weight:normal;font-stretch:normal;font-family:Optima;-inkscape-font-specification:'Optima Italic';fill:#3a5c8f;fill-opacity:1;stroke-width:0.264583"
         d="m 35.75531,1.9649734 q 0,0.2222496 0.102305,0.3668881 0.105833,0.1446386 0.345722,0.1446386 0.201083,0 0.338666,-0.1058331 0.137583,-0.1093609 0.225777,-0.2645828 0.08819,-0.1552218 0.127,-0.3280826 0.03881,-0.1728607 0.03881,-0.3033882 0,-0.1093609 -0.03175,-0.2010829 -0.02822,-0.09525 -0.08819,-0.1622774 -0.05997,-0.070555 -0.148166,-0.1093609 -0.08819,-0.0388054 -0.201083,-0.0388054 -0.1905,0 -0.328083,0.1023053 -0.134055,0.1023053 -0.218722,0.2539994 -0.08467,0.1481664 -0.123471,0.3245549 -0.03881,0.1728607 -0.03881,0.321027 z M 35.476616,1.880307 q 0,-0.1904996 0.06703,-0.3739437 0.07055,-0.183444 0.197555,-0.3280826 0.127,-0.1481663 0.310444,-0.23636057 0.183444,-0.091722 0.409221,-0.091722 0.208138,0 0.352777,0.0599721 0.144639,0.0564443 0.232833,0.15169407 0.08819,0.09525 0.127,0.2187218 0.03881,0.1234719 0.03881,0.2575272 0,0.1940273 -0.07055,0.3845269 -0.07056,0.1869718 -0.201083,0.3351382 -0.130528,0.1481663 -0.313972,0.2363606 -0.183444,0.084666 -0.412749,0.084666 -0.218722,0 -0.36336,-0.0635 -0.141111,-0.0635 -0.225777,-0.1658052 -0.08114,-0.1058331 -0.116417,-0.2293051 -0.03175,-0.1269997 -0.03175,-0.2398883 z" />
      <path
         inkscape:connector-curvature="0"
         id="path2933"
         style="font-style:italic;font-variant:normal;font-weight:normal;font-stretch:normal;font-family:Optima;-inkscape-font-specification:'Optima Italic';fill:#3a5c8f;fill-opacity:1;stroke-width:0.264583"
         d="m 37.8319,1.9896678 q 0,0.1446386 0.04233,0.2363606 0.04233,0.091722 0.105833,0.1446386 0.0635,0.052917 0.137583,0.074083 0.07408,0.017639 0.134056,0.017639 0.190499,0 0.321027,-0.1093609 0.134055,-0.1093608 0.215194,-0.2610549 0.08114,-0.1552219 0.116416,-0.3210271 0.03881,-0.1658052 0.03881,-0.2786938 0,-0.1375831 -0.03881,-0.2293051 -0.0388,-0.09525 -0.102305,-0.1516941 -0.05997,-0.059972 -0.137583,-0.084667 -0.07408,-0.024694 -0.148167,-0.024694 -0.14111,0 -0.246944,0.0635 -0.105833,0.059972 -0.183444,0.1552219 -0.07408,0.09525 -0.123472,0.2116662 -0.04939,0.1164164 -0.07761,0.2257773 -0.02822,0.1093608 -0.04233,0.2010828 -0.01058,0.088194 -0.01058,0.1305275 z M 37.761345,2.233084 Q 37.701372,2.54 37.637873,2.861027 q -0.0635,0.3245549 -0.116417,0.5997209 -0.04233,-0.014111 -0.119944,-0.014111 -0.07761,0 -0.137583,0.014111 0.04586,-0.1975551 0.09525,-0.4409712 0.04939,-0.2398884 0.102305,-0.49036 0.05292,-0.2539995 0.105833,-0.5150545 0.05292,-0.261055 0.102306,-0.4974156 0.03175,-0.1587496 0.05644,-0.3174993 0.02822,-0.1587496 0.05997,-0.31749926 0.02822,0.007056 0.0635,0.0105833 0.0388,0.003528 0.07408,0.003528 0.02822,0 0.0635,-0.003528 0.03881,-0.003528 0.06703,-0.0105833 -0.02117,0.0846665 -0.03528,0.14463856 -0.01411,0.059972 -0.03175,0.1622774 0.03528,-0.049389 0.08819,-0.1058331 0.05644,-0.059972 0.134055,-0.10936084 0.07761,-0.0529165 0.176389,-0.0881943 0.09878,-0.0352777 0.225777,-0.0352777 0.07408,0 0.179916,0.0211666 0.105833,0.0211666 0.201083,0.091722 0.09525,0.0670277 0.162278,0.19402734 0.06703,0.1269997 0.06703,0.3386659 0,0.1975552 -0.06703,0.3951103 -0.0635,0.1940273 -0.183444,0.3492492 -0.119945,0.1552219 -0.292805,0.2504717 -0.169333,0.091722 -0.384527,0.091722 -0.08467,0 -0.169333,-0.017639 -0.08114,-0.017639 -0.151694,-0.052917 -0.07056,-0.038806 -0.123472,-0.1058331 -0.05292,-0.070555 -0.07761,-0.1728607 z" />
      <path
         inkscape:connector-curvature="0"
         id="path2935"
         style="font-style:italic;font-variant:normal;font-weight:normal;font-stretch:normal;font-family:Optima;-inkscape-font-specification:'Optima Italic';fill:#3a5c8f;fill-opacity:1;stroke-width:0.264583"
         d="m 40.376193,0.95603121 q -0.07055,0 -0.158749,0.0282222 -0.08467,0.0246944 -0.169333,0.0952498 -0.08114,0.067028 -0.151695,0.1869718 -0.07055,0.1164164 -0.10936,0.2998604 0.10936,0.00706 0.239888,0.010583 0.130527,0.00353 0.239888,0.00353 h 0.112889 q 0.08819,0 0.186972,0 0.09878,-0.00353 0.169333,-0.014111 0.0071,-0.03175 0.01411,-0.074083 0.0071,-0.045861 0.0071,-0.1164165 0,-0.1164164 -0.03528,-0.1975551 -0.03175,-0.081139 -0.0882,-0.1305275 -0.05292,-0.0493888 -0.119944,-0.0705554 -0.06703,-0.0211666 -0.137583,-0.0211666 z M 40.746609,2.4306391 Q 40.616082,2.50825 40.467915,2.54 q -0.144638,0.035278 -0.296332,0.035278 -0.112889,0 -0.236361,-0.03175 -0.123472,-0.028222 -0.229305,-0.1093608 -0.102305,-0.084666 -0.169333,-0.2222496 -0.06703,-0.1411108 -0.06703,-0.352777 0,-0.2081384 0.0635,-0.3915824 0.06703,-0.1834441 0.186972,-0.3174993 0.119944,-0.1375831 0.285749,-0.21519401 0.169333,-0.0811387 0.370416,-0.0811387 0.127,0 0.239889,0.0317499 0.112888,0.0282222 0.201082,0.0987776 0.08819,0.0670276 0.137583,0.17991621 0.05292,0.1093609 0.05292,0.2681106 0,0.098778 -0.01411,0.1693329 -0.01411,0.070555 -0.02469,0.1164164 -0.07408,-0.00353 -0.134056,-0.00706 -0.05997,-0.00353 -0.119944,-0.00353 -0.05644,-0.00353 -0.119944,-0.00353 -0.0635,-0.00353 -0.144639,-0.00353 h -0.261055 -0.10936 q -0.08467,0 -0.169333,0.00353 -0.08467,0.00353 -0.148167,0.00353 -0.0071,0.035278 -0.01411,0.084666 -0.0035,0.049389 -0.0035,0.1199442 0,0.1728607 0.05292,0.2786938 0.05292,0.1058331 0.127,0.1658052 0.07761,0.059972 0.165805,0.081139 0.09172,0.021167 0.165805,0.021167 0.102305,0 0.183444,-0.021167 0.08467,-0.021167 0.148166,-0.049389 0.06703,-0.028222 0.112889,-0.059972 0.04939,-0.035278 0.08114,-0.056444 h 0.01058 z" />
      <path
         inkscape:connector-curvature="0"
         id="path2937"
         style="font-style:italic;font-variant:normal;font-weight:normal;font-stretch:normal;font-family:Optima;-inkscape-font-specification:'Optima Italic';fill:#3a5c8f;fill-opacity:1;stroke-width:0.264583"
         d="m 42.256495,1.1606419 q -0.02822,-0.010583 -0.0635,-0.021167 -0.03528,-0.010583 -0.07761,-0.010583 -0.123472,0 -0.243416,0.1058331 -0.116416,0.1023054 -0.176388,0.3139716 -0.0071,0.014111 -0.0247,0.081139 -0.01411,0.067028 -0.03528,0.1622774 -0.02117,0.091722 -0.04586,0.2046107 -0.02117,0.1093608 -0.04233,0.2151939 -0.02117,0.1058331 -0.0388,0.1975552 -0.01411,0.088194 -0.02117,0.1340552 Q 41.459219,2.54 41.427469,2.54 q -0.03175,0 -0.07055,0 -0.03881,0 -0.07761,0 -0.03528,0 -0.06703,0.00353 0.02117,-0.059972 0.05292,-0.183444 0.03175,-0.1269997 0.06703,-0.2822216 0.03528,-0.1552219 0.07056,-0.3280826 0.03881,-0.1728608 0.06703,-0.3351382 0.03175,-0.1622774 0.05644,-0.2998604 0.02469,-0.14111084 0.03528,-0.23283286 0.02822,0.007056 0.0635,0.0105833 0.03881,0.003528 0.07408,0.003528 0.07761,0 0.130528,-0.0141111 -0.0071,0.0211666 -0.02117,0.0634999 -0.01058,0.0388055 -0.02469,0.091722 -0.01411,0.052917 -0.02822,0.1128887 -0.01058,0.056444 -0.01764,0.1128886 h 0.01764 q 0.05644,-0.070555 0.112888,-0.1446386 0.05997,-0.074083 0.123472,-0.13052694 0.06703,-0.0599721 0.148167,-0.0952498 0.08114,-0.0388055 0.183444,-0.0352777 -0.01764,0.0881943 -0.02822,0.15522134 -0.0071,0.0635 -0.0071,0.1305275 l -0.03175,0.017639 z" />
      <path
         inkscape:connector-curvature="0"
         id="path2939"
         style="font-style:italic;font-variant:normal;font-weight:normal;font-stretch:normal;font-family:Optima;-inkscape-font-specification:'Optima Italic';fill:#3a5c8f;fill-opacity:1;stroke-width:0.264583"
         d="m 42.595606,2.1660563 q 0,0.1305275 0.08114,0.2010829 0.08467,0.067028 0.194027,0.067028 0.148166,0 0.264583,-0.081139 0.116416,-0.081139 0.197555,-0.1975551 0.02117,-0.1234719 0.04586,-0.2434161 0.02469,-0.123472 0.05997,-0.2469439 -0.08114,0.017639 -0.15875,0.03175 -0.07761,0.014111 -0.158749,0.03175 -0.08819,0.021167 -0.183444,0.052917 -0.09172,0.028222 -0.169333,0.081139 -0.07408,0.049389 -0.123472,0.123472 -0.04939,0.074083 -0.04939,0.1799162 z m 0.105833,-1.1288864 q 0.134055,-0.091722 0.271638,-0.13758301 0.141111,-0.0493888 0.299861,-0.0493888 0.222249,0 0.352777,0.10936087 0.134055,0.10936094 0.134055,0.28222164 0,0.074083 -0.01764,0.1516941 -0.01411,0.077611 -0.02469,0.1234719 l -0.102306,0.430388 q -0.02822,0.1128886 -0.0388,0.1869718 -0.01058,0.074083 -0.01058,0.1269997 0,0.0635 0.03175,0.1128887 0.03528,0.045861 0.105833,0.045861 0.03175,0 0.05292,-0.00706 0.0247,-0.010583 0.04233,-0.024694 l 0.01764,0.074083 q -0.05997,0.038806 -0.123472,0.059972 -0.0635,0.021167 -0.137583,0.021167 -0.10936,0 -0.169333,-0.056444 -0.05644,-0.059972 -0.0635,-0.169333 -0.105834,0.1128887 -0.243417,0.1904996 -0.134055,0.074083 -0.306916,0.074083 -0.07761,0 -0.155221,-0.021167 Q 42.539162,2.54 42.475662,2.494139 42.415692,2.44475 42.376882,2.3741948 q -0.0388,-0.074083 -0.0388,-0.1658052 0,-0.169333 0.08819,-0.2751661 0.08819,-0.1058331 0.211666,-0.1658052 0.123472,-0.0635 0.254,-0.091722 0.130527,-0.03175 0.211666,-0.049389 0.07055,-0.014111 0.151694,-0.024694 0.08114,-0.014111 0.130527,-0.035278 0.07408,-0.03175 0.09172,-0.1093608 0.02117,-0.077611 0.02117,-0.1516942 0,-0.1587496 -0.102305,-0.2328328 -0.102306,-0.0776109 -0.250472,-0.0776109 -0.148166,0 -0.253999,0.0670276 -0.102306,0.0635 -0.197555,0.1658052 h -0.04233 z" />
      <path
         inkscape:connector-curvature="0"
         id="path2941"
         style="font-style:italic;font-variant:normal;font-weight:normal;font-stretch:normal;font-family:Optima;-inkscape-font-specification:'Optima Italic';fill:#3a5c8f;fill-opacity:1;stroke-width:0.264583"
         d="m 44.850342,0.44097679 q -0.03528,0.12347195 -0.0635,0.24341613 -0.0247,0.11994418 -0.05292,0.24341613 0.08114,0 0.176389,-0.003528 0.09878,-0.007056 0.190499,-0.0105833 -0.02117,0.0740832 -0.02117,0.14463855 -0.09172,-0.00353 -0.194028,-0.00706 -0.09878,-0.00706 -0.179916,-0.00706 L 44.56812,1.7074462 q -0.01058,0.056444 -0.02469,0.1269998 -0.01411,0.067028 -0.02822,0.1340552 -0.01058,0.067028 -0.02117,0.1305275 -0.0071,0.059972 -0.0071,0.1023053 0,0.070555 0.0247,0.1199442 0.02469,0.049389 0.05997,0.081139 0.0388,0.028222 0.08114,0.042333 0.04586,0.014111 0.08467,0.014111 0.05997,0 0.119944,-0.017639 0.05997,-0.021167 0.112889,-0.052916 l -0.0071,0.091722 q -0.07056,0.056444 -0.17286,0.077611 -0.09878,0.021167 -0.186972,0.021167 -0.06703,0 -0.137583,-0.021167 -0.06703,-0.017639 -0.119944,-0.056444 -0.05292,-0.038806 -0.0882,-0.098778 -0.03175,-0.0635 -0.03175,-0.1446385 0,-0.070555 0.01411,-0.1481664 0.01764,-0.077611 0.03528,-0.1658052 0.03881,-0.1799162 0.0635,-0.2928049 0.02469,-0.1128886 0.04233,-0.2010829 0.02117,-0.091722 0.03881,-0.1799163 0.01764,-0.091722 0.04586,-0.2257772 -0.04939,0 -0.112889,0.00353 -0.05997,0 -0.119944,0.00353 0.01058,-0.028222 0.01411,-0.0564443 0.0071,-0.0282222 0.0071,-0.0811387 0.05644,0.003528 0.116416,0.0105833 0.0635,0.003528 0.109361,0.003528 l 0.0635,-0.37394362 0.306916,-0.11288864 z" />
      <path
         inkscape:connector-curvature="0"
         id="path2943"
         style="font-style:italic;font-variant:normal;font-weight:normal;font-stretch:normal;font-family:Optima;-inkscape-font-specification:'Optima Italic';fill:#3a5c8f;fill-opacity:1;stroke-width:0.264583"
         d="m 45.456678,1.9649734 q 0,0.2222496 0.102306,0.3668881 0.105833,0.1446386 0.345721,0.1446386 0.201083,0 0.338666,-0.1058331 0.137583,-0.1093609 0.225777,-0.2645828 0.0882,-0.1552218 0.127,-0.3280826 0.03881,-0.1728607 0.03881,-0.3033882 0,-0.1093609 -0.03175,-0.2010829 -0.02822,-0.09525 -0.08819,-0.1622774 -0.05997,-0.070555 -0.148166,-0.1093609 -0.08819,-0.0388054 -0.201083,-0.0388054 -0.190499,0 -0.328082,0.1023053 -0.134056,0.1023053 -0.218722,0.2539994 -0.08467,0.1481664 -0.123472,0.3245549 -0.03881,0.1728607 -0.03881,0.321027 z M 45.177985,1.880307 q 0,-0.1904996 0.06703,-0.3739437 0.07056,-0.183444 0.197555,-0.3280826 0.127,-0.1481663 0.310444,-0.23636057 0.183444,-0.091722 0.409221,-0.091722 0.208139,0 0.352777,0.0599721 0.144639,0.0564443 0.232833,0.15169407 0.08819,0.09525 0.127,0.2187218 0.0388,0.1234719 0.0388,0.2575272 0,0.1940273 -0.07055,0.3845269 -0.07055,0.1869718 -0.201083,0.3351382 -0.130527,0.1481663 -0.313971,0.2363606 -0.183444,0.084666 -0.41275,0.084666 -0.218721,0 -0.36336,-0.0635 Q 45.41082,2.451805 45.326154,2.3494998 45.245014,2.2436667 45.209737,2.1201947 45.177987,1.993195 45.177987,1.8803064 Z" />
      <path
         inkscape:connector-curvature="0"
         id="path2945"
         style="font-style:italic;font-variant:normal;font-weight:normal;font-stretch:normal;font-family:Optima;-inkscape-font-specification:'Optima Italic';fill:#3a5c8f;fill-opacity:1;stroke-width:0.264583"
         d="m 48.168265,1.1606419 q -0.02822,-0.010583 -0.0635,-0.021167 -0.03528,-0.010583 -0.07761,-0.010583 -0.123472,0 -0.243416,0.1058331 -0.116416,0.1023054 -0.176388,0.3139716 -0.0071,0.014111 -0.02469,0.081139 -0.01411,0.067028 -0.03528,0.1622774 -0.02117,0.091722 -0.04586,0.2046107 -0.02117,0.1093608 -0.04233,0.2151939 -0.02117,0.1058331 -0.03881,0.1975552 -0.01411,0.088194 -0.02117,0.1340552 Q 47.370989,2.54 47.339239,2.54 q -0.03175,0 -0.07055,0 -0.03881,0 -0.07761,0 -0.03528,0 -0.06703,0.00353 0.02117,-0.059972 0.05292,-0.183444 0.03175,-0.1269997 0.06703,-0.2822216 0.03528,-0.1552219 0.07056,-0.3280826 0.0388,-0.1728608 0.06703,-0.3351382 0.03175,-0.1622774 0.05645,-0.2998604 0.02469,-0.14111084 0.03528,-0.23283286 0.02822,0.007056 0.0635,0.0105833 0.03881,0.003528 0.07408,0.003528 0.07761,0 0.130528,-0.0141111 -0.0071,0.0211666 -0.02117,0.0634999 -0.01058,0.0388055 -0.02469,0.091722 -0.01411,0.052917 -0.02822,0.1128887 -0.01058,0.056444 -0.01764,0.1128886 h 0.01764 q 0.05644,-0.070555 0.112888,-0.1446386 0.05997,-0.074083 0.123472,-0.13052694 0.06703,-0.0599721 0.148167,-0.0952498 0.08114,-0.0388055 0.183444,-0.0352777 -0.01764,0.0881943 -0.02822,0.15522134 -0.0071,0.0635 -0.0071,0.1305275 l -0.03175,0.017639 z" />
    </g>
    <g
       transform="translate(-0.79306,0.8013287)"
       style="font-size:3.52777px;line-height:1.25;font-family:Futura;-inkscape-font-specification:Futura;stroke-width:0.264583"
       id="text2950"
       aria-label="">
      <path
         inkscape:connector-curvature="0"
         id="path2952"
         style="font-style:italic;font-variant:normal;font-weight:normal;font-stretch:normal;font-size:2.82222px;font-family:Optima;-inkscape-font-specification:'Optima Italic';fill:#3a5c8f;fill-opacity:1;stroke-width:0.264583"
         d="M 16.769621,10.16 H 16.52433 L 16.298332,8.8329501 15.54179,10.16 h -0.245291 l 0.942578,-1.6026574 h 0.230132 z" />
    </g>
    <g
       aria-label=""
       id="text2950-9"
       style="font-size:3.52777px;line-height:1.25;font-family:Futura;-inkscape-font-specification:Futura;display:inline;opacity:1;stroke-width:0.264583"
       transform="translate(14.44694,0.80132872)">
      <path
         d="M 16.769621,10.16 H 16.52433 L 16.298332,8.8329501 15.54179,10.16 h -0.245291 l 0.942578,-1.6026574 h 0.230132 z"
         style="font-style:italic;font-variant:normal;font-weight:normal;font-stretch:normal;font-size:2.82222px;font-family:Optima;-inkscape-font-specification:'Optima Italic';fill:#3a5c8f;fill-opacity:1;stroke-width:0.264583"
         id="path2952-1"
         inkscape:connector-curvature="0" />
    </g>
    <g
       aria-label=""
       id="text2950-5"
       style="font-size:3.52777px;line-height:1.25;font-family:Futura;-inkscape-font-specification:Futura;display:inline;opacity:1;stroke-width:0.264583"
       transform="translate(-0.79306011,16.041328)">
      <path
         d="M 16.769621,10.16 H 16.52433 L 16.298332,8.8329501 15.54179,10.16 h -0.245291 l 0.942578,-1.6026574 h 0.230132 z"
         style="font-style:italic;font-variant:normal;font-weight:normal;font-stretch:normal;font-size:2.82222px;font-family:Optima;-inkscape-font-specification:'Optima Italic';fill:#3a5c8f;fill-opacity:1;stroke-width:0.264583"
         id="path2952-5"
         inkscape:connector-curvature="0" />
    </g>
    <g
       transform="translate(14.44694,16.041329)"
       style="font-size:3.52777px;line-height:1.25;font-family:Futura;-inkscape-font-specification:Futura;display:inline;opacity:1;stroke-width:0.264583"
       id="text2950-9-5"
       aria-label="">
      <path
         inkscape:connector-curvature="0"
         id="path2952-1-8"
         style="font-style:italic;font-variant:normal;font-weight:normal;font-stretch:normal;font-size:2.82222px;font-family:Optima;-inkscape-font-specification:'Optima Italic';fill:#3a5c8f;fill-opacity:1;stroke-width:0.264583"
         d="M 16.769621,10.16 H 16.52433 L 16.298332,8.8329501 15.54179,10.16 h -0.245291 l 0.942578,-1.6026574 h 0.230132 z" />
    </g>
    <g
       aria-label=""
       id="text2950-2"
       style="font-size:3.52777px;line-height:1.25;font-family:Futura;-inkscape-font-specification:Futura;display:inline;opacity:1;stroke-width:0.264583"
       transform="translate(-0.79306011,31.281328)">
      <path
         d="M 16.769621,10.16 H 16.52433 L 16.298332,8.8329501 15.54179,10.16 h -0.245291 l 0.942578,-1.6026574 h 0.230132 z"
         style="font-style:italic;font-variant:normal;font-weight:normal;font-stretch:normal;font-size:2.82222px;font-family:Optima;-inkscape-font-specification:'Optima Italic';fill:#3a5c8f;fill-opacity:1;stroke-width:0.264583"
         id="path2952-9"
         inkscape:connector-curvature="0" />
    </g>
    <g
       transform="translate(14.44694,31.281329)"
       style="font-size:3.52777px;line-height:1.25;font-family:Futura;-inkscape-font-specification:Futura;display:inline;opacity:1;stroke-width:0.264583"
       id="text2950-9-8"
       aria-label="">
      <path
         inkscape:connector-curvature="0"
         id="path2952-1-2"
         style="font-style:italic;font-variant:normal;font-weight:normal;font-stretch:normal;font-size:2.82222px;font-family:Optima;-inkscape-font-specification:'Optima Italic';fill:#3a5c8f;fill-opacity:1;stroke-width:0.264583"
         d="M 16.769621,10.16 H 16.52433 L 16.298332,8.8329501 15.54179,10.16 h -0.245291 l 0.942578,-1.6026574 h 0.230132 z" />
    </g>
    <g
       aria-label=""
       id="text2950-0"
       style="font-size:3.52777px;line-height:1.25;font-family:Futura;-inkscape-font-specification:Futura;display:inline;opacity:1;stroke-width:0.264583"
       transform="translate(-0.79306011,46.521328)">
      <path
         d="M 16.769621,10.16 H 16.52433 L 16.298332,8.8329501 15.54179,10.16 h -0.245291 l 0.942578,-1.6026574 h 0.230132 z"
         style="font-style:italic;font-variant:normal;font-weight:normal;font-stretch:normal;font-size:2.82222px;font-family:Optima;-inkscape-font-specification:'Optima Italic';fill:#3a5c8f;fill-opacity:1;stroke-width:0.264583"
         id="path2952-7"
         inkscape:connector-curvature="0" />
    </g>
    <g
       transform="translate(14.44694,46.521329)"
       style="font-size:3.52777px;line-height:1.25;font-family:Futura;-inkscape-font-specification:Futura;display:inline;opacity:1;stroke-width:0.264583"
       id="text2950-9-4"
       aria-label="">
      <path
         inkscape:connector-curvature="0"
         id="path2952-1-85"
         style="font-style:italic;font-variant:normal;font-weight:normal;font-stretch:normal;font-size:2.82222px;font-family:Optima;-inkscape-font-specification:'Optima Italic';fill:#3a5c8f;fill-opacity:1;stroke-width:0.264583"
         d="M 16.769621,10.16 H 16.52433 L 16.298332,8.8329501 15.54179,10.16 h -0.245291 l 0.942578,-1.6026574 h 0.230132 z" />
    </g>
    <g
       aria-label=""
       id="text2950-8"
       style="font-size:3.52777px;line-height:1.25;font-family:Futura;-inkscape-font-specification:Futura;display:inline;opacity:1;stroke-width:0.264583"
       transform="translate(-0.79306011,61.761328)">
      <path
         d="M 16.769621,10.16 H 16.52433 L 16.298332,8.8329501 15.54179,10.16 h -0.245291 l 0.942578,-1.6026574 h 0.230132 z"
         style="font-style:italic;font-variant:normal;font-weight:normal;font-stretch:normal;font-size:2.82222px;font-family:Optima;-inkscape-font-specification:'Optima Italic';fill:#3a5c8f;fill-opacity:1;stroke-width:0.264583"
         id="path2952-3"
         inkscape:connector-curvature="0" />
    </g>
    <g
       transform="translate(14.44694,61.761329)"
       style="font-size:3.52777px;line-height:1.25;font-family:Futura;-inkscape-font-specification:Futura;display:inline;opacity:1;stroke-width:0.264583"
       id="text2950-9-0"
       aria-label="">
      <path
         inkscape:connector-curvature="0"
         id="path2952-1-6"
         style="font-style:italic;font-variant:normal;font-weight:normal;font-stretch:normal;font-size:2.82222px;font-family:Optima;-inkscape-font-specification:'Optima Italic';fill:#3a5c8f;fill-opacity:1;stroke-width:0.264583"
         d="M 16.769621,10.16 H 16.52433 L 16.298332,8.8329501 15.54179,10.16 h -0.245291 l 0.942578,-1.6026574 h 0.230132 z" />
    </g>
    <g
       aria-label=""
       id="text2950-22"
       style="font-size:3.52777px;line-height:1.25;font-family:Futura;-inkscape-font-specification:Futura;display:inline;opacity:1;stroke-width:0.264583"
       transform="translate(-0.79306011,77.001328)">
      <path
         d="M 16.769621,10.16 H 16.52433 L 16.298332,8.8329501 15.54179,10.16 h -0.245291 l 0.942578,-1.6026574 h 0.230132 z"
         style="font-style:italic;font-variant:normal;font-weight:normal;font-stretch:normal;font-size:2.82222px;font-family:Optima;-inkscape-font-specification:'Optima Italic';fill:#3a5c8f;fill-opacity:1;stroke-width:0.264583"
         id="path2952-52"
         inkscape:connector-curvature="0" />
    </g>
    <g
       transform="translate(14.44694,77.001329)"
       style="font-size:3.52777px;line-height:1.25;font-family:Futura;-inkscape-font-specification:Futura;display:inline;opacity:1;stroke-width:0.264583"
       id="text2950-9-2"
       aria-label="">
      <path
         inkscape:connector-curvature="0"
         id="path2952-1-7"
         style="font-style:italic;font-variant:normal;font-weight:normal;font-stretch:normal;font-size:2.82222px;font-family:Optima;-inkscape-font-specification:'Optima Italic';fill:#3a5c8f;fill-opacity:1;stroke-width:0.264583"
         d="M 16.769621,10.16 H 16.52433 L 16.298332,8.8329501 15.54179,10.16 h -0.245291 l 0.942578,-1.6026574 h 0.230132 z" />
    </g>
    <g
       aria-label=""
       id="text2950-1"
       style="font-size:3.52777px;line-height:1.25;font-family:Futura;-inkscape-font-specification:Futura;display:inline;opacity:1;stroke-width:0.264583"
       transform="translate(-0.79306011,92.241328)">
      <path
         d="M 16.769621,10.16 H 16.52433 L 16.298332,8.8329501 15.54179,10.16 h -0.245291 l 0.942578,-1.6026574 h 0.230132 z"
         style="font-style:italic;font-variant:normal;font-weight:normal;font-stretch:normal;font-size:2.82222px;font-family:Optima;-inkscape-font-specification:'Optima Italic';fill:#3a5c8f;fill-opacity:1;stroke-width:0.264583"
         id="path2952-521"
         inkscape:connector-curvature="0" />
    </g>
    <g
       transform="translate(14.44694,92.241329)"
       style="font-size:3.52777px;line-height:1.25;font-family:Futura;-inkscape-font-specification:Futura;display:inline;opacity:1;stroke-width:0.264583"
       id="text2950-9-1"
       aria-label="">
      <path
         inkscape:connector-curvature="0"
         id="path2952-1-0"
         style="font-style:italic;font-variant:normal;font-weight:normal;font-stretch:normal;font-size:2.82222px;font-family:Optima;-inkscape-font-specification:'Optima Italic';fill:#3a5c8f;fill-opacity:1;stroke-width:0.264583"
         d="M 16.769621,10.16 H 16.52433 L 16.298332,8.8329501 15.54179,10.16 h -0.245291 l 0.942578,-1.6026574 h 0.230132 z" />
    </g>
    <g
       aria-label=""
       id="text2950-18"
       style="font-size:3.52777px;line-height:1.25;font-family:Futura;-inkscape-font-specification:Futura;display:inline;opacity:1;stroke-width:0.264583"
       transform="translate(-0.79306011,107.48133)">
      <path
         d="M 16.769621,10.16 H 16.52433 L 16.298332,8.8329501 15.54179,10.16 h -0.245291 l 0.942578,-1.6026574 h 0.230132 z"
         style="font-style:italic;font-variant:normal;font-weight:normal;font-stretch:normal;font-size:2.82222px;font-family:Optima;-inkscape-font-specification:'Optima Italic';fill:#3a5c8f;fill-opacity:1;stroke-width:0.264583"
         id="path2952-76"
         inkscape:connector-curvature="0" />
    </g>
    <g
       transform="translate(14.44694,107.48133)"
       style="font-size:3.52777px;line-height:1.25;font-family:Futura;-inkscape-font-specification:Futura;display:inline;opacity:1;stroke-width:0.264583"
       id="text2950-9-00"
       aria-label="">
      <path
         inkscape:connector-curvature="0"
         id="path2952-1-9"
         style="font-style:italic;font-variant:normal;font-weight:normal;font-stretch:normal;font-size:2.82222px;font-family:Optima;-inkscape-font-specification:'Optima Italic';fill:#3a5c8f;fill-opacity:1;stroke-width:0.264583"
         d="M 16.769621,10.16 H 16.52433 L 16.298332,8.8329501 15.54179,10.16 h -0.245291 l 0.942578,-1.6026574 h 0.230132 z" />
    </g>
  </g>
  <g
     sodipodi:insensitive="true"
     inkscape:groupmode="layer"
     id="layer2"
     inkscape:label="components"
     style="display:none">
    <circle
       inkscape:label="in1"
       r="2.6458333"
       cy="10.16"
       cx="7.6199999"
       id="path15"
       style="display:inline;fill:#f2f2f2;stroke:#00ff00;stroke-width:0.264583;stroke-opacity:1" />
    <circle
       inkscape:label="in4"
       r="2.6458333"
       cy="25.400002"
       cx="7.6199999"
       id="path17"
       style="display:inline;fill:#f2f2f2;stroke:#00ff00;stroke-width:0.264583;stroke-opacity:1" />
    <circle
       inkscape:label="in7"
       r="2.6458333"
       cy="40.639999"
       cx="7.6199999"
       id="path34"
       style="display:inline;fill:#f2f2f2;stroke:#00ff00;stroke-width:0.264583;stroke-opacity:1" />
    <circle
       style="display:inline;fill:#f2f2f2;stroke:#00ff00;stroke-width:0.264583;stroke-opacity:1"
       id="path15-0"
       cx="7.6199999"
       cy="55.880005"
       r="2.6458333"
       inkscape:label="in10" />
    <circle
       style="display:inline;fill:#f2f2f2;stroke:#00ff00;stroke-width:0.264583;stroke-opacity:1"
       id="path17-5"
       cx="7.6199999"
       cy="71.120003"
       r="2.6458333"
       inkscape:label="in13" />
    <circle
       style="display:inline;fill:#f2f2f2;stroke:#00ff00;stroke-width:0.264583;stroke-opacity:1"
       id="path34-6"
       cx="7.6199999"
       cy="86.360001"
       r="2.6458333"
       inkscape:label="in16" />
    <circle
       inkscape:label="in19"
       r="2.6458333"
       cy="101.59999"
       cx="7.6199999"
       id="path17-5-3"
       style="display:inline;fill:#f2f2f2;stroke:#00ff00;stroke-width:0.264583;stroke-opacity:1" />
    <circle
       inkscape:label="in22"
       r="2.6458333"
       cy="116.41505"
       cx="7.9218726"
       id="path34-6-8"
       style="display:inline;fill:#f2f2f2;stroke:#00ff00;stroke-width:0.264583;stroke-opacity:1" />
    <circle
       style="display:inline;fill:#f2f2f2;stroke:#00ff00;stroke-width:0.264583;stroke-opacity:1"
       id="path15-4"
       cx="22.860003"
       cy="10.16"
       r="2.6458333"
       inkscape:label="in2" />
    <circle
       style="display:inline;fill:#f2f2f2;stroke:#00ff00;stroke-width:0.264583;stroke-opacity:1"
       id="path17-0"
       cx="22.860003"
       cy="25.400002"
       r="2.6458333"
       inkscape:label="in5" />
    <circle
       style="display:inline;fill:#f2f2f2;stroke:#00ff00;stroke-width:0.264583;stroke-opacity:1"
       id="path34-0"
       cx="22.860003"
       cy="40.639999"
       r="2.6458333"
       inkscape:label="in8" />
    <circle
       inkscape:label="in11"
       r="2.6458333"
       cy="55.880005"
       cx="22.860003"
       id="path15-0-9"
       style="display:inline;fill:#f2f2f2;stroke:#00ff00;stroke-width:0.264583;stroke-opacity:1" />
    <circle
       inkscape:label="in14"
       r="2.6458333"
       cy="71.120003"
       cx="22.860003"
       id="path17-5-37"
       style="display:inline;fill:#f2f2f2;stroke:#00ff00;stroke-width:0.264583;stroke-opacity:1" />
    <circle
       inkscape:label="in17"
       r="2.6458333"
       cy="86.360001"
       cx="22.860003"
       id="path34-6-5"
       style="display:inline;fill:#f2f2f2;stroke:#00ff00;stroke-width:0.264583;stroke-opacity:1" />
    <circle
       style="display:inline;fill:#f2f2f2;stroke:#00ff00;stroke-width:0.264583;stroke-opacity:1"
       id="path17-5-3-7"
       cx="22.860003"
       cy="101.59999"
       r="2.6458333"
       inkscape:label="in20" />
    <circle
       style="display:inline;fill:#f2f2f2;stroke:#00ff00;stroke-width:0.264583;stroke-opacity:1"
       id="path34-6-8-2"
       cx="22.860003"
       cy="116.84"
       r="2.6458333"
       inkscape:label="in23" />
    <circle
       inkscape:label="in3"
       r="2.6458333"
       cy="10.16"
       cx="38.100002"
       id="path15-4-6"
       style="display:inline;fill:#f2f2f2;stroke:#00ff00;stroke-width:0.264583;stroke-opacity:1" />
    <circle
       inkscape:label="in6"
       r="2.6458333"
       cy="25.400002"
       cx="38.100002"
       id="path17-0-5"
       style="display:inline;fill:#f2f2f2;stroke:#00ff00;stroke-width:0.264583;stroke-opacity:1" />
    <circle
       inkscape:label="in9"
       r="2.6458333"
       cy="40.639999"
       cx="38.100002"
       id="path34-0-3"
       style="display:inline;fill:#f2f2f2;stroke:#00ff00;stroke-width:0.264583;stroke-opacity:1" />
    <circle
       style="display:inline;fill:#f2f2f2;stroke:#00ff00;stroke-width:0.264583;stroke-opacity:1"
       id="path15-0-9-0"
       cx="38.100002"
       cy="55.880005"
       r="2.6458333"
       inkscape:label="in12" />
    <circle
       style="display:inline;fill:#f2f2f2;stroke:#00ff00;stroke-width:0.264583;stroke-opacity:1"
       id="path17-5-37-4"
       cx="38.100002"
       cy="71.120003"
       r="2.6458333"
       inkscape:label="in15" />
    <circle
       style="display:inline;fill:#f2f2f2;stroke:#00ff00;stroke-width:0.264583;stroke-opacity:1"
       id="path34-6-5-8"
       cx="38.100002"
       cy="86.360001"
       r="2.6458333"
       inkscape:label="in18" />
    <circle
       inkscape:label="in21"
       r="2.6458333"
       cy="101.59999"
       cx="38.100002"
       id="path17-5-3-7-5"
       style="display:inline;fill:#f2f2f2;stroke:#00ff00;stroke-width:0.264583;stroke-opacity:1" />
    <circle
       inkscape:label="in24"
       r="2.6458333"
       cy="116.84"
       cx="38.100002"
       id="path34-6-8-2-5"
       style="display:inline;fill:#f2f2f2;stroke:#00ff00;stroke-width:0.264583;stroke-opacity:1" />
    <circle
       inkscape:label="out1"
       r="2.6458333"
       cy="10.159994"
       cx="53.34"
       id="path15-4-6-5"
       style="display:inline;fill:#f2f2f2;stroke:#0000ff;stroke-width:0.264583;stroke-opacity:1" />
    <circle
       inkscape:label="out2"
       r="2.6458333"
       cy="25.399996"
       cx="53.34"
       id="path17-0-5-4"
       style="display:inline;fill:#f2f2f2;stroke:#0000ff;stroke-width:0.264583;stroke-opacity:1" />
    <circle
       inkscape:label="out3"
       r="2.6458333"
       cy="40.639992"
       cx="53.34"
       id="path34-0-3-2"
       style="display:inline;fill:#f2f2f2;stroke:#0000ff;stroke-width:0.264583;stroke-opacity:1" />
    <circle
       style="display:inline;fill:#f2f2f2;stroke:#0000ff;stroke-width:0.264583;stroke-opacity:1"
       id="path15-0-9-0-1"
       cx="53.34"
       cy="55.879997"
       r="2.6458333"
       inkscape:label="out4" />
    <circle
       style="display:inline;fill:#f2f2f2;stroke:#0000ff;stroke-width:0.264583;stroke-opacity:1"
       id="path17-5-37-4-9"
       cx="53.34"
       cy="71.120003"
       r="2.6458333"
       inkscape:label="out5" />
    <circle
       style="display:inline;fill:#f2f2f2;stroke:#0000ff;stroke-width:0.264583;stroke-opacity:1"
       id="path34-6-5-8-2"
       cx="53.34"
       cy="86.360001"
       r="2.6458333"
       inkscape:label="out6" />
    <circle
       inkscape:label="out7"
       r="2.6458333"
       cy="101.59999"
       cx="53.34"
       id="path17-5-3-7-5-4"
       style="display:inline;fill:#f2f2f2;stroke:#0000ff;stroke-width:0.264583;stroke-opacity:1" />
    <circle
       inkscape:label="out8"
       r="2.6458333"
       cy="116.83999"
       cx="53.34"
       id="path34-6-8-2-5-5"
       style="display:inline;fill:#f2f2f2;stroke:#0000ff;stroke-width:0.264583;stroke-opacity:1" />
  </g>
</svg>
