<?xml version="1.0" encoding="UTF-8" standalone="no"?>
<svg
   xmlns:dc="http://purl.org/dc/elements/1.1/"
   xmlns:cc="http://creativecommons.org/ns#"
   xmlns:rdf="http://www.w3.org/1999/02/22-rdf-syntax-ns#"
   xmlns:svg="http://www.w3.org/2000/svg"
   xmlns="http://www.w3.org/2000/svg"
   xmlns:sodipodi="http://sodipodi.sourceforge.net/DTD/sodipodi-0.dtd"
   xmlns:inkscape="http://www.inkscape.org/namespaces/inkscape"
   width="60.959999mm"
   height="128.5mm"
   viewBox="0 0 60.959999 128.5"
   version="1.1"
   id="svg1138"
   inkscape:version="1.0beta1 (32d4812, 2019-09-19)"
   sodipodi:docname="Multiplier.svg">
  <defs
     id="defs1132" />
  <sodipodi:namedview
     id="base"
     pagecolor="#ffffff"
     bordercolor="#666666"
     borderopacity="1.0"
     inkscape:pageopacity="0.0"
     inkscape:pageshadow="2"
     inkscape:zoom="1.7954604"
     inkscape:cx="115.2"
     inkscape:cy="242.83465"
     inkscape:document-units="mm"
     inkscape:current-layer="layer2"
     inkscape:document-rotation="0"
     showgrid="true"
     inkscape:snap-object-midpoints="true"
     inkscape:window-width="1920"
     inkscape:window-height="1080"
     inkscape:window-x="1440"
     inkscape:window-y="0"
     inkscape:window-maximized="0">
    <inkscape:grid
       type="xygrid"
       id="grid1738" />
  </sodipodi:namedview>
  <metadata
     id="metadata1135">
    <rdf:RDF>
      <cc:Work
         rdf:about="">
        <dc:format>image/svg+xml</dc:format>
        <dc:type
           rdf:resource="http://purl.org/dc/dcmitype/StillImage" />
        <dc:title />
      </cc:Work>
    </rdf:RDF>
  </metadata>
  <g
     inkscape:label="Background"
     inkscape:groupmode="layer"
     id="layer1"
     sodipodi:insensitive="true">
    <rect
       style="display:inline;fill:#f8f8f8;fill-opacity:1;stroke:none;stroke-width:0.173754"
       id="rect10"
       width="60.959999"
       height="128.5"
       x="0"
       y="0" />
  </g>
  <g
     sodipodi:insensitive="true"
     inkscape:groupmode="layer"
     id="layer3"
     inkscape:label="boxes">
    <rect
       y="6.879159"
       x="43.656075"
       height="10.583333"
       width="10.583333"
       id="rect1740-1"
       style="display:inline;fill:#000000;fill-opacity:0.5;stroke:none;stroke-width:0.53;stroke-miterlimit:4;stroke-dasharray:0.53, 1.06;stroke-dashoffset:0;stroke-opacity:1" />
    <rect
       y="21.431232"
       x="43.656075"
       height="10.583333"
       width="10.583333"
       id="rect1740-1-5"
       style="display:inline;fill:#000000;fill-opacity:0.5;stroke:none;stroke-width:0.53;stroke-miterlimit:4;stroke-dasharray:0.53, 1.06;stroke-dashoffset:0;stroke-opacity:1" />
    <rect
       y="35.983307"
       x="43.656075"
       height="10.583333"
       width="10.583333"
       id="rect1740-1-9"
       style="display:inline;fill:#000000;fill-opacity:0.5;stroke:none;stroke-width:0.53;stroke-miterlimit:4;stroke-dasharray:0.53, 1.06;stroke-dashoffset:0;stroke-opacity:1" />
    <rect
       y="50.643188"
       x="43.656075"
       height="10.583333"
       width="10.583333"
       id="rect1740-1-7"
       style="display:inline;fill:#000000;fill-opacity:0.5;stroke:none;stroke-width:0.53;stroke-miterlimit:4;stroke-dasharray:0.53, 1.06;stroke-dashoffset:0;stroke-opacity:1" />
    <rect
       y="65.087486"
       x="43.656075"
       height="10.583333"
       width="10.583333"
       id="rect1740-1-53"
       style="display:inline;fill:#000000;fill-opacity:0.5;stroke:none;stroke-width:0.53;stroke-miterlimit:4;stroke-dasharray:0.53, 1.06;stroke-dashoffset:0;stroke-opacity:1" />
    <rect
       y="79.639565"
       x="43.656075"
       height="10.583333"
       width="10.583333"
       id="rect1740-1-90"
       style="display:inline;fill:#000000;fill-opacity:0.5;stroke:none;stroke-width:0.53;stroke-miterlimit:4;stroke-dasharray:0.53, 1.06;stroke-dashoffset:0;stroke-opacity:1" />
    <rect
       y="94.191635"
       x="43.656075"
       height="10.583333"
       width="10.583333"
       id="rect1740-1-55"
       style="display:inline;fill:#000000;fill-opacity:0.5;stroke:none;stroke-width:0.53;stroke-miterlimit:4;stroke-dasharray:0.53, 1.06;stroke-dashoffset:0;stroke-opacity:1" />
    <rect
       y="108.74371"
       x="43.656075"
       height="10.583333"
       width="10.583333"
       id="rect1740-1-6"
       style="display:inline;fill:#000000;fill-opacity:0.5;stroke:none;stroke-width:0.53;stroke-miterlimit:4;stroke-dasharray:0.53, 1.06;stroke-dashoffset:0;stroke-opacity:1" />
  </g>
  <g
     sodipodi:insensitive="true"
     inkscape:groupmode="layer"
     id="layer4"
     inkscape:label="text"
     style="display:inline;opacity:1">
    <g
       aria-label="STALYS"
       id="text1717-2"
       style="font-size:6.35px;line-height:1.25;font-family:Futura;-inkscape-font-specification:Futura;display:inline;opacity:1;stroke-width:0.264583"
       transform="translate(-71.695688,-0.06042158)">
      <path
         d="m 94.892412,122.92583 -0.586011,0.34727 q -0.164331,-0.28526 -0.313159,-0.37207 -0.155029,-0.0992 -0.399976,-0.0992 -0.300757,0 -0.499194,0.17053 -0.198438,0.16743 -0.198438,0.42168 0,0.35036 0.520899,0.56431 l 0.47749,0.19533 q 0.58291,0.23565 0.852661,0.57671 0.269751,0.33796 0.269751,0.83096 0,0.66042 -0.440283,1.0914 -0.443384,0.43409 -1.100708,0.43409 -0.623218,0 -1.029395,-0.36897 -0.399975,-0.36897 -0.499194,-1.0387 l 0.731738,-0.16123 q 0.04961,0.42168 0.173633,0.58291 0.223242,0.31006 0.651123,0.31006 0.337964,0 0.561206,-0.22634 0.223243,-0.22635 0.223243,-0.57361 0,-0.13953 -0.04031,-0.25425 -0.03721,-0.11782 -0.120923,-0.21394 -0.08061,-0.0992 -0.21084,-0.18294 -0.130224,-0.0868 -0.310058,-0.16433 l -0.461988,-0.19223 q -0.982885,-0.41548 -0.982885,-1.21543 0,-0.5395 0.412378,-0.90227 0.412377,-0.36587 1.026293,-0.36587 0.827857,0 1.292945,0.80615 z"
         style="stroke-width:0.264583"
         id="path2113"
         inkscape:connector-curvature="0" />
      <path
         d="M 97.307768,122.89172 V 127 h -0.722436 v -4.10828 h -1.100708 v -0.67902 h 2.920751 v 0.67902 z"
         style="stroke-width:0.264583"
         id="path2115"
         inkscape:connector-curvature="0" />
      <path
         d="M 101.60208,125.83728 H 99.552592 L 99.019291,127 h -0.778247 l 2.368846,-5.08806 2.28513,5.08806 h -0.79065 z m -0.29456,-0.67903 -0.71003,-1.62781 -0.744141,1.62781 z"
         style="stroke-width:0.264583"
         id="path2117"
         inkscape:connector-curvature="0" />
      <path
         d="m 104.21897,122.2127 v 4.10827 h 1.40767 V 127 h -2.1301 v -4.7873 z"
         style="stroke-width:0.264583"
         id="path2119"
         inkscape:connector-curvature="0" />
      <path
         d="m 106.87618,124.93191 -1.5627,-2.71921 h 0.83096 l 1.0945,1.91306 1.09761,-1.91306 h 0.83096 l -1.5689,2.71921 V 127 h -0.72243 z"
         style="stroke-width:0.264583"
         id="path2121"
         inkscape:connector-curvature="0" />
      <path
         d="m 112.2805,122.92583 -0.58601,0.34727 q -0.16433,-0.28526 -0.31316,-0.37207 -0.15503,-0.0992 -0.39998,-0.0992 -0.30075,0 -0.49919,0.17053 -0.19844,0.16743 -0.19844,0.42168 0,0.35036 0.5209,0.56431 l 0.47749,0.19533 q 0.58291,0.23565 0.85266,0.57671 0.26975,0.33796 0.26975,0.83096 0,0.66042 -0.44028,1.0914 -0.44339,0.43409 -1.10071,0.43409 -0.62322,0 -1.02939,-0.36897 -0.39998,-0.36897 -0.4992,-1.0387 l 0.73174,-0.16123 q 0.0496,0.42168 0.17363,0.58291 0.22324,0.31006 0.65113,0.31006 0.33796,0 0.5612,-0.22634 0.22324,-0.22635 0.22324,-0.57361 0,-0.13953 -0.0403,-0.25425 -0.0372,-0.11782 -0.12093,-0.21394 -0.0806,-0.0992 -0.21084,-0.18294 -0.13022,-0.0868 -0.31006,-0.16433 l -0.46198,-0.19223 q -0.98289,-0.41548 -0.98289,-1.21543 0,-0.5395 0.41238,-0.90227 0.41238,-0.36587 1.02629,-0.36587 0.82786,0 1.29295,0.80615 z"
         style="stroke-width:0.264583"
         id="path2123"
         inkscape:connector-curvature="0" />
    </g>
    <text
       xml:space="preserve"
       style="font-size:6.35px;line-height:1.25;font-family:Futura;-inkscape-font-specification:Futura;stroke-width:0.264583"
       x="7.9375"
       y="19.84375"
       id="text1987"><tspan
         sodipodi:role="line"
         id="tspan1985"
         x="7.9375"
         y="19.84375"
         style="stroke-width:0.264583" /></text>
    <g
       aria-label="In1"
       id="text2067"
       style="font-size:3.52778px;line-height:1.25;font-family:Futura;-inkscape-font-specification:Futura;display:inline;stroke-width:0.264583"
       transform="translate(0,0.30378256)">
      <path
         d="m 7.6568197,17.18806 v 2.659615 H 7.2554658 V 17.18806 Z"
         style="stroke-width:0.264583"
         id="path2270"
         inkscape:connector-curvature="0" />
      <path
         d="m 8.2218157,18.169913 h 0.389296 v 0.155029 q 0.2032608,-0.201538 0.458198,-0.201538 0.2928333,0 0.4564755,0.184313 0.141249,0.156752 0.141249,0.511597 v 1.028361 H 9.2777381 v -0.937066 q 0,-0.248047 -0.068902,-0.342787 -0.067179,-0.09646 -0.244602,-0.09646 -0.1929254,0 -0.2738852,0.127468 -0.079237,0.125746 -0.079237,0.43925 v 0.809598 h -0.389296 z"
         style="stroke-width:0.264583"
         id="path2272"
         inkscape:connector-curvature="0" />
      <path
         d="m 10.869373,17.563576 h -0.45992 l 0.220486,-0.375516 h 0.640788 v 2.659615 h -0.401354 z"
         style="stroke-width:0.264583"
         id="path2274"
         inkscape:connector-curvature="0" />
    </g>
    <g
       aria-label="In2"
       id="text2067-4"
       style="font-size:3.52777px;line-height:1.25;font-family:Futura;-inkscape-font-specification:Futura;display:inline;stroke-width:0.264583"
       transform="translate(0,0.30378256)">
      <path
         d="m 7.6568186,31.74015 v 2.659607 H 7.2554659 V 31.74015 Z"
         style="stroke-width:0.264583"
         id="path2277"
         inkscape:connector-curvature="0" />
      <path
         d="M 8.2218131,32.722 H 8.611108 v 0.155029 q 0.2032602,-0.201538 0.4581967,-0.201538 0.2928325,0 0.4564742,0.184312 0.1412486,0.156752 0.1412486,0.511596 v 1.028358 h -0.389295 v -0.937064 q 0,-0.248046 -0.068902,-0.342786 -0.067179,-0.09646 -0.2446013,-0.09646 -0.1929249,0 -0.2738845,0.127468 -0.079237,0.125746 -0.079237,0.439249 v 0.809595 H 8.2218131 Z"
         style="stroke-width:0.264583"
         id="path2279"
         inkscape:connector-curvature="0" />
      <path
         d="m 10.797016,34.02252 h 0.990463 v 0.377237 h -1.786278 l 0.923284,-1.117931 q 0.136081,-0.167086 0.227375,-0.289387 0.09302,-0.122301 0.141249,-0.204983 0.09819,-0.161919 0.09819,-0.29111 0,-0.186034 -0.130913,-0.31178 -0.130914,-0.125746 -0.323839,-0.125746 -0.403075,0 -0.461641,0.477145 H 10.07527 q 0.09646,-0.840602 0.849215,-0.840602 0.363456,0 0.60978,0.230821 0.248047,0.230821 0.248047,0.571885 0,0.21704 -0.115411,0.425468 -0.05857,0.10852 -0.172254,0.258382 -0.111966,0.148139 -0.28422,0.351399 z"
         style="stroke-width:0.264583"
         id="path2281"
         inkscape:connector-curvature="0" />
    </g>
    <g
       aria-label="In3"
       id="text2067-0"
       style="font-size:3.52777px;line-height:1.25;font-family:Futura;-inkscape-font-specification:Futura;display:inline;stroke-width:0.264583"
       transform="translate(0,0.30378256)">
      <path
         d="m 7.6568186,46.292235 v 2.659608 H 7.2554659 v -2.659608 z"
         style="stroke-width:0.264583"
         id="path2284"
         inkscape:connector-curvature="0" />
      <path
         d="M 8.2218131,47.274085 H 8.611108 v 0.155029 q 0.2032602,-0.201537 0.4581967,-0.201537 0.2928325,0 0.4564742,0.184312 0.1412486,0.156751 0.1412486,0.511596 v 1.028358 h -0.389295 v -0.937064 q 0,-0.248046 -0.068902,-0.342786 -0.067179,-0.09646 -0.2446013,-0.09646 -0.1929249,0 -0.2738845,0.127468 -0.079237,0.125746 -0.079237,0.439249 v 0.809595 H 8.2218131 Z"
         style="stroke-width:0.264583"
         id="path2286"
         inkscape:connector-curvature="0" />
      <path
         d="m 10.8263,47.716779 v -0.342786 q 0.254936,0 0.342786,-0.05684 0.156751,-0.09991 0.156751,-0.320393 0,-0.170532 -0.113688,-0.27733 -0.111965,-0.10852 -0.291109,-0.10852 -0.167087,0 -0.258382,0.08096 -0.08785,0.08268 -0.130913,0.279052 h -0.399631 q 0.06201,-0.375515 0.254937,-0.549492 0.192925,-0.175699 0.539156,-0.175699 0.349677,0 0.570162,0.206705 0.220486,0.204983 0.220486,0.528821 0,0.365179 -0.289388,0.568439 0.330729,0.194648 0.330729,0.632174 0,0.358289 -0.241156,0.585665 -0.241156,0.227376 -0.618394,0.227376 -0.480589,0 -0.713133,-0.353122 -0.09646,-0.148138 -0.1223,-0.409965 h 0.387572 q 0.03101,0.192925 0.149861,0.296277 0.120578,0.101631 0.313503,0.101631 0.194648,0 0.322116,-0.129191 0.127468,-0.132636 0.127468,-0.335896 0,-0.268717 -0.191202,-0.382405 -0.111965,-0.06546 -0.346231,-0.06546 z"
         style="stroke-width:0.264583"
         id="path2288"
         inkscape:connector-curvature="0" />
    </g>
    <g
       aria-label="In4"
       id="text2067-06"
       style="font-size:3.52777px;line-height:1.25;font-family:Futura;-inkscape-font-specification:Futura;display:inline;stroke-width:0.264583"
       transform="translate(0,0.30378256)">
      <path
         d="m 7.6568186,60.844317 v 2.659608 H 7.2554659 v -2.659608 z"
         style="stroke-width:0.264583"
         id="path2291"
         inkscape:connector-curvature="0" />
      <path
         d="M 8.2218131,61.826168 H 8.611108 v 0.155028 q 0.2032602,-0.201537 0.4581967,-0.201537 0.2928325,0 0.4564742,0.184312 0.1412486,0.156752 0.1412486,0.511596 v 1.028358 h -0.389295 v -0.937064 q 0,-0.248046 -0.068902,-0.342786 -0.067179,-0.09646 -0.2446013,-0.09646 -0.1929249,0 -0.2738845,0.127468 -0.079237,0.125746 -0.079237,0.439249 v 0.809595 H 8.2218131 Z"
         style="stroke-width:0.264583"
         id="path2293"
         inkscape:connector-curvature="0" />
      <path
         d="m 11.653121,62.761509 h 0.282497 v 0.365179 h -0.282497 v 0.377237 H 11.251768 V 63.126688 H 9.9460796 l 1.7070414,-2.480463 z m -0.401353,0 v -0.890555 l -0.613226,0.890555 z"
         style="stroke-width:0.264583"
         id="path2295"
         inkscape:connector-curvature="0" />
    </g>
    <g
       aria-label="In5"
       id="text2067-3"
       style="font-size:3.52777px;line-height:1.25;font-family:Futura;-inkscape-font-specification:Futura;display:inline;stroke-width:0.264583"
       transform="translate(0,0.30378256)">
      <path
         d="m 7.6568186,75.3964 v 2.659607 H 7.2554659 V 75.3964 Z"
         style="stroke-width:0.264583"
         id="path2298"
         inkscape:connector-curvature="0" />
      <path
         d="M 8.2218131,76.37825 H 8.611108 v 0.155029 q 0.2032602,-0.201538 0.4581967,-0.201538 0.2928325,0 0.4564742,0.184312 0.1412486,0.156752 0.1412486,0.511596 v 1.028358 h -0.389295 v -0.937064 q 0,-0.248046 -0.068902,-0.342786 -0.067179,-0.09646 -0.2446013,-0.09646 -0.1929249,0 -0.2738845,0.127468 -0.079237,0.125746 -0.079237,0.439249 v 0.809595 H 8.2218131 Z"
         style="stroke-width:0.264583"
         id="path2300"
         inkscape:connector-curvature="0" />
      <path
         d="M 11.768531,75.771914 H 10.9486 l -0.130913,0.440971 q 0.02928,-0.0034 0.05512,-0.0052 0.02756,-0.0017 0.04995,-0.0017 0.387572,0 0.635619,0.261827 0.249769,0.260104 0.249769,0.666624 0,0.420301 -0.282498,0.692463 -0.282497,0.272162 -0.71141,0.272162 -0.528821,0 -0.8337115,-0.496093 l 0.3031675,-0.256659 q 0.125746,0.213596 0.253214,0.301445 0.127468,0.08613 0.311781,0.08613 0.241156,0 0.404798,-0.16881 0.163641,-0.173977 0.163641,-0.422023 0,-0.254936 -0.161919,-0.416856 -0.161919,-0.167086 -0.404798,-0.167086 -0.270439,0 -0.466809,0.235988 H 10.25097 L 10.669548,75.3964 h 1.098983 z"
         style="stroke-width:0.264583"
         id="path2302"
         inkscape:connector-curvature="0" />
    </g>
    <g
       aria-label="In6"
       id="text2067-5"
       style="font-size:3.52777px;line-height:1.25;font-family:Futura;-inkscape-font-specification:Futura;display:inline;stroke-width:0.264583"
       transform="translate(0,0.30378256)">
      <path
         d="m 7.6568186,89.948485 v 2.659608 H 7.2554659 v -2.659608 z"
         style="stroke-width:0.264583"
         id="path2305"
         inkscape:connector-curvature="0" />
      <path
         d="M 8.2218131,90.930335 H 8.611108 v 0.155029 q 0.2032602,-0.201537 0.4581967,-0.201537 0.2928325,0 0.4564742,0.184312 0.1412486,0.156751 0.1412486,0.511596 v 1.028358 h -0.389295 v -0.937064 q 0,-0.248046 -0.068902,-0.342786 -0.067179,-0.09646 -0.2446013,-0.09646 -0.1929249,0 -0.2738845,0.127468 -0.079237,0.125746 -0.079237,0.439249 v 0.809595 H 8.2218131 Z"
         style="stroke-width:0.264583"
         id="path2307"
         inkscape:connector-curvature="0" />
      <path
         d="m 11.298277,89.855468 0.294555,0.220486 -0.635619,0.864717 q 0.05168,-0.0069 0.08785,-0.01034 0.03617,-0.0034 0.05684,-0.0034 0.323838,0 0.559826,0.248047 0.234266,0.244601 0.234266,0.58911 0,0.365179 -0.261826,0.627006 -0.260104,0.260104 -0.625284,0.260104 -0.361734,0 -0.633896,-0.256659 -0.266994,-0.256659 -0.266994,-0.608058 0,-0.315226 0.260104,-0.668347 z m 0.206705,1.934417 q 0,-0.211873 -0.146416,-0.358289 -0.148139,-0.148139 -0.356567,-0.148139 -0.21015,0 -0.356567,0.146416 -0.146416,0.146416 -0.146416,0.354844 0,0.208428 0.146416,0.354844 0.146417,0.146417 0.35829,0.146417 0.206705,0 0.353121,-0.146417 0.148139,-0.148138 0.148139,-0.349676 z"
         style="stroke-width:0.264583"
         id="path2309"
         inkscape:connector-curvature="0" />
    </g>
    <g
       aria-label="In7"
       id="text2067-2"
       style="font-size:3.52777px;line-height:1.25;font-family:Futura;-inkscape-font-specification:Futura;display:inline;stroke-width:0.264583"
       transform="translate(0,0.30378256)">
      <path
         d="m 7.6568186,104.50057 v 2.65961 H 7.2554659 v -2.65961 z"
         style="stroke-width:0.264583"
         id="path2312"
         inkscape:connector-curvature="0" />
      <path
         d="M 8.2218131,105.48242 H 8.611108 v 0.15503 q 0.2032602,-0.20154 0.4581967,-0.20154 0.2928325,0 0.4564742,0.18431 0.1412486,0.15676 0.1412486,0.5116 v 1.02836 h -0.389295 v -0.93706 q 0,-0.24805 -0.068902,-0.34279 -0.067179,-0.0965 -0.2446013,-0.0965 -0.1929249,0 -0.2738845,0.12746 -0.079237,0.12575 -0.079237,0.43925 v 0.8096 H 8.2218131 Z"
         style="stroke-width:0.264583"
         id="path2314"
         inkscape:connector-curvature="0" />
      <path
         d="m 11.408519,104.87609 h -1.312578 v -0.37552 h 1.982648 l -1.677758,2.7509 -0.31867,-0.20153 z"
         style="stroke-width:0.264583"
         id="path2316"
         inkscape:connector-curvature="0" />
    </g>
    <g
       aria-label="In8"
       id="text2067-7"
       style="font-size:3.52777px;line-height:1.25;font-family:Futura;-inkscape-font-specification:Futura;display:inline;stroke-width:0.264583"
       transform="translate(0,0.30378256)">
      <path
         d="m 7.6568186,119.05265 v 2.65961 H 7.2554659 v -2.65961 z"
         style="stroke-width:0.264583"
         id="path2340"
         inkscape:connector-curvature="0" />
      <path
         d="M 8.2218131,120.0345 H 8.611108 v 0.15503 q 0.2032602,-0.20154 0.4581967,-0.20154 0.2928325,0 0.4564742,0.18431 0.1412486,0.15675 0.1412486,0.5116 v 1.02836 h -0.389295 v -0.93707 q 0,-0.24804 -0.068902,-0.34278 -0.067179,-0.0965 -0.2446013,-0.0965 -0.1929249,0 -0.2738845,0.12747 -0.079237,0.12575 -0.079237,0.43925 v 0.8096 H 8.2218131 Z"
         style="stroke-width:0.264583"
         id="path2342"
         inkscape:connector-curvature="0" />
      <path
         d="m 10.526577,120.32905 q -0.292833,-0.2067 -0.292833,-0.56327 0,-0.32384 0.222209,-0.54088 0.22393,-0.21704 0.556381,-0.21704 0.330729,0 0.551214,0.21704 0.220486,0.21532 0.220486,0.54261 0,0.34278 -0.29111,0.55982 0.160197,0.0861 0.251492,0.25149 0.09302,0.16537 0.09302,0.37207 0,0.35312 -0.230821,0.57878 -0.230821,0.22565 -0.590833,0.22565 -0.368624,0 -0.608058,-0.22737 -0.241156,-0.22738 -0.241156,-0.57189 0,-0.44786 0.360012,-0.62701 z m 0.08441,-0.56499 q 0,0.17053 0.11541,0.28594 0.117133,0.11714 0.282497,0.11714 0.163642,0 0.280775,-0.11714 0.117133,-0.11713 0.117133,-0.28077 0,-0.16364 -0.117133,-0.28078 -0.117133,-0.11713 -0.280775,-0.11713 -0.163641,0 -0.280774,0.11713 -0.117133,0.11714 -0.117133,0.27561 z m -0.04995,1.17822 q 0,0.18431 0.127468,0.31695 0.129191,0.13091 0.313503,0.13091 0.18259,0 0.311781,-0.12919 0.12919,-0.13091 0.12919,-0.3135 0,-0.18431 -0.12919,-0.31351 -0.129191,-0.12919 -0.311781,-0.12919 -0.180867,0 -0.31178,0.12919 -0.129191,0.1292 -0.129191,0.30834 z"
         style="stroke-width:0.264583"
         id="path2344"
         inkscape:connector-curvature="0" />
    </g>
    <g
       style="font-size:6.35px;line-height:1.25;font-family:Futura;-inkscape-font-specification:Futura;stroke-width:0.264583"
       id="text1228"
       aria-label="8 Multiplier">
      <path
         inkscape:connector-curvature="0"
         id="path1234"
         style="stroke-width:0.264583"
         d="m 14.725922,3.701251 q -0.5271,-0.3720703 -0.5271,-1.0138916 0,-0.5829102 0.399976,-0.973584 0.403076,-0.3906738 1.001489,-0.3906738 0.595313,0 0.992188,0.3906738 0.396875,0.3875733 0.396875,0.9766846 0,0.6170166 -0.524,1.0076904 0.288355,0.1550293 0.452686,0.4526855 0.167432,0.2976563 0.167432,0.6697266 0,0.6356201 -0.415479,1.0417968 -0.415478,0.4061768 -1.063501,0.4061768 -0.663525,0 -1.094507,-0.4092773 -0.434082,-0.4092774 -0.434082,-1.0293946 0,-0.8061523 0.648023,-1.1286132 z m 0.151929,-1.0169922 q 0,0.306958 0.207739,0.5146973 0.21084,0.2108398 0.508496,0.2108398 0.294556,0 0.505395,-0.2108398 0.21084,-0.2108399 0.21084,-0.5053955 0,-0.2945557 -0.21084,-0.5053955 -0.210839,-0.2108399 -0.505395,-0.2108399 -0.294556,0 -0.505396,0.2108399 -0.210839,0.2108398 -0.210839,0.4960937 z m -0.08992,2.1208007 q 0,0.3317627 0.229443,0.5705079 0.232544,0.2356445 0.564307,0.2356445 0.328662,0 0.561206,-0.232544 0.232543,-0.2356445 0.232543,-0.5643066 0,-0.3317627 -0.232543,-0.5643066 -0.232544,-0.232544 -0.561206,-0.232544 -0.325562,0 -0.561207,0.232544 -0.232543,0.2325439 -0.232543,0.5550048 z" />
      <path
         inkscape:connector-curvature="0"
         id="path1236"
         style="stroke-width:0.264583"
         d="m 19.907001,6.1910214 1.00769,-5.1469725 1.643311,3.720703 1.702221,-3.720703 0.905371,5.1469725 h -0.74104 L 23.962567,3.3012754 22.545599,6.411163 21.168939,3.2981748 20.654242,6.1910214 Z" />
      <path
         inkscape:connector-curvature="0"
         id="path1238"
         style="stroke-width:0.264583"
         d="m 26.740693,3.1710508 v 1.7332275 q 0,0.7503418 0.592211,0.7503418 0.592212,0 0.592212,-0.7503418 V 3.1710508 h 0.697632 v 1.7487304 q 0,0.3627686 -0.08992,0.6263184 -0.08682,0.2356445 -0.300757,0.4247802 -0.353466,0.306958 -0.89917,0.306958 -0.542602,0 -0.896069,-0.306958 Q 26.219794,5.7817441 26.129877,5.5460996 26.043061,5.3352597 26.043061,4.9197812 V 3.1710508 Z" />
      <path
         inkscape:connector-curvature="0"
         id="path1240"
         style="stroke-width:0.264583"
         d="M 30.200946,0.95413187 V 6.1910214 H 29.503314 V 0.95413187 Z" />
      <path
         inkscape:connector-curvature="0"
         id="path1242"
         style="stroke-width:0.264583"
         d="M 31.81015,3.8221738 V 6.1910214 H 31.112518 V 3.8221738 h -0.297656 v -0.651123 h 0.297656 V 2.0641416 h 0.697632 v 1.1069092 h 0.542602 v 0.651123 z" />
      <path
         inkscape:connector-curvature="0"
         id="path1244"
         style="stroke-width:0.264583"
         d="M 33.524774,3.1710508 V 6.1910214 H 32.827142 V 3.1710508 Z M 32.721722,1.9153135 q 0,-0.1829346 0.133325,-0.3162598 0.133326,-0.1333252 0.319361,-0.1333252 0.189135,0 0.322461,0.1333252 0.133325,0.1302246 0.133325,0.3193604 0,0.1891357 -0.133325,0.3224609 -0.130225,0.1333252 -0.319361,0.1333252 -0.189135,0 -0.322461,-0.1333252 -0.133325,-0.1333252 -0.133325,-0.3255615 z" />
      <path
         inkscape:connector-curvature="0"
         id="path1246"
         style="stroke-width:0.264583"
         d="M 35.112274,7.834332 H 34.414642 V 3.1710508 h 0.697632 v 0.3286621 q 0.412378,-0.4123779 0.936377,-0.4123779 0.623217,0 1.026293,0.4588867 0.409278,0.4557861 0.409278,1.1503173 0,0.6790284 -0.406177,1.1317139 -0.403076,0.4495849 -1.016992,0.4495849 -0.5302,0 -0.948779,-0.4247802 z m 1.658813,-3.1346924 q 0,-0.434082 -0.235644,-0.7069336 -0.238746,-0.2759521 -0.601514,-0.2759521 -0.384473,0 -0.623218,0.2666504 -0.238745,0.2666504 -0.238745,0.7007324 0,0.4247803 0.238745,0.7007324 0.235645,0.269751 0.620117,0.269751 0.362769,0 0.598413,-0.2728516 0.241846,-0.2728515 0.241846,-0.6821289 z" />
      <path
         inkscape:connector-curvature="0"
         id="path1248"
         style="stroke-width:0.264583"
         d="M 38.919793,0.95413187 V 6.1910214 H 38.222162 V 0.95413187 Z" />
      <path
         inkscape:connector-curvature="0"
         id="path1250"
         style="stroke-width:0.264583"
         d="M 40.507293,3.1710508 V 6.1910214 H 39.809661 V 3.1710508 Z M 39.704241,1.9153135 q 0,-0.1829346 0.133326,-0.3162598 0.133325,-0.1333252 0.31936,-0.1333252 0.189136,0 0.322461,0.1333252 0.133325,0.1302246 0.133325,0.3193604 0,0.1891357 -0.133325,0.3224609 -0.130225,0.1333252 -0.319361,0.1333252 -0.189135,0 -0.32246,-0.1333252 -0.133326,-0.1333252 -0.133326,-0.3255615 z" />
      <path
         inkscape:connector-curvature="0"
         id="path1252"
         style="stroke-width:0.264583"
         d="m 44.147381,4.8453672 h -2.164209 q 0.0279,0.3720703 0.241845,0.5922119 0.213941,0.217041 0.548804,0.217041 0.260449,0 0.430981,-0.1240235 0.167432,-0.1240234 0.381373,-0.4588867 l 0.589111,0.3286621 q -0.136426,0.232544 -0.288355,0.3999756 -0.151928,0.1643311 -0.325561,0.2728516 -0.173633,0.1054199 -0.375171,0.1550293 -0.201538,0.049609 -0.437183,0.049609 -0.675927,0 -1.085205,-0.434082 -0.409277,-0.4371826 -0.409277,-1.1596191 0,-0.7162353 0.396875,-1.1596191 0.399976,-0.4371826 1.0604,-0.4371826 0.666626,0 1.0542,0.4247802 0.384472,0.4216797 0.384472,1.1689209 z M 43.431145,4.2748594 q -0.145727,-0.5581055 -0.703833,-0.5581055 -0.127124,0 -0.238745,0.040308 -0.111621,0.037207 -0.204639,0.1116211 -0.08992,0.071314 -0.155029,0.1736328 -0.06511,0.1023194 -0.09922,0.232544 z" />
      <path
         inkscape:connector-curvature="0"
         id="path1254"
         style="stroke-width:0.264583"
         d="m 44.907026,3.1710508 h 0.697632 v 0.269751 q 0.192236,-0.2015381 0.341064,-0.2759522 0.151929,-0.077515 0.359668,-0.077515 0.275952,0 0.576709,0.1798339 l -0.31936,0.6387207 q -0.198438,-0.1426269 -0.387574,-0.1426269 -0.570507,0 -0.570507,0.8619629 V 6.191021 h -0.697632 z" />
    </g>
    <g
       transform="translate(-1.1823553,1.535822)"
       style="font-size:4.23333px;line-height:1.25;font-family:Futura;-inkscape-font-specification:Futura;stroke-width:0.264583"
       id="text1232"
       aria-label="x">
      <path
         inkscape:connector-curvature="0"
         id="path1257"
         style="stroke-width:0.264583"
         d="m 30.021939,17.431496 -0.72347,-0.923974 h 0.553971 l 0.448551,0.587044 0.456819,-0.587044 h 0.570508 l -0.74414,0.923974 0.861962,1.089338 h -0.553971 l -0.591178,-0.752408 -0.605647,0.752408 h -0.56844 z" />
    </g>
    <g
       aria-label="x"
       id="text1232-9"
       style="font-size:4.23333px;line-height:1.25;font-family:Futura;-inkscape-font-specification:Futura;display:inline;opacity:1;stroke-width:0.264583"
       transform="translate(-1.1823558,16.087906)">
      <path
         d="m 30.021939,17.431496 -0.72347,-0.923974 h 0.553971 l 0.448551,0.587044 0.456819,-0.587044 h 0.570508 l -0.74414,0.923974 0.861962,1.089338 h -0.553971 l -0.591178,-0.752408 -0.605647,0.752408 h -0.56844 z"
         style="stroke-width:0.264583"
         id="path1257-1"
         inkscape:connector-curvature="0" />
    </g>
    <g
       aria-label="x"
       id="text1232-0"
       style="font-size:4.23333px;line-height:1.25;font-family:Futura;-inkscape-font-specification:Futura;display:inline;opacity:1;stroke-width:0.264583"
       transform="translate(-1.1823558,30.639989)">
      <path
         d="m 30.021939,17.431496 -0.72347,-0.923974 h 0.553971 l 0.448551,0.587044 0.456819,-0.587044 h 0.570508 l -0.74414,0.923974 0.861962,1.089338 h -0.553971 l -0.591178,-0.752408 -0.605647,0.752408 h -0.56844 z"
         style="stroke-width:0.264583"
         id="path1257-7"
         inkscape:connector-curvature="0" />
    </g>
    <g
       aria-label="x"
       id="text1232-5"
       style="font-size:4.23333px;line-height:1.25;font-family:Futura;-inkscape-font-specification:Futura;display:inline;opacity:1;stroke-width:0.264583"
       transform="translate(-1.1823558,45.192072)">
      <path
         d="m 30.021939,17.431496 -0.72347,-0.923974 h 0.553971 l 0.448551,0.587044 0.456819,-0.587044 h 0.570508 l -0.74414,0.923974 0.861962,1.089338 h -0.553971 l -0.591178,-0.752408 -0.605647,0.752408 h -0.56844 z"
         style="stroke-width:0.264583"
         id="path1257-8"
         inkscape:connector-curvature="0" />
    </g>
    <g
       aria-label="x"
       id="text1232-6"
       style="font-size:4.23333px;line-height:1.25;font-family:Futura;-inkscape-font-specification:Futura;display:inline;opacity:1;stroke-width:0.264583"
       transform="translate(-1.1823558,59.744156)">
      <path
         d="m 30.021939,17.431496 -0.72347,-0.923974 h 0.553971 l 0.448551,0.587044 0.456819,-0.587044 h 0.570508 l -0.74414,0.923974 0.861962,1.089338 h -0.553971 l -0.591178,-0.752408 -0.605647,0.752408 h -0.56844 z"
         style="stroke-width:0.264583"
         id="path1257-2"
         inkscape:connector-curvature="0" />
    </g>
    <g
       aria-label="x"
       id="text1232-2"
       style="font-size:4.23333px;line-height:1.25;font-family:Futura;-inkscape-font-specification:Futura;display:inline;opacity:1;stroke-width:0.264583"
       transform="translate(-1.1823558,74.296239)">
      <path
         d="m 30.021939,17.431496 -0.72347,-0.923974 h 0.553971 l 0.448551,0.587044 0.456819,-0.587044 h 0.570508 l -0.74414,0.923974 0.861962,1.089338 h -0.553971 l -0.591178,-0.752408 -0.605647,0.752408 h -0.56844 z"
         style="stroke-width:0.264583"
         id="path1257-27"
         inkscape:connector-curvature="0" />
    </g>
    <g
       aria-label="x"
       id="text1232-21"
       style="font-size:4.23333px;line-height:1.25;font-family:Futura;-inkscape-font-specification:Futura;display:inline;opacity:1;stroke-width:0.264583"
       transform="translate(-1.1823558,88.848322)">
      <path
         d="m 30.021939,17.431496 -0.72347,-0.923974 h 0.553971 l 0.448551,0.587044 0.456819,-0.587044 h 0.570508 l -0.74414,0.923974 0.861962,1.089338 h -0.553971 l -0.591178,-0.752408 -0.605647,0.752408 h -0.56844 z"
         style="stroke-width:0.264583"
         id="path1257-10"
         inkscape:connector-curvature="0" />
    </g>
    <g
       aria-label="x"
       id="text1232-7"
       style="font-size:4.23333px;line-height:1.25;font-family:Futura;-inkscape-font-specification:Futura;display:inline;opacity:1;stroke-width:0.264583"
       transform="translate(-1.1823558,103.40041)">
      <path
         d="m 30.021939,17.431496 -0.72347,-0.923974 h 0.553971 l 0.448551,0.587044 0.456819,-0.587044 h 0.570508 l -0.74414,0.923974 0.861962,1.089338 h -0.553971 l -0.591178,-0.752408 -0.605647,0.752408 h -0.56844 z"
         style="stroke-width:0.264583"
         id="path1257-6"
         inkscape:connector-curvature="0" />
    </g>
  </g>
  <g
     inkscape:groupmode="layer"
     id="layer2"
     inkscape:label="components"
     style="display:inline">
    <circle
       style="display:inline;fill:#f2f2f2;stroke:#00ff00;stroke-width:0.264583;stroke-opacity:1"
       id="path15"
       cx="9.260416"
       cy="12.170834"
       r="2.6458333"
       inkscape:label="signal1" />
    <circle
       style="display:inline;fill:#f2f2f2;stroke:#00ff00;stroke-width:0.264583;stroke-opacity:1"
       id="path17"
       cx="9.2604151"
       cy="26.722906"
       r="2.6458333"
       inkscape:label="signal2" />
    <circle
       style="display:inline;fill:#f2f2f2;stroke:#00ff00;stroke-width:0.264583;stroke-opacity:1"
       id="path34"
       cx="9.2604151"
       cy="41.274986"
       r="2.6458333"
       inkscape:label="signal3" />
    <circle
       inkscape:label="signal4"
       r="2.6458333"
       cy="55.934864"
       cx="9.2604151"
       id="path15-0"
       style="display:inline;fill:#f2f2f2;stroke:#00ff00;stroke-width:0.264583;stroke-opacity:1" />
    <circle
       inkscape:label="signal5"
       r="2.6458333"
       cy="70.379158"
       cx="9.2604151"
       id="path17-5"
       style="display:inline;fill:#f2f2f2;stroke:#00ff00;stroke-width:0.264583;stroke-opacity:1" />
    <circle
       inkscape:label="signal6"
       r="2.6458333"
       cy="84.931236"
       cx="9.2604141"
       id="path34-6"
       style="display:inline;fill:#f2f2f2;stroke:#00ff00;stroke-width:0.264583;stroke-opacity:1" />
    <circle
       style="display:inline;fill:#f2f2f2;stroke:#00ff00;stroke-width:0.264583;stroke-opacity:1"
       id="path17-5-3"
       cx="9.2604141"
       cy="99.483322"
       r="2.6458333"
       inkscape:label="signal7" />
    <circle
       style="display:inline;fill:#f2f2f2;stroke:#00ff00;stroke-width:0.264583;stroke-opacity:1"
       id="path34-6-8"
       cx="9.2604141"
       cy="114.03542"
       r="2.6458333"
       inkscape:label="signal8" />
    <circle
       inkscape:label="carrier_level1"
       r="2.6458333"
       cy="12.170835"
       cx="22.489584"
       id="path15-4"
       style="display:inline;fill:#f2f2f2;stroke:#ff0000;stroke-width:0.264583;stroke-opacity:1" />
    <circle
       inkscape:label="carrier_level2"
       r="2.6458333"
       cy="26.722906"
       cx="22.489584"
       id="path17-0"
       style="display:inline;fill:#f2f2f2;stroke:#ff0000;stroke-width:0.264583;stroke-opacity:1" />
    <circle
       inkscape:label="carrier_level3"
       r="2.6458333"
       cy="41.27499"
       cx="22.489584"
       id="path34-0"
       style="display:inline;fill:#f2f2f2;stroke:#ff0000;stroke-width:0.264583;stroke-opacity:1" />
    <circle
       style="display:inline;fill:#f2f2f2;stroke:#ff0000;stroke-width:0.264583;stroke-opacity:1"
       id="path15-0-9"
       cx="22.489584"
       cy="55.934872"
       r="2.6458333"
       inkscape:label="carrier_level4" />
    <circle
       style="display:inline;fill:#f2f2f2;stroke:#ff0000;stroke-width:0.264583;stroke-opacity:1"
       id="path17-5-37"
       cx="22.489584"
       cy="70.379158"
       r="2.6458333"
       inkscape:label="carrier_level5" />
    <circle
       style="display:inline;fill:#f2f2f2;stroke:#ff0000;stroke-width:0.264583;stroke-opacity:1"
       id="path34-6-5"
       cx="22.489584"
       cy="84.931236"
       r="2.6458333"
       inkscape:label="carrier_level6" />
    <circle
       inkscape:label="carrier_level7"
       r="2.6458333"
       cy="99.483322"
       cx="22.489584"
       id="path17-5-3-7"
       style="display:inline;fill:#f2f2f2;stroke:#ff0000;stroke-width:0.264583;stroke-opacity:1" />
    <circle
       inkscape:label="carrier_level8"
       r="2.6458333"
       cy="114.03542"
       cx="22.489584"
       id="path34-6-8-2"
       style="display:inline;fill:#f2f2f2;stroke:#ff0000;stroke-width:0.264583;stroke-opacity:1" />
    <circle
       style="display:inline;fill:#f2f2f2;stroke:#00ff00;stroke-width:0.264583;stroke-opacity:1"
       id="path15-4-6"
       cx="35.71875"
       cy="12.170835"
       r="2.6458333"
       inkscape:label="carrier1" />
    <circle
       style="display:inline;fill:#f2f2f2;stroke:#00ff00;stroke-width:0.264583;stroke-opacity:1"
       id="path17-0-5"
       cx="35.71875"
       cy="26.722906"
       r="2.6458333"
       inkscape:label="carrier2" />
    <circle
       style="display:inline;fill:#f2f2f2;stroke:#00ff00;stroke-width:0.264583;stroke-opacity:1"
       id="path34-0-3"
       cx="35.71875"
       cy="41.27499"
       r="2.6458333"
       inkscape:label="carrier3" />
    <circle
       inkscape:label="carrier4"
       r="2.6458333"
       cy="55.934872"
       cx="35.71875"
       id="path15-0-9-0"
       style="display:inline;fill:#f2f2f2;stroke:#00ff00;stroke-width:0.264583;stroke-opacity:1" />
    <circle
       inkscape:label="carrier5"
       r="2.6458333"
       cy="70.379173"
       cx="35.71875"
       id="path17-5-37-4"
       style="display:inline;fill:#f2f2f2;stroke:#00ff00;stroke-width:0.264583;stroke-opacity:1" />
    <circle
       inkscape:label="carrier6"
       r="2.6458333"
       cy="84.931236"
       cx="35.71875"
       id="path34-6-5-8"
       style="display:inline;fill:#f2f2f2;stroke:#00ff00;stroke-width:0.264583;stroke-opacity:1" />
    <circle
       style="display:inline;fill:#f2f2f2;stroke:#00ff00;stroke-width:0.264583;stroke-opacity:1"
       id="path17-5-3-7-5"
       cx="35.71875"
       cy="99.483322"
       r="2.6458333"
       inkscape:label="carrier7" />
    <circle
       style="display:inline;fill:#f2f2f2;stroke:#00ff00;stroke-width:0.264583;stroke-opacity:1"
       id="path34-6-8-2-5"
       cx="35.71875"
       cy="114.03542"
       r="2.6458333"
       inkscape:label="carrier8" />
    <circle
       inkscape:label="out1"
       r="2.6458333"
       cy="12.170826"
       cx="48.947918"
       id="path15-4-6-5"
       style="display:inline;fill:#f2f2f2;stroke:#0000ff;stroke-width:0.264583;stroke-opacity:1" />
    <circle
       inkscape:label="out2"
       r="2.6458333"
       cy="26.722897"
       cx="48.947918"
       id="path17-0-5-4"
       style="display:inline;fill:#f2f2f2;stroke:#0000ff;stroke-width:0.264583;stroke-opacity:1" />
    <circle
       inkscape:label="out3"
       r="2.6458333"
       cy="41.274986"
       cx="48.947918"
       id="path34-0-3-2"
       style="display:inline;fill:#f2f2f2;stroke:#0000ff;stroke-width:0.264583;stroke-opacity:1" />
    <circle
       style="display:inline;fill:#f2f2f2;stroke:#0000ff;stroke-width:0.264583;stroke-opacity:1"
       id="path15-0-9-0-1"
       cx="48.947918"
       cy="55.934864"
       r="2.6458333"
       inkscape:label="out4" />
    <circle
       style="display:inline;fill:#f2f2f2;stroke:#0000ff;stroke-width:0.264583;stroke-opacity:1"
       id="path17-5-37-4-9"
       cx="48.947918"
       cy="70.379158"
       r="2.6458333"
       inkscape:label="out5" />
    <circle
       style="display:inline;fill:#f2f2f2;stroke:#0000ff;stroke-width:0.264583;stroke-opacity:1"
       id="path34-6-5-8-2"
       cx="48.947918"
       cy="84.931221"
       r="2.6458333"
       inkscape:label="out6" />
    <circle
       inkscape:label="out7"
       r="2.6458333"
       cy="99.483322"
       cx="48.947918"
       id="path17-5-3-7-5-4"
       style="display:inline;fill:#f2f2f2;stroke:#0000ff;stroke-width:0.264583;stroke-opacity:1" />
    <circle
       inkscape:label="out8"
       r="2.6458333"
       cy="114.03542"
       cx="48.947918"
       id="path34-6-8-2-5-5"
       style="display:inline;fill:#f2f2f2;stroke:#0000ff;stroke-width:0.264583;stroke-opacity:1" />
  </g>
</svg>
