<?xml version="1.0" encoding="UTF-8" standalone="no"?>
<svg
   xmlns:dc="http://purl.org/dc/elements/1.1/"
   xmlns:cc="http://creativecommons.org/ns#"
   xmlns:rdf="http://www.w3.org/1999/02/22-rdf-syntax-ns#"
   xmlns:svg="http://www.w3.org/2000/svg"
   xmlns="http://www.w3.org/2000/svg"
   xmlns:sodipodi="http://sodipodi.sourceforge.net/DTD/sodipodi-0.dtd"
   xmlns:inkscape="http://www.inkscape.org/namespaces/inkscape"
   sodipodi:docname="Offset.svg"
   inkscape:version="1.0beta1 (32d4812, 2019-09-19)"
   id="svg1138"
   version="1.1"
   viewBox="0 0 30.48 128.5"
   height="128.5mm"
   width="30.48mm">
  <defs
     id="defs1132" />
  <sodipodi:namedview
     inkscape:window-maximized="0"
     inkscape:window-y="748"
     inkscape:window-x="0"
     inkscape:window-height="855"
     inkscape:window-width="1440"
     inkscape:snap-object-midpoints="true"
     showgrid="true"
     inkscape:document-rotation="0"
     inkscape:current-layer="layer4"
     inkscape:document-units="mm"
     inkscape:cy="242.83465"
     inkscape:cx="57.599999"
     inkscape:zoom="1.3692445"
     inkscape:pageshadow="2"
     inkscape:pageopacity="0.0"
     borderopacity="1.0"
     bordercolor="#666666"
     pagecolor="#ffffff"
     id="base">
    <inkscape:grid
       id="grid1738"
       type="xygrid" />
  </sodipodi:namedview>
  <metadata
     id="metadata1135">
    <rdf:RDF>
      <cc:Work
         rdf:about="">
        <dc:format>image/svg+xml</dc:format>
        <dc:type
           rdf:resource="http://purl.org/dc/dcmitype/StillImage" />
        <dc:title />
      </cc:Work>
    </rdf:RDF>
  </metadata>
  <g
     sodipodi:insensitive="true"
     id="layer1"
     inkscape:groupmode="layer"
     inkscape:label="Background">
    <rect
       y="0"
       x="0"
       height="128.5"
       width="30.48"
       id="rect10"
       style="display:inline;fill:#f8f8f8;fill-opacity:1;stroke:none;stroke-width:0.122863" />
  </g>
  <g
     sodipodi:insensitive="true"
     inkscape:label="boxes"
     id="layer3"
     inkscape:groupmode="layer">
    <rect
       style="display:inline;fill:#000000;fill-opacity:0.5;stroke:none;stroke-width:0.53;stroke-miterlimit:4;stroke-dasharray:0.53, 1.06;stroke-dashoffset:0;stroke-opacity:1"
       id="rect1740-1"
       width="10.583333"
       height="10.583333"
       x="17.197918"
       y="6.614593" />
    <rect
       style="display:inline;fill:#000000;fill-opacity:0.5;stroke:none;stroke-width:0.53;stroke-miterlimit:4;stroke-dasharray:0.53, 1.06;stroke-dashoffset:0;stroke-opacity:1"
       id="rect1740-1-5"
       width="10.583333"
       height="10.583333"
       x="17.197918"
       y="21.166666" />
    <rect
       style="display:inline;fill:#000000;fill-opacity:0.5;stroke:none;stroke-width:0.53;stroke-miterlimit:4;stroke-dasharray:0.53, 1.06;stroke-dashoffset:0;stroke-opacity:1"
       id="rect1740-1-9"
       width="10.583333"
       height="10.583333"
       x="17.197918"
       y="35.718742" />
    <rect
       style="display:inline;fill:#000000;fill-opacity:0.5;stroke:none;stroke-width:0.53;stroke-miterlimit:4;stroke-dasharray:0.53, 1.06;stroke-dashoffset:0;stroke-opacity:1"
       id="rect1740-1-7"
       width="10.583333"
       height="10.583333"
       x="17.197918"
       y="50.378624" />
    <rect
       style="display:inline;fill:#000000;fill-opacity:0.5;stroke:none;stroke-width:0.53;stroke-miterlimit:4;stroke-dasharray:0.53, 1.06;stroke-dashoffset:0;stroke-opacity:1"
       id="rect1740-1-53"
       width="10.583333"
       height="10.583333"
       x="17.197918"
       y="64.822922" />
    <rect
       style="display:inline;fill:#000000;fill-opacity:0.5;stroke:none;stroke-width:0.53;stroke-miterlimit:4;stroke-dasharray:0.53, 1.06;stroke-dashoffset:0;stroke-opacity:1"
       id="rect1740-1-90"
       width="10.583333"
       height="10.583333"
       x="17.197918"
       y="79.375" />
    <rect
       style="display:inline;fill:#000000;fill-opacity:0.5;stroke:none;stroke-width:0.53;stroke-miterlimit:4;stroke-dasharray:0.53, 1.06;stroke-dashoffset:0;stroke-opacity:1"
       id="rect1740-1-55"
       width="10.583333"
       height="10.583333"
       x="17.197918"
       y="93.927071" />
    <rect
       style="display:inline;fill:#000000;fill-opacity:0.5;stroke:none;stroke-width:0.53;stroke-miterlimit:4;stroke-dasharray:0.53, 1.06;stroke-dashoffset:0;stroke-opacity:1"
       id="rect1740-1-6"
       width="10.583333"
       height="10.583333"
       x="17.197918"
       y="108.47915" />
  </g>
  <g
     sodipodi:insensitive="true"
     inkscape:label="lines"
     id="layer5"
     inkscape:groupmode="layer">
    <path
       inkscape:connector-curvature="0"
       id="path2743"
       d="m 10.583333,11.90625 h 6.614583"
       style="display:inline;opacity:1;fill:none;stroke:#000000;stroke-width:0.53;stroke-linecap:butt;stroke-linejoin:miter;stroke-miterlimit:4;stroke-dasharray:none;stroke-opacity:1" />
    <path
       style="display:inline;opacity:1;fill:none;stroke:#000000;stroke-width:0.53;stroke-linecap:butt;stroke-linejoin:miter;stroke-miterlimit:4;stroke-dasharray:none;stroke-opacity:1"
       d="m 10.583333,26.458333 h 6.614583"
       id="path2743-1"
       inkscape:connector-curvature="0" />
    <path
       style="display:inline;opacity:1;fill:none;stroke:#000000;stroke-width:0.53;stroke-linecap:butt;stroke-linejoin:miter;stroke-miterlimit:4;stroke-dasharray:none;stroke-opacity:1"
       d="m 10.583333,41.010417 h 6.614583"
       id="path2743-10"
       inkscape:connector-curvature="0" />
    <path
       style="display:inline;opacity:1;fill:none;stroke:#000000;stroke-width:0.53;stroke-linecap:butt;stroke-linejoin:miter;stroke-miterlimit:4;stroke-dasharray:none;stroke-opacity:1"
       d="m 10.583333,55.5625 h 6.614583"
       id="path2743-18"
       inkscape:connector-curvature="0" />
    <path
       style="display:inline;opacity:1;fill:none;stroke:#000000;stroke-width:0.53;stroke-linecap:butt;stroke-linejoin:miter;stroke-miterlimit:4;stroke-dasharray:none;stroke-opacity:1"
       d="m 10.583333,70.114583 h 6.614583"
       id="path2743-7"
       inkscape:connector-curvature="0" />
    <path
       style="display:inline;opacity:1;fill:none;stroke:#000000;stroke-width:0.53;stroke-linecap:butt;stroke-linejoin:miter;stroke-miterlimit:4;stroke-dasharray:none;stroke-opacity:1"
       d="m 10.583333,84.666667 h 6.614583"
       id="path2743-6"
       inkscape:connector-curvature="0" />
    <path
       style="display:inline;opacity:1;fill:none;stroke:#000000;stroke-width:0.53;stroke-linecap:butt;stroke-linejoin:miter;stroke-miterlimit:4;stroke-dasharray:none;stroke-opacity:1"
       d="m 10.583333,99.21875 h 6.614583"
       id="path2743-0"
       inkscape:connector-curvature="0" />
    <path
       style="display:inline;opacity:1;fill:none;stroke:#000000;stroke-width:0.53;stroke-linecap:butt;stroke-linejoin:miter;stroke-miterlimit:4;stroke-dasharray:none;stroke-opacity:1"
       d="m 10.583333,113.77083 h 6.614583"
       id="path2743-09"
       inkscape:connector-curvature="0" />
  </g>
  <g
     style="display:inline;opacity:1"
     inkscape:label="text"
     id="layer4"
     inkscape:groupmode="layer">
    <g
       transform="translate(-86.935688,-0.06042158)"
       style="font-size:6.35px;line-height:1.25;font-family:Futura;-inkscape-font-specification:Futura;display:inline;opacity:1;stroke-width:0.264583"
       id="text1717-2"
       aria-label="STALYS">
      <path
         inkscape:connector-curvature="0"
         id="path2113"
         style="stroke-width:0.264583"
         d="m 94.892412,122.92583 -0.586011,0.34727 q -0.164331,-0.28526 -0.313159,-0.37207 -0.155029,-0.0992 -0.399976,-0.0992 -0.300757,0 -0.499194,0.17053 -0.198438,0.16743 -0.198438,0.42168 0,0.35036 0.520899,0.56431 l 0.47749,0.19533 q 0.58291,0.23565 0.852661,0.57671 0.269751,0.33796 0.269751,0.83096 0,0.66042 -0.440283,1.0914 -0.443384,0.43409 -1.100708,0.43409 -0.623218,0 -1.029395,-0.36897 -0.399975,-0.36897 -0.499194,-1.0387 l 0.731738,-0.16123 q 0.04961,0.42168 0.173633,0.58291 0.223242,0.31006 0.651123,0.31006 0.337964,0 0.561206,-0.22634 0.223243,-0.22635 0.223243,-0.57361 0,-0.13953 -0.04031,-0.25425 -0.03721,-0.11782 -0.120923,-0.21394 -0.08061,-0.0992 -0.21084,-0.18294 -0.130224,-0.0868 -0.310058,-0.16433 l -0.461988,-0.19223 q -0.982885,-0.41548 -0.982885,-1.21543 0,-0.5395 0.412378,-0.90227 0.412377,-0.36587 1.026293,-0.36587 0.827857,0 1.292945,0.80615 z" />
      <path
         inkscape:connector-curvature="0"
         id="path2115"
         style="stroke-width:0.264583"
         d="M 97.307768,122.89172 V 127 h -0.722436 v -4.10828 h -1.100708 v -0.67902 h 2.920751 v 0.67902 z" />
      <path
         inkscape:connector-curvature="0"
         id="path2117"
         style="stroke-width:0.264583"
         d="M 101.60208,125.83728 H 99.552592 L 99.019291,127 h -0.778247 l 2.368846,-5.08806 2.28513,5.08806 h -0.79065 z m -0.29456,-0.67903 -0.71003,-1.62781 -0.744141,1.62781 z" />
      <path
         inkscape:connector-curvature="0"
         id="path2119"
         style="stroke-width:0.264583"
         d="m 104.21897,122.2127 v 4.10827 h 1.40767 V 127 h -2.1301 v -4.7873 z" />
      <path
         inkscape:connector-curvature="0"
         id="path2121"
         style="stroke-width:0.264583"
         d="m 106.87618,124.93191 -1.5627,-2.71921 h 0.83096 l 1.0945,1.91306 1.09761,-1.91306 h 0.83096 l -1.5689,2.71921 V 127 h -0.72243 z" />
      <path
         inkscape:connector-curvature="0"
         id="path2123"
         style="stroke-width:0.264583"
         d="m 112.2805,122.92583 -0.58601,0.34727 q -0.16433,-0.28526 -0.31316,-0.37207 -0.15503,-0.0992 -0.39998,-0.0992 -0.30075,0 -0.49919,0.17053 -0.19844,0.16743 -0.19844,0.42168 0,0.35036 0.5209,0.56431 l 0.47749,0.19533 q 0.58291,0.23565 0.85266,0.57671 0.26975,0.33796 0.26975,0.83096 0,0.66042 -0.44028,1.0914 -0.44339,0.43409 -1.10071,0.43409 -0.62322,0 -1.02939,-0.36897 -0.39998,-0.36897 -0.4992,-1.0387 l 0.73174,-0.16123 q 0.0496,0.42168 0.17363,0.58291 0.22324,0.31006 0.65113,0.31006 0.33796,0 0.5612,-0.22634 0.22324,-0.22635 0.22324,-0.57361 0,-0.13953 -0.0403,-0.25425 -0.0372,-0.11782 -0.12093,-0.21394 -0.0806,-0.0992 -0.21084,-0.18294 -0.13022,-0.0868 -0.31006,-0.16433 l -0.46198,-0.19223 q -0.98289,-0.41548 -0.98289,-1.21543 0,-0.5395 0.41238,-0.90227 0.41238,-0.36587 1.02629,-0.36587 0.82786,0 1.29295,0.80615 z" />
    </g>
    <text
       id="text1987"
       y="19.84375"
       x="7.9375"
       style="font-size:6.35px;line-height:1.25;font-family:Futura;-inkscape-font-specification:Futura;stroke-width:0.264583"
       xml:space="preserve"><tspan
         style="stroke-width:0.264583"
         y="19.84375"
         x="7.9375"
         id="tspan1985"
         sodipodi:role="line" /></text>
    <g
       style="font-size:6.35px;line-height:1.25;font-family:Futura;-inkscape-font-specification:Futura;stroke-width:0.264583"
       id="text1024"
       aria-label="8 Off">
      <path
         id="path887"
         style="stroke-width:0.264583"
         d="M 8.3241431,3.688136 Q 7.7970435,3.3160657 7.7970435,2.6742445 q 0,-0.5829102 0.3999756,-0.973584 0.4030762,-0.3906738 1.0014892,-0.3906738 0.5953125,0 0.9921877,0.3906738 0.396875,0.3875732 0.396875,0.9766845 0,0.6170166 -0.523999,1.0076905 0.288354,0.1550293 0.452685,0.4526855 0.167432,0.2976562 0.167432,0.6697265 0,0.6356202 -0.415479,1.0417969 -0.415478,0.4061768 -1.0635005,0.4061768 -0.6635254,0 -1.0945068,-0.4092774 -0.434082,-0.4092773 -0.434082,-1.0293945 0,-0.8061523 0.6480224,-1.1286133 z M 8.4760718,2.6711439 q 0,0.306958 0.2077393,0.5146972 0.2108398,0.2108399 0.5084961,0.2108399 0.2945556,0 0.5053955,-0.2108399 0.2108398,-0.2108398 0.2108398,-0.5053955 0,-0.2945556 -0.2108398,-0.5053955 -0.2108399,-0.2108398 -0.5053955,-0.2108398 -0.2945557,0 -0.5053955,0.2108398 Q 8.4760718,2.38589 8.4760718,2.6711439 Z m -0.089917,2.1208007 q 0,0.3317627 0.2294434,0.5705078 0.2325439,0.2356446 0.5643066,0.2356446 0.3286621,0 0.5612061,-0.232544 0.2325439,-0.2356445 0.2325439,-0.5643066 0,-0.3317627 -0.2325439,-0.5643067 -0.232544,-0.2325439 -0.5612061,-0.2325439 -0.3255615,0 -0.561206,0.2325439 -0.232544,0.232544 -0.232544,0.5550049 z" />
      <path
         id="path889"
         style="stroke-width:0.264583"
         d="m 13.433909,3.7625501 q 0,-1.010791 0.74104,-1.7363281 0.737939,-0.7255371 1.773535,-0.7255371 1.023193,0 1.754931,0.7317383 0.734839,0.7317382 0.734839,1.7580322 0,1.0324951 -0.737939,1.751831 -0.74104,0.7224365 -1.789038,0.7224365 -0.927076,0 -1.665015,-0.6418213 -0.812353,-0.7100341 -0.812353,-1.8603515 z m 0.728637,0.0093 q 0,0.7937499 0.533301,1.3053466 0.5302,0.5115967 1.224731,0.5115967 0.753443,0 1.271241,-0.5208984 0.517797,-0.5270996 0.517797,-1.2836426 0,-0.7658447 -0.511596,-1.2836426 -0.508496,-0.5208984 -1.258838,-0.5208984 -0.747241,0 -1.261939,0.5208984 -0.514697,0.5146973 -0.514697,1.2712403 z" />
      <path
         id="path891"
         style="stroke-width:0.264583"
         d="M 19.942039,3.8090589 V 6.1779065 H 19.241307 V 3.8090589 H 18.99326 v -0.651123 h 0.248047 V 1.9921156 q 0,-0.5705078 0.198437,-0.8061524 0.272852,-0.32866208 0.79375,-0.32866208 0.186035,0 0.468189,0.10852051 V 1.6789564 l -0.07131,-0.037207 q -0.226343,-0.1147217 -0.37207,-0.1147217 -0.186035,0 -0.251148,0.1333252 -0.06511,0.1302246 -0.06511,0.5022949 v 0.9952881 h 0.759644 v 0.651123 z" />
      <path
         id="path893"
         style="stroke-width:0.264583"
         d="M 22.044236,3.8090589 V 6.1779065 H 21.343503 V 3.8090589 h -0.248047 v -0.651123 h 0.248047 V 1.9921156 q 0,-0.5705078 0.198438,-0.8061524 0.272851,-0.32866208 0.79375,-0.32866208 0.186035,0 0.468188,0.10852051 V 1.6789564 l -0.07131,-0.037207 q -0.226343,-0.1147217 -0.372071,-0.1147217 -0.186035,0 -0.251147,0.1333252 -0.06511,0.1302246 -0.06511,0.5022949 v 0.9952881 h 0.759643 v 0.651123 z" />
    </g>
  </g>
  <g
     sodipodi:insensitive="true"
     style="display:none"
     inkscape:label="components"
     id="layer2"
     inkscape:groupmode="layer">
    <circle
       inkscape:label="in1"
       r="2.6458333"
       cy="11.79847"
       cx="7.937501"
       id="path15"
       style="display:inline;fill:#f2f2f2;stroke:#ff0000;stroke-width:0.264583;stroke-opacity:1" />
    <circle
       inkscape:label="in2"
       r="2.6458333"
       cy="26.350542"
       cx="7.9375"
       id="path17"
       style="display:inline;fill:#f2f2f2;stroke:#ff0000;stroke-width:0.264583;stroke-opacity:1" />
    <circle
       inkscape:label="in3"
       r="2.6458333"
       cy="40.902622"
       cx="7.9375"
       id="path34"
       style="display:inline;fill:#f2f2f2;stroke:#ff0000;stroke-width:0.264583;stroke-opacity:1" />
    <circle
       style="display:inline;fill:#f2f2f2;stroke:#ff0000;stroke-width:0.264583;stroke-opacity:1"
       id="path15-0"
       cx="7.9375"
       cy="55.5625"
       r="2.6458333"
       inkscape:label="in4" />
    <circle
       style="display:inline;fill:#f2f2f2;stroke:#ff0000;stroke-width:0.264583;stroke-opacity:1"
       id="path17-5"
       cx="7.9375"
       cy="70.00679"
       r="2.6458333"
       inkscape:label="in5" />
    <circle
       style="display:inline;fill:#f2f2f2;stroke:#ff0000;stroke-width:0.264583;stroke-opacity:1"
       id="path34-6"
       cx="7.937499"
       cy="84.558868"
       r="2.6458333"
       inkscape:label="in6" />
    <circle
       inkscape:label="in7"
       r="2.6458333"
       cy="99.110954"
       cx="7.937499"
       id="path17-5-3"
       style="display:inline;fill:#f2f2f2;stroke:#ff0000;stroke-width:0.264583;stroke-opacity:1" />
    <circle
       inkscape:label="in8"
       r="2.6458333"
       cy="113.66306"
       cx="7.937499"
       id="path34-6-8"
       style="display:inline;fill:#f2f2f2;stroke:#ff0000;stroke-width:0.264583;stroke-opacity:1" />
    <circle
       style="display:inline;fill:#f2f2f2;stroke:#0000ff;stroke-width:0.264583;stroke-opacity:1"
       id="path15-4-6-5"
       cx="22.489761"
       cy="11.90626"
       r="2.6458333"
       inkscape:label="out1" />
    <circle
       style="display:inline;fill:#f2f2f2;stroke:#0000ff;stroke-width:0.264583;stroke-opacity:1"
       id="path17-0-5-4"
       cx="22.489761"
       cy="26.45833"
       r="2.6458333"
       inkscape:label="out2" />
    <circle
       style="display:inline;fill:#f2f2f2;stroke:#0000ff;stroke-width:0.264583;stroke-opacity:1"
       id="path34-0-3-2"
       cx="22.489761"
       cy="41.010422"
       r="2.6458333"
       inkscape:label="out3" />
    <circle
       inkscape:label="out4"
       r="2.6458333"
       cy="55.6703"
       cx="22.489761"
       id="path15-0-9-0-1"
       style="display:inline;fill:#f2f2f2;stroke:#0000ff;stroke-width:0.264583;stroke-opacity:1" />
    <circle
       inkscape:label="out5"
       r="2.6458333"
       cy="70.114594"
       cx="22.489761"
       id="path17-5-37-4-9"
       style="display:inline;fill:#f2f2f2;stroke:#0000ff;stroke-width:0.264583;stroke-opacity:1" />
    <circle
       inkscape:label="out6"
       r="2.6458333"
       cy="84.666656"
       cx="22.489761"
       id="path34-6-5-8-2"
       style="display:inline;fill:#f2f2f2;stroke:#0000ff;stroke-width:0.264583;stroke-opacity:1" />
    <circle
       style="display:inline;fill:#f2f2f2;stroke:#0000ff;stroke-width:0.264583;stroke-opacity:1"
       id="path17-5-3-7-5-4"
       cx="22.489761"
       cy="99.218758"
       r="2.6458333"
       inkscape:label="out7" />
    <circle
       style="display:inline;fill:#f2f2f2;stroke:#0000ff;stroke-width:0.264583;stroke-opacity:1"
       id="path34-6-8-2-5-5"
       cx="22.489761"
       cy="113.77086"
       r="2.6458333"
       inkscape:label="out8" />
  </g>
</svg>
