<?xml version="1.0" encoding="UTF-8" standalone="no"?>
<svg
   xmlns:dc="http://purl.org/dc/elements/1.1/"
   xmlns:cc="http://creativecommons.org/ns#"
   xmlns:rdf="http://www.w3.org/1999/02/22-rdf-syntax-ns#"
   xmlns:svg="http://www.w3.org/2000/svg"
   xmlns="http://www.w3.org/2000/svg"
   xmlns:sodipodi="http://sodipodi.sourceforge.net/DTD/sodipodi-0.dtd"
   xmlns:inkscape="http://www.inkscape.org/namespaces/inkscape"
   width="50.799999mm"
   height="128.5mm"
   viewBox="0 0 50.799999 128.5"
   version="1.1"
   id="svg1138"
   inkscape:version="1.0beta1 (32d4812, 2019-09-19)"
   sodipodi:docname="PosNegRectifier.svg">
  <defs
     id="defs1132" />
  <sodipodi:namedview
     inkscape:snap-bbox-midpoints="true"
     inkscape:snap-bbox="true"
     id="base"
     pagecolor="#ffffff"
     bordercolor="#666666"
     borderopacity="1.0"
     inkscape:pageopacity="0.0"
     inkscape:pageshadow="2"
     inkscape:zoom="1.7028048"
     inkscape:cx="95.999999"
     inkscape:cy="242.83465"
     inkscape:document-units="mm"
     inkscape:current-layer="layer2"
     inkscape:document-rotation="0"
     showgrid="true"
     inkscape:snap-object-midpoints="true"
     inkscape:window-width="1920"
     inkscape:window-height="1035"
     inkscape:window-x="1440"
     inkscape:window-y="23"
     inkscape:window-maximized="1">
    <inkscape:grid
       type="xygrid"
       id="grid1738" />
  </sodipodi:namedview>
  <metadata
     id="metadata1135">
    <rdf:RDF>
      <cc:Work
         rdf:about="">
        <dc:format>image/svg+xml</dc:format>
        <dc:type
           rdf:resource="http://purl.org/dc/dcmitype/StillImage" />
        <dc:title></dc:title>
      </cc:Work>
    </rdf:RDF>
  </metadata>
  <g
     sodipodi:insensitive="true"
     inkscape:label="Background"
     inkscape:groupmode="layer"
     id="layer1">
    <rect
       style="display:inline;fill:#f8f8f8;fill-opacity:1;stroke:none;stroke-width:0.158615"
       id="rect10"
       width="50.799999"
       height="128.5"
       x="0"
       y="0" />
  </g>
  <g
     style="display:inline"
     sodipodi:insensitive="true"
     inkscape:groupmode="layer"
     id="layer3"
     inkscape:label="boxes">
    <rect
       y="6.7223959"
       x="34.396008"
       height="10.583333"
       width="10.583333"
       id="rect1740-1"
       style="display:inline;fill:#000000;fill-opacity:0.5;stroke:none;stroke-width:0.53;stroke-miterlimit:4;stroke-dasharray:0.53, 1.06;stroke-dashoffset:0;stroke-opacity:1" />
    <rect
       y="21.274467"
       x="34.396008"
       height="10.583333"
       width="10.583333"
       id="rect1740-1-5"
       style="display:inline;fill:#000000;fill-opacity:0.5;stroke:none;stroke-width:0.53;stroke-miterlimit:4;stroke-dasharray:0.53, 1.06;stroke-dashoffset:0;stroke-opacity:1" />
    <rect
       y="35.826546"
       x="34.396008"
       height="10.583333"
       width="10.583333"
       id="rect1740-1-9"
       style="display:inline;fill:#000000;fill-opacity:0.5;stroke:none;stroke-width:0.53;stroke-miterlimit:4;stroke-dasharray:0.53, 1.06;stroke-dashoffset:0;stroke-opacity:1" />
    <rect
       y="50.486427"
       x="34.396008"
       height="10.583333"
       width="10.583333"
       id="rect1740-1-7"
       style="display:inline;fill:#000000;fill-opacity:0.5;stroke:none;stroke-width:0.53;stroke-miterlimit:4;stroke-dasharray:0.53, 1.06;stroke-dashoffset:0;stroke-opacity:1" />
    <rect
       y="64.930725"
       x="34.396008"
       height="10.583333"
       width="10.583333"
       id="rect1740-1-53"
       style="display:inline;fill:#000000;fill-opacity:0.5;stroke:none;stroke-width:0.53;stroke-miterlimit:4;stroke-dasharray:0.53, 1.06;stroke-dashoffset:0;stroke-opacity:1" />
    <rect
       y="79.482803"
       x="34.396008"
       height="10.583333"
       width="10.583333"
       id="rect1740-1-90"
       style="display:inline;fill:#000000;fill-opacity:0.5;stroke:none;stroke-width:0.53;stroke-miterlimit:4;stroke-dasharray:0.53, 1.06;stroke-dashoffset:0;stroke-opacity:1" />
    <rect
       y="94.034874"
       x="34.396008"
       height="10.583333"
       width="10.583333"
       id="rect1740-1-55"
       style="display:inline;fill:#000000;fill-opacity:0.5;stroke:none;stroke-width:0.53;stroke-miterlimit:4;stroke-dasharray:0.53, 1.06;stroke-dashoffset:0;stroke-opacity:1" />
    <rect
       y="108.58696"
       x="34.396008"
       height="10.583333"
       width="10.583333"
       id="rect1740-1-6"
       style="display:inline;fill:#000000;fill-opacity:0.5;stroke:none;stroke-width:0.53;stroke-miterlimit:4;stroke-dasharray:0.53, 1.06;stroke-dashoffset:0;stroke-opacity:1" />
    <rect
       style="display:inline;fill:#000000;fill-opacity:0.5;stroke:none;stroke-width:0.53;stroke-miterlimit:4;stroke-dasharray:0.53, 1.06;stroke-dashoffset:0;stroke-opacity:1"
       id="rect1740-1-71"
       width="10.583333"
       height="10.583333"
       x="17.197916"
       y="6.6145835" />
    <rect
       style="display:inline;fill:#000000;fill-opacity:0.5;stroke:none;stroke-width:0.53;stroke-miterlimit:4;stroke-dasharray:0.53, 1.06;stroke-dashoffset:0;stroke-opacity:1"
       id="rect1740-1-5-3"
       width="10.583333"
       height="10.583333"
       x="17.197916"
       y="21.166656" />
    <rect
       style="display:inline;fill:#000000;fill-opacity:0.5;stroke:none;stroke-width:0.53;stroke-miterlimit:4;stroke-dasharray:0.53, 1.06;stroke-dashoffset:0;stroke-opacity:1"
       id="rect1740-1-9-8"
       width="10.583333"
       height="10.583333"
       x="17.197916"
       y="35.718735" />
    <rect
       style="display:inline;fill:#000000;fill-opacity:0.5;stroke:none;stroke-width:0.53;stroke-miterlimit:4;stroke-dasharray:0.53, 1.06;stroke-dashoffset:0;stroke-opacity:1"
       id="rect1740-1-7-4"
       width="10.583333"
       height="10.583333"
       x="17.197916"
       y="50.378613" />
    <rect
       style="display:inline;fill:#000000;fill-opacity:0.5;stroke:none;stroke-width:0.53;stroke-miterlimit:4;stroke-dasharray:0.53, 1.06;stroke-dashoffset:0;stroke-opacity:1"
       id="rect1740-1-53-8"
       width="10.583333"
       height="10.583333"
       x="17.197916"
       y="64.822914" />
    <rect
       style="display:inline;fill:#000000;fill-opacity:0.5;stroke:none;stroke-width:0.53;stroke-miterlimit:4;stroke-dasharray:0.53, 1.06;stroke-dashoffset:0;stroke-opacity:1"
       id="rect1740-1-90-0"
       width="10.583333"
       height="10.583333"
       x="17.197916"
       y="79.374992" />
    <rect
       style="display:inline;fill:#000000;fill-opacity:0.5;stroke:none;stroke-width:0.53;stroke-miterlimit:4;stroke-dasharray:0.53, 1.06;stroke-dashoffset:0;stroke-opacity:1"
       id="rect1740-1-55-4"
       width="10.583333"
       height="10.583333"
       x="17.197916"
       y="93.927063" />
    <rect
       style="display:inline;fill:#000000;fill-opacity:0.5;stroke:none;stroke-width:0.53;stroke-miterlimit:4;stroke-dasharray:0.53, 1.06;stroke-dashoffset:0;stroke-opacity:1"
       id="rect1740-1-6-6"
       width="10.583333"
       height="10.583333"
       x="17.197916"
       y="108.47915" />
  </g>
  <g
     sodipodi:insensitive="true"
     inkscape:groupmode="layer"
     id="layer4"
     inkscape:label="text"
     style="display:inline;opacity:1">
    <g
       aria-label="STALYS"
       id="text1717-2"
       style="font-size:6.35px;line-height:1.25;font-family:Futura;-inkscape-font-specification:Futura;display:inline;opacity:1;stroke-width:0.264583"
       transform="translate(-71.695688,-0.06042158)">
      <path
         d="m 94.892412,122.92583 -0.586011,0.34727 q -0.164331,-0.28526 -0.313159,-0.37207 -0.155029,-0.0992 -0.399976,-0.0992 -0.300757,0 -0.499194,0.17053 -0.198438,0.16743 -0.198438,0.42168 0,0.35036 0.520899,0.56431 l 0.47749,0.19533 q 0.58291,0.23565 0.852661,0.57671 0.269751,0.33796 0.269751,0.83096 0,0.66042 -0.440283,1.0914 -0.443384,0.43409 -1.100708,0.43409 -0.623218,0 -1.029395,-0.36897 -0.399975,-0.36897 -0.499194,-1.0387 l 0.731738,-0.16123 q 0.04961,0.42168 0.173633,0.58291 0.223242,0.31006 0.651123,0.31006 0.337964,0 0.561206,-0.22634 0.223243,-0.22635 0.223243,-0.57361 0,-0.13953 -0.04031,-0.25425 -0.03721,-0.11782 -0.120923,-0.21394 -0.08061,-0.0992 -0.21084,-0.18294 -0.130224,-0.0868 -0.310058,-0.16433 l -0.461988,-0.19223 q -0.982885,-0.41548 -0.982885,-1.21543 0,-0.5395 0.412378,-0.90227 0.412377,-0.36587 1.026293,-0.36587 0.827857,0 1.292945,0.80615 z"
         style="stroke-width:0.264583"
         id="path2113"
         inkscape:connector-curvature="0" />
      <path
         d="M 97.307768,122.89172 V 127 h -0.722436 v -4.10828 h -1.100708 v -0.67902 h 2.920751 v 0.67902 z"
         style="stroke-width:0.264583"
         id="path2115"
         inkscape:connector-curvature="0" />
      <path
         d="M 101.60208,125.83728 H 99.552592 L 99.019291,127 h -0.778247 l 2.368846,-5.08806 2.28513,5.08806 h -0.79065 z m -0.29456,-0.67903 -0.71003,-1.62781 -0.744141,1.62781 z"
         style="stroke-width:0.264583"
         id="path2117"
         inkscape:connector-curvature="0" />
      <path
         d="m 104.21897,122.2127 v 4.10827 h 1.40767 V 127 h -2.1301 v -4.7873 z"
         style="stroke-width:0.264583"
         id="path2119"
         inkscape:connector-curvature="0" />
      <path
         d="m 106.87618,124.93191 -1.5627,-2.71921 h 0.83096 l 1.0945,1.91306 1.09761,-1.91306 h 0.83096 l -1.5689,2.71921 V 127 h -0.72243 z"
         style="stroke-width:0.264583"
         id="path2121"
         inkscape:connector-curvature="0" />
      <path
         d="m 112.2805,122.92583 -0.58601,0.34727 q -0.16433,-0.28526 -0.31316,-0.37207 -0.15503,-0.0992 -0.39998,-0.0992 -0.30075,0 -0.49919,0.17053 -0.19844,0.16743 -0.19844,0.42168 0,0.35036 0.5209,0.56431 l 0.47749,0.19533 q 0.58291,0.23565 0.85266,0.57671 0.26975,0.33796 0.26975,0.83096 0,0.66042 -0.44028,1.0914 -0.44339,0.43409 -1.10071,0.43409 -0.62322,0 -1.02939,-0.36897 -0.39998,-0.36897 -0.4992,-1.0387 l 0.73174,-0.16123 q 0.0496,0.42168 0.17363,0.58291 0.22324,0.31006 0.65113,0.31006 0.33796,0 0.5612,-0.22634 0.22324,-0.22635 0.22324,-0.57361 0,-0.13953 -0.0403,-0.25425 -0.0372,-0.11782 -0.12093,-0.21394 -0.0806,-0.0992 -0.21084,-0.18294 -0.13022,-0.0868 -0.31006,-0.16433 l -0.46198,-0.19223 q -0.98289,-0.41548 -0.98289,-1.21543 0,-0.5395 0.41238,-0.90227 0.41238,-0.36587 1.02629,-0.36587 0.82786,0 1.29295,0.80615 z"
         style="stroke-width:0.264583"
         id="path2123"
         inkscape:connector-curvature="0" />
    </g>
    <text
       xml:space="preserve"
       style="font-size:6.35px;line-height:1.25;font-family:Futura;-inkscape-font-specification:Futura;stroke-width:0.264583"
       x="7.9375"
       y="19.84375"
       id="text1987"><tspan
         sodipodi:role="line"
         id="tspan1985"
         x="7.9375"
         y="19.84375"
         style="stroke-width:0.264583" /></text>
    <g
       style="font-size:6.35px;line-height:1.25;font-family:Futura;-inkscape-font-specification:Futura;stroke-width:0.264583"
       id="text1154"
       aria-label="8 Rectifier">
      <path
         inkscape:connector-curvature="0"
         id="path1156"
         style="stroke-width:0.264583"
         d="m 11.896948,3.6412186 q -0.5271,-0.3720703 -0.5271,-1.0138916 0,-0.5829101 0.399976,-0.973584 0.403076,-0.3906738 1.001489,-0.3906738 0.595313,0 0.992188,0.3906738 0.396875,0.3875733 0.396875,0.9766846 0,0.6170166 -0.523999,1.0076904 0.288354,0.1550293 0.452685,0.4526856 0.167432,0.2976562 0.167432,0.6697265 0,0.6356201 -0.415479,1.0417969 -0.415478,0.4061767 -1.063501,0.4061767 -0.663525,0 -1.094506,-0.4092773 -0.434082,-0.4092774 -0.434082,-1.0293945 0,-0.8061524 0.648022,-1.1286133 z m 0.151929,-1.0169922 q 0,0.306958 0.207739,0.5146973 0.21084,0.2108398 0.508496,0.2108398 0.294556,0 0.505396,-0.2108398 0.210839,-0.2108399 0.210839,-0.5053955 0,-0.2945557 -0.210839,-0.5053955 -0.21084,-0.2108399 -0.505396,-0.2108399 -0.294556,0 -0.505395,0.2108399 -0.21084,0.2108398 -0.21084,0.4960937 z m -0.08992,2.1208008 q 0,0.3317627 0.229443,0.5705078 0.232544,0.2356445 0.564307,0.2356445 0.328662,0 0.561206,-0.2325439 0.232544,-0.2356446 0.232544,-0.5643067 0,-0.3317627 -0.232544,-0.5643066 -0.232544,-0.2325439 -0.561206,-0.2325439 -0.325562,0 -0.561206,0.2325439 -0.232544,0.2325439 -0.232544,0.5550049 z" />
      <path
         inkscape:connector-curvature="0"
         id="path1158"
         style="stroke-width:0.264583"
         d="m 18.867065,4.0908036 1.48208,2.0401855 H 19.465478 L 18.09812,4.1714188 H 17.967895 V 6.1309891 H 17.245459 V 1.3436845 h 0.84646 q 0.948779,0 1.370459,0.3565673 0.465087,0.396875 0.465087,1.0479981 0,0.5084961 -0.291455,0.8743652 -0.291455,0.3658691 -0.768945,0.4681885 z m -0.89917,-0.5488037 h 0.229443 q 1.026294,0 1.026294,-0.7844483 0,-0.7348388 -0.998388,-0.7348388 h -0.257349 z" />
      <path
         inkscape:connector-curvature="0"
         id="path1160"
         style="stroke-width:0.264583"
         d="m 23.583056,4.7853348 h -2.164209 q 0.02791,0.3720703 0.241846,0.5922119 0.21394,0.217041 0.548804,0.217041 0.260449,0 0.430981,-0.1240234 0.167432,-0.1240235 0.381372,-0.4588867 l 0.589111,0.3286621 q -0.136425,0.2325439 -0.288354,0.3999756 -0.151929,0.164331 -0.325562,0.2728515 -0.173632,0.1054199 -0.37517,0.1550293 -0.201538,0.049609 -0.437183,0.049609 -0.675928,0 -1.085205,-0.434082 -0.409277,-0.4371827 -0.409277,-1.1596192 0,-0.7162353 0.396875,-1.1596191 0.399975,-0.4371826 1.0604,-0.4371826 0.666626,0 1.054199,0.4247803 0.384473,0.4216796 0.384473,1.1689208 z M 22.866821,4.214827 q -0.145728,-0.5581055 -0.703833,-0.5581055 -0.127124,0 -0.238745,0.040308 -0.111621,0.037207 -0.204639,0.111621 -0.08992,0.071313 -0.155029,0.1736329 -0.06511,0.1023193 -0.09922,0.2325439 z" />
      <path
         inkscape:connector-curvature="0"
         id="path1162"
         style="stroke-width:0.264583"
         d="M 26.692944,3.241243 V 4.1683182 Q 26.454199,3.8768631 26.265064,3.7683426 26.079028,3.6567215 25.827881,3.6567215 q -0.393774,0 -0.654224,0.2759522 -0.260449,0.2759521 -0.260449,0.6914306 0,0.4247803 0.251148,0.6976319 0.254248,0.2728515 0.648022,0.2728515 0.251148,0 0.443384,-0.1085205 0.186035,-0.1054199 0.437182,-0.4092773 v 0.920874 q -0.42478,0.2201416 -0.84956,0.2201416 -0.700732,0 -1.172022,-0.4526856 -0.471289,-0.4557861 -0.471289,-1.1317138 0,-0.6759277 0.477491,-1.1410156 0.47749,-0.4650879 1.172021,-0.4650879 0.446484,0 0.843359,0.2139404 z" />
      <path
         inkscape:connector-curvature="0"
         id="path1164"
         style="stroke-width:0.264583"
         d="M 28.088207,3.7621415 V 6.1309891 H 27.390575 V 3.7621415 H 27.092919 V 3.1110184 h 0.297656 V 2.0041093 h 0.697632 v 1.1069091 h 0.542603 v 0.6511231 z" />
      <path
         inkscape:connector-curvature="0"
         id="path1166"
         style="stroke-width:0.264583"
         d="M 29.802831,3.1110184 V 6.1309891 H 29.105199 V 3.1110184 Z M 28.999779,1.8552811 q 0,-0.1829345 0.133326,-0.3162597 0.133325,-0.1333252 0.31936,-0.1333252 0.189136,0 0.322461,0.1333252 0.133325,0.1302246 0.133325,0.3193603 0,0.1891358 -0.133325,0.3224609 -0.130225,0.1333252 -0.319361,0.1333252 -0.189135,0 -0.32246,-0.1333252 -0.133326,-0.1333251 -0.133326,-0.3255615 z" />
      <path
         inkscape:connector-curvature="0"
         id="path1168"
         style="stroke-width:0.264583"
         d="M 33.179371,2.3141678 H 32.481739 V 2.0320145 q 0,-0.2294433 -0.148828,-0.4030761 -0.15813,-0.1767334 -0.387574,-0.1767334 -0.226342,0 -0.381372,0.1736328 -0.151928,0.1705322 -0.151928,0.4061767 v 1.0790039 h 0.799951 V 3.7621415 H 31.412037 V 6.1309891 H 30.714405 V 3.7621415 H 30.466358 V 3.1110184 h 0.248047 V 2.0320145 q 0,-0.5084961 0.359668,-0.868164 0.362768,-0.36276857 0.874365,-0.36276857 0.508496,0 0.868164,0.36276857 0.362769,0.3596679 0.362769,0.868164 z m 0,3.8168213 H 32.481739 V 3.1110184 h 0.697632 z" />
      <path
         inkscape:connector-curvature="0"
         id="path1170"
         style="stroke-width:0.264583"
         d="m 36.816356,4.7853348 h -2.164209 q 0.02791,0.3720703 0.241846,0.5922119 0.213941,0.217041 0.548804,0.217041 0.260449,0 0.430981,-0.1240234 0.167432,-0.1240235 0.381372,-0.4588867 l 0.589112,0.3286621 q -0.136426,0.2325439 -0.288355,0.3999756 -0.151929,0.164331 -0.325561,0.2728515 -0.173633,0.1054199 -0.375171,0.1550293 -0.201538,0.049609 -0.437183,0.049609 -0.675928,0 -1.085205,-0.434082 -0.409277,-0.4371827 -0.409277,-1.1596192 0,-0.7162353 0.396875,-1.1596191 0.399975,-0.4371826 1.0604,-0.4371826 0.666626,0 1.054199,0.4247803 0.384473,0.4216796 0.384473,1.1689208 z M 36.100121,4.214827 q -0.145727,-0.5581055 -0.703833,-0.5581055 -0.127124,0 -0.238745,0.040308 -0.111621,0.037207 -0.204639,0.111621 -0.08992,0.071313 -0.155029,0.1736329 -0.06511,0.1023193 -0.09922,0.2325439 z" />
      <path
         inkscape:connector-curvature="0"
         id="path1172"
         style="stroke-width:0.264583"
         d="m 37.576002,3.1110184 h 0.697631 v 0.269751 q 0.192237,-0.2015381 0.341065,-0.2759522 0.151929,-0.077515 0.359668,-0.077515 0.275952,0 0.576709,0.179834 l -0.319361,0.6387207 q -0.198437,-0.142627 -0.387573,-0.142627 -0.570508,0 -0.570508,0.8619629 v 1.5657959 h -0.697631 z" />
    </g>
    <g
       style="font-size:3.52777px;line-height:1.25;font-family:Futura;-inkscape-font-specification:Futura;stroke-width:0.264583"
       id="text1177"
       aria-label="+">
      <path
         inkscape:connector-curvature="0"
         id="path1279"
         style="stroke-width:0.264583"
         d="m 21.572328,18.78881 v -0.320393 h 0.75792 v -0.744139 h 0.31867 v 0.744139 h 0.75792 v 0.320393 h -0.75792 v 0.744139 h -0.31867 V 18.78881 Z" />
    </g>
    <g
       style="font-size:3.52777px;line-height:1.25;font-family:Futura;-inkscape-font-specification:Futura;stroke-width:0.264583"
       id="text1181"
       aria-label="-">
      <path
         inkscape:connector-curvature="0"
         id="path1282"
         style="stroke-width:0.264583"
         d="m 39.303371,18.459803 h 0.768255 v 0.337619 h -0.768255 z" />
    </g>
    <g
       style="font-size:3.52777px;line-height:1.25;font-family:Futura;-inkscape-font-specification:Futura;display:inline;opacity:1;stroke-width:0.264583"
       id="text1177-8"
       aria-label="+">
      <path
         inkscape:connector-curvature="0"
         id="path1285"
         style="stroke-width:0.264583"
         d="m 21.572328,33.340894 v -0.320393 h 0.75792 v -0.744139 h 0.31867 v 0.744139 h 0.75792 v 0.320393 h -0.75792 v 0.744139 h -0.31867 v -0.744139 z" />
    </g>
    <g
       style="font-size:3.52777px;line-height:1.25;font-family:Futura;-inkscape-font-specification:Futura;display:inline;opacity:1;stroke-width:0.264583"
       id="text1181-7"
       aria-label="-">
      <path
         inkscape:connector-curvature="0"
         id="path1288"
         style="stroke-width:0.264583"
         d="m 39.303371,33.011887 h 0.768255 v 0.337619 h -0.768255 z" />
    </g>
    <g
       style="font-size:3.52777px;line-height:1.25;font-family:Futura;-inkscape-font-specification:Futura;display:inline;opacity:1;stroke-width:0.264583"
       id="text1177-4"
       aria-label="+">
      <path
         inkscape:connector-curvature="0"
         id="path1291"
         style="stroke-width:0.264583"
         d="m 21.572328,47.892976 v -0.320393 h 0.75792 v -0.744139 h 0.31867 v 0.744139 h 0.75792 v 0.320393 h -0.75792 v 0.744139 h -0.31867 v -0.744139 z" />
    </g>
    <g
       style="font-size:3.52777px;line-height:1.25;font-family:Futura;-inkscape-font-specification:Futura;display:inline;opacity:1;stroke-width:0.264583"
       id="text1181-1"
       aria-label="-">
      <path
         inkscape:connector-curvature="0"
         id="path1294"
         style="stroke-width:0.264583"
         d="m 39.303371,47.563969 h 0.768255 v 0.337619 h -0.768255 z" />
    </g>
    <g
       style="font-size:3.52777px;line-height:1.25;font-family:Futura;-inkscape-font-specification:Futura;display:inline;opacity:1;stroke-width:0.264583"
       id="text1177-5"
       aria-label="+">
      <path
         inkscape:connector-curvature="0"
         id="path1297"
         style="stroke-width:0.264583"
         d="m 21.572328,62.445058 v -0.320393 h 0.75792 v -0.744139 h 0.31867 v 0.744139 h 0.75792 v 0.320393 h -0.75792 v 0.744139 h -0.31867 v -0.744139 z" />
    </g>
    <g
       style="font-size:3.52777px;line-height:1.25;font-family:Futura;-inkscape-font-specification:Futura;display:inline;opacity:1;stroke-width:0.264583"
       id="text1181-8"
       aria-label="-">
      <path
         inkscape:connector-curvature="0"
         id="path1300"
         style="stroke-width:0.264583"
         d="m 39.303371,62.116055 h 0.768255 v 0.337619 h -0.768255 z" />
    </g>
    <g
       style="font-size:3.52777px;line-height:1.25;font-family:Futura;-inkscape-font-specification:Futura;display:inline;opacity:1;stroke-width:0.264583"
       id="text1177-9"
       aria-label="+">
      <path
         inkscape:connector-curvature="0"
         id="path1303"
         style="stroke-width:0.264583"
         d="m 21.572328,76.997148 v -0.320394 h 0.75792 v -0.744139 h 0.31867 v 0.744139 h 0.75792 v 0.320394 h -0.75792 v 0.744139 h -0.31867 v -0.744139 z" />
    </g>
    <g
       style="font-size:3.52777px;line-height:1.25;font-family:Futura;-inkscape-font-specification:Futura;display:inline;opacity:1;stroke-width:0.264583"
       id="text1181-2"
       aria-label="-">
      <path
         inkscape:connector-curvature="0"
         id="path1306"
         style="stroke-width:0.264583"
         d="m 39.303371,76.668137 h 0.768255 v 0.337619 h -0.768255 z" />
    </g>
    <g
       style="font-size:3.52777px;line-height:1.25;font-family:Futura;-inkscape-font-specification:Futura;display:inline;opacity:1;stroke-width:0.264583"
       id="text1177-7"
       aria-label="+">
      <path
         inkscape:connector-curvature="0"
         id="path1309"
         style="stroke-width:0.264583"
         d="M 21.572328,91.549233 V 91.22884 h 0.75792 v -0.744139 h 0.31867 v 0.744139 h 0.75792 v 0.320393 h -0.75792 v 0.744139 h -0.31867 v -0.744139 z" />
    </g>
    <g
       style="font-size:3.52777px;line-height:1.25;font-family:Futura;-inkscape-font-specification:Futura;display:inline;opacity:1;stroke-width:0.264583"
       id="text1181-85"
       aria-label="-">
      <path
         inkscape:connector-curvature="0"
         id="path1312"
         style="stroke-width:0.264583"
         d="m 39.303371,91.220223 h 0.768255 v 0.337619 h -0.768255 z" />
    </g>
    <g
       style="font-size:3.52777px;line-height:1.25;font-family:Futura;-inkscape-font-specification:Futura;display:inline;opacity:1;stroke-width:0.264583"
       id="text1177-3"
       aria-label="+">
      <path
         inkscape:connector-curvature="0"
         id="path1315"
         style="stroke-width:0.264583"
         d="m 21.572328,106.10131 v -0.32039 h 0.75792 v -0.74414 h 0.31867 v 0.74414 h 0.75792 v 0.32039 h -0.75792 v 0.74414 h -0.31867 v -0.74414 z" />
    </g>
    <g
       style="font-size:3.52777px;line-height:1.25;font-family:Futura;-inkscape-font-specification:Futura;display:inline;opacity:1;stroke-width:0.264583"
       id="text1181-6"
       aria-label="-">
      <path
         inkscape:connector-curvature="0"
         id="path1318"
         style="stroke-width:0.264583"
         d="m 39.303371,105.77231 h 0.768255 v 0.33762 h -0.768255 z" />
    </g>
    <g
       style="font-size:3.52777px;line-height:1.25;font-family:Futura;-inkscape-font-specification:Futura;display:inline;opacity:1;stroke-width:0.264583"
       id="text1177-52"
       aria-label="+">
      <path
         inkscape:connector-curvature="0"
         id="path1321"
         style="stroke-width:0.264583"
         d="m 21.572328,120.6534 v -0.3204 h 0.75792 v -0.74413 h 0.31867 v 0.74413 h 0.75792 v 0.3204 h -0.75792 v 0.74414 h -0.31867 v -0.74414 z" />
    </g>
    <g
       style="font-size:3.52777px;line-height:1.25;font-family:Futura;-inkscape-font-specification:Futura;display:inline;opacity:1;stroke-width:0.264583"
       id="text1181-71"
       aria-label="-">
      <path
         inkscape:connector-curvature="0"
         id="path1324"
         style="stroke-width:0.264583"
         d="m 39.303371,120.32439 h 0.768255 v 0.33762 h -0.768255 z" />
    </g>
  </g>
  <g
     sodipodi:insensitive="true"
     inkscape:groupmode="layer"
     id="layer2"
     inkscape:label="components"
     style="display:none">
    <circle
       inkscape:label="signal1"
       r="2.6458333"
       cy="12.01403"
       cx="7.9375005"
       id="path15-4"
       style="display:inline;fill:#f2f2f2;stroke:#00ff00;stroke-width:0.264583;stroke-opacity:1" />
    <circle
       inkscape:label="signal2"
       r="2.6458333"
       cy="26.566099"
       cx="7.9375005"
       id="path17-0"
       style="display:inline;fill:#f2f2f2;stroke:#00ff00;stroke-width:0.264583;stroke-opacity:1" />
    <circle
       inkscape:label="signal3"
       r="2.6458333"
       cy="41.118183"
       cx="7.9375005"
       id="path34-0"
       style="display:inline;fill:#f2f2f2;stroke:#00ff00;stroke-width:0.264583;stroke-opacity:1" />
    <circle
       style="display:inline;fill:#f2f2f2;stroke:#00ff00;stroke-width:0.264583;stroke-opacity:1"
       id="path15-0-9"
       cx="7.9375005"
       cy="55.778065"
       r="2.6458333"
       inkscape:label="signal4" />
    <circle
       style="display:inline;fill:#f2f2f2;stroke:#00ff00;stroke-width:0.264583;stroke-opacity:1"
       id="path17-5-37"
       cx="7.9375005"
       cy="70.222359"
       r="2.6458333"
       inkscape:label="signal5" />
    <circle
       style="display:inline;fill:#f2f2f2;stroke:#00ff00;stroke-width:0.264583;stroke-opacity:1"
       id="path34-6-5"
       cx="7.9375005"
       cy="84.774437"
       r="2.6458333"
       inkscape:label="signal6" />
    <circle
       inkscape:label="signal7"
       r="2.6458333"
       cy="99.326523"
       cx="7.9375005"
       id="path17-5-3-7"
       style="display:inline;fill:#f2f2f2;stroke:#00ff00;stroke-width:0.264583;stroke-opacity:1" />
    <circle
       inkscape:label="signal8"
       r="2.6458333"
       cy="113.87862"
       cx="7.9375005"
       id="path34-6-8-2"
       style="display:inline;fill:#f2f2f2;stroke:#00ff00;stroke-width:0.264583;stroke-opacity:1" />
    <circle
       style="display:inline;fill:#f2f2f2;stroke:#0000ff;stroke-width:0.264583;stroke-opacity:1"
       id="path15-4-6"
       cx="22.489759"
       cy="11.906266"
       r="2.6458333"
       inkscape:label="pos1" />
    <circle
       style="display:inline;fill:#f2f2f2;stroke:#0000ff;stroke-width:0.264583;stroke-opacity:1"
       id="path17-0-5"
       cx="22.489759"
       cy="26.458336"
       r="2.6458333"
       inkscape:label="pos2" />
    <circle
       style="display:inline;fill:#f2f2f2;stroke:#0000ff;stroke-width:0.264583;stroke-opacity:1"
       id="path34-0-3"
       cx="22.489759"
       cy="41.010422"
       r="2.6458333"
       inkscape:label="pos3" />
    <circle
       inkscape:label="pos4"
       r="2.6458333"
       cy="55.670303"
       cx="22.489759"
       id="path15-0-9-0"
       style="display:inline;fill:#f2f2f2;stroke:#0000ff;stroke-width:0.264583;stroke-opacity:1" />
    <circle
       inkscape:label="pos5"
       r="2.6458333"
       cy="70.114609"
       cx="22.489759"
       id="path17-5-37-4"
       style="display:inline;fill:#f2f2f2;stroke:#0000ff;stroke-width:0.264583;stroke-opacity:1" />
    <circle
       inkscape:label="pos6"
       r="2.6458333"
       cy="84.666672"
       cx="22.489759"
       id="path34-6-5-8"
       style="display:inline;fill:#f2f2f2;stroke:#0000ff;stroke-width:0.264583;stroke-opacity:1" />
    <circle
       style="display:inline;fill:#f2f2f2;stroke:#0000ff;stroke-width:0.264583;stroke-opacity:1"
       id="path17-5-3-7-5"
       cx="22.489759"
       cy="99.218758"
       r="2.6458333"
       inkscape:label="pos7" />
    <circle
       style="display:inline;fill:#f2f2f2;stroke:#0000ff;stroke-width:0.264583;stroke-opacity:1"
       id="path34-6-8-2-5"
       cx="22.489759"
       cy="113.77086"
       r="2.6458333"
       inkscape:label="pos8" />
    <circle
       inkscape:label="neg1"
       r="2.6458333"
       cy="12.014064"
       cx="39.687851"
       id="path15-4-6-5"
       style="display:inline;fill:#f2f2f2;stroke:#0000ff;stroke-width:0.264583;stroke-opacity:1" />
    <circle
       inkscape:label="neg2"
       r="2.6458333"
       cy="26.566132"
       cx="39.687851"
       id="path17-0-5-4"
       style="display:inline;fill:#f2f2f2;stroke:#0000ff;stroke-width:0.264583;stroke-opacity:1" />
    <circle
       inkscape:label="neg3"
       r="2.6458333"
       cy="41.118225"
       cx="39.687851"
       id="path34-0-3-2"
       style="display:inline;fill:#f2f2f2;stroke:#0000ff;stroke-width:0.264583;stroke-opacity:1" />
    <circle
       style="display:inline;fill:#f2f2f2;stroke:#0000ff;stroke-width:0.264583;stroke-opacity:1"
       id="path15-0-9-0-1"
       cx="39.687851"
       cy="55.778103"
       r="2.6458333"
       inkscape:label="neg4" />
    <circle
       style="display:inline;fill:#f2f2f2;stroke:#0000ff;stroke-width:0.264583;stroke-opacity:1"
       id="path17-5-37-4-9"
       cx="39.687851"
       cy="70.222397"
       r="2.6458333"
       inkscape:label="neg5" />
    <circle
       style="display:inline;fill:#f2f2f2;stroke:#0000ff;stroke-width:0.264583;stroke-opacity:1"
       id="path34-6-5-8-2"
       cx="39.687851"
       cy="84.77446"
       r="2.6458333"
       inkscape:label="neg6" />
    <circle
       inkscape:label="neg7"
       r="2.6458333"
       cy="99.326553"
       cx="39.687851"
       id="path17-5-3-7-5-4"
       style="display:inline;fill:#f2f2f2;stroke:#0000ff;stroke-width:0.264583;stroke-opacity:1" />
    <circle
       inkscape:label="neg8"
       r="2.6458333"
       cy="113.87867"
       cx="39.687851"
       id="path34-6-8-2-5-5"
       style="display:inline;fill:#f2f2f2;stroke:#0000ff;stroke-width:0.264583;stroke-opacity:1" />
  </g>
</svg>
