<?xml version="1.0" encoding="UTF-8" standalone="no"?>
<svg
   xmlns:dc="http://purl.org/dc/elements/1.1/"
   xmlns:cc="http://creativecommons.org/ns#"
   xmlns:rdf="http://www.w3.org/1999/02/22-rdf-syntax-ns#"
   xmlns:svg="http://www.w3.org/2000/svg"
   xmlns="http://www.w3.org/2000/svg"
   xmlns:sodipodi="http://sodipodi.sourceforge.net/DTD/sodipodi-0.dtd"
   xmlns:inkscape="http://www.inkscape.org/namespaces/inkscape"
   sodipodi:docname="VCSampleAndDelay.svg"
   inkscape:version="1.0beta1 (32d4812, 2019-09-19)"
   id="svg1138"
   version="1.1"
   viewBox="0 0 71.120003 128.5"
   height="128.5mm"
   width="71.120003mm">
  <defs
     id="defs1132" />
  <sodipodi:namedview
     inkscape:window-maximized="0"
     inkscape:window-y="26"
     inkscape:window-x="1440"
     inkscape:window-height="1054"
     inkscape:window-width="1920"
     inkscape:snap-object-midpoints="true"
     showgrid="true"
     inkscape:document-rotation="0"
     inkscape:current-layer="layer2"
     inkscape:document-units="mm"
     inkscape:cy="242.83465"
     inkscape:cx="134.40001"
     inkscape:zoom="1.7954604"
     inkscape:pageshadow="2"
     inkscape:pageopacity="0.0"
     borderopacity="1.0"
     bordercolor="#666666"
     pagecolor="#ffffff"
     id="base"
     inkscape:snap-bbox="true"
     inkscape:snap-bbox-midpoints="true"
     inkscape:snap-bbox-edge-midpoints="true"
     inkscape:bbox-nodes="true"
     inkscape:bbox-paths="true">
    <inkscape:grid
       id="grid1738"
       type="xygrid" />
  </sodipodi:namedview>
  <metadata
     id="metadata1135">
    <rdf:RDF>
      <cc:Work
         rdf:about="">
        <dc:format>image/svg+xml</dc:format>
        <dc:type
           rdf:resource="http://purl.org/dc/dcmitype/StillImage" />
        <dc:title />
      </cc:Work>
    </rdf:RDF>
  </metadata>
  <g
     id="layer1"
     inkscape:groupmode="layer"
     inkscape:label="Background"
     sodipodi:insensitive="true">
    <rect
       y="0"
       x="0"
       height="128.5"
       width="71.120003"
       id="rect10"
       style="display:inline;fill:#f8f8f8;fill-opacity:1;stroke:none;stroke-width:0.187676" />
  </g>
  <g
     inkscape:label="boxes"
     id="layer3"
     inkscape:groupmode="layer"
     sodipodi:insensitive="true">
    <rect
       style="display:inline;fill:#000000;fill-opacity:0.5;stroke:none;stroke-width:0.53;stroke-miterlimit:4;stroke-dasharray:0.53, 1.06;stroke-dashoffset:0;stroke-opacity:1"
       id="rect1740-1"
       width="10.583333"
       height="10.583333"
       x="55.70005"
       y="6.5852261" />
    <rect
       style="display:inline;fill:#000000;fill-opacity:0.5;stroke:none;stroke-width:0.53;stroke-miterlimit:4;stroke-dasharray:0.53, 1.06;stroke-dashoffset:0;stroke-opacity:1"
       id="rect1740-1-5"
       width="10.583333"
       height="10.583333"
       x="55.70005"
       y="21.137299" />
    <rect
       style="display:inline;fill:#000000;fill-opacity:0.5;stroke:none;stroke-width:0.53;stroke-miterlimit:4;stroke-dasharray:0.53, 1.06;stroke-dashoffset:0;stroke-opacity:1"
       id="rect1740-1-9"
       width="10.583333"
       height="10.583333"
       x="55.70005"
       y="35.689377" />
    <rect
       style="display:inline;fill:#000000;fill-opacity:0.5;stroke:none;stroke-width:0.53;stroke-miterlimit:4;stroke-dasharray:0.53, 1.06;stroke-dashoffset:0;stroke-opacity:1"
       id="rect1740-1-7"
       width="10.583333"
       height="10.583333"
       x="55.70005"
       y="50.349258" />
    <rect
       style="display:inline;fill:#000000;fill-opacity:0.5;stroke:none;stroke-width:0.53;stroke-miterlimit:4;stroke-dasharray:0.53, 1.06;stroke-dashoffset:0;stroke-opacity:1"
       id="rect1740-1-53"
       width="10.583333"
       height="10.583333"
       x="55.70005"
       y="64.793556" />
    <rect
       style="display:inline;fill:#000000;fill-opacity:0.5;stroke:none;stroke-width:0.53;stroke-miterlimit:4;stroke-dasharray:0.53, 1.06;stroke-dashoffset:0;stroke-opacity:1"
       id="rect1740-1-90"
       width="10.583333"
       height="10.583333"
       x="55.70005"
       y="79.345634" />
    <rect
       style="display:inline;fill:#000000;fill-opacity:0.5;stroke:none;stroke-width:0.53;stroke-miterlimit:4;stroke-dasharray:0.53, 1.06;stroke-dashoffset:0;stroke-opacity:1"
       id="rect1740-1-55"
       width="10.583333"
       height="10.583333"
       x="55.70005"
       y="93.897705" />
    <rect
       style="display:inline;fill:#000000;fill-opacity:0.5;stroke:none;stroke-width:0.53;stroke-miterlimit:4;stroke-dasharray:0.53, 1.06;stroke-dashoffset:0;stroke-opacity:1"
       id="rect1740-1-6"
       width="10.583333"
       height="10.583333"
       x="55.70005"
       y="108.44978" />
  </g>
  <g
     style="display:inline"
     inkscape:label="text"
     id="layer4"
     inkscape:groupmode="layer"
     sodipodi:insensitive="true">
    <g
       transform="translate(-71.695688,-0.06042158)"
       style="font-size:6.35px;line-height:1.25;font-family:Futura;-inkscape-font-specification:Futura;display:inline;opacity:1;stroke-width:0.264583"
       id="text1717-2"
       aria-label="STALYS">
      <path
         inkscape:connector-curvature="0"
         id="path2113"
         style="stroke-width:0.264583"
         d="m 94.892412,122.92583 -0.586011,0.34727 q -0.164331,-0.28526 -0.313159,-0.37207 -0.155029,-0.0992 -0.399976,-0.0992 -0.300757,0 -0.499194,0.17053 -0.198438,0.16743 -0.198438,0.42168 0,0.35036 0.520899,0.56431 l 0.47749,0.19533 q 0.58291,0.23565 0.852661,0.57671 0.269751,0.33796 0.269751,0.83096 0,0.66042 -0.440283,1.0914 -0.443384,0.43409 -1.100708,0.43409 -0.623218,0 -1.029395,-0.36897 -0.399975,-0.36897 -0.499194,-1.0387 l 0.731738,-0.16123 q 0.04961,0.42168 0.173633,0.58291 0.223242,0.31006 0.651123,0.31006 0.337964,0 0.561206,-0.22634 0.223243,-0.22635 0.223243,-0.57361 0,-0.13953 -0.04031,-0.25425 -0.03721,-0.11782 -0.120923,-0.21394 -0.08061,-0.0992 -0.21084,-0.18294 -0.130224,-0.0868 -0.310058,-0.16433 l -0.461988,-0.19223 q -0.982885,-0.41548 -0.982885,-1.21543 0,-0.5395 0.412378,-0.90227 0.412377,-0.36587 1.026293,-0.36587 0.827857,0 1.292945,0.80615 z" />
      <path
         inkscape:connector-curvature="0"
         id="path2115"
         style="stroke-width:0.264583"
         d="M 97.307768,122.89172 V 127 h -0.722436 v -4.10828 h -1.100708 v -0.67902 h 2.920751 v 0.67902 z" />
      <path
         inkscape:connector-curvature="0"
         id="path2117"
         style="stroke-width:0.264583"
         d="M 101.60208,125.83728 H 99.552592 L 99.019291,127 h -0.778247 l 2.368846,-5.08806 2.28513,5.08806 h -0.79065 z m -0.29456,-0.67903 -0.71003,-1.62781 -0.744141,1.62781 z" />
      <path
         inkscape:connector-curvature="0"
         id="path2119"
         style="stroke-width:0.264583"
         d="m 104.21897,122.2127 v 4.10827 h 1.40767 V 127 h -2.1301 v -4.7873 z" />
      <path
         inkscape:connector-curvature="0"
         id="path2121"
         style="stroke-width:0.264583"
         d="m 106.87618,124.93191 -1.5627,-2.71921 h 0.83096 l 1.0945,1.91306 1.09761,-1.91306 h 0.83096 l -1.5689,2.71921 V 127 h -0.72243 z" />
      <path
         inkscape:connector-curvature="0"
         id="path2123"
         style="stroke-width:0.264583"
         d="m 112.2805,122.92583 -0.58601,0.34727 q -0.16433,-0.28526 -0.31316,-0.37207 -0.15503,-0.0992 -0.39998,-0.0992 -0.30075,0 -0.49919,0.17053 -0.19844,0.16743 -0.19844,0.42168 0,0.35036 0.5209,0.56431 l 0.47749,0.19533 q 0.58291,0.23565 0.85266,0.57671 0.26975,0.33796 0.26975,0.83096 0,0.66042 -0.44028,1.0914 -0.44339,0.43409 -1.10071,0.43409 -0.62322,0 -1.02939,-0.36897 -0.39998,-0.36897 -0.4992,-1.0387 l 0.73174,-0.16123 q 0.0496,0.42168 0.17363,0.58291 0.22324,0.31006 0.65113,0.31006 0.33796,0 0.5612,-0.22634 0.22324,-0.22635 0.22324,-0.57361 0,-0.13953 -0.0403,-0.25425 -0.0372,-0.11782 -0.12093,-0.21394 -0.0806,-0.0992 -0.21084,-0.18294 -0.13022,-0.0868 -0.31006,-0.16433 l -0.46198,-0.19223 q -0.98289,-0.41548 -0.98289,-1.21543 0,-0.5395 0.41238,-0.90227 0.41238,-0.36587 1.02629,-0.36587 0.82786,0 1.29295,0.80615 z" />
    </g>
    <text
       id="text1987"
       y="19.84375"
       x="7.9375"
       style="font-size:6.35px;line-height:1.25;font-family:Futura;-inkscape-font-specification:Futura;stroke-width:0.264583"
       xml:space="preserve"><tspan
         style="stroke-width:0.264583"
         y="19.84375"
         x="7.9375"
         id="tspan1985"
         sodipodi:role="line" /></text>
    <g
       aria-label="Steps"
       id="text1232"
       style="font-size:3.52777px;line-height:1.25;font-family:Futura;-inkscape-font-specification:Futura;display:inline;stroke-width:0.264583">
      <path
         d="m 12.020805,17.538385 -0.325561,0.192925 q -0.09129,-0.158474 -0.173976,-0.206706 -0.08613,-0.05512 -0.222209,-0.05512 -0.167086,0 -0.277329,0.09474 -0.110243,0.09302 -0.110243,0.234266 0,0.194647 0.289387,0.313503 l 0.265272,0.10852 q 0.323838,0.130913 0.4737,0.320393 0.149861,0.187758 0.149861,0.461642 0,0.366902 -0.244601,0.606335 -0.246324,0.241157 -0.611503,0.241157 -0.346232,0 -0.571885,-0.204983 -0.222208,-0.204983 -0.277329,-0.577052 l 0.40652,-0.08957 q 0.02756,0.234266 0.09646,0.323839 0.124024,0.172254 0.361735,0.172254 0.187757,0 0.31178,-0.125746 0.124023,-0.125745 0.124023,-0.31867 0,-0.07751 -0.02239,-0.141249 -0.02067,-0.06546 -0.06718,-0.118855 -0.04479,-0.05512 -0.117133,-0.101631 -0.07235,-0.04823 -0.172254,-0.09129 l -0.25666,-0.106798 q -0.546046,-0.230821 -0.546046,-0.675237 0,-0.299723 0.229098,-0.501261 0.229099,-0.20326 0.570162,-0.20326 0.45992,0 0.718301,0.447862 z"
         style="stroke-width:0.264583"
         id="path1468"
         inkscape:connector-curvature="0" />
      <path
         d="m 12.968205,18.485784 v 1.316023 H 12.580632 V 18.485784 H 12.415268 V 18.12405 h 0.165364 v -0.614949 h 0.387573 v 0.614949 h 0.301445 v 0.361734 z"
         style="stroke-width:0.264583"
         id="path1470"
         inkscape:connector-curvature="0" />
      <path
         d="m 15.095547,19.054223 h -1.202336 q 0.0155,0.206706 0.134358,0.329006 0.118856,0.120578 0.304891,0.120578 0.144693,0 0.239433,-0.0689 0.09302,-0.0689 0.211873,-0.254937 l 0.327283,0.18259 q -0.07579,0.12919 -0.160196,0.222208 -0.08441,0.0913 -0.180867,0.151584 -0.09646,0.05857 -0.208428,0.08613 -0.111965,0.02756 -0.242879,0.02756 -0.375514,0 -0.60289,-0.241157 -0.227376,-0.242878 -0.227376,-0.644231 0,-0.397908 0.220486,-0.644231 0.222208,-0.242879 0.58911,-0.242879 0.370347,0 0.585665,0.235988 0.213595,0.234266 0.213595,0.649399 z m -0.397908,-0.316948 q -0.08096,-0.310058 -0.391018,-0.310058 -0.07062,0 -0.132635,0.02239 -0.06201,0.02067 -0.113688,0.06201 -0.04995,0.03962 -0.08613,0.09646 -0.03617,0.05684 -0.05512,0.129191 z"
         style="stroke-width:0.264583"
         id="path1472"
         inkscape:connector-curvature="0" />
      <path
         d="M 15.908587,20.714756 H 15.521015 V 18.12405 h 0.387572 v 0.182589 q 0.229098,-0.229098 0.520208,-0.229098 0.346232,0 0.570162,0.254936 0.227376,0.253214 0.227376,0.639064 0,0.377237 -0.225653,0.628729 -0.223931,0.249769 -0.564994,0.249769 -0.294555,0 -0.527099,-0.235989 z m 0.921561,-1.741492 q 0,-0.241156 -0.130913,-0.39274 -0.132636,-0.153307 -0.334174,-0.153307 -0.213595,0 -0.346231,0.148139 -0.132636,0.148139 -0.132636,0.389295 0,0.235989 0.132636,0.389295 0.130913,0.149861 0.344509,0.149861 0.201537,0 0.332451,-0.151584 0.134358,-0.151583 0.134358,-0.378959 z"
         style="stroke-width:0.264583"
         id="path1474"
         inkscape:connector-curvature="0" />
      <path
         d="m 18.611259,18.409992 -0.320394,0.170532 q -0.07579,-0.155029 -0.187757,-0.155029 -0.0534,0 -0.09129,0.03617 -0.0379,0.03445 -0.0379,0.08957 0,0.09646 0.223931,0.191203 0.308335,0.132636 0.415133,0.244601 0.106798,0.111965 0.106798,0.301445 0,0.242879 -0.179145,0.406521 -0.173977,0.155029 -0.4203,0.155029 -0.422024,0 -0.597723,-0.411688 l 0.330728,-0.153307 q 0.0689,0.120578 0.105075,0.153307 0.07062,0.06546 0.16881,0.06546 0.19637,0 0.19637,-0.179144 0,-0.103353 -0.151584,-0.192925 -0.05857,-0.02928 -0.117133,-0.05684 -0.05857,-0.02756 -0.118856,-0.05684 -0.168809,-0.08268 -0.237711,-0.165364 -0.08785,-0.105076 -0.08785,-0.27044 0,-0.218763 0.149862,-0.361734 0.153306,-0.142971 0.372069,-0.142971 0.322116,0 0.478868,0.332451 z"
         style="stroke-width:0.264583"
         id="path1476"
         inkscape:connector-curvature="0" />
    </g>
    <g
       aria-label="Steps"
       id="text1232-2"
       style="font-size:3.52777px;line-height:1.25;font-family:Futura;-inkscape-font-specification:Futura;display:inline;stroke-width:0.264583">
      <path
         d="m 12.020803,32.246347 -0.32556,0.192925 q -0.09129,-0.158474 -0.173977,-0.206706 -0.08613,-0.05512 -0.222209,-0.05512 -0.167086,0 -0.277329,0.09474 -0.110243,0.09302 -0.110243,0.234266 0,0.194647 0.289387,0.313503 l 0.265272,0.10852 q 0.323838,0.130913 0.4737,0.320393 0.149861,0.187758 0.149861,0.461642 0,0.366902 -0.244601,0.606336 -0.246324,0.241156 -0.611503,0.241156 -0.346232,0 -0.571885,-0.204983 -0.222208,-0.204983 -0.277329,-0.577052 l 0.40652,-0.08957 q 0.02756,0.234266 0.09646,0.323839 0.124024,0.172254 0.361735,0.172254 0.187757,0 0.31178,-0.125746 0.124023,-0.125745 0.124023,-0.31867 0,-0.07751 -0.02239,-0.141249 -0.02067,-0.06546 -0.06718,-0.118855 -0.04479,-0.05512 -0.117133,-0.10163 -0.07235,-0.04823 -0.172254,-0.0913 l -0.256659,-0.106798 q -0.546047,-0.230821 -0.546047,-0.675237 0,-0.299723 0.229098,-0.501261 0.229099,-0.20326 0.570163,-0.20326 0.459919,0 0.7183,0.447862 z"
         style="stroke-width:0.264583"
         id="path1479"
         inkscape:connector-curvature="0" />
      <path
         d="m 12.968203,33.193746 v 1.316023 H 12.58063 v -1.316023 h -0.165364 v -0.361734 h 0.165364 v -0.614949 h 0.387573 v 0.614949 h 0.301445 v 0.361734 z"
         style="stroke-width:0.264583"
         id="path1481"
         inkscape:connector-curvature="0" />
      <path
         d="m 15.095545,33.762185 h -1.202336 q 0.0155,0.206706 0.134358,0.329006 0.118856,0.120578 0.304891,0.120578 0.144693,0 0.239433,-0.0689 0.09302,-0.0689 0.211873,-0.254937 l 0.327284,0.18259 q -0.07579,0.129191 -0.160197,0.222208 -0.08441,0.09129 -0.180867,0.151584 -0.09646,0.05857 -0.208428,0.08613 -0.111965,0.02756 -0.242879,0.02756 -0.375514,0 -0.60289,-0.241156 -0.227376,-0.242879 -0.227376,-0.644232 0,-0.397908 0.220486,-0.644231 0.222208,-0.242879 0.58911,-0.242879 0.370347,0 0.585665,0.235988 0.213595,0.234266 0.213595,0.6494 z m -0.397908,-0.316948 q -0.08096,-0.310058 -0.391017,-0.310058 -0.07062,0 -0.132636,0.02239 -0.06201,0.02067 -0.113688,0.06201 -0.04995,0.03962 -0.08613,0.09646 -0.03617,0.05684 -0.05512,0.129191 z"
         style="stroke-width:0.264583"
         id="path1483"
         inkscape:connector-curvature="0" />
      <path
         d="m 15.908585,35.422718 h -0.387572 v -2.590706 h 0.387572 v 0.182589 q 0.229099,-0.229098 0.520208,-0.229098 0.346232,0 0.570162,0.254936 0.227376,0.253214 0.227376,0.639064 0,0.377237 -0.225653,0.628729 -0.223931,0.249769 -0.564994,0.249769 -0.294555,0 -0.527099,-0.235989 z m 0.921561,-1.741492 q 0,-0.241156 -0.130913,-0.39274 -0.132636,-0.153307 -0.334174,-0.153307 -0.213595,0 -0.346231,0.148139 -0.132636,0.148139 -0.132636,0.389295 0,0.235989 0.132636,0.389295 0.130913,0.149861 0.344509,0.149861 0.201537,0 0.332451,-0.151584 0.134358,-0.151583 0.134358,-0.378959 z"
         style="stroke-width:0.264583"
         id="path1485"
         inkscape:connector-curvature="0" />
      <path
         d="m 18.611257,33.117954 -0.320394,0.170532 q -0.07579,-0.155029 -0.187757,-0.155029 -0.0534,0 -0.09129,0.03617 -0.0379,0.03445 -0.0379,0.08957 0,0.09646 0.223931,0.191202 0.308335,0.132636 0.415133,0.244601 0.106798,0.111966 0.106798,0.301445 0,0.242879 -0.179145,0.406521 -0.173977,0.155029 -0.4203,0.155029 -0.422024,0 -0.597723,-0.411688 L 17.853338,33.993 q 0.0689,0.120578 0.105075,0.153307 0.07062,0.06546 0.16881,0.06546 0.19637,0 0.19637,-0.179144 0,-0.103353 -0.151584,-0.192925 -0.05857,-0.02928 -0.117133,-0.05684 -0.05857,-0.02756 -0.118856,-0.05684 -0.168809,-0.08268 -0.237711,-0.165364 -0.08785,-0.105075 -0.08785,-0.27044 0,-0.218763 0.149861,-0.361734 0.153306,-0.142971 0.372069,-0.142971 0.322116,0 0.478868,0.332451 z"
         style="stroke-width:0.264583"
         id="path1487"
         inkscape:connector-curvature="0" />
    </g>
    <g
       aria-label="Steps"
       id="text1232-7"
       style="font-size:3.52777px;line-height:1.25;font-family:Futura;-inkscape-font-specification:Futura;display:inline;stroke-width:0.264583">
      <path
         d="m 12.020803,46.642545 -0.32556,0.192925 q -0.09129,-0.158474 -0.173977,-0.206705 -0.08613,-0.05512 -0.222209,-0.05512 -0.167086,0 -0.277329,0.09474 -0.110243,0.09302 -0.110243,0.234266 0,0.194648 0.289387,0.313503 l 0.265272,0.10852 q 0.323838,0.130914 0.4737,0.320394 0.149861,0.187757 0.149861,0.461641 0,0.366902 -0.244601,0.606336 -0.246324,0.241156 -0.611503,0.241156 -0.346232,0 -0.571885,-0.204983 -0.222208,-0.204983 -0.277329,-0.577052 l 0.40652,-0.08957 q 0.02756,0.234266 0.09646,0.323838 0.124024,0.172254 0.361735,0.172254 0.187757,0 0.31178,-0.125745 0.124023,-0.125746 0.124023,-0.318671 0,-0.07751 -0.02239,-0.141249 -0.02067,-0.06546 -0.06718,-0.118855 -0.04479,-0.05512 -0.117133,-0.10163 -0.07235,-0.04823 -0.172254,-0.0913 L 11.049289,47.57444 q -0.546047,-0.230821 -0.546047,-0.675237 0,-0.299723 0.229098,-0.50126 0.229099,-0.20326 0.570163,-0.20326 0.459919,0 0.7183,0.447862 z"
         style="stroke-width:0.264583"
         id="path1490"
         inkscape:connector-curvature="0" />
      <path
         d="m 12.968203,47.589944 v 1.316024 H 12.58063 V 47.589944 H 12.415266 V 47.22821 h 0.165364 v -0.614948 h 0.387573 v 0.614948 h 0.301445 v 0.361734 z"
         style="stroke-width:0.264583"
         id="path1492"
         inkscape:connector-curvature="0" />
      <path
         d="m 15.095545,48.158384 h -1.202336 q 0.0155,0.206705 0.134358,0.329006 0.118856,0.120578 0.304891,0.120578 0.144693,0 0.239433,-0.0689 0.09302,-0.0689 0.211873,-0.254937 l 0.327284,0.18259 q -0.07579,0.129191 -0.160197,0.222208 -0.08441,0.0913 -0.180867,0.151584 -0.09646,0.05857 -0.208428,0.08613 -0.111965,0.02756 -0.242879,0.02756 -0.375514,0 -0.60289,-0.241156 -0.227376,-0.242879 -0.227376,-0.644232 0,-0.397907 0.220486,-0.644231 0.222208,-0.242879 0.58911,-0.242879 0.370347,0 0.585665,0.235989 0.213595,0.234266 0.213595,0.649399 z m -0.397908,-0.316948 q -0.08096,-0.310058 -0.391017,-0.310058 -0.07062,0 -0.132636,0.02239 -0.06201,0.02067 -0.113688,0.06201 -0.04995,0.03962 -0.08613,0.09646 -0.03617,0.05684 -0.05512,0.129191 z"
         style="stroke-width:0.264583"
         id="path1494"
         inkscape:connector-curvature="0" />
      <path
         d="M 15.908585,49.818916 H 15.521013 V 47.22821 h 0.387572 v 0.18259 q 0.229099,-0.229099 0.520208,-0.229099 0.346232,0 0.570162,0.254937 0.227376,0.253214 0.227376,0.639064 0,0.377237 -0.225653,0.628728 -0.223931,0.249769 -0.564994,0.249769 -0.294555,0 -0.527099,-0.235989 z m 0.921561,-1.741492 q 0,-0.241156 -0.130913,-0.39274 -0.132636,-0.153306 -0.334174,-0.153306 -0.213595,0 -0.346231,0.148138 -0.132636,0.148139 -0.132636,0.389295 0,0.235989 0.132636,0.389295 0.130913,0.149862 0.344509,0.149862 0.201537,0 0.332451,-0.151584 0.134358,-0.151584 0.134358,-0.37896 z"
         style="stroke-width:0.264583"
         id="path1496"
         inkscape:connector-curvature="0" />
      <path
         d="m 18.611257,47.514152 -0.320394,0.170532 q -0.07579,-0.155029 -0.187757,-0.155029 -0.0534,0 -0.09129,0.03617 -0.0379,0.03445 -0.0379,0.08957 0,0.09646 0.223931,0.191202 0.308335,0.132636 0.415133,0.244601 0.106798,0.111966 0.106798,0.301446 0,0.242878 -0.179145,0.40652 -0.173977,0.155029 -0.4203,0.155029 -0.422024,0 -0.597723,-0.411688 l 0.330728,-0.153306 q 0.0689,0.120578 0.105075,0.153306 0.07062,0.06546 0.16881,0.06546 0.19637,0 0.19637,-0.179145 0,-0.103353 -0.151584,-0.192925 -0.05857,-0.02928 -0.117133,-0.05684 -0.05857,-0.02756 -0.118856,-0.05684 -0.168809,-0.08268 -0.237711,-0.165364 -0.08785,-0.105075 -0.08785,-0.270439 0,-0.218763 0.149861,-0.361735 0.153306,-0.142971 0.372069,-0.142971 0.322116,0 0.478868,0.332451 z"
         style="stroke-width:0.264583"
         id="path1498"
         inkscape:connector-curvature="0" />
    </g>
    <g
       aria-label="Steps"
       id="text1232-74"
       style="font-size:3.52777px;line-height:1.25;font-family:Futura;-inkscape-font-specification:Futura;display:inline;stroke-width:0.264583">
      <path
         d="m 12.020805,61.194627 -0.325561,0.192925 q -0.09129,-0.158474 -0.173976,-0.206705 -0.08613,-0.05512 -0.222209,-0.05512 -0.167086,0 -0.277329,0.09474 -0.110243,0.09302 -0.110243,0.234266 0,0.194648 0.289387,0.313503 l 0.265272,0.10852 q 0.323838,0.130914 0.4737,0.320394 0.149861,0.187757 0.149861,0.461641 0,0.366902 -0.244601,0.606336 -0.246324,0.241156 -0.611503,0.241156 -0.346232,0 -0.571885,-0.204983 -0.222208,-0.204982 -0.277329,-0.577052 l 0.40652,-0.08957 q 0.02756,0.234266 0.09646,0.323838 0.124024,0.172254 0.361735,0.172254 0.187757,0 0.31178,-0.125745 0.124023,-0.125746 0.124023,-0.318671 0,-0.07751 -0.02239,-0.141249 -0.02067,-0.06546 -0.06718,-0.118855 -0.04479,-0.05512 -0.117133,-0.10163 -0.07235,-0.04823 -0.172254,-0.0913 l -0.25666,-0.106798 q -0.546046,-0.230821 -0.546046,-0.675237 0,-0.299723 0.229098,-0.50126 0.229099,-0.20326 0.570162,-0.20326 0.45992,0 0.718301,0.447861 z"
         style="stroke-width:0.264583"
         id="path1501"
         inkscape:connector-curvature="0" />
      <path
         d="m 12.968205,62.142026 v 1.316024 h -0.387573 v -1.316024 h -0.165364 v -0.361734 h 0.165364 v -0.614948 h 0.387573 v 0.614948 h 0.301445 v 0.361734 z"
         style="stroke-width:0.264583"
         id="path1503"
         inkscape:connector-curvature="0" />
      <path
         d="m 15.095547,62.710466 h -1.202336 q 0.0155,0.206705 0.134358,0.329006 0.118856,0.120578 0.304891,0.120578 0.144693,0 0.239433,-0.0689 0.09302,-0.0689 0.211873,-0.254937 l 0.327283,0.18259 q -0.07579,0.129191 -0.160196,0.222208 -0.08441,0.0913 -0.180867,0.151584 -0.09646,0.05857 -0.208428,0.08613 -0.111965,0.02756 -0.242879,0.02756 -0.375514,0 -0.60289,-0.241156 -0.227376,-0.242879 -0.227376,-0.644232 0,-0.397907 0.220486,-0.644231 0.222208,-0.242879 0.58911,-0.242879 0.370347,0 0.585665,0.235989 0.213595,0.234266 0.213595,0.649399 z m -0.397908,-0.316948 q -0.08096,-0.310058 -0.391018,-0.310058 -0.07062,0 -0.132635,0.02239 -0.06201,0.02067 -0.113688,0.06201 -0.04995,0.03962 -0.08613,0.09646 -0.03617,0.05684 -0.05512,0.129191 z"
         style="stroke-width:0.264583"
         id="path1505"
         inkscape:connector-curvature="0" />
      <path
         d="m 15.908587,64.370998 h -0.387572 v -2.590706 h 0.387572 v 0.18259 q 0.229098,-0.229099 0.520208,-0.229099 0.346232,0 0.570162,0.254937 0.227376,0.253214 0.227376,0.639064 0,0.377237 -0.225653,0.628728 -0.223931,0.249769 -0.564994,0.249769 -0.294555,0 -0.527099,-0.235989 z m 0.921561,-1.741492 q 0,-0.241156 -0.130913,-0.39274 -0.132636,-0.153306 -0.334174,-0.153306 -0.213595,0 -0.346231,0.148138 -0.132636,0.148139 -0.132636,0.389295 0,0.235989 0.132636,0.389295 0.130913,0.149862 0.344509,0.149862 0.201537,0 0.332451,-0.151584 0.134358,-0.151584 0.134358,-0.37896 z"
         style="stroke-width:0.264583"
         id="path1507"
         inkscape:connector-curvature="0" />
      <path
         d="m 18.611259,62.066234 -0.320394,0.170532 q -0.07579,-0.155029 -0.187757,-0.155029 -0.0534,0 -0.09129,0.03617 -0.0379,0.03445 -0.0379,0.08957 0,0.09646 0.223931,0.191202 0.308335,0.132636 0.415133,0.244601 0.106798,0.111966 0.106798,0.301446 0,0.242878 -0.179145,0.40652 -0.173977,0.155029 -0.4203,0.155029 -0.422024,0 -0.597723,-0.411688 l 0.330728,-0.153306 q 0.0689,0.120578 0.105075,0.153306 0.07062,0.06546 0.16881,0.06546 0.19637,0 0.19637,-0.179145 0,-0.103353 -0.151584,-0.192925 -0.05857,-0.02928 -0.117133,-0.05684 -0.05857,-0.02756 -0.118856,-0.05684 -0.168809,-0.08268 -0.237711,-0.165364 -0.08785,-0.105075 -0.08785,-0.270439 0,-0.218763 0.149862,-0.361735 0.153306,-0.142971 0.372069,-0.142971 0.322116,0 0.478868,0.332451 z"
         style="stroke-width:0.264583"
         id="path1509"
         inkscape:connector-curvature="0" />
    </g>
    <g
       aria-label="Steps"
       id="text1232-748"
       style="font-size:3.52777px;line-height:1.25;font-family:Futura;-inkscape-font-specification:Futura;display:inline;stroke-width:0.264583">
      <path
         d="m 12.020805,75.746709 -0.325561,0.192925 q -0.09129,-0.158474 -0.173976,-0.206705 -0.08613,-0.05512 -0.222209,-0.05512 -0.167086,0 -0.277329,0.09474 -0.110243,0.09302 -0.110243,0.234266 0,0.194648 0.289387,0.313503 l 0.265272,0.10852 q 0.323838,0.130914 0.4737,0.320394 0.149861,0.187757 0.149861,0.461641 0,0.366902 -0.244601,0.606336 -0.246324,0.241156 -0.611503,0.241156 -0.346232,0 -0.571885,-0.204983 Q 10.43951,77.6484 10.384389,77.27633 l 0.40652,-0.08957 q 0.02756,0.234266 0.09646,0.323838 0.124024,0.172254 0.361735,0.172254 0.187757,0 0.31178,-0.125745 0.124023,-0.125746 0.124023,-0.318671 0,-0.07751 -0.02239,-0.141248 -0.02067,-0.06546 -0.06718,-0.118856 -0.04479,-0.05512 -0.117133,-0.10163 -0.07235,-0.04823 -0.172254,-0.0913 l -0.25666,-0.106798 q -0.546046,-0.230821 -0.546046,-0.675237 0,-0.299723 0.229098,-0.50126 0.229099,-0.20326 0.570162,-0.20326 0.45992,0 0.718301,0.447862 z"
         style="stroke-width:0.264583"
         id="path1512"
         inkscape:connector-curvature="0" />
      <path
         d="m 12.968205,76.694108 v 1.316024 h -0.387573 v -1.316024 h -0.165364 v -0.361734 h 0.165364 v -0.614948 h 0.387573 v 0.614948 h 0.301445 v 0.361734 z"
         style="stroke-width:0.264583"
         id="path1514"
         inkscape:connector-curvature="0" />
      <path
         d="m 15.095547,77.262548 h -1.202336 q 0.0155,0.206705 0.134358,0.329006 0.118856,0.120578 0.304891,0.120578 0.144693,0 0.239433,-0.0689 0.09302,-0.0689 0.211873,-0.254937 l 0.327283,0.18259 q -0.07579,0.129191 -0.160196,0.222208 -0.08441,0.0913 -0.180867,0.151584 -0.09646,0.05857 -0.208428,0.08613 -0.111965,0.02756 -0.242879,0.02756 -0.375514,0 -0.60289,-0.241156 -0.227376,-0.242879 -0.227376,-0.644232 0,-0.397907 0.220486,-0.644231 0.222208,-0.242879 0.58911,-0.242879 0.370347,0 0.585665,0.235989 0.213595,0.234266 0.213595,0.649399 z M 14.697639,76.9456 q -0.08096,-0.310058 -0.391018,-0.310058 -0.07062,0 -0.132635,0.02239 -0.06201,0.02067 -0.113688,0.06201 -0.04995,0.03962 -0.08613,0.09646 -0.03617,0.05684 -0.05512,0.129191 z"
         style="stroke-width:0.264583"
         id="path1516"
         inkscape:connector-curvature="0" />
      <path
         d="m 15.908587,78.92308 h -0.387572 v -2.590706 h 0.387572 v 0.18259 q 0.229098,-0.229099 0.520208,-0.229099 0.346232,0 0.570162,0.254937 0.227376,0.253214 0.227376,0.639064 0,0.377237 -0.225653,0.628728 -0.223931,0.249769 -0.564994,0.249769 -0.294555,0 -0.527099,-0.235988 z m 0.921561,-1.741492 q 0,-0.241156 -0.130913,-0.39274 -0.132636,-0.153306 -0.334174,-0.153306 -0.213595,0 -0.346231,0.148139 -0.132636,0.148138 -0.132636,0.389294 0,0.235989 0.132636,0.389295 0.130913,0.149862 0.344509,0.149862 0.201537,0 0.332451,-0.151584 0.134358,-0.151584 0.134358,-0.37896 z"
         style="stroke-width:0.264583"
         id="path1518"
         inkscape:connector-curvature="0" />
      <path
         d="m 18.611259,76.618316 -0.320394,0.170532 q -0.07579,-0.155029 -0.187757,-0.155029 -0.0534,0 -0.09129,0.03617 -0.0379,0.03445 -0.0379,0.08957 0,0.09646 0.223931,0.191202 0.308335,0.132636 0.415133,0.244602 0.106798,0.111965 0.106798,0.301445 0,0.242878 -0.179145,0.40652 -0.173977,0.155029 -0.4203,0.155029 -0.422024,0 -0.597723,-0.411688 l 0.330728,-0.153306 q 0.0689,0.120578 0.105075,0.153306 0.07062,0.06546 0.16881,0.06546 0.19637,0 0.19637,-0.179145 0,-0.103352 -0.151584,-0.192925 -0.05857,-0.02928 -0.117133,-0.05684 -0.05857,-0.02756 -0.118856,-0.05684 -0.168809,-0.08268 -0.237711,-0.165364 -0.08785,-0.105075 -0.08785,-0.270439 0,-0.218763 0.149862,-0.361735 0.153306,-0.142971 0.372069,-0.142971 0.322116,0 0.478868,0.332451 z"
         style="stroke-width:0.264583"
         id="path1520"
         inkscape:connector-curvature="0" />
    </g>
    <g
       aria-label="Steps"
       id="text1232-25"
       style="font-size:3.52777px;line-height:1.25;font-family:Futura;-inkscape-font-specification:Futura;display:inline;stroke-width:0.264583">
      <path
         d="m 12.020805,90.298795 -0.325561,0.192925 q -0.09129,-0.158474 -0.173976,-0.206705 -0.08613,-0.05512 -0.222209,-0.05512 -0.167086,0 -0.277329,0.09474 -0.110243,0.09302 -0.110243,0.234266 0,0.194648 0.289387,0.313503 l 0.265272,0.10852 q 0.323838,0.130914 0.4737,0.320394 0.149861,0.187757 0.149861,0.461641 0,0.366902 -0.244601,0.606336 -0.246324,0.241156 -0.611503,0.241156 -0.346232,0 -0.571885,-0.204983 -0.222208,-0.204983 -0.277329,-0.577052 l 0.40652,-0.08957 q 0.02756,0.234266 0.09646,0.323838 0.124024,0.172254 0.361735,0.172254 0.187757,0 0.31178,-0.125745 0.124023,-0.125746 0.124023,-0.318671 0,-0.07751 -0.02239,-0.141249 -0.02067,-0.06546 -0.06718,-0.118855 -0.04479,-0.05512 -0.117133,-0.10163 -0.07235,-0.04823 -0.172254,-0.09129 L 11.04929,91.2307 q -0.546046,-0.230821 -0.546046,-0.675237 0,-0.299723 0.229098,-0.50126 0.229099,-0.20326 0.570162,-0.20326 0.45992,0 0.718301,0.447861 z"
         style="stroke-width:0.264583"
         id="path1523"
         inkscape:connector-curvature="0" />
      <path
         d="m 12.968205,91.246194 v 1.316024 H 12.580632 V 91.246194 H 12.415268 V 90.88446 h 0.165364 v -0.614948 h 0.387573 v 0.614948 h 0.301445 v 0.361734 z"
         style="stroke-width:0.264583"
         id="path1525"
         inkscape:connector-curvature="0" />
      <path
         d="m 15.095547,91.814634 h -1.202336 q 0.0155,0.206705 0.134358,0.329006 0.118856,0.120578 0.304891,0.120578 0.144693,0 0.239433,-0.0689 0.09302,-0.0689 0.211873,-0.254937 l 0.327283,0.18259 q -0.07579,0.129191 -0.160196,0.222208 -0.08441,0.09129 -0.180867,0.151584 -0.09646,0.05857 -0.208428,0.08613 -0.111965,0.02756 -0.242879,0.02756 -0.375514,0 -0.60289,-0.241156 -0.227376,-0.242879 -0.227376,-0.644232 0,-0.397907 0.220486,-0.644231 0.222208,-0.242879 0.58911,-0.242879 0.370347,0 0.585665,0.235989 0.213595,0.234266 0.213595,0.649399 z m -0.397908,-0.316948 q -0.08096,-0.310058 -0.391018,-0.310058 -0.07062,0 -0.132635,0.02239 -0.06201,0.02067 -0.113688,0.06201 -0.04995,0.03962 -0.08613,0.09646 -0.03617,0.05684 -0.05512,0.129191 z"
         style="stroke-width:0.264583"
         id="path1527"
         inkscape:connector-curvature="0" />
      <path
         d="M 15.908587,93.475166 H 15.521015 V 90.88446 h 0.387572 v 0.18259 q 0.229098,-0.229099 0.520208,-0.229099 0.346232,0 0.570162,0.254937 0.227376,0.253214 0.227376,0.639064 0,0.377237 -0.225653,0.628728 -0.223931,0.249769 -0.564994,0.249769 -0.294555,0 -0.527099,-0.235989 z m 0.921561,-1.741492 q 0,-0.241156 -0.130913,-0.39274 -0.132636,-0.153306 -0.334174,-0.153306 -0.213595,0 -0.346231,0.148138 -0.132636,0.148139 -0.132636,0.389295 0,0.235989 0.132636,0.389295 0.130913,0.149862 0.344509,0.149862 0.201537,0 0.332451,-0.151584 0.134358,-0.151584 0.134358,-0.37896 z"
         style="stroke-width:0.264583"
         id="path1529"
         inkscape:connector-curvature="0" />
      <path
         d="m 18.611259,91.170402 -0.320394,0.170532 q -0.07579,-0.155029 -0.187757,-0.155029 -0.0534,0 -0.09129,0.03617 -0.0379,0.03445 -0.0379,0.08957 0,0.09646 0.223931,0.191202 0.308335,0.132636 0.415133,0.244601 0.106798,0.111966 0.106798,0.301446 0,0.242878 -0.179145,0.40652 -0.173977,0.155029 -0.4203,0.155029 -0.422024,0 -0.597723,-0.411688 l 0.330728,-0.153306 q 0.0689,0.120578 0.105075,0.153306 0.07062,0.06546 0.16881,0.06546 0.19637,0 0.19637,-0.179145 0,-0.103353 -0.151584,-0.192925 -0.05857,-0.02928 -0.117133,-0.05684 -0.05857,-0.02756 -0.118856,-0.05684 -0.168809,-0.08268 -0.237711,-0.165364 -0.08785,-0.105075 -0.08785,-0.270439 0,-0.218763 0.149862,-0.361735 0.153306,-0.142971 0.372069,-0.142971 0.322116,0 0.478868,0.332451 z"
         style="stroke-width:0.264583"
         id="path1531"
         inkscape:connector-curvature="0" />
    </g>
    <g
       aria-label="Steps"
       id="text1232-1"
       style="font-size:3.52777px;line-height:1.25;font-family:Futura;-inkscape-font-specification:Futura;display:inline;stroke-width:0.264583">
      <path
         d="m 12.020805,104.8509 -0.325561,0.19292 q -0.09129,-0.15847 -0.173976,-0.2067 -0.08613,-0.0551 -0.222209,-0.0551 -0.167086,0 -0.277329,0.0947 -0.110243,0.093 -0.110243,0.23427 0,0.19465 0.289387,0.3135 l 0.265272,0.10852 q 0.323838,0.13092 0.4737,0.3204 0.149861,0.18775 0.149861,0.46164 0,0.3669 -0.244601,0.60633 -0.246324,0.24116 -0.611503,0.24116 -0.346232,0 -0.571885,-0.20498 -0.222208,-0.20499 -0.277329,-0.57705 l 0.40652,-0.0896 q 0.02756,0.23427 0.09646,0.32384 0.124024,0.17226 0.361735,0.17226 0.187757,0 0.31178,-0.12575 0.124023,-0.12575 0.124023,-0.31867 0,-0.0775 -0.02239,-0.14125 -0.02067,-0.0655 -0.06718,-0.11885 -0.04479,-0.0551 -0.117133,-0.10164 -0.07235,-0.0482 -0.172254,-0.0913 l -0.25666,-0.1068 q -0.546046,-0.23082 -0.546046,-0.67523 0,-0.29973 0.229098,-0.50127 0.229099,-0.20326 0.570162,-0.20326 0.45992,0 0.718301,0.44787 z"
         style="stroke-width:0.264583"
         id="path1534"
         inkscape:connector-curvature="0" />
      <path
         d="m 12.968205,105.7983 v 1.31602 h -0.387573 v -1.31602 h -0.165364 v -0.36174 h 0.165364 v -0.61495 h 0.387573 v 0.61495 h 0.301445 v 0.36174 z"
         style="stroke-width:0.264583"
         id="path1536"
         inkscape:connector-curvature="0" />
      <path
         d="m 15.095547,106.36673 h -1.202336 q 0.0155,0.20671 0.134358,0.32901 0.118856,0.12058 0.304891,0.12058 0.144693,0 0.239433,-0.0689 0.09302,-0.0689 0.211873,-0.25494 l 0.327283,0.18259 q -0.07579,0.12919 -0.160196,0.22221 -0.08441,0.0913 -0.180867,0.15158 -0.09646,0.0586 -0.208428,0.0861 -0.111965,0.0276 -0.242879,0.0276 -0.375514,0 -0.60289,-0.24116 -0.227376,-0.24287 -0.227376,-0.64423 0,-0.39791 0.220486,-0.64423 0.222208,-0.24288 0.58911,-0.24288 0.370347,0 0.585665,0.23599 0.213595,0.23427 0.213595,0.6494 z m -0.397908,-0.31694 q -0.08096,-0.31006 -0.391018,-0.31006 -0.07062,0 -0.132635,0.0224 -0.06201,0.0207 -0.113688,0.062 -0.04995,0.0396 -0.08613,0.0965 -0.03617,0.0568 -0.05512,0.12919 z"
         style="stroke-width:0.264583"
         id="path1538"
         inkscape:connector-curvature="0" />
      <path
         d="m 15.908587,108.02727 h -0.387572 v -2.59071 h 0.387572 v 0.18259 q 0.229098,-0.2291 0.520208,-0.2291 0.346232,0 0.570162,0.25494 0.227376,0.25321 0.227376,0.63906 0,0.37724 -0.225653,0.62873 -0.223931,0.24977 -0.564994,0.24977 -0.294555,0 -0.527099,-0.23599 z m 0.921561,-1.74149 q 0,-0.24116 -0.130913,-0.39274 -0.132636,-0.15331 -0.334174,-0.15331 -0.213595,0 -0.346231,0.14814 -0.132636,0.14814 -0.132636,0.38929 0,0.23599 0.132636,0.3893 0.130913,0.14986 0.344509,0.14986 0.201537,0 0.332451,-0.15159 0.134358,-0.15158 0.134358,-0.37895 z"
         style="stroke-width:0.264583"
         id="path1540"
         inkscape:connector-curvature="0" />
      <path
         d="m 18.611259,105.7225 -0.320394,0.17054 q -0.07579,-0.15503 -0.187757,-0.15503 -0.0534,0 -0.09129,0.0362 -0.0379,0.0344 -0.0379,0.0896 0,0.0965 0.223931,0.1912 0.308335,0.13264 0.415133,0.24461 0.106798,0.11196 0.106798,0.30144 0,0.24288 -0.179145,0.40652 -0.173977,0.15503 -0.4203,0.15503 -0.422024,0 -0.597723,-0.41169 l 0.330728,-0.1533 q 0.0689,0.12057 0.105075,0.1533 0.07062,0.0655 0.16881,0.0655 0.19637,0 0.19637,-0.17915 0,-0.10335 -0.151584,-0.19292 -0.05857,-0.0293 -0.117133,-0.0568 -0.05857,-0.0276 -0.118856,-0.0568 -0.168809,-0.0827 -0.237711,-0.16536 -0.08785,-0.10508 -0.08785,-0.27044 0,-0.21877 0.149862,-0.36174 0.153306,-0.14297 0.372069,-0.14297 0.322116,0 0.478868,0.33245 z"
         style="stroke-width:0.264583"
         id="path1542"
         inkscape:connector-curvature="0" />
    </g>
    <g
       aria-label="Steps"
       id="text1232-3"
       style="font-size:3.52777px;line-height:1.25;font-family:Futura;-inkscape-font-specification:Futura;display:inline;stroke-width:0.264583">
      <path
         d="m 12.020805,119.40294 -0.325561,0.19292 q -0.09129,-0.15847 -0.173976,-0.2067 -0.08613,-0.0551 -0.222209,-0.0551 -0.167086,0 -0.277329,0.0947 -0.110243,0.093 -0.110243,0.23427 0,0.19465 0.289387,0.3135 l 0.265272,0.10852 q 0.323838,0.13092 0.4737,0.3204 0.149861,0.18775 0.149861,0.46164 0,0.3669 -0.244601,0.60633 -0.246324,0.24116 -0.611503,0.24116 -0.346232,0 -0.571885,-0.20498 -0.222208,-0.20499 -0.277329,-0.57705 l 0.40652,-0.0896 q 0.02756,0.23427 0.09646,0.32384 0.124024,0.17226 0.361735,0.17226 0.187757,0 0.31178,-0.12575 0.124023,-0.12575 0.124023,-0.31867 0,-0.0775 -0.02239,-0.14125 -0.02067,-0.0655 -0.06718,-0.11885 -0.04479,-0.0551 -0.117133,-0.10163 -0.07235,-0.0482 -0.172254,-0.0913 l -0.25666,-0.1068 q -0.546046,-0.23082 -0.546046,-0.67523 0,-0.29973 0.229098,-0.50127 0.229099,-0.20326 0.570162,-0.20326 0.45992,0 0.718301,0.44787 z"
         style="stroke-width:0.264583"
         id="path1545"
         inkscape:connector-curvature="0" />
      <path
         d="m 12.968205,120.35034 v 1.31602 h -0.387573 v -1.31602 h -0.165364 v -0.36174 h 0.165364 v -0.61495 h 0.387573 v 0.61495 h 0.301445 v 0.36174 z"
         style="stroke-width:0.264583"
         id="path1547"
         inkscape:connector-curvature="0" />
      <path
         d="m 15.095547,120.91877 h -1.202336 q 0.0155,0.20671 0.134358,0.32901 0.118856,0.12058 0.304891,0.12058 0.144693,0 0.239433,-0.0689 0.09302,-0.0689 0.211873,-0.25494 l 0.327283,0.18259 q -0.07579,0.12919 -0.160196,0.22221 -0.08441,0.0913 -0.180867,0.15158 -0.09646,0.0586 -0.208428,0.0861 -0.111965,0.0276 -0.242879,0.0276 -0.375514,0 -0.60289,-0.24116 -0.227376,-0.24287 -0.227376,-0.64423 0,-0.39791 0.220486,-0.64423 0.222208,-0.24288 0.58911,-0.24288 0.370347,0 0.585665,0.23599 0.213595,0.23427 0.213595,0.6494 z m -0.397908,-0.31694 q -0.08096,-0.31006 -0.391018,-0.31006 -0.07062,0 -0.132635,0.0224 -0.06201,0.0207 -0.113688,0.062 -0.04995,0.0396 -0.08613,0.0965 -0.03617,0.0568 -0.05512,0.12919 z"
         style="stroke-width:0.264583"
         id="path1549"
         inkscape:connector-curvature="0" />
      <path
         d="m 15.908587,122.57931 h -0.387572 v -2.59071 h 0.387572 v 0.18259 q 0.229098,-0.2291 0.520208,-0.2291 0.346232,0 0.570162,0.25494 0.227376,0.25321 0.227376,0.63906 0,0.37724 -0.225653,0.62873 -0.223931,0.24977 -0.564994,0.24977 -0.294555,0 -0.527099,-0.23599 z m 0.921561,-1.74149 q 0,-0.24116 -0.130913,-0.39274 -0.132636,-0.15331 -0.334174,-0.15331 -0.213595,0 -0.346231,0.14814 -0.132636,0.14814 -0.132636,0.38929 0,0.23599 0.132636,0.3893 0.130913,0.14986 0.344509,0.14986 0.201537,0 0.332451,-0.15159 0.134358,-0.15158 0.134358,-0.37895 z"
         style="stroke-width:0.264583"
         id="path1551"
         inkscape:connector-curvature="0" />
      <path
         d="m 18.611259,120.27454 -0.320394,0.17054 q -0.07579,-0.15503 -0.187757,-0.15503 -0.0534,0 -0.09129,0.0362 -0.0379,0.0344 -0.0379,0.0896 0,0.0965 0.223931,0.1912 0.308335,0.13264 0.415133,0.24461 0.106798,0.11196 0.106798,0.30144 0,0.24288 -0.179145,0.40652 -0.173977,0.15503 -0.4203,0.15503 -0.422024,0 -0.597723,-0.41169 l 0.330728,-0.1533 q 0.0689,0.12057 0.105075,0.1533 0.07062,0.0655 0.16881,0.0655 0.19637,0 0.19637,-0.17915 0,-0.10335 -0.151584,-0.19292 -0.05857,-0.0293 -0.117133,-0.0568 -0.05857,-0.0276 -0.118856,-0.0568 -0.168809,-0.0827 -0.237711,-0.16536 -0.08785,-0.10508 -0.08785,-0.27044 0,-0.21877 0.149862,-0.36174 0.153306,-0.14297 0.372069,-0.14297 0.322116,0 0.478868,0.33245 z"
         style="stroke-width:0.264583"
         id="path1553"
         inkscape:connector-curvature="0" />
    </g>
    <g
       aria-label="Clock"
       id="text1236"
       style="font-size:3.52777px;line-height:1.25;font-family:Futura;-inkscape-font-specification:Futura;display:inline;stroke-width:0.264583">
      <path
         d="m 32.08504,17.278882 v 0.475422 q -0.347953,-0.29111 -0.720023,-0.29111 -0.409965,0 -0.69074,0.294555 -0.282497,0.292833 -0.282497,0.716579 0,0.418578 0.282497,0.706243 0.282497,0.287665 0.692463,0.287665 0.211873,0 0.360011,-0.0689 0.08268,-0.03445 0.170532,-0.09302 0.08957,-0.05857 0.187757,-0.141248 v 0.484035 q -0.344508,0.194647 -0.723468,0.194647 -0.570162,0 -0.973237,-0.397908 -0.401353,-0.401352 -0.401353,-0.968069 0,-0.508151 0.335896,-0.906058 0.413411,-0.48748 1.0697,-0.48748 0.358289,0 0.692462,0.194647 z"
         style="stroke-width:0.264583"
         id="path1556"
         inkscape:connector-curvature="0" />
      <path
         d="m 32.906694,16.886142 v 2.909377 h -0.387572 v -2.909377 z"
         style="stroke-width:0.264583"
         id="path1558"
         inkscape:connector-curvature="0" />
      <path
         d="m 33.321827,18.944582 q 0,-0.363457 0.260104,-0.618393 0.260104,-0.254937 0.633896,-0.254937 0.375515,0 0.637342,0.256659 0.258381,0.256659 0.258381,0.630452 0,0.377237 -0.260104,0.632173 -0.261827,0.253214 -0.642509,0.253214 -0.377237,0 -0.632173,-0.258381 -0.254937,-0.254937 -0.254937,-0.640787 z m 0.396185,0.0069 q 0,0.251492 0.134359,0.397908 0.137803,0.148139 0.363456,0.148139 0.227376,0 0.363457,-0.146416 0.136081,-0.146417 0.136081,-0.391018 0,-0.244601 -0.136081,-0.391017 -0.137803,-0.148139 -0.363457,-0.148139 -0.222208,0 -0.360011,0.148139 -0.137804,0.148138 -0.137804,0.382404 z"
         style="stroke-width:0.264583"
         id="path1560"
         inkscape:connector-curvature="0" />
      <path
         d="m 36.828927,18.190108 v 0.515041 q -0.132636,-0.16192 -0.237712,-0.222209 -0.103352,-0.06201 -0.242878,-0.06201 -0.218763,0 -0.363457,0.153306 -0.144694,0.153307 -0.144694,0.384128 0,0.235988 0.139526,0.387572 0.141249,0.151584 0.360012,0.151584 0.139526,0 0.246324,-0.06029 0.103352,-0.05857 0.242879,-0.227376 v 0.511595 q -0.235989,0.122301 -0.471978,0.122301 -0.389294,0 -0.651121,-0.251491 -0.261827,-0.253214 -0.261827,-0.628729 0,-0.375514 0.265272,-0.633896 0.265272,-0.258382 0.651122,-0.258382 0.248046,0 0.468532,0.118856 z"
         style="stroke-width:0.264583"
         id="path1562"
         inkscape:connector-curvature="0" />
      <path
         d="m 37.685031,16.886142 v 1.77422 l 0.546046,-0.542601 h 0.520209 l -0.728636,0.704521 0.782035,0.973237 h -0.502983 l -0.554659,-0.707966 -0.06201,0.06201 v 0.645954 H 37.297461 V 16.88614 Z"
         style="stroke-width:0.264583"
         id="path1564"
         inkscape:connector-curvature="0" />
    </g>
    <g
       aria-label="In"
       id="text1240"
       style="font-size:3.52777px;line-height:1.25;font-family:Futura;-inkscape-font-specification:Futura;display:inline;stroke-width:0.264583">
      <path
         d="M 46.820571,17.184142 V 19.84375 H 46.419218 V 17.184142 Z"
         style="stroke-width:0.264583"
         id="path1567"
         inkscape:connector-curvature="0" />
      <path
         d="m 47.385566,18.165992 h 0.389295 v 0.155029 q 0.20326,-0.201538 0.458196,-0.201538 0.292833,0 0.456474,0.184313 0.141249,0.156751 0.141249,0.511595 v 1.028359 h -0.389295 v -0.937064 q 0,-0.248046 -0.0689,-0.342786 -0.06718,-0.09646 -0.244601,-0.09646 -0.192925,0 -0.273884,0.127469 -0.07924,0.125745 -0.07924,0.439248 v 0.809596 h -0.389295 z"
         style="stroke-width:0.264583"
         id="path1569"
         inkscape:connector-curvature="0" />
    </g>
    <g
       aria-label="Clock"
       id="text1236-6"
       style="font-size:3.52777px;line-height:1.25;font-family:Futura;-inkscape-font-specification:Futura;display:inline;stroke-width:0.264583">
      <path
         d="m 32.08504,31.986854 v 0.475422 q -0.347953,-0.29111 -0.720023,-0.29111 -0.409965,0 -0.69074,0.294555 -0.282497,0.292832 -0.282497,0.716578 0,0.418578 0.282497,0.706243 0.282497,0.287665 0.692463,0.287665 0.211873,0 0.360011,-0.0689 0.08268,-0.03445 0.170532,-0.09302 0.08957,-0.05857 0.187757,-0.141249 v 0.484035 q -0.344508,0.194648 -0.723468,0.194648 -0.570162,0 -0.973237,-0.397908 -0.401353,-0.401353 -0.401353,-0.96807 0,-0.50815 0.335896,-0.906058 0.413411,-0.48748 1.0697,-0.48748 0.358289,0 0.692462,0.194648 z"
         style="stroke-width:0.264583"
         id="path1572"
         inkscape:connector-curvature="0" />
      <path
         d="M 32.906694,31.594114 V 34.50349 H 32.519122 V 31.594114 Z"
         style="stroke-width:0.264583"
         id="path1574"
         inkscape:connector-curvature="0" />
      <path
         d="m 33.321827,33.652554 q 0,-0.363457 0.260104,-0.618394 0.260104,-0.254936 0.633896,-0.254936 0.375515,0 0.637342,0.256659 0.258381,0.256659 0.258381,0.630451 0,0.377237 -0.260104,0.632174 -0.261827,0.253214 -0.642509,0.253214 -0.377237,0 -0.632173,-0.258382 -0.254937,-0.254936 -0.254937,-0.640786 z m 0.396185,0.0069 q 0,0.251491 0.134359,0.397908 0.137803,0.148138 0.363456,0.148138 0.227376,0 0.363457,-0.146416 0.136081,-0.146416 0.136081,-0.391017 0,-0.244602 -0.136081,-0.391018 -0.137803,-0.148139 -0.363457,-0.148139 -0.222208,0 -0.360011,0.148139 -0.137804,0.148139 -0.137804,0.382405 z"
         style="stroke-width:0.264583"
         id="path1576"
         inkscape:connector-curvature="0" />
      <path
         d="m 36.828927,32.898079 v 0.515041 q -0.132636,-0.161919 -0.237712,-0.222208 -0.103352,-0.06201 -0.242878,-0.06201 -0.218763,0 -0.363457,0.153307 -0.144694,0.153306 -0.144694,0.384127 0,0.235989 0.139526,0.387572 0.141249,0.151584 0.360012,0.151584 0.139526,0 0.246324,-0.06029 0.103352,-0.05857 0.242879,-0.227376 v 0.511596 q -0.235989,0.122301 -0.471978,0.122301 -0.389294,0 -0.651121,-0.251492 -0.261827,-0.253214 -0.261827,-0.628728 0,-0.375515 0.265272,-0.633896 0.265272,-0.258382 0.651122,-0.258382 0.248046,0 0.468532,0.118854 z"
         style="stroke-width:0.264583"
         id="path1578"
         inkscape:connector-curvature="0" />
      <path
         d="m 37.685031,31.594114 v 1.77422 l 0.546046,-0.542601 h 0.520209 l -0.728636,0.70452 0.782035,0.973237 h -0.502983 l -0.554659,-0.707965 -0.06201,0.06201 v 0.645954 h -0.387572 v -2.909376 z"
         style="stroke-width:0.264583"
         id="path1580"
         inkscape:connector-curvature="0" />
    </g>
    <g
       aria-label="In"
       id="text1240-7"
       style="font-size:3.52777px;line-height:1.25;font-family:Futura;-inkscape-font-specification:Futura;display:inline;stroke-width:0.264583">
      <path
         d="M 46.820571,31.892112 V 34.55172 H 46.419218 V 31.892112 Z"
         style="stroke-width:0.264583"
         id="path1583"
         inkscape:connector-curvature="0" />
      <path
         d="m 47.385566,32.873962 h 0.389295 v 0.155029 q 0.20326,-0.201538 0.458196,-0.201538 0.292833,0 0.456474,0.184312 0.141249,0.156752 0.141249,0.511596 v 1.028359 h -0.389295 v -0.937064 q 0,-0.248047 -0.0689,-0.342787 -0.06718,-0.09646 -0.244601,-0.09646 -0.192925,0 -0.273884,0.127468 -0.07924,0.125746 -0.07924,0.439249 v 0.809596 h -0.389295 z"
         style="stroke-width:0.264583"
         id="path1585"
         inkscape:connector-curvature="0" />
    </g>
    <g
       aria-label="Clock"
       id="text1236-8"
       style="font-size:3.52777px;line-height:1.25;font-family:Futura;-inkscape-font-specification:Futura;display:inline;stroke-width:0.264583">
      <path
         d="m 32.08504,46.383048 v 0.475422 q -0.347953,-0.29111 -0.720023,-0.29111 -0.409965,0 -0.69074,0.294555 -0.282497,0.292833 -0.282497,0.716579 0,0.418578 0.282497,0.706243 0.282497,0.287665 0.692463,0.287665 0.211873,0 0.360011,-0.0689 0.08268,-0.03445 0.170532,-0.09302 0.08957,-0.05857 0.187757,-0.141248 v 0.484035 q -0.344508,0.194647 -0.723468,0.194647 -0.570162,0 -0.973237,-0.397908 -0.401353,-0.401352 -0.401353,-0.968069 0,-0.508151 0.335896,-0.906058 0.413411,-0.48748 1.0697,-0.48748 0.358289,0 0.692462,0.194647 z"
         style="stroke-width:0.264583"
         id="path1588"
         inkscape:connector-curvature="0" />
      <path
         d="m 32.906694,45.990308 v 2.909377 h -0.387572 v -2.909377 z"
         style="stroke-width:0.264583"
         id="path1590"
         inkscape:connector-curvature="0" />
      <path
         d="m 33.321827,48.048748 q 0,-0.363457 0.260104,-0.618393 0.260104,-0.254937 0.633896,-0.254937 0.375515,0 0.637342,0.256659 0.258381,0.256659 0.258381,0.630452 0,0.377237 -0.260104,0.632173 -0.261827,0.253214 -0.642509,0.253214 -0.377237,0 -0.632173,-0.258381 -0.254937,-0.254937 -0.254937,-0.640787 z m 0.396185,0.0069 q 0,0.251492 0.134359,0.397908 0.137803,0.148139 0.363456,0.148139 0.227376,0 0.363457,-0.146416 0.136081,-0.146417 0.136081,-0.391018 0,-0.244601 -0.136081,-0.391017 -0.137803,-0.148139 -0.363457,-0.148139 -0.222208,0 -0.360011,0.148139 -0.137804,0.148138 -0.137804,0.382404 z"
         style="stroke-width:0.264583"
         id="path1592"
         inkscape:connector-curvature="0" />
      <path
         d="m 36.828927,47.294274 v 0.515041 q -0.132636,-0.16192 -0.237712,-0.222209 -0.103352,-0.06201 -0.242878,-0.06201 -0.218763,0 -0.363457,0.153306 -0.144694,0.153307 -0.144694,0.384128 0,0.235988 0.139526,0.387572 0.141249,0.151584 0.360012,0.151584 0.139526,0 0.246324,-0.06029 0.103352,-0.05857 0.242879,-0.227376 v 0.511596 q -0.235989,0.1223 -0.471978,0.1223 -0.389294,0 -0.651121,-0.251491 -0.261827,-0.253214 -0.261827,-0.628729 0,-0.375514 0.265272,-0.633896 0.265272,-0.258382 0.651122,-0.258382 0.248046,0 0.468532,0.118856 z"
         style="stroke-width:0.264583"
         id="path1594"
         inkscape:connector-curvature="0" />
      <path
         d="m 37.685031,45.990308 v 1.77422 l 0.546046,-0.542601 h 0.520209 l -0.728636,0.704521 0.782035,0.973237 h -0.502983 l -0.554659,-0.707966 -0.06201,0.06201 v 0.645954 h -0.387572 v -2.909377 z"
         style="stroke-width:0.264583"
         id="path1596"
         inkscape:connector-curvature="0" />
    </g>
    <g
       aria-label="In"
       id="text1240-8"
       style="font-size:3.52777px;line-height:1.25;font-family:Futura;-inkscape-font-specification:Futura;display:inline;stroke-width:0.264583">
      <path
         d="m 46.820571,46.28831 v 2.659608 H 46.419218 V 46.28831 Z"
         style="stroke-width:0.264583"
         id="path1599"
         inkscape:connector-curvature="0" />
      <path
         d="m 47.385566,47.27016 h 0.389295 v 0.155029 q 0.20326,-0.201538 0.458196,-0.201538 0.292833,0 0.456474,0.184313 0.141249,0.156751 0.141249,0.511595 v 1.028359 h -0.389295 v -0.937064 q 0,-0.248046 -0.0689,-0.342786 -0.06718,-0.09646 -0.244601,-0.09646 -0.192925,0 -0.273884,0.127469 -0.07924,0.125745 -0.07924,0.439248 v 0.809596 h -0.389295 z"
         style="stroke-width:0.264583"
         id="path1601"
         inkscape:connector-curvature="0" />
    </g>
    <g
       aria-label="Clock"
       id="text1236-9"
       style="font-size:3.52777px;line-height:1.25;font-family:Futura;-inkscape-font-specification:Futura;display:inline;stroke-width:0.264583">
      <path
         d="m 32.085042,60.935134 v 0.475422 q -0.347953,-0.29111 -0.720023,-0.29111 -0.409965,0 -0.69074,0.294555 -0.282497,0.292833 -0.282497,0.716579 0,0.418578 0.282497,0.706243 0.282497,0.287664 0.692463,0.287664 0.211872,0 0.360011,-0.0689 0.08268,-0.03445 0.170532,-0.09302 0.08957,-0.05857 0.187757,-0.141248 v 0.484035 q -0.344508,0.194647 -0.723468,0.194647 -0.570162,0 -0.973237,-0.397908 -0.401353,-0.401352 -0.401353,-0.968069 0,-0.508151 0.335896,-0.906058 0.41341,-0.48748 1.0697,-0.48748 0.358289,0 0.692462,0.194648 z"
         style="stroke-width:0.264583"
         id="path1604"
         inkscape:connector-curvature="0" />
      <path
         d="m 32.906696,60.542394 v 2.909377 h -0.387572 v -2.909377 z"
         style="stroke-width:0.264583"
         id="path1606"
         inkscape:connector-curvature="0" />
      <path
         d="m 33.321829,62.600834 q 0,-0.363457 0.260104,-0.618393 0.260104,-0.254937 0.633896,-0.254937 0.375515,0 0.637342,0.256659 0.258381,0.256659 0.258381,0.630451 0,0.377238 -0.260104,0.632174 -0.261827,0.253214 -0.642509,0.253214 -0.377237,0 -0.632173,-0.258382 -0.254937,-0.254936 -0.254937,-0.640786 z m 0.396185,0.0069 q 0,0.251492 0.134359,0.397908 0.137803,0.148139 0.363456,0.148139 0.227376,0 0.363457,-0.146417 0.136081,-0.146416 0.136081,-0.391017 0,-0.244601 -0.136081,-0.391018 -0.137803,-0.148138 -0.363457,-0.148138 -0.222208,0 -0.360011,0.148138 -0.137804,0.148139 -0.137804,0.382405 z"
         style="stroke-width:0.264583"
         id="path1608"
         inkscape:connector-curvature="0" />
      <path
         d="m 36.828928,61.84636 v 0.51504 q -0.132635,-0.161919 -0.237711,-0.222208 -0.103352,-0.06201 -0.242878,-0.06201 -0.218763,0 -0.363457,0.153306 -0.144694,0.153307 -0.144694,0.384127 0,0.235989 0.139526,0.387573 0.141249,0.151584 0.360012,0.151584 0.139526,0 0.246324,-0.06029 0.103352,-0.05857 0.242878,-0.227376 v 0.511595 q -0.235988,0.122301 -0.471977,0.122301 -0.389295,0 -0.651121,-0.251491 -0.261827,-0.253214 -0.261827,-0.628729 0,-0.375515 0.265272,-0.633896 0.265272,-0.258382 0.651121,-0.258382 0.248047,0 0.468532,0.118856 z"
         style="stroke-width:0.264583"
         id="path1610"
         inkscape:connector-curvature="0" />
      <path
         d="m 37.685033,60.542394 v 1.77422 l 0.546046,-0.542601 h 0.520209 l -0.728636,0.70452 0.782035,0.973238 h -0.502983 l -0.554659,-0.707966 -0.06201,0.06201 v 0.645954 h -0.387572 v -2.909377 z"
         style="stroke-width:0.264583"
         id="path1612"
         inkscape:connector-curvature="0" />
    </g>
    <g
       aria-label="In"
       id="text1240-5"
       style="font-size:3.52777px;line-height:1.25;font-family:Futura;-inkscape-font-specification:Futura;display:inline;stroke-width:0.264583">
      <path
         d="M 46.820571,60.840392 V 63.5 h -0.401353 v -2.659608 z"
         style="stroke-width:0.264583"
         id="path1615"
         inkscape:connector-curvature="0" />
      <path
         d="m 47.385566,61.822242 h 0.389295 v 0.155029 q 0.20326,-0.201538 0.458196,-0.201538 0.292833,0 0.456474,0.184313 0.141249,0.156751 0.141249,0.511595 V 63.5 h -0.389295 v -0.937064 q 0,-0.248046 -0.0689,-0.342786 -0.06718,-0.09646 -0.244601,-0.09646 -0.192925,0 -0.273884,0.127469 -0.07924,0.125745 -0.07924,0.439248 V 63.5 h -0.389295 z"
         style="stroke-width:0.264583"
         id="path1617"
         inkscape:connector-curvature="0" />
    </g>
    <g
       aria-label="Clock"
       id="text1236-83"
       style="font-size:3.52777px;line-height:1.25;font-family:Futura;-inkscape-font-specification:Futura;display:inline;stroke-width:0.264583">
      <path
         d="m 32.085042,75.487216 v 0.475422 q -0.347953,-0.29111 -0.720023,-0.29111 -0.409965,0 -0.69074,0.294555 -0.282497,0.292833 -0.282497,0.716579 0,0.418578 0.282497,0.706243 0.282497,0.287664 0.692463,0.287664 0.211872,0 0.360011,-0.0689 0.08268,-0.03445 0.170532,-0.09302 0.08957,-0.05857 0.187757,-0.141248 v 0.484035 q -0.344508,0.194647 -0.723468,0.194647 -0.570162,0 -0.973237,-0.397908 -0.401353,-0.401352 -0.401353,-0.968069 0,-0.508151 0.335896,-0.906058 0.41341,-0.48748 1.0697,-0.48748 0.358289,0 0.692462,0.194648 z"
         style="stroke-width:0.264583"
         id="path1620"
         inkscape:connector-curvature="0" />
      <path
         d="m 32.906696,75.094476 v 2.909377 h -0.387572 v -2.909377 z"
         style="stroke-width:0.264583"
         id="path1622"
         inkscape:connector-curvature="0" />
      <path
         d="m 33.321829,77.152916 q 0,-0.363457 0.260104,-0.618393 0.260104,-0.254937 0.633896,-0.254937 0.375515,0 0.637342,0.256659 0.258381,0.256659 0.258381,0.630451 0,0.377238 -0.260104,0.632174 -0.261827,0.253214 -0.642509,0.253214 -0.377237,0 -0.632173,-0.258382 -0.254937,-0.254936 -0.254937,-0.640786 z m 0.396185,0.0069 q 0,0.251492 0.134359,0.397908 0.137803,0.148139 0.363456,0.148139 0.227376,0 0.363457,-0.146416 0.136081,-0.146417 0.136081,-0.391018 0,-0.244601 -0.136081,-0.391017 -0.137803,-0.148139 -0.363457,-0.148139 -0.222208,0 -0.360011,0.148139 -0.137804,0.148138 -0.137804,0.382404 z"
         style="stroke-width:0.264583"
         id="path1624"
         inkscape:connector-curvature="0" />
      <path
         d="m 36.828928,76.398442 v 0.515041 q -0.132635,-0.16192 -0.237711,-0.222209 -0.103352,-0.06201 -0.242878,-0.06201 -0.218763,0 -0.363457,0.153306 -0.144694,0.153307 -0.144694,0.384127 0,0.235989 0.139526,0.387573 0.141249,0.151584 0.360012,0.151584 0.139526,0 0.246324,-0.06029 0.103352,-0.05857 0.242878,-0.227376 v 0.511595 q -0.235988,0.122301 -0.471977,0.122301 -0.389295,0 -0.651121,-0.251491 -0.261827,-0.253214 -0.261827,-0.628729 0,-0.375514 0.265272,-0.633896 0.265272,-0.258382 0.651121,-0.258382 0.248047,0 0.468532,0.118856 z"
         style="stroke-width:0.264583"
         id="path1626"
         inkscape:connector-curvature="0" />
      <path
         d="m 37.685033,75.094476 v 1.77422 l 0.546046,-0.542601 h 0.520209 l -0.728636,0.704521 0.782035,0.973237 h -0.502983 l -0.554659,-0.707966 -0.06201,0.06201 v 0.645954 h -0.387572 v -2.909377 z"
         style="stroke-width:0.264583"
         id="path1628"
         inkscape:connector-curvature="0" />
    </g>
    <g
       aria-label="In"
       id="text1240-6"
       style="font-size:3.52777px;line-height:1.25;font-family:Futura;-inkscape-font-specification:Futura;display:inline;stroke-width:0.264583">
      <path
         d="m 46.820571,75.392478 v 2.659608 h -0.401353 v -2.659608 z"
         style="stroke-width:0.264583"
         id="path1631"
         inkscape:connector-curvature="0" />
      <path
         d="m 47.385566,76.374328 h 0.389295 v 0.155029 q 0.20326,-0.201538 0.458196,-0.201538 0.292833,0 0.456474,0.184313 0.141249,0.156751 0.141249,0.511595 v 1.028359 h -0.389295 v -0.937064 q 0,-0.248046 -0.0689,-0.342786 -0.06718,-0.09646 -0.244601,-0.09646 -0.192925,0 -0.273884,0.127469 -0.07924,0.125745 -0.07924,0.439248 v 0.809596 h -0.389295 z"
         style="stroke-width:0.264583"
         id="path1633"
         inkscape:connector-curvature="0" />
    </g>
    <g
       aria-label="Clock"
       id="text1236-7"
       style="font-size:3.52777px;line-height:1.25;font-family:Futura;-inkscape-font-specification:Futura;display:inline;stroke-width:0.264583">
      <path
         d="m 32.085042,90.039302 v 0.475422 q -0.347953,-0.29111 -0.720023,-0.29111 -0.409965,0 -0.69074,0.294555 -0.282497,0.292833 -0.282497,0.716578 0,0.418579 0.282497,0.706244 0.282497,0.287664 0.692463,0.287664 0.211872,0 0.360011,-0.0689 0.08268,-0.03445 0.170532,-0.09302 0.08957,-0.05857 0.187757,-0.141248 v 0.484034 q -0.344508,0.194648 -0.723468,0.194648 -0.570162,0 -0.973237,-0.397908 -0.401353,-0.401352 -0.401353,-0.968069 0,-0.508151 0.335896,-0.906059 0.41341,-0.487479 1.0697,-0.487479 0.358289,0 0.692462,0.194648 z"
         style="stroke-width:0.264583"
         id="path1636"
         inkscape:connector-curvature="0" />
      <path
         d="m 32.906696,89.646562 v 2.909377 h -0.387572 v -2.909377 z"
         style="stroke-width:0.264583"
         id="path1638"
         inkscape:connector-curvature="0" />
      <path
         d="m 33.321829,91.705002 q 0,-0.363457 0.260104,-0.618393 0.260104,-0.254937 0.633896,-0.254937 0.375515,0 0.637342,0.256659 0.258381,0.256659 0.258381,0.630451 0,0.377237 -0.260104,0.632174 -0.261827,0.253214 -0.642509,0.253214 -0.377237,0 -0.632173,-0.258382 -0.254937,-0.254936 -0.254937,-0.640786 z m 0.396185,0.0069 q 0,0.251492 0.134359,0.397908 0.137803,0.148139 0.363456,0.148139 0.227376,0 0.363457,-0.146417 0.136081,-0.146416 0.136081,-0.391017 0,-0.244601 -0.136081,-0.391018 -0.137803,-0.148138 -0.363457,-0.148138 -0.222208,0 -0.360011,0.148138 -0.137804,0.148139 -0.137804,0.382405 z"
         style="stroke-width:0.264583"
         id="path1640"
         inkscape:connector-curvature="0" />
      <path
         d="m 36.828928,90.950528 v 0.51504 q -0.132635,-0.161919 -0.237711,-0.222208 -0.103352,-0.06201 -0.242878,-0.06201 -0.218763,0 -0.363457,0.153306 -0.144694,0.153306 -0.144694,0.384127 0,0.235989 0.139526,0.387573 0.141249,0.151584 0.360012,0.151584 0.139526,0 0.246324,-0.06029 0.103352,-0.05857 0.242878,-0.227376 v 0.511595 q -0.235988,0.122301 -0.471977,0.122301 -0.389295,0 -0.651121,-0.251491 -0.261827,-0.253214 -0.261827,-0.628729 0,-0.375515 0.265272,-0.633896 0.265272,-0.258382 0.651121,-0.258382 0.248047,0 0.468532,0.118856 z"
         style="stroke-width:0.264583"
         id="path1642"
         inkscape:connector-curvature="0" />
      <path
         d="m 37.685033,89.646562 v 1.77422 l 0.546046,-0.542601 h 0.520209 l -0.728636,0.70452 0.782035,0.973238 h -0.502983 l -0.554659,-0.707966 -0.06201,0.06201 v 0.645954 H 37.297463 V 89.64656 Z"
         style="stroke-width:0.264583"
         id="path1644"
         inkscape:connector-curvature="0" />
    </g>
    <g
       aria-label="In"
       id="text1240-2"
       style="font-size:3.52777px;line-height:1.25;font-family:Futura;-inkscape-font-specification:Futura;display:inline;stroke-width:0.264583">
      <path
         d="m 46.820571,89.944556 v 2.659608 h -0.401353 v -2.659608 z"
         style="stroke-width:0.264583"
         id="path1647"
         inkscape:connector-curvature="0" />
      <path
         d="m 47.385566,90.926406 h 0.389295 v 0.155029 q 0.20326,-0.201537 0.458196,-0.201537 0.292833,0 0.456474,0.184312 0.141249,0.156751 0.141249,0.511595 v 1.028359 H 48.441485 V 91.6671 q 0,-0.248046 -0.0689,-0.342786 -0.06718,-0.09646 -0.244601,-0.09646 -0.192925,0 -0.273884,0.127469 -0.07924,0.125745 -0.07924,0.439248 v 0.809596 h -0.389295 z"
         style="stroke-width:0.264583"
         id="path1649"
         inkscape:connector-curvature="0" />
    </g>
    <g
       aria-label="Clock"
       id="text1236-1"
       style="font-size:3.52777px;line-height:1.25;font-family:Futura;-inkscape-font-specification:Futura;display:inline;stroke-width:0.264583">
      <path
         d="m 32.085042,104.59138 v 0.47542 q -0.347953,-0.29111 -0.720023,-0.29111 -0.409965,0 -0.69074,0.29456 -0.282497,0.29283 -0.282497,0.71658 0,0.41857 0.282497,0.70624 0.282497,0.28766 0.692463,0.28766 0.211872,0 0.360011,-0.0689 0.08268,-0.0345 0.170532,-0.093 0.08957,-0.0586 0.187757,-0.14124 v 0.48403 q -0.344508,0.19465 -0.723468,0.19465 -0.570162,0 -0.973237,-0.39791 -0.401353,-0.40135 -0.401353,-0.96807 0,-0.50815 0.335896,-0.90606 0.41341,-0.48748 1.0697,-0.48748 0.358289,0 0.692462,0.19465 z"
         style="stroke-width:0.264583"
         id="path1652"
         inkscape:connector-curvature="0" />
      <path
         d="m 32.906696,104.19864 v 2.90938 h -0.387572 v -2.90938 z"
         style="stroke-width:0.264583"
         id="path1654"
         inkscape:connector-curvature="0" />
      <path
         d="m 33.321829,106.25708 q 0,-0.36346 0.260104,-0.61839 0.260104,-0.25494 0.633896,-0.25494 0.375515,0 0.637342,0.25666 0.258381,0.25666 0.258381,0.63045 0,0.37724 -0.260104,0.63217 -0.261827,0.25322 -0.642509,0.25322 -0.377237,0 -0.632173,-0.25838 -0.254937,-0.25494 -0.254937,-0.64079 z m 0.396185,0.007 q 0,0.25149 0.134359,0.39791 0.137803,0.14814 0.363456,0.14814 0.227376,0 0.363457,-0.14642 0.136081,-0.14642 0.136081,-0.39102 0,-0.2446 -0.136081,-0.39101 -0.137803,-0.14814 -0.363457,-0.14814 -0.222208,0 -0.360011,0.14814 -0.137804,0.14813 -0.137804,0.3824 z"
         style="stroke-width:0.264583"
         id="path1656"
         inkscape:connector-curvature="0" />
      <path
         d="m 36.828928,105.50261 v 0.51504 q -0.132635,-0.16192 -0.237711,-0.22221 -0.103352,-0.062 -0.242878,-0.062 -0.218763,0 -0.363457,0.1533 -0.144694,0.15331 -0.144694,0.38413 0,0.23599 0.139526,0.38757 0.141249,0.15159 0.360012,0.15159 0.139526,0 0.246324,-0.0603 0.103352,-0.0586 0.242878,-0.22738 v 0.5116 q -0.235988,0.1223 -0.471977,0.1223 -0.389295,0 -0.651121,-0.25149 -0.261827,-0.25322 -0.261827,-0.62873 0,-0.37552 0.265272,-0.6339 0.265272,-0.25838 0.651121,-0.25838 0.248047,0 0.468532,0.11886 z"
         style="stroke-width:0.264583"
         id="path1658"
         inkscape:connector-curvature="0" />
      <path
         d="m 37.685033,104.19864 v 1.77422 l 0.546046,-0.5426 h 0.520209 l -0.728636,0.70452 0.782035,0.97324 h -0.502983 l -0.554659,-0.70797 -0.06201,0.062 v 0.64596 h -0.387572 v -2.90938 z"
         style="stroke-width:0.264583"
         id="path1660"
         inkscape:connector-curvature="0" />
    </g>
    <g
       aria-label="In"
       id="text1240-76"
       style="font-size:3.52777px;line-height:1.25;font-family:Futura;-inkscape-font-specification:Futura;display:inline;stroke-width:0.264583">
      <path
         d="m 46.820571,104.49664 v 2.65961 h -0.401353 v -2.65961 z"
         style="stroke-width:0.264583"
         id="path1663"
         inkscape:connector-curvature="0" />
      <path
         d="m 47.385566,105.47849 h 0.389295 v 0.15503 q 0.20326,-0.20154 0.458196,-0.20154 0.292833,0 0.456474,0.18432 0.141249,0.15675 0.141249,0.51159 v 1.02836 h -0.389295 v -0.93706 q 0,-0.24805 -0.0689,-0.34279 -0.06718,-0.0965 -0.244601,-0.0965 -0.192925,0 -0.273884,0.12747 -0.07924,0.12574 -0.07924,0.43924 v 0.8096 h -0.389295 z"
         style="stroke-width:0.264583"
         id="path1665"
         inkscape:connector-curvature="0" />
    </g>
    <g
       aria-label="Clock"
       id="text1236-4"
       style="font-size:3.52777px;line-height:1.25;font-family:Futura;-inkscape-font-specification:Futura;display:inline;stroke-width:0.264583">
      <path
         d="m 32.085042,119.14347 v 0.47542 q -0.347953,-0.29111 -0.720023,-0.29111 -0.409965,0 -0.69074,0.29455 -0.282497,0.29284 -0.282497,0.71658 0,0.41858 0.282497,0.70624 0.282497,0.28767 0.692463,0.28767 0.211872,0 0.360011,-0.0689 0.08268,-0.0344 0.170532,-0.093 0.08957,-0.0586 0.187757,-0.14125 v 0.48404 q -0.344508,0.19464 -0.723468,0.19464 -0.570162,0 -0.973237,-0.3979 -0.401353,-0.40136 -0.401353,-0.96807 0,-0.50815 0.335896,-0.90606 0.41341,-0.48748 1.0697,-0.48748 0.358289,0 0.692462,0.19465 z"
         style="stroke-width:0.264583"
         id="path1668"
         inkscape:connector-curvature="0" />
      <path
         d="m 32.906696,118.75073 v 2.90937 h -0.387572 v -2.90937 z"
         style="stroke-width:0.264583"
         id="path1670"
         inkscape:connector-curvature="0" />
      <path
         d="m 33.321829,120.80917 q 0,-0.36346 0.260104,-0.6184 0.260104,-0.25493 0.633896,-0.25493 0.375515,0 0.637342,0.25666 0.258381,0.25665 0.258381,0.63045 0,0.37723 -0.260104,0.63217 -0.261827,0.25321 -0.642509,0.25321 -0.377237,0 -0.632173,-0.25838 -0.254937,-0.25493 -0.254937,-0.64078 z m 0.396185,0.007 q 0,0.25149 0.134359,0.3979 0.137803,0.14814 0.363456,0.14814 0.227376,0 0.363457,-0.14641 0.136081,-0.14642 0.136081,-0.39102 0,-0.2446 -0.136081,-0.39102 -0.137803,-0.14814 -0.363457,-0.14814 -0.222208,0 -0.360011,0.14814 -0.137804,0.14814 -0.137804,0.38241 z"
         style="stroke-width:0.264583"
         id="path1672"
         inkscape:connector-curvature="0" />
      <path
         d="m 36.828928,120.05469 v 0.51504 q -0.132635,-0.16192 -0.237711,-0.22221 -0.103352,-0.062 -0.242878,-0.062 -0.218763,0 -0.363457,0.15331 -0.144694,0.15331 -0.144694,0.38413 0,0.23599 0.139526,0.38757 0.141249,0.15158 0.360012,0.15158 0.139526,0 0.246324,-0.0603 0.103352,-0.0586 0.242878,-0.22737 v 0.51159 q -0.235988,0.1223 -0.471977,0.1223 -0.389295,0 -0.651121,-0.25149 -0.261827,-0.25321 -0.261827,-0.62873 0,-0.37551 0.265272,-0.63389 0.265272,-0.25838 0.651121,-0.25838 0.248047,0 0.468532,0.11885 z"
         style="stroke-width:0.264583"
         id="path1674"
         inkscape:connector-curvature="0" />
      <path
         d="m 37.685033,118.75073 v 1.77422 l 0.546046,-0.5426 h 0.520209 l -0.728636,0.70452 0.782035,0.97323 h -0.502983 l -0.554659,-0.70796 -0.06201,0.062 v 0.64595 h -0.387572 v -2.90937 z"
         style="stroke-width:0.264583"
         id="path1676"
         inkscape:connector-curvature="0" />
    </g>
    <g
       aria-label="In"
       id="text1240-64"
       style="font-size:3.52777px;line-height:1.25;font-family:Futura;-inkscape-font-specification:Futura;display:inline;stroke-width:0.264583">
      <path
         d="m 46.820571,119.04874 v 2.6596 h -0.401353 v -2.6596 z"
         style="stroke-width:0.264583"
         id="path1679"
         inkscape:connector-curvature="0" />
      <path
         d="m 47.385566,120.03059 h 0.389295 v 0.15502 q 0.20326,-0.20153 0.458196,-0.20153 0.292833,0 0.456474,0.18431 0.141249,0.15675 0.141249,0.51159 v 1.02836 h -0.389295 v -0.93706 q 0,-0.24805 -0.0689,-0.34279 -0.06718,-0.0965 -0.244601,-0.0965 -0.192925,0 -0.273884,0.12747 -0.07924,0.12574 -0.07924,0.43925 v 0.80959 h -0.389295 z"
         style="stroke-width:0.264583"
         id="path1681"
         inkscape:connector-curvature="0" />
    </g>
    <g
       aria-label="8 VC Sample&amp;Delay"
       id="text1686"
       style="font-size:6.35px;line-height:1.25;font-family:Futura;-inkscape-font-specification:Futura;stroke-width:0.264583">
      <path
         d="M 6.6640918,3.5978102 Q 6.1369922,3.2257399 6.1369922,2.5839186 q 0,-0.5829101 0.3999755,-0.9735839 0.4030762,-0.3906739 1.0014893,-0.3906739 0.5953125,0 0.9921875,0.3906739 0.396875,0.3875732 0.396875,0.9766845 0,0.6170166 -0.5239991,1.0076904 0.2883545,0.1550293 0.4526856,0.4526856 0.1674316,0.2976562 0.1674316,0.6697265 0,0.6356201 -0.4154785,1.0417969 -0.4154785,0.4061767 -1.0635009,0.4061767 -0.6635254,0 -1.0945069,-0.4092773 -0.434082,-0.4092773 -0.434082,-1.0293945 0,-0.8061524 0.6480225,-1.1286133 z M 6.8160205,2.580818 q 0,0.306958 0.2077392,0.5146973 0.2108399,0.2108398 0.5084961,0.2108398 0.2945557,0 0.5053955,-0.2108398 0.2108399,-0.2108398 0.2108399,-0.5053955 0,-0.2945557 -0.2108399,-0.5053955 -0.2108398,-0.2108398 -0.5053955,-0.2108398 -0.2945556,0 -0.5053955,0.2108398 Q 6.8160205,2.2955641 6.8160205,2.580818 Z m -0.089917,2.1208008 q 0,0.3317627 0.2294433,0.5705078 0.232544,0.2356445 0.5643067,0.2356445 0.3286621,0 0.561206,-0.2325439 0.232544,-0.2356446 0.232544,-0.5643067 0,-0.3317626 -0.232544,-0.5643066 Q 7.8485156,3.91407 7.5198535,3.91407 q -0.3255616,0 -0.5612061,0.2325439 -0.2325439,0.232544 -0.2325439,0.5550049 z"
         style="stroke-width:0.264583"
         id="path1688"
         inkscape:connector-curvature="0" />
      <path
         d="m 12.254448,1.3002761 1.32395,3.3176269 1.342554,-3.3176269 h 0.790649 L 13.562895,6.4472486 11.463799,1.3002761 Z"
         style="stroke-width:0.264583"
         id="path1690"
         inkscape:connector-curvature="0" />
      <path
         d="m 19.636943,1.5576247 v 0.8557617 q -0.626318,-0.523999 -1.296044,-0.523999 -0.73794,0 -1.243335,0.5302002 -0.508496,0.5270996 -0.508496,1.2898437 0,0.7534424 0.508496,1.2712402 0.508496,0.5177979 1.246435,0.5177979 0.381372,0 0.648023,-0.1240235 0.148828,-0.062012 0.306958,-0.1674316 0.16123,-0.1054199 0.337963,-0.2542481 v 0.8712647 q -0.620117,0.3503662 -1.302246,0.3503662 -1.026294,0 -1.751831,-0.7162354 -0.722436,-0.7224365 -0.722436,-1.7425292 0,-0.9146729 0.604614,-1.6309082 0.744141,-0.8774658 1.925464,-0.8774658 0.644922,0 1.246435,0.3503662 z"
         style="stroke-width:0.264583"
         id="path1692"
         inkscape:connector-curvature="0" />
      <path
         d="m 25.224198,2.0134108 -0.58601,0.3472656 q -0.164331,-0.2852539 -0.31316,-0.3720703 -0.155029,-0.099219 -0.399975,-0.099219 -0.300757,0 -0.499194,0.1705322 -0.198438,0.1674316 -0.198438,0.4216797 0,0.3503662 0.520899,0.5643066 l 0.47749,0.1953369 q 0.58291,0.2356446 0.852661,0.576709 0.269751,0.3379639 0.269751,0.830957 0,0.6604248 -0.440283,1.0914063 -0.443384,0.434082 -1.100708,0.434082 -0.623218,0 -1.029395,-0.3689697 -0.399975,-0.3689695 -0.499194,-1.038696 L 23.01038,4.6055006 q 0.04961,0.4216797 0.173633,0.5829102 0.223242,0.3100586 0.651123,0.3100586 0.337964,0 0.561206,-0.2263428 0.223242,-0.2263428 0.223242,-0.5736084 0,-0.1395264 -0.04031,-0.254248 -0.03721,-0.1178223 -0.12092,-0.2139405 -0.08062,-0.099219 -0.21084,-0.1829345 -0.130225,-0.086816 -0.310059,-0.1643311 L 23.475468,3.6908278 q -0.982886,-0.4154785 -0.982886,-1.2154297 0,-0.5395019 0.412378,-0.9022705 0.412378,-0.3658691 1.026294,-0.3658691 0.827857,0 1.292944,0.8061523 z"
         style="stroke-width:0.264583"
         id="path1694"
         inkscape:connector-curvature="0" />
      <path
         d="m 28.318584,3.06761 h 0.700732 V 6.0875807 H 28.318584 V 5.7713209 q -0.430982,0.4030762 -0.927075,0.4030762 -0.626319,0 -1.035596,-0.4526856 -0.406177,-0.4619873 -0.406177,-1.1534179 0,-0.6790283 0.406177,-1.1317139 0.406177,-0.4526855 1.016992,-0.4526855 0.5271,0 0.945679,0.434082 z m -1.655713,1.5006836 q 0,0.434082 0.232544,0.7069336 0.238745,0.2759521 0.601514,0.2759521 0.387573,0 0.626318,-0.2666504 0.238745,-0.2759521 0.238745,-0.7007324 0,-0.4247802 -0.238745,-0.7007324 -0.238745,-0.269751 -0.620117,-0.269751 -0.359668,0 -0.601514,0.2728516 -0.238745,0.2759521 -0.238745,0.6821289 z"
         style="stroke-width:0.264583"
         id="path1696"
         inkscape:connector-curvature="0" />
      <path
         d="m 29.899883,3.06761 h 0.697632 v 0.2790528 q 0.201538,-0.2108399 0.344165,-0.2852539 0.151929,-0.077515 0.381372,-0.077515 0.511597,0 0.809253,0.4464844 0.328662,-0.4464844 0.889868,-0.4464844 1.020093,0 1.020093,1.2371338 v 1.8665527 h -0.700732 v -1.677417 q 0,-0.434082 -0.10542,-0.613916 -0.108521,-0.1829346 -0.356568,-0.1829346 -0.288354,0 -0.421679,0.2170411 -0.130225,0.217041 -0.130225,0.6976318 v 1.559595 H 31.62691 V 4.4194655 q 0,-0.8061524 -0.465088,-0.8061524 -0.294556,0 -0.430982,0.2201416 -0.133325,0.2201416 -0.133325,0.6945313 v 1.5595947 h -0.697632 z"
         style="stroke-width:0.264583"
         id="path1698"
         inkscape:connector-curvature="0" />
      <path
         d="M 35.694878,7.7308912 H 34.997246 V 3.06761 h 0.697632 v 0.3286621 q 0.412377,-0.4123779 0.936376,-0.4123779 0.623218,0 1.026294,0.4588867 0.409278,0.4557861 0.409278,1.1503174 0,0.6790283 -0.406177,1.1317138 -0.403076,0.449585 -1.016992,0.449585 -0.5302,0 -0.948779,-0.4247803 z m 1.658813,-3.1346923 q 0,-0.4340821 -0.235645,-0.7069336 -0.238745,-0.2759522 -0.601513,-0.2759522 -0.384473,0 -0.623218,0.2666504 -0.238745,0.2666504 -0.238745,0.7007324 0,0.4247803 0.238745,0.7007324 0.235645,0.269751 0.620117,0.269751 0.362769,0 0.598413,-0.2728515 0.241846,-0.2728516 0.241846,-0.6821289 z"
         style="stroke-width:0.264583"
         id="path1700"
         inkscape:connector-curvature="0" />
      <path
         d="M 39.502397,0.85069111 V 6.0875807 H 38.804766 V 0.85069111 Z"
         style="stroke-width:0.264583"
         id="path1702"
         inkscape:connector-curvature="0" />
      <path
         d="m 43.142487,4.7419264 h -2.164209 q 0.0279,0.3720703 0.241846,0.5922119 0.21394,0.217041 0.548803,0.217041 0.260449,0 0.430982,-0.1240234 0.167431,-0.1240234 0.381372,-0.4588867 l 0.589111,0.3286621 q -0.136426,0.2325439 -0.288354,0.3999756 -0.151929,0.164331 -0.325562,0.2728515 -0.173633,0.1054199 -0.375171,0.1550293 -0.201538,0.049609 -0.437182,0.049609 -0.675928,0 -1.085205,-0.434082 -0.409278,-0.4371826 -0.409278,-1.1596192 0,-0.7162353 0.396875,-1.1596191 0.399976,-0.4371826 1.060401,-0.4371826 0.666626,0 1.054199,0.4247803 0.384472,0.4216797 0.384472,1.1689209 z M 42.426251,4.1714186 q -0.145727,-0.5581055 -0.703833,-0.5581055 -0.127124,0 -0.238745,0.040308 -0.111621,0.037207 -0.204638,0.111621 -0.08992,0.071314 -0.15503,0.1736329 -0.06511,0.1023193 -0.09922,0.2325439 z"
         style="stroke-width:0.264583"
         id="path1704"
         inkscape:connector-curvature="0" />
      <path
         d="m 45.917509,3.4241774 0.861963,1.0417969 0.02791,-0.031006 q 0.139526,-0.1519287 0.26355,-0.2976562 0.124023,-0.1457276 0.238745,-0.2945557 l 0.471289,0.4836914 q -0.08682,0.1240234 -0.229443,0.2883545 -0.139527,0.164331 -0.334864,0.3782715 l 0.886768,1.0945068 h -0.89917 l -0.47749,-0.5860108 q -0.657324,0.6790284 -1.367359,0.6790284 -0.63562,0 -1.079003,-0.4061768 -0.434082,-0.4092773 -0.434082,-1.010791 0,-0.7162353 0.68833,-1.190625 L 44.847812,3.359065 q 0.0062,-0.0031 0.0217,-0.015503 0.0155,-0.012402 0.04341,-0.034107 -0.47439,-0.5053955 -0.47439,-0.995288 0,-0.4836914 0.31626,-0.7875489 0.322461,-0.3038574 0.830957,-0.3038574 0.492993,0 0.815454,0.2945557 0.322461,0.2945556 0.322461,0.7441406 0,0.3100586 -0.176733,0.561206 -0.173633,0.2511475 -0.629419,0.6015137 z m -0.573608,0.4061768 -0.04031,0.027905 q -0.443384,0.306958 -0.604614,0.4929932 -0.15813,0.1860351 -0.15813,0.3937744 0,0.2976562 0.238745,0.5457031 0.248047,0.2387451 0.545703,0.2387451 0.418579,0 0.964282,-0.5488037 z m 0.155029,-0.9146729 0.05891,-0.043408 q 0.151929,-0.1147217 0.251147,-0.1984375 0.09922,-0.086816 0.142627,-0.1457275 0.09302,-0.1147217 0.09302,-0.2821533 0,-0.1891358 -0.127124,-0.306958 -0.127124,-0.1178223 -0.341065,-0.1178223 -0.195336,0 -0.328662,0.1209228 -0.133325,0.1147217 -0.133325,0.2945557 0,0.2108398 0.167432,0.4154785 l 0.179834,0.217041 q 0.0093,0.015503 0.03721,0.046509 z"
         style="stroke-width:0.264583"
         id="path1706"
         inkscape:connector-curvature="0" />
      <path
         d="M 48.673931,6.0875807 V 1.3002761 h 1.004589 q 0.722437,0 1.141016,0.1426269 0.449585,0.1395264 0.815454,0.4743897 0.74104,0.6759277 0.74104,1.7766357 0,1.1038086 -0.772046,1.7859374 -0.387573,0.3410645 -0.812353,0.4743897 -0.396875,0.1333252 -1.125513,0.1333252 z m 0.722436,-0.6790283 h 0.325562 q 0.486792,0 0.809253,-0.1023194 0.322461,-0.1085205 0.58291,-0.344165 0.533301,-0.486792 0.533301,-1.2681396 0,-0.7875488 -0.5271,-1.2774414 -0.47439,-0.4371826 -1.398364,-0.4371826 h -0.325562 z"
         style="stroke-width:0.264583"
         id="path1708"
         inkscape:connector-curvature="0" />
      <path
         d="m 55.904495,4.7419264 h -2.164208 q 0.0279,0.3720703 0.241845,0.5922119 0.213941,0.217041 0.548804,0.217041 0.260449,0 0.430981,-0.1240234 0.167432,-0.1240234 0.381372,-0.4588867 l 0.589112,0.3286621 q -0.136426,0.2325439 -0.288355,0.3999756 -0.151928,0.164331 -0.325561,0.2728515 -0.173633,0.1054199 -0.375171,0.1550293 -0.201538,0.049609 -0.437183,0.049609 -0.675927,0 -1.085205,-0.434082 -0.409277,-0.4371826 -0.409277,-1.1596192 0,-0.7162353 0.396875,-1.1596191 0.399975,-0.4371826 1.0604,-0.4371826 0.666626,0 1.054199,0.4247803 0.384473,0.4216797 0.384473,1.1689209 z M 55.18826,4.1714186 q -0.145727,-0.5581055 -0.703833,-0.5581055 -0.127124,0 -0.238745,0.040308 -0.111621,0.037207 -0.204639,0.111621 -0.08992,0.071314 -0.155029,0.1736329 -0.06511,0.1023193 -0.09922,0.2325439 z"
         style="stroke-width:0.264583"
         id="path1710"
         inkscape:connector-curvature="0" />
      <path
         d="M 57.361772,0.85069111 V 6.0875807 H 56.664141 V 0.85069111 Z"
         style="stroke-width:0.264583"
         id="path1712"
         inkscape:connector-curvature="0" />
      <path
         d="m 60.477859,3.06761 h 0.700732 V 6.0875807 H 60.477859 V 5.7713209 q -0.430981,0.4030762 -0.927075,0.4030762 -0.626319,0 -1.035596,-0.4526856 -0.406177,-0.4619873 -0.406177,-1.1534179 0,-0.6790283 0.406177,-1.1317139 0.406177,-0.4526855 1.016992,-0.4526855 0.5271,0 0.945679,0.434082 z m -1.655713,1.5006836 q 0,0.434082 0.232544,0.7069336 0.238745,0.2759521 0.601514,0.2759521 0.387573,0 0.626318,-0.2666504 0.238745,-0.2759521 0.238745,-0.7007324 0,-0.4247802 -0.238745,-0.7007324 -0.238745,-0.269751 -0.620117,-0.269751 -0.359668,0 -0.601514,0.2728516 -0.238745,0.2759521 -0.238745,0.6821289 z"
         style="stroke-width:0.264583"
         id="path1714"
         inkscape:connector-curvature="0" />
      <path
         d="M 63.079251,5.5263746 61.721194,3.06761 h 0.809253 L 63.454421,4.8039381 64.316384,3.06761 h 0.787549 l -2.406054,4.6632812 h -0.796851 z"
         style="stroke-width:0.264583"
         id="path1716"
         inkscape:connector-curvature="0" />
    </g>
  </g>
  <g
     style="display:inline"
     inkscape:label="components"
     id="layer2"
     inkscape:groupmode="layer">
    <circle
       inkscape:label="steps1"
       r="2.6458333"
       cy="11.876902"
       cx="21.30438"
       id="path15"
       style="display:inline;fill:#f2f2f2;stroke:#00ff00;stroke-width:0.264583;stroke-opacity:1" />
    <circle
       inkscape:label="steps2"
       r="2.6458333"
       cy="26.437914"
       cx="20.557657"
       id="path17"
       style="display:inline;fill:#f2f2f2;stroke:#00ff00;stroke-width:0.264583;stroke-opacity:1" />
    <circle
       inkscape:label="steps3"
       r="2.6458333"
       cy="40.98999"
       cx="20.557657"
       id="path34"
       style="display:inline;fill:#f2f2f2;stroke:#00ff00;stroke-width:0.264583;stroke-opacity:1" />
    <circle
       style="display:inline;fill:#f2f2f2;stroke:#00ff00;stroke-width:0.264583;stroke-opacity:1"
       id="path15-0"
       cx="20.557657"
       cy="55.649868"
       r="2.6458333"
       inkscape:label="steps4" />
    <circle
       style="display:inline;fill:#f2f2f2;stroke:#00ff00;stroke-width:0.264583;stroke-opacity:1"
       id="path17-5"
       cx="20.557657"
       cy="70.094162"
       r="2.6458333"
       inkscape:label="steps5" />
    <circle
       style="display:inline;fill:#f2f2f2;stroke:#00ff00;stroke-width:0.264583;stroke-opacity:1"
       id="path34-6"
       cx="20.557655"
       cy="84.64624"
       r="2.6458333"
       inkscape:label="steps6" />
    <circle
       inkscape:label="steps7"
       r="2.6458333"
       cy="99.198326"
       cx="20.557655"
       id="path17-5-3"
       style="display:inline;fill:#f2f2f2;stroke:#00ff00;stroke-width:0.264583;stroke-opacity:1" />
    <circle
       inkscape:label="steps8"
       r="2.6458333"
       cy="113.75039"
       cx="20.557655"
       id="path34-6-8"
       style="display:inline;fill:#f2f2f2;stroke:#00ff00;stroke-width:0.264583;stroke-opacity:1" />
    <circle
       style="display:inline;fill:#f2f2f2;stroke:#00ff00;stroke-width:0.264583;stroke-opacity:1"
       id="path15-4"
       cx="34.533558"
       cy="11.876903"
       r="2.6458333"
       inkscape:label="clock1" />
    <circle
       style="display:inline;fill:#f2f2f2;stroke:#00ff00;stroke-width:0.264583;stroke-opacity:1"
       id="path17-0"
       cx="34.533558"
       cy="26.428972"
       r="2.6458333"
       inkscape:label="clock2" />
    <circle
       style="display:inline;fill:#f2f2f2;stroke:#00ff00;stroke-width:0.264583;stroke-opacity:1"
       id="path34-0"
       cx="34.533558"
       cy="40.98106"
       r="2.6458333"
       inkscape:label="clock3" />
    <circle
       inkscape:label="clock4"
       r="2.6458333"
       cy="55.640942"
       cx="34.533558"
       id="path15-0-9"
       style="display:inline;fill:#f2f2f2;stroke:#00ff00;stroke-width:0.264583;stroke-opacity:1" />
    <circle
       inkscape:label="clock5"
       r="2.6458333"
       cy="70.085228"
       cx="34.533558"
       id="path17-5-37"
       style="display:inline;fill:#f2f2f2;stroke:#00ff00;stroke-width:0.264583;stroke-opacity:1" />
    <circle
       inkscape:label="clock6"
       r="2.6458333"
       cy="84.637306"
       cx="34.533558"
       id="path34-6-5"
       style="display:inline;fill:#f2f2f2;stroke:#00ff00;stroke-width:0.264583;stroke-opacity:1" />
    <circle
       style="display:inline;fill:#f2f2f2;stroke:#00ff00;stroke-width:0.264583;stroke-opacity:1"
       id="path17-5-3-7"
       cx="34.533558"
       cy="99.189392"
       r="2.6458333"
       inkscape:label="clock7" />
    <circle
       style="display:inline;fill:#f2f2f2;stroke:#00ff00;stroke-width:0.264583;stroke-opacity:1"
       id="path34-6-8-2"
       cx="34.533558"
       cy="113.74149"
       r="2.6458333"
       inkscape:label="clock8" />
    <circle
       inkscape:label="signal1"
       r="2.6458333"
       cy="11.876903"
       cx="47.762726"
       id="path15-4-6"
       style="display:inline;fill:#f2f2f2;stroke:#00ff00;stroke-width:0.264583;stroke-opacity:1" />
    <circle
       inkscape:label="signal2"
       r="2.6458333"
       cy="26.428972"
       cx="47.762726"
       id="path17-0-5"
       style="display:inline;fill:#f2f2f2;stroke:#00ff00;stroke-width:0.264583;stroke-opacity:1" />
    <circle
       inkscape:label="signal3"
       r="2.6458333"
       cy="40.98106"
       cx="47.762726"
       id="path34-0-3"
       style="display:inline;fill:#f2f2f2;stroke:#00ff00;stroke-width:0.264583;stroke-opacity:1" />
    <circle
       style="display:inline;fill:#f2f2f2;stroke:#00ff00;stroke-width:0.264583;stroke-opacity:1"
       id="path15-0-9-0"
       cx="47.762726"
       cy="55.640942"
       r="2.6458333"
       inkscape:label="signal4" />
    <circle
       style="display:inline;fill:#f2f2f2;stroke:#00ff00;stroke-width:0.264583;stroke-opacity:1"
       id="path17-5-37-4"
       cx="47.762726"
       cy="70.085243"
       r="2.6458333"
       inkscape:label="signal5" />
    <circle
       style="display:inline;fill:#f2f2f2;stroke:#00ff00;stroke-width:0.264583;stroke-opacity:1"
       id="path34-6-5-8"
       cx="47.762726"
       cy="84.637306"
       r="2.6458333"
       inkscape:label="signal6" />
    <circle
       inkscape:label="signal7"
       r="2.6458333"
       cy="99.189392"
       cx="47.762726"
       id="path17-5-3-7-5"
       style="display:inline;fill:#f2f2f2;stroke:#00ff00;stroke-width:0.264583;stroke-opacity:1" />
    <circle
       inkscape:label="signal8"
       r="2.6458333"
       cy="113.74149"
       cx="47.762726"
       id="path34-6-8-2-5"
       style="display:inline;fill:#f2f2f2;stroke:#00ff00;stroke-width:0.264583;stroke-opacity:1" />
    <circle
       style="display:inline;fill:#f2f2f2;stroke:#0000ff;stroke-width:0.264583;stroke-opacity:1"
       id="path15-4-6-5"
       cx="60.991894"
       cy="11.876893"
       r="2.6458333"
       inkscape:label="out1" />
    <circle
       style="display:inline;fill:#f2f2f2;stroke:#0000ff;stroke-width:0.264583;stroke-opacity:1"
       id="path17-0-5-4"
       cx="60.991894"
       cy="26.428963"
       r="2.6458333"
       inkscape:label="out2" />
    <circle
       style="display:inline;fill:#f2f2f2;stroke:#0000ff;stroke-width:0.264583;stroke-opacity:1"
       id="path34-0-3-2"
       cx="60.991894"
       cy="40.981056"
       r="2.6458333"
       inkscape:label="out3" />
    <circle
       inkscape:label="out4"
       r="2.6458333"
       cy="55.640934"
       cx="60.991894"
       id="path15-0-9-0-1"
       style="display:inline;fill:#f2f2f2;stroke:#0000ff;stroke-width:0.264583;stroke-opacity:1" />
    <circle
       inkscape:label="out5"
       r="2.6458333"
       cy="70.085228"
       cx="60.991894"
       id="path17-5-37-4-9"
       style="display:inline;fill:#f2f2f2;stroke:#0000ff;stroke-width:0.264583;stroke-opacity:1" />
    <circle
       inkscape:label="out6"
       r="2.6458333"
       cy="84.637291"
       cx="60.991894"
       id="path34-6-5-8-2"
       style="display:inline;fill:#f2f2f2;stroke:#0000ff;stroke-width:0.264583;stroke-opacity:1" />
    <circle
       style="display:inline;fill:#f2f2f2;stroke:#0000ff;stroke-width:0.264583;stroke-opacity:1"
       id="path17-5-3-7-5-4"
       cx="60.991894"
       cy="99.189392"
       r="2.6458333"
       inkscape:label="out7" />
    <circle
       style="display:inline;fill:#f2f2f2;stroke:#0000ff;stroke-width:0.264583;stroke-opacity:1"
       id="path34-6-8-2-5-5"
       cx="60.991894"
       cy="113.74149"
       r="2.6458333"
       inkscape:label="out8" />
    <circle
       style="display:inline;fill:#f2f2f2;stroke:#ff0000;stroke-width:0.264583;stroke-opacity:1"
       id="path15-2"
       cx="8.0750484"
       cy="11.769103"
       r="2.6458333"
       inkscape:label="steps_level1" />
    <circle
       style="display:inline;fill:#f2f2f2;stroke:#ff0000;stroke-width:0.264583;stroke-opacity:1"
       id="path17-7"
       cx="7.3283257"
       cy="26.330116"
       r="2.6458333"
       inkscape:label="steps_level2" />
    <circle
       style="display:inline;fill:#f2f2f2;stroke:#ff0000;stroke-width:0.264583;stroke-opacity:1"
       id="path34-03"
       cx="7.3283257"
       cy="40.882191"
       r="2.6458333"
       inkscape:label="steps_level3" />
    <circle
       inkscape:label="steps_level4"
       r="2.6458333"
       cy="55.542068"
       cx="7.3283257"
       id="path15-0-99"
       style="display:inline;fill:#f2f2f2;stroke:#ff0000;stroke-width:0.264583;stroke-opacity:1" />
    <circle
       inkscape:label="steps_level5"
       r="2.6458333"
       cy="69.986359"
       cx="7.3283257"
       id="path17-5-9"
       style="display:inline;fill:#f2f2f2;stroke:#ff0000;stroke-width:0.264583;stroke-opacity:1" />
    <circle
       inkscape:label="steps_level6"
       r="2.6458333"
       cy="84.538437"
       cx="7.3283238"
       id="path34-6-1"
       style="display:inline;fill:#f2f2f2;stroke:#ff0000;stroke-width:0.264583;stroke-opacity:1" />
    <circle
       style="display:inline;fill:#f2f2f2;stroke:#ff0000;stroke-width:0.264583;stroke-opacity:1"
       id="path17-5-3-72"
       cx="7.3283238"
       cy="99.090523"
       r="2.6458333"
       inkscape:label="steps_level7" />
    <circle
       style="display:inline;fill:#f2f2f2;stroke:#ff0000;stroke-width:0.264583;stroke-opacity:1"
       id="path34-6-8-3"
       cx="7.3283238"
       cy="113.64261"
       r="2.6458333"
       inkscape:label="steps_level8" />
    <text
       xml:space="preserve"
       style="font-size:3.52777px;line-height:1.25;font-family:Futura;-inkscape-font-specification:Futura;stroke-width:0.264583"
       x="15.875"
       y="63.5"
       id="text1418"><tspan
         sodipodi:role="line"
         id="tspan1416"
         x="15.875"
         y="63.5"
         style="stroke-width:0.264583" /></text>
  </g>
</svg>
