<?xml version="1.0" encoding="UTF-8" standalone="no"?>
<svg
   xmlns:dc="http://purl.org/dc/elements/1.1/"
   xmlns:cc="http://creativecommons.org/ns#"
   xmlns:rdf="http://www.w3.org/1999/02/22-rdf-syntax-ns#"
   xmlns:svg="http://www.w3.org/2000/svg"
   xmlns="http://www.w3.org/2000/svg"
   xmlns:sodipodi="http://sodipodi.sourceforge.net/DTD/sodipodi-0.dtd"
   xmlns:inkscape="http://www.inkscape.org/namespaces/inkscape"
   sodipodi:docname="Multiplier.svg"
   inkscape:version="1.0beta1 (32d4812, 2019-09-19)"
   id="svg1138"
   version="1.1"
   viewBox="0 0 60.959999 128.5"
   height="128.5mm"
   width="60.959999mm">
  <defs
     id="defs1132">
    <filter
       id="filter912"
       inkscape:label="Bump"
       style="color-interpolation-filters:sRGB">
      <feGaussianBlur
         id="feGaussianBlur890"
         result="blur1"
         stdDeviation="0.01"
         in="SourceGraphic" />
      <feColorMatrix
         id="feColorMatrix892"
         result="colormatrix1"
         values="1 0 0 0 0 0 1 0 0 0 0 0 1 0 0 0 0 0 1 0 "
         in="BackgroundImage" />
      <feColorMatrix
         id="feColorMatrix894"
         result="colormatrix2"
         type="luminanceToAlpha"
         in="colormatrix1" />
      <feComposite
         id="feComposite896"
         result="composite1"
         k3="0"
         k2="1"
         operator="arithmetic"
         in2="blur1"
         k1="0"
         k4="0" />
      <feGaussianBlur
         id="feGaussianBlur898"
         result="blur2"
         stdDeviation="0.01"
         in="composite1" />
      <feSpecularLighting
         id="feSpecularLighting902"
         result="lighting"
         specularExponent="15"
         specularConstant="1"
         surfaceScale="5"
         lighting-color="#ffffff">
        <feDistantLight
           id="feDistantLight900"
           elevation="45"
           azimuth="225" />
      </feSpecularLighting>
      <feFlood
         id="feFlood904"
         result="flood"
         flood-opacity="1"
         flood-color="rgb(197,41,41)" />
      <feComposite
         id="feComposite906"
         result="composite2"
         k2="1"
         k3="1"
         operator="arithmetic"
         in2="blur1"
         in="lighting"
         k1="0"
         k4="0" />
      <feBlend
         id="feBlend908"
         result="blend"
         mode="normal"
         in2="SourceGraphic" />
      <feComposite
         id="feComposite910"
         result="composite3"
         operator="in"
         in2="SourceGraphic"
         in="blend" />
    </filter>
    <filter
       style="color-interpolation-filters:sRGB"
       inkscape:label="Bump"
       id="filter2180">
      <feGaussianBlur
         in="SourceGraphic"
         stdDeviation="0.01"
         result="blur1"
         id="feGaussianBlur2158" />
      <feColorMatrix
         in="BackgroundImage"
         values="1 0 0 0 0 0 1 0 0 0 0 0 1 0 0 0 0 0 1 0 "
         result="colormatrix1"
         id="feColorMatrix2160" />
      <feColorMatrix
         in="colormatrix1"
         type="luminanceToAlpha"
         result="colormatrix2"
         id="feColorMatrix2162" />
      <feComposite
         in2="blur1"
         operator="arithmetic"
         k2="1"
         k3="0"
         result="composite1"
         id="feComposite2164"
         k1="0"
         k4="0" />
      <feGaussianBlur
         in="composite1"
         stdDeviation="0.01"
         result="blur2"
         id="feGaussianBlur2166" />
      <feSpecularLighting
         lighting-color="#ffffff"
         surfaceScale="5"
         specularConstant="1"
         specularExponent="15"
         result="lighting"
         id="feSpecularLighting2170">
        <feDistantLight
           azimuth="225"
           elevation="45"
           id="feDistantLight2168" />
      </feSpecularLighting>
      <feFlood
         flood-color="rgb(197,41,41)"
         flood-opacity="1"
         result="flood"
         id="feFlood2172" />
      <feComposite
         in="lighting"
         in2="blur1"
         operator="arithmetic"
         k3="1"
         k2="1"
         result="composite2"
         id="feComposite2174"
         k1="0"
         k4="0" />
      <feBlend
         in2="SourceGraphic"
         mode="normal"
         result="blend"
         id="feBlend2176" />
      <feComposite
         in="blend"
         in2="SourceGraphic"
         operator="in"
         result="composite3"
         id="feComposite2178" />
    </filter>
  </defs>
  <sodipodi:namedview
     inkscape:window-maximized="0"
     inkscape:window-y="26"
     inkscape:window-x="1440"
     inkscape:window-height="1054"
     inkscape:window-width="1920"
     inkscape:snap-object-midpoints="true"
     showgrid="true"
     inkscape:document-rotation="0"
     inkscape:current-layer="layer4"
     inkscape:document-units="mm"
     inkscape:cy="242.83465"
     inkscape:cx="115.2"
     inkscape:zoom="1.7789883"
     inkscape:pageshadow="2"
     inkscape:pageopacity="0.0"
     borderopacity="1.0"
     bordercolor="#666666"
     pagecolor="#ffffff"
     id="base">
    <inkscape:grid
       spacingy="2.54"
       spacingx="2.54"
       units="mm"
       id="grid1738"
       type="xygrid" />
  </sodipodi:namedview>
  <metadata
     id="metadata1135">
    <rdf:RDF>
      <cc:Work
         rdf:about="">
        <dc:format>image/svg+xml</dc:format>
        <dc:type
           rdf:resource="http://purl.org/dc/dcmitype/StillImage" />
        <dc:title></dc:title>
      </cc:Work>
    </rdf:RDF>
  </metadata>
  <g
     sodipodi:insensitive="true"
     id="layer1"
     inkscape:groupmode="layer"
     inkscape:label="Background">
    <rect
       y="0"
       x="0"
       height="128.5"
       width="60.959999"
       id="rect10"
       style="display:inline;fill:#e9e9e9;fill-opacity:1;stroke:none;stroke-width:0.173754" />
  </g>
  <g
     sodipodi:insensitive="true"
     inkscape:label="boxes"
     id="layer3"
     inkscape:groupmode="layer">
    <rect
       y="5.0799952"
       x="48.259998"
       height="10.160002"
       width="10.160002"
       id="rect1740-1"
       style="display:inline;fill:#000000;fill-opacity:0.501961;stroke:none;stroke-width:0.508799;stroke-miterlimit:4;stroke-dasharray:0.508799, 1.0176;stroke-dashoffset:0;stroke-opacity:1" />
    <rect
       y="20.319996"
       x="48.259998"
       height="10.160002"
       width="10.160002"
       id="rect1740-1-0"
       style="display:inline;fill:#000000;fill-opacity:0.501961;stroke:none;stroke-width:0.508799;stroke-miterlimit:4;stroke-dasharray:0.508799, 1.0176;stroke-dashoffset:0;stroke-opacity:1" />
    <rect
       style="display:inline;fill:#000000;fill-opacity:0.501961;stroke:none;stroke-width:0.508799;stroke-miterlimit:4;stroke-dasharray:0.508799, 1.0176;stroke-dashoffset:0;stroke-opacity:1"
       id="rect1740-1-0-3"
       width="10.160002"
       height="10.160002"
       x="48.259998"
       y="35.559994" />
    <rect
       style="display:inline;fill:#000000;fill-opacity:0.501961;stroke:none;stroke-width:0.508799;stroke-miterlimit:4;stroke-dasharray:0.508799, 1.0176;stroke-dashoffset:0;stroke-opacity:1"
       id="rect1740-1-0-5"
       width="10.160002"
       height="10.160002"
       x="48.259998"
       y="50.799992" />
    <rect
       style="display:inline;fill:#000000;fill-opacity:0.501961;stroke:none;stroke-width:0.508799;stroke-miterlimit:4;stroke-dasharray:0.508799, 1.0176;stroke-dashoffset:0;stroke-opacity:1"
       id="rect1740-1-0-4"
       width="10.160002"
       height="10.160002"
       x="48.259998"
       y="66.039993" />
    <rect
       style="display:inline;fill:#000000;fill-opacity:0.501961;stroke:none;stroke-width:0.508799;stroke-miterlimit:4;stroke-dasharray:0.508799, 1.0176;stroke-dashoffset:0;stroke-opacity:1"
       id="rect1740-1-0-36"
       width="10.160002"
       height="10.160002"
       x="48.259998"
       y="81.279991" />
    <rect
       style="display:inline;fill:#000000;fill-opacity:0.501961;stroke:none;stroke-width:0.508799;stroke-miterlimit:4;stroke-dasharray:0.508799, 1.0176;stroke-dashoffset:0;stroke-opacity:1"
       id="rect1740-1-0-59"
       width="10.160002"
       height="10.160002"
       x="48.259998"
       y="96.520004" />
    <rect
       style="display:inline;fill:#000000;fill-opacity:0.501961;stroke:none;stroke-width:0.508799;stroke-miterlimit:4;stroke-dasharray:0.508799, 1.0176;stroke-dashoffset:0;stroke-opacity:1"
       id="rect1740-1-0-54"
       width="10.160002"
       height="10.160002"
       x="48.259998"
       y="111.75999" />
  </g>
  <g
     sodipodi:insensitive="true"
     style="display:inline;opacity:1"
     inkscape:label="text"
     id="layer4"
     inkscape:groupmode="layer">
    <text
       id="text1987"
       y="19.84375"
       x="7.9375"
       style="font-size:6.35px;line-height:1.25;font-family:Futura;-inkscape-font-specification:Futura;stroke-width:0.264583"
       xml:space="preserve"><tspan
         style="stroke-width:0.264583"
         y="19.84375"
         x="7.9375"
         id="tspan1985"
         sodipodi:role="line" /></text>
    <g
       id="g2200"
       transform="translate(10.615339,0.03718092)"
       style="display:inline;opacity:1">
      <g
         id="g971"
         transform="matrix(0.13229166,0,0,0.13229166,-10.822541,109.90112)">
        <g
           style="opacity:1;fill:#000000;fill-opacity:1;filter:url(#filter912);stop-opacity:1"
           transform="matrix(0.38004571,0,0,0.38004571,177.21513,100.89119)"
           fill="#000000"
           stroke="none"
           id="b1560e19-ee0a-4c5c-a1e3-872fa4d571f9"
           data-v-fde0c5aa="">
          <path
             style="fill:#000000;fill-opacity:1"
             inkscape:connector-curvature="0"
             id="path844"
             d="M 15.88,75.262 14.006,73.346 35.661,52.171 v -3.915 l 8.825,-8.822 V 27.077 l 3.479,-5.144 V 3.223 h 2.68 v 19.531 l -3.479,5.144 v 12.646 l -8.825,8.823 v 3.931 z" />
          <path
             style="fill:#000000;fill-opacity:1"
             inkscape:connector-curvature="0"
             id="path846"
             d="m 42.998,72.05 h -2.68 V 49.8 l 6.842,-8.212 h 6.881 L 65.068,28.841 h 10.416 v 2.68 H 66.293 L 55.266,44.268 h -6.851 l -5.417,6.502 z" />
          <path
             style="fill:#000000;fill-opacity:1"
             inkscape:connector-curvature="0"
             id="path848"
             d="M 59.14,90.004 53.313,84.698 V 71.493 L 45.221,64.634 V 49.942 l 4.004,-3.695 h 10.262 l 3.039,-3.039 1.895,1.895 -3.824,3.824 H 50.271 L 47.9,51.115 v 12.277 l 8.093,6.859 v 13.264 l 4.951,4.508 z M 28.026,51.507 26.194,49.551 41.21,35.488 V 7.773 h 2.68 V 36.65 Z M 41.658,72.05 a 4.2740001,4.2740001 0 1 0 0.002,8.548 4.2740001,4.2740001 0 0 0 -0.002,-8.548 z m -12.62,3.491 a 4.278,4.278 0 0 0 -4.276,4.278 4.272,4.272 0 0 0 4.276,4.272 4.27,4.27 0 0 0 4.271,-4.272 4.277,4.277 0 0 0 -4.271,-4.278 z" />
          <circle
             style="fill:#000000;fill-opacity:1"
             id="circle850"
             r="2.138"
             cy="79.819"
             cx="29.038" />
          <path
             style="fill:#000000;fill-opacity:1"
             inkscape:connector-curvature="0"
             id="path852"
             d="m 41.658,88.231 a 4.271,4.271 0 0 0 -4.272,4.27 4.274,4.274 0 1 0 4.272,-4.27 z" />
          <path
             style="fill:#000000;fill-opacity:1"
             inkscape:connector-curvature="0"
             id="path854"
             d="m 41.658,90.366 a 2.137,2.137 0 1 0 0,4.274 2.136,2.136 0 0 0 2.139,-2.139 2.135,2.135 0 0 0 -2.139,-2.135 z M 11.76,73.409 Z m 0,2.132 a 2.1395,2.1395 0 0 0 0,4.279 2.14,2.14 0 0 0 0,-4.279 z M 66.721,38.318 a 4.272,4.272 0 0 0 -4.27,4.276 4.27,4.27 0 0 0 4.27,4.271 4.271,4.271 0 0 0 4.276,-4.271 4.272,4.272 0 0 0 -4.276,-4.276 z" />
          <path
             style="fill:#000000;fill-opacity:1"
             inkscape:connector-curvature="0"
             id="path856"
             d="m 66.721,40.455 a 2.139,2.139 0 0 0 0,4.276 c 1.183,0 2.14,-0.963 2.14,-2.137 a 2.14,2.14 0 0 0 -2.14,-2.139 z M 78.856,25.912 a 4.27,4.27 0 0 0 -4.275,4.27 4.273,4.273 0 0 0 4.275,4.278 4.272,4.272 0 0 0 4.274,-4.278 4.267,4.267 0 0 0 -4.274,-4.27 z" />
          <path
             style="fill:#000000;fill-opacity:1"
             inkscape:connector-curvature="0"
             id="path858"
             d="m 78.856,28.046 a 2.135,2.135 0 0 0 -2.139,2.135 c 0,1.185 0.956,2.137 2.139,2.137 a 2.133,2.133 0 0 0 2.135,-2.137 2.134,2.134 0 0 0 -2.135,-2.135 z M 53.903,51.115 a 4.275,4.275 0 1 0 0,8.55 4.273,4.273 0 0 0 4.27,-4.276 4.274,4.274 0 0 0 -4.27,-4.274 z" />
          <path
             style="fill:#000000;fill-opacity:1"
             inkscape:connector-curvature="0"
             id="path860"
             d="m 53.903,53.252 a 2.14,2.14 0 1 0 0,4.277 2.136,2.136 0 0 0 2.133,-2.139 2.137,2.137 0 0 0 -2.133,-2.138 z m 11.745,3.477 H 58.173 V 54.05 h 6.313 l 28.098,-30.019 1.957,1.831 z M 24.968,48.798 A 4.275,4.275 0 0 0 20.69,53.07 4.28,4.28 0 0 0 24.968,57.346 4.277,4.277 0 0 0 29.24,53.07 4.272,4.272 0 0 0 24.968,48.798 Z M 62.11,87.126 a 4.2740001,4.2740001 0 1 0 0.002,8.548 4.2740001,4.2740001 0 0 0 -0.002,-8.548 z" />
        </g>
      </g>
      <g
         style="font-size:3.52777px;line-height:1.25;font-family:Futura;-inkscape-font-specification:Futura;stroke-width:0.264583;filter:url(#filter2180)"
         id="text2143"
         aria-label="Stalys">
        <path
           id="path2145"
           style="font-style:italic;font-variant:normal;font-weight:normal;font-stretch:normal;font-family:Optima;-inkscape-font-specification:'Optima Italic';fill:#000000;fill-opacity:1;stroke-width:0.264583"
           d="m 19.395719,124.86158 q -0.04233,-0.11642 -0.148166,-0.18344 -0.105833,-0.067 -0.246944,-0.067 -0.109361,0 -0.204611,0.0423 -0.09172,0.0423 -0.162277,0.11289 -0.06703,0.067 -0.105833,0.15875 -0.03528,0.0917 -0.03528,0.1905 0,0.0953 0.02822,0.16228 0.02822,0.067 0.08114,0.11994 0.05292,0.0529 0.123472,0.0988 0.07056,0.0459 0.155222,0.0953 0.08114,0.0494 0.155222,0.0988 0.07408,0.0459 0.130527,0.10936 0.05645,0.06 0.08819,0.14464 0.03528,0.0811 0.03528,0.20108 0,0.14111 -0.0635,0.28928 -0.0635,0.14816 -0.186971,0.27163 -0.119945,0.11995 -0.299861,0.19403 -0.179916,0.0741 -0.416277,0.0741 -0.134055,0 -0.264582,-0.0282 -0.127,-0.0247 -0.239889,-0.0917 0.03528,-0.067 0.0635,-0.13405 0.03175,-0.0706 0.05292,-0.13759 h 0.02469 q 0.0388,0.0741 0.09878,0.12347 0.0635,0.0494 0.130527,0.0811 0.07055,0.0282 0.141111,0.0423 0.07055,0.0106 0.123472,0.0106 0.137583,0 0.243416,-0.0529 0.109361,-0.0564 0.179916,-0.14111 0.07056,-0.0847 0.105833,-0.18697 0.03881,-0.1023 0.03881,-0.19403 0,-0.0953 -0.03175,-0.16227 -0.02822,-0.0706 -0.07761,-0.12348 -0.04939,-0.0529 -0.119944,-0.0988 -0.06703,-0.0459 -0.141111,-0.0953 -0.08114,-0.0494 -0.15875,-0.0988 -0.07408,-0.0529 -0.134055,-0.11642 -0.05644,-0.067 -0.09172,-0.15169 -0.03528,-0.0882 -0.03528,-0.20814 0,-0.15169 0.0635,-0.28222 0.0635,-0.13406 0.176389,-0.22931 0.116416,-0.0988 0.271638,-0.15522 0.15875,-0.0564 0.345721,-0.0564 0.172861,0 0.282222,0.0388 0.109361,0.0388 0.169333,0.067 -0.04586,0.0811 -0.07056,0.13406 -0.02117,0.0494 -0.04939,0.13405 h -0.0247 z"
           inkscape:connector-curvature="0" />
        <path
           id="path2147"
           style="font-style:italic;font-variant:normal;font-weight:normal;font-stretch:normal;font-family:Optima;-inkscape-font-specification:'Optima Italic';fill:#000000;fill-opacity:1;stroke-width:0.264583"
           d="m 20.376439,124.82278 q -0.03528,0.12347 -0.0635,0.24341 -0.0247,0.11995 -0.05292,0.24342 0.08114,0 0.176389,-0.004 0.09878,-0.007 0.190499,-0.0106 -0.02117,0.0741 -0.02117,0.14464 -0.09172,-0.004 -0.194027,-0.007 -0.09878,-0.007 -0.179916,-0.007 l -0.137583,0.66322 q -0.01058,0.0564 -0.0247,0.127 -0.01411,0.067 -0.02822,0.13406 -0.01058,0.067 -0.02117,0.13053 -0.0071,0.06 -0.0071,0.1023 0,0.0706 0.02469,0.11995 0.02469,0.0494 0.05997,0.0811 0.0388,0.0282 0.08114,0.0423 0.04586,0.0141 0.08467,0.0141 0.05997,0 0.119944,-0.0176 0.05997,-0.0212 0.112889,-0.0529 l -0.0071,0.0917 q -0.07055,0.0564 -0.172861,0.0776 -0.09878,0.0212 -0.186971,0.0212 -0.06703,0 -0.137583,-0.0212 -0.06703,-0.0176 -0.119945,-0.0564 -0.05292,-0.0388 -0.08819,-0.0988 -0.03175,-0.0635 -0.03175,-0.14464 0,-0.0706 0.01411,-0.14817 0.01764,-0.0776 0.03528,-0.1658 0.0388,-0.17992 0.0635,-0.29281 0.02469,-0.11289 0.04233,-0.20108 0.02117,-0.0917 0.0388,-0.17992 0.01764,-0.0917 0.04586,-0.22578 -0.04939,0 -0.112889,0.004 -0.05997,0 -0.119944,0.004 0.01058,-0.0282 0.01411,-0.0564 0.0071,-0.0282 0.0071,-0.0811 0.05644,0.004 0.116417,0.0106 0.0635,0.004 0.109361,0.004 l 0.0635,-0.37395 0.306916,-0.11288 z"
           inkscape:connector-curvature="0" />
        <path
           id="path2149"
           style="font-style:italic;font-variant:normal;font-weight:normal;font-stretch:normal;font-family:Optima;-inkscape-font-specification:'Optima Italic';fill:#000000;fill-opacity:1;stroke-width:0.264583"
           d="m 20.933386,126.54786 q 0,0.13052 0.08114,0.20108 0.08467,0.067 0.194027,0.067 0.148167,0 0.264583,-0.0811 0.116416,-0.0811 0.197555,-0.19756 0.02117,-0.12347 0.04586,-0.24341 0.0247,-0.12348 0.05997,-0.24695 -0.08114,0.0176 -0.158749,0.0318 -0.07761,0.0141 -0.15875,0.0318 -0.08819,0.0212 -0.183444,0.0529 -0.09172,0.0282 -0.169333,0.0811 -0.07408,0.0494 -0.123472,0.12347 -0.04939,0.0741 -0.04939,0.17992 z m 0.105833,-1.12889 q 0.134056,-0.0917 0.271639,-0.13758 0.14111,-0.0494 0.29986,-0.0494 0.22225,0 0.352777,0.10936 0.134055,0.10936 0.134055,0.28222 0,0.0741 -0.01764,0.15169 -0.01411,0.0776 -0.02469,0.12348 l -0.102305,0.43038 q -0.02822,0.11289 -0.03881,0.18698 -0.01058,0.0741 -0.01058,0.12699 0,0.0635 0.03175,0.11289 0.03528,0.0459 0.105833,0.0459 0.03175,0 0.05292,-0.007 0.02469,-0.0106 0.04233,-0.0247 l 0.01764,0.0741 q -0.05997,0.0388 -0.123472,0.06 -0.0635,0.0212 -0.137583,0.0212 -0.109361,0 -0.169333,-0.0564 -0.05645,-0.06 -0.0635,-0.16933 -0.105833,0.11289 -0.243416,0.1905 -0.134056,0.0741 -0.306916,0.0741 -0.07761,0 -0.155222,-0.0212 -0.07761,-0.0212 -0.141111,-0.067 -0.05997,-0.0494 -0.09878,-0.11995 -0.0388,-0.0741 -0.0388,-0.1658 0,-0.16933 0.08819,-0.27517 0.08819,-0.10583 0.211666,-0.1658 0.123472,-0.0635 0.254,-0.0917 0.130527,-0.0318 0.211666,-0.0494 0.07055,-0.0141 0.151694,-0.0247 0.08114,-0.0141 0.130528,-0.0353 0.07408,-0.0318 0.09172,-0.10936 0.02117,-0.0776 0.02117,-0.15169 0,-0.15875 -0.102305,-0.23283 -0.102305,-0.0776 -0.250472,-0.0776 -0.148166,0 -0.253999,0.067 -0.102305,0.0635 -0.197555,0.16581 h -0.04233 z"
           inkscape:connector-curvature="0" />
        <path
           id="path2151"
           style="font-style:italic;font-variant:normal;font-weight:normal;font-stretch:normal;font-family:Optima;-inkscape-font-specification:'Optima Italic';fill:#000000;fill-opacity:1;stroke-width:0.264583"
           d="m 23.30052,124.29714 q -0.01411,0.0459 -0.05644,0.21872 -0.03881,0.16933 -0.09525,0.41275 -0.05292,0.24341 -0.116416,0.53269 -0.0635,0.28575 -0.123472,0.56445 -0.05645,0.27516 -0.102306,0.51858 -0.04586,0.23989 -0.07055,0.381 -0.02822,-0.004 -0.0635,-0.004 -0.03175,0 -0.08114,0 -0.04586,0 -0.08114,0 -0.03175,0 -0.05997,0.004 0.05644,-0.20461 0.112888,-0.4445 0.05997,-0.24342 0.116417,-0.49389 0.05644,-0.25047 0.105833,-0.49742 0.05292,-0.24694 0.09525,-0.46919 0.04233,-0.22225 0.07408,-0.40922 0.03175,-0.18697 0.04939,-0.31397 0.05292,0.0141 0.134056,0.0141 0.0388,0 0.08114,-0.004 0.04233,-0.004 0.08114,-0.0106 z"
           inkscape:connector-curvature="0" />
        <path
           id="path2153"
           style="font-style:italic;font-variant:normal;font-weight:normal;font-stretch:normal;font-family:Optima;-inkscape-font-specification:'Optima Italic';fill:#000000;fill-opacity:1;stroke-width:0.264583"
           d="m 24.063345,126.60783 q 0.07055,-0.127 0.144638,-0.254 0.07761,-0.13053 0.148167,-0.26106 0.109361,-0.20108 0.176388,-0.32455 0.07056,-0.127 0.112889,-0.20461 0.04233,-0.0811 0.0635,-0.127 0.02117,-0.0459 0.0388,-0.0882 l 0.03528,-0.0847 q 0.05292,0.0141 0.123472,0.0141 0.07055,0 0.112889,-0.0141 -0.194028,0.30691 -0.395111,0.63147 -0.201083,0.32455 -0.39511,0.65616 -0.194027,0.33161 -0.377471,0.65617 -0.179917,0.32455 -0.331611,0.635 -0.0388,-0.0141 -0.112888,-0.0141 -0.07056,0 -0.109361,0.0141 0.148166,-0.23284 0.296332,-0.4692 0.148167,-0.23636 0.282222,-0.45155 -0.105833,-0.43392 -0.211666,-0.83256 -0.102305,-0.40216 -0.215194,-0.82549 0.03175,0.007 0.07055,0.0106 0.03881,0.004 0.07761,0.004 0.08467,0 0.137583,-0.0141 0.04233,0.24341 0.119944,0.58561 0.07761,0.34219 0.1905,0.75847 h 0.01764 z"
           inkscape:connector-curvature="0" />
        <path
           id="path2155"
           style="font-style:italic;font-variant:normal;font-weight:normal;font-stretch:normal;font-family:Optima;-inkscape-font-specification:'Optima Italic';fill:#000000;fill-opacity:1;stroke-width:0.264583"
           d="m 26.088285,125.54597 q -0.02822,-0.0988 -0.109361,-0.1517 -0.07761,-0.0564 -0.179916,-0.0564 -0.07761,0 -0.141111,0.0318 -0.05997,0.0282 -0.105833,0.0776 -0.04233,0.0459 -0.06703,0.10583 -0.02117,0.06 -0.02117,0.11995 0,0.0635 0.02469,0.11289 0.02469,0.0459 0.06703,0.0811 0.04233,0.0353 0.09525,0.0635 0.05645,0.0282 0.116417,0.0529 0.05644,0.0247 0.112888,0.0564 0.05645,0.0282 0.102306,0.0705 0.04586,0.0423 0.07408,0.10231 0.02822,0.06 0.02822,0.14464 0,0.12347 -0.05644,0.23636 -0.05645,0.10936 -0.155222,0.19402 -0.09525,0.0847 -0.229305,0.13053 -0.130528,0.0459 -0.285749,0.0459 -0.109361,0 -0.201083,-0.0212 -0.08819,-0.0212 -0.179917,-0.0706 0.03881,-0.0635 0.06703,-0.13053 0.02822,-0.067 0.04586,-0.10583 h 0.02469 q 0.03881,0.10583 0.134056,0.15875 0.09878,0.0529 0.215194,0.0529 0.102305,0 0.17286,-0.0353 0.07408,-0.0353 0.119945,-0.0882 0.04586,-0.0529 0.06703,-0.11641 0.02469,-0.067 0.02469,-0.12347 0,-0.11289 -0.07056,-0.16934 -0.07055,-0.0564 -0.211666,-0.11994 -0.05644,-0.0247 -0.116416,-0.0564 -0.05645,-0.0318 -0.102306,-0.0776 -0.04586,-0.0459 -0.07408,-0.10936 -0.02822,-0.067 -0.02822,-0.16228 0,-0.0917 0.03528,-0.1905 0.03528,-0.0988 0.10936,-0.18344 0.07761,-0.0847 0.201083,-0.13758 0.123472,-0.0564 0.299861,-0.0564 0.09525,0 0.165805,0.0176 0.07055,0.0141 0.155222,0.0529 -0.05292,0.11994 -0.07056,0.16933 -0.01411,0.0494 -0.02117,0.0847 h -0.03175 z"
           inkscape:connector-curvature="0" />
      </g>
    </g>
    <g
       transform="translate(0,1.1688551)"
       style="font-size:3.52777px;line-height:1.25;font-family:Futura;-inkscape-font-specification:Futura;stroke-width:0.264583"
       id="text11275"
       aria-label="8 Multiplier">
      <path
         inkscape:connector-curvature="0"
         id="path11277"
         style="font-style:italic;font-variant:normal;font-weight:normal;font-stretch:normal;font-family:Optima;-inkscape-font-specification:'Optima Italic';fill:#000000;fill-opacity:1;stroke-width:0.264583"
         d="m 22.106257,2.1166621 q 0,0.084666 0.02117,0.1693329 0.02469,0.081139 0.07408,0.1446386 0.04939,0.0635 0.123472,0.1023053 0.07761,0.038806 0.186972,0.038806 0.148166,0 0.257527,-0.070555 0.112889,-0.074083 0.183444,-0.183444 0.07408,-0.1128887 0.109361,-0.2434162 0.03528,-0.1340552 0.03528,-0.2539994 0,-0.1164164 -0.03175,-0.1975551 -0.03175,-0.084666 -0.08819,-0.1375831 -0.05292,-0.056444 -0.127,-0.081139 -0.07408,-0.028222 -0.155222,-0.028222 -0.151694,0 -0.264583,0.074083 -0.112888,0.074083 -0.183444,0.1869719 -0.07056,0.1093608 -0.105833,0.2398883 -0.03528,0.1269997 -0.03528,0.2398884 z m 0.338666,-1.18885852 q 0,0.16227742 0.07761,0.25752722 0.07761,0.09525 0.246944,0.09525 0.102306,0 0.186972,-0.045861 0.08467,-0.045861 0.141111,-0.123472 0.05997,-0.077611 0.09172,-0.17638848 0.03175,-0.0987776 0.03175,-0.20461066 0,-0.14816635 -0.08114,-0.25047168 -0.07761,-0.10230533 -0.236361,-0.10230533 -0.08819,0 -0.17286,0.0388055 -0.08114,0.0388055 -0.144639,0.11288864 -0.0635,0.0705554 -0.102305,0.17286074 -0.03881,0.10230533 -0.03881,0.22577728 z m 0.945443,0.90663692 q 0,0.1481663 -0.05997,0.2998604 -0.05644,0.1481664 -0.172861,0.2681106 -0.112889,0.1199441 -0.278694,0.1940273 -0.165805,0.070555 -0.380999,0.070555 -0.123472,0 -0.246944,-0.028222 -0.119944,-0.024694 -0.215194,-0.091722 -0.09525,-0.070555 -0.155222,-0.1799162 -0.05644,-0.1128887 -0.05644,-0.2716383 0,-0.1481664 0.04586,-0.2751661 0.04939,-0.1305275 0.134055,-0.2293051 0.08819,-0.1023053 0.211666,-0.1693329 0.127,-0.070555 0.282222,-0.098778 V 1.305275 q -0.05997,-0.017639 -0.116416,-0.049389 -0.05645,-0.035278 -0.102306,-0.088194 -0.04586,-0.052916 -0.07408,-0.1199441 -0.02469,-0.0705554 -0.02469,-0.15522192 0,-0.10230533 0.0388,-0.2116662 0.04233,-0.10936088 0.130528,-0.2010829 0.08819,-0.091722 0.229305,-0.14816634 0.144638,-0.0599721 0.349249,-0.0599721 0.179916,0 0.289277,0.0529166 0.112889,0.0493888 0.172861,0.12347195 0.0635,0.0705554 0.08114,0.15169411 0.02117,0.077611 0.02117,0.13758304 0,0.11994418 -0.04233,0.21519397 -0.03881,0.0952498 -0.109361,0.16580519 -0.07055,0.070555 -0.162277,0.1199441 -0.09172,0.049389 -0.197556,0.077611 v 0.017639 q 0.194028,0.049389 0.299861,0.1869718 0.109361,0.1340553 0.109361,0.3139716 z" />
      <path
         inkscape:connector-curvature="0"
         id="path11279"
         style="font-style:italic;font-variant:normal;font-weight:normal;font-stretch:normal;font-family:Optima;-inkscape-font-specification:'Optima Italic';fill:#000000;fill-opacity:1;stroke-width:0.264583"
         d="M 25.955,2.6634664 Q 25.94442,2.6211334 25.90561,2.4835502 25.87033,2.3424394 25.81742,2.1554676 25.76803,1.9684957 25.704531,1.7533018 25.641031,1.5381078 25.581059,1.3299694 25.521089,1.1218309 25.46817,0.94191466 25.41525,0.76199839 25.37998,0.64910975 q -0.0035,0.0141111 -0.03175,0.12699972 -0.02469,0.10936087 -0.0635,0.28222163 -0.03528,0.1728607 -0.08114,0.3880547 -0.04586,0.2151939 -0.08819,0.4303879 -0.0388,0.215194 -0.07056,0.4162769 -0.02822,0.1975551 -0.0388,0.3351381 -0.02469,-0.00353 -0.05645,-0.00353 -0.03175,0 -0.05997,0 -0.02822,0 -0.0635,0 -0.03528,0 -0.0635,0.00353 0.03528,-0.1058331 0.08114,-0.2857493 0.04939,-0.1834441 0.09878,-0.398638 0.05292,-0.2187218 0.105833,-0.4586102 0.05644,-0.2398883 0.102305,-0.4691934 0.04939,-0.23283279 0.09172,-0.43744346 0.04233,-0.20813843 0.07055,-0.35630477 0.02822,0.007056 0.05292,0.0105833 0.02822,0.003528 0.07055,0.003528 0.04586,0 0.07056,-0.003528 0.02469,-0.003528 0.04939,-0.0105833 0.05644,0.22930505 0.09878,0.40216578 0.04233,0.17286074 0.08819,0.34572147 0.04586,0.17286078 0.102306,0.37747138 0.05997,0.2046107 0.148166,0.5009434 0.0247,0.084666 0.04233,0.1411108 0.01764,0.056444 0.02822,0.098777 0.01411,0.042333 0.02117,0.074083 0.01058,0.028222 0.02117,0.059972 0.0388,-0.049389 0.137583,-0.1869718 0.09878,-0.1411108 0.229305,-0.3280826 0.130527,-0.1869719 0.278694,-0.4021658 0.148166,-0.2187218 0.285749,-0.42333243 0.137583,-0.20461066 0.250472,-0.3774714 0.112888,-0.1763885 0.176388,-0.2822216 0.05292,0.0141111 0.123472,0.0141111 0.07761,0 0.130528,-0.0141111 -0.01058,0.0317499 -0.04586,0.17286073 -0.03528,0.13758303 -0.08467,0.34572147 -0.04939,0.20461066 -0.105833,0.45861013 -0.05292,0.2539994 -0.105833,0.5115266 -0.05292,0.2575272 -0.09525,0.5009434 -0.04233,0.2398883 -0.0635,0.4162768 -0.03175,-0.00353 -0.06703,-0.00353 -0.03528,0 -0.08467,0 -0.04586,0 -0.08819,0 -0.03881,0 -0.07761,0.00353 0.0388,-0.1199441 0.08467,-0.3104437 0.04939,-0.1940274 0.09878,-0.4092213 0.04939,-0.215194 0.09525,-0.430388 0.04586,-0.215194 0.08114,-0.3880547 0.03528,-0.1763885 0.05644,-0.28927714 0.02469,-0.11641641 0.02822,-0.12699972 -0.03175,0.0423332 -0.134055,0.18697181 Q 27.11211,1.0018859 26.978057,1.1994411 26.844002,1.3934684 26.68878,1.6192457 26.537086,1.8414952 26.399503,2.0496337 26.26192,2.2577721 26.152559,2.4235773 26.043198,2.5893825 25.997337,2.6634656 Z" />
      <path
         inkscape:connector-curvature="0"
         id="path11281"
         style="font-style:italic;font-variant:normal;font-weight:normal;font-stretch:normal;font-family:Optima;-inkscape-font-specification:'Optima Italic';fill:#000000;fill-opacity:1;stroke-width:0.264583"
         d="m 29.030057,2.3847726 q -0.04233,0.052917 -0.102305,0.1058331 -0.05644,0.049389 -0.130527,0.091722 -0.07408,0.038806 -0.165806,0.059972 -0.08819,0.024694 -0.201083,0.024694 -0.08819,0 -0.176388,-0.021167 -0.08819,-0.021167 -0.15875,-0.070555 -0.07055,-0.052917 -0.116416,-0.1269997 -0.04233,-0.077611 -0.04233,-0.1763885 0,-0.067028 0.02822,-0.2046107 0.03175,-0.137583 0.08114,-0.352777 0.01058,-0.045861 0.02822,-0.1305275 0.02117,-0.088194 0.0388,-0.1940273 0.02117,-0.1058331 0.03881,-0.215194 0.02117,-0.1128887 0.03175,-0.20813845 0.05644,0.0141111 0.155221,0.0141111 0.09172,0 0.151695,-0.0141111 -0.03528,0.13405525 -0.08467,0.31044375 -0.04586,0.1763885 -0.08819,0.352777 -0.04233,0.1728607 -0.07408,0.3210271 -0.02822,0.1446386 -0.02822,0.2187217 0,0.169333 0.08819,0.2539995 0.09172,0.084666 0.253999,0.084666 0.102305,0 0.186972,-0.03175 0.08467,-0.035278 0.151694,-0.091722 0.06703,-0.056444 0.112889,-0.1305275 0.04586,-0.074083 0.07408,-0.1552219 0.02117,-0.067028 0.04586,-0.1728607 0.02469,-0.1058331 0.04939,-0.2257773 0.02469,-0.1199442 0.04586,-0.2434161 0.02469,-0.123472 0.04233,-0.2257773 0.02117,-0.1058331 0.03175,-0.1763885 0.01411,-0.0740832 0.01764,-0.0881943 0.07055,0.0141111 0.141111,0.0141111 0.08819,0 0.144638,-0.0141111 -0.01764,0.0564444 -0.04939,0.1763885 -0.02822,0.1164164 -0.06703,0.2681105 -0.03528,0.1481663 -0.07408,0.321027 -0.03528,0.169333 -0.07056,0.338666 -0.03175,0.1658052 -0.05997,0.3139715 -0.02469,0.1446386 -0.03528,0.2434161 -0.03175,-0.00353 -0.0635,-0.00353 -0.02822,0 -0.0635,0 -0.03881,0 -0.07408,0 -0.03528,0 -0.0635,0.00353 l 0.0635,-0.229305 z" />
      <path
         inkscape:connector-curvature="0"
         id="path11283"
         style="font-style:italic;font-variant:normal;font-weight:normal;font-stretch:normal;font-family:Optima;-inkscape-font-specification:'Optima Italic';fill:#000000;fill-opacity:1;stroke-width:0.264583"
         d="M 30.648036,5.7220459e-8 Q 30.633925,0.04586107 30.591592,0.2187218 q -0.03881,0.16933296 -0.09525,0.41274909 -0.05292,0.24341614 -0.116416,0.53269331 -0.0635,0.2857493 -0.123472,0.5644432 -0.05645,0.275166 -0.102306,0.5185822 -0.04586,0.2398883 -0.07055,0.3809991 -0.02822,-0.00353 -0.0635,-0.00353 -0.03175,0 -0.08114,0 -0.04586,0 -0.08114,0 -0.03175,0 -0.05997,0.00353 0.05644,-0.2046106 0.112888,-0.444499 0.05997,-0.2434161 0.116417,-0.4938878 0.05644,-0.2504717 0.105833,-0.4974156 0.05292,-0.24694387 0.09525,-0.46919338 0.04233,-0.22224952 0.07408,-0.40922133 Q 30.334065,0.12699978 30.351703,5.7220459e-8 30.40462,0.01411114 30.485759,0.01411114 q 0.0388,0 0.08114,-0.0035278 Q 30.609231,0.0070556 30.648036,5.7220459e-8 Z" />
      <path
         inkscape:connector-curvature="0"
         id="path11285"
         style="font-style:italic;font-variant:normal;font-weight:normal;font-stretch:normal;font-family:Optima;-inkscape-font-specification:'Optima Italic';fill:#000000;fill-opacity:1;stroke-width:0.264583"
         d="m 31.382639,0.52563779 q -0.03528,0.12347196 -0.0635,0.24341614 -0.02469,0.11994418 -0.05292,0.24341617 0.08114,0 0.176389,-0.00353 0.09878,-0.00706 0.190499,-0.0105833 -0.02117,0.0740832 -0.02117,0.1446386 -0.09172,-0.00353 -0.194028,-0.00706 -0.09878,-0.00706 -0.179916,-0.00706 L 31.10041,1.7920961 q -0.01058,0.056444 -0.02469,0.1269998 -0.01411,0.067028 -0.02822,0.1340552 -0.01058,0.067028 -0.02117,0.1305275 -0.0071,0.059972 -0.0071,0.1023053 0,0.070555 0.0247,0.1199442 0.02469,0.049389 0.05997,0.081139 0.0388,0.028222 0.08114,0.042333 0.04586,0.014111 0.08467,0.014111 0.05997,0 0.119944,-0.017639 0.05997,-0.021167 0.112889,-0.052917 l -0.0071,0.091722 q -0.07055,0.056444 -0.17286,0.077611 -0.09878,0.021167 -0.186972,0.021167 -0.06703,0 -0.137583,-0.021167 -0.06703,-0.017639 -0.119944,-0.056444 -0.05292,-0.038806 -0.08819,-0.098778 -0.03175,-0.0635 -0.03175,-0.1446385 0,-0.070555 0.01411,-0.1481664 0.01764,-0.077611 0.03528,-0.1658052 0.03881,-0.1799162 0.0635,-0.2928049 0.0247,-0.1128886 0.04233,-0.2010829 0.02117,-0.091722 0.03881,-0.1799162 0.01764,-0.091722 0.04586,-0.2257773 -0.04939,0 -0.112889,0.00353 -0.05997,0 -0.119944,0.00353 0.01058,-0.028222 0.01411,-0.056444 0.0071,-0.028222 0.0071,-0.0811387 0.05644,0.003528 0.116416,0.0105833 0.0635,0.00353 0.109361,0.00353 l 0.0635,-0.37394365 0.306916,-0.11288864 z" />
      <path
         inkscape:connector-curvature="0"
         id="path11287"
         style="font-style:italic;font-variant:normal;font-weight:normal;font-stretch:normal;font-family:Optima;-inkscape-font-specification:'Optima Italic';fill:#000000;fill-opacity:1;stroke-width:0.264583"
         d="m 32.151252,0.40922138 q 0,-0.0705554 0.04939,-0.11994418 0.04939,-0.0493888 0.119944,-0.0493888 0.07055,0 0.119944,0.0493888 0.04939,0.0493888 0.04939,0.11994418 0,0.0705554 -0.04939,0.11994418 -0.04939,0.0493888 -0.119944,0.0493888 -0.07055,0 -0.119944,-0.0493888 -0.04939,-0.0493888 -0.04939,-0.11994418 z m 0.194027,0.55738767 q -0.01764,0.0564444 -0.04939,0.17638855 -0.02822,0.1164164 -0.06703,0.2681105 -0.03528,0.1516941 -0.07408,0.3245548 -0.03528,0.169333 -0.07056,0.3351382 -0.03175,0.1658052 -0.05997,0.3139715 -0.02469,0.1481663 -0.03528,0.2434161 -0.03881,-0.00353 -0.08114,-0.00353 -0.04233,0 -0.08114,0 -0.04233,0 -0.07761,0 -0.03175,0 -0.05997,0.00353 0.03881,-0.1128886 0.08114,-0.275166 0.04233,-0.1622774 0.08114,-0.3386659 0.0388,-0.1763886 0.07408,-0.3492493 0.03528,-0.1728607 0.05997,-0.3174993 0.02822,-0.1446386 0.04586,-0.2469439 0.01764,-0.10230532 0.02117,-0.13405525 0.07056,0.0141111 0.148167,0.0141111 0.08819,0 0.144638,-0.0141111 z" />
      <path
         inkscape:connector-curvature="0"
         id="path11289"
         style="font-style:italic;font-variant:normal;font-weight:normal;font-stretch:normal;font-family:Optima;-inkscape-font-specification:'Optima Italic';fill:#000000;fill-opacity:1;stroke-width:0.264583"
         d="m 32.949354,2.0743288 q 0,0.1446386 0.04233,0.2363606 0.04233,0.091722 0.105833,0.1446386 0.0635,0.052917 0.137583,0.074083 0.07408,0.017639 0.134055,0.017639 0.1905,0 0.321027,-0.1093608 0.134055,-0.1093609 0.215194,-0.261055 0.08114,-0.1552219 0.116417,-0.3210271 0.03881,-0.1658052 0.03881,-0.2786938 0,-0.1375831 -0.03881,-0.2293051 -0.03881,-0.09525 -0.102306,-0.1516941 -0.05997,-0.059972 -0.137583,-0.084666 -0.07408,-0.024694 -0.148166,-0.024694 -0.141111,0 -0.246944,0.0635 -0.105833,0.059972 -0.183444,0.1552219 -0.07408,0.09525 -0.123472,0.2116662 -0.04939,0.1164164 -0.07761,0.2257773 -0.02822,0.1093608 -0.04233,0.2010829 -0.01058,0.088194 -0.01058,0.1305274 z m -0.07055,0.2434162 q -0.05997,0.306916 -0.123472,0.627943 -0.0635,0.3245549 -0.116416,0.5997209 -0.04233,-0.014111 -0.119944,-0.014111 -0.07761,0 -0.137584,0.014111 0.04586,-0.1975551 0.09525,-0.4409712 0.04939,-0.2398884 0.102306,-0.49036 0.05292,-0.2539995 0.105833,-0.5150545 0.05292,-0.261055 0.102305,-0.4974155 0.03175,-0.1587497 0.05644,-0.3174993 0.02822,-0.1587497 0.05997,-0.31749935 0.02822,0.007056 0.0635,0.0105833 0.03881,0.003528 0.07408,0.003528 0.02822,0 0.0635,-0.003528 0.03881,-0.003528 0.06703,-0.0105833 -0.02117,0.0846666 -0.03528,0.14463855 -0.01411,0.059972 -0.03175,0.1622774 0.03528,-0.049389 0.08819,-0.1058331 0.05644,-0.059972 0.134055,-0.1093608 0.07761,-0.052917 0.176388,-0.0881943 0.09878,-0.0352777 0.225778,-0.0352777 0.07408,0 0.179916,0.0211666 0.105833,0.0211666 0.201083,0.0917221 0.09525,0.067028 0.162277,0.1940273 0.06703,0.1269997 0.06703,0.3386659 0,0.1975552 -0.06703,0.3951103 -0.0635,0.1940273 -0.183444,0.3492492 -0.119944,0.1552219 -0.292805,0.2504717 -0.169333,0.091722 -0.384527,0.091722 -0.08467,0 -0.169333,-0.017639 -0.08114,-0.017639 -0.151694,-0.052917 -0.07055,-0.038806 -0.123472,-0.1058331 -0.05292,-0.070555 -0.07761,-0.1728607 z" />
      <path
         inkscape:connector-curvature="0"
         id="path11291"
         style="font-style:italic;font-variant:normal;font-weight:normal;font-stretch:normal;font-family:Optima;-inkscape-font-specification:'Optima Italic';fill:#000000;fill-opacity:1;stroke-width:0.264583"
         d="M 35.416038,5.7220459e-8 Q 35.401927,0.04586107 35.359593,0.2187218 q -0.0388,0.16933296 -0.09525,0.41274909 -0.05292,0.24341614 -0.116417,0.53269331 -0.0635,0.2857493 -0.123472,0.5644432 -0.05644,0.275166 -0.102305,0.5185822 -0.04586,0.2398883 -0.07055,0.3809991 -0.02822,-0.00353 -0.0635,-0.00353 -0.03175,0 -0.08114,0 -0.04586,0 -0.08114,0 -0.03175,0 -0.05997,0.00353 0.05644,-0.2046106 0.112889,-0.444499 0.05997,-0.2434161 0.116416,-0.4938878 0.05645,-0.2504717 0.105833,-0.4974156 0.05292,-0.24694387 0.09525,-0.46919338 0.04233,-0.22224952 0.07408,-0.40922133 Q 35.102066,0.12699978 35.119705,5.7220459e-8 35.172622,0.01411114 35.25376,0.01411114 q 0.03881,0 0.08114,-0.0035278 Q 35.377232,0.0070556 35.416038,5.7220459e-8 Z" />
      <path
         inkscape:connector-curvature="0"
         id="path11293"
         style="font-style:italic;font-variant:normal;font-weight:normal;font-stretch:normal;font-family:Optima;-inkscape-font-specification:'Optima Italic';fill:#000000;fill-opacity:1;stroke-width:0.264583"
         d="m 35.871947,0.40922138 q 0,-0.0705554 0.04939,-0.11994418 0.04939,-0.0493888 0.119944,-0.0493888 0.07056,0 0.119945,0.0493888 0.04939,0.0493888 0.04939,0.11994418 0,0.0705554 -0.04939,0.11994418 -0.04939,0.0493888 -0.119945,0.0493888 -0.07055,0 -0.119944,-0.0493888 -0.04939,-0.0493888 -0.04939,-0.11994418 z m 0.194028,0.55738767 q -0.01764,0.0564444 -0.04939,0.17638855 -0.02822,0.1164164 -0.06703,0.2681105 -0.03528,0.1516941 -0.07408,0.3245548 -0.03528,0.169333 -0.07055,0.3351382 -0.03175,0.1658052 -0.05997,0.3139715 -0.0247,0.1481663 -0.03528,0.2434161 -0.03881,-0.00353 -0.08114,-0.00353 -0.04233,0 -0.08114,0 -0.04233,0 -0.07761,0 -0.03175,0 -0.05997,0.00353 0.0388,-0.1128886 0.08114,-0.275166 0.04233,-0.1622774 0.08114,-0.3386659 0.0388,-0.1763886 0.07408,-0.3492493 0.03528,-0.1728607 0.05997,-0.3174993 0.02822,-0.1446386 0.04586,-0.2469439 0.01764,-0.10230532 0.02117,-0.13405525 0.07055,0.0141111 0.148166,0.0141111 0.0882,0 0.144639,-0.0141111 z" />
      <path
         inkscape:connector-curvature="0"
         id="path11295"
         style="font-style:italic;font-variant:normal;font-weight:normal;font-stretch:normal;font-family:Optima;-inkscape-font-specification:'Optima Italic';fill:#000000;fill-opacity:1;stroke-width:0.264583"
         d="m 37.188632,1.0406922 q -0.07055,0 -0.158749,0.028222 -0.08467,0.024694 -0.169333,0.09525 -0.08114,0.067028 -0.151695,0.1869718 -0.07055,0.1164164 -0.10936,0.2998604 0.10936,0.00706 0.239888,0.010583 0.130527,0.00353 0.239888,0.00353 h 0.112889 q 0.08819,0 0.186972,0 0.09878,-0.00353 0.169333,-0.014111 0.0071,-0.03175 0.01411,-0.074083 0.0071,-0.045861 0.0071,-0.1164164 0,-0.1164165 -0.03528,-0.1975552 -0.03175,-0.081139 -0.08819,-0.1305275 -0.05292,-0.049389 -0.119944,-0.070555 -0.06703,-0.021167 -0.137583,-0.021167 z m 0.370416,1.4746079 q -0.130527,0.077611 -0.278694,0.1093609 -0.144638,0.035278 -0.296333,0.035278 -0.112888,0 -0.23636,-0.03175 -0.123472,-0.028222 -0.229305,-0.1093608 -0.102305,-0.084666 -0.169333,-0.2222495 -0.06703,-0.1411108 -0.06703,-0.352777 0,-0.2081385 0.0635,-0.3915825 0.06703,-0.1834441 0.186972,-0.3174993 0.119944,-0.1375831 0.285749,-0.215194 0.169333,-0.0811387 0.370416,-0.0811387 0.127,0 0.239889,0.0317499 0.112888,0.0282222 0.201082,0.0987776 0.08819,0.067028 0.137583,0.1799163 0.05292,0.1093608 0.05292,0.2681105 0,0.098777 -0.01411,0.1693329 -0.01411,0.070555 -0.02469,0.1164164 -0.07408,-0.00353 -0.134056,-0.00706 -0.05997,-0.00353 -0.119944,-0.00353 -0.05644,-0.00353 -0.119944,-0.00353 -0.0635,-0.00353 -0.144639,-0.00353 H 37.00166 36.892299 q -0.08467,0 -0.169332,0.00353 -0.08467,0.00353 -0.148167,0.00353 -0.0071,0.035278 -0.01411,0.084666 -0.0035,0.049389 -0.0035,0.1199442 0,0.1728607 0.05292,0.2786938 0.05292,0.1058331 0.127,0.1658052 0.07761,0.059972 0.165805,0.081139 0.09172,0.021167 0.165805,0.021167 0.102305,0 0.183444,-0.021167 0.08467,-0.021167 0.148166,-0.049389 0.06703,-0.028222 0.112889,-0.059972 0.04939,-0.035278 0.08114,-0.056444 h 0.01058 z" />
      <path
         inkscape:connector-curvature="0"
         id="path11297"
         style="font-style:italic;font-variant:normal;font-weight:normal;font-stretch:normal;font-family:Optima;-inkscape-font-specification:'Optima Italic';fill:#000000;fill-opacity:1;stroke-width:0.264583"
         d="m 39.068934,1.2453029 q -0.02822,-0.010583 -0.0635,-0.021167 -0.03528,-0.010583 -0.07761,-0.010583 -0.123472,0 -0.243416,0.1058331 -0.116416,0.1023053 -0.176388,0.3139715 -0.0071,0.014111 -0.02469,0.081139 -0.01411,0.067028 -0.03528,0.1622774 -0.02117,0.091722 -0.04586,0.2046107 -0.02117,0.1093609 -0.04233,0.215194 -0.02117,0.1058331 -0.0388,0.1975551 -0.01411,0.088194 -0.02117,0.1340552 -0.02822,-0.00353 -0.05997,-0.00353 -0.03175,0 -0.07055,0 -0.03881,0 -0.07761,0 -0.03528,0 -0.06703,0.00353 0.02117,-0.059972 0.05292,-0.183444 0.03175,-0.1269997 0.06703,-0.2822216 0.03528,-0.1552219 0.07056,-0.3280826 0.0388,-0.1728608 0.06703,-0.3351382 0.03175,-0.1622774 0.05645,-0.2998604 0.02469,-0.1411108 0.03528,-0.23283285 0.02822,0.007056 0.0635,0.0105833 0.03881,0.003528 0.07408,0.003528 0.07761,0 0.130528,-0.0141111 -0.0071,0.0211666 -0.02117,0.0634998 -0.01058,0.038805 -0.02469,0.091722 -0.01411,0.052917 -0.02822,0.1128887 -0.01058,0.056444 -0.01764,0.1128886 h 0.01764 q 0.05644,-0.070555 0.112888,-0.1446386 0.05997,-0.074083 0.123472,-0.1305274 0.06703,-0.059972 0.148167,-0.0952496 0.08114,-0.0388055 0.183444,-0.0352777 -0.01764,0.088194 -0.02822,0.15522185 -0.0071,0.0635 -0.0071,0.1305275 l -0.03175,0.017639 z" />
    </g>
    <g
       transform="translate(-0.589839,0.5588041)"
       style="font-size:2.82222px;line-height:1.25;font-family:Futura;-inkscape-font-specification:Futura;stroke-width:0.264583"
       id="text11302"
       aria-label="x">
      <path
         inkscape:connector-curvature="0"
         id="path11304"
         style="font-style:italic;font-variant:normal;font-weight:normal;font-stretch:normal;font-family:Optima;-inkscape-font-specification:'Optima Italic';fill:#000000;fill-opacity:1;stroke-width:0.264583"
         d="M 15.784688,9.5108892 Q 15.702844,9.341556 15.609711,9.1722228 15.516577,9.0028896 15.426266,8.8335564 q 0.03387,0.00564 0.06773,0.00847 0.03669,0.00282 0.07056,0.00282 0.07338,0 0.118533,-0.011289 0.0085,0.019755 0.02822,0.070555 0.02258,0.0508 0.04798,0.1072444 0.0254,0.053622 0.04516,0.1044221 0.02258,0.047978 0.03104,0.064911 0.02258,0.042333 0.03951,0.087489 0.01976,0.042333 0.04233,0.084667 0.06209,-0.073378 0.118533,-0.1495777 0.05927,-0.0762 0.115711,-0.1523998 0.0085,-0.014111 0.03104,-0.045156 0.02258,-0.031044 0.04516,-0.064911 0.0254,-0.036689 0.04516,-0.064911 0.02258,-0.031044 0.03104,-0.042333 0.04233,0.011289 0.09031,0.011289 0.05644,0 0.1016,-0.011289 -0.07902,0.084667 -0.166511,0.1834443 -0.08467,0.095955 -0.163689,0.1834443 -0.0762,0.087489 -0.132644,0.1552221 -0.05645,0.064911 -0.0762,0.087489 0.04516,0.087489 0.07338,0.141111 0.03104,0.053622 0.05645,0.1016 0.0254,0.045155 0.05362,0.098778 0.02822,0.053622 0.07055,0.1382888 0.03104,0.062089 0.06491,0.1241781 0.03387,0.05927 0.06773,0.115711 -0.02822,-0.0028 -0.06209,-0.0028 -0.03104,0 -0.06491,0 -0.03104,0 -0.06491,0 -0.03104,0 -0.05927,0.0028 -0.0085,-0.0085 -0.02822,-0.04798 -0.01693,-0.03951 -0.03669,-0.08467 -0.01975,-0.045157 -0.03669,-0.084668 -0.01693,-0.039511 -0.02258,-0.053622 -0.04798,-0.115711 -0.08184,-0.1777998 -0.03387,-0.064911 -0.05644,-0.1128888 -0.09313,0.115711 -0.158045,0.2003776 -0.06491,0.081844 -0.112888,0.1467554 -0.04798,0.064911 -0.08467,0.1185336 -0.03669,0.0508 -0.07338,0.09596 -0.01975,-0.0028 -0.03951,-0.0028 -0.01693,0 -0.04798,0 -0.03104,0 -0.05362,0 -0.01975,0 -0.03669,0.0028 0.04516,-0.05362 0.110067,-0.127 0.06773,-0.076199 0.141111,-0.1608663 0.0762,-0.084667 0.155222,-0.1777998 0.07902,-0.093133 0.155222,-0.1862666 z" />
    </g>
    <g
       aria-label="x"
       id="text11302-2"
       style="font-size:2.82222px;line-height:1.25;font-family:Futura;-inkscape-font-specification:Futura;display:inline;opacity:1;stroke-width:0.264583"
       transform="translate(14.650161,0.55880413)">
      <path
         d="M 15.784688,9.5108892 Q 15.702844,9.341556 15.609711,9.1722228 15.516577,9.0028896 15.426266,8.8335564 q 0.03387,0.00564 0.06773,0.00847 0.03669,0.00282 0.07056,0.00282 0.07338,0 0.118533,-0.011289 0.0085,0.019755 0.02822,0.070555 0.02258,0.0508 0.04798,0.1072444 0.0254,0.053622 0.04516,0.1044221 0.02258,0.047978 0.03104,0.064911 0.02258,0.042333 0.03951,0.087489 0.01976,0.042333 0.04233,0.084667 0.06209,-0.073378 0.118533,-0.1495777 0.05927,-0.0762 0.115711,-0.1523998 0.0085,-0.014111 0.03104,-0.045156 0.02258,-0.031044 0.04516,-0.064911 0.0254,-0.036689 0.04516,-0.064911 0.02258,-0.031044 0.03104,-0.042333 0.04233,0.011289 0.09031,0.011289 0.05644,0 0.1016,-0.011289 -0.07902,0.084667 -0.166511,0.1834443 -0.08467,0.095955 -0.163689,0.1834443 -0.0762,0.087489 -0.132644,0.1552221 -0.05645,0.064911 -0.0762,0.087489 0.04516,0.087489 0.07338,0.141111 0.03104,0.053622 0.05645,0.1016 0.0254,0.045155 0.05362,0.098778 0.02822,0.053622 0.07055,0.1382888 0.03104,0.062089 0.06491,0.1241781 0.03387,0.05927 0.06773,0.115711 -0.02822,-0.0028 -0.06209,-0.0028 -0.03104,0 -0.06491,0 -0.03104,0 -0.06491,0 -0.03104,0 -0.05927,0.0028 -0.0085,-0.0085 -0.02822,-0.04798 -0.01693,-0.03951 -0.03669,-0.08467 -0.01975,-0.045157 -0.03669,-0.084668 -0.01693,-0.039511 -0.02258,-0.053622 -0.04798,-0.115711 -0.08184,-0.1777998 -0.03387,-0.064911 -0.05644,-0.1128888 -0.09313,0.115711 -0.158045,0.2003776 -0.06491,0.081844 -0.112888,0.1467554 -0.04798,0.064911 -0.08467,0.1185336 -0.03669,0.0508 -0.07338,0.09596 -0.01975,-0.0028 -0.03951,-0.0028 -0.01693,0 -0.04798,0 -0.03104,0 -0.05362,0 -0.01975,0 -0.03669,0.0028 0.04516,-0.05362 0.110067,-0.127 0.06773,-0.076199 0.141111,-0.1608663 0.0762,-0.084667 0.155222,-0.1777998 0.07902,-0.093133 0.155222,-0.1862666 z"
         style="font-style:italic;font-variant:normal;font-weight:normal;font-stretch:normal;font-family:Optima;-inkscape-font-specification:'Optima Italic';fill:#000000;fill-opacity:1;stroke-width:0.264583"
         id="path11304-9"
         inkscape:connector-curvature="0" />
    </g>
    <g
       aria-label="x"
       id="text11302-28"
       style="font-size:2.82222px;line-height:1.25;font-family:Futura;-inkscape-font-specification:Futura;display:inline;opacity:1;stroke-width:0.264583"
       transform="translate(-0.58983898,15.798804)">
      <path
         d="M 15.784688,9.5108892 Q 15.702844,9.341556 15.609711,9.1722228 15.516577,9.0028896 15.426266,8.8335564 q 0.03387,0.00564 0.06773,0.00847 0.03669,0.00282 0.07056,0.00282 0.07338,0 0.118533,-0.011289 0.0085,0.019755 0.02822,0.070555 0.02258,0.0508 0.04798,0.1072444 0.0254,0.053622 0.04516,0.1044221 0.02258,0.047978 0.03104,0.064911 0.02258,0.042333 0.03951,0.087489 0.01976,0.042333 0.04233,0.084667 0.06209,-0.073378 0.118533,-0.1495777 0.05927,-0.0762 0.115711,-0.1523998 0.0085,-0.014111 0.03104,-0.045156 0.02258,-0.031044 0.04516,-0.064911 0.0254,-0.036689 0.04516,-0.064911 0.02258,-0.031044 0.03104,-0.042333 0.04233,0.011289 0.09031,0.011289 0.05644,0 0.1016,-0.011289 -0.07902,0.084667 -0.166511,0.1834443 -0.08467,0.095955 -0.163689,0.1834443 -0.0762,0.087489 -0.132644,0.1552221 -0.05645,0.064911 -0.0762,0.087489 0.04516,0.087489 0.07338,0.141111 0.03104,0.053622 0.05645,0.1016 0.0254,0.045155 0.05362,0.098778 0.02822,0.053622 0.07055,0.1382888 0.03104,0.062089 0.06491,0.1241781 0.03387,0.05927 0.06773,0.115711 -0.02822,-0.0028 -0.06209,-0.0028 -0.03104,0 -0.06491,0 -0.03104,0 -0.06491,0 -0.03104,0 -0.05927,0.0028 -0.0085,-0.0085 -0.02822,-0.04798 -0.01693,-0.03951 -0.03669,-0.08467 -0.01975,-0.045157 -0.03669,-0.084668 -0.01693,-0.039511 -0.02258,-0.053622 -0.04798,-0.115711 -0.08184,-0.1777998 -0.03387,-0.064911 -0.05644,-0.1128888 -0.09313,0.115711 -0.158045,0.2003776 -0.06491,0.081844 -0.112888,0.1467554 -0.04798,0.064911 -0.08467,0.1185336 -0.03669,0.0508 -0.07338,0.09596 -0.01975,-0.0028 -0.03951,-0.0028 -0.01693,0 -0.04798,0 -0.03104,0 -0.05362,0 -0.01975,0 -0.03669,0.0028 0.04516,-0.05362 0.110067,-0.127 0.06773,-0.076199 0.141111,-0.1608663 0.0762,-0.084667 0.155222,-0.1777998 0.07902,-0.093133 0.155222,-0.1862666 z"
         style="font-style:italic;font-variant:normal;font-weight:normal;font-stretch:normal;font-family:Optima;-inkscape-font-specification:'Optima Italic';fill:#000000;fill-opacity:1;stroke-width:0.264583"
         id="path11304-92"
         inkscape:connector-curvature="0" />
    </g>
    <g
       transform="translate(14.650161,15.798804)"
       style="font-size:2.82222px;line-height:1.25;font-family:Futura;-inkscape-font-specification:Futura;display:inline;opacity:1;stroke-width:0.264583"
       id="text11302-2-5"
       aria-label="x">
      <path
         inkscape:connector-curvature="0"
         id="path11304-9-6"
         style="font-style:italic;font-variant:normal;font-weight:normal;font-stretch:normal;font-family:Optima;-inkscape-font-specification:'Optima Italic';fill:#000000;fill-opacity:1;stroke-width:0.264583"
         d="M 15.784688,9.5108892 Q 15.702844,9.341556 15.609711,9.1722228 15.516577,9.0028896 15.426266,8.8335564 q 0.03387,0.00564 0.06773,0.00847 0.03669,0.00282 0.07056,0.00282 0.07338,0 0.118533,-0.011289 0.0085,0.019755 0.02822,0.070555 0.02258,0.0508 0.04798,0.1072444 0.0254,0.053622 0.04516,0.1044221 0.02258,0.047978 0.03104,0.064911 0.02258,0.042333 0.03951,0.087489 0.01976,0.042333 0.04233,0.084667 0.06209,-0.073378 0.118533,-0.1495777 0.05927,-0.0762 0.115711,-0.1523998 0.0085,-0.014111 0.03104,-0.045156 0.02258,-0.031044 0.04516,-0.064911 0.0254,-0.036689 0.04516,-0.064911 0.02258,-0.031044 0.03104,-0.042333 0.04233,0.011289 0.09031,0.011289 0.05644,0 0.1016,-0.011289 -0.07902,0.084667 -0.166511,0.1834443 -0.08467,0.095955 -0.163689,0.1834443 -0.0762,0.087489 -0.132644,0.1552221 -0.05645,0.064911 -0.0762,0.087489 0.04516,0.087489 0.07338,0.141111 0.03104,0.053622 0.05645,0.1016 0.0254,0.045155 0.05362,0.098778 0.02822,0.053622 0.07055,0.1382888 0.03104,0.062089 0.06491,0.1241781 0.03387,0.05927 0.06773,0.115711 -0.02822,-0.0028 -0.06209,-0.0028 -0.03104,0 -0.06491,0 -0.03104,0 -0.06491,0 -0.03104,0 -0.05927,0.0028 -0.0085,-0.0085 -0.02822,-0.04798 -0.01693,-0.03951 -0.03669,-0.08467 -0.01975,-0.045157 -0.03669,-0.084668 -0.01693,-0.039511 -0.02258,-0.053622 -0.04798,-0.115711 -0.08184,-0.1777998 -0.03387,-0.064911 -0.05644,-0.1128888 -0.09313,0.115711 -0.158045,0.2003776 -0.06491,0.081844 -0.112888,0.1467554 -0.04798,0.064911 -0.08467,0.1185336 -0.03669,0.0508 -0.07338,0.09596 -0.01975,-0.0028 -0.03951,-0.0028 -0.01693,0 -0.04798,0 -0.03104,0 -0.05362,0 -0.01975,0 -0.03669,0.0028 0.04516,-0.05362 0.110067,-0.127 0.06773,-0.076199 0.141111,-0.1608663 0.0762,-0.084667 0.155222,-0.1777998 0.07902,-0.093133 0.155222,-0.1862666 z" />
    </g>
    <g
       aria-label="x"
       id="text11302-7"
       style="font-size:2.82222px;line-height:1.25;font-family:Futura;-inkscape-font-specification:Futura;display:inline;opacity:1;stroke-width:0.264583"
       transform="translate(-0.58983898,31.038804)">
      <path
         d="M 15.784688,9.5108892 Q 15.702844,9.341556 15.609711,9.1722228 15.516577,9.0028896 15.426266,8.8335564 q 0.03387,0.00564 0.06773,0.00847 0.03669,0.00282 0.07056,0.00282 0.07338,0 0.118533,-0.011289 0.0085,0.019755 0.02822,0.070555 0.02258,0.0508 0.04798,0.1072444 0.0254,0.053622 0.04516,0.1044221 0.02258,0.047978 0.03104,0.064911 0.02258,0.042333 0.03951,0.087489 0.01976,0.042333 0.04233,0.084667 0.06209,-0.073378 0.118533,-0.1495777 0.05927,-0.0762 0.115711,-0.1523998 0.0085,-0.014111 0.03104,-0.045156 0.02258,-0.031044 0.04516,-0.064911 0.0254,-0.036689 0.04516,-0.064911 0.02258,-0.031044 0.03104,-0.042333 0.04233,0.011289 0.09031,0.011289 0.05644,0 0.1016,-0.011289 -0.07902,0.084667 -0.166511,0.1834443 -0.08467,0.095955 -0.163689,0.1834443 -0.0762,0.087489 -0.132644,0.1552221 -0.05645,0.064911 -0.0762,0.087489 0.04516,0.087489 0.07338,0.141111 0.03104,0.053622 0.05645,0.1016 0.0254,0.045155 0.05362,0.098778 0.02822,0.053622 0.07055,0.1382888 0.03104,0.062089 0.06491,0.1241781 0.03387,0.05927 0.06773,0.115711 -0.02822,-0.0028 -0.06209,-0.0028 -0.03104,0 -0.06491,0 -0.03104,0 -0.06491,0 -0.03104,0 -0.05927,0.0028 -0.0085,-0.0085 -0.02822,-0.04798 -0.01693,-0.03951 -0.03669,-0.08467 -0.01975,-0.045157 -0.03669,-0.084668 -0.01693,-0.039511 -0.02258,-0.053622 -0.04798,-0.115711 -0.08184,-0.1777998 -0.03387,-0.064911 -0.05644,-0.1128888 -0.09313,0.115711 -0.158045,0.2003776 -0.06491,0.081844 -0.112888,0.1467554 -0.04798,0.064911 -0.08467,0.1185336 -0.03669,0.0508 -0.07338,0.09596 -0.01975,-0.0028 -0.03951,-0.0028 -0.01693,0 -0.04798,0 -0.03104,0 -0.05362,0 -0.01975,0 -0.03669,0.0028 0.04516,-0.05362 0.110067,-0.127 0.06773,-0.076199 0.141111,-0.1608663 0.0762,-0.084667 0.155222,-0.1777998 0.07902,-0.093133 0.155222,-0.1862666 z"
         style="font-style:italic;font-variant:normal;font-weight:normal;font-stretch:normal;font-family:Optima;-inkscape-font-specification:'Optima Italic';fill:#000000;fill-opacity:1;stroke-width:0.264583"
         id="path11304-2"
         inkscape:connector-curvature="0" />
    </g>
    <g
       transform="translate(14.650161,31.038804)"
       style="font-size:2.82222px;line-height:1.25;font-family:Futura;-inkscape-font-specification:Futura;display:inline;opacity:1;stroke-width:0.264583"
       id="text11302-2-8"
       aria-label="x">
      <path
         inkscape:connector-curvature="0"
         id="path11304-9-0"
         style="font-style:italic;font-variant:normal;font-weight:normal;font-stretch:normal;font-family:Optima;-inkscape-font-specification:'Optima Italic';fill:#000000;fill-opacity:1;stroke-width:0.264583"
         d="M 15.784688,9.5108892 Q 15.702844,9.341556 15.609711,9.1722228 15.516577,9.0028896 15.426266,8.8335564 q 0.03387,0.00564 0.06773,0.00847 0.03669,0.00282 0.07056,0.00282 0.07338,0 0.118533,-0.011289 0.0085,0.019755 0.02822,0.070555 0.02258,0.0508 0.04798,0.1072444 0.0254,0.053622 0.04516,0.1044221 0.02258,0.047978 0.03104,0.064911 0.02258,0.042333 0.03951,0.087489 0.01976,0.042333 0.04233,0.084667 0.06209,-0.073378 0.118533,-0.1495777 0.05927,-0.0762 0.115711,-0.1523998 0.0085,-0.014111 0.03104,-0.045156 0.02258,-0.031044 0.04516,-0.064911 0.0254,-0.036689 0.04516,-0.064911 0.02258,-0.031044 0.03104,-0.042333 0.04233,0.011289 0.09031,0.011289 0.05644,0 0.1016,-0.011289 -0.07902,0.084667 -0.166511,0.1834443 -0.08467,0.095955 -0.163689,0.1834443 -0.0762,0.087489 -0.132644,0.1552221 -0.05645,0.064911 -0.0762,0.087489 0.04516,0.087489 0.07338,0.141111 0.03104,0.053622 0.05645,0.1016 0.0254,0.045155 0.05362,0.098778 0.02822,0.053622 0.07055,0.1382888 0.03104,0.062089 0.06491,0.1241781 0.03387,0.05927 0.06773,0.115711 -0.02822,-0.0028 -0.06209,-0.0028 -0.03104,0 -0.06491,0 -0.03104,0 -0.06491,0 -0.03104,0 -0.05927,0.0028 -0.0085,-0.0085 -0.02822,-0.04798 -0.01693,-0.03951 -0.03669,-0.08467 -0.01975,-0.045157 -0.03669,-0.084668 -0.01693,-0.039511 -0.02258,-0.053622 -0.04798,-0.115711 -0.08184,-0.1777998 -0.03387,-0.064911 -0.05644,-0.1128888 -0.09313,0.115711 -0.158045,0.2003776 -0.06491,0.081844 -0.112888,0.1467554 -0.04798,0.064911 -0.08467,0.1185336 -0.03669,0.0508 -0.07338,0.09596 -0.01975,-0.0028 -0.03951,-0.0028 -0.01693,0 -0.04798,0 -0.03104,0 -0.05362,0 -0.01975,0 -0.03669,0.0028 0.04516,-0.05362 0.110067,-0.127 0.06773,-0.076199 0.141111,-0.1608663 0.0762,-0.084667 0.155222,-0.1777998 0.07902,-0.093133 0.155222,-0.1862666 z" />
    </g>
    <g
       aria-label="x"
       id="text11302-0"
       style="font-size:2.82222px;line-height:1.25;font-family:Futura;-inkscape-font-specification:Futura;display:inline;opacity:1;stroke-width:0.264583"
       transform="translate(-0.58983898,46.278804)">
      <path
         d="M 15.784688,9.5108892 Q 15.702844,9.341556 15.609711,9.1722228 15.516577,9.0028896 15.426266,8.8335564 q 0.03387,0.00564 0.06773,0.00847 0.03669,0.00282 0.07056,0.00282 0.07338,0 0.118533,-0.011289 0.0085,0.019755 0.02822,0.070555 0.02258,0.0508 0.04798,0.1072444 0.0254,0.053622 0.04516,0.1044221 0.02258,0.047978 0.03104,0.064911 0.02258,0.042333 0.03951,0.087489 0.01976,0.042333 0.04233,0.084667 0.06209,-0.073378 0.118533,-0.1495777 0.05927,-0.0762 0.115711,-0.1523998 0.0085,-0.014111 0.03104,-0.045156 0.02258,-0.031044 0.04516,-0.064911 0.0254,-0.036689 0.04516,-0.064911 0.02258,-0.031044 0.03104,-0.042333 0.04233,0.011289 0.09031,0.011289 0.05644,0 0.1016,-0.011289 -0.07902,0.084667 -0.166511,0.1834443 -0.08467,0.095955 -0.163689,0.1834443 -0.0762,0.087489 -0.132644,0.1552221 -0.05645,0.064911 -0.0762,0.087489 0.04516,0.087489 0.07338,0.141111 0.03104,0.053622 0.05645,0.1016 0.0254,0.045155 0.05362,0.098778 0.02822,0.053622 0.07055,0.1382888 0.03104,0.062089 0.06491,0.1241781 0.03387,0.05927 0.06773,0.115711 -0.02822,-0.0028 -0.06209,-0.0028 -0.03104,0 -0.06491,0 -0.03104,0 -0.06491,0 -0.03104,0 -0.05927,0.0028 -0.0085,-0.0085 -0.02822,-0.04798 -0.01693,-0.03951 -0.03669,-0.08467 -0.01975,-0.045157 -0.03669,-0.084668 -0.01693,-0.039511 -0.02258,-0.053622 -0.04798,-0.115711 -0.08184,-0.1777998 -0.03387,-0.064911 -0.05644,-0.1128888 -0.09313,0.115711 -0.158045,0.2003776 -0.06491,0.081844 -0.112888,0.1467554 -0.04798,0.064911 -0.08467,0.1185336 -0.03669,0.0508 -0.07338,0.09596 -0.01975,-0.0028 -0.03951,-0.0028 -0.01693,0 -0.04798,0 -0.03104,0 -0.05362,0 -0.01975,0 -0.03669,0.0028 0.04516,-0.05362 0.110067,-0.127 0.06773,-0.076199 0.141111,-0.1608663 0.0762,-0.084667 0.155222,-0.1777998 0.07902,-0.093133 0.155222,-0.1862666 z"
         style="font-style:italic;font-variant:normal;font-weight:normal;font-stretch:normal;font-family:Optima;-inkscape-font-specification:'Optima Italic';fill:#000000;fill-opacity:1;stroke-width:0.264583"
         id="path11304-8"
         inkscape:connector-curvature="0" />
    </g>
    <g
       transform="translate(14.650161,46.278804)"
       style="font-size:2.82222px;line-height:1.25;font-family:Futura;-inkscape-font-specification:Futura;display:inline;opacity:1;stroke-width:0.264583"
       id="text11302-2-2"
       aria-label="x">
      <path
         inkscape:connector-curvature="0"
         id="path11304-9-5"
         style="font-style:italic;font-variant:normal;font-weight:normal;font-stretch:normal;font-family:Optima;-inkscape-font-specification:'Optima Italic';fill:#000000;fill-opacity:1;stroke-width:0.264583"
         d="M 15.784688,9.5108892 Q 15.702844,9.341556 15.609711,9.1722228 15.516577,9.0028896 15.426266,8.8335564 q 0.03387,0.00564 0.06773,0.00847 0.03669,0.00282 0.07056,0.00282 0.07338,0 0.118533,-0.011289 0.0085,0.019755 0.02822,0.070555 0.02258,0.0508 0.04798,0.1072444 0.0254,0.053622 0.04516,0.1044221 0.02258,0.047978 0.03104,0.064911 0.02258,0.042333 0.03951,0.087489 0.01976,0.042333 0.04233,0.084667 0.06209,-0.073378 0.118533,-0.1495777 0.05927,-0.0762 0.115711,-0.1523998 0.0085,-0.014111 0.03104,-0.045156 0.02258,-0.031044 0.04516,-0.064911 0.0254,-0.036689 0.04516,-0.064911 0.02258,-0.031044 0.03104,-0.042333 0.04233,0.011289 0.09031,0.011289 0.05644,0 0.1016,-0.011289 -0.07902,0.084667 -0.166511,0.1834443 -0.08467,0.095955 -0.163689,0.1834443 -0.0762,0.087489 -0.132644,0.1552221 -0.05645,0.064911 -0.0762,0.087489 0.04516,0.087489 0.07338,0.141111 0.03104,0.053622 0.05645,0.1016 0.0254,0.045155 0.05362,0.098778 0.02822,0.053622 0.07055,0.1382888 0.03104,0.062089 0.06491,0.1241781 0.03387,0.05927 0.06773,0.115711 -0.02822,-0.0028 -0.06209,-0.0028 -0.03104,0 -0.06491,0 -0.03104,0 -0.06491,0 -0.03104,0 -0.05927,0.0028 -0.0085,-0.0085 -0.02822,-0.04798 -0.01693,-0.03951 -0.03669,-0.08467 -0.01975,-0.045157 -0.03669,-0.084668 -0.01693,-0.039511 -0.02258,-0.053622 -0.04798,-0.115711 -0.08184,-0.1777998 -0.03387,-0.064911 -0.05644,-0.1128888 -0.09313,0.115711 -0.158045,0.2003776 -0.06491,0.081844 -0.112888,0.1467554 -0.04798,0.064911 -0.08467,0.1185336 -0.03669,0.0508 -0.07338,0.09596 -0.01975,-0.0028 -0.03951,-0.0028 -0.01693,0 -0.04798,0 -0.03104,0 -0.05362,0 -0.01975,0 -0.03669,0.0028 0.04516,-0.05362 0.110067,-0.127 0.06773,-0.076199 0.141111,-0.1608663 0.0762,-0.084667 0.155222,-0.1777998 0.07902,-0.093133 0.155222,-0.1862666 z" />
    </g>
    <g
       aria-label="x"
       id="text11302-8"
       style="font-size:2.82222px;line-height:1.25;font-family:Futura;-inkscape-font-specification:Futura;display:inline;opacity:1;stroke-width:0.264583"
       transform="translate(-0.58983898,61.518804)">
      <path
         d="M 15.784688,9.5108892 Q 15.702844,9.341556 15.609711,9.1722228 15.516577,9.0028896 15.426266,8.8335564 q 0.03387,0.00564 0.06773,0.00847 0.03669,0.00282 0.07056,0.00282 0.07338,0 0.118533,-0.011289 0.0085,0.019755 0.02822,0.070555 0.02258,0.0508 0.04798,0.1072444 0.0254,0.053622 0.04516,0.1044221 0.02258,0.047978 0.03104,0.064911 0.02258,0.042333 0.03951,0.087489 0.01976,0.042333 0.04233,0.084667 0.06209,-0.073378 0.118533,-0.1495777 0.05927,-0.0762 0.115711,-0.1523998 0.0085,-0.014111 0.03104,-0.045156 0.02258,-0.031044 0.04516,-0.064911 0.0254,-0.036689 0.04516,-0.064911 0.02258,-0.031044 0.03104,-0.042333 0.04233,0.011289 0.09031,0.011289 0.05644,0 0.1016,-0.011289 -0.07902,0.084667 -0.166511,0.1834443 -0.08467,0.095955 -0.163689,0.1834443 -0.0762,0.087489 -0.132644,0.1552221 -0.05645,0.064911 -0.0762,0.087489 0.04516,0.087489 0.07338,0.141111 0.03104,0.053622 0.05645,0.1016 0.0254,0.045155 0.05362,0.098778 0.02822,0.053622 0.07055,0.1382888 0.03104,0.062089 0.06491,0.1241781 0.03387,0.05927 0.06773,0.115711 -0.02822,-0.0028 -0.06209,-0.0028 -0.03104,0 -0.06491,0 -0.03104,0 -0.06491,0 -0.03104,0 -0.05927,0.0028 -0.0085,-0.0085 -0.02822,-0.04798 -0.01693,-0.03951 -0.03669,-0.08467 -0.01975,-0.045157 -0.03669,-0.084668 -0.01693,-0.039511 -0.02258,-0.053622 -0.04798,-0.115711 -0.08184,-0.1777998 -0.03387,-0.064911 -0.05644,-0.1128888 -0.09313,0.115711 -0.158045,0.2003776 -0.06491,0.081844 -0.112888,0.1467554 -0.04798,0.064911 -0.08467,0.1185336 -0.03669,0.0508 -0.07338,0.09596 -0.01975,-0.0028 -0.03951,-0.0028 -0.01693,0 -0.04798,0 -0.03104,0 -0.05362,0 -0.01975,0 -0.03669,0.0028 0.04516,-0.05362 0.110067,-0.127 0.06773,-0.076199 0.141111,-0.1608663 0.0762,-0.084667 0.155222,-0.1777998 0.07902,-0.093133 0.155222,-0.1862666 z"
         style="font-style:italic;font-variant:normal;font-weight:normal;font-stretch:normal;font-family:Optima;-inkscape-font-specification:'Optima Italic';fill:#000000;fill-opacity:1;stroke-width:0.264583"
         id="path11304-0"
         inkscape:connector-curvature="0" />
    </g>
    <g
       transform="translate(14.650161,61.518804)"
       style="font-size:2.82222px;line-height:1.25;font-family:Futura;-inkscape-font-specification:Futura;display:inline;opacity:1;stroke-width:0.264583"
       id="text11302-2-3"
       aria-label="x">
      <path
         inkscape:connector-curvature="0"
         id="path11304-9-2"
         style="font-style:italic;font-variant:normal;font-weight:normal;font-stretch:normal;font-family:Optima;-inkscape-font-specification:'Optima Italic';fill:#000000;fill-opacity:1;stroke-width:0.264583"
         d="M 15.784688,9.5108892 Q 15.702844,9.341556 15.609711,9.1722228 15.516577,9.0028896 15.426266,8.8335564 q 0.03387,0.00564 0.06773,0.00847 0.03669,0.00282 0.07056,0.00282 0.07338,0 0.118533,-0.011289 0.0085,0.019755 0.02822,0.070555 0.02258,0.0508 0.04798,0.1072444 0.0254,0.053622 0.04516,0.1044221 0.02258,0.047978 0.03104,0.064911 0.02258,0.042333 0.03951,0.087489 0.01976,0.042333 0.04233,0.084667 0.06209,-0.073378 0.118533,-0.1495777 0.05927,-0.0762 0.115711,-0.1523998 0.0085,-0.014111 0.03104,-0.045156 0.02258,-0.031044 0.04516,-0.064911 0.0254,-0.036689 0.04516,-0.064911 0.02258,-0.031044 0.03104,-0.042333 0.04233,0.011289 0.09031,0.011289 0.05644,0 0.1016,-0.011289 -0.07902,0.084667 -0.166511,0.1834443 -0.08467,0.095955 -0.163689,0.1834443 -0.0762,0.087489 -0.132644,0.1552221 -0.05645,0.064911 -0.0762,0.087489 0.04516,0.087489 0.07338,0.141111 0.03104,0.053622 0.05645,0.1016 0.0254,0.045155 0.05362,0.098778 0.02822,0.053622 0.07055,0.1382888 0.03104,0.062089 0.06491,0.1241781 0.03387,0.05927 0.06773,0.115711 -0.02822,-0.0028 -0.06209,-0.0028 -0.03104,0 -0.06491,0 -0.03104,0 -0.06491,0 -0.03104,0 -0.05927,0.0028 -0.0085,-0.0085 -0.02822,-0.04798 -0.01693,-0.03951 -0.03669,-0.08467 -0.01975,-0.045157 -0.03669,-0.084668 -0.01693,-0.039511 -0.02258,-0.053622 -0.04798,-0.115711 -0.08184,-0.1777998 -0.03387,-0.064911 -0.05644,-0.1128888 -0.09313,0.115711 -0.158045,0.2003776 -0.06491,0.081844 -0.112888,0.1467554 -0.04798,0.064911 -0.08467,0.1185336 -0.03669,0.0508 -0.07338,0.09596 -0.01975,-0.0028 -0.03951,-0.0028 -0.01693,0 -0.04798,0 -0.03104,0 -0.05362,0 -0.01975,0 -0.03669,0.0028 0.04516,-0.05362 0.110067,-0.127 0.06773,-0.076199 0.141111,-0.1608663 0.0762,-0.084667 0.155222,-0.1777998 0.07902,-0.093133 0.155222,-0.1862666 z" />
    </g>
    <g
       aria-label="x"
       id="text11302-3"
       style="font-size:2.82222px;line-height:1.25;font-family:Futura;-inkscape-font-specification:Futura;display:inline;opacity:1;stroke-width:0.264583"
       transform="translate(-0.58983898,76.758804)">
      <path
         d="M 15.784688,9.5108892 Q 15.702844,9.341556 15.609711,9.1722228 15.516577,9.0028896 15.426266,8.8335564 q 0.03387,0.00564 0.06773,0.00847 0.03669,0.00282 0.07056,0.00282 0.07338,0 0.118533,-0.011289 0.0085,0.019755 0.02822,0.070555 0.02258,0.0508 0.04798,0.1072444 0.0254,0.053622 0.04516,0.1044221 0.02258,0.047978 0.03104,0.064911 0.02258,0.042333 0.03951,0.087489 0.01976,0.042333 0.04233,0.084667 0.06209,-0.073378 0.118533,-0.1495777 0.05927,-0.0762 0.115711,-0.1523998 0.0085,-0.014111 0.03104,-0.045156 0.02258,-0.031044 0.04516,-0.064911 0.0254,-0.036689 0.04516,-0.064911 0.02258,-0.031044 0.03104,-0.042333 0.04233,0.011289 0.09031,0.011289 0.05644,0 0.1016,-0.011289 -0.07902,0.084667 -0.166511,0.1834443 -0.08467,0.095955 -0.163689,0.1834443 -0.0762,0.087489 -0.132644,0.1552221 -0.05645,0.064911 -0.0762,0.087489 0.04516,0.087489 0.07338,0.141111 0.03104,0.053622 0.05645,0.1016 0.0254,0.045155 0.05362,0.098778 0.02822,0.053622 0.07055,0.1382888 0.03104,0.062089 0.06491,0.1241781 0.03387,0.05927 0.06773,0.115711 -0.02822,-0.0028 -0.06209,-0.0028 -0.03104,0 -0.06491,0 -0.03104,0 -0.06491,0 -0.03104,0 -0.05927,0.0028 -0.0085,-0.0085 -0.02822,-0.04798 -0.01693,-0.03951 -0.03669,-0.08467 -0.01975,-0.045157 -0.03669,-0.084668 -0.01693,-0.039511 -0.02258,-0.053622 -0.04798,-0.115711 -0.08184,-0.1777998 -0.03387,-0.064911 -0.05644,-0.1128888 -0.09313,0.115711 -0.158045,0.2003776 -0.06491,0.081844 -0.112888,0.1467554 -0.04798,0.064911 -0.08467,0.1185336 -0.03669,0.0508 -0.07338,0.09596 -0.01975,-0.0028 -0.03951,-0.0028 -0.01693,0 -0.04798,0 -0.03104,0 -0.05362,0 -0.01975,0 -0.03669,0.0028 0.04516,-0.05362 0.110067,-0.127 0.06773,-0.076199 0.141111,-0.1608663 0.0762,-0.084667 0.155222,-0.1777998 0.07902,-0.093133 0.155222,-0.1862666 z"
         style="font-style:italic;font-variant:normal;font-weight:normal;font-stretch:normal;font-family:Optima;-inkscape-font-specification:'Optima Italic';fill:#000000;fill-opacity:1;stroke-width:0.264583"
         id="path11304-3"
         inkscape:connector-curvature="0" />
    </g>
    <g
       transform="translate(14.650161,76.758804)"
       style="font-size:2.82222px;line-height:1.25;font-family:Futura;-inkscape-font-specification:Futura;display:inline;opacity:1;stroke-width:0.264583"
       id="text11302-2-21"
       aria-label="x">
      <path
         inkscape:connector-curvature="0"
         id="path11304-9-9"
         style="font-style:italic;font-variant:normal;font-weight:normal;font-stretch:normal;font-family:Optima;-inkscape-font-specification:'Optima Italic';fill:#000000;fill-opacity:1;stroke-width:0.264583"
         d="M 15.784688,9.5108892 Q 15.702844,9.341556 15.609711,9.1722228 15.516577,9.0028896 15.426266,8.8335564 q 0.03387,0.00564 0.06773,0.00847 0.03669,0.00282 0.07056,0.00282 0.07338,0 0.118533,-0.011289 0.0085,0.019755 0.02822,0.070555 0.02258,0.0508 0.04798,0.1072444 0.0254,0.053622 0.04516,0.1044221 0.02258,0.047978 0.03104,0.064911 0.02258,0.042333 0.03951,0.087489 0.01976,0.042333 0.04233,0.084667 0.06209,-0.073378 0.118533,-0.1495777 0.05927,-0.0762 0.115711,-0.1523998 0.0085,-0.014111 0.03104,-0.045156 0.02258,-0.031044 0.04516,-0.064911 0.0254,-0.036689 0.04516,-0.064911 0.02258,-0.031044 0.03104,-0.042333 0.04233,0.011289 0.09031,0.011289 0.05644,0 0.1016,-0.011289 -0.07902,0.084667 -0.166511,0.1834443 -0.08467,0.095955 -0.163689,0.1834443 -0.0762,0.087489 -0.132644,0.1552221 -0.05645,0.064911 -0.0762,0.087489 0.04516,0.087489 0.07338,0.141111 0.03104,0.053622 0.05645,0.1016 0.0254,0.045155 0.05362,0.098778 0.02822,0.053622 0.07055,0.1382888 0.03104,0.062089 0.06491,0.1241781 0.03387,0.05927 0.06773,0.115711 -0.02822,-0.0028 -0.06209,-0.0028 -0.03104,0 -0.06491,0 -0.03104,0 -0.06491,0 -0.03104,0 -0.05927,0.0028 -0.0085,-0.0085 -0.02822,-0.04798 -0.01693,-0.03951 -0.03669,-0.08467 -0.01975,-0.045157 -0.03669,-0.084668 -0.01693,-0.039511 -0.02258,-0.053622 -0.04798,-0.115711 -0.08184,-0.1777998 -0.03387,-0.064911 -0.05644,-0.1128888 -0.09313,0.115711 -0.158045,0.2003776 -0.06491,0.081844 -0.112888,0.1467554 -0.04798,0.064911 -0.08467,0.1185336 -0.03669,0.0508 -0.07338,0.09596 -0.01975,-0.0028 -0.03951,-0.0028 -0.01693,0 -0.04798,0 -0.03104,0 -0.05362,0 -0.01975,0 -0.03669,0.0028 0.04516,-0.05362 0.110067,-0.127 0.06773,-0.076199 0.141111,-0.1608663 0.0762,-0.084667 0.155222,-0.1777998 0.07902,-0.093133 0.155222,-0.1862666 z" />
    </g>
    <g
       aria-label="x"
       id="text11302-1"
       style="font-size:2.82222px;line-height:1.25;font-family:Futura;-inkscape-font-specification:Futura;display:inline;opacity:1;stroke-width:0.264583"
       transform="translate(-0.58983898,91.998804)">
      <path
         d="M 15.784688,9.5108892 Q 15.702844,9.341556 15.609711,9.1722228 15.516577,9.0028896 15.426266,8.8335564 q 0.03387,0.00564 0.06773,0.00847 0.03669,0.00282 0.07056,0.00282 0.07338,0 0.118533,-0.011289 0.0085,0.019755 0.02822,0.070555 0.02258,0.0508 0.04798,0.1072444 0.0254,0.053622 0.04516,0.1044221 0.02258,0.047978 0.03104,0.064911 0.02258,0.042333 0.03951,0.087489 0.01976,0.042333 0.04233,0.084667 0.06209,-0.073378 0.118533,-0.1495777 0.05927,-0.0762 0.115711,-0.1523998 0.0085,-0.014111 0.03104,-0.045156 0.02258,-0.031044 0.04516,-0.064911 0.0254,-0.036689 0.04516,-0.064911 0.02258,-0.031044 0.03104,-0.042333 0.04233,0.011289 0.09031,0.011289 0.05644,0 0.1016,-0.011289 -0.07902,0.084667 -0.166511,0.1834443 -0.08467,0.095955 -0.163689,0.1834443 -0.0762,0.087489 -0.132644,0.1552221 -0.05645,0.064911 -0.0762,0.087489 0.04516,0.087489 0.07338,0.141111 0.03104,0.053622 0.05645,0.1016 0.0254,0.045155 0.05362,0.098778 0.02822,0.053622 0.07055,0.1382888 0.03104,0.062089 0.06491,0.1241781 0.03387,0.05927 0.06773,0.115711 -0.02822,-0.0028 -0.06209,-0.0028 -0.03104,0 -0.06491,0 -0.03104,0 -0.06491,0 -0.03104,0 -0.05927,0.0028 -0.0085,-0.0085 -0.02822,-0.04798 -0.01693,-0.03951 -0.03669,-0.08467 -0.01975,-0.045157 -0.03669,-0.084668 -0.01693,-0.039511 -0.02258,-0.053622 -0.04798,-0.115711 -0.08184,-0.1777998 -0.03387,-0.064911 -0.05644,-0.1128888 -0.09313,0.115711 -0.158045,0.2003776 -0.06491,0.081844 -0.112888,0.1467554 -0.04798,0.064911 -0.08467,0.1185336 -0.03669,0.0508 -0.07338,0.09596 -0.01975,-0.0028 -0.03951,-0.0028 -0.01693,0 -0.04798,0 -0.03104,0 -0.05362,0 -0.01975,0 -0.03669,0.0028 0.04516,-0.05362 0.110067,-0.127 0.06773,-0.076199 0.141111,-0.1608663 0.0762,-0.084667 0.155222,-0.1777998 0.07902,-0.093133 0.155222,-0.1862666 z"
         style="font-style:italic;font-variant:normal;font-weight:normal;font-stretch:normal;font-family:Optima;-inkscape-font-specification:'Optima Italic';fill:#000000;fill-opacity:1;stroke-width:0.264583"
         id="path11304-6"
         inkscape:connector-curvature="0" />
    </g>
    <g
       transform="translate(14.650161,91.998804)"
       style="font-size:2.82222px;line-height:1.25;font-family:Futura;-inkscape-font-specification:Futura;display:inline;opacity:1;stroke-width:0.264583"
       id="text11302-2-39"
       aria-label="x">
      <path
         inkscape:connector-curvature="0"
         id="path11304-9-1"
         style="font-style:italic;font-variant:normal;font-weight:normal;font-stretch:normal;font-family:Optima;-inkscape-font-specification:'Optima Italic';fill:#000000;fill-opacity:1;stroke-width:0.264583"
         d="M 15.784688,9.5108892 Q 15.702844,9.341556 15.609711,9.1722228 15.516577,9.0028896 15.426266,8.8335564 q 0.03387,0.00564 0.06773,0.00847 0.03669,0.00282 0.07056,0.00282 0.07338,0 0.118533,-0.011289 0.0085,0.019755 0.02822,0.070555 0.02258,0.0508 0.04798,0.1072444 0.0254,0.053622 0.04516,0.1044221 0.02258,0.047978 0.03104,0.064911 0.02258,0.042333 0.03951,0.087489 0.01976,0.042333 0.04233,0.084667 0.06209,-0.073378 0.118533,-0.1495777 0.05927,-0.0762 0.115711,-0.1523998 0.0085,-0.014111 0.03104,-0.045156 0.02258,-0.031044 0.04516,-0.064911 0.0254,-0.036689 0.04516,-0.064911 0.02258,-0.031044 0.03104,-0.042333 0.04233,0.011289 0.09031,0.011289 0.05644,0 0.1016,-0.011289 -0.07902,0.084667 -0.166511,0.1834443 -0.08467,0.095955 -0.163689,0.1834443 -0.0762,0.087489 -0.132644,0.1552221 -0.05645,0.064911 -0.0762,0.087489 0.04516,0.087489 0.07338,0.141111 0.03104,0.053622 0.05645,0.1016 0.0254,0.045155 0.05362,0.098778 0.02822,0.053622 0.07055,0.1382888 0.03104,0.062089 0.06491,0.1241781 0.03387,0.05927 0.06773,0.115711 -0.02822,-0.0028 -0.06209,-0.0028 -0.03104,0 -0.06491,0 -0.03104,0 -0.06491,0 -0.03104,0 -0.05927,0.0028 -0.0085,-0.0085 -0.02822,-0.04798 -0.01693,-0.03951 -0.03669,-0.08467 -0.01975,-0.045157 -0.03669,-0.084668 -0.01693,-0.039511 -0.02258,-0.053622 -0.04798,-0.115711 -0.08184,-0.1777998 -0.03387,-0.064911 -0.05644,-0.1128888 -0.09313,0.115711 -0.158045,0.2003776 -0.06491,0.081844 -0.112888,0.1467554 -0.04798,0.064911 -0.08467,0.1185336 -0.03669,0.0508 -0.07338,0.09596 -0.01975,-0.0028 -0.03951,-0.0028 -0.01693,0 -0.04798,0 -0.03104,0 -0.05362,0 -0.01975,0 -0.03669,0.0028 0.04516,-0.05362 0.110067,-0.127 0.06773,-0.076199 0.141111,-0.1608663 0.0762,-0.084667 0.155222,-0.1777998 0.07902,-0.093133 0.155222,-0.1862666 z" />
    </g>
    <g
       aria-label="x"
       id="text11302-79"
       style="font-size:2.82222px;line-height:1.25;font-family:Futura;-inkscape-font-specification:Futura;display:inline;opacity:1;stroke-width:0.264583"
       transform="translate(-0.58983898,107.2388)">
      <path
         d="M 15.784688,9.5108892 Q 15.702844,9.341556 15.609711,9.1722228 15.516577,9.0028896 15.426266,8.8335564 q 0.03387,0.00564 0.06773,0.00847 0.03669,0.00282 0.07056,0.00282 0.07338,0 0.118533,-0.011289 0.0085,0.019755 0.02822,0.070555 0.02258,0.0508 0.04798,0.1072444 0.0254,0.053622 0.04516,0.1044221 0.02258,0.047978 0.03104,0.064911 0.02258,0.042333 0.03951,0.087489 0.01976,0.042333 0.04233,0.084667 0.06209,-0.073378 0.118533,-0.1495777 0.05927,-0.0762 0.115711,-0.1523998 0.0085,-0.014111 0.03104,-0.045156 0.02258,-0.031044 0.04516,-0.064911 0.0254,-0.036689 0.04516,-0.064911 0.02258,-0.031044 0.03104,-0.042333 0.04233,0.011289 0.09031,0.011289 0.05644,0 0.1016,-0.011289 -0.07902,0.084667 -0.166511,0.1834443 -0.08467,0.095955 -0.163689,0.1834443 -0.0762,0.087489 -0.132644,0.1552221 -0.05645,0.064911 -0.0762,0.087489 0.04516,0.087489 0.07338,0.141111 0.03104,0.053622 0.05645,0.1016 0.0254,0.045155 0.05362,0.098778 0.02822,0.053622 0.07055,0.1382888 0.03104,0.062089 0.06491,0.1241781 0.03387,0.05927 0.06773,0.115711 -0.02822,-0.0028 -0.06209,-0.0028 -0.03104,0 -0.06491,0 -0.03104,0 -0.06491,0 -0.03104,0 -0.05927,0.0028 -0.0085,-0.0085 -0.02822,-0.04798 -0.01693,-0.03951 -0.03669,-0.08467 -0.01975,-0.045157 -0.03669,-0.084668 -0.01693,-0.039511 -0.02258,-0.053622 -0.04798,-0.115711 -0.08184,-0.1777998 -0.03387,-0.064911 -0.05644,-0.1128888 -0.09313,0.115711 -0.158045,0.2003776 -0.06491,0.081844 -0.112888,0.1467554 -0.04798,0.064911 -0.08467,0.1185336 -0.03669,0.0508 -0.07338,0.09596 -0.01975,-0.0028 -0.03951,-0.0028 -0.01693,0 -0.04798,0 -0.03104,0 -0.05362,0 -0.01975,0 -0.03669,0.0028 0.04516,-0.05362 0.110067,-0.127 0.06773,-0.076199 0.141111,-0.1608663 0.0762,-0.084667 0.155222,-0.1777998 0.07902,-0.093133 0.155222,-0.1862666 z"
         style="font-style:italic;font-variant:normal;font-weight:normal;font-stretch:normal;font-family:Optima;-inkscape-font-specification:'Optima Italic';fill:#000000;fill-opacity:1;stroke-width:0.264583"
         id="path11304-66"
         inkscape:connector-curvature="0" />
    </g>
    <g
       transform="translate(14.650161,107.2388)"
       style="font-size:2.82222px;line-height:1.25;font-family:Futura;-inkscape-font-specification:Futura;display:inline;opacity:1;stroke-width:0.264583"
       id="text11302-2-6"
       aria-label="x">
      <path
         inkscape:connector-curvature="0"
         id="path11304-9-4"
         style="font-style:italic;font-variant:normal;font-weight:normal;font-stretch:normal;font-family:Optima;-inkscape-font-specification:'Optima Italic';fill:#000000;fill-opacity:1;stroke-width:0.264583"
         d="M 15.784688,9.5108892 Q 15.702844,9.341556 15.609711,9.1722228 15.516577,9.0028896 15.426266,8.8335564 q 0.03387,0.00564 0.06773,0.00847 0.03669,0.00282 0.07056,0.00282 0.07338,0 0.118533,-0.011289 0.0085,0.019755 0.02822,0.070555 0.02258,0.0508 0.04798,0.1072444 0.0254,0.053622 0.04516,0.1044221 0.02258,0.047978 0.03104,0.064911 0.02258,0.042333 0.03951,0.087489 0.01976,0.042333 0.04233,0.084667 0.06209,-0.073378 0.118533,-0.1495777 0.05927,-0.0762 0.115711,-0.1523998 0.0085,-0.014111 0.03104,-0.045156 0.02258,-0.031044 0.04516,-0.064911 0.0254,-0.036689 0.04516,-0.064911 0.02258,-0.031044 0.03104,-0.042333 0.04233,0.011289 0.09031,0.011289 0.05644,0 0.1016,-0.011289 -0.07902,0.084667 -0.166511,0.1834443 -0.08467,0.095955 -0.163689,0.1834443 -0.0762,0.087489 -0.132644,0.1552221 -0.05645,0.064911 -0.0762,0.087489 0.04516,0.087489 0.07338,0.141111 0.03104,0.053622 0.05645,0.1016 0.0254,0.045155 0.05362,0.098778 0.02822,0.053622 0.07055,0.1382888 0.03104,0.062089 0.06491,0.1241781 0.03387,0.05927 0.06773,0.115711 -0.02822,-0.0028 -0.06209,-0.0028 -0.03104,0 -0.06491,0 -0.03104,0 -0.06491,0 -0.03104,0 -0.05927,0.0028 -0.0085,-0.0085 -0.02822,-0.04798 -0.01693,-0.03951 -0.03669,-0.08467 -0.01975,-0.045157 -0.03669,-0.084668 -0.01693,-0.039511 -0.02258,-0.053622 -0.04798,-0.115711 -0.08184,-0.1777998 -0.03387,-0.064911 -0.05644,-0.1128888 -0.09313,0.115711 -0.158045,0.2003776 -0.06491,0.081844 -0.112888,0.1467554 -0.04798,0.064911 -0.08467,0.1185336 -0.03669,0.0508 -0.07338,0.09596 -0.01975,-0.0028 -0.03951,-0.0028 -0.01693,0 -0.04798,0 -0.03104,0 -0.05362,0 -0.01975,0 -0.03669,0.0028 0.04516,-0.05362 0.110067,-0.127 0.06773,-0.076199 0.141111,-0.1608663 0.0762,-0.084667 0.155222,-0.1777998 0.07902,-0.093133 0.155222,-0.1862666 z" />
    </g>
  </g>
  <g
     sodipodi:insensitive="true"
     style="display:none"
     inkscape:label="components"
     id="layer2"
     inkscape:groupmode="layer">
    <circle
       inkscape:label="signal1"
       r="2.6458333"
       cy="10.16"
       cx="7.6199999"
       id="path15"
       style="display:inline;fill:#f2f2f2;stroke:#00ff00;stroke-width:0.264583;stroke-opacity:1" />
    <circle
       inkscape:label="signal2"
       r="2.6458333"
       cy="25.400002"
       cx="7.6199985"
       id="path17"
       style="display:inline;fill:#f2f2f2;stroke:#00ff00;stroke-width:0.264583;stroke-opacity:1" />
    <circle
       inkscape:label="signal3"
       r="2.6458333"
       cy="40.639996"
       cx="7.619998"
       id="path34"
       style="display:inline;fill:#f2f2f2;stroke:#00ff00;stroke-width:0.264583;stroke-opacity:1" />
    <circle
       style="display:inline;fill:#f2f2f2;stroke:#00ff00;stroke-width:0.264583;stroke-opacity:1"
       id="path15-0"
       cx="7.6199975"
       cy="55.879993"
       r="2.6458333"
       inkscape:label="signal4" />
    <circle
       style="display:inline;fill:#f2f2f2;stroke:#00ff00;stroke-width:0.264583;stroke-opacity:1"
       id="path17-5"
       cx="7.619997"
       cy="71.120003"
       r="2.6458333"
       inkscape:label="signal5" />
    <circle
       style="display:inline;fill:#f2f2f2;stroke:#00ff00;stroke-width:0.264583;stroke-opacity:1"
       id="path34-6"
       cx="7.6199965"
       cy="86.360001"
       r="2.6458333"
       inkscape:label="signal6" />
    <circle
       inkscape:label="signal7"
       r="2.6458333"
       cy="101.6"
       cx="7.6199961"
       id="path17-5-3"
       style="display:inline;fill:#f2f2f2;stroke:#00ff00;stroke-width:0.264583;stroke-opacity:1" />
    <circle
       inkscape:label="signal8"
       r="2.6458333"
       cy="116.84"
       cx="7.6199961"
       id="path34-6-8"
       style="display:inline;fill:#f2f2f2;stroke:#00ff00;stroke-width:0.264583;stroke-opacity:1" />
    <circle
       style="display:inline;fill:#f2f2f2;stroke:#ff0000;stroke-width:0.264583;stroke-opacity:1"
       id="path15-4"
       cx="22.860001"
       cy="10.16"
       r="2.6458333"
       inkscape:label="carrier_level1" />
    <circle
       style="display:inline;fill:#f2f2f2;stroke:#ff0000;stroke-width:0.264583;stroke-opacity:1"
       id="path17-0"
       cx="22.860001"
       cy="25.4"
       r="2.6458333"
       inkscape:label="carrier_level2" />
    <circle
       style="display:inline;fill:#f2f2f2;stroke:#ff0000;stroke-width:0.264583;stroke-opacity:1"
       id="path34-0"
       cx="22.860001"
       cy="40.639999"
       r="2.6458333"
       inkscape:label="carrier_level3" />
    <circle
       inkscape:label="carrier_level4"
       r="2.6458333"
       cy="55.880001"
       cx="22.860001"
       id="path15-0-9"
       style="display:inline;fill:#f2f2f2;stroke:#ff0000;stroke-width:0.264583;stroke-opacity:1" />
    <circle
       inkscape:label="carrier_level5"
       r="2.6458333"
       cy="71.120003"
       cx="22.860001"
       id="path17-5-37"
       style="display:inline;fill:#f2f2f2;stroke:#ff0000;stroke-width:0.264583;stroke-opacity:1" />
    <circle
       inkscape:label="carrier_level6"
       r="2.6458333"
       cy="86.360001"
       cx="22.860001"
       id="path34-6-5"
       style="display:inline;fill:#f2f2f2;stroke:#ff0000;stroke-width:0.264583;stroke-opacity:1" />
    <circle
       style="display:inline;fill:#f2f2f2;stroke:#ff0000;stroke-width:0.264583;stroke-opacity:1"
       id="path17-5-3-7"
       cx="22.860001"
       cy="101.6"
       r="2.6458333"
       inkscape:label="carrier_level7" />
    <circle
       style="display:inline;fill:#f2f2f2;stroke:#ff0000;stroke-width:0.264583;stroke-opacity:1"
       id="path34-6-8-2"
       cx="22.860001"
       cy="116.84"
       r="2.6458333"
       inkscape:label="carrier_level8" />
    <circle
       inkscape:label="carrier1"
       r="2.6458333"
       cy="10.16"
       cx="38.099998"
       id="path15-4-6"
       style="display:inline;fill:#f2f2f2;stroke:#00ff00;stroke-width:0.264583;stroke-opacity:1" />
    <circle
       inkscape:label="carrier2"
       r="2.6458333"
       cy="25.4"
       cx="38.099998"
       id="path17-0-5"
       style="display:inline;fill:#f2f2f2;stroke:#00ff00;stroke-width:0.264583;stroke-opacity:1" />
    <circle
       inkscape:label="carrier3"
       r="2.6458333"
       cy="40.639999"
       cx="38.099998"
       id="path34-0-3"
       style="display:inline;fill:#f2f2f2;stroke:#00ff00;stroke-width:0.264583;stroke-opacity:1" />
    <circle
       style="display:inline;fill:#f2f2f2;stroke:#00ff00;stroke-width:0.264583;stroke-opacity:1"
       id="path15-0-9-0"
       cx="38.099998"
       cy="55.880001"
       r="2.6458333"
       inkscape:label="carrier4" />
    <circle
       style="display:inline;fill:#f2f2f2;stroke:#00ff00;stroke-width:0.264583;stroke-opacity:1"
       id="path17-5-37-4"
       cx="38.099998"
       cy="71.120018"
       r="2.6458333"
       inkscape:label="carrier5" />
    <circle
       style="display:inline;fill:#f2f2f2;stroke:#00ff00;stroke-width:0.264583;stroke-opacity:1"
       id="path34-6-5-8"
       cx="38.099998"
       cy="86.360001"
       r="2.6458333"
       inkscape:label="carrier6" />
    <circle
       inkscape:label="carrier7"
       r="2.6458333"
       cy="101.6"
       cx="38.099998"
       id="path17-5-3-7-5"
       style="display:inline;fill:#f2f2f2;stroke:#00ff00;stroke-width:0.264583;stroke-opacity:1" />
    <circle
       inkscape:label="carrier8"
       r="2.6458333"
       cy="116.84"
       cx="38.099998"
       id="path34-6-8-2-5"
       style="display:inline;fill:#f2f2f2;stroke:#00ff00;stroke-width:0.264583;stroke-opacity:1" />
    <circle
       style="display:inline;fill:#f2f2f2;stroke:#0000ff;stroke-width:0.264583;stroke-opacity:1"
       id="path15-4-6-5"
       cx="53.34"
       cy="10.16"
       r="2.6458333"
       inkscape:label="out1" />
    <circle
       style="display:inline;fill:#f2f2f2;stroke:#0000ff;stroke-width:0.264583;stroke-opacity:1"
       id="path17-0-5-4"
       cx="53.34"
       cy="25.399998"
       r="2.6458333"
       inkscape:label="out2" />
    <circle
       style="display:inline;fill:#f2f2f2;stroke:#0000ff;stroke-width:0.264583;stroke-opacity:1"
       id="path34-0-3-2"
       cx="53.34"
       cy="40.640003"
       r="2.6458333"
       inkscape:label="out3" />
    <circle
       inkscape:label="out4"
       r="2.6458333"
       cy="55.880001"
       cx="53.34"
       id="path15-0-9-0-1"
       style="display:inline;fill:#f2f2f2;stroke:#0000ff;stroke-width:0.264583;stroke-opacity:1" />
    <circle
       inkscape:label="out5"
       r="2.6458333"
       cy="71.12001"
       cx="53.34"
       id="path17-5-37-4-9"
       style="display:inline;fill:#f2f2f2;stroke:#0000ff;stroke-width:0.264583;stroke-opacity:1" />
    <circle
       inkscape:label="out6"
       r="2.6458333"
       cy="86.359993"
       cx="53.34"
       id="path34-6-5-8-2"
       style="display:inline;fill:#f2f2f2;stroke:#0000ff;stroke-width:0.264583;stroke-opacity:1" />
    <circle
       style="display:inline;fill:#f2f2f2;stroke:#0000ff;stroke-width:0.264583;stroke-opacity:1"
       id="path17-5-3-7-5-4"
       cx="53.34"
       cy="101.6"
       r="2.6458333"
       inkscape:label="out7" />
    <circle
       style="display:inline;fill:#f2f2f2;stroke:#0000ff;stroke-width:0.264583;stroke-opacity:1"
       id="path34-6-8-2-5-5"
       cx="53.34"
       cy="116.84"
       r="2.6458333"
       inkscape:label="out8" />
  </g>
</svg>
