<?xml version="1.0" encoding="UTF-8" standalone="no"?>
<svg
   xmlns:dc="http://purl.org/dc/elements/1.1/"
   xmlns:cc="http://creativecommons.org/ns#"
   xmlns:rdf="http://www.w3.org/1999/02/22-rdf-syntax-ns#"
   xmlns:svg="http://www.w3.org/2000/svg"
   xmlns="http://www.w3.org/2000/svg"
   xmlns:sodipodi="http://sodipodi.sourceforge.net/DTD/sodipodi-0.dtd"
   xmlns:inkscape="http://www.inkscape.org/namespaces/inkscape"
   sodipodi:docname="Offset.svg"
   inkscape:version="1.0beta1 (32d4812, 2019-09-19)"
   id="svg1138"
   version="1.1"
   viewBox="0 0 30.48 128.5"
   height="128.5mm"
   width="30.48mm">
  <defs
     id="defs1132">
    <filter
       id="filter912"
       inkscape:label="Bump"
       style="color-interpolation-filters:sRGB">
      <feGaussianBlur
         id="feGaussianBlur890"
         result="blur1"
         stdDeviation="0.01"
         in="SourceGraphic" />
      <feColorMatrix
         id="feColorMatrix892"
         result="colormatrix1"
         values="1 0 0 0 0 0 1 0 0 0 0 0 1 0 0 0 0 0 1 0 "
         in="BackgroundImage" />
      <feColorMatrix
         id="feColorMatrix894"
         result="colormatrix2"
         type="luminanceToAlpha"
         in="colormatrix1" />
      <feComposite
         id="feComposite896"
         result="composite1"
         k3="0"
         k2="1"
         operator="arithmetic"
         in2="blur1"
         k1="0"
         k4="0" />
      <feGaussianBlur
         id="feGaussianBlur898"
         result="blur2"
         stdDeviation="0.01"
         in="composite1" />
      <feSpecularLighting
         id="feSpecularLighting902"
         result="lighting"
         specularExponent="15"
         specularConstant="1"
         surfaceScale="5"
         lighting-color="#ffffff">
        <feDistantLight
           id="feDistantLight900"
           elevation="45"
           azimuth="225" />
      </feSpecularLighting>
      <feFlood
         id="feFlood904"
         result="flood"
         flood-opacity="1"
         flood-color="rgb(197,41,41)" />
      <feComposite
         id="feComposite906"
         result="composite2"
         k2="1"
         k3="1"
         operator="arithmetic"
         in2="blur1"
         in="lighting"
         k1="0"
         k4="0" />
      <feBlend
         id="feBlend908"
         result="blend"
         mode="normal"
         in2="SourceGraphic" />
      <feComposite
         id="feComposite910"
         result="composite3"
         operator="in"
         in2="SourceGraphic"
         in="blend" />
    </filter>
    <filter
       style="color-interpolation-filters:sRGB"
       inkscape:label="Bump"
       id="filter2180">
      <feGaussianBlur
         in="SourceGraphic"
         stdDeviation="0.01"
         result="blur1"
         id="feGaussianBlur2158" />
      <feColorMatrix
         in="BackgroundImage"
         values="1 0 0 0 0 0 1 0 0 0 0 0 1 0 0 0 0 0 1 0 "
         result="colormatrix1"
         id="feColorMatrix2160" />
      <feColorMatrix
         in="colormatrix1"
         type="luminanceToAlpha"
         result="colormatrix2"
         id="feColorMatrix2162" />
      <feComposite
         in2="blur1"
         operator="arithmetic"
         k2="1"
         k3="0"
         result="composite1"
         id="feComposite2164"
         k1="0"
         k4="0" />
      <feGaussianBlur
         in="composite1"
         stdDeviation="0.01"
         result="blur2"
         id="feGaussianBlur2166" />
      <feSpecularLighting
         lighting-color="#ffffff"
         surfaceScale="5"
         specularConstant="1"
         specularExponent="15"
         result="lighting"
         id="feSpecularLighting2170">
        <feDistantLight
           azimuth="225"
           elevation="45"
           id="feDistantLight2168" />
      </feSpecularLighting>
      <feFlood
         flood-color="rgb(197,41,41)"
         flood-opacity="1"
         result="flood"
         id="feFlood2172" />
      <feComposite
         in="lighting"
         in2="blur1"
         operator="arithmetic"
         k3="1"
         k2="1"
         result="composite2"
         id="feComposite2174"
         k1="0"
         k4="0" />
      <feBlend
         in2="SourceGraphic"
         mode="normal"
         result="blend"
         id="feBlend2176" />
      <feComposite
         in="blend"
         in2="SourceGraphic"
         operator="in"
         result="composite3"
         id="feComposite2178" />
    </filter>
    <filter
       style="color-interpolation-filters:sRGB;"
       inkscape:label="Bump"
       id="filter3552">
      <feGaussianBlur
         in="SourceGraphic"
         stdDeviation="0.01"
         result="blur1"
         id="feGaussianBlur3530" />
      <feColorMatrix
         in="BackgroundImage"
         values="1 0 0 0 0 0 1 0 0 0 0 0 1 0 0 0 0 0 1 0 "
         result="colormatrix1"
         id="feColorMatrix3532" />
      <feColorMatrix
         in="colormatrix1"
         type="luminanceToAlpha"
         result="colormatrix2"
         id="feColorMatrix3534" />
      <feComposite
         in2="blur1"
         operator="arithmetic"
         k2="1"
         k3="0"
         result="composite1"
         id="feComposite3536" />
      <feGaussianBlur
         in="composite1"
         stdDeviation="0.01"
         result="blur2"
         id="feGaussianBlur3538" />
      <feSpecularLighting
         lighting-color="rgb(255,255,255)"
         surfaceScale="5"
         specularConstant="1"
         specularExponent="15"
         result="lighting"
         id="feSpecularLighting3542">
        <feDistantLight
           azimuth="225"
           elevation="45"
           id="feDistantLight3540" />
      </feSpecularLighting>
      <feFlood
         flood-color="rgb(197,41,41)"
         flood-opacity="1"
         result="flood"
         id="feFlood3544" />
      <feComposite
         in="lighting"
         in2="blur1"
         operator="arithmetic"
         k3="1"
         k2="1"
         result="composite2"
         id="feComposite3546" />
      <feBlend
         in2="SourceGraphic"
         mode="normal"
         result="blend"
         id="feBlend3548" />
      <feComposite
         in="blend"
         in2="SourceGraphic"
         operator="in"
         k2="1"
         result="composite3"
         id="feComposite3550" />
    </filter>
  </defs>
  <sodipodi:namedview
     inkscape:window-maximized="0"
     inkscape:window-y="26"
     inkscape:window-x="1440"
     inkscape:window-height="1054"
     inkscape:window-width="1920"
     inkscape:snap-object-midpoints="true"
     showgrid="true"
     inkscape:document-rotation="0"
     inkscape:current-layer="layer4"
     inkscape:document-units="mm"
     inkscape:cy="242.83465"
     inkscape:cx="-50.60757"
     inkscape:zoom="1.7789883"
     inkscape:pageshadow="2"
     inkscape:pageopacity="0.0"
     borderopacity="1.0"
     bordercolor="#666666"
     pagecolor="#ffffff"
     id="base">
    <inkscape:grid
       id="grid1738"
       type="xygrid"
       units="mm"
       spacingx="2.5400001"
       spacingy="2.5400001" />
  </sodipodi:namedview>
  <metadata
     id="metadata1135">
    <rdf:RDF>
      <cc:Work
         rdf:about="">
        <dc:format>image/svg+xml</dc:format>
        <dc:type
           rdf:resource="http://purl.org/dc/dcmitype/StillImage" />
        <dc:title />
      </cc:Work>
    </rdf:RDF>
  </metadata>
  <g
     id="layer1"
     inkscape:groupmode="layer"
     inkscape:label="Background"
     sodipodi:insensitive="true"
     style="display:inline">
    <rect
       style="display:inline;opacity:1;fill:#ffcb00;fill-opacity:1;stroke:none;stroke-width:0.122863"
       id="rect10"
       width="30.48"
       height="128.5"
       x="0"
       y="-1.7763568e-15" />
  </g>
  <g
     inkscape:label="boxes"
     id="layer3"
     inkscape:groupmode="layer"
     sodipodi:insensitive="true"
     style="display:inline">
    <rect
       y="5.0800095"
       x="17.780001"
       height="10.16"
       width="10.16"
       id="rect1740-1"
       style="display:inline;opacity:1;fill:#3a5c8f;fill-opacity:0.501961;stroke:none;stroke-width:0.508799;stroke-miterlimit:4;stroke-dasharray:0.508799, 1.0176;stroke-dashoffset:0;stroke-opacity:1" />
    <rect
       y="20.320185"
       x="17.780001"
       height="10.159822"
       width="10.159822"
       id="rect1740-1-5"
       style="display:inline;opacity:1;fill:#3a5c8f;fill-opacity:0.501961;stroke:none;stroke-width:0.508791;stroke-miterlimit:4;stroke-dasharray:0.508791, 1.01758;stroke-dashoffset:0;stroke-opacity:1" />
    <rect
       y="35.560013"
       x="17.780001"
       height="10.159998"
       width="10.159998"
       id="rect1740-1-9"
       style="display:inline;opacity:1;fill:#3a5c8f;fill-opacity:0.501961;stroke:none;stroke-width:0.508799;stroke-miterlimit:4;stroke-dasharray:0.508799, 1.0176;stroke-dashoffset:0;stroke-opacity:1" />
    <rect
       y="50.800003"
       x="17.780005"
       height="10.159998"
       width="10.159998"
       id="rect1740-1-7"
       style="display:inline;opacity:1;fill:#3a5c8f;fill-opacity:0.501961;stroke:none;stroke-width:0.508799;stroke-miterlimit:4;stroke-dasharray:0.508799, 1.0176;stroke-dashoffset:0;stroke-opacity:1" />
    <rect
       y="66.040016"
       x="17.780001"
       height="10.159998"
       width="10.159998"
       id="rect1740-1-53"
       style="display:inline;opacity:1;fill:#3a5c8f;fill-opacity:0.501961;stroke:none;stroke-width:0.508799;stroke-miterlimit:4;stroke-dasharray:0.508799, 1.0176;stroke-dashoffset:0;stroke-opacity:1" />
    <rect
       y="81.280022"
       x="17.780001"
       height="10.160002"
       width="10.160002"
       id="rect1740-1-90"
       style="display:inline;opacity:1;fill:#3a5c8f;fill-opacity:0.501961;stroke:none;stroke-width:0.508799;stroke-miterlimit:4;stroke-dasharray:0.508799, 1.0176;stroke-dashoffset:0;stroke-opacity:1" />
    <rect
       y="96.520012"
       x="17.780005"
       height="10.159997"
       width="10.159997"
       id="rect1740-1-55"
       style="display:inline;opacity:1;fill:#3a5c8f;fill-opacity:0.501961;stroke:none;stroke-width:0.508799;stroke-miterlimit:4;stroke-dasharray:0.508799, 1.0176;stroke-dashoffset:0;stroke-opacity:1" />
    <rect
       y="111.76003"
       x="17.780001"
       height="10.159997"
       width="10.159997"
       id="rect1740-1-6"
       style="display:inline;opacity:1;fill:#3a5c8f;fill-opacity:0.501961;stroke:none;stroke-width:0.508799;stroke-miterlimit:4;stroke-dasharray:0.508799, 1.0176;stroke-dashoffset:0;stroke-opacity:1" />
  </g>
  <g
     sodipodi:insensitive="true"
     inkscape:label="lines"
     id="layer5"
     inkscape:groupmode="layer"
     style="display:inline">
    <path
       inkscape:connector-curvature="0"
       id="path2743"
       d="M 5.0800009,10.160002 H 17.780002"
       style="display:inline;opacity:1;fill:none;stroke:#3a5c8f;stroke-width:0.367194;stroke-linecap:butt;stroke-linejoin:miter;stroke-miterlimit:4;stroke-dasharray:none;stroke-opacity:1" />
    <path
       inkscape:connector-curvature="0"
       id="path2743-4"
       d="M 5.0800009,25.400006 H 17.780002"
       style="display:inline;opacity:1;fill:none;stroke:#3a5c8f;stroke-width:0.367194;stroke-linecap:butt;stroke-linejoin:miter;stroke-miterlimit:4;stroke-dasharray:none;stroke-opacity:1" />
    <path
       inkscape:connector-curvature="0"
       id="path2743-6"
       d="M 5.0800009,40.640006 H 17.780002"
       style="display:inline;opacity:1;fill:none;stroke:#3a5c8f;stroke-width:0.367194;stroke-linecap:butt;stroke-linejoin:miter;stroke-miterlimit:4;stroke-dasharray:none;stroke-opacity:1" />
    <path
       inkscape:connector-curvature="0"
       id="path2743-43"
       d="M 5.0800009,55.880006 H 17.780002"
       style="display:inline;opacity:1;fill:none;stroke:#3a5c8f;stroke-width:0.367194;stroke-linecap:butt;stroke-linejoin:miter;stroke-miterlimit:4;stroke-dasharray:none;stroke-opacity:1" />
    <path
       inkscape:connector-curvature="0"
       id="path2743-8"
       d="M 5.0800009,71.120006 H 17.780002"
       style="display:inline;opacity:1;fill:none;stroke:#3a5c8f;stroke-width:0.367194;stroke-linecap:butt;stroke-linejoin:miter;stroke-miterlimit:4;stroke-dasharray:none;stroke-opacity:1" />
    <path
       inkscape:connector-curvature="0"
       id="path2743-40"
       d="M 5.0800009,86.360006 H 17.780002"
       style="display:inline;opacity:1;fill:none;stroke:#3a5c8f;stroke-width:0.367194;stroke-linecap:butt;stroke-linejoin:miter;stroke-miterlimit:4;stroke-dasharray:none;stroke-opacity:1" />
    <path
       inkscape:connector-curvature="0"
       id="path2743-0"
       d="M 5.0800009,101.6 H 17.780002"
       style="display:inline;opacity:1;fill:none;stroke:#3a5c8f;stroke-width:0.367194;stroke-linecap:butt;stroke-linejoin:miter;stroke-miterlimit:4;stroke-dasharray:none;stroke-opacity:1" />
    <path
       inkscape:connector-curvature="0"
       id="path2743-9"
       d="M 5.0800009,116.84 H 17.780002"
       style="display:inline;opacity:1;fill:none;stroke:#3a5c8f;stroke-width:0.367194;stroke-linecap:butt;stroke-linejoin:miter;stroke-miterlimit:4;stroke-dasharray:none;stroke-opacity:1" />
  </g>
  <g
     sodipodi:insensitive="true"
     style="display:inline;opacity:1"
     inkscape:label="text"
     id="layer4"
     inkscape:groupmode="layer">
    <text
       id="text1987"
       y="19.84375"
       x="7.9375"
       style="font-size:6.35px;line-height:1.25;font-family:Futura;-inkscape-font-specification:Futura;stroke-width:0.264583"
       xml:space="preserve"><tspan
         style="stroke-width:0.264583"
         y="19.84375"
         x="7.9375"
         id="tspan1985"
         sodipodi:role="line" /></text>
    <g
       id="g2200"
       transform="translate(-4.6246601,1.7529907e-6)"
       style="display:inline;opacity:1">
      <g
         id="g971"
         transform="matrix(0.13229166,0,0,0.13229166,-10.822541,109.90112)">
        <g
           style="opacity:1;fill:#3a5c8f;fill-opacity:1;filter:url(#filter912);stop-opacity:1"
           transform="matrix(0.38004571,0,0,0.38004571,177.21513,100.89119)"
           fill="#000000"
           stroke="none"
           id="b1560e19-ee0a-4c5c-a1e3-872fa4d571f9"
           data-v-fde0c5aa="">
          <path
             style="fill:#3a5c8f;fill-opacity:1"
             inkscape:connector-curvature="0"
             id="path844"
             d="M 15.88,75.262 14.006,73.346 35.661,52.171 v -3.915 l 8.825,-8.822 V 27.077 l 3.479,-5.144 V 3.223 h 2.68 v 19.531 l -3.479,5.144 v 12.646 l -8.825,8.823 v 3.931 z" />
          <path
             style="fill:#3a5c8f;fill-opacity:1"
             inkscape:connector-curvature="0"
             id="path846"
             d="m 42.998,72.05 h -2.68 V 49.8 l 6.842,-8.212 h 6.881 L 65.068,28.841 h 10.416 v 2.68 H 66.293 L 55.266,44.268 h -6.851 l -5.417,6.502 z" />
          <path
             style="fill:#3a5c8f;fill-opacity:1"
             inkscape:connector-curvature="0"
             id="path848"
             d="M 59.14,90.004 53.313,84.698 V 71.493 L 45.221,64.634 V 49.942 l 4.004,-3.695 h 10.262 l 3.039,-3.039 1.895,1.895 -3.824,3.824 H 50.271 L 47.9,51.115 v 12.277 l 8.093,6.859 v 13.264 l 4.951,4.508 z M 28.026,51.507 26.194,49.551 41.21,35.488 V 7.773 h 2.68 V 36.65 Z M 41.658,72.05 a 4.2740001,4.2740001 0 1 0 0.002,8.548 4.2740001,4.2740001 0 0 0 -0.002,-8.548 z m -12.62,3.491 a 4.278,4.278 0 0 0 -4.276,4.278 4.272,4.272 0 0 0 4.276,4.272 4.27,4.27 0 0 0 4.271,-4.272 4.277,4.277 0 0 0 -4.271,-4.278 z" />
          <circle
             style="fill:#3a5c8f;fill-opacity:1"
             id="circle850"
             r="2.138"
             cy="79.819"
             cx="29.038" />
          <path
             style="fill:#3a5c8f;fill-opacity:1"
             inkscape:connector-curvature="0"
             id="path852"
             d="m 41.658,88.231 a 4.271,4.271 0 0 0 -4.272,4.27 4.274,4.274 0 1 0 4.272,-4.27 z" />
          <path
             style="fill:#3a5c8f;fill-opacity:1"
             inkscape:connector-curvature="0"
             id="path854"
             d="m 41.658,90.366 a 2.137,2.137 0 1 0 0,4.274 2.136,2.136 0 0 0 2.139,-2.139 2.135,2.135 0 0 0 -2.139,-2.135 z M 11.76,73.409 Z m 0,2.132 a 2.1395,2.1395 0 0 0 0,4.279 2.14,2.14 0 0 0 0,-4.279 z M 66.721,38.318 a 4.272,4.272 0 0 0 -4.27,4.276 4.27,4.27 0 0 0 4.27,4.271 4.271,4.271 0 0 0 4.276,-4.271 4.272,4.272 0 0 0 -4.276,-4.276 z" />
          <path
             style="fill:#3a5c8f;fill-opacity:1"
             inkscape:connector-curvature="0"
             id="path856"
             d="m 66.721,40.455 a 2.139,2.139 0 0 0 0,4.276 c 1.183,0 2.14,-0.963 2.14,-2.137 a 2.14,2.14 0 0 0 -2.14,-2.139 z M 78.856,25.912 a 4.27,4.27 0 0 0 -4.275,4.27 4.273,4.273 0 0 0 4.275,4.278 4.272,4.272 0 0 0 4.274,-4.278 4.267,4.267 0 0 0 -4.274,-4.27 z" />
          <path
             style="fill:#3a5c8f;fill-opacity:1"
             inkscape:connector-curvature="0"
             id="path858"
             d="m 78.856,28.046 a 2.135,2.135 0 0 0 -2.139,2.135 c 0,1.185 0.956,2.137 2.139,2.137 a 2.133,2.133 0 0 0 2.135,-2.137 2.134,2.134 0 0 0 -2.135,-2.135 z M 53.903,51.115 a 4.275,4.275 0 1 0 0,8.55 4.273,4.273 0 0 0 4.27,-4.276 4.274,4.274 0 0 0 -4.27,-4.274 z" />
          <path
             style="fill:#3a5c8f;fill-opacity:1"
             inkscape:connector-curvature="0"
             id="path860"
             d="m 53.903,53.252 a 2.14,2.14 0 1 0 0,4.277 2.136,2.136 0 0 0 2.133,-2.139 2.137,2.137 0 0 0 -2.133,-2.138 z m 11.745,3.477 H 58.173 V 54.05 h 6.313 l 28.098,-30.019 1.957,1.831 z M 24.968,48.798 A 4.275,4.275 0 0 0 20.69,53.07 4.28,4.28 0 0 0 24.968,57.346 4.277,4.277 0 0 0 29.24,53.07 4.272,4.272 0 0 0 24.968,48.798 Z M 62.11,87.126 a 4.2740001,4.2740001 0 1 0 0.002,8.548 4.2740001,4.2740001 0 0 0 -0.002,-8.548 z" />
        </g>
      </g>
      <g
         style="font-size:3.52777px;line-height:1.25;font-family:Futura;-inkscape-font-specification:Futura;stroke-width:0.264583;filter:url(#filter2180)"
         id="text2143"
         aria-label="Stalys">
        <path
           id="path2145"
           style="font-style:italic;font-variant:normal;font-weight:normal;font-stretch:normal;font-family:Optima;-inkscape-font-specification:'Optima Italic';fill:#3a5c8f;fill-opacity:1;stroke-width:0.264583"
           d="m 19.395719,124.86158 q -0.04233,-0.11642 -0.148166,-0.18344 -0.105833,-0.067 -0.246944,-0.067 -0.109361,0 -0.204611,0.0423 -0.09172,0.0423 -0.162277,0.11289 -0.06703,0.067 -0.105833,0.15875 -0.03528,0.0917 -0.03528,0.1905 0,0.0953 0.02822,0.16228 0.02822,0.067 0.08114,0.11994 0.05292,0.0529 0.123472,0.0988 0.07056,0.0459 0.155222,0.0953 0.08114,0.0494 0.155222,0.0988 0.07408,0.0459 0.130527,0.10936 0.05645,0.06 0.08819,0.14464 0.03528,0.0811 0.03528,0.20108 0,0.14111 -0.0635,0.28928 -0.0635,0.14816 -0.186971,0.27163 -0.119945,0.11995 -0.299861,0.19403 -0.179916,0.0741 -0.416277,0.0741 -0.134055,0 -0.264582,-0.0282 -0.127,-0.0247 -0.239889,-0.0917 0.03528,-0.067 0.0635,-0.13405 0.03175,-0.0706 0.05292,-0.13759 h 0.02469 q 0.0388,0.0741 0.09878,0.12347 0.0635,0.0494 0.130527,0.0811 0.07055,0.0282 0.141111,0.0423 0.07055,0.0106 0.123472,0.0106 0.137583,0 0.243416,-0.0529 0.109361,-0.0564 0.179916,-0.14111 0.07056,-0.0847 0.105833,-0.18697 0.03881,-0.1023 0.03881,-0.19403 0,-0.0953 -0.03175,-0.16227 -0.02822,-0.0706 -0.07761,-0.12348 -0.04939,-0.0529 -0.119944,-0.0988 -0.06703,-0.0459 -0.141111,-0.0953 -0.08114,-0.0494 -0.15875,-0.0988 -0.07408,-0.0529 -0.134055,-0.11642 -0.05644,-0.067 -0.09172,-0.15169 -0.03528,-0.0882 -0.03528,-0.20814 0,-0.15169 0.0635,-0.28222 0.0635,-0.13406 0.176389,-0.22931 0.116416,-0.0988 0.271638,-0.15522 0.15875,-0.0564 0.345721,-0.0564 0.172861,0 0.282222,0.0388 0.109361,0.0388 0.169333,0.067 -0.04586,0.0811 -0.07056,0.13406 -0.02117,0.0494 -0.04939,0.13405 h -0.0247 z"
           inkscape:connector-curvature="0" />
        <path
           id="path2147"
           style="font-style:italic;font-variant:normal;font-weight:normal;font-stretch:normal;font-family:Optima;-inkscape-font-specification:'Optima Italic';fill:#3a5c8f;fill-opacity:1;stroke-width:0.264583"
           d="m 20.376439,124.82278 q -0.03528,0.12347 -0.0635,0.24341 -0.0247,0.11995 -0.05292,0.24342 0.08114,0 0.176389,-0.004 0.09878,-0.007 0.190499,-0.0106 -0.02117,0.0741 -0.02117,0.14464 -0.09172,-0.004 -0.194027,-0.007 -0.09878,-0.007 -0.179916,-0.007 l -0.137583,0.66322 q -0.01058,0.0564 -0.0247,0.127 -0.01411,0.067 -0.02822,0.13406 -0.01058,0.067 -0.02117,0.13053 -0.0071,0.06 -0.0071,0.1023 0,0.0706 0.02469,0.11995 0.02469,0.0494 0.05997,0.0811 0.0388,0.0282 0.08114,0.0423 0.04586,0.0141 0.08467,0.0141 0.05997,0 0.119944,-0.0176 0.05997,-0.0212 0.112889,-0.0529 l -0.0071,0.0917 q -0.07055,0.0564 -0.172861,0.0776 -0.09878,0.0212 -0.186971,0.0212 -0.06703,0 -0.137583,-0.0212 -0.06703,-0.0176 -0.119945,-0.0564 -0.05292,-0.0388 -0.08819,-0.0988 -0.03175,-0.0635 -0.03175,-0.14464 0,-0.0706 0.01411,-0.14817 0.01764,-0.0776 0.03528,-0.1658 0.0388,-0.17992 0.0635,-0.29281 0.02469,-0.11289 0.04233,-0.20108 0.02117,-0.0917 0.0388,-0.17992 0.01764,-0.0917 0.04586,-0.22578 -0.04939,0 -0.112889,0.004 -0.05997,0 -0.119944,0.004 0.01058,-0.0282 0.01411,-0.0564 0.0071,-0.0282 0.0071,-0.0811 0.05644,0.004 0.116417,0.0106 0.0635,0.004 0.109361,0.004 l 0.0635,-0.37395 0.306916,-0.11288 z"
           inkscape:connector-curvature="0" />
        <path
           id="path2149"
           style="font-style:italic;font-variant:normal;font-weight:normal;font-stretch:normal;font-family:Optima;-inkscape-font-specification:'Optima Italic';fill:#3a5c8f;fill-opacity:1;stroke-width:0.264583"
           d="m 20.933386,126.54786 q 0,0.13052 0.08114,0.20108 0.08467,0.067 0.194027,0.067 0.148167,0 0.264583,-0.0811 0.116416,-0.0811 0.197555,-0.19756 0.02117,-0.12347 0.04586,-0.24341 0.0247,-0.12348 0.05997,-0.24695 -0.08114,0.0176 -0.158749,0.0318 -0.07761,0.0141 -0.15875,0.0318 -0.08819,0.0212 -0.183444,0.0529 -0.09172,0.0282 -0.169333,0.0811 -0.07408,0.0494 -0.123472,0.12347 -0.04939,0.0741 -0.04939,0.17992 z m 0.105833,-1.12889 q 0.134056,-0.0917 0.271639,-0.13758 0.14111,-0.0494 0.29986,-0.0494 0.22225,0 0.352777,0.10936 0.134055,0.10936 0.134055,0.28222 0,0.0741 -0.01764,0.15169 -0.01411,0.0776 -0.02469,0.12348 l -0.102305,0.43038 q -0.02822,0.11289 -0.03881,0.18698 -0.01058,0.0741 -0.01058,0.12699 0,0.0635 0.03175,0.11289 0.03528,0.0459 0.105833,0.0459 0.03175,0 0.05292,-0.007 0.02469,-0.0106 0.04233,-0.0247 l 0.01764,0.0741 q -0.05997,0.0388 -0.123472,0.06 -0.0635,0.0212 -0.137583,0.0212 -0.109361,0 -0.169333,-0.0564 -0.05645,-0.06 -0.0635,-0.16933 -0.105833,0.11289 -0.243416,0.1905 -0.134056,0.0741 -0.306916,0.0741 -0.07761,0 -0.155222,-0.0212 -0.07761,-0.0212 -0.141111,-0.067 -0.05997,-0.0494 -0.09878,-0.11995 -0.0388,-0.0741 -0.0388,-0.1658 0,-0.16933 0.08819,-0.27517 0.08819,-0.10583 0.211666,-0.1658 0.123472,-0.0635 0.254,-0.0917 0.130527,-0.0318 0.211666,-0.0494 0.07055,-0.0141 0.151694,-0.0247 0.08114,-0.0141 0.130528,-0.0353 0.07408,-0.0318 0.09172,-0.10936 0.02117,-0.0776 0.02117,-0.15169 0,-0.15875 -0.102305,-0.23283 -0.102305,-0.0776 -0.250472,-0.0776 -0.148166,0 -0.253999,0.067 -0.102305,0.0635 -0.197555,0.16581 h -0.04233 z"
           inkscape:connector-curvature="0" />
        <path
           id="path2151"
           style="font-style:italic;font-variant:normal;font-weight:normal;font-stretch:normal;font-family:Optima;-inkscape-font-specification:'Optima Italic';fill:#3a5c8f;fill-opacity:1;stroke-width:0.264583"
           d="m 23.30052,124.29714 q -0.01411,0.0459 -0.05644,0.21872 -0.03881,0.16933 -0.09525,0.41275 -0.05292,0.24341 -0.116416,0.53269 -0.0635,0.28575 -0.123472,0.56445 -0.05645,0.27516 -0.102306,0.51858 -0.04586,0.23989 -0.07055,0.381 -0.02822,-0.004 -0.0635,-0.004 -0.03175,0 -0.08114,0 -0.04586,0 -0.08114,0 -0.03175,0 -0.05997,0.004 0.05644,-0.20461 0.112888,-0.4445 0.05997,-0.24342 0.116417,-0.49389 0.05644,-0.25047 0.105833,-0.49742 0.05292,-0.24694 0.09525,-0.46919 0.04233,-0.22225 0.07408,-0.40922 0.03175,-0.18697 0.04939,-0.31397 0.05292,0.0141 0.134056,0.0141 0.0388,0 0.08114,-0.004 0.04233,-0.004 0.08114,-0.0106 z"
           inkscape:connector-curvature="0" />
        <path
           id="path2153"
           style="font-style:italic;font-variant:normal;font-weight:normal;font-stretch:normal;font-family:Optima;-inkscape-font-specification:'Optima Italic';fill:#3a5c8f;fill-opacity:1;stroke-width:0.264583"
           d="m 24.063345,126.60783 q 0.07055,-0.127 0.144638,-0.254 0.07761,-0.13053 0.148167,-0.26106 0.109361,-0.20108 0.176388,-0.32455 0.07056,-0.127 0.112889,-0.20461 0.04233,-0.0811 0.0635,-0.127 0.02117,-0.0459 0.0388,-0.0882 l 0.03528,-0.0847 q 0.05292,0.0141 0.123472,0.0141 0.07055,0 0.112889,-0.0141 -0.194028,0.30691 -0.395111,0.63147 -0.201083,0.32455 -0.39511,0.65616 -0.194027,0.33161 -0.377471,0.65617 -0.179917,0.32455 -0.331611,0.635 -0.0388,-0.0141 -0.112888,-0.0141 -0.07056,0 -0.109361,0.0141 0.148166,-0.23284 0.296332,-0.4692 0.148167,-0.23636 0.282222,-0.45155 -0.105833,-0.43392 -0.211666,-0.83256 -0.102305,-0.40216 -0.215194,-0.82549 0.03175,0.007 0.07055,0.0106 0.03881,0.004 0.07761,0.004 0.08467,0 0.137583,-0.0141 0.04233,0.24341 0.119944,0.58561 0.07761,0.34219 0.1905,0.75847 h 0.01764 z"
           inkscape:connector-curvature="0" />
        <path
           id="path2155"
           style="font-style:italic;font-variant:normal;font-weight:normal;font-stretch:normal;font-family:Optima;-inkscape-font-specification:'Optima Italic';fill:#3a5c8f;fill-opacity:1;stroke-width:0.264583"
           d="m 26.088285,125.54597 q -0.02822,-0.0988 -0.109361,-0.1517 -0.07761,-0.0564 -0.179916,-0.0564 -0.07761,0 -0.141111,0.0318 -0.05997,0.0282 -0.105833,0.0776 -0.04233,0.0459 -0.06703,0.10583 -0.02117,0.06 -0.02117,0.11995 0,0.0635 0.02469,0.11289 0.02469,0.0459 0.06703,0.0811 0.04233,0.0353 0.09525,0.0635 0.05645,0.0282 0.116417,0.0529 0.05644,0.0247 0.112888,0.0564 0.05645,0.0282 0.102306,0.0705 0.04586,0.0423 0.07408,0.10231 0.02822,0.06 0.02822,0.14464 0,0.12347 -0.05644,0.23636 -0.05645,0.10936 -0.155222,0.19402 -0.09525,0.0847 -0.229305,0.13053 -0.130528,0.0459 -0.285749,0.0459 -0.109361,0 -0.201083,-0.0212 -0.08819,-0.0212 -0.179917,-0.0706 0.03881,-0.0635 0.06703,-0.13053 0.02822,-0.067 0.04586,-0.10583 h 0.02469 q 0.03881,0.10583 0.134056,0.15875 0.09878,0.0529 0.215194,0.0529 0.102305,0 0.17286,-0.0353 0.07408,-0.0353 0.119945,-0.0882 0.04586,-0.0529 0.06703,-0.11641 0.02469,-0.067 0.02469,-0.12347 0,-0.11289 -0.07056,-0.16934 -0.07055,-0.0564 -0.211666,-0.11994 -0.05644,-0.0247 -0.116416,-0.0564 -0.05645,-0.0318 -0.102306,-0.0776 -0.04586,-0.0459 -0.07408,-0.10936 -0.02822,-0.067 -0.02822,-0.16228 0,-0.0917 0.03528,-0.1905 0.03528,-0.0988 0.10936,-0.18344 0.07761,-0.0847 0.201083,-0.13758 0.123472,-0.0564 0.299861,-0.0564 0.09525,0 0.165805,0.0176 0.07055,0.0141 0.155222,0.0529 -0.05292,0.11994 -0.07056,0.16933 -0.01411,0.0494 -0.02117,0.0847 h -0.03175 z"
           inkscape:connector-curvature="0" />
      </g>
    </g>
    <g
       aria-label="8 Offset"
       id="text3513"
       style="font-style:italic;font-size:3.52777px;line-height:1.25;font-family:Optima;-inkscape-font-specification:'Optima Italic';fill:#3a5c8f;fill-opacity:1;stroke-width:0.264583;filter:url(#filter3552)">
      <path
         inkscape:connector-curvature="0"
         d="m 9.573822,3.3157249 q 0,0.084666 0.021167,0.169333 0.024694,0.081139 0.074083,0.1446385 0.049389,0.0635 0.123472,0.1023054 0.077611,0.038805 0.1869718,0.038805 0.1481662,0 0.2575272,-0.070555 0.112888,-0.074083 0.183444,-0.183444 0.07408,-0.1128886 0.109361,-0.2434161 0.03528,-0.1340553 0.03528,-0.2539995 0,-0.1164164 -0.03175,-0.1975551 -0.03175,-0.084667 -0.08819,-0.137583 -0.05292,-0.056444 -0.126999,-0.081139 -0.07408,-0.028222 -0.155222,-0.028222 -0.151694,0 -0.2645829,0.074083 Q 9.7854882,2.7230595 9.7149328,2.8359482 9.6443774,2.9453091 9.6090997,3.0758365 9.573822,3.2028363 9.573822,3.3157249 Z M 9.912488,2.1268664 q 0,0.1622774 0.077611,0.2575272 0.077611,0.09525 0.246944,0.09525 0.102305,0 0.186972,-0.045861 0.08467,-0.045861 0.14111,-0.123472 0.05997,-0.077611 0.09172,-0.1763885 0.03175,-0.098777 0.03175,-0.2046106 0,-0.1481664 -0.08114,-0.2504717 -0.07761,-0.1023053 -0.236361,-0.1023053 -0.08819,0 -0.172861,0.038805 -0.08114,0.038806 -0.144638,0.1128887 -0.0635,0.070555 -0.1023055,0.1728607 -0.038805,0.1023054 -0.038805,0.2257773 z m 0.945442,0.9066369 q 0,0.1481663 -0.05997,0.2998605 -0.05644,0.1481663 -0.17286,0.2681105 -0.112889,0.1199442 -0.278694,0.1940273 -0.165806,0.070555 -0.3809995,0.070555 -0.1234719,0 -0.2469439,-0.028222 Q 9.5985184,3.8131406 9.5032686,3.7461126 9.4080186,3.6755576 9.3480467,3.5661963 9.2916027,3.4533076 9.2916027,3.294558 q 0,-0.1481664 0.045861,-0.2751661 Q 9.3868527,2.8888644 9.471519,2.7900869 9.559713,2.6877815 9.6831852,2.6207539 9.8101849,2.5501989 9.9654068,2.5219759 V 2.5043378 Q 9.9054324,2.4866989 9.8489881,2.454949 9.7925438,2.4196713 9.7466828,2.3667548 9.7008218,2.3138382 9.6725996,2.2468106 9.6479052,2.1762552 9.6479052,2.0915887 q 0,-0.1023053 0.038806,-0.2116662 0.042333,-0.1093609 0.1305275,-0.2010829 0.088194,-0.091722 0.2293043,-0.1481663 0.144639,-0.059972 0.349249,-0.059972 0.179917,0 0.289278,0.052917 0.112888,0.049389 0.17286,0.123472 0.0635,0.070555 0.08114,0.1516941 0.02117,0.077611 0.02117,0.137583 0,0.1199442 -0.04233,0.215194 -0.0388,0.09525 -0.10936,0.1658052 -0.07056,0.070555 -0.162278,0.1199442 -0.09172,0.049389 -0.197555,0.077611 V 2.53256 q 0.194027,0.049389 0.29986,0.1869718 0.109361,0.1340552 0.109361,0.3139715 z"
         style="fill:#3a5c8f;fill-opacity:1;stroke-width:0.264583"
         id="path3515" />
      <path
         inkscape:connector-curvature="0"
         d="m 12.59001,2.9206147 q 0,0.229305 0.06703,0.3915824 0.06703,0.1622775 0.179916,0.2681106 0.112889,0.1023053 0.261055,0.1516941 0.151694,0.045861 0.3175,0.045861 0.313971,0 0.543276,-0.137583 0.229305,-0.1375831 0.377472,-0.3457215 0.151694,-0.2116662 0.225777,-0.4550823 0.07408,-0.246944 0.07408,-0.4621379 0,-0.2328328 -0.07056,-0.4021658 -0.07056,-0.169333 -0.186972,-0.2751661 -0.116417,-0.1093608 -0.271638,-0.1622774 -0.155222,-0.052917 -0.324555,-0.052917 -0.275166,0 -0.497416,0.1234719 -0.218722,0.1199442 -0.373943,0.3210271 -0.155222,0.2010829 -0.239889,0.4621379 -0.08114,0.2575272 -0.08114,0.5291655 z m -0.303388,-0.042333 q 0,-0.3457214 0.119944,-0.6208875 0.123472,-0.2786938 0.331611,-0.476249 0.208138,-0.1975551 0.486832,-0.3033882 0.278694,-0.1058331 0.592665,-0.1058331 0.257528,0 0.462138,0.074083 0.208139,0.070555 0.352777,0.2046106 0.148167,0.1305275 0.225778,0.3210271 0.08114,0.1869718 0.08114,0.4233324 0,0.2645828 -0.102305,0.5326933 -0.102305,0.2645828 -0.296333,0.4797767 -0.194027,0.2116662 -0.479776,0.3421937 -0.282222,0.1305275 -0.645582,0.1305275 -0.07408,0 -0.176389,-0.00706 -0.09878,-0.00706 -0.211666,-0.03175 -0.112889,-0.024694 -0.225777,-0.074083 -0.112889,-0.049389 -0.211667,-0.1340553 -0.09878,-0.081139 -0.158749,-0.1799163 -0.05997,-0.098778 -0.09172,-0.2010829 -0.03175,-0.1058331 -0.04233,-0.2010828 -0.01058,-0.098778 -0.01058,-0.1728608 z"
         style="fill:#3a5c8f;fill-opacity:1;stroke-width:0.264583"
         id="path3517" />
      <path
         inkscape:connector-curvature="0"
         d="m 15.23931,2.1903663 q 0.0635,0.00706 0.127,0.010583 0.0635,0.00353 0.127,0.00353 0.0388,-0.1904995 0.07761,-0.3174993 0.04233,-0.1305275 0.08467,-0.2257772 0.03881,-0.088194 0.09525,-0.169333 0.05997,-0.084666 0.134055,-0.1481663 0.07761,-0.0635 0.165806,-0.1023054 0.09172,-0.038805 0.194027,-0.038805 0.04233,0 0.07761,0.010583 0.0388,0.00706 0.06703,0.017639 -0.02822,0.070555 -0.04586,0.1340553 -0.01764,0.0635 -0.02469,0.1128886 l -0.03175,0.014111 q -0.0388,-0.017639 -0.09878,-0.038806 -0.05645,-0.021167 -0.130528,-0.021167 -0.109361,0 -0.169333,0.049389 -0.05997,0.045861 -0.08819,0.1093609 -0.02822,0.0635 -0.03528,0.1269997 -0.0071,0.0635 -0.0071,0.098778 -0.0035,0.1023054 -0.0071,0.1940274 -0.0035,0.091722 -0.01411,0.1940273 0.05997,0 0.134055,-0.00353 0.07761,-0.00353 0.172861,-0.010583 l -0.02822,0.1446385 q -0.07408,-0.00353 -0.151694,-0.00706 -0.07408,-0.00706 -0.148167,-0.00706 -0.05997,0.2963326 -0.123472,0.582082 -0.05997,0.2857494 -0.119944,0.5714988 -0.01764,0.091722 -0.03528,0.183444 -0.01411,0.088194 -0.02469,0.169333 -0.02822,-0.00353 -0.0635,-0.00353 -0.03175,0 -0.07055,0 -0.04233,0 -0.07761,0 -0.03528,0 -0.0635,0.00353 0.04586,-0.1622775 0.09172,-0.3563048 0.04586,-0.1940274 0.08819,-0.3915825 0.04586,-0.2010829 0.08467,-0.3951102 0.0388,-0.1940274 0.07056,-0.3633603 -0.0635,0 -0.127,0.00353 -0.0635,0 -0.126999,0.010583 l 0.02117,-0.1446385 z"
         style="fill:#3a5c8f;fill-opacity:1;stroke-width:0.264583"
         id="path3519" />
      <path
         inkscape:connector-curvature="0"
         d="m 16.217715,2.1903663 q 0.0635,0.00706 0.127,0.010583 0.0635,0.00353 0.127,0.00353 0.0388,-0.1904995 0.07761,-0.3174993 0.04233,-0.1305275 0.08467,-0.2257772 0.03881,-0.088194 0.09525,-0.169333 0.05997,-0.084666 0.134055,-0.1481663 0.07761,-0.0635 0.165806,-0.1023054 0.09172,-0.038805 0.194027,-0.038805 0.04233,0 0.07761,0.010583 0.0388,0.00706 0.06703,0.017639 -0.02822,0.070555 -0.04586,0.1340553 -0.01764,0.0635 -0.02469,0.1128886 l -0.03175,0.014111 q -0.0388,-0.017639 -0.09878,-0.038806 -0.05645,-0.021167 -0.130528,-0.021167 -0.109361,0 -0.169333,0.049389 -0.05997,0.045861 -0.08819,0.1093609 -0.02822,0.0635 -0.03528,0.1269997 -0.0071,0.0635 -0.0071,0.098778 -0.0035,0.1023054 -0.0071,0.1940274 -0.0035,0.091722 -0.01411,0.1940273 0.05997,0 0.134055,-0.00353 0.07761,-0.00353 0.172861,-0.010583 l -0.02822,0.1446385 q -0.07408,-0.00353 -0.151694,-0.00706 -0.07408,-0.00706 -0.148167,-0.00706 -0.05997,0.2963326 -0.123472,0.582082 -0.05997,0.2857494 -0.119944,0.5714988 -0.01764,0.091722 -0.03528,0.183444 -0.01411,0.088194 -0.0247,0.169333 -0.02822,-0.00353 -0.0635,-0.00353 -0.03175,0 -0.07056,0 -0.04233,0 -0.07761,0 -0.03528,0 -0.0635,0.00353 0.04586,-0.1622775 0.09172,-0.3563048 0.04586,-0.1940274 0.08819,-0.3915825 0.04586,-0.2010829 0.08467,-0.3951102 0.0388,-0.1940274 0.07056,-0.3633603 -0.0635,0 -0.127,0.00353 -0.0635,0 -0.126999,0.010583 l 0.02117,-0.1446385 z"
         style="fill:#3a5c8f;fill-opacity:1;stroke-width:0.264583"
         id="path3521" />
      <path
         inkscape:connector-curvature="0"
         d="m 18.092174,2.4478935 q -0.02822,-0.098778 -0.109361,-0.1516941 -0.07761,-0.056444 -0.179916,-0.056444 -0.07761,0 -0.141111,0.03175 -0.05997,0.028222 -0.105833,0.077611 -0.04233,0.045861 -0.06703,0.1058331 -0.02117,0.059972 -0.02117,0.1199442 0,0.0635 0.02469,0.1128886 0.02469,0.045861 0.06703,0.081139 0.04233,0.035278 0.09525,0.0635 0.05644,0.028222 0.116416,0.052917 0.05644,0.024694 0.112889,0.056444 0.05644,0.028222 0.102305,0.070555 0.04586,0.042333 0.07408,0.1023053 0.02822,0.059972 0.02822,0.1446386 0,0.1234719 -0.05644,0.2363606 -0.05644,0.1093609 -0.155222,0.1940273 -0.09525,0.084667 -0.229305,0.1305275 -0.130528,0.045861 -0.285749,0.045861 -0.109361,0 -0.201083,-0.021167 -0.08819,-0.021167 -0.179917,-0.070555 0.03881,-0.0635 0.06703,-0.1305275 0.02822,-0.067028 0.04586,-0.1058331 h 0.02469 q 0.03881,0.1058331 0.134056,0.1587497 0.09878,0.052917 0.215194,0.052917 0.102305,0 0.17286,-0.035278 0.07408,-0.035278 0.119945,-0.088194 0.04586,-0.052917 0.06703,-0.1164164 0.02469,-0.067028 0.02469,-0.123472 0,-0.1128886 -0.07056,-0.169333 -0.07055,-0.056444 -0.211666,-0.1199441 -0.05644,-0.024694 -0.116416,-0.056444 -0.05645,-0.03175 -0.102306,-0.077611 -0.04586,-0.045861 -0.07408,-0.1093609 -0.02822,-0.067028 -0.02822,-0.1622774 0,-0.091722 0.03528,-0.1904996 0.03528,-0.098778 0.109361,-0.183444 0.07761,-0.084666 0.201082,-0.137583 0.123472,-0.056444 0.299861,-0.056444 0.09525,0 0.165805,0.017639 0.07055,0.014111 0.155222,0.052916 -0.05292,0.1199442 -0.07055,0.169333 -0.01411,0.049389 -0.02117,0.084666 h -0.03175 z"
         style="fill:#3a5c8f;fill-opacity:1;stroke-width:0.264583"
         id="path3523" />
      <path
         inkscape:connector-curvature="0"
         d="m 19.364541,2.239755 q -0.07055,0 -0.158749,0.028222 -0.08467,0.024694 -0.169333,0.09525 -0.08114,0.067028 -0.151695,0.1869718 -0.07055,0.1164164 -0.10936,0.2998605 0.10936,0.00706 0.239888,0.010583 0.130527,0.00353 0.239888,0.00353 h 0.112889 q 0.08819,0 0.186972,0 0.09878,-0.00353 0.169333,-0.014111 0.0071,-0.03175 0.01411,-0.074083 0.0071,-0.045861 0.0071,-0.1164164 0,-0.1164164 -0.03528,-0.1975551 -0.03175,-0.081139 -0.0882,-0.1305275 -0.05292,-0.049389 -0.119944,-0.070555 -0.06703,-0.021167 -0.137583,-0.021167 z m 0.370416,1.4746079 q -0.130527,0.077611 -0.278694,0.1093609 -0.144638,0.035278 -0.296332,0.035278 -0.112889,0 -0.236361,-0.03175 -0.123472,-0.028222 -0.229305,-0.1093609 -0.102305,-0.084666 -0.169333,-0.2222495 -0.06703,-0.1411108 -0.06703,-0.352777 0,-0.2081385 0.0635,-0.3915825 0.06703,-0.183444 0.186972,-0.3174993 0.119944,-0.137583 0.285749,-0.215194 0.169333,-0.081139 0.370416,-0.081139 0.127,0 0.239889,0.03175 0.112888,0.028222 0.201082,0.098778 0.08819,0.067028 0.137583,0.1799163 0.05292,0.1093608 0.05292,0.2681105 0,0.098778 -0.01411,0.169333 -0.01411,0.070555 -0.02469,0.1164164 -0.07408,-0.00353 -0.134056,-0.00706 -0.05997,-0.00353 -0.119944,-0.00353 -0.05644,-0.00353 -0.119944,-0.00353 -0.0635,-0.00353 -0.144639,-0.00353 h -0.261055 -0.10936 q -0.08467,0 -0.169333,0.00353 -0.08467,0.00353 -0.148167,0.00353 -0.0071,0.035278 -0.01411,0.084666 -0.0035,0.049389 -0.0035,0.1199442 0,0.1728608 0.05292,0.2786939 0.05292,0.1058331 0.127,0.1658052 0.07761,0.059972 0.165805,0.081139 0.09172,0.021167 0.165805,0.021167 0.102305,0 0.183444,-0.021167 0.08467,-0.021167 0.148166,-0.049389 0.06703,-0.028222 0.112889,-0.059972 0.04939,-0.035278 0.08114,-0.056444 h 0.01058 z"
         style="fill:#3a5c8f;fill-opacity:1;stroke-width:0.264583"
         id="path3525" />
      <path
         inkscape:connector-curvature="0"
         d="m 20.937927,1.7247006 q -0.03528,0.123472 -0.0635,0.2434162 -0.02469,0.1199441 -0.05292,0.2434161 0.08114,0 0.176388,-0.00353 0.09878,-0.00706 0.1905,-0.010583 -0.02117,0.074083 -0.02117,0.1446386 -0.09172,-0.00353 -0.194027,-0.00706 -0.09878,-0.00706 -0.179916,-0.00706 l -0.137583,0.6632208 q -0.01058,0.056444 -0.02469,0.1269997 -0.01411,0.067028 -0.02822,0.1340552 -0.01058,0.067028 -0.02117,0.1305275 -0.0071,0.059972 -0.0071,0.1023054 0,0.070555 0.02469,0.1199442 0.0247,0.049389 0.05997,0.081139 0.03881,0.028222 0.08114,0.042333 0.04586,0.014111 0.08467,0.014111 0.05997,0 0.119945,-0.017639 0.05997,-0.021167 0.112888,-0.052917 l -0.0071,0.091722 q -0.07056,0.056444 -0.172861,0.077611 -0.09878,0.021167 -0.186972,0.021167 -0.06703,0 -0.137583,-0.021167 -0.06703,-0.017639 -0.119944,-0.056444 -0.05292,-0.038805 -0.08819,-0.098778 -0.03175,-0.0635 -0.03175,-0.1446386 0,-0.070555 0.01411,-0.1481664 0.01764,-0.077611 0.03528,-0.1658051 0.0388,-0.1799163 0.0635,-0.292805 0.02469,-0.1128886 0.04233,-0.2010829 0.02117,-0.091722 0.0388,-0.1799162 0.01764,-0.091722 0.04586,-0.2257773 -0.04939,0 -0.112888,0.00353 -0.05997,0 -0.119945,0.00353 0.01058,-0.028222 0.01411,-0.056444 0.0071,-0.028222 0.0071,-0.081139 0.05644,0.00353 0.116416,0.010583 0.0635,0.00353 0.109361,0.00353 l 0.0635,-0.3739436 0.306916,-0.1128887 z"
         style="fill:#3a5c8f;fill-opacity:1;stroke-width:0.264583"
         id="path3527" />
    </g>
  </g>
  <g
     sodipodi:insensitive="true"
     style="display:none"
     inkscape:label="components"
     id="layer2"
     inkscape:groupmode="layer">
    <circle
       style="display:inline;opacity:1;fill:#f2f2f2;stroke:#ff0000;stroke-width:0.264583;stroke-opacity:1"
       id="path15"
       cx="7.6200008"
       cy="10.160005"
       inkscape:label="in1"
       r="2.6458333" />
    <circle
       style="display:inline;opacity:1;fill:#f2f2f2;stroke:#ff0000;stroke-width:0.264583;stroke-opacity:1"
       id="path17"
       cx="7.6200008"
       cy="25.400011"
       inkscape:label="in2"
       r="2.6458333" />
    <circle
       style="display:inline;opacity:1;fill:#f2f2f2;stroke:#ff0000;stroke-width:0.264583;stroke-opacity:1"
       id="path34"
       cx="7.6200008"
       cy="40.640007"
       inkscape:label="in3"
       r="2.6458333" />
    <circle
       inkscape:label="in4"
       cy="55.880028"
       cx="7.5141697"
       id="path15-0"
       style="display:inline;opacity:1;fill:#f2f2f2;stroke:#ff0000;stroke-width:0.264583;stroke-opacity:1"
       r="2.6458333" />
    <circle
       inkscape:label="in5"
       cy="71.120033"
       cx="7.5141697"
       id="path17-5"
       style="display:inline;opacity:1;fill:#f2f2f2;stroke:#ff0000;stroke-width:0.264583;stroke-opacity:1"
       r="2.6458333" />
    <circle
       inkscape:label="in6"
       cy="86.360023"
       cx="7.5141697"
       id="path34-6"
       style="display:inline;opacity:1;fill:#f2f2f2;stroke:#ff0000;stroke-width:0.264583;stroke-opacity:1"
       r="2.6458333" />
    <circle
       style="display:inline;opacity:1;fill:#f2f2f2;stroke:#ff0000;stroke-width:0.264583;stroke-opacity:1"
       id="path17-5-3"
       cx="7.5141697"
       cy="101.60003"
       inkscape:label="in7"
       r="2.6458333" />
    <circle
       style="display:inline;opacity:1;fill:#f2f2f2;stroke:#ff0000;stroke-width:0.264583;stroke-opacity:1"
       id="path34-6-8"
       cx="7.5141697"
       cy="116.84"
       inkscape:label="in8"
       r="2.6458333" />
    <circle
       inkscape:label="out1"
       cy="10.160005"
       cx="22.859999"
       id="path15-4-6-5"
       style="display:inline;opacity:1;fill:#f2f2f2;stroke:#0000ff;stroke-width:0.264583;stroke-opacity:1"
       r="2.6458333" />
    <circle
       inkscape:label="out2"
       cy="25.400011"
       cx="22.860003"
       id="path17-0-5-4"
       style="display:inline;opacity:1;fill:#f2f2f2;stroke:#0000ff;stroke-width:0.264583;stroke-opacity:1"
       r="2.6458333" />
    <circle
       inkscape:label="out3"
       cy="40.640007"
       cx="22.860003"
       id="path34-0-3-2"
       style="display:inline;opacity:1;fill:#f2f2f2;stroke:#0000ff;stroke-width:0.264583;stroke-opacity:1"
       r="2.6458333" />
    <circle
       style="display:inline;opacity:1;fill:#f2f2f2;stroke:#0000ff;stroke-width:0.264583;stroke-opacity:1"
       id="path15-0-9-0-1"
       cx="22.860003"
       cy="55.880013"
       inkscape:label="out4"
       r="2.6458333" />
    <circle
       style="display:inline;opacity:1;fill:#f2f2f2;stroke:#0000ff;stroke-width:0.264583;stroke-opacity:1"
       id="path17-5-37-4-9"
       cx="22.860003"
       cy="71.120018"
       inkscape:label="out5"
       r="2.6458333" />
    <circle
       style="display:inline;opacity:1;fill:#f2f2f2;stroke:#0000ff;stroke-width:0.264583;stroke-opacity:1"
       id="path34-6-5-8-2"
       cx="22.860003"
       cy="86.360008"
       inkscape:label="out6"
       r="2.6458333" />
    <circle
       inkscape:label="out7"
       cy="101.60001"
       cx="22.860003"
       id="path17-5-3-7-5-4"
       style="display:inline;opacity:1;fill:#f2f2f2;stroke:#0000ff;stroke-width:0.264583;stroke-opacity:1"
       r="2.6458333" />
    <circle
       inkscape:label="out8"
       cy="116.84"
       cx="22.860003"
       id="path34-6-8-2-5-5"
       style="display:inline;opacity:1;fill:#f2f2f2;stroke:#0000ff;stroke-width:0.264583;stroke-opacity:1"
       r="2.6458333" />
  </g>
</svg>
