<?xml version="1.0" encoding="UTF-8" standalone="no"?>
<svg
   xmlns:dc="http://purl.org/dc/elements/1.1/"
   xmlns:cc="http://creativecommons.org/ns#"
   xmlns:rdf="http://www.w3.org/1999/02/22-rdf-syntax-ns#"
   xmlns:svg="http://www.w3.org/2000/svg"
   xmlns="http://www.w3.org/2000/svg"
   xmlns:sodipodi="http://sodipodi.sourceforge.net/DTD/sodipodi-0.dtd"
   xmlns:inkscape="http://www.inkscape.org/namespaces/inkscape"
   width="45.720001mm"
   height="128.5mm"
   viewBox="0 0 45.720001 128.5"
   version="1.1"
   id="svg1138"
   inkscape:version="1.0beta1 (32d4812, 2019-09-19)"
   sodipodi:docname="PosNegRectifier.svg">
  <defs
     id="defs1132">
    <filter
       style="color-interpolation-filters:sRGB"
       inkscape:label="Bump"
       id="filter912">
      <feGaussianBlur
         in="SourceGraphic"
         stdDeviation="0.01"
         result="blur1"
         id="feGaussianBlur890" />
      <feColorMatrix
         in="BackgroundImage"
         values="1 0 0 0 0 0 1 0 0 0 0 0 1 0 0 0 0 0 1 0 "
         result="colormatrix1"
         id="feColorMatrix892" />
      <feColorMatrix
         in="colormatrix1"
         type="luminanceToAlpha"
         result="colormatrix2"
         id="feColorMatrix894" />
      <feComposite
         k4="0"
         k1="0"
         in2="blur1"
         operator="arithmetic"
         k2="1"
         k3="0"
         result="composite1"
         id="feComposite896" />
      <feGaussianBlur
         in="composite1"
         stdDeviation="0.01"
         result="blur2"
         id="feGaussianBlur898" />
      <feSpecularLighting
         lighting-color="#ffffff"
         surfaceScale="5"
         specularConstant="1"
         specularExponent="15"
         result="lighting"
         id="feSpecularLighting902">
        <feDistantLight
           azimuth="225"
           elevation="45"
           id="feDistantLight900" />
      </feSpecularLighting>
      <feFlood
         flood-color="rgb(197,41,41)"
         flood-opacity="1"
         result="flood"
         id="feFlood904" />
      <feComposite
         k4="0"
         k1="0"
         in="lighting"
         in2="blur1"
         operator="arithmetic"
         k3="1"
         k2="1"
         result="composite2"
         id="feComposite906" />
      <feBlend
         in2="SourceGraphic"
         mode="normal"
         result="blend"
         id="feBlend908" />
      <feComposite
         in="blend"
         in2="SourceGraphic"
         operator="in"
         result="composite3"
         id="feComposite910" />
    </filter>
    <filter
       id="filter2180"
       inkscape:label="Bump"
       style="color-interpolation-filters:sRGB">
      <feGaussianBlur
         id="feGaussianBlur2158"
         result="blur1"
         stdDeviation="0.01"
         in="SourceGraphic" />
      <feColorMatrix
         id="feColorMatrix2160"
         result="colormatrix1"
         values="1 0 0 0 0 0 1 0 0 0 0 0 1 0 0 0 0 0 1 0 "
         in="BackgroundImage" />
      <feColorMatrix
         id="feColorMatrix2162"
         result="colormatrix2"
         type="luminanceToAlpha"
         in="colormatrix1" />
      <feComposite
         k4="0"
         k1="0"
         id="feComposite2164"
         result="composite1"
         k3="0"
         k2="1"
         operator="arithmetic"
         in2="blur1" />
      <feGaussianBlur
         id="feGaussianBlur2166"
         result="blur2"
         stdDeviation="0.01"
         in="composite1" />
      <feSpecularLighting
         id="feSpecularLighting2170"
         result="lighting"
         specularExponent="15"
         specularConstant="1"
         surfaceScale="5"
         lighting-color="#ffffff">
        <feDistantLight
           id="feDistantLight2168"
           elevation="45"
           azimuth="225" />
      </feSpecularLighting>
      <feFlood
         id="feFlood2172"
         result="flood"
         flood-opacity="1"
         flood-color="rgb(197,41,41)" />
      <feComposite
         k4="0"
         k1="0"
         id="feComposite2174"
         result="composite2"
         k2="1"
         k3="1"
         operator="arithmetic"
         in2="blur1"
         in="lighting" />
      <feBlend
         id="feBlend2176"
         result="blend"
         mode="normal"
         in2="SourceGraphic" />
      <feComposite
         id="feComposite2178"
         result="composite3"
         operator="in"
         in2="SourceGraphic"
         in="blend" />
    </filter>
  </defs>
  <sodipodi:namedview
     inkscape:snap-bbox-midpoints="true"
     inkscape:snap-bbox="true"
     id="base"
     pagecolor="#ffffff"
     bordercolor="#666666"
     borderopacity="1.0"
     inkscape:pageopacity="0.0"
     inkscape:pageshadow="2"
     inkscape:zoom="6.5806096"
     inkscape:cx="74.410485"
     inkscape:cy="60.582772"
     inkscape:document-units="mm"
     inkscape:current-layer="layer4"
     inkscape:document-rotation="0"
     showgrid="true"
     inkscape:snap-object-midpoints="true"
     inkscape:window-width="1920"
     inkscape:window-height="1080"
     inkscape:window-x="1440"
     inkscape:window-y="0"
     inkscape:window-maximized="0">
    <inkscape:grid
       type="xygrid"
       id="grid1738"
       units="mm"
       spacingx="2.54"
       spacingy="2.54" />
  </sodipodi:namedview>
  <metadata
     id="metadata1135">
    <rdf:RDF>
      <cc:Work
         rdf:about="">
        <dc:format>image/svg+xml</dc:format>
        <dc:type
           rdf:resource="http://purl.org/dc/dcmitype/StillImage" />
        <dc:title />
      </cc:Work>
    </rdf:RDF>
  </metadata>
  <g
     inkscape:label="Background"
     inkscape:groupmode="layer"
     id="layer1"
     sodipodi:insensitive="true">
    <rect
       style="display:inline;fill:#ffcb00;fill-opacity:1;stroke:none;stroke-width:0.150475"
       id="rect10"
       width="45.720001"
       height="128.5"
       x="0"
       y="0" />
  </g>
  <g
     style="display:inline"
     inkscape:groupmode="layer"
     id="layer3"
     inkscape:label="boxes"
     sodipodi:insensitive="true">
    <rect
       style="display:inline;fill:#3a5c8f;fill-opacity:0.501961;stroke:none;stroke-width:0.508799;stroke-miterlimit:4;stroke-dasharray:0.508799, 1.0176;stroke-dashoffset:0;stroke-opacity:1"
       id="rect1740-1"
       width="10.160002"
       height="10.160002"
       x="33.019997"
       y="5.0799952" />
    <rect
       style="display:inline;fill:#3a5c8f;fill-opacity:0.501961;stroke:none;stroke-width:0.508799;stroke-miterlimit:4;stroke-dasharray:0.508799, 1.0176;stroke-dashoffset:0;stroke-opacity:1"
       id="rect1740-1-0"
       width="10.160002"
       height="10.160002"
       x="33.019997"
       y="20.319996" />
    <rect
       y="35.559994"
       x="33.019997"
       height="10.160002"
       width="10.160002"
       id="rect1740-1-0-3"
       style="display:inline;fill:#3a5c8f;fill-opacity:0.501961;stroke:none;stroke-width:0.508799;stroke-miterlimit:4;stroke-dasharray:0.508799, 1.0176;stroke-dashoffset:0;stroke-opacity:1" />
    <rect
       y="50.799992"
       x="33.019997"
       height="10.160002"
       width="10.160002"
       id="rect1740-1-0-5"
       style="display:inline;fill:#3a5c8f;fill-opacity:0.501961;stroke:none;stroke-width:0.508799;stroke-miterlimit:4;stroke-dasharray:0.508799, 1.0176;stroke-dashoffset:0;stroke-opacity:1" />
    <rect
       y="66.039993"
       x="33.019997"
       height="10.160002"
       width="10.160002"
       id="rect1740-1-0-4"
       style="display:inline;fill:#3a5c8f;fill-opacity:0.501961;stroke:none;stroke-width:0.508799;stroke-miterlimit:4;stroke-dasharray:0.508799, 1.0176;stroke-dashoffset:0;stroke-opacity:1" />
    <rect
       y="81.279991"
       x="33.019997"
       height="10.160002"
       width="10.160002"
       id="rect1740-1-0-36"
       style="display:inline;fill:#3a5c8f;fill-opacity:0.501961;stroke:none;stroke-width:0.508799;stroke-miterlimit:4;stroke-dasharray:0.508799, 1.0176;stroke-dashoffset:0;stroke-opacity:1" />
    <rect
       y="96.520004"
       x="33.019997"
       height="10.160002"
       width="10.160002"
       id="rect1740-1-0-59"
       style="display:inline;fill:#3a5c8f;fill-opacity:0.501961;stroke:none;stroke-width:0.508799;stroke-miterlimit:4;stroke-dasharray:0.508799, 1.0176;stroke-dashoffset:0;stroke-opacity:1" />
    <rect
       y="111.75999"
       x="33.019997"
       height="10.160002"
       width="10.160002"
       id="rect1740-1-0-54"
       style="display:inline;fill:#3a5c8f;fill-opacity:0.501961;stroke:none;stroke-width:0.508799;stroke-miterlimit:4;stroke-dasharray:0.508799, 1.0176;stroke-dashoffset:0;stroke-opacity:1" />
    <rect
       style="display:inline;fill:#3a5c8f;fill-opacity:0.501961;stroke:none;stroke-width:0.508799;stroke-miterlimit:4;stroke-dasharray:0.508799, 1.0176;stroke-dashoffset:0;stroke-opacity:1"
       id="rect1740-1-1"
       width="10.160002"
       height="10.160002"
       x="17.779997"
       y="5.0799952" />
    <rect
       style="display:inline;fill:#3a5c8f;fill-opacity:0.501961;stroke:none;stroke-width:0.508799;stroke-miterlimit:4;stroke-dasharray:0.508799, 1.0176;stroke-dashoffset:0;stroke-opacity:1"
       id="rect1740-1-0-38"
       width="10.160002"
       height="10.160002"
       x="17.779997"
       y="20.319996" />
    <rect
       y="35.559994"
       x="17.779997"
       height="10.160002"
       width="10.160002"
       id="rect1740-1-0-3-4"
       style="display:inline;fill:#3a5c8f;fill-opacity:0.501961;stroke:none;stroke-width:0.508799;stroke-miterlimit:4;stroke-dasharray:0.508799, 1.0176;stroke-dashoffset:0;stroke-opacity:1" />
    <rect
       y="50.799992"
       x="17.779997"
       height="10.160002"
       width="10.160002"
       id="rect1740-1-0-5-8"
       style="display:inline;fill:#3a5c8f;fill-opacity:0.501961;stroke:none;stroke-width:0.508799;stroke-miterlimit:4;stroke-dasharray:0.508799, 1.0176;stroke-dashoffset:0;stroke-opacity:1" />
    <rect
       y="66.039993"
       x="17.779997"
       height="10.160002"
       width="10.160002"
       id="rect1740-1-0-4-0"
       style="display:inline;fill:#3a5c8f;fill-opacity:0.501961;stroke:none;stroke-width:0.508799;stroke-miterlimit:4;stroke-dasharray:0.508799, 1.0176;stroke-dashoffset:0;stroke-opacity:1" />
    <rect
       y="81.279991"
       x="17.779997"
       height="10.160002"
       width="10.160002"
       id="rect1740-1-0-36-4"
       style="display:inline;fill:#3a5c8f;fill-opacity:0.501961;stroke:none;stroke-width:0.508799;stroke-miterlimit:4;stroke-dasharray:0.508799, 1.0176;stroke-dashoffset:0;stroke-opacity:1" />
    <rect
       y="96.520004"
       x="17.779997"
       height="10.160002"
       width="10.160002"
       id="rect1740-1-0-59-6"
       style="display:inline;fill:#3a5c8f;fill-opacity:0.501961;stroke:none;stroke-width:0.508799;stroke-miterlimit:4;stroke-dasharray:0.508799, 1.0176;stroke-dashoffset:0;stroke-opacity:1" />
    <rect
       y="111.75999"
       x="17.779997"
       height="10.160002"
       width="10.160002"
       id="rect1740-1-0-54-0"
       style="display:inline;fill:#3a5c8f;fill-opacity:0.501961;stroke:none;stroke-width:0.508799;stroke-miterlimit:4;stroke-dasharray:0.508799, 1.0176;stroke-dashoffset:0;stroke-opacity:1" />
  </g>
  <g
     inkscape:groupmode="layer"
     id="layer4"
     inkscape:label="text"
     style="display:inline;opacity:1">
    <text
       xml:space="preserve"
       style="font-size:6.35px;line-height:1.25;font-family:Futura;-inkscape-font-specification:Futura;stroke-width:0.264583"
       x="7.9375"
       y="19.84375"
       id="text1987"><tspan
         sodipodi:role="line"
         id="tspan1985"
         x="7.9375"
         y="19.84375"
         style="stroke-width:0.264583" /></text>
    <g
       style="display:inline;opacity:1"
       transform="translate(2.9953406,0.03718092)"
       id="g2200">
      <g
         transform="matrix(0.13229166,0,0,0.13229166,-10.822541,109.90112)"
         id="g971">
        <g
           data-v-fde0c5aa=""
           id="b1560e19-ee0a-4c5c-a1e3-872fa4d571f9"
           stroke="none"
           fill="#000000"
           transform="matrix(0.38004571,0,0,0.38004571,177.21513,100.89119)"
           style="opacity:1;fill:#3a5c8f;fill-opacity:1;filter:url(#filter912);stop-opacity:1">
          <path
             d="M 15.88,75.262 14.006,73.346 35.661,52.171 v -3.915 l 8.825,-8.822 V 27.077 l 3.479,-5.144 V 3.223 h 2.68 v 19.531 l -3.479,5.144 v 12.646 l -8.825,8.823 v 3.931 z"
             id="path844"
             inkscape:connector-curvature="0"
             style="fill:#3a5c8f;fill-opacity:1" />
          <path
             d="m 42.998,72.05 h -2.68 V 49.8 l 6.842,-8.212 h 6.881 L 65.068,28.841 h 10.416 v 2.68 H 66.293 L 55.266,44.268 h -6.851 l -5.417,6.502 z"
             id="path846"
             inkscape:connector-curvature="0"
             style="fill:#3a5c8f;fill-opacity:1" />
          <path
             d="M 59.14,90.004 53.313,84.698 V 71.493 L 45.221,64.634 V 49.942 l 4.004,-3.695 h 10.262 l 3.039,-3.039 1.895,1.895 -3.824,3.824 H 50.271 L 47.9,51.115 v 12.277 l 8.093,6.859 v 13.264 l 4.951,4.508 z M 28.026,51.507 26.194,49.551 41.21,35.488 V 7.773 h 2.68 V 36.65 Z M 41.658,72.05 a 4.2740001,4.2740001 0 1 0 0.002,8.548 4.2740001,4.2740001 0 0 0 -0.002,-8.548 z m -12.62,3.491 a 4.278,4.278 0 0 0 -4.276,4.278 4.272,4.272 0 0 0 4.276,4.272 4.27,4.27 0 0 0 4.271,-4.272 4.277,4.277 0 0 0 -4.271,-4.278 z"
             id="path848"
             inkscape:connector-curvature="0"
             style="fill:#3a5c8f;fill-opacity:1" />
          <circle
             cx="29.038"
             cy="79.819"
             r="2.138"
             id="circle850"
             style="fill:#3a5c8f;fill-opacity:1" />
          <path
             d="m 41.658,88.231 a 4.271,4.271 0 0 0 -4.272,4.27 4.274,4.274 0 1 0 4.272,-4.27 z"
             id="path852"
             inkscape:connector-curvature="0"
             style="fill:#3a5c8f;fill-opacity:1" />
          <path
             d="m 41.658,90.366 a 2.137,2.137 0 1 0 0,4.274 2.136,2.136 0 0 0 2.139,-2.139 2.135,2.135 0 0 0 -2.139,-2.135 z M 11.76,73.409 Z m 0,2.132 a 2.1395,2.1395 0 0 0 0,4.279 2.14,2.14 0 0 0 0,-4.279 z M 66.721,38.318 a 4.272,4.272 0 0 0 -4.27,4.276 4.27,4.27 0 0 0 4.27,4.271 4.271,4.271 0 0 0 4.276,-4.271 4.272,4.272 0 0 0 -4.276,-4.276 z"
             id="path854"
             inkscape:connector-curvature="0"
             style="fill:#3a5c8f;fill-opacity:1" />
          <path
             d="m 66.721,40.455 a 2.139,2.139 0 0 0 0,4.276 c 1.183,0 2.14,-0.963 2.14,-2.137 a 2.14,2.14 0 0 0 -2.14,-2.139 z M 78.856,25.912 a 4.27,4.27 0 0 0 -4.275,4.27 4.273,4.273 0 0 0 4.275,4.278 4.272,4.272 0 0 0 4.274,-4.278 4.267,4.267 0 0 0 -4.274,-4.27 z"
             id="path856"
             inkscape:connector-curvature="0"
             style="fill:#3a5c8f;fill-opacity:1" />
          <path
             d="m 78.856,28.046 a 2.135,2.135 0 0 0 -2.139,2.135 c 0,1.185 0.956,2.137 2.139,2.137 a 2.133,2.133 0 0 0 2.135,-2.137 2.134,2.134 0 0 0 -2.135,-2.135 z M 53.903,51.115 a 4.275,4.275 0 1 0 0,8.55 4.273,4.273 0 0 0 4.27,-4.276 4.274,4.274 0 0 0 -4.27,-4.274 z"
             id="path858"
             inkscape:connector-curvature="0"
             style="fill:#3a5c8f;fill-opacity:1" />
          <path
             d="m 53.903,53.252 a 2.14,2.14 0 1 0 0,4.277 2.136,2.136 0 0 0 2.133,-2.139 2.137,2.137 0 0 0 -2.133,-2.138 z m 11.745,3.477 H 58.173 V 54.05 h 6.313 l 28.098,-30.019 1.957,1.831 z M 24.968,48.798 A 4.275,4.275 0 0 0 20.69,53.07 4.28,4.28 0 0 0 24.968,57.346 4.277,4.277 0 0 0 29.24,53.07 4.272,4.272 0 0 0 24.968,48.798 Z M 62.11,87.126 a 4.2740001,4.2740001 0 1 0 0.002,8.548 4.2740001,4.2740001 0 0 0 -0.002,-8.548 z"
             id="path860"
             inkscape:connector-curvature="0"
             style="fill:#3a5c8f;fill-opacity:1" />
        </g>
      </g>
      <g
         aria-label="Stalys"
         id="text2143"
         style="font-size:3.52777px;line-height:1.25;font-family:Futura;-inkscape-font-specification:Futura;stroke-width:0.264583;filter:url(#filter2180)">
        <path
           inkscape:connector-curvature="0"
           d="m 19.395719,124.86158 q -0.04233,-0.11642 -0.148166,-0.18344 -0.105833,-0.067 -0.246944,-0.067 -0.109361,0 -0.204611,0.0423 -0.09172,0.0423 -0.162277,0.11289 -0.06703,0.067 -0.105833,0.15875 -0.03528,0.0917 -0.03528,0.1905 0,0.0953 0.02822,0.16228 0.02822,0.067 0.08114,0.11994 0.05292,0.0529 0.123472,0.0988 0.07056,0.0459 0.155222,0.0953 0.08114,0.0494 0.155222,0.0988 0.07408,0.0459 0.130527,0.10936 0.05645,0.06 0.08819,0.14464 0.03528,0.0811 0.03528,0.20108 0,0.14111 -0.0635,0.28928 -0.0635,0.14816 -0.186971,0.27163 -0.119945,0.11995 -0.299861,0.19403 -0.179916,0.0741 -0.416277,0.0741 -0.134055,0 -0.264582,-0.0282 -0.127,-0.0247 -0.239889,-0.0917 0.03528,-0.067 0.0635,-0.13405 0.03175,-0.0706 0.05292,-0.13759 h 0.02469 q 0.0388,0.0741 0.09878,0.12347 0.0635,0.0494 0.130527,0.0811 0.07055,0.0282 0.141111,0.0423 0.07055,0.0106 0.123472,0.0106 0.137583,0 0.243416,-0.0529 0.109361,-0.0564 0.179916,-0.14111 0.07056,-0.0847 0.105833,-0.18697 0.03881,-0.1023 0.03881,-0.19403 0,-0.0953 -0.03175,-0.16227 -0.02822,-0.0706 -0.07761,-0.12348 -0.04939,-0.0529 -0.119944,-0.0988 -0.06703,-0.0459 -0.141111,-0.0953 -0.08114,-0.0494 -0.15875,-0.0988 -0.07408,-0.0529 -0.134055,-0.11642 -0.05644,-0.067 -0.09172,-0.15169 -0.03528,-0.0882 -0.03528,-0.20814 0,-0.15169 0.0635,-0.28222 0.0635,-0.13406 0.176389,-0.22931 0.116416,-0.0988 0.271638,-0.15522 0.15875,-0.0564 0.345721,-0.0564 0.172861,0 0.282222,0.0388 0.109361,0.0388 0.169333,0.067 -0.04586,0.0811 -0.07056,0.13406 -0.02117,0.0494 -0.04939,0.13405 h -0.0247 z"
           style="font-style:italic;font-variant:normal;font-weight:normal;font-stretch:normal;font-family:Optima;-inkscape-font-specification:'Optima Italic';fill:#3a5c8f;fill-opacity:1;stroke-width:0.264583"
           id="path2145" />
        <path
           inkscape:connector-curvature="0"
           d="m 20.376439,124.82278 q -0.03528,0.12347 -0.0635,0.24341 -0.0247,0.11995 -0.05292,0.24342 0.08114,0 0.176389,-0.004 0.09878,-0.007 0.190499,-0.0106 -0.02117,0.0741 -0.02117,0.14464 -0.09172,-0.004 -0.194027,-0.007 -0.09878,-0.007 -0.179916,-0.007 l -0.137583,0.66322 q -0.01058,0.0564 -0.0247,0.127 -0.01411,0.067 -0.02822,0.13406 -0.01058,0.067 -0.02117,0.13053 -0.0071,0.06 -0.0071,0.1023 0,0.0706 0.02469,0.11995 0.02469,0.0494 0.05997,0.0811 0.0388,0.0282 0.08114,0.0423 0.04586,0.0141 0.08467,0.0141 0.05997,0 0.119944,-0.0176 0.05997,-0.0212 0.112889,-0.0529 l -0.0071,0.0917 q -0.07055,0.0564 -0.172861,0.0776 -0.09878,0.0212 -0.186971,0.0212 -0.06703,0 -0.137583,-0.0212 -0.06703,-0.0176 -0.119945,-0.0564 -0.05292,-0.0388 -0.08819,-0.0988 -0.03175,-0.0635 -0.03175,-0.14464 0,-0.0706 0.01411,-0.14817 0.01764,-0.0776 0.03528,-0.1658 0.0388,-0.17992 0.0635,-0.29281 0.02469,-0.11289 0.04233,-0.20108 0.02117,-0.0917 0.0388,-0.17992 0.01764,-0.0917 0.04586,-0.22578 -0.04939,0 -0.112889,0.004 -0.05997,0 -0.119944,0.004 0.01058,-0.0282 0.01411,-0.0564 0.0071,-0.0282 0.0071,-0.0811 0.05644,0.004 0.116417,0.0106 0.0635,0.004 0.109361,0.004 l 0.0635,-0.37395 0.306916,-0.11288 z"
           style="font-style:italic;font-variant:normal;font-weight:normal;font-stretch:normal;font-family:Optima;-inkscape-font-specification:'Optima Italic';fill:#3a5c8f;fill-opacity:1;stroke-width:0.264583"
           id="path2147" />
        <path
           inkscape:connector-curvature="0"
           d="m 20.933386,126.54786 q 0,0.13052 0.08114,0.20108 0.08467,0.067 0.194027,0.067 0.148167,0 0.264583,-0.0811 0.116416,-0.0811 0.197555,-0.19756 0.02117,-0.12347 0.04586,-0.24341 0.0247,-0.12348 0.05997,-0.24695 -0.08114,0.0176 -0.158749,0.0318 -0.07761,0.0141 -0.15875,0.0318 -0.08819,0.0212 -0.183444,0.0529 -0.09172,0.0282 -0.169333,0.0811 -0.07408,0.0494 -0.123472,0.12347 -0.04939,0.0741 -0.04939,0.17992 z m 0.105833,-1.12889 q 0.134056,-0.0917 0.271639,-0.13758 0.14111,-0.0494 0.29986,-0.0494 0.22225,0 0.352777,0.10936 0.134055,0.10936 0.134055,0.28222 0,0.0741 -0.01764,0.15169 -0.01411,0.0776 -0.02469,0.12348 l -0.102305,0.43038 q -0.02822,0.11289 -0.03881,0.18698 -0.01058,0.0741 -0.01058,0.12699 0,0.0635 0.03175,0.11289 0.03528,0.0459 0.105833,0.0459 0.03175,0 0.05292,-0.007 0.02469,-0.0106 0.04233,-0.0247 l 0.01764,0.0741 q -0.05997,0.0388 -0.123472,0.06 -0.0635,0.0212 -0.137583,0.0212 -0.109361,0 -0.169333,-0.0564 -0.05645,-0.06 -0.0635,-0.16933 -0.105833,0.11289 -0.243416,0.1905 -0.134056,0.0741 -0.306916,0.0741 -0.07761,0 -0.155222,-0.0212 -0.07761,-0.0212 -0.141111,-0.067 -0.05997,-0.0494 -0.09878,-0.11995 -0.0388,-0.0741 -0.0388,-0.1658 0,-0.16933 0.08819,-0.27517 0.08819,-0.10583 0.211666,-0.1658 0.123472,-0.0635 0.254,-0.0917 0.130527,-0.0318 0.211666,-0.0494 0.07055,-0.0141 0.151694,-0.0247 0.08114,-0.0141 0.130528,-0.0353 0.07408,-0.0318 0.09172,-0.10936 0.02117,-0.0776 0.02117,-0.15169 0,-0.15875 -0.102305,-0.23283 -0.102305,-0.0776 -0.250472,-0.0776 -0.148166,0 -0.253999,0.067 -0.102305,0.0635 -0.197555,0.16581 h -0.04233 z"
           style="font-style:italic;font-variant:normal;font-weight:normal;font-stretch:normal;font-family:Optima;-inkscape-font-specification:'Optima Italic';fill:#3a5c8f;fill-opacity:1;stroke-width:0.264583"
           id="path2149" />
        <path
           inkscape:connector-curvature="0"
           d="m 23.30052,124.29714 q -0.01411,0.0459 -0.05644,0.21872 -0.03881,0.16933 -0.09525,0.41275 -0.05292,0.24341 -0.116416,0.53269 -0.0635,0.28575 -0.123472,0.56445 -0.05645,0.27516 -0.102306,0.51858 -0.04586,0.23989 -0.07055,0.381 -0.02822,-0.004 -0.0635,-0.004 -0.03175,0 -0.08114,0 -0.04586,0 -0.08114,0 -0.03175,0 -0.05997,0.004 0.05644,-0.20461 0.112888,-0.4445 0.05997,-0.24342 0.116417,-0.49389 0.05644,-0.25047 0.105833,-0.49742 0.05292,-0.24694 0.09525,-0.46919 0.04233,-0.22225 0.07408,-0.40922 0.03175,-0.18697 0.04939,-0.31397 0.05292,0.0141 0.134056,0.0141 0.0388,0 0.08114,-0.004 0.04233,-0.004 0.08114,-0.0106 z"
           style="font-style:italic;font-variant:normal;font-weight:normal;font-stretch:normal;font-family:Optima;-inkscape-font-specification:'Optima Italic';fill:#3a5c8f;fill-opacity:1;stroke-width:0.264583"
           id="path2151" />
        <path
           inkscape:connector-curvature="0"
           d="m 24.063345,126.60783 q 0.07055,-0.127 0.144638,-0.254 0.07761,-0.13053 0.148167,-0.26106 0.109361,-0.20108 0.176388,-0.32455 0.07056,-0.127 0.112889,-0.20461 0.04233,-0.0811 0.0635,-0.127 0.02117,-0.0459 0.0388,-0.0882 l 0.03528,-0.0847 q 0.05292,0.0141 0.123472,0.0141 0.07055,0 0.112889,-0.0141 -0.194028,0.30691 -0.395111,0.63147 -0.201083,0.32455 -0.39511,0.65616 -0.194027,0.33161 -0.377471,0.65617 -0.179917,0.32455 -0.331611,0.635 -0.0388,-0.0141 -0.112888,-0.0141 -0.07056,0 -0.109361,0.0141 0.148166,-0.23284 0.296332,-0.4692 0.148167,-0.23636 0.282222,-0.45155 -0.105833,-0.43392 -0.211666,-0.83256 -0.102305,-0.40216 -0.215194,-0.82549 0.03175,0.007 0.07055,0.0106 0.03881,0.004 0.07761,0.004 0.08467,0 0.137583,-0.0141 0.04233,0.24341 0.119944,0.58561 0.07761,0.34219 0.1905,0.75847 h 0.01764 z"
           style="font-style:italic;font-variant:normal;font-weight:normal;font-stretch:normal;font-family:Optima;-inkscape-font-specification:'Optima Italic';fill:#3a5c8f;fill-opacity:1;stroke-width:0.264583"
           id="path2153" />
        <path
           inkscape:connector-curvature="0"
           d="m 26.088285,125.54597 q -0.02822,-0.0988 -0.109361,-0.1517 -0.07761,-0.0564 -0.179916,-0.0564 -0.07761,0 -0.141111,0.0318 -0.05997,0.0282 -0.105833,0.0776 -0.04233,0.0459 -0.06703,0.10583 -0.02117,0.06 -0.02117,0.11995 0,0.0635 0.02469,0.11289 0.02469,0.0459 0.06703,0.0811 0.04233,0.0353 0.09525,0.0635 0.05645,0.0282 0.116417,0.0529 0.05644,0.0247 0.112888,0.0564 0.05645,0.0282 0.102306,0.0705 0.04586,0.0423 0.07408,0.10231 0.02822,0.06 0.02822,0.14464 0,0.12347 -0.05644,0.23636 -0.05645,0.10936 -0.155222,0.19402 -0.09525,0.0847 -0.229305,0.13053 -0.130528,0.0459 -0.285749,0.0459 -0.109361,0 -0.201083,-0.0212 -0.08819,-0.0212 -0.179917,-0.0706 0.03881,-0.0635 0.06703,-0.13053 0.02822,-0.067 0.04586,-0.10583 h 0.02469 q 0.03881,0.10583 0.134056,0.15875 0.09878,0.0529 0.215194,0.0529 0.102305,0 0.17286,-0.0353 0.07408,-0.0353 0.119945,-0.0882 0.04586,-0.0529 0.06703,-0.11641 0.02469,-0.067 0.02469,-0.12347 0,-0.11289 -0.07056,-0.16934 -0.07055,-0.0564 -0.211666,-0.11994 -0.05644,-0.0247 -0.116416,-0.0564 -0.05645,-0.0318 -0.102306,-0.0776 -0.04586,-0.0459 -0.07408,-0.10936 -0.02822,-0.067 -0.02822,-0.16228 0,-0.0917 0.03528,-0.1905 0.03528,-0.0988 0.10936,-0.18344 0.07761,-0.0847 0.201083,-0.13758 0.123472,-0.0564 0.299861,-0.0564 0.09525,0 0.165805,0.0176 0.07055,0.0141 0.155222,0.0529 -0.05292,0.11994 -0.07056,0.16933 -0.01411,0.0494 -0.02117,0.0847 h -0.03175 z"
           style="font-style:italic;font-variant:normal;font-weight:normal;font-stretch:normal;font-family:Optima;-inkscape-font-specification:'Optima Italic';fill:#3a5c8f;fill-opacity:1;stroke-width:0.264583"
           id="path2155" />
      </g>
    </g>
    <g
       aria-label="+"
       id="text1895"
       style="font-size:3.52777px;line-height:1.25;font-family:Futura;-inkscape-font-specification:Futura;stroke-width:0.264583"
       transform="translate(-0.911578,-0.49352989)">
      <path
         d="m 22.995467,17.164755 v -0.135467 h 0.629355 v -0.612422 h 0.146756 v 0.612422 h 0.629355 v 0.135467 h -0.629355 v 0.615244 h -0.146756 v -0.615244 z"
         style="font-style:italic;font-variant:normal;font-weight:normal;font-stretch:normal;font-size:2.82222px;font-family:Optima;-inkscape-font-specification:'Optima Italic';fill:#3a5c8f;fill-opacity:1;stroke-width:0.264583"
         id="path1913"
         inkscape:connector-curvature="0" />
    </g>
    <g
       aria-label="-"
       id="text1899"
       style="font-size:3.52777px;line-height:1.25;font-family:Futura;-inkscape-font-specification:Futura;stroke-width:0.264583"
       transform="translate(-0.42221132,-0.44689576)">
      <path
         d="m 38.819665,17.094199 h -0.618067 l 0.03669,-0.166511 h 0.618066 z"
         style="font-style:italic;font-variant:normal;font-weight:normal;font-stretch:normal;font-size:2.82222px;font-family:Optima;-inkscape-font-specification:'Optima Italic';fill:#3a5c8f;fill-opacity:1;stroke-width:0.264583"
         id="path1916"
         inkscape:connector-curvature="0" />
    </g>
    <g
       transform="translate(-0.91157802,14.74647)"
       style="font-size:3.52777px;line-height:1.25;font-family:Futura;-inkscape-font-specification:Futura;display:inline;opacity:1;stroke-width:0.264583"
       id="text1895-1"
       aria-label="+">
      <path
         inkscape:connector-curvature="0"
         id="path1913-2"
         style="font-style:italic;font-variant:normal;font-weight:normal;font-stretch:normal;font-size:2.82222px;font-family:Optima;-inkscape-font-specification:'Optima Italic';fill:#3a5c8f;fill-opacity:1;stroke-width:0.264583"
         d="m 22.995467,17.164755 v -0.135467 h 0.629355 v -0.612422 h 0.146756 v 0.612422 h 0.629355 v 0.135467 h -0.629355 v 0.615244 h -0.146756 v -0.615244 z" />
    </g>
    <g
       transform="translate(-0.42221102,14.793104)"
       style="font-size:3.52777px;line-height:1.25;font-family:Futura;-inkscape-font-specification:Futura;display:inline;opacity:1;stroke-width:0.264583"
       id="text1899-0"
       aria-label="-">
      <path
         inkscape:connector-curvature="0"
         id="path1916-4"
         style="font-style:italic;font-variant:normal;font-weight:normal;font-stretch:normal;font-size:2.82222px;font-family:Optima;-inkscape-font-specification:'Optima Italic';fill:#3a5c8f;fill-opacity:1;stroke-width:0.264583"
         d="m 38.819665,17.094199 h -0.618067 l 0.03669,-0.166511 h 0.618066 z" />
    </g>
    <g
       transform="translate(-0.91157802,29.98647)"
       style="font-size:3.52777px;line-height:1.25;font-family:Futura;-inkscape-font-specification:Futura;display:inline;opacity:1;stroke-width:0.264583"
       id="text1895-4"
       aria-label="+">
      <path
         inkscape:connector-curvature="0"
         id="path1913-5"
         style="font-style:italic;font-variant:normal;font-weight:normal;font-stretch:normal;font-size:2.82222px;font-family:Optima;-inkscape-font-specification:'Optima Italic';fill:#3a5c8f;fill-opacity:1;stroke-width:0.264583"
         d="m 22.995467,17.164755 v -0.135467 h 0.629355 v -0.612422 h 0.146756 v 0.612422 h 0.629355 v 0.135467 h -0.629355 v 0.615244 h -0.146756 v -0.615244 z" />
    </g>
    <g
       transform="translate(-0.42221102,30.033104)"
       style="font-size:3.52777px;line-height:1.25;font-family:Futura;-inkscape-font-specification:Futura;display:inline;opacity:1;stroke-width:0.264583"
       id="text1899-9"
       aria-label="-">
      <path
         inkscape:connector-curvature="0"
         id="path1916-7"
         style="font-style:italic;font-variant:normal;font-weight:normal;font-stretch:normal;font-size:2.82222px;font-family:Optima;-inkscape-font-specification:'Optima Italic';fill:#3a5c8f;fill-opacity:1;stroke-width:0.264583"
         d="m 38.819665,17.094199 h -0.618067 l 0.03669,-0.166511 h 0.618066 z" />
    </g>
    <g
       transform="translate(-0.91157802,45.22647)"
       style="font-size:3.52777px;line-height:1.25;font-family:Futura;-inkscape-font-specification:Futura;display:inline;opacity:1;stroke-width:0.264583"
       id="text1895-5"
       aria-label="+">
      <path
         inkscape:connector-curvature="0"
         id="path1913-3"
         style="font-style:italic;font-variant:normal;font-weight:normal;font-stretch:normal;font-size:2.82222px;font-family:Optima;-inkscape-font-specification:'Optima Italic';fill:#3a5c8f;fill-opacity:1;stroke-width:0.264583"
         d="m 22.995467,17.164755 v -0.135467 h 0.629355 v -0.612422 h 0.146756 v 0.612422 h 0.629355 v 0.135467 h -0.629355 v 0.615244 h -0.146756 v -0.615244 z" />
    </g>
    <g
       transform="translate(-0.42221102,45.273104)"
       style="font-size:3.52777px;line-height:1.25;font-family:Futura;-inkscape-font-specification:Futura;display:inline;opacity:1;stroke-width:0.264583"
       id="text1899-90"
       aria-label="-">
      <path
         inkscape:connector-curvature="0"
         id="path1916-5"
         style="font-style:italic;font-variant:normal;font-weight:normal;font-stretch:normal;font-size:2.82222px;font-family:Optima;-inkscape-font-specification:'Optima Italic';fill:#3a5c8f;fill-opacity:1;stroke-width:0.264583"
         d="m 38.819665,17.094199 h -0.618067 l 0.03669,-0.166511 h 0.618066 z" />
    </g>
    <g
       transform="translate(-0.91157802,60.46647)"
       style="font-size:3.52777px;line-height:1.25;font-family:Futura;-inkscape-font-specification:Futura;display:inline;opacity:1;stroke-width:0.264583"
       id="text1895-56"
       aria-label="+">
      <path
         inkscape:connector-curvature="0"
         id="path1913-32"
         style="font-style:italic;font-variant:normal;font-weight:normal;font-stretch:normal;font-size:2.82222px;font-family:Optima;-inkscape-font-specification:'Optima Italic';fill:#3a5c8f;fill-opacity:1;stroke-width:0.264583"
         d="m 22.995467,17.164755 v -0.135467 h 0.629355 v -0.612422 h 0.146756 v 0.612422 h 0.629355 v 0.135467 h -0.629355 v 0.615244 h -0.146756 v -0.615244 z" />
    </g>
    <g
       transform="translate(-0.42221102,60.513104)"
       style="font-size:3.52777px;line-height:1.25;font-family:Futura;-inkscape-font-specification:Futura;display:inline;opacity:1;stroke-width:0.264583"
       id="text1899-6"
       aria-label="-">
      <path
         inkscape:connector-curvature="0"
         id="path1916-8"
         style="font-style:italic;font-variant:normal;font-weight:normal;font-stretch:normal;font-size:2.82222px;font-family:Optima;-inkscape-font-specification:'Optima Italic';fill:#3a5c8f;fill-opacity:1;stroke-width:0.264583"
         d="m 38.819665,17.094199 h -0.618067 l 0.03669,-0.166511 h 0.618066 z" />
    </g>
    <g
       transform="translate(-0.91157802,75.70647)"
       style="font-size:3.52777px;line-height:1.25;font-family:Futura;-inkscape-font-specification:Futura;display:inline;opacity:1;stroke-width:0.264583"
       id="text1895-9"
       aria-label="+">
      <path
         inkscape:connector-curvature="0"
         id="path1913-1"
         style="font-style:italic;font-variant:normal;font-weight:normal;font-stretch:normal;font-size:2.82222px;font-family:Optima;-inkscape-font-specification:'Optima Italic';fill:#3a5c8f;fill-opacity:1;stroke-width:0.264583"
         d="m 22.995467,17.164755 v -0.135467 h 0.629355 v -0.612422 h 0.146756 v 0.612422 h 0.629355 v 0.135467 h -0.629355 v 0.615244 h -0.146756 v -0.615244 z" />
    </g>
    <g
       transform="translate(-0.42221102,75.753104)"
       style="font-size:3.52777px;line-height:1.25;font-family:Futura;-inkscape-font-specification:Futura;display:inline;opacity:1;stroke-width:0.264583"
       id="text1899-4"
       aria-label="-">
      <path
         inkscape:connector-curvature="0"
         id="path1916-88"
         style="font-style:italic;font-variant:normal;font-weight:normal;font-stretch:normal;font-size:2.82222px;font-family:Optima;-inkscape-font-specification:'Optima Italic';fill:#3a5c8f;fill-opacity:1;stroke-width:0.264583"
         d="m 38.819665,17.094199 h -0.618067 l 0.03669,-0.166511 h 0.618066 z" />
    </g>
    <g
       transform="translate(-0.91157802,90.94647)"
       style="font-size:3.52777px;line-height:1.25;font-family:Futura;-inkscape-font-specification:Futura;display:inline;opacity:1;stroke-width:0.264583"
       id="text1895-7"
       aria-label="+">
      <path
         inkscape:connector-curvature="0"
         id="path1913-19"
         style="font-style:italic;font-variant:normal;font-weight:normal;font-stretch:normal;font-size:2.82222px;font-family:Optima;-inkscape-font-specification:'Optima Italic';fill:#3a5c8f;fill-opacity:1;stroke-width:0.264583"
         d="m 22.995467,17.164755 v -0.135467 h 0.629355 v -0.612422 h 0.146756 v 0.612422 h 0.629355 v 0.135467 h -0.629355 v 0.615244 h -0.146756 v -0.615244 z" />
    </g>
    <g
       transform="translate(-0.42221102,90.993104)"
       style="font-size:3.52777px;line-height:1.25;font-family:Futura;-inkscape-font-specification:Futura;display:inline;opacity:1;stroke-width:0.264583"
       id="text1899-3"
       aria-label="-">
      <path
         inkscape:connector-curvature="0"
         id="path1916-1"
         style="font-style:italic;font-variant:normal;font-weight:normal;font-stretch:normal;font-size:2.82222px;font-family:Optima;-inkscape-font-specification:'Optima Italic';fill:#3a5c8f;fill-opacity:1;stroke-width:0.264583"
         d="m 38.819665,17.094199 h -0.618067 l 0.03669,-0.166511 h 0.618066 z" />
    </g>
    <g
       transform="translate(-0.91157802,106.18647)"
       style="font-size:3.52777px;line-height:1.25;font-family:Futura;-inkscape-font-specification:Futura;display:inline;opacity:1;stroke-width:0.264583"
       id="text1895-14"
       aria-label="+">
      <path
         inkscape:connector-curvature="0"
         id="path1913-9"
         style="font-style:italic;font-variant:normal;font-weight:normal;font-stretch:normal;font-size:2.82222px;font-family:Optima;-inkscape-font-specification:'Optima Italic';fill:#3a5c8f;fill-opacity:1;stroke-width:0.264583"
         d="m 22.995467,17.164755 v -0.135467 h 0.629355 v -0.612422 h 0.146756 v 0.612422 h 0.629355 v 0.135467 h -0.629355 v 0.615244 h -0.146756 v -0.615244 z" />
    </g>
    <g
       transform="translate(-0.42221102,106.2331)"
       style="font-size:3.52777px;line-height:1.25;font-family:Futura;-inkscape-font-specification:Futura;display:inline;opacity:1;stroke-width:0.264583"
       id="text1899-5"
       aria-label="-">
      <path
         inkscape:connector-curvature="0"
         id="path1916-9"
         style="font-style:italic;font-variant:normal;font-weight:normal;font-stretch:normal;font-size:2.82222px;font-family:Optima;-inkscape-font-specification:'Optima Italic';fill:#3a5c8f;fill-opacity:1;stroke-width:0.264583"
         d="m 38.819665,17.094199 h -0.618067 l 0.03669,-0.166511 h 0.618066 z" />
    </g>
    <g
       style="font-size:3.52777px;line-height:1.25;font-family:Futura;-inkscape-font-specification:Futura;stroke-width:0.264583"
       id="text989"
       aria-label="8 Positive/negative rectifier">
      <path
         id="path991"
         style="font-style:italic;font-variant:normal;font-weight:normal;font-stretch:normal;font-family:Optima;-inkscape-font-specification:'Optima Italic';fill:#3a5c8f;fill-opacity:1;stroke-width:0.264583"
         d="m 2.9486606,3.2913666 q 0,0.084666 0.021167,0.169333 0.024694,0.081139 0.074083,0.1446386 0.049389,0.0635 0.123472,0.1023053 0.077611,0.038806 0.1869718,0.038806 0.1481663,0 0.2575272,-0.070555 Q 3.72477,3.6018104 3.7953254,3.4924495 3.8694086,3.3795609 3.9046863,3.2490334 3.939964,3.1149781 3.939964,2.995034 q 0,-0.1164165 -0.03175,-0.1975552 -0.03175,-0.084666 -0.088194,-0.137583 -0.052916,-0.056444 -0.1269997,-0.081139 -0.074083,-0.028222 -0.1552219,-0.028222 -0.1516941,0 -0.2645827,0.074083 Q 3.1603268,2.6987013 3.0897714,2.8115899 3.019216,2.9209508 2.9839383,3.0514783 2.9486606,3.178478 2.9486606,3.2913666 Z M 3.2873265,2.1025081 q 0,0.1622775 0.077611,0.2575272 0.077611,0.09525 0.2469439,0.09525 0.1023053,0 0.1869718,-0.045861 0.084666,-0.045861 0.1411108,-0.1234719 0.059972,-0.077611 0.091722,-0.1763885 0.03175,-0.098778 0.03175,-0.2046107 0,-0.1481663 -0.081139,-0.2504717 Q 3.9046863,1.552176 3.7459367,1.552176 q -0.088194,0 -0.1728608,0.038806 -0.081139,0.038805 -0.1446386,0.1128886 -0.0635,0.070555 -0.1023053,0.1728607 -0.038806,0.1023054 -0.038806,0.2257773 z M 4.2327689,3.009145 q 0,0.1481664 -0.059972,0.2998605 -0.056444,0.1481663 -0.1728607,0.2681105 -0.1128886,0.1199442 -0.2786938,0.1940274 -0.1658052,0.070555 -0.3809992,0.070555 -0.123472,0 -0.2469439,-0.028222 Q 2.973355,3.7887822 2.8781052,3.7217546 2.7828554,3.6511992 2.7228833,3.5418383 2.666439,3.4289497 2.666439,3.2702 2.666439,3.1220337 2.7123,2.995034 2.7616888,2.8645065 2.8463553,2.7657289 2.9345495,2.6634236 3.0580215,2.5963959 3.1850212,2.5258405 3.3402431,2.4976184 V 2.4799795 Q 3.280271,2.4623407 3.2238267,2.4305907 3.1673824,2.395313 3.1215214,2.3423965 3.0756603,2.2894799 3.0474382,2.2224523 3.0227438,2.1518969 3.0227438,2.0672304 q 0,-0.1023053 0.038805,-0.2116662 0.042333,-0.1093608 0.1305275,-0.2010829 0.088194,-0.091722 0.229305,-0.1481663 0.1446386,-0.059972 0.3492492,-0.059972 0.1799163,0 0.2892772,0.052917 0.1128886,0.049389 0.1728607,0.1234719 0.0635,0.070555 0.081139,0.1516941 0.021167,0.077611 0.021167,0.137583 0,0.1199442 -0.042333,0.215194 -0.038806,0.09525 -0.1093609,0.1658052 -0.070555,0.070555 -0.1622774,0.1199442 -0.091722,0.049389 -0.1975551,0.077611 v 0.017639 Q 4.0175749,2.5575905 4.123408,2.6951735 4.2327689,2.8292288 4.2327689,3.009145 Z" />
      <path
         id="path993"
         style="font-style:italic;font-variant:normal;font-weight:normal;font-stretch:normal;font-family:Optima;-inkscape-font-specification:'Optima Italic';fill:#3a5c8f;fill-opacity:1;stroke-width:0.264583"
         d="m 7.1678187,1.8978975 q 0,-0.1375831 -0.052917,-0.2116662 -0.052917,-0.077611 -0.1305275,-0.1128887 -0.077611,-0.038805 -0.1658052,-0.045861 -0.088194,-0.00706 -0.1587496,-0.00706 -0.059972,0 -0.123472,0.00706 -0.059972,0.00353 -0.1199441,0.010583 -0.03175,0.1199442 -0.052917,0.2081385 -0.021167,0.084666 -0.045861,0.1904995 -0.021167,0.1023054 -0.052917,0.2469439 -0.03175,0.1446386 -0.084666,0.384527 0.059972,0.014111 0.1975551,0.014111 0.028222,0 0.084666,0 0.059972,-0.00353 0.1340552,-0.017639 0.074083,-0.014111 0.1516941,-0.038806 0.081139,-0.028222 0.1481664,-0.081139 0.074083,-0.052916 0.1234719,-0.1199442 0.052917,-0.070555 0.084666,-0.1411108 0.03175,-0.074083 0.045861,-0.1481663 0.017639,-0.074083 0.017639,-0.137583 z M 7.453568,1.8802586 q 0,0.088194 -0.024694,0.1869718 -0.024694,0.09525 -0.077611,0.1869718 -0.049389,0.091722 -0.1305275,0.1763885 -0.077611,0.081139 -0.1869718,0.1411108 -0.1340553,0.074083 -0.3139715,0.098778 -0.1799163,0.024694 -0.3809992,0.024694 -0.0635,0 -0.1058331,0 -0.042333,-0.00353 -0.081139,-0.00706 -0.049389,0.2328328 -0.1058331,0.5185822 -0.056444,0.2822216 -0.1093609,0.5961931 -0.03175,-0.00353 -0.070555,-0.00353 -0.035278,0 -0.081139,0 -0.042333,0 -0.084666,0 -0.042333,0 -0.074083,0.00353 0.045861,-0.1622774 0.091722,-0.3633603 0.049389,-0.2010829 0.098778,-0.4162769 0.049389,-0.215194 0.09525,-0.4374435 0.045861,-0.2257773 0.088194,-0.4374435 0.042333,-0.2116662 0.077611,-0.4021657 0.035278,-0.1940274 0.059972,-0.3492493 0.049389,0.00706 0.1023053,0.010583 0.052917,0.00353 0.1023054,0.00353 0.024694,0 0.091722,0 0.067028,-0.00353 0.1411108,-0.00706 0.074083,-0.00353 0.137583,-0.00353 0.067028,-0.00353 0.091722,-0.00353 0.1023053,0 0.2187217,0.017639 0.1164164,0.014111 0.2187217,0.074083 0.1093609,0.0635 0.1587497,0.169333 0.052916,0.1023053 0.052916,0.2222495 z" />
      <path
         id="path995"
         style="font-style:italic;font-variant:normal;font-weight:normal;font-stretch:normal;font-family:Optima;-inkscape-font-specification:'Optima Italic';fill:#3a5c8f;fill-opacity:1;stroke-width:0.264583"
         d="m 7.6394956,3.224339 q 0,0.2222495 0.1023053,0.3668881 0.1058331,0.1446386 0.3457215,0.1446386 0.2010829,0 0.3386659,-0.1058331 0.137583,-0.1093609 0.2257773,-0.2645828 0.088194,-0.1552219 0.1269997,-0.3280826 0.038806,-0.1728607 0.038806,-0.3033882 0,-0.1093609 -0.03175,-0.2010829 -0.028222,-0.09525 -0.088194,-0.1622774 -0.059972,-0.070555 -0.1481663,-0.1093609 -0.088194,-0.038806 -0.2010829,-0.038806 -0.1904996,0 -0.3280826,0.1023053 Q 7.8864395,2.427063 7.801773,2.5787571 7.7171065,2.7269234 7.6783011,2.9033119 7.6394956,3.0761727 7.6394956,3.224339 Z M 7.3608018,3.1396725 q 0,-0.1904996 0.067028,-0.3739436 0.070555,-0.183444 0.1975551,-0.3280826 0.1269997,-0.1481664 0.3104438,-0.2363606 0.183444,-0.091722 0.4092213,-0.091722 0.2081384,0 0.352777,0.059972 0.1446386,0.056444 0.2328328,0.1516941 0.088194,0.09525 0.1269998,0.2187217 0.038805,0.123472 0.038805,0.2575272 0,0.1940274 -0.070555,0.384527 -0.070555,0.1869718 -0.2010829,0.3351381 -0.1305275,0.1481664 -0.3139715,0.2363606 -0.183444,0.084666 -0.4127491,0.084666 -0.2187217,0 -0.3633603,-0.0635 Q 7.5936346,3.7111713 7.5089681,3.6088659 7.4278294,3.5030328 7.3925517,3.3795609 7.3608018,3.2525612 7.3608018,3.1396725 Z" />
      <path
         id="path997"
         style="font-style:italic;font-variant:normal;font-weight:normal;font-stretch:normal;font-family:Optima;-inkscape-font-specification:'Optima Italic';fill:#3a5c8f;fill-opacity:1;stroke-width:0.264583"
         d="m 10.330134,2.4235352 q -0.02822,-0.098778 -0.109361,-0.1516941 -0.07761,-0.056444 -0.179917,-0.056444 -0.077611,0 -0.1411103,0.03175 -0.059972,0.028222 -0.1058331,0.077611 -0.042333,0.045861 -0.067028,0.1058331 -0.021167,0.059972 -0.021167,0.1199442 0,0.0635 0.024694,0.1128887 0.024694,0.045861 0.067028,0.081139 0.042333,0.035278 0.09525,0.0635 0.056444,0.028222 0.1164169,0.052917 0.05644,0.024694 0.112888,0.056444 0.05644,0.028222 0.102306,0.070555 0.04586,0.042333 0.07408,0.1023053 0.02822,0.059972 0.02822,0.1446386 0,0.123472 -0.05644,0.2363606 -0.05644,0.1093609 -0.155222,0.1940274 -0.09525,0.084666 -0.2293054,0.1305275 -0.1305275,0.045861 -0.2857494,0.045861 -0.1093609,0 -0.2010829,-0.021167 -0.088194,-0.021167 -0.1799163,-0.070555 0.038806,-0.0635 0.067028,-0.1305275 0.028222,-0.067028 0.045861,-0.1058331 h 0.024694 q 0.038805,0.1058331 0.1340552,0.1587497 0.098778,0.052916 0.215194,0.052916 0.1023053,0 0.1728607,-0.035278 0.074083,-0.035278 0.1199442,-0.088194 0.045861,-0.052917 0.067028,-0.1164164 0.02469,-0.067028 0.02469,-0.123472 0,-0.1128886 -0.07055,-0.1693329 Q 9.9491344,3.1361448 9.8080236,3.0726449 9.7515793,3.0479505 9.6916072,3.0162006 9.6351629,2.9844506 9.5893019,2.9385896 9.5434409,2.8927286 9.5152187,2.8292288 9.4869966,2.7622011 9.4869966,2.6669513 q 0,-0.091722 0.035278,-0.1904995 0.035278,-0.098778 0.1093608,-0.1834441 0.077611,-0.084666 0.2010829,-0.137583 0.123472,-0.056444 0.29986,-0.056444 0.09525,0 0.165806,0.017639 0.07055,0.014111 0.155222,0.052917 -0.05292,0.1199441 -0.07056,0.1693329 -0.01411,0.049389 -0.02117,0.084666 h -0.03175 z" />
      <path
         id="path999"
         style="font-style:italic;font-variant:normal;font-weight:normal;font-stretch:normal;font-family:Optima;-inkscape-font-specification:'Optima Italic';fill:#3a5c8f;fill-opacity:1;stroke-width:0.264583"
         d="m 11.133307,1.5839259 q 0,-0.070555 0.04939,-0.1199441 0.04939,-0.049389 0.119944,-0.049389 0.07056,0 0.119945,0.049389 0.04939,0.049389 0.04939,0.1199441 0,0.070555 -0.04939,0.1199442 -0.04939,0.049389 -0.119945,0.049389 -0.07056,0 -0.119944,-0.049389 -0.04939,-0.049389 -0.04939,-0.1199442 z m 0.194028,0.5573877 q -0.01764,0.056444 -0.04939,0.1763885 -0.02822,0.1164164 -0.06703,0.2681105 -0.03528,0.1516941 -0.07408,0.3245549 -0.03528,0.1693329 -0.07055,0.3351381 -0.03175,0.1658052 -0.05997,0.3139716 -0.0247,0.1481663 -0.03528,0.2434161 -0.0388,-0.00353 -0.08114,-0.00353 -0.04233,0 -0.08114,0 -0.04233,0 -0.07761,0 -0.03175,0 -0.05997,0.00353 0.0388,-0.1128887 0.08114,-0.2751661 0.04233,-0.1622774 0.08114,-0.3386659 0.0388,-0.1763885 0.07408,-0.3492492 0.03528,-0.1728608 0.05997,-0.3174993 0.02822,-0.1446386 0.04586,-0.2469439 0.01764,-0.1023054 0.02117,-0.1340553 0.07056,0.014111 0.148166,0.014111 0.08819,0 0.144639,-0.014111 z" />
      <path
         id="path1001"
         style="font-style:italic;font-variant:normal;font-weight:normal;font-stretch:normal;font-family:Optima;-inkscape-font-specification:'Optima Italic';fill:#3a5c8f;fill-opacity:1;stroke-width:0.264583"
         d="m 12.259493,1.7003423 q -0.03528,0.123472 -0.0635,0.2434162 -0.0247,0.1199442 -0.05292,0.2434161 0.08114,0 0.176389,-0.00353 0.09878,-0.00706 0.190499,-0.010583 -0.02117,0.074083 -0.02117,0.1446386 -0.09172,-0.00353 -0.194028,-0.00706 -0.09878,-0.00706 -0.179916,-0.00706 l -0.137583,0.6632208 q -0.01058,0.056444 -0.02469,0.1269997 -0.01411,0.067028 -0.02822,0.1340553 -0.01058,0.067028 -0.02117,0.1305275 -0.0071,0.059972 -0.0071,0.1023053 0,0.070555 0.02469,0.1199442 0.02469,0.049389 0.05997,0.081139 0.0388,0.028222 0.08114,0.042333 0.04586,0.014111 0.08467,0.014111 0.05997,0 0.119944,-0.017639 0.05997,-0.021167 0.112889,-0.052917 l -0.0071,0.091722 q -0.07056,0.056444 -0.172861,0.077611 -0.09878,0.021167 -0.186971,0.021167 -0.06703,0 -0.137583,-0.021167 -0.06703,-0.017639 -0.119945,-0.056444 -0.05292,-0.038806 -0.08819,-0.098778 -0.03175,-0.0635 -0.03175,-0.1446386 0,-0.070555 0.01411,-0.1481663 0.01764,-0.077611 0.03528,-0.1658052 0.0388,-0.1799163 0.0635,-0.2928049 0.02469,-0.1128887 0.04233,-0.2010829 0.02117,-0.091722 0.03881,-0.1799163 0.01764,-0.091722 0.04586,-0.2257773 -0.04939,0 -0.112889,0.00353 -0.05997,0 -0.119944,0.00353 0.01058,-0.028222 0.01411,-0.056444 0.0071,-0.028222 0.0071,-0.081139 0.05645,0.00353 0.116417,0.010583 0.0635,0.00353 0.109361,0.00353 l 0.0635,-0.3739436 0.306916,-0.1128887 z" />
      <path
         id="path1003"
         style="font-style:italic;font-variant:normal;font-weight:normal;font-stretch:normal;font-family:Optima;-inkscape-font-specification:'Optima Italic';fill:#3a5c8f;fill-opacity:1;stroke-width:0.264583"
         d="m 13.028107,1.5839259 q 0,-0.070555 0.04939,-0.1199441 0.04939,-0.049389 0.119945,-0.049389 0.07056,0 0.119944,0.049389 0.04939,0.049389 0.04939,0.1199441 0,0.070555 -0.04939,0.1199442 -0.04939,0.049389 -0.119944,0.049389 -0.07056,0 -0.119945,-0.049389 -0.04939,-0.049389 -0.04939,-0.1199442 z m 0.194027,0.5573877 q -0.01764,0.056444 -0.04939,0.1763885 -0.02822,0.1164164 -0.06703,0.2681105 -0.03528,0.1516941 -0.07408,0.3245549 -0.03528,0.1693329 -0.07056,0.3351381 -0.03175,0.1658052 -0.05997,0.3139716 -0.02469,0.1481663 -0.03528,0.2434161 -0.0388,-0.00353 -0.08114,-0.00353 -0.04233,0 -0.08114,0 -0.04233,0 -0.07761,0 -0.03175,0 -0.05997,0.00353 0.0388,-0.1128887 0.08114,-0.2751661 0.04233,-0.1622774 0.08114,-0.3386659 0.03881,-0.1763885 0.07408,-0.3492492 0.03528,-0.1728608 0.05997,-0.3174993 0.02822,-0.1446386 0.04586,-0.2469439 0.01764,-0.1023054 0.02117,-0.1340553 0.07056,0.014111 0.148166,0.014111 0.08819,0 0.144639,-0.014111 z" />
      <path
         id="path1005"
         style="font-style:italic;font-variant:normal;font-weight:normal;font-stretch:normal;font-family:Optima;-inkscape-font-specification:'Optima Italic';fill:#3a5c8f;fill-opacity:1;stroke-width:0.264583"
         d="m 14.09515,3.4783384 q 0.05292,-0.088194 0.09172,-0.1516941 0.0388,-0.0635 0.07408,-0.1269997 0.03881,-0.0635 0.08114,-0.1411108 0.04586,-0.077611 0.109361,-0.1940273 0.09878,-0.1869719 0.158749,-0.2963327 0.05997,-0.1093609 0.09525,-0.1799163 0.03881,-0.074083 0.0635,-0.1269997 0.02822,-0.052917 0.0635,-0.1199442 0.04233,0.014111 0.109361,0.014111 0.07761,0 0.119944,-0.014111 -0.03175,0.045861 -0.08819,0.1305275 -0.05292,0.084666 -0.116417,0.1869718 -0.0635,0.1023053 -0.134055,0.215194 -0.07056,0.1093608 -0.134055,0.2116662 -0.05997,0.098778 -0.109361,0.1799163 -0.04939,0.081139 -0.07408,0.1269997 -0.151694,0.2539994 -0.225778,0.4092213 -0.07408,0.1516941 -0.102305,0.2010829 -0.02117,-0.00353 -0.04233,-0.00353 -0.02117,0 -0.04939,0 -0.02822,0 -0.04939,0 -0.02117,0 -0.0388,0.00353 -0.01411,-0.059972 -0.03881,-0.1834441 -0.02469,-0.1234719 -0.08114,-0.3633603 -0.06703,-0.2786938 -0.134056,-0.5573876 -0.0635,-0.2786939 -0.134055,-0.5573877 0.05292,0.014111 0.130528,0.014111 0.08467,0 0.137583,-0.014111 0.06703,0.3421937 0.14111,0.6702763 0.07408,0.3280826 0.155222,0.6667485 h 0.02117 z" />
      <path
         id="path1007"
         style="font-style:italic;font-variant:normal;font-weight:normal;font-stretch:normal;font-family:Optima;-inkscape-font-specification:'Optima Italic';fill:#3a5c8f;fill-opacity:1;stroke-width:0.264583"
         d="m 15.997942,2.2153968 q -0.07056,0 -0.15875,0.028222 -0.08467,0.024694 -0.169333,0.09525 -0.08114,0.067028 -0.151694,0.1869718 -0.07056,0.1164164 -0.109361,0.2998605 0.109361,0.00706 0.239889,0.010583 0.130527,0.00353 0.239888,0.00353 h 0.112889 q 0.08819,0 0.186971,0 0.09878,-0.00353 0.169333,-0.014111 0.0071,-0.03175 0.01411,-0.074083 0.0071,-0.045861 0.0071,-0.1164164 0,-0.1164164 -0.03528,-0.1975551 -0.03175,-0.081139 -0.08819,-0.1305275 -0.05292,-0.049389 -0.119944,-0.070555 -0.06703,-0.021167 -0.137583,-0.021167 z m 0.370416,1.4746078 q -0.130528,0.077611 -0.278694,0.1093609 -0.144639,0.035278 -0.296333,0.035278 -0.112888,0 -0.23636,-0.03175 -0.123472,-0.028222 -0.229305,-0.1093609 -0.102306,-0.084666 -0.169333,-0.2222495 -0.06703,-0.1411108 -0.06703,-0.352777 0,-0.2081384 0.0635,-0.3915825 0.06703,-0.183444 0.186972,-0.3174993 0.119944,-0.137583 0.285749,-0.2151939 0.169333,-0.081139 0.370416,-0.081139 0.127,0 0.239888,0.03175 0.112889,0.028222 0.201083,0.098778 0.08819,0.067028 0.137583,0.1799163 0.05292,0.1093609 0.05292,0.2681105 0,0.098778 -0.01411,0.169333 -0.01411,0.070555 -0.0247,0.1164164 -0.07408,-0.00353 -0.134055,-0.00706 -0.05997,-0.00353 -0.119944,-0.00353 -0.05644,-0.00353 -0.119944,-0.00353 -0.0635,-0.00353 -0.144639,-0.00353 H 15.81097 15.701609 q -0.08467,0 -0.169333,0.00353 -0.08467,0.00353 -0.148166,0.00353 -0.0071,0.035278 -0.01411,0.084666 -0.0035,0.049389 -0.0035,0.1199442 0,0.1728607 0.05292,0.2786938 0.05292,0.1058331 0.126999,0.1658052 0.07761,0.059972 0.165806,0.081139 0.09172,0.021167 0.165805,0.021167 0.102305,0 0.183444,-0.021167 0.08467,-0.021167 0.148166,-0.049389 0.06703,-0.028222 0.112889,-0.059972 0.04939,-0.035278 0.08114,-0.056444 h 0.01058 z" />
      <path
         id="path1009"
         style="font-style:italic;font-variant:normal;font-weight:normal;font-stretch:normal;font-family:Optima;-inkscape-font-specification:'Optima Italic';fill:#3a5c8f;fill-opacity:1;stroke-width:0.264583"
         d="m 16.979154,3.9228375 h -0.186972 l 1.298219,-2.6246609 h 0.186972 z" />
      <path
         id="path1011"
         style="font-style:italic;font-variant:normal;font-weight:normal;font-stretch:normal;font-family:Optima;-inkscape-font-specification:'Optima Italic';fill:#3a5c8f;fill-opacity:1;stroke-width:0.264583"
         d="m 18.773631,2.4094241 q 0.03528,-0.049389 0.09172,-0.098777 0.05997,-0.049389 0.134056,-0.091722 0.07408,-0.042333 0.165805,-0.067028 0.09172,-0.028222 0.190499,-0.028222 0.09525,0 0.183444,0.028222 0.08819,0.024694 0.155222,0.077611 0.07056,0.052916 0.112889,0.1340552 0.04233,0.077611 0.04233,0.1834441 0,0.035278 -0.0035,0.0635 0,0.028222 -0.01058,0.074083 -0.0071,0.045861 -0.02469,0.1164164 -0.01411,0.070555 -0.04233,0.1904996 -0.01411,0.0635 -0.0388,0.1799163 -0.02469,0.1128886 -0.04939,0.2398883 -0.02469,0.123472 -0.04586,0.2363606 -0.02117,0.1093609 -0.02469,0.1552219 -0.02822,-0.00353 -0.0635,-0.00353 -0.03175,0 -0.07056,0 -0.03881,0 -0.08114,0 -0.04233,0 -0.07408,0.00353 0.01411,-0.028222 0.0388,-0.1164164 0.02469,-0.088194 0.05292,-0.2010829 0.03175,-0.1128887 0.05997,-0.2434161 0.03175,-0.1305275 0.05644,-0.2504717 0.02469,-0.123472 0.0388,-0.2257773 0.01764,-0.1023053 0.01764,-0.1622774 0,-0.081139 -0.03175,-0.1375831 -0.02822,-0.059972 -0.07761,-0.098778 -0.04939,-0.038806 -0.112888,-0.056444 -0.05997,-0.021167 -0.127,-0.021167 -0.04233,0 -0.112889,0.014111 -0.07055,0.014111 -0.148166,0.056444 -0.07408,0.038806 -0.144638,0.1128887 -0.06703,0.074083 -0.105834,0.1940273 -0.02117,0.059972 -0.04586,0.1622775 -0.02469,0.098777 -0.05292,0.2187217 -0.02469,0.1164164 -0.04939,0.2398884 -0.02469,0.1234719 -0.04586,0.2328328 -0.01764,0.1058331 -0.03175,0.183444 -0.01411,0.077611 -0.01764,0.098778 -0.02822,-0.00353 -0.05997,-0.00353 -0.03175,0 -0.07055,0 -0.03881,0 -0.07761,0 -0.03528,0 -0.0635,0.00353 0.02469,-0.070555 0.05644,-0.2046107 0.03528,-0.137583 0.07056,-0.2998604 0.03528,-0.1622774 0.07055,-0.3351382 0.03881,-0.1763885 0.07056,-0.3351381 0.03175,-0.1587497 0.05292,-0.2857494 0.02469,-0.1305275 0.03528,-0.2010829 0.05292,0.014111 0.127,0.014111 0.03175,0 0.06703,-0.00353 0.03528,-0.00353 0.06703,-0.010583 l -0.06703,0.261055 z" />
      <path
         id="path1013"
         style="font-style:italic;font-variant:normal;font-weight:normal;font-stretch:normal;font-family:Optima;-inkscape-font-specification:'Optima Italic';fill:#3a5c8f;fill-opacity:1;stroke-width:0.264583"
         d="m 21.097163,2.2153968 q -0.07055,0 -0.15875,0.028222 -0.08467,0.024694 -0.169333,0.09525 -0.08114,0.067028 -0.151694,0.1869718 -0.07055,0.1164164 -0.10936,0.2998605 0.10936,0.00706 0.239888,0.010583 0.130527,0.00353 0.239888,0.00353 h 0.112889 q 0.08819,0 0.186972,0 0.09878,-0.00353 0.169333,-0.014111 0.0071,-0.03175 0.01411,-0.074083 0.0071,-0.045861 0.0071,-0.1164164 0,-0.1164164 -0.03528,-0.1975551 -0.03175,-0.081139 -0.08819,-0.1305275 -0.05292,-0.049389 -0.119944,-0.070555 -0.06703,-0.021167 -0.137583,-0.021167 z m 0.370416,1.4746078 q -0.130528,0.077611 -0.278694,0.1093609 -0.144638,0.035278 -0.296333,0.035278 -0.112888,0 -0.23636,-0.03175 -0.123472,-0.028222 -0.229305,-0.1093609 -0.102306,-0.084666 -0.169333,-0.2222495 -0.06703,-0.1411108 -0.06703,-0.352777 0,-0.2081384 0.0635,-0.3915825 0.06703,-0.183444 0.186972,-0.3174993 0.119944,-0.137583 0.285749,-0.2151939 0.169333,-0.081139 0.370416,-0.081139 0.127,0 0.239888,0.03175 0.112889,0.028222 0.201083,0.098778 0.08819,0.067028 0.137583,0.1799163 0.05292,0.1093609 0.05292,0.2681105 0,0.098778 -0.01411,0.169333 -0.01411,0.070555 -0.0247,0.1164164 -0.07408,-0.00353 -0.134055,-0.00706 -0.05997,-0.00353 -0.119944,-0.00353 -0.05644,-0.00353 -0.119944,-0.00353 -0.0635,-0.00353 -0.144639,-0.00353 H 20.910191 20.80083 q -0.08467,0 -0.169333,0.00353 -0.08467,0.00353 -0.148166,0.00353 -0.0071,0.035278 -0.01411,0.084666 -0.0035,0.049389 -0.0035,0.1199442 0,0.1728607 0.05292,0.2786938 0.05292,0.1058331 0.127,0.1658052 0.07761,0.059972 0.165805,0.081139 0.09172,0.021167 0.165805,0.021167 0.102305,0 0.183444,-0.021167 0.08467,-0.021167 0.148166,-0.049389 0.06703,-0.028222 0.112889,-0.059972 0.04939,-0.035278 0.08114,-0.056444 h 0.01058 z" />
      <path
         id="path1015"
         style="font-style:italic;font-variant:normal;font-weight:normal;font-stretch:normal;font-family:Optima;-inkscape-font-specification:'Optima Italic';fill:#3a5c8f;fill-opacity:1;stroke-width:0.264583"
         d="m 22.0038,4.2473923 q 0,0.098778 0.03528,0.169333 0.03528,0.070555 0.09525,0.1128886 0.0635,0.045861 0.141111,0.067028 0.07761,0.021167 0.162277,0.021167 0.15875,0 0.275166,-0.052917 0.119944,-0.049389 0.197555,-0.1305275 0.08114,-0.077611 0.119945,-0.1763885 0.0388,-0.09525 0.0388,-0.1904996 0,-0.1058331 -0.04939,-0.1622774 -0.04586,-0.056444 -0.119944,-0.081139 -0.07056,-0.024694 -0.155222,-0.028222 -0.08467,-0.00353 -0.155222,-0.00353 -0.07056,0 -0.183444,0.00706 -0.112888,0.00706 -0.20461,0.070555 -0.0635,0.042333 -0.102306,0.091722 -0.0388,0.052917 -0.05997,0.1058331 -0.02117,0.052917 -0.02822,0.098778 -0.0071,0.049389 -0.0071,0.081139 z m 0.335139,-1.4534412 q 0,0.098777 0.02822,0.1693329 0.03175,0.067028 0.07761,0.1093609 0.04939,0.038806 0.105833,0.056444 0.05644,0.017639 0.112888,0.017639 0.127,0 0.215194,-0.0635 0.09172,-0.0635 0.148167,-0.1552219 0.05644,-0.091722 0.08114,-0.1940273 0.02469,-0.1058331 0.02469,-0.1869718 0,-0.1587497 -0.08114,-0.2469439 -0.08114,-0.088194 -0.229305,-0.088194 -0.134055,0 -0.225777,0.0635 -0.09172,0.059972 -0.151694,0.1516941 -0.05645,0.088194 -0.08114,0.1904996 -0.02469,0.098778 -0.02469,0.1763885 z M 22.3213,3.1714225 q -0.02117,-0.010583 -0.0635,-0.03175 -0.04233,-0.024694 -0.08467,-0.067028 Q 22.1308,3.0267839 22.09905,2.9562285 22.0673,2.8856731 22.0673,2.7763122 q 0,-0.1234719 0.04939,-0.2434161 0.04939,-0.1199442 0.148166,-0.2116662 0.09878,-0.09525 0.239889,-0.1516941 0.144638,-0.059972 0.335138,-0.059972 0.08819,0 0.137583,0.010583 0.05292,0.010583 0.130528,0.03175 0.04939,0.014111 0.08467,0.017639 0.0388,0 0.09525,0 0.03175,0 0.07761,0 0.04586,-0.00353 0.09525,-0.00706 0.04939,-0.00353 0.09525,-0.00353 0.04586,-0.00353 0.08114,-0.00353 0,0.017639 -0.0035,0.035278 -0.0035,0.017639 -0.0035,0.038806 0,0.021167 0.0035,0.038805 0.0035,0.017639 0.0035,0.035278 -0.127,-0.00706 -0.201083,-0.010583 -0.07055,-0.00353 -0.134055,-0.00706 0.02822,0.038805 0.0635,0.1058331 0.03528,0.0635 0.03528,0.183444 0,0.074083 -0.02117,0.1552219 -0.01764,0.081139 -0.05997,0.1587496 -0.04233,0.074083 -0.105833,0.1446386 -0.0635,0.067028 -0.151695,0.1164164 -0.123471,0.067028 -0.257527,0.084666 -0.134055,0.014111 -0.218721,0.014111 -0.05997,0 -0.112889,0 -0.05292,-0.00353 -0.09172,-0.00706 -0.01411,0.010583 -0.03881,0.028222 -0.02469,0.014111 -0.04939,0.038806 -0.02117,0.021167 -0.03881,0.052916 -0.01764,0.03175 -0.01764,0.074083 0,0.052917 0.02469,0.084666 0.02469,0.028222 0.0635,0.042333 0.0388,0.010583 0.08467,0.014111 0.04586,0.00353 0.08819,0.00353 0.148167,0 0.250472,0.00353 0.105833,0 0.176388,0.010583 0.07408,0.00706 0.127,0.024694 0.05292,0.014111 0.102306,0.042333 0.04939,0.03175 0.07761,0.070555 0.03175,0.038806 0.04939,0.074083 0.01764,0.038805 0.02117,0.077611 0.0071,0.042333 0.0071,0.074083 0,0.1023053 -0.04939,0.2328328 -0.04586,0.1340553 -0.151694,0.2504717 -0.105834,0.1199441 -0.282222,0.2010829 -0.172861,0.081139 -0.42686,0.081139 -0.123472,0 -0.239889,-0.028222 -0.116416,-0.024694 -0.20461,-0.09525 -0.07056,-0.056444 -0.112889,-0.1446386 -0.0388,-0.088194 -0.0388,-0.1904995 0,-0.123472 0.05997,-0.2328329 0.05997,-0.1093608 0.162277,-0.1728607 0.05997,-0.038806 0.105833,-0.052916 0.04939,-0.014111 0.07761,-0.024694 l 0.0035,-0.024694 q -0.02117,-0.00353 -0.05292,-0.014111 -0.03175,-0.014111 -0.0635,-0.035278 -0.03175,-0.024694 -0.05645,-0.059972 -0.02117,-0.038806 -0.02117,-0.09525 0,-0.081139 0.03175,-0.1411108 0.03175,-0.059972 0.07761,-0.098777 0.04939,-0.042333 0.102306,-0.070555 0.05292,-0.028222 0.09172,-0.045861 z" />
      <path
         id="path1017"
         style="font-style:italic;font-variant:normal;font-weight:normal;font-stretch:normal;font-family:Optima;-inkscape-font-specification:'Optima Italic';fill:#3a5c8f;fill-opacity:1;stroke-width:0.264583"
         d="m 23.944074,3.4254219 q 0,0.1305275 0.08114,0.2010829 0.08467,0.067028 0.194028,0.067028 0.148166,0 0.264582,-0.081139 0.116417,-0.081139 0.197555,-0.1975551 0.02117,-0.123472 0.04586,-0.2434161 0.02469,-0.123472 0.05997,-0.246944 -0.08114,0.017639 -0.15875,0.03175 -0.07761,0.014111 -0.15875,0.03175 -0.08819,0.021167 -0.183444,0.052917 -0.09172,0.028222 -0.169333,0.081139 -0.07408,0.049389 -0.123472,0.1234719 -0.04939,0.074083 -0.04939,0.1799163 z m 0.105834,-1.1288864 q 0.134055,-0.091722 0.271638,-0.137583 0.141111,-0.049389 0.29986,-0.049389 0.22225,0 0.352777,0.1093608 0.134056,0.1093609 0.134056,0.2822216 0,0.074083 -0.01764,0.1516942 -0.01411,0.077611 -0.02469,0.1234719 L 24.9636,3.2067002 q -0.02822,0.1128886 -0.0388,0.1869718 -0.01058,0.074083 -0.01058,0.1269997 0,0.0635 0.03175,0.1128886 0.03528,0.045861 0.105833,0.045861 0.03175,0 0.05292,-0.00706 0.02469,-0.010583 0.04233,-0.024694 l 0.01764,0.074083 q -0.05997,0.038806 -0.123472,0.059972 -0.0635,0.021167 -0.137583,0.021167 -0.109361,0 -0.169333,-0.056444 -0.05644,-0.059972 -0.0635,-0.169333 -0.105833,0.1128886 -0.243416,0.1904996 -0.134055,0.074083 -0.306916,0.074083 -0.07761,0 -0.155222,-0.021167 -0.07761,-0.021167 -0.141111,-0.067028 -0.05997,-0.049389 -0.09878,-0.1199442 -0.03881,-0.074083 -0.03881,-0.1658052 0,-0.1693329 0.08819,-0.275166 0.08819,-0.1058331 0.211666,-0.1658052 0.123472,-0.0635 0.253999,-0.091722 0.130528,-0.03175 0.211666,-0.049389 0.07056,-0.014111 0.151694,-0.024694 0.08114,-0.014111 0.130528,-0.035278 0.07408,-0.03175 0.09172,-0.1093609 0.02117,-0.077611 0.02117,-0.1516941 0,-0.1587496 -0.102306,-0.2328328 -0.102305,-0.077611 -0.250471,-0.077611 -0.148167,0 -0.254,0.067028 -0.102305,0.0635 -0.197555,0.1658052 h -0.04233 z" />
      <path
         id="path1019"
         style="font-style:italic;font-variant:normal;font-weight:normal;font-stretch:normal;font-family:Optima;-inkscape-font-specification:'Optima Italic';fill:#3a5c8f;fill-opacity:1;stroke-width:0.264583"
         d="m 26.198318,1.7003423 q -0.03528,0.123472 -0.0635,0.2434162 -0.02469,0.1199442 -0.05292,0.2434161 0.08114,0 0.176388,-0.00353 0.09878,-0.00706 0.1905,-0.010583 -0.02117,0.074083 -0.02117,0.1446386 -0.09172,-0.00353 -0.194027,-0.00706 -0.09878,-0.00706 -0.179916,-0.00706 l -0.137583,0.6632208 q -0.01058,0.056444 -0.0247,0.1269997 -0.01411,0.067028 -0.02822,0.1340553 -0.01058,0.067028 -0.02117,0.1305275 -0.0071,0.059972 -0.0071,0.1023053 0,0.070555 0.02469,0.1199442 0.0247,0.049389 0.05997,0.081139 0.03881,0.028222 0.08114,0.042333 0.04586,0.014111 0.08467,0.014111 0.05997,0 0.119945,-0.017639 0.05997,-0.021167 0.112888,-0.052917 l -0.0071,0.091722 q -0.07056,0.056444 -0.172861,0.077611 -0.09878,0.021167 -0.186972,0.021167 -0.06703,0 -0.137583,-0.021167 -0.06703,-0.017639 -0.119944,-0.056444 -0.05292,-0.038806 -0.08819,-0.098778 -0.03175,-0.0635 -0.03175,-0.1446386 0,-0.070555 0.01411,-0.1481663 0.01764,-0.077611 0.03528,-0.1658052 0.0388,-0.1799163 0.0635,-0.2928049 0.0247,-0.1128887 0.04233,-0.2010829 0.02117,-0.091722 0.0388,-0.1799163 0.01764,-0.091722 0.04586,-0.2257773 -0.04939,0 -0.112888,0.00353 -0.05997,0 -0.119945,0.00353 0.01058,-0.028222 0.01411,-0.056444 0.0071,-0.028222 0.0071,-0.081139 0.05644,0.00353 0.116416,0.010583 0.0635,0.00353 0.109361,0.00353 l 0.0635,-0.3739436 0.306916,-0.1128887 z" />
      <path
         id="path1021"
         style="font-style:italic;font-variant:normal;font-weight:normal;font-stretch:normal;font-family:Optima;-inkscape-font-specification:'Optima Italic';fill:#3a5c8f;fill-opacity:1;stroke-width:0.264583"
         d="m 26.966932,1.5839259 q 0,-0.070555 0.04939,-0.1199441 0.04939,-0.049389 0.119944,-0.049389 0.07056,0 0.119944,0.049389 0.04939,0.049389 0.04939,0.1199441 0,0.070555 -0.04939,0.1199442 -0.04939,0.049389 -0.119944,0.049389 -0.07056,0 -0.119944,-0.049389 -0.04939,-0.049389 -0.04939,-0.1199442 z m 0.194028,0.5573877 q -0.01764,0.056444 -0.04939,0.1763885 -0.02822,0.1164164 -0.06703,0.2681105 -0.03528,0.1516941 -0.07408,0.3245549 -0.03528,0.1693329 -0.07055,0.3351381 -0.03175,0.1658052 -0.05997,0.3139716 -0.02469,0.1481663 -0.03528,0.2434161 -0.03881,-0.00353 -0.08114,-0.00353 -0.04233,0 -0.08114,0 -0.04233,0 -0.07761,0 -0.03175,0 -0.05997,0.00353 0.03881,-0.1128887 0.08114,-0.2751661 0.04233,-0.1622774 0.08114,-0.3386659 0.0388,-0.1763885 0.07408,-0.3492492 0.03528,-0.1728608 0.05997,-0.3174993 0.02822,-0.1446386 0.04586,-0.2469439 0.01764,-0.1023054 0.02117,-0.1340553 0.07055,0.014111 0.148166,0.014111 0.08819,0 0.144639,-0.014111 z" />
      <path
         id="path1023"
         style="font-style:italic;font-variant:normal;font-weight:normal;font-stretch:normal;font-family:Optima;-inkscape-font-specification:'Optima Italic';fill:#3a5c8f;fill-opacity:1;stroke-width:0.264583"
         d="m 28.033975,3.4783384 q 0.05292,-0.088194 0.09172,-0.1516941 0.0388,-0.0635 0.07408,-0.1269997 0.0388,-0.0635 0.08114,-0.1411108 0.04586,-0.077611 0.109361,-0.1940273 0.09878,-0.1869719 0.15875,-0.2963327 0.05997,-0.1093609 0.09525,-0.1799163 0.0388,-0.074083 0.0635,-0.1269997 0.02822,-0.052917 0.0635,-0.1199442 0.04233,0.014111 0.109361,0.014111 0.07761,0 0.119944,-0.014111 -0.03175,0.045861 -0.08819,0.1305275 -0.05292,0.084666 -0.116416,0.1869718 -0.0635,0.1023053 -0.134055,0.215194 -0.07056,0.1093608 -0.134056,0.2116662 -0.05997,0.098778 -0.109361,0.1799163 -0.04939,0.081139 -0.07408,0.1269997 -0.151694,0.2539994 -0.225777,0.4092213 -0.07408,0.1516941 -0.102305,0.2010829 -0.02117,-0.00353 -0.04233,-0.00353 -0.02117,0 -0.04939,0 -0.02822,0 -0.04939,0 -0.02117,0 -0.03881,0.00353 -0.01411,-0.059972 -0.0388,-0.1834441 -0.02469,-0.1234719 -0.08114,-0.3633603 -0.06703,-0.2786938 -0.134055,-0.5573876 -0.0635,-0.2786939 -0.134055,-0.5573877 0.05292,0.014111 0.130527,0.014111 0.08467,0 0.137583,-0.014111 0.06703,0.3421937 0.141111,0.6702763 0.07408,0.3280826 0.155222,0.6667485 h 0.02117 z" />
      <path
         id="path1025"
         style="font-style:italic;font-variant:normal;font-weight:normal;font-stretch:normal;font-family:Optima;-inkscape-font-specification:'Optima Italic';fill:#3a5c8f;fill-opacity:1;stroke-width:0.264583"
         d="m 29.936768,2.2153968 q -0.07056,0 -0.158749,0.028222 -0.08467,0.024694 -0.169333,0.09525 -0.08114,0.067028 -0.151694,0.1869718 -0.07056,0.1164164 -0.109361,0.2998605 0.109361,0.00706 0.239888,0.010583 0.130528,0.00353 0.239889,0.00353 h 0.112888 q 0.08819,0 0.186972,0 0.09878,-0.00353 0.169333,-0.014111 0.0071,-0.03175 0.01411,-0.074083 0.0071,-0.045861 0.0071,-0.1164164 0,-0.1164164 -0.03528,-0.1975551 -0.03175,-0.081139 -0.08819,-0.1305275 -0.05292,-0.049389 -0.119945,-0.070555 -0.06703,-0.021167 -0.137583,-0.021167 z m 0.370416,1.4746078 q -0.130527,0.077611 -0.278694,0.1093609 -0.144638,0.035278 -0.296332,0.035278 -0.112889,0 -0.236361,-0.03175 -0.123472,-0.028222 -0.229305,-0.1093609 -0.102305,-0.084666 -0.169333,-0.2222495 -0.06703,-0.1411108 -0.06703,-0.352777 0,-0.2081384 0.0635,-0.3915825 0.06703,-0.183444 0.186972,-0.3174993 0.119944,-0.137583 0.28575,-0.2151939 0.169333,-0.081139 0.370415,-0.081139 0.127,0 0.239889,0.03175 0.112888,0.028222 0.201083,0.098778 0.08819,0.067028 0.137583,0.1799163 0.05292,0.1093609 0.05292,0.2681105 0,0.098778 -0.01411,0.169333 -0.01411,0.070555 -0.02469,0.1164164 -0.07408,-0.00353 -0.134055,-0.00706 -0.05997,-0.00353 -0.119945,-0.00353 -0.05644,-0.00353 -0.119944,-0.00353 -0.0635,-0.00353 -0.144638,-0.00353 h -0.261055 -0.109361 q -0.08467,0 -0.169333,0.00353 -0.08467,0.00353 -0.148167,0.00353 -0.0071,0.035278 -0.01411,0.084666 -0.0035,0.049389 -0.0035,0.1199442 0,0.1728607 0.05292,0.2786938 0.05292,0.1058331 0.127,0.1658052 0.07761,0.059972 0.165805,0.081139 0.09172,0.021167 0.165805,0.021167 0.102306,0 0.183444,-0.021167 0.08467,-0.021167 0.148167,-0.049389 0.06703,-0.028222 0.112888,-0.059972 0.04939,-0.035278 0.08114,-0.056444 h 0.01058 z" />
      <path
         id="path1027"
         style="font-style:italic;font-variant:normal;font-weight:normal;font-stretch:normal;font-family:Optima;-inkscape-font-specification:'Optima Italic';fill:#3a5c8f;fill-opacity:1;stroke-width:0.264583"
         d="m 32.795966,2.4200074 q -0.02822,-0.010583 -0.0635,-0.021167 -0.03528,-0.010583 -0.07761,-0.010583 -0.123472,0 -0.243416,0.1058331 -0.116417,0.1023053 -0.176389,0.3139715 -0.0071,0.014111 -0.02469,0.081139 -0.01411,0.067028 -0.03528,0.1622775 -0.02117,0.091722 -0.04586,0.2046106 -0.02117,0.1093609 -0.04233,0.215194 -0.02117,0.1058331 -0.03881,0.1975551 -0.01411,0.088194 -0.02117,0.1340553 -0.02822,-0.00353 -0.05997,-0.00353 -0.03175,0 -0.07056,0 -0.0388,0 -0.07761,0 -0.03528,0 -0.06703,0.00353 0.02117,-0.059972 0.05292,-0.1834441 0.03175,-0.1269997 0.06703,-0.2822216 0.03528,-0.1552218 0.07055,-0.3280826 0.03881,-0.1728607 0.06703,-0.3351381 0.03175,-0.1622774 0.05644,-0.2998605 0.0247,-0.1411108 0.03528,-0.2328328 0.02822,0.00706 0.0635,0.010583 0.0388,0.00353 0.07408,0.00353 0.07761,0 0.130527,-0.014111 -0.0071,0.021167 -0.02117,0.0635 -0.01058,0.038805 -0.02469,0.091722 -0.01411,0.052916 -0.02822,0.1128886 -0.01058,0.056444 -0.01764,0.1128887 h 0.01764 q 0.05644,-0.070555 0.112889,-0.1446386 0.05997,-0.074083 0.123472,-0.1305275 0.06703,-0.059972 0.148166,-0.09525 0.08114,-0.038806 0.183444,-0.035278 -0.01764,0.088194 -0.02822,0.1552219 -0.0071,0.0635 -0.0071,0.1305275 l -0.03175,0.017639 z" />
      <path
         id="path1029"
         style="font-style:italic;font-variant:normal;font-weight:normal;font-stretch:normal;font-family:Optima;-inkscape-font-specification:'Optima Italic';fill:#3a5c8f;fill-opacity:1;stroke-width:0.264583"
         d="m 33.85777,2.2153968 q -0.07056,0 -0.15875,0.028222 -0.08467,0.024694 -0.169333,0.09525 -0.08114,0.067028 -0.151694,0.1869718 -0.07055,0.1164164 -0.109361,0.2998605 0.109361,0.00706 0.239889,0.010583 0.130527,0.00353 0.239888,0.00353 h 0.112889 q 0.08819,0 0.186971,0 0.09878,-0.00353 0.169333,-0.014111 0.0071,-0.03175 0.01411,-0.074083 0.0071,-0.045861 0.0071,-0.1164164 0,-0.1164164 -0.03528,-0.1975551 -0.03175,-0.081139 -0.08819,-0.1305275 -0.05292,-0.049389 -0.119944,-0.070555 -0.06703,-0.021167 -0.137583,-0.021167 z m 0.370416,1.4746078 q -0.130528,0.077611 -0.278694,0.1093609 -0.144639,0.035278 -0.296333,0.035278 -0.112888,0 -0.23636,-0.03175 -0.123472,-0.028222 -0.229305,-0.1093609 -0.102306,-0.084666 -0.169333,-0.2222495 -0.06703,-0.1411108 -0.06703,-0.352777 0,-0.2081384 0.0635,-0.3915825 0.06703,-0.183444 0.186972,-0.3174993 0.119944,-0.137583 0.285749,-0.2151939 0.169333,-0.081139 0.370416,-0.081139 0.127,0 0.239888,0.03175 0.112889,0.028222 0.201083,0.098778 0.08819,0.067028 0.137583,0.1799163 0.05292,0.1093609 0.05292,0.2681105 0,0.098778 -0.01411,0.169333 -0.01411,0.070555 -0.0247,0.1164164 -0.07408,-0.00353 -0.134055,-0.00706 -0.05997,-0.00353 -0.119944,-0.00353 -0.05644,-0.00353 -0.119944,-0.00353 -0.0635,-0.00353 -0.144639,-0.00353 h -0.261055 -0.109361 q -0.08467,0 -0.169333,0.00353 -0.08467,0.00353 -0.148166,0.00353 -0.0071,0.035278 -0.01411,0.084666 -0.0035,0.049389 -0.0035,0.1199442 0,0.1728607 0.05292,0.2786938 0.05292,0.1058331 0.126999,0.1658052 0.07761,0.059972 0.165805,0.081139 0.09172,0.021167 0.165806,0.021167 0.102305,0 0.183444,-0.021167 0.08467,-0.021167 0.148166,-0.049389 0.06703,-0.028222 0.112889,-0.059972 0.04939,-0.035278 0.08114,-0.056444 h 0.01058 z" />
      <path
         id="path1031"
         style="font-style:italic;font-variant:normal;font-weight:normal;font-stretch:normal;font-family:Optima;-inkscape-font-specification:'Optima Italic';fill:#3a5c8f;fill-opacity:1;stroke-width:0.264583"
         d="m 36.055571,3.7252823 q -0.243416,0.1128887 -0.52211,0.1128887 -0.162277,0 -0.306916,-0.038806 -0.141111,-0.038805 -0.250472,-0.1269997 -0.105833,-0.091722 -0.169333,-0.2293051 -0.05997,-0.137583 -0.05997,-0.3245548 0,-0.1658052 0.05644,-0.3421937 0.05997,-0.1799163 0.186972,-0.3280826 0.126999,-0.1481663 0.324554,-0.2434161 0.197555,-0.09525 0.476249,-0.09525 0.1905,0 0.321027,0.038805 0.134056,0.035278 0.215194,0.067028 -0.01764,0.038805 -0.03175,0.067028 -0.01058,0.028222 -0.02117,0.056444 -0.0071,0.024694 -0.01764,0.056444 -0.0071,0.03175 -0.01764,0.074083 h -0.02117 q -0.06703,-0.1234719 -0.1905,-0.183444 -0.123472,-0.0635 -0.257527,-0.0635 -0.165805,0 -0.303389,0.077611 -0.137583,0.077611 -0.23636,0.2046106 -0.09525,0.123472 -0.148166,0.2857494 -0.05292,0.1587496 -0.05292,0.3280826 0,0.1904996 0.05644,0.3104438 0.05997,0.1199441 0.144639,0.1869718 0.08819,0.0635 0.183444,0.088194 0.09878,0.021167 0.172861,0.021167 0.09172,0 0.169333,-0.017639 0.08114,-0.021167 0.144638,-0.045861 0.0635,-0.028222 0.109361,-0.052917 0.04939,-0.024694 0.07761,-0.038805 l 0.01764,0.00706 -0.04939,0.1481663 z" />
      <path
         id="path1033"
         style="font-style:italic;font-variant:normal;font-weight:normal;font-stretch:normal;font-family:Optima;-inkscape-font-specification:'Optima Italic';fill:#3a5c8f;fill-opacity:1;stroke-width:0.264583"
         d="m 37.195041,1.7003423 q -0.03528,0.123472 -0.0635,0.2434162 -0.02469,0.1199442 -0.05292,0.2434161 0.08114,0 0.176388,-0.00353 0.09878,-0.00706 0.1905,-0.010583 -0.02117,0.074083 -0.02117,0.1446386 -0.09172,-0.00353 -0.194027,-0.00706 -0.09878,-0.00706 -0.179916,-0.00706 L 36.91282,2.9668118 q -0.01058,0.056444 -0.0247,0.1269997 -0.01411,0.067028 -0.02822,0.1340553 -0.01058,0.067028 -0.02117,0.1305275 -0.0071,0.059972 -0.0071,0.1023053 0,0.070555 0.02469,0.1199442 0.0247,0.049389 0.05997,0.081139 0.03881,0.028222 0.08114,0.042333 0.04586,0.014111 0.08467,0.014111 0.05997,0 0.119944,-0.017639 0.05997,-0.021167 0.112888,-0.052917 l -0.0071,0.091722 q -0.07055,0.056444 -0.172861,0.077611 -0.09878,0.021167 -0.186972,0.021167 -0.06703,0 -0.137583,-0.021167 -0.06703,-0.017639 -0.119944,-0.056444 -0.05292,-0.038806 -0.08819,-0.098778 -0.03175,-0.0635 -0.03175,-0.1446386 0,-0.070555 0.01411,-0.1481663 0.01764,-0.077611 0.03528,-0.1658052 0.0388,-0.1799163 0.0635,-0.2928049 0.02469,-0.1128887 0.04233,-0.2010829 0.02117,-0.091722 0.03881,-0.1799163 0.01764,-0.091722 0.04586,-0.2257773 -0.04939,0 -0.112888,0.00353 -0.05997,0 -0.119944,0.00353 0.01058,-0.028222 0.01411,-0.056444 0.0071,-0.028222 0.0071,-0.081139 0.05644,0.00353 0.116417,0.010583 0.0635,0.00353 0.10936,0.00353 l 0.0635,-0.3739436 0.306916,-0.1128887 z" />
      <path
         id="path1035"
         style="font-style:italic;font-variant:normal;font-weight:normal;font-stretch:normal;font-family:Optima;-inkscape-font-specification:'Optima Italic';fill:#3a5c8f;fill-opacity:1;stroke-width:0.264583"
         d="m 37.963654,1.5839259 q 0,-0.070555 0.04939,-0.1199441 0.04939,-0.049389 0.119944,-0.049389 0.07056,0 0.119945,0.049389 0.04939,0.049389 0.04939,0.1199441 0,0.070555 -0.04939,0.1199442 -0.04939,0.049389 -0.119945,0.049389 -0.07056,0 -0.119944,-0.049389 -0.04939,-0.049389 -0.04939,-0.1199442 z m 0.194027,0.5573877 q -0.01764,0.056444 -0.04939,0.1763885 -0.02822,0.1164164 -0.06703,0.2681105 -0.03528,0.1516941 -0.07408,0.3245549 -0.03528,0.1693329 -0.07055,0.3351381 -0.03175,0.1658052 -0.05997,0.3139716 -0.0247,0.1481663 -0.03528,0.2434161 -0.0388,-0.00353 -0.08114,-0.00353 -0.04233,0 -0.08114,0 -0.04233,0 -0.07761,0 -0.03175,0 -0.05997,0.00353 0.0388,-0.1128887 0.08114,-0.2751661 0.04233,-0.1622774 0.08114,-0.3386659 0.03881,-0.1763885 0.07408,-0.3492492 0.03528,-0.1728608 0.05997,-0.3174993 0.02822,-0.1446386 0.04586,-0.2469439 0.01764,-0.1023054 0.02117,-0.1340553 0.07055,0.014111 0.148166,0.014111 0.08819,0 0.144639,-0.014111 z" />
      <path
         id="path1037"
         style="font-style:italic;font-variant:normal;font-weight:normal;font-stretch:normal;font-family:Optima;-inkscape-font-specification:'Optima Italic';fill:#3a5c8f;fill-opacity:1;stroke-width:0.264583"
         d="m 38.483063,2.166008 q 0.0635,0.00706 0.127,0.010583 0.0635,0.00353 0.127,0.00353 0.03881,-0.1904996 0.07761,-0.3174993 0.04233,-0.1305275 0.08467,-0.2257773 0.0388,-0.088194 0.09525,-0.169333 0.05997,-0.084666 0.134055,-0.1481663 0.07761,-0.0635 0.165805,-0.1023054 0.09172,-0.038805 0.194028,-0.038805 0.04233,0 0.07761,0.010583 0.03881,0.00706 0.06703,0.017639 -0.02822,0.070555 -0.04586,0.1340553 -0.01764,0.0635 -0.02469,0.1128886 l -0.03175,0.014111 q -0.03881,-0.017639 -0.09878,-0.038805 -0.05644,-0.021167 -0.130527,-0.021167 -0.109361,0 -0.169333,0.049389 -0.05997,0.045861 -0.08819,0.1093609 -0.02822,0.0635 -0.03528,0.1269997 -0.0071,0.0635 -0.0071,0.098778 -0.0035,0.1023053 -0.0071,0.1940273 -0.0035,0.091722 -0.01411,0.1940274 0.05997,0 0.134055,-0.00353 0.07761,-0.00353 0.172861,-0.010583 l -0.02822,0.1446386 q -0.07408,-0.00353 -0.151695,-0.00706 -0.07408,-0.00706 -0.148166,-0.00706 -0.05997,0.2963327 -0.123472,0.582082 -0.05997,0.2857494 -0.119944,0.5714988 -0.01764,0.091722 -0.03528,0.183444 -0.01411,0.088194 -0.02469,0.169333 -0.02822,-0.00353 -0.0635,-0.00353 -0.03175,0 -0.07055,0 -0.04233,0 -0.07761,0 -0.03528,0 -0.0635,0.00353 0.04586,-0.1622774 0.09172,-0.3563048 0.04586,-0.1940273 0.08819,-0.3915825 0.04586,-0.2010829 0.08467,-0.3951102 0.0388,-0.1940274 0.07055,-0.3633603 -0.0635,0 -0.127,0.00353 -0.0635,0 -0.127,0.010583 z m 1.305275,-0.5820821 q 0,-0.070555 0.04939,-0.1199441 0.04939,-0.049389 0.119944,-0.049389 0.07055,0 0.119944,0.049389 0.04939,0.049389 0.04939,0.1199441 0,0.070555 -0.04939,0.1199442 -0.04939,0.049389 -0.119944,0.049389 -0.07055,0 -0.119944,-0.049389 -0.04939,-0.049389 -0.04939,-0.1199442 z m 0.194027,0.5573877 q -0.01764,0.056444 -0.04939,0.1763885 -0.02822,0.1164164 -0.06703,0.2681105 -0.03528,0.1516941 -0.07408,0.3245549 -0.03528,0.1693329 -0.07056,0.3351381 -0.03175,0.1658052 -0.05997,0.3139716 -0.02469,0.1481663 -0.03528,0.2434161 -0.03881,-0.00353 -0.08114,-0.00353 -0.04233,0 -0.08114,0 -0.04233,0 -0.07761,0 -0.03175,0 -0.05997,0.00353 0.03881,-0.1128887 0.08114,-0.2751661 0.04233,-0.1622774 0.08114,-0.3386659 0.0388,-0.1763885 0.07408,-0.3492492 0.03528,-0.1728608 0.05997,-0.3174993 0.02822,-0.1446386 0.04586,-0.2469439 0.01764,-0.1023054 0.02117,-0.1340553 0.07056,0.014111 0.148167,0.014111 0.08819,0 0.144638,-0.014111 z" />
      <path
         id="path1039"
         style="font-style:italic;font-variant:normal;font-weight:normal;font-stretch:normal;font-family:Optima;-inkscape-font-specification:'Optima Italic';fill:#3a5c8f;fill-opacity:1;stroke-width:0.264583"
         d="m 41.106233,2.2153968 q -0.07056,0 -0.15875,0.028222 -0.08467,0.024694 -0.169333,0.09525 -0.08114,0.067028 -0.151694,0.1869718 -0.07056,0.1164164 -0.109361,0.2998605 0.109361,0.00706 0.239888,0.010583 0.130528,0.00353 0.239889,0.00353 h 0.112888 q 0.08819,0 0.186972,0 0.09878,-0.00353 0.169333,-0.014111 0.0071,-0.03175 0.01411,-0.074083 0.0071,-0.045861 0.0071,-0.1164164 0,-0.1164164 -0.03528,-0.1975551 -0.03175,-0.081139 -0.08819,-0.1305275 -0.05292,-0.049389 -0.119944,-0.070555 -0.06703,-0.021167 -0.137583,-0.021167 z m 0.370415,1.4746078 q -0.130527,0.077611 -0.278693,0.1093609 -0.144639,0.035278 -0.296333,0.035278 -0.112889,0 -0.236361,-0.03175 -0.123472,-0.028222 -0.229305,-0.1093609 -0.102305,-0.084666 -0.169333,-0.2222495 -0.06703,-0.1411108 -0.06703,-0.352777 0,-0.2081384 0.0635,-0.3915825 0.06703,-0.183444 0.186971,-0.3174993 0.119945,-0.137583 0.28575,-0.2151939 0.169333,-0.081139 0.370416,-0.081139 0.126999,0 0.239888,0.03175 0.112889,0.028222 0.201083,0.098778 0.08819,0.067028 0.137583,0.1799163 0.05292,0.1093609 0.05292,0.2681105 0,0.098778 -0.01411,0.169333 -0.01411,0.070555 -0.02469,0.1164164 -0.07408,-0.00353 -0.134055,-0.00706 -0.05997,-0.00353 -0.119945,-0.00353 -0.05644,-0.00353 -0.119944,-0.00353 -0.0635,-0.00353 -0.144638,-0.00353 H 40.919261 40.8099 q -0.08467,0 -0.169333,0.00353 -0.08467,0.00353 -0.148166,0.00353 -0.0071,0.035278 -0.01411,0.084666 -0.0035,0.049389 -0.0035,0.1199442 0,0.1728607 0.05292,0.2786938 0.05292,0.1058331 0.127,0.1658052 0.07761,0.059972 0.165805,0.081139 0.09172,0.021167 0.165805,0.021167 0.102306,0 0.183444,-0.021167 0.08467,-0.021167 0.148167,-0.049389 0.06703,-0.028222 0.112888,-0.059972 0.04939,-0.035278 0.08114,-0.056444 h 0.01058 z" />
      <path
         id="path1041"
         style="font-style:italic;font-variant:normal;font-weight:normal;font-stretch:normal;font-family:Optima;-inkscape-font-specification:'Optima Italic';fill:#3a5c8f;fill-opacity:1;stroke-width:0.264583"
         d="m 42.986534,2.4200074 q -0.02822,-0.010583 -0.0635,-0.021167 -0.03528,-0.010583 -0.07761,-0.010583 -0.123472,0 -0.243416,0.1058331 -0.116417,0.1023053 -0.176389,0.3139715 -0.0071,0.014111 -0.02469,0.081139 -0.01411,0.067028 -0.03528,0.1622775 -0.02117,0.091722 -0.04586,0.2046106 -0.02117,0.1093609 -0.04233,0.215194 -0.02117,0.1058331 -0.03881,0.1975551 -0.01411,0.088194 -0.02117,0.1340553 -0.02822,-0.00353 -0.05997,-0.00353 -0.03175,0 -0.07055,0 -0.03881,0 -0.07761,0 -0.03528,0 -0.06703,0.00353 0.02117,-0.059972 0.05292,-0.1834441 0.03175,-0.1269997 0.06703,-0.2822216 0.03528,-0.1552218 0.07056,-0.3280826 0.03881,-0.1728607 0.06703,-0.3351381 0.03175,-0.1622774 0.05644,-0.2998605 0.02469,-0.1411108 0.03528,-0.2328328 0.02822,0.00706 0.0635,0.010583 0.03881,0.00353 0.07408,0.00353 0.07761,0 0.130527,-0.014111 -0.0071,0.021167 -0.02117,0.0635 -0.01058,0.038805 -0.0247,0.091722 -0.01411,0.052916 -0.02822,0.1128886 -0.01058,0.056444 -0.01764,0.1128887 h 0.01764 q 0.05644,-0.070555 0.112889,-0.1446386 0.05997,-0.074083 0.123472,-0.1305275 0.06703,-0.059972 0.148166,-0.09525 0.08114,-0.038806 0.183444,-0.035278 -0.01764,0.088194 -0.02822,0.1552219 -0.0071,0.0635 -0.0071,0.1305275 l -0.03175,0.017639 z" />
    </g>
  </g>
  <g
     inkscape:groupmode="layer"
     id="layer2"
     inkscape:label="components"
     style="display:none"
     sodipodi:insensitive="true">
    <circle
       inkscape:label="signal1"
       r="2.6458333"
       cy="10.16"
       cx="7.6199999"
       id="path15-4"
       style="display:inline;fill:#f2f2f2;stroke:#00ff00;stroke-width:0.264583;stroke-opacity:1" />
    <circle
       inkscape:label="signal2"
       r="2.6458333"
       cy="25.399998"
       cx="7.6199989"
       id="path17-0"
       style="display:inline;fill:#f2f2f2;stroke:#00ff00;stroke-width:0.264583;stroke-opacity:1" />
    <circle
       inkscape:label="signal3"
       r="2.6458333"
       cy="40.639999"
       cx="7.6199975"
       id="path34-0"
       style="display:inline;fill:#f2f2f2;stroke:#00ff00;stroke-width:0.264583;stroke-opacity:1" />
    <circle
       style="display:inline;fill:#f2f2f2;stroke:#00ff00;stroke-width:0.264583;stroke-opacity:1"
       id="path15-0-9"
       cx="7.6199989"
       cy="55.879993"
       r="2.6458333"
       inkscape:label="signal4" />
    <circle
       style="display:inline;fill:#f2f2f2;stroke:#00ff00;stroke-width:0.264583;stroke-opacity:1"
       id="path17-5-37"
       cx="7.6199975"
       cy="71.120003"
       r="2.6458333"
       inkscape:label="signal5" />
    <circle
       style="display:inline;fill:#f2f2f2;stroke:#00ff00;stroke-width:0.264583;stroke-opacity:1"
       id="path34-6-5"
       cx="7.6199989"
       cy="86.360016"
       r="2.6458333"
       inkscape:label="signal6" />
    <circle
       inkscape:label="signal7"
       r="2.6458333"
       cy="101.6"
       cx="7.6199975"
       id="path17-5-3-7"
       style="display:inline;fill:#f2f2f2;stroke:#00ff00;stroke-width:0.264583;stroke-opacity:1" />
    <circle
       inkscape:label="signal8"
       r="2.6458333"
       cy="116.83999"
       cx="7.6199989"
       id="path34-6-8-2"
       style="display:inline;fill:#f2f2f2;stroke:#00ff00;stroke-width:0.264583;stroke-opacity:1" />
    <circle
       style="display:inline;fill:#f2f2f2;stroke:#0000ff;stroke-width:0.264583;stroke-opacity:1"
       id="path15-4-6"
       cx="22.860001"
       cy="10.16"
       r="2.6458333"
       inkscape:label="pos1" />
    <circle
       style="display:inline;fill:#f2f2f2;stroke:#0000ff;stroke-width:0.264583;stroke-opacity:1"
       id="path17-0-5"
       cx="22.860001"
       cy="25.4"
       r="2.6458333"
       inkscape:label="pos2" />
    <circle
       style="display:inline;fill:#f2f2f2;stroke:#0000ff;stroke-width:0.264583;stroke-opacity:1"
       id="path34-0-3"
       cx="22.859999"
       cy="40.640003"
       r="2.6458333"
       inkscape:label="pos3" />
    <circle
       inkscape:label="pos4"
       r="2.6458333"
       cy="55.879997"
       cx="22.860001"
       id="path15-0-9-0"
       style="display:inline;fill:#f2f2f2;stroke:#0000ff;stroke-width:0.264583;stroke-opacity:1" />
    <circle
       inkscape:label="pos5"
       r="2.6458333"
       cy="71.12001"
       cx="22.859999"
       id="path17-5-37-4"
       style="display:inline;fill:#f2f2f2;stroke:#0000ff;stroke-width:0.264583;stroke-opacity:1" />
    <circle
       inkscape:label="pos6"
       r="2.6458333"
       cy="86.360008"
       cx="22.860001"
       id="path34-6-5-8"
       style="display:inline;fill:#f2f2f2;stroke:#0000ff;stroke-width:0.264583;stroke-opacity:1" />
    <circle
       style="display:inline;fill:#f2f2f2;stroke:#0000ff;stroke-width:0.264583;stroke-opacity:1"
       id="path17-5-3-7-5"
       cx="22.859999"
       cy="101.59999"
       r="2.6458333"
       inkscape:label="pos7" />
    <circle
       style="display:inline;fill:#f2f2f2;stroke:#0000ff;stroke-width:0.264583;stroke-opacity:1"
       id="path34-6-8-2-5"
       cx="22.860001"
       cy="116.83999"
       r="2.6458333"
       inkscape:label="pos8" />
    <circle
       inkscape:label="neg1"
       r="2.6458333"
       cy="10.16"
       cx="38.099998"
       id="path15-4-6-5"
       style="display:inline;fill:#f2f2f2;stroke:#0000ff;stroke-width:0.264583;stroke-opacity:1" />
    <circle
       inkscape:label="neg2"
       r="2.6458333"
       cy="25.399998"
       cx="38.099995"
       id="path17-0-5-4"
       style="display:inline;fill:#f2f2f2;stroke:#0000ff;stroke-width:0.264583;stroke-opacity:1" />
    <circle
       inkscape:label="neg3"
       r="2.6458333"
       cy="40.640007"
       cx="38.099995"
       id="path34-0-3-2"
       style="display:inline;fill:#f2f2f2;stroke:#0000ff;stroke-width:0.264583;stroke-opacity:1" />
    <circle
       style="display:inline;fill:#f2f2f2;stroke:#0000ff;stroke-width:0.264583;stroke-opacity:1"
       id="path15-0-9-0-1"
       cx="38.099995"
       cy="55.879997"
       r="2.6458333"
       inkscape:label="neg4" />
    <circle
       style="display:inline;fill:#f2f2f2;stroke:#0000ff;stroke-width:0.264583;stroke-opacity:1"
       id="path17-5-37-4-9"
       cx="38.099995"
       cy="71.120003"
       r="2.6458333"
       inkscape:label="neg5" />
    <circle
       style="display:inline;fill:#f2f2f2;stroke:#0000ff;stroke-width:0.264583;stroke-opacity:1"
       id="path34-6-5-8-2"
       cx="38.099995"
       cy="86.360001"
       r="2.6458333"
       inkscape:label="neg6" />
    <circle
       inkscape:label="neg7"
       r="2.6458333"
       cy="101.59999"
       cx="38.099995"
       id="path17-5-3-7-5-4"
       style="display:inline;fill:#f2f2f2;stroke:#0000ff;stroke-width:0.264583;stroke-opacity:1" />
    <circle
       inkscape:label="neg8"
       r="2.6458333"
       cy="116.84"
       cx="38.099995"
       id="path34-6-8-2-5-5"
       style="display:inline;fill:#f2f2f2;stroke:#0000ff;stroke-width:0.264583;stroke-opacity:1" />
  </g>
</svg>
