<?xml version="1.0" encoding="UTF-8" standalone="no"?>
<svg
   xmlns:dc="http://purl.org/dc/elements/1.1/"
   xmlns:cc="http://creativecommons.org/ns#"
   xmlns:rdf="http://www.w3.org/1999/02/22-rdf-syntax-ns#"
   xmlns:svg="http://www.w3.org/2000/svg"
   xmlns="http://www.w3.org/2000/svg"
   xmlns:sodipodi="http://sodipodi.sourceforge.net/DTD/sodipodi-0.dtd"
   xmlns:inkscape="http://www.inkscape.org/namespaces/inkscape"
   width="30.48mm"
   height="128.5mm"
   viewBox="0 0 30.48 128.5"
   version="1.1"
   id="svg1138"
   inkscape:version="1.0beta1 (32d4812, 2019-09-19)"
   sodipodi:docname="ADC.svg">
  <defs
     id="defs1132">
    <filter
       style="color-interpolation-filters:sRGB"
       inkscape:label="Bump"
       id="filter912">
      <feGaussianBlur
         in="SourceGraphic"
         stdDeviation="0.01"
         result="blur1"
         id="feGaussianBlur890" />
      <feColorMatrix
         in="BackgroundImage"
         values="1 0 0 0 0 0 1 0 0 0 0 0 1 0 0 0 0 0 1 0 "
         result="colormatrix1"
         id="feColorMatrix892" />
      <feColorMatrix
         in="colormatrix1"
         type="luminanceToAlpha"
         result="colormatrix2"
         id="feColorMatrix894" />
      <feComposite
         k4="0"
         k1="0"
         in2="blur1"
         operator="arithmetic"
         k2="1"
         k3="0"
         result="composite1"
         id="feComposite896" />
      <feGaussianBlur
         in="composite1"
         stdDeviation="0.01"
         result="blur2"
         id="feGaussianBlur898" />
      <feSpecularLighting
         lighting-color="#ffffff"
         surfaceScale="5"
         specularConstant="1"
         specularExponent="15"
         result="lighting"
         id="feSpecularLighting902">
        <feDistantLight
           azimuth="225"
           elevation="45"
           id="feDistantLight900" />
      </feSpecularLighting>
      <feFlood
         flood-color="rgb(197,41,41)"
         flood-opacity="1"
         result="flood"
         id="feFlood904" />
      <feComposite
         k4="0"
         k1="0"
         in="lighting"
         in2="blur1"
         operator="arithmetic"
         k3="1"
         k2="1"
         result="composite2"
         id="feComposite906" />
      <feBlend
         in2="SourceGraphic"
         mode="normal"
         result="blend"
         id="feBlend908" />
      <feComposite
         in="blend"
         in2="SourceGraphic"
         operator="in"
         result="composite3"
         id="feComposite910" />
    </filter>
    <filter
       id="filter2180"
       inkscape:label="Bump"
       style="color-interpolation-filters:sRGB">
      <feGaussianBlur
         id="feGaussianBlur2158"
         result="blur1"
         stdDeviation="0.01"
         in="SourceGraphic" />
      <feColorMatrix
         id="feColorMatrix2160"
         result="colormatrix1"
         values="1 0 0 0 0 0 1 0 0 0 0 0 1 0 0 0 0 0 1 0 "
         in="BackgroundImage" />
      <feColorMatrix
         id="feColorMatrix2162"
         result="colormatrix2"
         type="luminanceToAlpha"
         in="colormatrix1" />
      <feComposite
         k4="0"
         k1="0"
         id="feComposite2164"
         result="composite1"
         k3="0"
         k2="1"
         operator="arithmetic"
         in2="blur1" />
      <feGaussianBlur
         id="feGaussianBlur2166"
         result="blur2"
         stdDeviation="0.01"
         in="composite1" />
      <feSpecularLighting
         id="feSpecularLighting2170"
         result="lighting"
         specularExponent="15"
         specularConstant="1"
         surfaceScale="5"
         lighting-color="#ffffff">
        <feDistantLight
           id="feDistantLight2168"
           elevation="45"
           azimuth="225" />
      </feSpecularLighting>
      <feFlood
         id="feFlood2172"
         result="flood"
         flood-opacity="1"
         flood-color="rgb(197,41,41)" />
      <feComposite
         k4="0"
         k1="0"
         id="feComposite2174"
         result="composite2"
         k2="1"
         k3="1"
         operator="arithmetic"
         in2="blur1"
         in="lighting" />
      <feBlend
         id="feBlend2176"
         result="blend"
         mode="normal"
         in2="SourceGraphic" />
      <feComposite
         id="feComposite2178"
         result="composite3"
         operator="in"
         in2="SourceGraphic"
         in="blend" />
    </filter>
  </defs>
  <sodipodi:namedview
     inkscape:snap-bbox-midpoints="true"
     inkscape:snap-bbox="true"
     id="base"
     pagecolor="#ffffff"
     bordercolor="#666666"
     borderopacity="1.0"
     inkscape:pageopacity="0.0"
     inkscape:pageshadow="2"
     inkscape:zoom="1.7789883"
     inkscape:cx="57.599999"
     inkscape:cy="242.83465"
     inkscape:document-units="mm"
     inkscape:current-layer="layer4"
     inkscape:document-rotation="0"
     showgrid="true"
     inkscape:snap-object-midpoints="true"
     inkscape:window-width="1920"
     inkscape:window-height="1054"
     inkscape:window-x="1440"
     inkscape:window-y="26"
     inkscape:window-maximized="0">
    <inkscape:grid
       spacingy="2.5400001"
       spacingx="2.5400001"
       units="mm"
       type="xygrid"
       id="grid1738" />
  </sodipodi:namedview>
  <metadata
     id="metadata1135">
    <rdf:RDF>
      <cc:Work
         rdf:about="">
        <dc:format>image/svg+xml</dc:format>
        <dc:type
           rdf:resource="http://purl.org/dc/dcmitype/StillImage" />
        <dc:title></dc:title>
      </cc:Work>
    </rdf:RDF>
  </metadata>
  <g
     sodipodi:insensitive="true"
     inkscape:label="Background"
     inkscape:groupmode="layer"
     id="layer1">
    <rect
       style="display:inline;fill:#000000;fill-opacity:1;stroke:none;stroke-width:0.122863"
       id="rect10"
       width="30.48"
       height="128.5"
       x="0"
       y="0" />
  </g>
  <g
     sodipodi:insensitive="true"
     inkscape:groupmode="layer"
     id="layer3"
     inkscape:label="boxes">
    <rect
       style="display:inline;fill:#e9e9e9;fill-opacity:0.501961;stroke:none;stroke-width:0.508799;stroke-miterlimit:4;stroke-dasharray:0.508799, 1.0176;stroke-dashoffset:0;stroke-opacity:1"
       id="rect1740-1"
       width="10.16"
       height="10.16"
       x="17.780001"
       y="5.0800104" />
    <rect
       style="display:inline;fill:#e9e9e9;fill-opacity:0.501961;stroke:none;stroke-width:0.508791;stroke-miterlimit:4;stroke-dasharray:0.508791, 1.01758;stroke-dashoffset:0;stroke-opacity:1"
       id="rect1740-1-5"
       width="10.159822"
       height="10.159822"
       x="17.780001"
       y="20.320187" />
    <rect
       style="display:inline;fill:#e9e9e9;fill-opacity:0.501961;stroke:none;stroke-width:0.508799;stroke-miterlimit:4;stroke-dasharray:0.508799, 1.0176;stroke-dashoffset:0;stroke-opacity:1"
       id="rect1740-1-9"
       width="10.159998"
       height="10.159998"
       x="17.780001"
       y="35.560013" />
    <rect
       style="display:inline;fill:#e9e9e9;fill-opacity:0.501961;stroke:none;stroke-width:0.508799;stroke-miterlimit:4;stroke-dasharray:0.508799, 1.0176;stroke-dashoffset:0;stroke-opacity:1"
       id="rect1740-1-7"
       width="10.159998"
       height="10.159998"
       x="17.780003"
       y="50.800014" />
    <rect
       style="display:inline;fill:#e9e9e9;fill-opacity:0.501961;stroke:none;stroke-width:0.508799;stroke-miterlimit:4;stroke-dasharray:0.508799, 1.0176;stroke-dashoffset:0;stroke-opacity:1"
       id="rect1740-1-53"
       width="10.159998"
       height="10.159998"
       x="17.780001"
       y="66.040016" />
    <rect
       style="display:inline;fill:#e9e9e9;fill-opacity:0.501961;stroke:none;stroke-width:0.508799;stroke-miterlimit:4;stroke-dasharray:0.508799, 1.0176;stroke-dashoffset:0;stroke-opacity:1"
       id="rect1740-1-90"
       width="10.160002"
       height="10.160002"
       x="17.780001"
       y="81.280014" />
    <rect
       style="display:inline;fill:#e9e9e9;fill-opacity:0.501961;stroke:none;stroke-width:0.508799;stroke-miterlimit:4;stroke-dasharray:0.508799, 1.0176;stroke-dashoffset:0;stroke-opacity:1"
       id="rect1740-1-55"
       width="10.159997"
       height="10.159997"
       x="17.780003"
       y="96.52002" />
    <rect
       style="display:inline;fill:#e9e9e9;fill-opacity:0.501961;stroke:none;stroke-width:0.508799;stroke-miterlimit:4;stroke-dasharray:0.508799, 1.0176;stroke-dashoffset:0;stroke-opacity:1"
       id="rect1740-1-6"
       width="10.159997"
       height="10.159997"
       x="17.780001"
       y="111.76001" />
  </g>
  <g
     sodipodi:insensitive="true"
     inkscape:groupmode="layer"
     id="layer4"
     inkscape:label="text"
     style="display:inline;opacity:1">
    <text
       xml:space="preserve"
       style="font-size:6.35px;line-height:1.25;font-family:Futura;-inkscape-font-specification:Futura;stroke-width:0.264583"
       x="7.9375"
       y="19.84375"
       id="text1987"><tspan
         sodipodi:role="line"
         id="tspan1985"
         x="7.9375"
         y="19.84375"
         style="stroke-width:0.264583" /></text>
    <g
       style="display:inline;opacity:1"
       transform="translate(-4.6246603)"
       id="g2200">
      <g
         transform="matrix(0.13229166,0,0,0.13229166,-10.822541,109.90112)"
         id="g971">
        <g
           data-v-fde0c5aa=""
           id="b1560e19-ee0a-4c5c-a1e3-872fa4d571f9"
           stroke="none"
           fill="#e9e9e9"
           transform="matrix(0.38004571,0,0,0.38004571,177.21513,100.89119)"
           style="opacity:1;fill:#e9e9e9;fill-opacity:1;filter:url(#filter912);stop-opacity:1">
          <path
             d="M 15.88,75.262 14.006,73.346 35.661,52.171 v -3.915 l 8.825,-8.822 V 27.077 l 3.479,-5.144 V 3.223 h 2.68 v 19.531 l -3.479,5.144 v 12.646 l -8.825,8.823 v 3.931 z"
             id="path844"
             inkscape:connector-curvature="0"
             style="fill:#e9e9e9;fill-opacity:1" />
          <path
             d="m 42.998,72.05 h -2.68 V 49.8 l 6.842,-8.212 h 6.881 L 65.068,28.841 h 10.416 v 2.68 H 66.293 L 55.266,44.268 h -6.851 l -5.417,6.502 z"
             id="path846"
             inkscape:connector-curvature="0"
             style="fill:#e9e9e9;fill-opacity:1" />
          <path
             d="M 59.14,90.004 53.313,84.698 V 71.493 L 45.221,64.634 V 49.942 l 4.004,-3.695 h 10.262 l 3.039,-3.039 1.895,1.895 -3.824,3.824 H 50.271 L 47.9,51.115 v 12.277 l 8.093,6.859 v 13.264 l 4.951,4.508 z M 28.026,51.507 26.194,49.551 41.21,35.488 V 7.773 h 2.68 V 36.65 Z M 41.658,72.05 a 4.2740001,4.2740001 0 1 0 0.002,8.548 4.2740001,4.2740001 0 0 0 -0.002,-8.548 z m -12.62,3.491 a 4.278,4.278 0 0 0 -4.276,4.278 4.272,4.272 0 0 0 4.276,4.272 4.27,4.27 0 0 0 4.271,-4.272 4.277,4.277 0 0 0 -4.271,-4.278 z"
             id="path848"
             inkscape:connector-curvature="0"
             style="fill:#e9e9e9;fill-opacity:1" />
          <circle
             cx="29.038"
             cy="79.819"
             r="2.138"
             id="circle850"
             style="fill:#e9e9e9;fill-opacity:1" />
          <path
             d="m 41.658,88.231 a 4.271,4.271 0 0 0 -4.272,4.27 4.274,4.274 0 1 0 4.272,-4.27 z"
             id="path852"
             inkscape:connector-curvature="0"
             style="fill:#e9e9e9;fill-opacity:1" />
          <path
             d="m 41.658,90.366 a 2.137,2.137 0 1 0 0,4.274 2.136,2.136 0 0 0 2.139,-2.139 2.135,2.135 0 0 0 -2.139,-2.135 z M 11.76,73.409 Z m 0,2.132 a 2.1395,2.1395 0 0 0 0,4.279 2.14,2.14 0 0 0 0,-4.279 z M 66.721,38.318 a 4.272,4.272 0 0 0 -4.27,4.276 4.27,4.27 0 0 0 4.27,4.271 4.271,4.271 0 0 0 4.276,-4.271 4.272,4.272 0 0 0 -4.276,-4.276 z"
             id="path854"
             inkscape:connector-curvature="0"
             style="fill:#e9e9e9;fill-opacity:1" />
          <path
             d="m 66.721,40.455 a 2.139,2.139 0 0 0 0,4.276 c 1.183,0 2.14,-0.963 2.14,-2.137 a 2.14,2.14 0 0 0 -2.14,-2.139 z M 78.856,25.912 a 4.27,4.27 0 0 0 -4.275,4.27 4.273,4.273 0 0 0 4.275,4.278 4.272,4.272 0 0 0 4.274,-4.278 4.267,4.267 0 0 0 -4.274,-4.27 z"
             id="path856"
             inkscape:connector-curvature="0"
             style="fill:#e9e9e9;fill-opacity:1" />
          <path
             d="m 78.856,28.046 a 2.135,2.135 0 0 0 -2.139,2.135 c 0,1.185 0.956,2.137 2.139,2.137 a 2.133,2.133 0 0 0 2.135,-2.137 2.134,2.134 0 0 0 -2.135,-2.135 z M 53.903,51.115 a 4.275,4.275 0 1 0 0,8.55 4.273,4.273 0 0 0 4.27,-4.276 4.274,4.274 0 0 0 -4.27,-4.274 z"
             id="path858"
             inkscape:connector-curvature="0"
             style="fill:#e9e9e9;fill-opacity:1" />
          <path
             d="m 53.903,53.252 a 2.14,2.14 0 1 0 0,4.277 2.136,2.136 0 0 0 2.133,-2.139 2.137,2.137 0 0 0 -2.133,-2.138 z m 11.745,3.477 H 58.173 V 54.05 h 6.313 l 28.098,-30.019 1.957,1.831 z M 24.968,48.798 A 4.275,4.275 0 0 0 20.69,53.07 4.28,4.28 0 0 0 24.968,57.346 4.277,4.277 0 0 0 29.24,53.07 4.272,4.272 0 0 0 24.968,48.798 Z M 62.11,87.126 a 4.2740001,4.2740001 0 1 0 0.002,8.548 4.2740001,4.2740001 0 0 0 -0.002,-8.548 z"
             id="path860"
             inkscape:connector-curvature="0"
             style="fill:#e9e9e9;fill-opacity:1" />
        </g>
      </g>
      <g
         aria-label="Stalys"
         id="text2143"
         style="font-size:3.52777px;line-height:1.25;font-family:Futura;-inkscape-font-specification:Futura;stroke-width:0.264583;filter:url(#filter2180)">
        <path
           inkscape:connector-curvature="0"
           d="m 19.395719,124.86158 q -0.04233,-0.11642 -0.148166,-0.18344 -0.105833,-0.067 -0.246944,-0.067 -0.109361,0 -0.204611,0.0423 -0.09172,0.0423 -0.162277,0.11289 -0.06703,0.067 -0.105833,0.15875 -0.03528,0.0917 -0.03528,0.1905 0,0.0953 0.02822,0.16228 0.02822,0.067 0.08114,0.11994 0.05292,0.0529 0.123472,0.0988 0.07056,0.0459 0.155222,0.0953 0.08114,0.0494 0.155222,0.0988 0.07408,0.0459 0.130527,0.10936 0.05645,0.06 0.08819,0.14464 0.03528,0.0811 0.03528,0.20108 0,0.14111 -0.0635,0.28928 -0.0635,0.14816 -0.186971,0.27163 -0.119945,0.11995 -0.299861,0.19403 -0.179916,0.0741 -0.416277,0.0741 -0.134055,0 -0.264582,-0.0282 -0.127,-0.0247 -0.239889,-0.0917 0.03528,-0.067 0.0635,-0.13405 0.03175,-0.0706 0.05292,-0.13759 h 0.02469 q 0.0388,0.0741 0.09878,0.12347 0.0635,0.0494 0.130527,0.0811 0.07055,0.0282 0.141111,0.0423 0.07055,0.0106 0.123472,0.0106 0.137583,0 0.243416,-0.0529 0.109361,-0.0564 0.179916,-0.14111 0.07056,-0.0847 0.105833,-0.18697 0.03881,-0.1023 0.03881,-0.19403 0,-0.0953 -0.03175,-0.16227 -0.02822,-0.0706 -0.07761,-0.12348 -0.04939,-0.0529 -0.119944,-0.0988 -0.06703,-0.0459 -0.141111,-0.0953 -0.08114,-0.0494 -0.15875,-0.0988 -0.07408,-0.0529 -0.134055,-0.11642 -0.05644,-0.067 -0.09172,-0.15169 -0.03528,-0.0882 -0.03528,-0.20814 0,-0.15169 0.0635,-0.28222 0.0635,-0.13406 0.176389,-0.22931 0.116416,-0.0988 0.271638,-0.15522 0.15875,-0.0564 0.345721,-0.0564 0.172861,0 0.282222,0.0388 0.109361,0.0388 0.169333,0.067 -0.04586,0.0811 -0.07056,0.13406 -0.02117,0.0494 -0.04939,0.13405 h -0.0247 z"
           style="font-style:italic;font-variant:normal;font-weight:normal;font-stretch:normal;font-family:Optima;-inkscape-font-specification:'Optima Italic';fill:#e9e9e9;fill-opacity:1;stroke-width:0.264583"
           id="path2145" />
        <path
           inkscape:connector-curvature="0"
           d="m 20.376439,124.82278 q -0.03528,0.12347 -0.0635,0.24341 -0.0247,0.11995 -0.05292,0.24342 0.08114,0 0.176389,-0.004 0.09878,-0.007 0.190499,-0.0106 -0.02117,0.0741 -0.02117,0.14464 -0.09172,-0.004 -0.194027,-0.007 -0.09878,-0.007 -0.179916,-0.007 l -0.137583,0.66322 q -0.01058,0.0564 -0.0247,0.127 -0.01411,0.067 -0.02822,0.13406 -0.01058,0.067 -0.02117,0.13053 -0.0071,0.06 -0.0071,0.1023 0,0.0706 0.02469,0.11995 0.02469,0.0494 0.05997,0.0811 0.0388,0.0282 0.08114,0.0423 0.04586,0.0141 0.08467,0.0141 0.05997,0 0.119944,-0.0176 0.05997,-0.0212 0.112889,-0.0529 l -0.0071,0.0917 q -0.07055,0.0564 -0.172861,0.0776 -0.09878,0.0212 -0.186971,0.0212 -0.06703,0 -0.137583,-0.0212 -0.06703,-0.0176 -0.119945,-0.0564 -0.05292,-0.0388 -0.08819,-0.0988 -0.03175,-0.0635 -0.03175,-0.14464 0,-0.0706 0.01411,-0.14817 0.01764,-0.0776 0.03528,-0.1658 0.0388,-0.17992 0.0635,-0.29281 0.02469,-0.11289 0.04233,-0.20108 0.02117,-0.0917 0.0388,-0.17992 0.01764,-0.0917 0.04586,-0.22578 -0.04939,0 -0.112889,0.004 -0.05997,0 -0.119944,0.004 0.01058,-0.0282 0.01411,-0.0564 0.0071,-0.0282 0.0071,-0.0811 0.05644,0.004 0.116417,0.0106 0.0635,0.004 0.109361,0.004 l 0.0635,-0.37395 0.306916,-0.11288 z"
           style="font-style:italic;font-variant:normal;font-weight:normal;font-stretch:normal;font-family:Optima;-inkscape-font-specification:'Optima Italic';fill:#e9e9e9;fill-opacity:1;stroke-width:0.264583"
           id="path2147" />
        <path
           inkscape:connector-curvature="0"
           d="m 20.933386,126.54786 q 0,0.13052 0.08114,0.20108 0.08467,0.067 0.194027,0.067 0.148167,0 0.264583,-0.0811 0.116416,-0.0811 0.197555,-0.19756 0.02117,-0.12347 0.04586,-0.24341 0.0247,-0.12348 0.05997,-0.24695 -0.08114,0.0176 -0.158749,0.0318 -0.07761,0.0141 -0.15875,0.0318 -0.08819,0.0212 -0.183444,0.0529 -0.09172,0.0282 -0.169333,0.0811 -0.07408,0.0494 -0.123472,0.12347 -0.04939,0.0741 -0.04939,0.17992 z m 0.105833,-1.12889 q 0.134056,-0.0917 0.271639,-0.13758 0.14111,-0.0494 0.29986,-0.0494 0.22225,0 0.352777,0.10936 0.134055,0.10936 0.134055,0.28222 0,0.0741 -0.01764,0.15169 -0.01411,0.0776 -0.02469,0.12348 l -0.102305,0.43038 q -0.02822,0.11289 -0.03881,0.18698 -0.01058,0.0741 -0.01058,0.12699 0,0.0635 0.03175,0.11289 0.03528,0.0459 0.105833,0.0459 0.03175,0 0.05292,-0.007 0.02469,-0.0106 0.04233,-0.0247 l 0.01764,0.0741 q -0.05997,0.0388 -0.123472,0.06 -0.0635,0.0212 -0.137583,0.0212 -0.109361,0 -0.169333,-0.0564 -0.05645,-0.06 -0.0635,-0.16933 -0.105833,0.11289 -0.243416,0.1905 -0.134056,0.0741 -0.306916,0.0741 -0.07761,0 -0.155222,-0.0212 -0.07761,-0.0212 -0.141111,-0.067 -0.05997,-0.0494 -0.09878,-0.11995 -0.0388,-0.0741 -0.0388,-0.1658 0,-0.16933 0.08819,-0.27517 0.08819,-0.10583 0.211666,-0.1658 0.123472,-0.0635 0.254,-0.0917 0.130527,-0.0318 0.211666,-0.0494 0.07055,-0.0141 0.151694,-0.0247 0.08114,-0.0141 0.130528,-0.0353 0.07408,-0.0318 0.09172,-0.10936 0.02117,-0.0776 0.02117,-0.15169 0,-0.15875 -0.102305,-0.23283 -0.102305,-0.0776 -0.250472,-0.0776 -0.148166,0 -0.253999,0.067 -0.102305,0.0635 -0.197555,0.16581 h -0.04233 z"
           style="font-style:italic;font-variant:normal;font-weight:normal;font-stretch:normal;font-family:Optima;-inkscape-font-specification:'Optima Italic';fill:#e9e9e9;fill-opacity:1;stroke-width:0.264583"
           id="path2149" />
        <path
           inkscape:connector-curvature="0"
           d="m 23.30052,124.29714 q -0.01411,0.0459 -0.05644,0.21872 -0.03881,0.16933 -0.09525,0.41275 -0.05292,0.24341 -0.116416,0.53269 -0.0635,0.28575 -0.123472,0.56445 -0.05645,0.27516 -0.102306,0.51858 -0.04586,0.23989 -0.07055,0.381 -0.02822,-0.004 -0.0635,-0.004 -0.03175,0 -0.08114,0 -0.04586,0 -0.08114,0 -0.03175,0 -0.05997,0.004 0.05644,-0.20461 0.112888,-0.4445 0.05997,-0.24342 0.116417,-0.49389 0.05644,-0.25047 0.105833,-0.49742 0.05292,-0.24694 0.09525,-0.46919 0.04233,-0.22225 0.07408,-0.40922 0.03175,-0.18697 0.04939,-0.31397 0.05292,0.0141 0.134056,0.0141 0.0388,0 0.08114,-0.004 0.04233,-0.004 0.08114,-0.0106 z"
           style="font-style:italic;font-variant:normal;font-weight:normal;font-stretch:normal;font-family:Optima;-inkscape-font-specification:'Optima Italic';fill:#e9e9e9;fill-opacity:1;stroke-width:0.264583"
           id="path2151" />
        <path
           inkscape:connector-curvature="0"
           d="m 24.063345,126.60783 q 0.07055,-0.127 0.144638,-0.254 0.07761,-0.13053 0.148167,-0.26106 0.109361,-0.20108 0.176388,-0.32455 0.07056,-0.127 0.112889,-0.20461 0.04233,-0.0811 0.0635,-0.127 0.02117,-0.0459 0.0388,-0.0882 l 0.03528,-0.0847 q 0.05292,0.0141 0.123472,0.0141 0.07055,0 0.112889,-0.0141 -0.194028,0.30691 -0.395111,0.63147 -0.201083,0.32455 -0.39511,0.65616 -0.194027,0.33161 -0.377471,0.65617 -0.179917,0.32455 -0.331611,0.635 -0.0388,-0.0141 -0.112888,-0.0141 -0.07056,0 -0.109361,0.0141 0.148166,-0.23284 0.296332,-0.4692 0.148167,-0.23636 0.282222,-0.45155 -0.105833,-0.43392 -0.211666,-0.83256 -0.102305,-0.40216 -0.215194,-0.82549 0.03175,0.007 0.07055,0.0106 0.03881,0.004 0.07761,0.004 0.08467,0 0.137583,-0.0141 0.04233,0.24341 0.119944,0.58561 0.07761,0.34219 0.1905,0.75847 h 0.01764 z"
           style="font-style:italic;font-variant:normal;font-weight:normal;font-stretch:normal;font-family:Optima;-inkscape-font-specification:'Optima Italic';fill:#e9e9e9;fill-opacity:1;stroke-width:0.264583"
           id="path2153" />
        <path
           inkscape:connector-curvature="0"
           d="m 26.088285,125.54597 q -0.02822,-0.0988 -0.109361,-0.1517 -0.07761,-0.0564 -0.179916,-0.0564 -0.07761,0 -0.141111,0.0318 -0.05997,0.0282 -0.105833,0.0776 -0.04233,0.0459 -0.06703,0.10583 -0.02117,0.06 -0.02117,0.11995 0,0.0635 0.02469,0.11289 0.02469,0.0459 0.06703,0.0811 0.04233,0.0353 0.09525,0.0635 0.05645,0.0282 0.116417,0.0529 0.05644,0.0247 0.112888,0.0564 0.05645,0.0282 0.102306,0.0705 0.04586,0.0423 0.07408,0.10231 0.02822,0.06 0.02822,0.14464 0,0.12347 -0.05644,0.23636 -0.05645,0.10936 -0.155222,0.19402 -0.09525,0.0847 -0.229305,0.13053 -0.130528,0.0459 -0.285749,0.0459 -0.109361,0 -0.201083,-0.0212 -0.08819,-0.0212 -0.179917,-0.0706 0.03881,-0.0635 0.06703,-0.13053 0.02822,-0.067 0.04586,-0.10583 h 0.02469 q 0.03881,0.10583 0.134056,0.15875 0.09878,0.0529 0.215194,0.0529 0.102305,0 0.17286,-0.0353 0.07408,-0.0353 0.119945,-0.0882 0.04586,-0.0529 0.06703,-0.11641 0.02469,-0.067 0.02469,-0.12347 0,-0.11289 -0.07056,-0.16934 -0.07055,-0.0564 -0.211666,-0.11994 -0.05644,-0.0247 -0.116416,-0.0564 -0.05645,-0.0318 -0.102306,-0.0776 -0.04586,-0.0459 -0.07408,-0.10936 -0.02822,-0.067 -0.02822,-0.16228 0,-0.0917 0.03528,-0.1905 0.03528,-0.0988 0.10936,-0.18344 0.07761,-0.0847 0.201083,-0.13758 0.123472,-0.0564 0.299861,-0.0564 0.09525,0 0.165805,0.0176 0.07055,0.0141 0.155222,0.0529 -0.05292,0.11994 -0.07056,0.16933 -0.01411,0.0494 -0.02117,0.0847 h -0.03175 z"
           style="font-style:italic;font-variant:normal;font-weight:normal;font-stretch:normal;font-family:Optima;-inkscape-font-specification:'Optima Italic';fill:#e9e9e9;fill-opacity:1;stroke-width:0.264583"
           id="path2155" />
      </g>
    </g>
    <g
       style="font-size:3.52777px;line-height:1.25;font-family:Futura;-inkscape-font-specification:Futura;stroke-width:0.264583"
       id="text1743"
       aria-label="AD Converter">
      <path
         inkscape:connector-curvature="0"
         id="path1745"
         style="font-style:italic;font-variant:normal;font-weight:normal;font-stretch:normal;font-family:Optima;-inkscape-font-specification:'Optima Italic';fill:#e9e9e9;fill-opacity:1;stroke-width:0.264583"
         d="M 6.1924549,1.8040781 5.578623,2.7389372 q 0.2010828,0.010583 0.4092213,0.010583 0.2046106,0 0.4092213,-0.010583 L 6.2030383,1.8040781 Z m 0.7126096,2.0143567 q -0.035278,-0.00353 -0.074083,-0.00353 -0.038805,0 -0.088194,0 -0.049389,0 -0.088194,0 -0.035278,0 -0.070555,0.00353 Q 6.5734541,3.7337684 6.5522875,3.5997131 6.5311209,3.4621301 6.5064265,3.324547 6.4852599,3.186964 6.4605655,3.0670198 6.4393988,2.9435479 6.4252878,2.8765202 q -0.052917,-0.00353 -0.1869718,-0.00706 -0.1340553,-0.00353 -0.2822216,-0.00353 -0.1164165,0 -0.2328329,0.00353 -0.1164164,0.00353 -0.2328328,0.00706 -0.049389,0.070555 -0.1269997,0.1975552 -0.074083,0.1234719 -0.1552219,0.2645827 -0.081139,0.137583 -0.1552219,0.2716383 -0.074083,0.1305275 -0.1164164,0.2081384 -0.024694,-0.00353 -0.049389,-0.00353 -0.024694,0 -0.0635,0 -0.028222,0 -0.056444,0 -0.028222,0 -0.067028,0.00353 Q 5.0035964,3.3739358 5.2964014,2.9294368 5.592734,2.4849378 5.8925945,2.0227999 6.023122,1.8181892 6.1218995,1.6735507 6.2242049,1.5253843 6.3159269,1.3736902 h 0.067028 q 0.017639,0.091722 0.056444,0.2857494 0.038805,0.1940273 0.088194,0.4374435 0.049389,0.2434161 0.1023053,0.5150544 0.056444,0.2681105 0.1093609,0.5115266 0.052917,0.2398884 0.09525,0.430388 0.045861,0.1869718 0.070555,0.2645827 z" />
      <path
         inkscape:connector-curvature="0"
         id="path1747"
         style="font-style:italic;font-variant:normal;font-weight:normal;font-stretch:normal;font-family:Optima;-inkscape-font-specification:'Optima Italic';fill:#e9e9e9;fill-opacity:1;stroke-width:0.264583"
         d="m 9.4978652,2.3791047 q 0,-0.2222495 -0.077611,-0.4056936 Q 9.346171,1.7864393 9.2121158,1.6876617 9.0851161,1.5959397 8.9087276,1.5712453 8.7358668,1.5430232 8.5418395,1.5430232 q -0.2010829,0 -0.4092214,0.010583 Q 8.0797011,1.7652724 8.0197295,2.0263274 7.9597575,2.2838546 7.8997853,2.5660762 7.8398133,2.84477 7.7833689,3.1305194 7.7269249,3.4162688 7.6810636,3.6808515 q 0.1023053,0.010583 0.2046106,0.014111 0.1058331,0.00353 0.2081385,0.00353 0.2539994,0 0.4691934,-0.045861 Q 8.7817278,3.6067705 8.9722274,3.4586041 9.0956994,3.3633541 9.1944769,3.2363546 9.2932549,3.1093549 9.3602821,2.9682441 9.4273101,2.8236055 9.4625875,2.6754392 9.4978655,2.523745 9.4978655,2.3791065 Z m 0.3033882,0 q 0,0.1446385 -0.038806,0.3104437 Q 9.7271702,2.8553536 9.638976,3.0211588 9.5543095,3.186964 9.4131987,3.3386581 9.2756156,3.4903522 9.071005,3.6102964 q -0.1058331,0.0635 -0.2116662,0.1058331 -0.1023054,0.042333 -0.2187218,0.067028 -0.1164164,0.021167 -0.2504716,0.028222 -0.1340553,0.00706 -0.2963327,0.00706 -0.1481664,0 -0.2822216,-0.00353 -0.1305275,0 -0.2222495,0 -0.081139,0 -0.1516942,0 -0.067028,0 -0.09525,0.00353 Q 7.4094253,3.5714909 7.4835085,3.2504639 7.5575916,2.9294368 7.628147,2.5978264 7.6987024,2.266216 7.7586745,1.9557723 q 0.059972,-0.3104438 0.098778,-0.5432766 0.045861,0.00353 0.09525,0.010583 0.052916,0.00353 0.1128886,0.00353 0.1305275,0 0.2751661,-0.00706 0.1481663,-0.00706 0.2998604,-0.00706 0.2010829,0 0.3951103,0.024694 0.1975551,0.021167 0.3457214,0.1058331 0.2010829,0.1128886 0.3104438,0.3351381 0.1093609,0.2222495 0.1093609,0.5009434 z" />
      <path
         inkscape:connector-curvature="0"
         id="path1749"
         style="font-style:italic;font-variant:normal;font-weight:normal;font-stretch:normal;font-family:Optima;-inkscape-font-specification:'Optima Italic';fill:#e9e9e9;fill-opacity:1;stroke-width:0.264583"
         d="m 12.978672,3.5256299 q -0.02469,0.059972 -0.03528,0.098778 -0.01058,0.035278 -0.02117,0.088194 -0.09172,0.045861 -0.264582,0.098778 -0.172861,0.052917 -0.430388,0.052917 -0.22225,0 -0.430388,-0.056444 -0.204611,-0.056444 -0.36336,-0.183444 -0.155222,-0.1305275 -0.250472,-0.3316104 -0.09525,-0.2010829 -0.09525,-0.4833045 0,-0.2963327 0.102305,-0.5573877 0.105833,-0.2610549 0.299861,-0.4550823 0.197555,-0.1975551 0.479777,-0.3104438 0.285749,-0.1128886 0.642054,-0.1128886 0.179916,0 0.345721,0.028222 0.169333,0.028222 0.328083,0.1093608 -0.04586,0.084666 -0.07056,0.1446386 -0.02117,0.056444 -0.03175,0.091722 -0.02469,-0.024694 -0.07408,-0.067028 -0.04939,-0.042333 -0.126999,-0.081139 -0.07761,-0.042333 -0.186972,-0.070555 -0.105833,-0.03175 -0.246944,-0.03175 -0.278694,0 -0.493888,0.1128886 -0.215194,0.1128886 -0.359832,0.3033882 -0.144639,0.1869718 -0.22225,0.430388 -0.07408,0.2398883 -0.07408,0.4974155 0,0.2504717 0.05997,0.3986381 0.0635,0.1446385 0.144638,0.2328328 0.127,0.137583 0.296333,0.2010829 0.169333,0.0635 0.349249,0.0635 0.1905,0 0.370416,-0.059972 0.183444,-0.0635 0.345722,-0.1693329 l 0.01411,0.017639 z" />
      <path
         inkscape:connector-curvature="0"
         id="path1751"
         style="font-style:italic;font-variant:normal;font-weight:normal;font-stretch:normal;font-family:Optima;-inkscape-font-specification:'Optima Italic';fill:#e9e9e9;fill-opacity:1;stroke-width:0.264583"
         d="m 13.602976,3.2398806 q 0,0.2222495 0.102306,0.366888 0.105833,0.1446386 0.345721,0.1446386 0.201083,0 0.338666,-0.1058331 0.137583,-0.1093609 0.225777,-0.2645827 0.08819,-0.1552219 0.127,-0.3280827 0.03881,-0.1728607 0.03881,-0.3033882 0,-0.1093609 -0.03175,-0.2010829 -0.02822,-0.09525 -0.08819,-0.1622774 -0.05997,-0.070555 -0.148166,-0.1093609 -0.08819,-0.038805 -0.201083,-0.038805 -0.190499,0 -0.328083,0.1023053 -0.134055,0.1023053 -0.218721,0.2539994 -0.08467,0.1481664 -0.123472,0.3245549 -0.03881,0.1728607 -0.03881,0.3210271 z m -0.278694,-0.084667 q 0,-0.1904996 0.06703,-0.3739436 0.07056,-0.1834441 0.197555,-0.3280827 0.127,-0.1481663 0.310444,-0.2363606 0.183444,-0.091722 0.409221,-0.091722 0.208139,0 0.352777,0.059972 0.144639,0.056444 0.232833,0.1516941 0.08819,0.09525 0.127,0.2187218 0.0388,0.1234719 0.0388,0.2575272 0,0.1940273 -0.07056,0.3845269 -0.07056,0.1869718 -0.201083,0.3351382 -0.130527,0.1481663 -0.313971,0.2363606 -0.183445,0.084666 -0.41275,0.084666 -0.218721,0 -0.36336,-0.0635 -0.141111,-0.0635 -0.225777,-0.1658052 -0.08114,-0.1058331 -0.116417,-0.2293051 -0.03175,-0.1269997 -0.03175,-0.2398883 z" />
      <path
         inkscape:connector-curvature="0"
         id="path1753"
         style="font-style:italic;font-variant:normal;font-weight:normal;font-stretch:normal;font-family:Optima;-inkscape-font-specification:'Optima Italic';fill:#e9e9e9;fill-opacity:1;stroke-width:0.264583"
         d="m 15.838315,2.4249657 q 0.03528,-0.049389 0.09172,-0.098778 0.05997,-0.049389 0.134055,-0.091722 0.07408,-0.042333 0.165805,-0.067028 0.09172,-0.028222 0.1905,-0.028222 0.09525,0 0.183444,0.028222 0.08819,0.024694 0.155222,0.077611 0.07055,0.052917 0.112889,0.1340553 0.04233,0.077611 0.04233,0.183444 0,0.035278 -0.0035,0.0635 0,0.028222 -0.01058,0.074083 -0.0071,0.045861 -0.0247,0.1164165 -0.01411,0.070555 -0.04233,0.1904995 -0.01411,0.0635 -0.0388,0.1799163 -0.02469,0.1128886 -0.04939,0.2398884 -0.0247,0.1234719 -0.04586,0.2363606 -0.02117,0.1093608 -0.02469,0.1552218 -0.02822,-0.00353 -0.0635,-0.00353 -0.03175,0 -0.07056,0 -0.0388,0 -0.08114,0 -0.04233,0 -0.07408,0.00353 0.01411,-0.028222 0.03881,-0.1164164 0.02469,-0.088194 0.05292,-0.2010829 0.03175,-0.1128886 0.05997,-0.2434161 0.03175,-0.1305275 0.05645,-0.2504717 0.02469,-0.1234719 0.0388,-0.2257772 0.01764,-0.1023054 0.01764,-0.1622775 0,-0.081139 -0.03175,-0.137583 -0.02822,-0.059972 -0.07761,-0.098778 -0.04939,-0.038805 -0.112889,-0.056444 -0.05997,-0.021167 -0.126999,-0.021167 -0.04233,0 -0.112889,0.014111 -0.07055,0.014111 -0.148166,0.056444 -0.07408,0.038806 -0.144639,0.1128886 -0.06703,0.074083 -0.105833,0.1940274 -0.02117,0.059972 -0.04586,0.1622774 -0.02469,0.098778 -0.05292,0.2187218 -0.02469,0.1164164 -0.04939,0.2398883 -0.02469,0.123472 -0.04586,0.2328328 -0.01764,0.1058331 -0.03175,0.1834441 -0.01411,0.077611 -0.01764,0.098777 -0.02822,-0.00353 -0.05997,-0.00353 -0.03175,0 -0.07056,0 -0.0388,0 -0.07761,0 -0.03528,0 -0.0635,0.00353 0.02469,-0.070555 0.05644,-0.2046106 0.03528,-0.1375831 0.07056,-0.2998605 0.03528,-0.1622774 0.07056,-0.3351381 0.0388,-0.1763885 0.07056,-0.3351382 0.03175,-0.1587496 0.05292,-0.2857494 0.02469,-0.1305274 0.03528,-0.2010828 0.05292,0.014111 0.127,0.014111 0.03175,0 0.06703,-0.00353 0.03528,-0.00353 0.06703,-0.010583 l -0.06703,0.2610549 z" />
      <path
         inkscape:connector-curvature="0"
         id="path1755"
         style="font-style:italic;font-variant:normal;font-weight:normal;font-stretch:normal;font-family:Optima;-inkscape-font-specification:'Optima Italic';fill:#e9e9e9;fill-opacity:1;stroke-width:0.264583"
         d="m 17.936572,3.49388 q 0.05292,-0.088194 0.09172,-0.1516941 0.0388,-0.0635 0.07408,-0.1269997 0.0388,-0.0635 0.08114,-0.1411108 0.04586,-0.077611 0.10936,-0.1940274 0.09878,-0.1869718 0.15875,-0.2963327 0.05997,-0.1093608 0.09525,-0.1799162 0.0388,-0.074083 0.0635,-0.1269998 0.02822,-0.052916 0.0635,-0.1199441 0.04233,0.014111 0.109361,0.014111 0.07761,0 0.119944,-0.014111 -0.03175,0.045861 -0.08819,0.1305274 -0.05292,0.084666 -0.116416,0.1869719 -0.0635,0.1023053 -0.134055,0.2151939 -0.07056,0.1093609 -0.134055,0.2116662 -0.05997,0.098778 -0.109361,0.1799163 -0.04939,0.081139 -0.07408,0.1269997 -0.151694,0.2539995 -0.225777,0.4092214 -0.07408,0.1516941 -0.102305,0.2010828 -0.02117,-0.00353 -0.04233,-0.00353 -0.02117,0 -0.04939,0 -0.02822,0 -0.04939,0 -0.02117,0 -0.0388,0.00353 -0.01411,-0.059972 -0.03881,-0.183444 -0.02469,-0.1234719 -0.08114,-0.3633603 -0.06703,-0.2786938 -0.134055,-0.5573877 -0.0635,-0.2786938 -0.134055,-0.5573876 0.05292,0.014111 0.130527,0.014111 0.08467,0 0.137583,-0.014111 0.06703,0.3421936 0.141111,0.6702763 0.07408,0.3280826 0.155222,0.6667485 h 0.02117 z" />
      <path
         inkscape:connector-curvature="0"
         id="path1757"
         style="font-style:italic;font-variant:normal;font-weight:normal;font-stretch:normal;font-family:Optima;-inkscape-font-specification:'Optima Italic';fill:#e9e9e9;fill-opacity:1;stroke-width:0.264583"
         d="m 19.842559,2.2309383 q -0.07056,0 -0.158749,0.028222 -0.08467,0.024694 -0.169333,0.09525 -0.08114,0.067028 -0.151694,0.1869718 -0.07056,0.1164164 -0.109361,0.2998604 0.109361,0.00706 0.239888,0.010583 0.130528,0.00353 0.239889,0.00353 h 0.112888 q 0.08819,0 0.186972,0 0.09878,-0.00353 0.169333,-0.014111 0.0071,-0.03175 0.01411,-0.074083 0.0071,-0.045861 0.0071,-0.1164164 0,-0.1164165 -0.03528,-0.1975552 -0.03175,-0.081139 -0.08819,-0.1305275 -0.05292,-0.049389 -0.119944,-0.070555 -0.06703,-0.021167 -0.137584,-0.021167 z m 0.370416,1.4746079 q -0.130527,0.077611 -0.278693,0.1093609 -0.144639,0.035278 -0.296333,0.035278 -0.112889,0 -0.236361,-0.03175 Q 19.278116,3.7902131 19.172283,3.7090743 19.069978,3.6244073 19.00295,3.4868248 18.93592,3.345714 18.93592,3.1340478 q 0,-0.2081385 0.0635,-0.3915825 0.06703,-0.1834441 0.186972,-0.3174993 0.119944,-0.1375831 0.28575,-0.215194 0.169333,-0.081139 0.370415,-0.081139 0.127,0 0.239889,0.03175 0.112888,0.028222 0.201083,0.098778 0.08819,0.067028 0.137583,0.1799163 0.05292,0.1093608 0.05292,0.2681105 0,0.098777 -0.01411,0.1693329 -0.01411,0.070555 -0.02469,0.1164165 -0.07408,-0.00353 -0.134055,-0.00706 -0.05997,-0.00353 -0.119945,-0.00353 -0.05644,-0.00353 -0.119944,-0.00353 -0.0635,-0.00353 -0.144638,-0.00353 h -0.261055 -0.109361 q -0.08467,0 -0.169333,0.00353 -0.08467,0.00353 -0.148167,0.00353 -0.0071,0.035278 -0.01411,0.084666 -0.0035,0.049389 -0.0035,0.1199442 0,0.1728607 0.05292,0.2786938 0.05292,0.1058331 0.127,0.1658052 0.07761,0.059972 0.165805,0.081139 0.09172,0.021167 0.165805,0.021167 0.102306,0 0.183444,-0.021167 0.08467,-0.021167 0.148167,-0.049389 0.06703,-0.028222 0.112888,-0.059972 0.04939,-0.035278 0.08114,-0.056444 h 0.01058 z" />
      <path
         inkscape:connector-curvature="0"
         id="path1759"
         style="font-style:italic;font-variant:normal;font-weight:normal;font-stretch:normal;font-family:Optima;-inkscape-font-specification:'Optima Italic';fill:#e9e9e9;fill-opacity:1;stroke-width:0.264583"
         d="m 21.723353,2.435549 q -0.02822,-0.010583 -0.0635,-0.021167 -0.03528,-0.010583 -0.07761,-0.010583 -0.123472,0 -0.243416,0.1058331 -0.116417,0.1023053 -0.176389,0.3139715 -0.0071,0.014111 -0.02469,0.081139 -0.01411,0.067028 -0.03528,0.1622774 -0.02117,0.091722 -0.04586,0.2046107 -0.02117,0.1093609 -0.04233,0.215194 -0.02117,0.1058331 -0.03881,0.1975551 -0.01411,0.088194 -0.02117,0.1340552 -0.02822,-0.00353 -0.05997,-0.00353 -0.03175,0 -0.07056,0 -0.0388,0 -0.07761,0 -0.03528,0 -0.06703,0.00353 0.02117,-0.059972 0.05292,-0.183444 0.03175,-0.1269997 0.06703,-0.2822216 0.03528,-0.1552219 0.07055,-0.3280826 0.03881,-0.1728607 0.06703,-0.3351382 0.03175,-0.1622774 0.05644,-0.2998604 0.0247,-0.1411108 0.03528,-0.2328328 0.02822,0.00706 0.0635,0.010583 0.03881,0.00353 0.07408,0.00353 0.07761,0 0.130527,-0.014111 -0.0071,0.021167 -0.02117,0.0635 -0.01058,0.038806 -0.0247,0.091722 -0.01411,0.052917 -0.02822,0.1128887 -0.01058,0.056444 -0.01764,0.1128886 h 0.01764 q 0.05645,-0.070555 0.112889,-0.1446386 0.05997,-0.074083 0.123472,-0.1305274 0.06703,-0.059972 0.148166,-0.09525 0.08114,-0.038805 0.183444,-0.035278 -0.01764,0.088194 -0.02822,0.1552218 -0.0071,0.0635 -0.0071,0.1305275 l -0.03175,0.017639 z" />
      <path
         inkscape:connector-curvature="0"
         id="path1761"
         style="font-style:italic;font-variant:normal;font-weight:normal;font-stretch:normal;font-family:Optima;-inkscape-font-specification:'Optima Italic';fill:#e9e9e9;fill-opacity:1;stroke-width:0.264583"
         d="m 22.594656,1.7158839 q -0.03528,0.123472 -0.0635,0.2434161 -0.02469,0.1199442 -0.05292,0.2434162 0.08114,0 0.176388,-0.00353 0.09878,-0.00706 0.1905,-0.010583 -0.02117,0.074083 -0.02117,0.1446386 -0.09172,-0.00353 -0.194027,-0.00706 -0.09878,-0.00706 -0.179916,-0.00706 l -0.137583,0.6632207 q -0.01058,0.056444 -0.0247,0.1269998 -0.01411,0.067028 -0.02822,0.1340552 -0.01058,0.067028 -0.02117,0.1305275 -0.0071,0.059972 -0.0071,0.1023053 0,0.070555 0.02469,0.1199442 0.02469,0.049389 0.05997,0.081139 0.0388,0.028222 0.08114,0.042333 0.04586,0.014111 0.08467,0.014111 0.05997,0 0.119944,-0.017639 0.05997,-0.021167 0.112889,-0.052917 l -0.0071,0.091722 q -0.07055,0.056444 -0.172861,0.077611 -0.09878,0.021167 -0.186972,0.021167 -0.06703,0 -0.137583,-0.021167 -0.06703,-0.017639 -0.119944,-0.056444 -0.05292,-0.038806 -0.08819,-0.098778 -0.03175,-0.0635 -0.03175,-0.1446385 0,-0.070555 0.01411,-0.1481664 0.01764,-0.077611 0.03528,-0.1658052 0.0388,-0.1799162 0.0635,-0.2928049 0.02469,-0.1128886 0.04233,-0.2010829 0.02117,-0.091722 0.0388,-0.1799162 0.01764,-0.091722 0.04586,-0.2257773 -0.04939,0 -0.112888,0.00353 -0.05997,0 -0.119944,0.00353 0.01058,-0.028222 0.01411,-0.056444 0.0071,-0.028222 0.0071,-0.081139 0.05645,0.00353 0.116417,0.010583 0.0635,0.00353 0.10936,0.00353 l 0.0635,-0.3739437 0.306916,-0.1128886 z" />
      <path
         inkscape:connector-curvature="0"
         id="path1763"
         style="font-style:italic;font-variant:normal;font-weight:normal;font-stretch:normal;font-family:Optima;-inkscape-font-specification:'Optima Italic';fill:#e9e9e9;fill-opacity:1;stroke-width:0.264583"
         d="m 23.832462,2.2309383 q -0.07055,0 -0.15875,0.028222 -0.08467,0.024694 -0.169333,0.09525 -0.08114,0.067028 -0.151694,0.1869718 -0.07056,0.1164164 -0.109361,0.2998604 0.109361,0.00706 0.239889,0.010583 0.130527,0.00353 0.239888,0.00353 h 0.112889 q 0.08819,0 0.186972,0 0.09878,-0.00353 0.169333,-0.014111 0.0071,-0.03175 0.01411,-0.074083 0.0071,-0.045861 0.0071,-0.1164164 0,-0.1164165 -0.03528,-0.1975552 -0.03175,-0.081139 -0.08819,-0.1305275 -0.05292,-0.049389 -0.119944,-0.070555 -0.06703,-0.021167 -0.137583,-0.021167 z m 0.370416,1.4746079 q -0.130528,0.077611 -0.278694,0.1093609 -0.144639,0.035278 -0.296333,0.035278 -0.112888,0 -0.23636,-0.03175 -0.123472,-0.028222 -0.229305,-0.1093608 -0.102306,-0.084667 -0.169333,-0.2222495 -0.06703,-0.1411108 -0.06703,-0.352777 0,-0.2081385 0.0635,-0.3915825 0.06703,-0.1834441 0.186972,-0.3174993 0.119944,-0.1375831 0.285749,-0.215194 0.169333,-0.081139 0.370416,-0.081139 0.127,0 0.239888,0.03175 0.112889,0.028222 0.201083,0.098778 0.08819,0.067028 0.137583,0.1799163 0.05292,0.1093608 0.05292,0.2681105 0,0.098777 -0.01411,0.1693329 -0.01411,0.070555 -0.0247,0.1164165 -0.07408,-0.00353 -0.134055,-0.00706 -0.05997,-0.00353 -0.119944,-0.00353 -0.05644,-0.00353 -0.119944,-0.00353 -0.0635,-0.00353 -0.144639,-0.00353 H 23.64549 23.536129 q -0.08467,0 -0.169333,0.00353 -0.08467,0.00353 -0.148166,0.00353 -0.0071,0.035278 -0.01411,0.084666 -0.0035,0.049389 -0.0035,0.1199442 0,0.1728607 0.05292,0.2786938 0.05292,0.1058331 0.126999,0.1658052 0.07761,0.059972 0.165806,0.081139 0.09172,0.021167 0.165805,0.021167 0.102305,0 0.183444,-0.021167 0.08467,-0.021167 0.148166,-0.049389 0.06703,-0.028222 0.112889,-0.059972 0.04939,-0.035278 0.08114,-0.056444 h 0.01058 z" />
      <path
         inkscape:connector-curvature="0"
         id="path1765"
         style="font-style:italic;font-variant:normal;font-weight:normal;font-stretch:normal;font-family:Optima;-inkscape-font-specification:'Optima Italic';fill:#e9e9e9;fill-opacity:1;stroke-width:0.264583"
         d="m 25.712764,2.435549 q -0.02822,-0.010583 -0.0635,-0.021167 -0.03528,-0.010583 -0.07761,-0.010583 -0.123472,0 -0.243416,0.1058331 -0.116416,0.1023053 -0.176389,0.3139715 -0.0071,0.014111 -0.02469,0.081139 -0.01411,0.067028 -0.03528,0.1622774 -0.02117,0.091722 -0.04586,0.2046107 -0.02117,0.1093609 -0.04233,0.215194 -0.02117,0.1058331 -0.0388,0.1975551 -0.01411,0.088194 -0.02117,0.1340552 -0.02822,-0.00353 -0.05997,-0.00353 -0.03175,0 -0.07056,0 -0.03881,0 -0.07761,0 -0.03528,0 -0.06703,0.00353 0.02117,-0.059972 0.05292,-0.183444 0.03175,-0.1269997 0.06703,-0.2822216 0.03528,-0.1552219 0.07056,-0.3280826 0.0388,-0.1728607 0.06703,-0.3351382 0.03175,-0.1622774 0.05644,-0.2998604 0.0247,-0.1411108 0.03528,-0.2328328 0.02822,0.00706 0.0635,0.010583 0.03881,0.00353 0.07408,0.00353 0.07761,0 0.130528,-0.014111 -0.0071,0.021167 -0.02117,0.0635 -0.01058,0.038806 -0.02469,0.091722 -0.01411,0.052917 -0.02822,0.1128887 -0.01058,0.056444 -0.01764,0.1128886 h 0.01764 q 0.05644,-0.070555 0.112888,-0.1446386 0.05997,-0.074083 0.123472,-0.1305274 0.06703,-0.059972 0.148166,-0.09525 0.08114,-0.038805 0.183445,-0.035278 -0.01764,0.088194 -0.02822,0.1552218 -0.0071,0.0635 -0.0071,0.1305275 l -0.03175,0.017639 z" />
    </g>
    <g
       transform="translate(-1.1477179,2.2607383)"
       style="font-size:3.52777px;line-height:1.25;font-family:Futura;-inkscape-font-specification:Futura;stroke-width:0.264583"
       id="text1770"
       aria-label="In">
      <path
         inkscape:connector-curvature="0"
         id="path1772"
         style="font-style:italic;font-variant:normal;font-weight:normal;font-stretch:normal;font-size:2.82222px;font-family:Optima;-inkscape-font-specification:'Optima Italic';fill:#e9e9e9;fill-opacity:1;stroke-width:0.264583"
         d="m 7.7413558,15.242823 q 0.053622,-0.194733 0.1128888,-0.451555 0.059267,-0.259645 0.1157111,-0.524933 0.056444,-0.265289 0.1044221,-0.513644 0.047978,-0.248356 0.079022,-0.434622 0.0254,0.0056 0.056444,0.0085 0.033867,0.0028 0.064911,0.0028 0.033867,0 0.067733,-0.0028 0.033867,-0.0028 0.062089,-0.0085 -0.056444,0.217311 -0.115711,0.474133 -0.059267,0.254 -0.115711,0.513644 -0.053622,0.259644 -0.1015999,0.505177 -0.047978,0.242711 -0.079022,0.4318 -0.0254,-0.0028 -0.056444,-0.0028 -0.031044,0 -0.067733,0 -0.031044,0 -0.064911,0 -0.033867,0 -0.062089,0.0028 z" />
      <path
         inkscape:connector-curvature="0"
         id="path1774"
         style="font-style:italic;font-variant:normal;font-weight:normal;font-stretch:normal;font-size:2.82222px;font-family:Optima;-inkscape-font-specification:'Optima Italic';fill:#e9e9e9;fill-opacity:1;stroke-width:0.264583"
         d="m 8.9333028,14.128046 q 0.028222,-0.03951 0.073378,-0.07902 0.047978,-0.03951 0.1072443,-0.07338 0.059267,-0.03387 0.1326444,-0.05362 0.073378,-0.02258 0.1523998,-0.02258 0.0762,0 0.1467555,0.02258 0.070556,0.01975 0.1241777,0.06209 0.056444,0.04233 0.090311,0.107244 0.033867,0.06209 0.033867,0.146756 0,0.02822 -0.00282,0.0508 0,0.02258 -0.00847,0.05927 -0.00564,0.03669 -0.019756,0.09313 -0.011289,0.05645 -0.033867,0.1524 -0.011289,0.0508 -0.031044,0.143934 -0.019756,0.09031 -0.039511,0.191911 -0.019756,0.09878 -0.036689,0.189088 -0.016933,0.08749 -0.019756,0.124178 -0.022578,-0.0028 -0.0508,-0.0028 -0.0254,0 -0.056444,0 -0.031044,0 -0.064911,0 -0.033867,0 -0.059267,0.0028 0.011289,-0.02258 0.031045,-0.09313 0.019755,-0.07056 0.042333,-0.160867 0.0254,-0.09031 0.047978,-0.194733 0.0254,-0.104422 0.045155,-0.200378 0.019756,-0.09878 0.031045,-0.180622 0.014111,-0.08184 0.014111,-0.129822 0,-0.06491 -0.0254,-0.110066 -0.022578,-0.04798 -0.062089,-0.07902 -0.039511,-0.03104 -0.090311,-0.04516 -0.047978,-0.01693 -0.1015999,-0.01693 -0.033867,0 -0.090311,0.01129 -0.056444,0.01129 -0.1185332,0.04516 -0.059267,0.03104 -0.115711,0.09031 -0.053622,0.05927 -0.084667,0.155222 -0.016933,0.04798 -0.036689,0.129822 -0.019755,0.07902 -0.042333,0.174978 -0.019756,0.09313 -0.039511,0.191911 -0.019756,0.09878 -0.036689,0.186266 -0.014111,0.08467 -0.0254,0.146756 -0.011289,0.06209 -0.014111,0.07902 -0.022578,-0.0028 -0.047978,-0.0028 -0.0254,0 -0.056444,0 -0.031044,0 -0.062089,0 -0.028222,0 -0.0508,0.0028 0.019756,-0.05644 0.045155,-0.163689 0.028222,-0.110066 0.056444,-0.239889 0.028222,-0.129822 0.056444,-0.26811 0.031045,-0.141111 0.056444,-0.268111 0.0254,-0.127 0.042333,-0.2286 0.019756,-0.104422 0.028222,-0.160867 0.042333,0.01129 0.1016,0.01129 0.0254,0 0.053622,-0.0028 0.028222,-0.0028 0.053622,-0.0085 l -0.053622,0.208845 z" />
    </g>
  </g>
  <g
     sodipodi:insensitive="true"
     inkscape:groupmode="layer"
     id="layer2"
     inkscape:label="components"
     style="display:none">
    <circle
       style="display:inline;fill:#f2f2f2;stroke:#00ff00;stroke-width:0.264583;stroke-opacity:1"
       id="path15"
       cx="7.6200004"
       cy="10.160001"
       r="2.6458333"
       inkscape:label="signal" />
    <circle
       inkscape:label="out1"
       r="2.6458333"
       cy="10.160001"
       cx="22.860001"
       id="path15-4-6-5"
       style="display:inline;fill:#f2f2f2;stroke:#0000ff;stroke-width:0.264583;stroke-opacity:1" />
    <circle
       inkscape:label="out2"
       r="2.6458333"
       cy="25.400002"
       cx="22.860001"
       id="path17-0-5-4"
       style="display:inline;fill:#f2f2f2;stroke:#0000ff;stroke-width:0.264583;stroke-opacity:1" />
    <circle
       inkscape:label="out3"
       r="2.6458333"
       cy="40.640003"
       cx="22.860001"
       id="path34-0-3-2"
       style="display:inline;fill:#f2f2f2;stroke:#0000ff;stroke-width:0.264583;stroke-opacity:1" />
    <circle
       style="display:inline;fill:#f2f2f2;stroke:#0000ff;stroke-width:0.264583;stroke-opacity:1"
       id="path15-0-9-0-1"
       cx="22.860001"
       cy="55.880001"
       r="2.6458333"
       inkscape:label="out4" />
    <circle
       style="display:inline;fill:#f2f2f2;stroke:#0000ff;stroke-width:0.264583;stroke-opacity:1"
       id="path17-5-37-4-9"
       cx="22.860001"
       cy="71.120003"
       r="2.6458333"
       inkscape:label="out5" />
    <circle
       style="display:inline;fill:#f2f2f2;stroke:#0000ff;stroke-width:0.264583;stroke-opacity:1"
       id="path34-6-5-8-2"
       cx="22.860001"
       cy="86.360001"
       r="2.6458333"
       inkscape:label="out6" />
    <circle
       inkscape:label="out7"
       r="2.6458333"
       cy="101.60001"
       cx="22.860001"
       id="path17-5-3-7-5-4"
       style="display:inline;fill:#f2f2f2;stroke:#0000ff;stroke-width:0.264583;stroke-opacity:1" />
    <circle
       inkscape:label="out8"
       r="2.6458333"
       cy="116.84"
       cx="22.860001"
       id="path34-6-8-2-5-5"
       style="display:inline;fill:#f2f2f2;stroke:#0000ff;stroke-width:0.264583;stroke-opacity:1" />
  </g>
</svg>
