<?xml version="1.0" encoding="UTF-8" standalone="no"?>
<svg
   xmlns:dc="http://purl.org/dc/elements/1.1/"
   xmlns:cc="http://creativecommons.org/ns#"
   xmlns:rdf="http://www.w3.org/1999/02/22-rdf-syntax-ns#"
   xmlns:svg="http://www.w3.org/2000/svg"
   xmlns="http://www.w3.org/2000/svg"
   xmlns:sodipodi="http://sodipodi.sourceforge.net/DTD/sodipodi-0.dtd"
   xmlns:inkscape="http://www.inkscape.org/namespaces/inkscape"
   width="30.48mm"
   height="128.5mm"
   viewBox="0 0 30.48 128.5"
   version="1.1"
   id="svg1138"
   inkscape:version="1.0beta1 (32d4812, 2019-09-19)"
   sodipodi:docname="ASR.svg">
  <defs
     id="defs1132">
    <filter
       id="filter912"
       inkscape:label="Bump"
       style="color-interpolation-filters:sRGB">
      <feGaussianBlur
         id="feGaussianBlur890"
         result="blur1"
         stdDeviation="0.01"
         in="SourceGraphic" />
      <feColorMatrix
         id="feColorMatrix892"
         result="colormatrix1"
         values="1 0 0 0 0 0 1 0 0 0 0 0 1 0 0 0 0 0 1 0 "
         in="BackgroundImage" />
      <feColorMatrix
         id="feColorMatrix894"
         result="colormatrix2"
         type="luminanceToAlpha"
         in="colormatrix1" />
      <feComposite
         id="feComposite896"
         result="composite1"
         k3="0"
         k2="1"
         operator="arithmetic"
         in2="blur1"
         k1="0"
         k4="0" />
      <feGaussianBlur
         id="feGaussianBlur898"
         result="blur2"
         stdDeviation="0.01"
         in="composite1" />
      <feSpecularLighting
         id="feSpecularLighting902"
         result="lighting"
         specularExponent="15"
         specularConstant="1"
         surfaceScale="5"
         lighting-color="#ffffff">
        <feDistantLight
           id="feDistantLight900"
           elevation="45"
           azimuth="225" />
      </feSpecularLighting>
      <feFlood
         id="feFlood904"
         result="flood"
         flood-opacity="1"
         flood-color="rgb(197,41,41)" />
      <feComposite
         id="feComposite906"
         result="composite2"
         k2="1"
         k3="1"
         operator="arithmetic"
         in2="blur1"
         in="lighting"
         k1="0"
         k4="0" />
      <feBlend
         id="feBlend908"
         result="blend"
         mode="normal"
         in2="SourceGraphic" />
      <feComposite
         id="feComposite910"
         result="composite3"
         operator="in"
         in2="SourceGraphic"
         in="blend" />
    </filter>
    <filter
       style="color-interpolation-filters:sRGB"
       inkscape:label="Bump"
       id="filter2180">
      <feGaussianBlur
         in="SourceGraphic"
         stdDeviation="0.01"
         result="blur1"
         id="feGaussianBlur2158" />
      <feColorMatrix
         in="BackgroundImage"
         values="1 0 0 0 0 0 1 0 0 0 0 0 1 0 0 0 0 0 1 0 "
         result="colormatrix1"
         id="feColorMatrix2160" />
      <feColorMatrix
         in="colormatrix1"
         type="luminanceToAlpha"
         result="colormatrix2"
         id="feColorMatrix2162" />
      <feComposite
         in2="blur1"
         operator="arithmetic"
         k2="1"
         k3="0"
         result="composite1"
         id="feComposite2164"
         k1="0"
         k4="0" />
      <feGaussianBlur
         in="composite1"
         stdDeviation="0.01"
         result="blur2"
         id="feGaussianBlur2166" />
      <feSpecularLighting
         lighting-color="#ffffff"
         surfaceScale="5"
         specularConstant="1"
         specularExponent="15"
         result="lighting"
         id="feSpecularLighting2170">
        <feDistantLight
           azimuth="225"
           elevation="45"
           id="feDistantLight2168" />
      </feSpecularLighting>
      <feFlood
         flood-color="rgb(197,41,41)"
         flood-opacity="1"
         result="flood"
         id="feFlood2172" />
      <feComposite
         in="lighting"
         in2="blur1"
         operator="arithmetic"
         k3="1"
         k2="1"
         result="composite2"
         id="feComposite2174"
         k1="0"
         k4="0" />
      <feBlend
         in2="SourceGraphic"
         mode="normal"
         result="blend"
         id="feBlend2176" />
      <feComposite
         in="blend"
         in2="SourceGraphic"
         operator="in"
         result="composite3"
         id="feComposite2178" />
    </filter>
  </defs>
  <sodipodi:namedview
     inkscape:snap-bbox-midpoints="true"
     inkscape:snap-bbox="true"
     id="base"
     pagecolor="#ffffff"
     bordercolor="#666666"
     borderopacity="1.0"
     inkscape:pageopacity="0.0"
     inkscape:pageshadow="2"
     inkscape:zoom="1.7789883"
     inkscape:cx="-50.60757"
     inkscape:cy="242.83465"
     inkscape:document-units="mm"
     inkscape:current-layer="layer4"
     inkscape:document-rotation="0"
     showgrid="true"
     inkscape:snap-object-midpoints="true"
     inkscape:window-width="1920"
     inkscape:window-height="989"
     inkscape:window-x="1440"
     inkscape:window-y="23"
     inkscape:window-maximized="0">
    <inkscape:grid
       type="xygrid"
       id="grid1738"
       units="mm"
       spacingx="2.5400001"
       spacingy="2.5400001" />
  </sodipodi:namedview>
  <metadata
     id="metadata1135">
    <rdf:RDF>
      <cc:Work
         rdf:about="">
        <dc:format>image/svg+xml</dc:format>
        <dc:type
           rdf:resource="http://purl.org/dc/dcmitype/StillImage" />
        <dc:title />
      </cc:Work>
    </rdf:RDF>
  </metadata>
  <g
     inkscape:label="Background"
     inkscape:groupmode="layer"
     id="layer1"
     sodipodi:insensitive="true">
    <rect
       style="display:inline;fill:#000000;fill-opacity:1;stroke:none;stroke-width:0.122863"
       id="rect10"
       width="30.48"
       height="128.5"
       x="0"
       y="0" />
  </g>
  <g
     inkscape:groupmode="layer"
     id="layer3"
     inkscape:label="boxes"
     sodipodi:insensitive="true">
    <rect
       y="5.0800104"
       x="17.780001"
       height="10.160001"
       width="10.160001"
       id="rect1740-1"
       style="display:inline;fill:#e9e9e9;fill-opacity:0.501961;stroke:none;stroke-width:0.508799;stroke-miterlimit:4;stroke-dasharray:0.508799, 1.0176;stroke-dashoffset:0;stroke-opacity:1" />
    <rect
       y="20.320187"
       x="17.780001"
       height="10.159822"
       width="10.159822"
       id="rect1740-1-5"
       style="display:inline;fill:#e9e9e9;fill-opacity:0.501961;stroke:none;stroke-width:0.508791;stroke-miterlimit:4;stroke-dasharray:0.508791, 1.01758;stroke-dashoffset:0;stroke-opacity:1" />
    <rect
       y="35.560013"
       x="17.780001"
       height="10.159998"
       width="10.159998"
       id="rect1740-1-9"
       style="display:inline;fill:#e9e9e9;fill-opacity:0.501961;stroke:none;stroke-width:0.508799;stroke-miterlimit:4;stroke-dasharray:0.508799, 1.0176;stroke-dashoffset:0;stroke-opacity:1" />
    <rect
       y="50.800014"
       x="17.780003"
       height="10.159998"
       width="10.159998"
       id="rect1740-1-7"
       style="display:inline;fill:#e9e9e9;fill-opacity:0.501961;stroke:none;stroke-width:0.508799;stroke-miterlimit:4;stroke-dasharray:0.508799, 1.0176;stroke-dashoffset:0;stroke-opacity:1" />
    <rect
       y="66.040016"
       x="17.780001"
       height="10.159998"
       width="10.159998"
       id="rect1740-1-53"
       style="display:inline;fill:#e9e9e9;fill-opacity:0.501961;stroke:none;stroke-width:0.508799;stroke-miterlimit:4;stroke-dasharray:0.508799, 1.0176;stroke-dashoffset:0;stroke-opacity:1" />
    <rect
       y="81.280014"
       x="17.780001"
       height="10.160002"
       width="10.160002"
       id="rect1740-1-90"
       style="display:inline;fill:#e9e9e9;fill-opacity:0.501961;stroke:none;stroke-width:0.508799;stroke-miterlimit:4;stroke-dasharray:0.508799, 1.0176;stroke-dashoffset:0;stroke-opacity:1" />
    <rect
       y="96.52002"
       x="17.780003"
       height="10.159997"
       width="10.159997"
       id="rect1740-1-55"
       style="display:inline;fill:#e9e9e9;fill-opacity:0.501961;stroke:none;stroke-width:0.508799;stroke-miterlimit:4;stroke-dasharray:0.508799, 1.0176;stroke-dashoffset:0;stroke-opacity:1" />
    <rect
       y="111.76001"
       x="17.780001"
       height="10.159997"
       width="10.159997"
       id="rect1740-1-6"
       style="display:inline;fill:#e9e9e9;fill-opacity:0.501961;stroke:none;stroke-width:0.508799;stroke-miterlimit:4;stroke-dasharray:0.508799, 1.0176;stroke-dashoffset:0;stroke-opacity:1" />
  </g>
  <g
     sodipodi:insensitive="true"
     inkscape:groupmode="layer"
     id="layer4"
     inkscape:label="text"
     style="display:inline;opacity:1">
    <text
       xml:space="preserve"
       style="font-size:6.35px;line-height:1.25;font-family:Futura;-inkscape-font-specification:Futura;stroke-width:0.264583"
       x="7.9375"
       y="19.84375"
       id="text1987"><tspan
         sodipodi:role="line"
         id="tspan1985"
         x="7.9375"
         y="19.84375"
         style="stroke-width:0.264583" /></text>
    <g
       id="g2200"
       transform="translate(-4.6246603)"
       style="display:inline;opacity:1">
      <g
         id="g971"
         transform="matrix(0.13229166,0,0,0.13229166,-10.822541,109.90112)">
        <g
           style="opacity:1;fill:#e9e9e9;fill-opacity:1;filter:url(#filter912);stop-opacity:1"
           transform="matrix(0.38004571,0,0,0.38004571,177.21513,100.89119)"
           fill="#e9e9e9"
           stroke="none"
           id="b1560e19-ee0a-4c5c-a1e3-872fa4d571f9"
           data-v-fde0c5aa="">
          <path
             style="fill:#e9e9e9;fill-opacity:1"
             inkscape:connector-curvature="0"
             id="path844"
             d="M 15.88,75.262 14.006,73.346 35.661,52.171 v -3.915 l 8.825,-8.822 V 27.077 l 3.479,-5.144 V 3.223 h 2.68 v 19.531 l -3.479,5.144 v 12.646 l -8.825,8.823 v 3.931 z" />
          <path
             style="fill:#e9e9e9;fill-opacity:1"
             inkscape:connector-curvature="0"
             id="path846"
             d="m 42.998,72.05 h -2.68 V 49.8 l 6.842,-8.212 h 6.881 L 65.068,28.841 h 10.416 v 2.68 H 66.293 L 55.266,44.268 h -6.851 l -5.417,6.502 z" />
          <path
             style="fill:#e9e9e9;fill-opacity:1"
             inkscape:connector-curvature="0"
             id="path848"
             d="M 59.14,90.004 53.313,84.698 V 71.493 L 45.221,64.634 V 49.942 l 4.004,-3.695 h 10.262 l 3.039,-3.039 1.895,1.895 -3.824,3.824 H 50.271 L 47.9,51.115 v 12.277 l 8.093,6.859 v 13.264 l 4.951,4.508 z M 28.026,51.507 26.194,49.551 41.21,35.488 V 7.773 h 2.68 V 36.65 Z M 41.658,72.05 a 4.2740001,4.2740001 0 1 0 0.002,8.548 4.2740001,4.2740001 0 0 0 -0.002,-8.548 z m -12.62,3.491 a 4.278,4.278 0 0 0 -4.276,4.278 4.272,4.272 0 0 0 4.276,4.272 4.27,4.27 0 0 0 4.271,-4.272 4.277,4.277 0 0 0 -4.271,-4.278 z" />
          <circle
             style="fill:#e9e9e9;fill-opacity:1"
             id="circle850"
             r="2.138"
             cy="79.819"
             cx="29.038" />
          <path
             style="fill:#e9e9e9;fill-opacity:1"
             inkscape:connector-curvature="0"
             id="path852"
             d="m 41.658,88.231 a 4.271,4.271 0 0 0 -4.272,4.27 4.274,4.274 0 1 0 4.272,-4.27 z" />
          <path
             style="fill:#e9e9e9;fill-opacity:1"
             inkscape:connector-curvature="0"
             id="path854"
             d="m 41.658,90.366 a 2.137,2.137 0 1 0 0,4.274 2.136,2.136 0 0 0 2.139,-2.139 2.135,2.135 0 0 0 -2.139,-2.135 z M 11.76,73.409 Z m 0,2.132 a 2.1395,2.1395 0 0 0 0,4.279 2.14,2.14 0 0 0 0,-4.279 z M 66.721,38.318 a 4.272,4.272 0 0 0 -4.27,4.276 4.27,4.27 0 0 0 4.27,4.271 4.271,4.271 0 0 0 4.276,-4.271 4.272,4.272 0 0 0 -4.276,-4.276 z" />
          <path
             style="fill:#e9e9e9;fill-opacity:1"
             inkscape:connector-curvature="0"
             id="path856"
             d="m 66.721,40.455 a 2.139,2.139 0 0 0 0,4.276 c 1.183,0 2.14,-0.963 2.14,-2.137 a 2.14,2.14 0 0 0 -2.14,-2.139 z M 78.856,25.912 a 4.27,4.27 0 0 0 -4.275,4.27 4.273,4.273 0 0 0 4.275,4.278 4.272,4.272 0 0 0 4.274,-4.278 4.267,4.267 0 0 0 -4.274,-4.27 z" />
          <path
             style="fill:#e9e9e9;fill-opacity:1"
             inkscape:connector-curvature="0"
             id="path858"
             d="m 78.856,28.046 a 2.135,2.135 0 0 0 -2.139,2.135 c 0,1.185 0.956,2.137 2.139,2.137 a 2.133,2.133 0 0 0 2.135,-2.137 2.134,2.134 0 0 0 -2.135,-2.135 z M 53.903,51.115 a 4.275,4.275 0 1 0 0,8.55 4.273,4.273 0 0 0 4.27,-4.276 4.274,4.274 0 0 0 -4.27,-4.274 z" />
          <path
             style="fill:#e9e9e9;fill-opacity:1"
             inkscape:connector-curvature="0"
             id="path860"
             d="m 53.903,53.252 a 2.14,2.14 0 1 0 0,4.277 2.136,2.136 0 0 0 2.133,-2.139 2.137,2.137 0 0 0 -2.133,-2.138 z m 11.745,3.477 H 58.173 V 54.05 h 6.313 l 28.098,-30.019 1.957,1.831 z M 24.968,48.798 A 4.275,4.275 0 0 0 20.69,53.07 4.28,4.28 0 0 0 24.968,57.346 4.277,4.277 0 0 0 29.24,53.07 4.272,4.272 0 0 0 24.968,48.798 Z M 62.11,87.126 a 4.2740001,4.2740001 0 1 0 0.002,8.548 4.2740001,4.2740001 0 0 0 -0.002,-8.548 z" />
        </g>
      </g>
      <g
         style="font-size:3.52777px;line-height:1.25;font-family:Futura;-inkscape-font-specification:Futura;stroke-width:0.264583;filter:url(#filter2180)"
         id="text2143"
         aria-label="Stalys">
        <path
           id="path2145"
           style="font-style:italic;font-variant:normal;font-weight:normal;font-stretch:normal;font-family:Optima;-inkscape-font-specification:'Optima Italic';fill:#e9e9e9;fill-opacity:1;stroke-width:0.264583"
           d="m 19.395719,124.86158 q -0.04233,-0.11642 -0.148166,-0.18344 -0.105833,-0.067 -0.246944,-0.067 -0.109361,0 -0.204611,0.0423 -0.09172,0.0423 -0.162277,0.11289 -0.06703,0.067 -0.105833,0.15875 -0.03528,0.0917 -0.03528,0.1905 0,0.0953 0.02822,0.16228 0.02822,0.067 0.08114,0.11994 0.05292,0.0529 0.123472,0.0988 0.07056,0.0459 0.155222,0.0953 0.08114,0.0494 0.155222,0.0988 0.07408,0.0459 0.130527,0.10936 0.05645,0.06 0.08819,0.14464 0.03528,0.0811 0.03528,0.20108 0,0.14111 -0.0635,0.28928 -0.0635,0.14816 -0.186971,0.27163 -0.119945,0.11995 -0.299861,0.19403 -0.179916,0.0741 -0.416277,0.0741 -0.134055,0 -0.264582,-0.0282 -0.127,-0.0247 -0.239889,-0.0917 0.03528,-0.067 0.0635,-0.13405 0.03175,-0.0706 0.05292,-0.13759 h 0.02469 q 0.0388,0.0741 0.09878,0.12347 0.0635,0.0494 0.130527,0.0811 0.07055,0.0282 0.141111,0.0423 0.07055,0.0106 0.123472,0.0106 0.137583,0 0.243416,-0.0529 0.109361,-0.0564 0.179916,-0.14111 0.07056,-0.0847 0.105833,-0.18697 0.03881,-0.1023 0.03881,-0.19403 0,-0.0953 -0.03175,-0.16227 -0.02822,-0.0706 -0.07761,-0.12348 -0.04939,-0.0529 -0.119944,-0.0988 -0.06703,-0.0459 -0.141111,-0.0953 -0.08114,-0.0494 -0.15875,-0.0988 -0.07408,-0.0529 -0.134055,-0.11642 -0.05644,-0.067 -0.09172,-0.15169 -0.03528,-0.0882 -0.03528,-0.20814 0,-0.15169 0.0635,-0.28222 0.0635,-0.13406 0.176389,-0.22931 0.116416,-0.0988 0.271638,-0.15522 0.15875,-0.0564 0.345721,-0.0564 0.172861,0 0.282222,0.0388 0.109361,0.0388 0.169333,0.067 -0.04586,0.0811 -0.07056,0.13406 -0.02117,0.0494 -0.04939,0.13405 h -0.0247 z"
           inkscape:connector-curvature="0" />
        <path
           id="path2147"
           style="font-style:italic;font-variant:normal;font-weight:normal;font-stretch:normal;font-family:Optima;-inkscape-font-specification:'Optima Italic';fill:#e9e9e9;fill-opacity:1;stroke-width:0.264583"
           d="m 20.376439,124.82278 q -0.03528,0.12347 -0.0635,0.24341 -0.0247,0.11995 -0.05292,0.24342 0.08114,0 0.176389,-0.004 0.09878,-0.007 0.190499,-0.0106 -0.02117,0.0741 -0.02117,0.14464 -0.09172,-0.004 -0.194027,-0.007 -0.09878,-0.007 -0.179916,-0.007 l -0.137583,0.66322 q -0.01058,0.0564 -0.0247,0.127 -0.01411,0.067 -0.02822,0.13406 -0.01058,0.067 -0.02117,0.13053 -0.0071,0.06 -0.0071,0.1023 0,0.0706 0.02469,0.11995 0.02469,0.0494 0.05997,0.0811 0.0388,0.0282 0.08114,0.0423 0.04586,0.0141 0.08467,0.0141 0.05997,0 0.119944,-0.0176 0.05997,-0.0212 0.112889,-0.0529 l -0.0071,0.0917 q -0.07055,0.0564 -0.172861,0.0776 -0.09878,0.0212 -0.186971,0.0212 -0.06703,0 -0.137583,-0.0212 -0.06703,-0.0176 -0.119945,-0.0564 -0.05292,-0.0388 -0.08819,-0.0988 -0.03175,-0.0635 -0.03175,-0.14464 0,-0.0706 0.01411,-0.14817 0.01764,-0.0776 0.03528,-0.1658 0.0388,-0.17992 0.0635,-0.29281 0.02469,-0.11289 0.04233,-0.20108 0.02117,-0.0917 0.0388,-0.17992 0.01764,-0.0917 0.04586,-0.22578 -0.04939,0 -0.112889,0.004 -0.05997,0 -0.119944,0.004 0.01058,-0.0282 0.01411,-0.0564 0.0071,-0.0282 0.0071,-0.0811 0.05644,0.004 0.116417,0.0106 0.0635,0.004 0.109361,0.004 l 0.0635,-0.37395 0.306916,-0.11288 z"
           inkscape:connector-curvature="0" />
        <path
           id="path2149"
           style="font-style:italic;font-variant:normal;font-weight:normal;font-stretch:normal;font-family:Optima;-inkscape-font-specification:'Optima Italic';fill:#e9e9e9;fill-opacity:1;stroke-width:0.264583"
           d="m 20.933386,126.54786 q 0,0.13052 0.08114,0.20108 0.08467,0.067 0.194027,0.067 0.148167,0 0.264583,-0.0811 0.116416,-0.0811 0.197555,-0.19756 0.02117,-0.12347 0.04586,-0.24341 0.0247,-0.12348 0.05997,-0.24695 -0.08114,0.0176 -0.158749,0.0318 -0.07761,0.0141 -0.15875,0.0318 -0.08819,0.0212 -0.183444,0.0529 -0.09172,0.0282 -0.169333,0.0811 -0.07408,0.0494 -0.123472,0.12347 -0.04939,0.0741 -0.04939,0.17992 z m 0.105833,-1.12889 q 0.134056,-0.0917 0.271639,-0.13758 0.14111,-0.0494 0.29986,-0.0494 0.22225,0 0.352777,0.10936 0.134055,0.10936 0.134055,0.28222 0,0.0741 -0.01764,0.15169 -0.01411,0.0776 -0.02469,0.12348 l -0.102305,0.43038 q -0.02822,0.11289 -0.03881,0.18698 -0.01058,0.0741 -0.01058,0.12699 0,0.0635 0.03175,0.11289 0.03528,0.0459 0.105833,0.0459 0.03175,0 0.05292,-0.007 0.02469,-0.0106 0.04233,-0.0247 l 0.01764,0.0741 q -0.05997,0.0388 -0.123472,0.06 -0.0635,0.0212 -0.137583,0.0212 -0.109361,0 -0.169333,-0.0564 -0.05645,-0.06 -0.0635,-0.16933 -0.105833,0.11289 -0.243416,0.1905 -0.134056,0.0741 -0.306916,0.0741 -0.07761,0 -0.155222,-0.0212 -0.07761,-0.0212 -0.141111,-0.067 -0.05997,-0.0494 -0.09878,-0.11995 -0.0388,-0.0741 -0.0388,-0.1658 0,-0.16933 0.08819,-0.27517 0.08819,-0.10583 0.211666,-0.1658 0.123472,-0.0635 0.254,-0.0917 0.130527,-0.0318 0.211666,-0.0494 0.07055,-0.0141 0.151694,-0.0247 0.08114,-0.0141 0.130528,-0.0353 0.07408,-0.0318 0.09172,-0.10936 0.02117,-0.0776 0.02117,-0.15169 0,-0.15875 -0.102305,-0.23283 -0.102305,-0.0776 -0.250472,-0.0776 -0.148166,0 -0.253999,0.067 -0.102305,0.0635 -0.197555,0.16581 h -0.04233 z"
           inkscape:connector-curvature="0" />
        <path
           id="path2151"
           style="font-style:italic;font-variant:normal;font-weight:normal;font-stretch:normal;font-family:Optima;-inkscape-font-specification:'Optima Italic';fill:#e9e9e9;fill-opacity:1;stroke-width:0.264583"
           d="m 23.30052,124.29714 q -0.01411,0.0459 -0.05644,0.21872 -0.03881,0.16933 -0.09525,0.41275 -0.05292,0.24341 -0.116416,0.53269 -0.0635,0.28575 -0.123472,0.56445 -0.05645,0.27516 -0.102306,0.51858 -0.04586,0.23989 -0.07055,0.381 -0.02822,-0.004 -0.0635,-0.004 -0.03175,0 -0.08114,0 -0.04586,0 -0.08114,0 -0.03175,0 -0.05997,0.004 0.05644,-0.20461 0.112888,-0.4445 0.05997,-0.24342 0.116417,-0.49389 0.05644,-0.25047 0.105833,-0.49742 0.05292,-0.24694 0.09525,-0.46919 0.04233,-0.22225 0.07408,-0.40922 0.03175,-0.18697 0.04939,-0.31397 0.05292,0.0141 0.134056,0.0141 0.0388,0 0.08114,-0.004 0.04233,-0.004 0.08114,-0.0106 z"
           inkscape:connector-curvature="0" />
        <path
           id="path2153"
           style="font-style:italic;font-variant:normal;font-weight:normal;font-stretch:normal;font-family:Optima;-inkscape-font-specification:'Optima Italic';fill:#e9e9e9;fill-opacity:1;stroke-width:0.264583"
           d="m 24.063345,126.60783 q 0.07055,-0.127 0.144638,-0.254 0.07761,-0.13053 0.148167,-0.26106 0.109361,-0.20108 0.176388,-0.32455 0.07056,-0.127 0.112889,-0.20461 0.04233,-0.0811 0.0635,-0.127 0.02117,-0.0459 0.0388,-0.0882 l 0.03528,-0.0847 q 0.05292,0.0141 0.123472,0.0141 0.07055,0 0.112889,-0.0141 -0.194028,0.30691 -0.395111,0.63147 -0.201083,0.32455 -0.39511,0.65616 -0.194027,0.33161 -0.377471,0.65617 -0.179917,0.32455 -0.331611,0.635 -0.0388,-0.0141 -0.112888,-0.0141 -0.07056,0 -0.109361,0.0141 0.148166,-0.23284 0.296332,-0.4692 0.148167,-0.23636 0.282222,-0.45155 -0.105833,-0.43392 -0.211666,-0.83256 -0.102305,-0.40216 -0.215194,-0.82549 0.03175,0.007 0.07055,0.0106 0.03881,0.004 0.07761,0.004 0.08467,0 0.137583,-0.0141 0.04233,0.24341 0.119944,0.58561 0.07761,0.34219 0.1905,0.75847 h 0.01764 z"
           inkscape:connector-curvature="0" />
        <path
           id="path2155"
           style="font-style:italic;font-variant:normal;font-weight:normal;font-stretch:normal;font-family:Optima;-inkscape-font-specification:'Optima Italic';fill:#e9e9e9;fill-opacity:1;stroke-width:0.264583"
           d="m 26.088285,125.54597 q -0.02822,-0.0988 -0.109361,-0.1517 -0.07761,-0.0564 -0.179916,-0.0564 -0.07761,0 -0.141111,0.0318 -0.05997,0.0282 -0.105833,0.0776 -0.04233,0.0459 -0.06703,0.10583 -0.02117,0.06 -0.02117,0.11995 0,0.0635 0.02469,0.11289 0.02469,0.0459 0.06703,0.0811 0.04233,0.0353 0.09525,0.0635 0.05645,0.0282 0.116417,0.0529 0.05644,0.0247 0.112888,0.0564 0.05645,0.0282 0.102306,0.0705 0.04586,0.0423 0.07408,0.10231 0.02822,0.06 0.02822,0.14464 0,0.12347 -0.05644,0.23636 -0.05645,0.10936 -0.155222,0.19402 -0.09525,0.0847 -0.229305,0.13053 -0.130528,0.0459 -0.285749,0.0459 -0.109361,0 -0.201083,-0.0212 -0.08819,-0.0212 -0.179917,-0.0706 0.03881,-0.0635 0.06703,-0.13053 0.02822,-0.067 0.04586,-0.10583 h 0.02469 q 0.03881,0.10583 0.134056,0.15875 0.09878,0.0529 0.215194,0.0529 0.102305,0 0.17286,-0.0353 0.07408,-0.0353 0.119945,-0.0882 0.04586,-0.0529 0.06703,-0.11641 0.02469,-0.067 0.02469,-0.12347 0,-0.11289 -0.07056,-0.16934 -0.07055,-0.0564 -0.211666,-0.11994 -0.05644,-0.0247 -0.116416,-0.0564 -0.05645,-0.0318 -0.102306,-0.0776 -0.04586,-0.0459 -0.07408,-0.10936 -0.02822,-0.067 -0.02822,-0.16228 0,-0.0917 0.03528,-0.1905 0.03528,-0.0988 0.10936,-0.18344 0.07761,-0.0847 0.201083,-0.13758 0.123472,-0.0564 0.299861,-0.0564 0.09525,0 0.165805,0.0176 0.07055,0.0141 0.155222,0.0529 -0.05292,0.11994 -0.07056,0.16933 -0.01411,0.0494 -0.02117,0.0847 h -0.03175 z"
           inkscape:connector-curvature="0" />
      </g>
    </g>
    <g
       aria-label="8-bit Shift Register"
       id="text4439"
       style="font-size:3.52777px;line-height:1.25;font-family:Futura;-inkscape-font-specification:Futura;fill:#e9e9e9;fill-opacity:1;stroke-width:0.264583"
       transform="translate(0,1.2442418)">
      <path
         d="m 1.8984042,2.0319996 q 0,0.084667 0.021167,0.1693335 0.024694,0.081139 0.074083,0.144639 0.049389,0.0635 0.1234723,0.1023056 0.077611,0.038806 0.1869723,0.038806 0.1481668,0 0.257528,-0.070556 0.1128889,-0.074083 0.1834445,-0.1834446 0.074083,-0.112889 0.1093612,-0.2434168 0.035278,-0.1340557 0.035278,-0.2540002 0,-0.1164167 -0.03175,-0.1975557 Q 2.8262105,1.4534434 2.7697655,1.400527 2.7168485,1.344082 2.6427654,1.319388 2.5686824,1.291166 2.4875431,1.291166 q -0.1516946,0 -0.2645835,0.074083 Q 2.110071,1.4393326 2.0395154,1.5522215 1.9689598,1.6615827 1.933682,1.7921106 1.8984042,1.9191107 1.8984042,2.0319996 Z M 2.2370711,0.84313775 q 0,0.16227785 0.077611,0.25752795 0.077611,0.09525 0.2469447,0.09525 0.1023056,0 0.1869723,-0.045861 0.084667,-0.045861 0.1411112,-0.1234723 0.059972,-0.0776111 0.091722,-0.17638898 0.03175,-0.0987779 0.03175,-0.20461125 0,-0.14816676 -0.081139,-0.25047238 -0.077611,-0.10230562 -0.2363613,-0.10230562 -0.088195,0 -0.1728612,0.0388056 -0.081139,0.0388056 -0.144639,0.11288896 -0.0635,0.0705556 -0.1023056,0.17286122 -0.038806,0.10230562 -0.038805,0.2257778 z m 0.945445,0.90663945 q 0,0.1481668 -0.059972,0.2998613 -0.056445,0.1481668 -0.1728612,0.2681113 -0.112889,0.1199445 -0.2786947,0.1940279 -0.1658056,0.070556 -0.3810002,0.070556 -0.1234723,0 -0.2469446,-0.028222 Q 1.9230987,2.5294166 1.8278486,2.4623888 1.7325985,2.3918332 1.6726263,2.282472 1.6161818,2.1695831 1.6161818,2.010833 q 0,-0.1481668 0.045861,-0.2751669 Q 1.7114319,1.6051382 1.7960986,1.5063604 1.8842931,1.4040548 2.0077654,1.337027 2.1347655,1.2664714 2.2899878,1.2382491 V 1.2206102 Q 2.2300155,1.2029713 2.173571,1.1712213 2.1171266,1.1359435 2.0712654,1.0830268 2.0254043,1.0301101 1.997182,0.96308228 1.9724876,0.89252668 1.9724876,0.80785995 q 0,-0.10230562 0.038806,-0.2116668 0.042333,-0.10936118 0.1305278,-0.20108346 0.088194,-0.0917223 0.2293057,-0.14816676 0.144639,-0.0599723 0.3492503,-0.0599723 0.1799167,0 0.2892779,0.0529167 0.112889,0.0493889 0.1728612,0.1234723 0.0635,0.0705556 0.081139,0.15169454 0.021167,0.0776112 0.021167,0.13758342 0,0.11994452 -0.042333,0.21519459 -0.038806,0.0952501 -0.1093612,0.16580572 -0.070556,0.070556 -0.1622779,0.1199445 -0.091722,0.049389 -0.1975556,0.077611 v 0.017639 q 0.1940279,0.049389 0.2998613,0.1869723 0.1093611,0.1340556 0.1093611,0.3139724 z"
         style="font-style:italic;font-variant:normal;font-weight:normal;font-stretch:normal;font-size:3.52778px;font-family:Optima;-inkscape-font-specification:'Optima Italic';fill:#e9e9e9;fill-opacity:1;stroke-width:0.264583"
         id="path4441"
         inkscape:connector-curvature="0" />
      <path
         d="M 4.3171935,1.6827494 H 3.5446097 l 0.045861,-0.208139 h 0.7725838 z"
         style="font-style:italic;font-variant:normal;font-weight:normal;font-stretch:normal;font-size:3.52778px;font-family:Optima;-inkscape-font-specification:'Optima Italic';fill:#e9e9e9;fill-opacity:1;stroke-width:0.264583"
         id="path4443"
         inkscape:connector-curvature="0" />
      <path
         d="m 6.0771148,1.5098882 q 0,-0.1587501 -0.049389,-0.2540002 Q 5.978337,1.160638 5.9077814,1.111249 5.8407536,1.0583323 5.7631424,1.0406934 5.689059,1.0230545 5.6361423,1.0230545 q -0.1023056,0 -0.1869723,0.03175 -0.081139,0.03175 -0.1481668,0.081139 -0.0635,0.049389 -0.112889,0.1164167 -0.045861,0.0635 -0.077611,0.1340557 -0.035278,0.077611 -0.067028,0.1693334 -0.03175,0.091722 -0.056444,0.1905001 -0.021167,0.09525 -0.035278,0.1905002 -0.014111,0.09525 -0.014111,0.1799168 0,0.098778 0.038805,0.1693334 0.038806,0.070556 0.098778,0.1164167 0.059972,0.045861 0.1340556,0.067028 0.074083,0.021167 0.1411112,0.021167 0.1340557,0 0.2398891,-0.052917 Q 5.6996423,2.3847776 5.7772535,2.3036387 5.8583925,2.218972 5.9148369,2.1131386 5.9712814,2.0037774 6.0065592,1.897944 6.0453648,1.7885828 6.0594759,1.6862772 6.0771148,1.5839716 6.0771148,1.5098882 Z M 4.5601694,2.5505833 q 0.028222,-0.088195 0.067028,-0.239889 0.038806,-0.1516946 0.081139,-0.3386669 0.045861,-0.1905002 0.088195,-0.402167 0.045861,-0.2116668 0.088195,-0.4233336 0.045861,-0.21166676 0.084667,-0.40922245 0.042333,-0.20108346 0.074083,-0.36688912 0.03175,-0.16580567 0.052917,-0.28575019 0.024694,-0.11994452 0.03175,-0.16933344 0.056444,0.01411112 0.1411112,0.01411112 0.088195,0 0.144639,-0.01411112 -0.042333,0.1587501 -0.088195,0.33513911 -0.042333,0.176389 -0.084667,0.34572244 -0.038806,0.16933344 -0.074083,0.32455577 -0.035278,0.15169458 -0.059972,0.26811128 l 0.010583,0.00353 q 0.024694,-0.03175 0.070556,-0.084667 Q 5.2375046,1.0548062 5.3151157,1.0018898 5.3927267,0.9489731 5.4985603,0.9101675 5.6079201,0.87136 5.752559,0.87136 q 0.1058335,0 0.2151946,0.0352778 0.1093612,0.03175 0.1940279,0.1093612 0.088195,0.074083 0.1411112,0.1975557 0.056444,0.1199445 0.056444,0.2963335 0,0.1940279 -0.067028,0.3915836 -0.067028,0.1940279 -0.1905001,0.352778 -0.1234723,0.1552223 -0.3033891,0.2504724 -0.1799168,0.091722 -0.4056947,0.091722 -0.098778,0 -0.176389,-0.017639 Q 5.1422531,2.5646944 5.0787531,2.54 5.0187808,2.5117777 4.9658641,2.4694444 4.9164752,2.4235832 4.8670863,2.3671387 4.8035862,2.4094721 4.7577251,2.4518055 4.7153917,2.490611 4.630725,2.5541111 Z"
         style="font-style:italic;font-variant:normal;font-weight:normal;font-stretch:normal;font-size:3.52778px;font-family:Optima;-inkscape-font-specification:'Optima Italic';fill:#e9e9e9;fill-opacity:1;stroke-width:0.264583"
         id="path4445"
         inkscape:connector-curvature="0" />
      <path
         d="m 7.0444981,0.32455409 q 0,-0.0705556 0.049389,-0.11994453 0.049389,-0.0493889 0.1199445,-0.0493889 0.070556,0 0.1199445,0.0493889 0.049389,0.0493889 0.049389,0.11994453 0,0.0705556 -0.049389,0.11994452 -0.049389,0.0493889 -0.1199445,0.0493889 -0.070556,0 -0.1199445,-0.0493889 -0.049389,-0.0493889 -0.049389,-0.11994452 z M 7.238526,0.88194334 Q 7.2208871,0.93838782 7.189137,1.0583323 7.1609148,1.1747491 7.1221092,1.3264436 7.0868314,1.4781382 7.0480258,1.6509994 7.012748,1.8203328 6.9774702,1.9861385 6.9457202,2.1519442 6.917498,2.3001109 6.8928035,2.4482777 6.8822202,2.5435277 6.8434146,2.54 6.8010812,2.54 q -0.042333,0 -0.081139,0 -0.042333,0 -0.077611,0 -0.03175,0 -0.059972,0.00353 0.038805,-0.1128889 0.081139,-0.2751668 0.042333,-0.1622779 0.081139,-0.3386669 0.038805,-0.176389 0.074083,-0.3492502 0.035278,-0.1728612 0.059972,-0.3175002 0.028222,-0.144639 0.045861,-0.2469446 0.017639,-0.10230564 0.021167,-0.13405566 0.070556,0.0141111 0.1481668,0.0141111 0.088195,0 0.144639,-0.0141111 z"
         style="font-style:italic;font-variant:normal;font-weight:normal;font-stretch:normal;font-size:3.52778px;font-family:Optima;-inkscape-font-specification:'Optima Italic';fill:#e9e9e9;fill-opacity:1;stroke-width:0.264583"
         id="path4447"
         inkscape:connector-curvature="0" />
      <path
         d="m 8.1706868,0.44097083 q -0.035278,0.1234723 -0.0635,0.24341682 -0.024694,0.11994452 -0.052917,0.24341683 0.081139,0 0.176389,-0.003528 0.098778,-0.007056 0.1905001,-0.0105833 -0.021167,0.0740834 -0.021167,0.14463892 -0.091722,-0.00353 -0.1940279,-0.00706 -0.098778,-0.00706 -0.1799168,-0.00706 L 7.8884644,1.7074439 q -0.010583,0.056444 -0.024694,0.1270001 -0.014111,0.067028 -0.028222,0.1340556 -0.010583,0.067028 -0.021167,0.1305279 -0.00706,0.059972 -0.00706,0.1023056 0,0.070556 0.024694,0.1199445 0.024695,0.049389 0.059972,0.081139 0.038806,0.028222 0.081139,0.042333 0.045861,0.014111 0.084667,0.014111 0.059972,0 0.1199446,-0.017639 0.059972,-0.021167 0.1128889,-0.052917 l -0.00706,0.091722 q -0.070556,0.056445 -0.1728613,0.077611 -0.098778,0.021167 -0.1869723,0.021167 -0.067028,0 -0.1375834,-0.021167 Q 7.719131,2.54 7.6662143,2.5011944 q -0.052917,-0.038806 -0.088195,-0.098778 -0.03175,-0.0635 -0.03175,-0.1446389 0,-0.070556 0.014111,-0.1481668 0.017639,-0.077611 0.035278,-0.1658057 0.038805,-0.1799168 0.0635,-0.2928057 0.024694,-0.112889 0.042333,-0.2010835 0.021167,-0.091722 0.038805,-0.1799168 0.017639,-0.091722 0.045861,-0.2257779 -0.049389,0 -0.112889,0.00353 -0.059972,0 -0.1199445,0.00353 0.010583,-0.028222 0.014111,-0.0564445 0.00706,-0.0282222 0.00706,-0.0811389 0.056444,0.003528 0.1164167,0.0105833 0.0635,0.003528 0.1093612,0.003528 l 0.0635,-0.37394469 0.3069169,-0.11288896 z"
         style="font-style:italic;font-variant:normal;font-weight:normal;font-stretch:normal;font-size:3.52778px;font-family:Optima;-inkscape-font-specification:'Optima Italic';fill:#e9e9e9;fill-opacity:1;stroke-width:0.264583"
         id="path4449"
         inkscape:connector-curvature="0" />
      <path
         d="m 10.979572,0.47977641 q -0.04233,-0.11641674 -0.148167,-0.18344456 -0.105833,-0.0670278 -0.246945,-0.0670278 -0.109361,0 -0.204611,0.0423334 -0.09172,0.0423334 -0.162278,0.11288896 -0.06703,0.0670278 -0.105833,0.1587501 -0.03528,0.0917223 -0.03528,0.19050012 0,0.0952501 0.02822,0.16227789 0.02822,0.0670278 0.08114,0.11994458 0.05292,0.052917 0.123473,0.098778 0.07056,0.045861 0.155222,0.09525 0.08114,0.049389 0.155222,0.098778 0.07408,0.045861 0.130528,0.1093612 0.05644,0.059972 0.0882,0.144639 0.03528,0.081139 0.03528,0.2010834 0,0.1411113 -0.0635,0.289278 -0.0635,0.1481668 -0.186972,0.2716391 -0.119945,0.1199445 -0.299861,0.1940279 -0.179917,0.074083 -0.4162784,0.074083 -0.1340557,0 -0.2645835,-0.028222 Q 9.515543,2.54 9.402654,2.4729721 9.437932,2.4059441 9.466154,2.3389165 9.497904,2.2683605 9.519071,2.2013331 h 0.024694 q 0.038806,0.074083 0.098778,0.1234723 0.0635,0.049389 0.1305278,0.081139 0.070556,0.028222 0.1411112,0.042333 0.070556,0.010583 0.123472,0.010583 0.137584,0 0.243417,-0.052917 0.109361,-0.056445 0.179917,-0.1411112 0.07056,-0.084667 0.105833,-0.1869723 0.03881,-0.1023056 0.03881,-0.1940279 0,-0.09525 -0.03175,-0.1622779 -0.02822,-0.070556 -0.07761,-0.1234723 -0.04939,-0.052917 -0.119945,-0.098778 -0.06703,-0.045861 -0.141111,-0.09525 -0.08114,-0.049389 -0.15875,-0.098778 -0.07408,-0.052917 -0.1340557,-0.1164167 -0.056444,-0.067028 -0.091722,-0.1516945 -0.035278,-0.0881945 -0.035278,-0.20813907 0,-0.15169454 0.0635,-0.2822224 0.0635,-0.13405564 0.1763887,-0.2293057 0.116417,-0.0987778 0.271639,-0.15522233 0.158751,-0.0564445 0.345723,-0.0564445 0.172861,0 0.282222,0.0388056 0.109361,0.0388056 0.169334,0.0670278 -0.04586,0.081139 -0.07056,0.13405565 -0.02117,0.0493889 -0.04939,0.13405564 h -0.02469 z"
         style="font-style:italic;font-variant:normal;font-weight:normal;font-stretch:normal;font-size:3.52778px;font-family:Optima;-inkscape-font-specification:'Optima Italic';fill:#e9e9e9;fill-opacity:1;stroke-width:0.264583"
         id="path4451"
         inkscape:connector-curvature="0" />
      <path
         d="m 11.783906,1.1500546 q 0.07761,-0.09525 0.15875,-0.15169452 0.08467,-0.0564445 0.162278,-0.0881945 0.08114,-0.03175 0.151694,-0.0423334 0.07056,-0.0105833 0.127,-0.0105833 0.134056,0 0.225778,0.0423334 0.09525,0.0423334 0.151695,0.10583332 0.05997,0.059972 0.08467,0.1340557 0.02822,0.070556 0.02822,0.1305278 0,0.028222 -0.0035,0.056445 -0.0035,0.028222 -0.01764,0.088194 -0.01058,0.056445 -0.03175,0.1552223 -0.02117,0.098778 -0.05644,0.2645836 -0.02822,0.1481667 -0.05997,0.2928057 -0.03175,0.144639 -0.05292,0.2822224 -0.0071,0.049389 -0.01058,0.081139 -0.0035,0.028222 -0.0071,0.052917 Q 12.605879,2.54 12.567073,2.54 q -0.03528,0 -0.07408,0 -0.04586,0 -0.08467,0 -0.03528,0 -0.06703,0.00353 0.0071,-0.021167 0.02822,-0.1058334 0.02469,-0.084667 0.05292,-0.2010834 0.02822,-0.1164168 0.05997,-0.2504724 0.03175,-0.1340556 0.05645,-0.257528 0.02822,-0.127 0.04586,-0.2293057 0.01764,-0.1058334 0.01764,-0.1587501 0,-0.0635 -0.02117,-0.1199445 -0.02117,-0.056445 -0.0635,-0.1023056 -0.04233,-0.045861 -0.109361,-0.070556 -0.0635,-0.028222 -0.151695,-0.028222 -0.0388,0 -0.112889,0.014111 -0.07408,0.010583 -0.15875,0.059972 -0.08114,0.045861 -0.15875,0.1411112 -0.07408,0.09525 -0.116417,0.2610558 -0.01764,0.070556 -0.04586,0.2010834 -0.02822,0.1305279 -0.05997,0.2822224 -0.02822,0.1481668 -0.05644,0.3033891 -0.02469,0.1516946 -0.03881,0.2610557 Q 11.480517,2.54 11.445239,2.54 q -0.03175,0 -0.07056,0 -0.03528,0 -0.07761,0 -0.04233,0 -0.07761,0.00353 0.01411,-0.038806 0.05292,-0.1975556 0.0388,-0.1587501 0.08819,-0.3845281 0.05292,-0.2293057 0.112889,-0.5009447 0.05997,-0.2751669 0.112889,-0.55033372 0.05645,-0.27869463 0.102306,-0.53622257 0.04939,-0.26105573 0.07761,-0.45861141 0.05644,0.01411112 0.141111,0.01411112 0.03528,0 0.07408,-0.0035278 0.04233,-0.0035278 0.07408,-0.01058334 -0.03881,0.15169454 -0.07761,0.30338909 -0.03528,0.14816676 -0.07056,0.30691686 -0.02117,0.0846667 -0.0388,0.16227788 -0.01411,0.0740834 -0.03175,0.14816676 -0.01411,0.0705556 -0.03175,0.14463899 -0.01411,0.0740834 -0.03528,0.16227794 l 0.01411,0.00706 z"
         style="font-style:italic;font-variant:normal;font-weight:normal;font-stretch:normal;font-size:3.52778px;font-family:Optima;-inkscape-font-specification:'Optima Italic';fill:#e9e9e9;fill-opacity:1;stroke-width:0.264583"
         id="path4453"
         inkscape:connector-curvature="0" />
      <path
         d="m 13.645305,0.32455409 q 0,-0.0705556 0.04939,-0.11994453 0.04939,-0.0493889 0.119945,-0.0493889 0.07056,0 0.119944,0.0493889 0.04939,0.0493889 0.04939,0.11994453 0,0.0705556 -0.04939,0.11994452 -0.04939,0.0493889 -0.119944,0.0493889 -0.07056,0 -0.119945,-0.0493889 -0.04939,-0.0493889 -0.04939,-0.11994452 z m 0.194028,0.55738925 q -0.01764,0.0564445 -0.04939,0.17638896 -0.02822,0.1164168 -0.06703,0.2681113 -0.03528,0.1516946 -0.07408,0.3245558 -0.03528,0.1693334 -0.07056,0.3351391 -0.03175,0.1658057 -0.05997,0.3139724 -0.02469,0.1481668 -0.03528,0.2434168 Q 13.444222,2.54 13.401888,2.54 q -0.04233,0 -0.08114,0 -0.04233,0 -0.07761,0 -0.03175,0 -0.05997,0.00353 0.03881,-0.1128889 0.08114,-0.2751668 0.04233,-0.1622779 0.08114,-0.3386669 0.03881,-0.176389 0.07408,-0.3492502 0.03528,-0.1728612 0.05997,-0.3175002 0.02822,-0.144639 0.04586,-0.2469446 0.01764,-0.10230564 0.02117,-0.13405566 0.07056,0.0141111 0.148167,0.0141111 0.0882,0 0.144639,-0.0141111 z"
         style="font-style:italic;font-variant:normal;font-weight:normal;font-stretch:normal;font-size:3.52778px;font-family:Optima;-inkscape-font-specification:'Optima Italic';fill:#e9e9e9;fill-opacity:1;stroke-width:0.264583"
         id="path4455"
         inkscape:connector-curvature="0" />
      <path
         d="m 14.164716,0.9066378 q 0.0635,0.007056 0.127,0.0105833 0.0635,0.003528 0.127,0.003528 0.03881,-0.19050013 0.07761,-0.31750021 0.04233,-0.13052786 0.08467,-0.22577792 0.0388,-0.0881945 0.09525,-0.16933345 0.05997,-0.0846667 0.134056,-0.14816676 0.07761,-0.06350004 0.165805,-0.10230562 0.09172,-0.03880558 0.194028,-0.03880558 0.04233,0 0.07761,0.01058334 0.03881,0.0070556 0.06703,0.0176389 -0.02822,0.0705556 -0.04586,0.13405564 -0.01764,0.06350004 -0.02469,0.11288896 l -0.03175,0.0141111 q -0.03881,-0.0176389 -0.09878,-0.0388056 -0.05645,-0.0211667 -0.130528,-0.0211667 -0.109361,0 -0.169334,0.0493889 -0.05997,0.0458611 -0.08819,0.10936119 -0.02822,0.0635 -0.03528,0.12700008 -0.0071,0.0635 -0.0071,0.0987778 -0.0035,0.10230562 -0.0071,0.1940279 -0.0035,0.0917223 -0.01411,0.19402791 0.05997,0 0.134055,-0.003528 0.07761,-0.003528 0.172862,-0.0105833 L 14.94075,1.0512767 q -0.07408,-0.00353 -0.151694,-0.00706 -0.07408,-0.00706 -0.148167,-0.00706 -0.05997,0.2963335 -0.123472,0.5820837 -0.05997,0.2857502 -0.119945,0.5715003 -0.01764,0.091722 -0.03528,0.1834446 -0.01411,0.088194 -0.0247,0.1693334 Q 14.309355,2.54 14.274077,2.54 q -0.03175,0 -0.07056,0 -0.04233,0 -0.07761,0 -0.03528,0 -0.0635,0.00353 0.04586,-0.1622778 0.09172,-0.3563057 0.04586,-0.1940279 0.08819,-0.3915836 0.04586,-0.2010835 0.08467,-0.3951114 0.03881,-0.1940279 0.07056,-0.3633613 -0.0635,0 -0.127,0.00353 -0.0635,0 -0.127,0.010583 l 0.02117,-0.144639 z"
         style="font-style:italic;font-variant:normal;font-weight:normal;font-stretch:normal;font-size:3.52778px;font-family:Optima;-inkscape-font-specification:'Optima Italic';fill:#e9e9e9;fill-opacity:1;stroke-width:0.264583"
         id="path4457"
         inkscape:connector-curvature="0" />
      <path
         d="m 15.749902,0.44097083 q -0.03528,0.1234723 -0.0635,0.24341682 -0.02469,0.11994452 -0.05292,0.24341683 0.08114,0 0.176389,-0.003528 0.09878,-0.007056 0.1905,-0.0105833 -0.02117,0.0740834 -0.02117,0.14463892 -0.09172,-0.00353 -0.194028,-0.00706 -0.09878,-0.00706 -0.179917,-0.00706 l -0.137584,0.6632227 q -0.01058,0.056444 -0.02469,0.1270001 -0.01411,0.067028 -0.02822,0.1340556 -0.01058,0.067028 -0.02117,0.1305279 -0.0071,0.059972 -0.0071,0.1023056 0,0.070556 0.02469,0.1199445 0.02469,0.049389 0.05997,0.081139 0.03881,0.028222 0.08114,0.042333 0.04586,0.014111 0.08467,0.014111 0.05997,0 0.119944,-0.017639 0.05997,-0.021167 0.112889,-0.052917 l -0.0071,0.091722 q -0.07056,0.056445 -0.172861,0.077611 -0.09878,0.021167 -0.186973,0.021167 -0.06703,0 -0.137583,-0.021167 -0.06703,-0.017639 -0.119945,-0.056445 -0.05292,-0.038806 -0.08819,-0.098778 -0.03175,-0.0635 -0.03175,-0.1446389 0,-0.070556 0.01411,-0.1481668 0.01764,-0.077611 0.03528,-0.1658057 0.0388,-0.1799168 0.0635,-0.2928057 0.02469,-0.112889 0.04233,-0.2010835 0.02117,-0.091722 0.03881,-0.1799168 0.01764,-0.091722 0.04586,-0.2257779 -0.04939,0 -0.112889,0.00353 -0.05997,0 -0.119945,0.00353 0.01058,-0.028222 0.01411,-0.0564445 0.0071,-0.0282222 0.0071,-0.0811389 0.05645,0.003528 0.116417,0.0105833 0.0635,0.003528 0.109361,0.003528 l 0.0635,-0.37394469 0.306917,-0.11288896 z"
         style="font-style:italic;font-variant:normal;font-weight:normal;font-stretch:normal;font-size:3.52778px;font-family:Optima;-inkscape-font-specification:'Optima Italic';fill:#e9e9e9;fill-opacity:1;stroke-width:0.264583"
         id="path4459"
         inkscape:connector-curvature="0" />
      <path
         d="m 17.701536,1.2453047 q 0.04939,0.010583 0.09878,0.014111 0.05292,0.00353 0.109361,0.00353 0.01764,0 0.07761,0 0.0635,-0.00353 0.141112,-0.014111 0.08114,-0.014111 0.169333,-0.038806 0.0882,-0.028222 0.15875,-0.077611 0.148167,-0.1023056 0.208139,-0.23988902 0.0635,-0.14111121 0.0635,-0.26458351 0,-0.13405564 -0.05644,-0.20813902 -0.05645,-0.0740834 -0.137584,-0.1058334 -0.07761,-0.0352778 -0.165805,-0.0388056 -0.08819,-0.007056 -0.155223,-0.007056 -0.08114,0 -0.144639,0.007056 -0.0635,0.003528 -0.144639,0.0105833 -0.03175,0.1234723 -0.05644,0.21872236 -0.02117,0.0917223 -0.04586,0.1940279 -0.02117,0.0987778 -0.04939,0.22930571 -0.02822,0.12700008 -0.07056,0.31750018 z m 1.305279,1.298223 Q 18.957426,2.54 18.911565,2.54 q -0.04233,0 -0.09172,0 -0.04939,0 -0.08819,0 -0.03881,0 -0.08467,0.00353 Q 18.555259,2.4059443 18.44237,2.2330831 18.333009,2.0602219 18.22012,1.8944162 18.110759,1.7286105 18.008453,1.5874993 17.909675,1.4463881 17.83912,1.3652492 q -0.01764,-0.00353 -0.03881,-0.00353 -0.02117,0 -0.04233,0 -0.02117,0 -0.04233,0 -0.02117,-0.00353 -0.0388,-0.00706 -0.0635,0.2998613 -0.123473,0.5997226 Q 17.496925,2.250722 17.447536,2.5435277 17.419314,2.54 17.384036,2.54 q -0.03528,0 -0.08114,0 -0.04939,0 -0.08467,0 -0.03528,0 -0.06703,0.00353 0.06703,-0.2434168 0.141111,-0.5644448 0.07408,-0.3245557 0.141111,-0.6561671 0.07056,-0.33161128 0.130528,-0.64205593 0.05997,-0.31044464 0.09878,-0.54327813 0.05644,0.007056 0.109361,0.0105833 0.05644,0.003528 0.112889,0.003528 0.02822,0 0.09525,0 0.06703,-0.003528 0.141111,-0.007056 0.07408,-0.003528 0.141111,-0.003528 0.06703,-0.003528 0.09172,-0.003528 0.102305,0 0.211666,0.0141111 0.109362,0.0105833 0.194028,0.0529167 0.134056,0.0670278 0.194028,0.17286123 0.0635,0.1058334 0.0635,0.21872236 0,0.16227788 -0.09172,0.32455577 -0.08819,0.1587501 -0.268111,0.2681113 -0.0635,0.042333 -0.137584,0.070556 -0.07056,0.028222 -0.137583,0.045861 -0.06703,0.017639 -0.123473,0.028222 -0.05644,0.010583 -0.08819,0.014111 0.04586,0.074083 0.116417,0.1799168 0.07056,0.1058334 0.148166,0.2257779 0.08114,0.1199445 0.165806,0.2434168 0.08819,0.1199446 0.165806,0.2293057 0.07761,0.1058334 0.141111,0.1905002 0.0635,0.081139 0.09878,0.1199445 z"
         style="font-style:italic;font-variant:normal;font-weight:normal;font-stretch:normal;font-size:3.52778px;font-family:Optima;-inkscape-font-specification:'Optima Italic';fill:#e9e9e9;fill-opacity:1;stroke-width:0.264583"
         id="path4461"
         inkscape:connector-curvature="0" />
      <path
         d="m 20.12275,0.95602672 q -0.07055,0 -0.15875,0.0282222 -0.08467,0.0246944 -0.169333,0.09525 -0.08114,0.067028 -0.151695,0.1869724 -0.07055,0.1164167 -0.109361,0.2998613 0.109361,0.00706 0.239889,0.010583 0.130528,0.00353 0.239889,0.00353 h 0.112889 q 0.0882,0 0.186972,0 0.09878,-0.00353 0.169334,-0.014111 0.0071,-0.03175 0.01411,-0.074083 0.0071,-0.045861 0.0071,-0.1164168 0,-0.1164167 -0.03528,-0.1975556 -0.03175,-0.081139 -0.08819,-0.1305279 -0.05292,-0.0493889 -0.119944,-0.0705556 -0.06703,-0.0211667 -0.137584,-0.0211667 z M 20.493167,2.4306388 Q 20.362639,2.5082499 20.214473,2.54 q -0.144639,0.035278 -0.296334,0.035278 -0.112889,0 -0.236361,-0.03175 -0.123473,-0.028222 -0.229306,-0.1093611 -0.102306,-0.084667 -0.169333,-0.2222502 -0.06703,-0.1411112 -0.06703,-0.352778 0,-0.208139 0.0635,-0.3915836 0.06703,-0.1834445 0.186972,-0.3175002 0.119945,-0.1375834 0.28575,-0.21519456 0.169334,-0.0811389 0.370417,-0.0811389 0.127,0 0.239889,0.03175 0.112889,0.0282222 0.201084,0.0987778 0.08819,0.0670278 0.137583,0.17991676 0.05292,0.1093612 0.05292,0.2681113 0,0.098778 -0.01411,0.1693335 -0.01411,0.070556 -0.0247,0.1164167 -0.07408,-0.00353 -0.134055,-0.00706 -0.05997,-0.00353 -0.119945,-0.00353 -0.05644,-0.00353 -0.119944,-0.00353 -0.0635,-0.00353 -0.144639,-0.00353 h -0.261056 -0.109361 q -0.08467,0 -0.169334,0.00353 -0.08467,0.00353 -0.148166,0.00353 -0.0071,0.035278 -0.01411,0.084667 -0.0035,0.049389 -0.0035,0.1199445 0,0.1728612 0.05292,0.2786946 0.05292,0.1058334 0.127,0.1658057 0.07761,0.059972 0.165806,0.081139 0.09172,0.021167 0.165806,0.021167 0.102305,0 0.183444,-0.021167 0.08467,-0.021167 0.148167,-0.049389 0.06703,-0.028222 0.112889,-0.059972 0.04939,-0.035278 0.08114,-0.056445 h 0.01058 z"
         style="font-style:italic;font-variant:normal;font-weight:normal;font-stretch:normal;font-size:3.52778px;font-family:Optima;-inkscape-font-specification:'Optima Italic';fill:#e9e9e9;fill-opacity:1;stroke-width:0.264583"
         id="path4463"
         inkscape:connector-curvature="0" />
      <path
         d="m 21.029391,2.988028 q 0,0.098778 0.03528,0.1693335 0.03528,0.070556 0.09525,0.1128889 0.0635,0.045861 0.141111,0.067028 0.07761,0.021167 0.162278,0.021167 0.15875,0 0.275167,-0.052917 0.119944,-0.049389 0.197555,-0.1305278 0.08114,-0.077611 0.119945,-0.176389 0.0388,-0.09525 0.0388,-0.1905002 0,-0.1058334 -0.04939,-0.1622778 -0.04586,-0.056445 -0.119945,-0.081139 -0.07056,-0.024694 -0.155222,-0.028222 -0.08467,-0.00353 -0.155223,-0.00353 -0.07055,0 -0.183444,0.00706 -0.112889,0.00706 -0.204611,0.070556 -0.0635,0.042333 -0.102306,0.091722 -0.03881,0.052917 -0.05997,0.1058334 -0.02117,0.052917 -0.02822,0.098778 -0.0071,0.049389 -0.0071,0.081139 z M 21.36453,1.5345826 q 0,0.098778 0.02822,0.1693335 0.03175,0.067028 0.07761,0.1093612 0.04939,0.038806 0.105834,0.056445 0.05644,0.017639 0.112889,0.017639 0.127,0 0.215194,-0.0635 0.09172,-0.0635 0.148167,-0.1552223 0.05645,-0.091722 0.08114,-0.1940279 0.02469,-0.1058334 0.02469,-0.1869724 0,-0.1587501 -0.08114,-0.2469446 -0.08114,-0.0881945 -0.229306,-0.0881945 -0.134056,0 -0.225778,0.0635001 -0.09172,0.059972 -0.151695,0.1516945 -0.05644,0.088194 -0.08114,0.1905001 -0.02469,0.098778 -0.02469,0.176389 z m -0.01764,0.3774725 q -0.02117,-0.010583 -0.0635,-0.03175 -0.04233,-0.024694 -0.08467,-0.067028 -0.04233,-0.045861 -0.07408,-0.1164168 -0.03175,-0.070556 -0.03175,-0.1799168 0,-0.1234723 0.04939,-0.2434168 0.04939,-0.1199445 0.148167,-0.2116668 0.09878,-0.09525 0.239889,-0.15169452 0.144639,-0.0599723 0.335139,-0.0599723 0.08819,0 0.137583,0.0105833 0.05292,0.0105833 0.130528,0.03175 0.04939,0.0141111 0.08467,0.0176389 0.0388,0 0.09525,0 0.03175,0 0.07761,0 0.04586,-0.003528 0.09525,-0.007056 0.04939,-0.003528 0.09525,-0.003528 0.04586,-0.003528 0.08114,-0.003528 0,0.0176389 -0.0035,0.0352778 -0.0035,0.0176389 -0.0035,0.0388056 0,0.0211667 0.0035,0.0388056 0.0035,0.017639 0.0035,0.035278 -0.127,-0.00706 -0.201083,-0.010583 -0.07056,-0.00353 -0.134056,-0.00706 0.02822,0.038806 0.0635,0.1058334 0.03528,0.0635 0.03528,0.1834446 0,0.074083 -0.02117,0.1552223 -0.01764,0.081139 -0.05997,0.1587501 -0.04233,0.074083 -0.105834,0.144639 -0.0635,0.067028 -0.151694,0.1164167 -0.123472,0.067028 -0.257528,0.084667 -0.134056,0.014111 -0.218722,0.014111 -0.05997,0 -0.112889,0 -0.05292,-0.00353 -0.09172,-0.00706 -0.01411,0.010583 -0.0388,0.028222 -0.0247,0.014111 -0.04939,0.038806 -0.02117,0.021167 -0.03881,0.052917 -0.01764,0.03175 -0.01764,0.074083 0,0.052917 0.0247,0.084667 0.02469,0.028222 0.0635,0.042333 0.0388,0.010583 0.08467,0.014111 0.04586,0.00353 0.08819,0.00353 0.148167,0 0.250472,0.00353 0.105834,0 0.176389,0.010583 0.07408,0.00706 0.127001,0.024694 0.05292,0.014111 0.102305,0.042333 0.04939,0.03175 0.07761,0.070556 0.03175,0.038806 0.04939,0.074083 0.01764,0.038806 0.02117,0.077611 0.0071,0.042333 0.0071,0.074083 0,0.1023056 -0.04939,0.2328334 -0.04586,0.1340557 -0.151695,0.2504724 -0.105833,0.1199446 -0.282222,0.2010835 -0.172862,0.081139 -0.426862,0.081139 -0.123472,0 -0.239889,-0.028222 -0.116417,-0.024694 -0.204611,-0.09525 -0.07056,-0.056444 -0.112889,-0.1446389 -0.03881,-0.088194 -0.03881,-0.1905002 0,-0.1234723 0.05997,-0.2328335 0.05997,-0.1093611 0.162278,-0.1728612 0.05997,-0.038806 0.105833,-0.052917 0.04939,-0.014111 0.07761,-0.024694 l 0.0035,-0.024694 q -0.02117,-0.00353 -0.05292,-0.014111 -0.03175,-0.014111 -0.0635,-0.035278 -0.03175,-0.024694 -0.05644,-0.059972 -0.02117,-0.038806 -0.02117,-0.09525 0,-0.081139 0.03175,-0.1411112 0.03175,-0.059972 0.07761,-0.098778 0.04939,-0.042333 0.102306,-0.070556 0.05292,-0.028222 0.09172,-0.045861 z"
         style="font-style:italic;font-variant:normal;font-weight:normal;font-stretch:normal;font-size:3.52778px;font-family:Optima;-inkscape-font-specification:'Optima Italic';fill:#e9e9e9;fill-opacity:1;stroke-width:0.264583"
         id="path4465"
         inkscape:connector-curvature="0" />
      <path
         d="m 23.181336,0.32455409 q 0,-0.0705556 0.04939,-0.11994453 0.04939,-0.0493889 0.119944,-0.0493889 0.07056,0 0.119945,0.0493889 0.04939,0.0493889 0.04939,0.11994453 0,0.0705556 -0.04939,0.11994452 -0.04939,0.0493889 -0.119945,0.0493889 -0.07055,0 -0.119944,-0.0493889 -0.04939,-0.0493889 -0.04939,-0.11994452 z m 0.194028,0.55738925 q -0.01764,0.0564445 -0.04939,0.17638896 -0.02822,0.1164168 -0.06703,0.2681113 -0.03528,0.1516946 -0.07408,0.3245558 -0.03528,0.1693334 -0.07056,0.3351391 -0.03175,0.1658057 -0.05997,0.3139724 -0.02469,0.1481668 -0.03528,0.2434168 Q 22.980253,2.54 22.937919,2.54 q -0.04233,0 -0.08114,0 -0.04233,0 -0.07761,0 -0.03175,0 -0.05997,0.00353 0.0388,-0.1128889 0.08114,-0.2751668 0.04233,-0.1622779 0.08114,-0.3386669 0.03881,-0.176389 0.07408,-0.3492502 0.03528,-0.1728612 0.05997,-0.3175002 0.02822,-0.144639 0.04586,-0.2469446 0.01764,-0.10230564 0.02117,-0.13405566 0.07056,0.0141111 0.148167,0.0141111 0.08819,0 0.144639,-0.0141111 z"
         style="font-style:italic;font-variant:normal;font-weight:normal;font-stretch:normal;font-size:3.52778px;font-family:Optima;-inkscape-font-specification:'Optima Italic';fill:#e9e9e9;fill-opacity:1;stroke-width:0.264583"
         id="path4467"
         inkscape:connector-curvature="0" />
      <path
         d="m 24.596803,1.1641657 q -0.02822,-0.098778 -0.109361,-0.1516945 -0.07761,-0.0564445 -0.179917,-0.0564445 -0.07761,0 -0.141111,0.03175 -0.05997,0.0282223 -0.105834,0.0776112 -0.04233,0.045861 -0.06703,0.1058334 -0.02117,0.059972 -0.02117,0.1199445 0,0.0635 0.02469,0.112889 0.0247,0.045861 0.06703,0.081139 0.04233,0.035278 0.09525,0.0635 0.05644,0.028222 0.116417,0.052917 0.05644,0.024694 0.112889,0.056444 0.05644,0.028222 0.102305,0.070556 0.04586,0.042333 0.07408,0.1023057 0.02822,0.059972 0.02822,0.144639 0,0.1234723 -0.05645,0.2363612 -0.05644,0.1093612 -0.155222,0.1940279 -0.09525,0.084667 -0.229306,0.1305279 -0.130527,0.045861 -0.28575,0.045861 -0.109361,0 -0.201083,-0.021167 -0.0882,-0.021167 -0.179917,-0.070556 0.03881,-0.0635 0.06703,-0.1305278 0.02822,-0.067028 0.04586,-0.1058334 h 0.02469 q 0.03881,0.1058334 0.134056,0.1587501 0.09878,0.052917 0.215195,0.052917 0.102305,0 0.172861,-0.035278 0.07408,-0.035278 0.119944,-0.088195 0.04586,-0.052917 0.06703,-0.1164168 0.0247,-0.067028 0.0247,-0.1234723 0,-0.1128889 -0.07056,-0.1693334 -0.07056,-0.056445 -0.211667,-0.1199445 -0.05644,-0.024695 -0.116416,-0.056445 -0.05645,-0.03175 -0.102306,-0.077611 -0.04586,-0.045861 -0.07408,-0.1093612 -0.02822,-0.067028 -0.02822,-0.1622778 0,-0.091722 0.03528,-0.1905002 0.03528,-0.098778 0.109361,-0.1834445 0.07761,-0.0846667 0.201084,-0.13758344 0.123472,-0.0564445 0.299861,-0.0564445 0.09525,0 0.165806,0.0176389 0.07056,0.0141111 0.155222,0.0529167 -0.05292,0.11994454 -0.07056,0.16933344 -0.01411,0.049389 -0.02117,0.084667 h -0.03175 z"
         style="font-style:italic;font-variant:normal;font-weight:normal;font-stretch:normal;font-size:3.52778px;font-family:Optima;-inkscape-font-specification:'Optima Italic';fill:#e9e9e9;fill-opacity:1;stroke-width:0.264583"
         id="path4469"
         inkscape:connector-curvature="0" />
      <path
         d="m 25.678674,0.44097083 q -0.03528,0.1234723 -0.0635,0.24341682 -0.0247,0.11994452 -0.05292,0.24341683 0.08114,0 0.176389,-0.003528 0.09878,-0.007056 0.1905,-0.0105833 -0.02117,0.0740834 -0.02117,0.14463892 -0.09172,-0.00353 -0.194028,-0.00706 -0.09878,-0.00706 -0.179917,-0.00706 l -0.137584,0.6632227 q -0.01058,0.056444 -0.02469,0.1270001 -0.01411,0.067028 -0.02822,0.1340556 -0.01058,0.067028 -0.02117,0.1305279 -0.0071,0.059972 -0.0071,0.1023056 0,0.070556 0.0247,0.1199445 0.02469,0.049389 0.05997,0.081139 0.03881,0.028222 0.08114,0.042333 0.04586,0.014111 0.08467,0.014111 0.05997,0 0.119944,-0.017639 0.05997,-0.021167 0.112889,-0.052917 l -0.0071,0.091722 q -0.07056,0.056445 -0.172861,0.077611 -0.09878,0.021167 -0.186973,0.021167 -0.06703,0 -0.137583,-0.021167 -0.06703,-0.017639 -0.119945,-0.056445 -0.05292,-0.038806 -0.08819,-0.098778 -0.03175,-0.0635 -0.03175,-0.1446389 0,-0.070556 0.01411,-0.1481668 0.01764,-0.077611 0.03528,-0.1658057 0.0388,-0.1799168 0.0635,-0.2928057 0.02469,-0.112889 0.04233,-0.2010835 0.02117,-0.091722 0.03881,-0.1799168 0.01764,-0.091722 0.04586,-0.2257779 -0.04939,0 -0.112889,0.00353 -0.05997,0 -0.119945,0.00353 0.01058,-0.028222 0.01411,-0.0564445 0.0071,-0.0282222 0.0071,-0.0811389 0.05644,0.003528 0.116417,0.0105833 0.0635,0.003528 0.109361,0.003528 l 0.0635,-0.37394469 0.306917,-0.11288896 z"
         style="font-style:italic;font-variant:normal;font-weight:normal;font-stretch:normal;font-size:3.52778px;font-family:Optima;-inkscape-font-specification:'Optima Italic';fill:#e9e9e9;fill-opacity:1;stroke-width:0.264583"
         id="path4471"
         inkscape:connector-curvature="0" />
      <path
         d="m 26.916484,0.95602672 q -0.07056,0 -0.15875,0.0282222 -0.08467,0.0246944 -0.169334,0.09525 -0.08114,0.067028 -0.151694,0.1869724 -0.07056,0.1164167 -0.109361,0.2998613 0.109361,0.00706 0.239889,0.010583 0.130527,0.00353 0.239889,0.00353 h 0.112889 q 0.08819,0 0.186972,0 0.09878,-0.00353 0.169333,-0.014111 0.0071,-0.03175 0.01411,-0.074083 0.0071,-0.045861 0.0071,-0.1164168 0,-0.1164167 -0.03528,-0.1975556 -0.03175,-0.081139 -0.08819,-0.1305279 -0.05292,-0.0493889 -0.119945,-0.0705556 -0.06703,-0.0211667 -0.137583,-0.0211667 z M 27.286901,2.4306388 Q 27.156373,2.5082499 27.008206,2.54 q -0.144639,0.035278 -0.296333,0.035278 -0.112889,0 -0.236362,-0.03175 Q 26.352039,2.515306 26.246206,2.4341669 26.1439,2.3494999 26.076872,2.2119167 q -0.06703,-0.1411112 -0.06703,-0.352778 0,-0.208139 0.0635,-0.3915836 0.06703,-0.1834445 0.186973,-0.3175002 0.119944,-0.1375834 0.28575,-0.21519456 0.169333,-0.0811389 0.370417,-0.0811389 0.127,0 0.239889,0.03175 0.112889,0.0282222 0.201083,0.0987778 0.0882,0.0670278 0.137584,0.17991676 0.05292,0.1093612 0.05292,0.2681113 0,0.098778 -0.01411,0.1693335 -0.01411,0.070556 -0.02469,0.1164167 -0.07408,-0.00353 -0.134056,-0.00706 -0.05997,-0.00353 -0.119944,-0.00353 -0.05645,-0.00353 -0.119945,-0.00353 -0.0635,-0.00353 -0.144639,-0.00353 H 26.729511 26.62015 q -0.08467,0 -0.169333,0.00353 -0.08467,0.00353 -0.148167,0.00353 -0.0071,0.035278 -0.01411,0.084667 -0.0035,0.049389 -0.0035,0.1199445 0,0.1728612 0.05292,0.2786946 0.05292,0.1058334 0.127,0.1658057 0.07761,0.059972 0.165806,0.081139 0.09172,0.021167 0.165805,0.021167 0.102306,0 0.183445,-0.021167 0.08467,-0.021167 0.148167,-0.049389 0.06703,-0.028222 0.112889,-0.059972 0.04939,-0.035278 0.08114,-0.056445 h 0.01058 z"
         style="font-style:italic;font-variant:normal;font-weight:normal;font-stretch:normal;font-size:3.52778px;font-family:Optima;-inkscape-font-specification:'Optima Italic';fill:#e9e9e9;fill-opacity:1;stroke-width:0.264583"
         id="path4473"
         inkscape:connector-curvature="0" />
      <path
         d="M 28.79679,1.160638 Q 28.76857,1.150055 28.73329,1.139471 28.69801,1.128888 28.65568,1.128888 q -0.123473,0 -0.243417,0.1058334 -0.116417,0.1023057 -0.176389,0.3139725 -0.0071,0.014111 -0.0247,0.081139 -0.01411,0.067028 -0.03528,0.1622779 -0.02117,0.091722 -0.04586,0.2046112 -0.02117,0.1093612 -0.04233,0.2151946 -0.02117,0.1058334 -0.0388,0.1975557 -0.01411,0.088195 -0.02117,0.1340556 Q 27.999512,2.54 27.967762,2.54 q -0.03175,0 -0.07056,0 -0.03881,0 -0.07761,0 -0.03528,0 -0.06703,0.00353 0.02117,-0.059972 0.05292,-0.1834445 0.03175,-0.1270001 0.06703,-0.2822224 0.03528,-0.1552223 0.07055,-0.3280836 0.03881,-0.1728612 0.06703,-0.3351391 0.03175,-0.1622779 0.05644,-0.2998613 0.0247,-0.14111118 0.03528,-0.23283346 0.02822,0.007056 0.0635,0.0105833 0.03881,0.003528 0.07408,0.003528 0.07761,0 0.130527,-0.0141111 -0.0071,0.0211667 -0.02117,0.0635 -0.01058,0.0388056 -0.0247,0.0917223 -0.01411,0.052917 -0.02822,0.1128889 -0.01058,0.056445 -0.01764,0.112889 h 0.01764 q 0.05645,-0.070556 0.112889,-0.144639 0.05997,-0.074083 0.123472,-0.13052742 0.06703,-0.0599723 0.148167,-0.0952501 0.08114,-0.0388056 0.183445,-0.0352778 -0.01764,0.0881945 -0.02822,0.15522192 -0.0071,0.0635 -0.0071,0.1305279 l -0.03175,0.017639 z"
         style="font-style:italic;font-variant:normal;font-weight:normal;font-stretch:normal;font-size:3.52778px;font-family:Optima;-inkscape-font-specification:'Optima Italic';fill:#e9e9e9;fill-opacity:1;stroke-width:0.264583"
         id="path4475"
         inkscape:connector-curvature="0" />
    </g>
    <g
       aria-label="Clock"
       id="text4480"
       style="font-size:3.52777px;line-height:1.25;font-family:Futura;-inkscape-font-specification:Futura;stroke-width:0.264583"
       transform="translate(-1.0175276,-0.26207749)">
      <path
         d="m 6.7789764,17.548579 q -0.019756,0.04798 -0.028222,0.07902 -0.00847,0.02822 -0.016933,0.07056 -0.073378,0.03669 -0.2116665,0.07902 -0.1382888,0.04233 -0.3443109,0.04233 -0.1777998,0 -0.3443108,-0.04516 -0.1636888,-0.04516 -0.2906887,-0.146755 -0.1241777,-0.104422 -0.2003776,-0.265289 -0.0762,-0.160866 -0.0762,-0.386644 0,-0.237067 0.081844,-0.445911 0.084667,-0.208844 0.2398887,-0.364066 0.1580444,-0.158045 0.383822,-0.248356 0.2285998,-0.09031 0.513644,-0.09031 0.1439333,0 0.2765776,0.02258 0.1354666,0.02258 0.2624665,0.08749 -0.036689,0.06773 -0.056444,0.115711 -0.016933,0.04516 -0.0254,0.07338 -0.019756,-0.01976 -0.059267,-0.05362 -0.039511,-0.03387 -0.1016,-0.06491 -0.062089,-0.03387 -0.1495776,-0.05644 -0.084667,-0.0254 -0.1975554,-0.0254 -0.2229554,0 -0.3951108,0.09031 -0.1721555,0.09031 -0.2878665,0.242711 -0.115711,0.149578 -0.1777999,0.344311 -0.059267,0.191911 -0.059267,0.397933 0,0.200378 0.047978,0.318911 0.0508,0.115711 0.115711,0.186266 0.1015999,0.110067 0.2370665,0.160867 0.1354665,0.0508 0.2793998,0.0508 0.1523998,0 0.2963331,-0.04798 0.1467554,-0.0508 0.2765775,-0.135466 l 0.011289,0.01411 z"
         style="font-style:italic;font-variant:normal;font-weight:normal;font-stretch:normal;font-size:2.82222px;font-family:Optima;-inkscape-font-specification:'Optima Italic';fill:#e9e9e9;fill-opacity:1;stroke-width:0.264583"
         id="path4482"
         inkscape:connector-curvature="0" />
      <path
         d="m 7.7215098,15.680269 q -0.011289,0.03669 -0.045156,0.174978 -0.031044,0.135466 -0.0762,0.330199 -0.042333,0.194734 -0.093133,0.426156 -0.0508,0.228599 -0.098778,0.451555 -0.045155,0.220133 -0.081844,0.414866 -0.036689,0.191911 -0.056444,0.3048 -0.022578,-0.0028 -0.0508,-0.0028 -0.0254,0 -0.064911,0 -0.036689,0 -0.064911,0 -0.0254,0 -0.047978,0.0028 0.045155,-0.163689 0.090311,-0.3556 0.047978,-0.194733 0.093133,-0.395111 0.045155,-0.200377 0.084667,-0.397933 0.042333,-0.197555 0.0762,-0.375355 0.033867,-0.1778 0.059267,-0.327377 0.0254,-0.149578 0.039511,-0.251178 0.042333,0.01129 0.1072443,0.01129 0.031044,0 0.064911,-0.0028 0.033867,-0.0028 0.064911,-0.0085 z"
         style="font-style:italic;font-variant:normal;font-weight:normal;font-stretch:normal;font-size:2.82222px;font-family:Optima;-inkscape-font-specification:'Optima Italic';fill:#e9e9e9;fill-opacity:1;stroke-width:0.264583"
         id="path4484"
         inkscape:connector-curvature="0" />
      <path
         d="m 7.9564153,17.319979 q 0,0.1778 0.081844,0.293511 0.084667,0.115711 0.2765776,0.115711 0.1608665,0 0.2709331,-0.08467 0.1100666,-0.08749 0.1806221,-0.211666 0.070555,-0.124178 0.1015999,-0.262467 0.031044,-0.138289 0.031044,-0.242711 0,-0.08749 -0.0254,-0.160866 -0.022578,-0.0762 -0.070555,-0.129822 -0.047978,-0.05645 -0.1185333,-0.08749 -0.070556,-0.03105 -0.1608665,-0.03105 -0.1523999,0 -0.2624665,0.08185 -0.1072444,0.08184 -0.1749776,0.2032 -0.067733,0.118533 -0.098778,0.259644 -0.031044,0.138289 -0.031044,0.256822 z m -0.2229554,-0.06773 q 0,-0.1524 0.053622,-0.299156 0.056444,-0.146755 0.1580443,-0.262466 0.1016,-0.118534 0.2483554,-0.189089 0.1467555,-0.07338 0.3273775,-0.07338 0.166511,0 0.2822221,0.04798 0.115711,0.04516 0.1862665,0.121355 0.070555,0.0762 0.1015999,0.174978 0.031044,0.09878 0.031044,0.206022 0,0.155222 -0.056444,0.307622 -0.056444,0.149578 -0.1608665,0.268111 -0.1044222,0.118533 -0.2511776,0.189089 -0.1467555,0.06773 -0.3301998,0.06773 -0.1749776,0 -0.2906886,-0.0508 -0.1128888,-0.0508 -0.1806221,-0.132644 -0.064911,-0.08467 -0.093133,-0.183445 -0.0254,-0.101599 -0.0254,-0.19191 z"
         style="font-style:italic;font-variant:normal;font-weight:normal;font-stretch:normal;font-size:2.82222px;font-family:Optima;-inkscape-font-specification:'Optima Italic';fill:#e9e9e9;fill-opacity:1;stroke-width:0.264583"
         id="path4486"
         inkscape:connector-curvature="0" />
      <path
         d="m 10.379688,17.720734 q -0.194733,0.09031 -0.4176883,0.09031 -0.1298222,0 -0.2455332,-0.03104 -0.1128888,-0.03104 -0.2003776,-0.1016 -0.084667,-0.07338 -0.1354666,-0.183445 -0.047978,-0.110066 -0.047978,-0.259644 0,-0.132644 0.045155,-0.273755 0.047978,-0.143933 0.1495777,-0.262467 0.1015999,-0.118533 0.2596442,-0.194733 0.1580443,-0.0762 0.3809998,-0.0762 0.1524,0 0.256822,0.03105 0.107244,0.02822 0.172155,0.05362 -0.01411,0.03104 -0.0254,0.05362 -0.0085,0.02258 -0.01693,0.04516 -0.0056,0.01975 -0.01411,0.04515 -0.0056,0.0254 -0.01411,0.05927 h -0.01693 q -0.05362,-0.09878 -0.1524,-0.146756 -0.09878,-0.0508 -0.206022,-0.0508 -0.132644,0 -0.2427103,0.06209 -0.1100666,0.06209 -0.1890888,0.163689 -0.0762,0.09878 -0.1185332,0.2286 -0.042333,0.127 -0.042333,0.262466 0,0.1524 0.045155,0.248356 0.047978,0.09596 0.115711,0.149577 0.070555,0.0508 0.1467555,0.07056 0.079022,0.01693 0.1382888,0.01693 0.07338,0 0.135467,-0.01411 0.06491,-0.01693 0.115711,-0.03669 0.0508,-0.02258 0.08749,-0.04233 0.03951,-0.01976 0.06209,-0.03104 l 0.01411,0.0056 -0.03951,0.118533 z"
         style="font-style:italic;font-variant:normal;font-weight:normal;font-stretch:normal;font-size:2.82222px;font-family:Optima;-inkscape-font-specification:'Optima Italic';fill:#e9e9e9;fill-opacity:1;stroke-width:0.264583"
         id="path4488"
         inkscape:connector-curvature="0" />
      <path
         d="m 11.300397,17.018001 q 0.01129,0.01693 0.06209,0.09878 0.05362,0.07902 0.129822,0.191911 0.07902,0.112889 0.172156,0.242711 0.09313,0.127 0.183444,0.231422 -0.03387,-0.0028 -0.07338,-0.0028 -0.03951,0 -0.07902,0 -0.03387,0 -0.06773,0 -0.03104,0 -0.05927,0.0028 -0.0508,-0.0762 -0.112888,-0.166511 -0.05927,-0.09313 -0.112889,-0.172156 -0.05362,-0.08184 -0.09313,-0.141111 -0.03951,-0.05927 -0.0508,-0.0762 l -0.04798,-0.06773 q -0.02258,-0.03104 -0.0508,-0.05362 -0.02822,-0.0254 -0.05362,-0.0254 -0.03105,0 -0.03951,0.05645 l -0.01129,0.05927 q -0.0085,0.03669 -0.0254,0.121356 -0.01693,0.08467 -0.03387,0.177799 -0.01693,0.09313 -0.03104,0.1778 -0.01411,0.08185 -0.01976,0.110067 -0.0254,-0.0028 -0.05362,-0.0028 -0.0254,0 -0.06209,0 -0.03104,0 -0.06209,0 -0.02822,0 -0.0508,0.0028 0.06491,-0.245533 0.124178,-0.496711 0.05927,-0.254 0.110067,-0.496711 0.0508,-0.245533 0.09313,-0.474133 0.04515,-0.228599 0.08184,-0.431799 0.01129,-0.05645 0.01693,-0.104422 0.0085,-0.04798 0.01411,-0.09878 0.05644,0.01129 0.115711,0.01129 0.07055,0 0.115711,-0.01129 -0.02258,0.09313 -0.03669,0.1524 -0.01411,0.05927 -0.02822,0.118533 -0.01129,0.05927 -0.02822,0.132644 -0.01411,0.07056 -0.03951,0.186267 l -0.129822,0.601133 -0.02258,0.110066 q -0.0028,0.0085 -0.0028,0.0254 0.0028,0.01693 0.03105,0.01693 0.01411,0 0.02822,-0.0056 0.01693,-0.0085 0.02822,-0.01411 l 0.04798,-0.03387 q 0.08467,-0.05927 0.2286,-0.180623 0.143933,-0.124177 0.383822,-0.335844 0.01975,0.0056 0.04515,0.0085 0.0254,0.0028 0.05362,0.0028 0.03104,0 0.06209,-0.0028 0.03387,-0.0028 0.05927,-0.0085 -0.01129,0.0085 -0.05927,0.04516 -0.04798,0.03669 -0.115711,0.08749 -0.06773,0.0508 -0.146755,0.110066 -0.07902,0.05927 -0.155222,0.118533 -0.07338,0.05645 -0.135467,0.107245 -0.06209,0.04798 -0.09596,0.0762 v 0.01975 z"
         style="font-style:italic;font-variant:normal;font-weight:normal;font-stretch:normal;font-size:2.82222px;font-family:Optima;-inkscape-font-specification:'Optima Italic';fill:#e9e9e9;fill-opacity:1;stroke-width:0.264583"
         id="path4490"
         inkscape:connector-curvature="0" />
    </g>
    <g
       aria-label="In"
       id="text4495"
       style="font-size:3.52777px;line-height:1.25;font-family:Futura;-inkscape-font-specification:Futura;stroke-width:0.264583"
       transform="translate(1.3922825,2.2073569)">
      <path
         d="m 5.2013554,30.482822 q 0.053622,-0.194733 0.1128888,-0.451555 0.059267,-0.259645 0.115711,-0.524933 0.056444,-0.265289 0.1044222,-0.513644 0.047978,-0.248356 0.079022,-0.434622 0.0254,0.0056 0.056444,0.0085 0.033867,0.0028 0.064911,0.0028 0.033867,0 0.067733,-0.0028 0.033867,-0.0028 0.062089,-0.0085 -0.056444,0.217311 -0.115711,0.474133 -0.059267,0.253999 -0.115711,0.513644 -0.053622,0.259644 -0.1016,0.505177 -0.047978,0.242711 -0.079022,0.4318 -0.0254,-0.0028 -0.056444,-0.0028 -0.031044,0 -0.067733,0 -0.031044,0 -0.064911,0 -0.033867,0 -0.062089,0.0028 z"
         style="font-style:italic;font-variant:normal;font-weight:normal;font-stretch:normal;font-size:2.82222px;font-family:Optima;-inkscape-font-specification:'Optima Italic';fill:#e9e9e9;fill-opacity:1;stroke-width:0.264583"
         id="path4497"
         inkscape:connector-curvature="0" />
      <path
         d="m 6.3933024,29.368045 q 0.028222,-0.03951 0.073378,-0.07902 0.047978,-0.03951 0.1072444,-0.07338 0.059267,-0.03387 0.1326443,-0.05362 0.073378,-0.02258 0.1523999,-0.02258 0.0762,0 0.1467555,0.02258 0.070555,0.01975 0.1241776,0.06209 0.056444,0.04233 0.090311,0.107244 0.033867,0.06209 0.033867,0.146755 0,0.02822 -0.00282,0.0508 0,0.02258 -0.00847,0.05927 -0.00564,0.03669 -0.019756,0.09313 -0.011289,0.05645 -0.033867,0.1524 -0.011289,0.0508 -0.031045,0.143933 -0.019755,0.09031 -0.039511,0.191911 -0.019756,0.09878 -0.036689,0.189089 -0.016933,0.08749 -0.019756,0.124178 -0.022578,-0.0028 -0.0508,-0.0028 -0.0254,0 -0.056444,0 -0.031044,0 -0.064911,0 -0.033867,0 -0.059267,0.0028 0.011289,-0.02258 0.031044,-0.09313 0.019756,-0.07055 0.042333,-0.160866 0.0254,-0.09031 0.047978,-0.194733 0.0254,-0.104422 0.045155,-0.200378 0.019756,-0.09878 0.031044,-0.180622 0.014111,-0.08184 0.014111,-0.129822 0,-0.06491 -0.0254,-0.110067 -0.022578,-0.04798 -0.062089,-0.07902 -0.039511,-0.03104 -0.090311,-0.04516 -0.047978,-0.01693 -0.1016,-0.01693 -0.033867,0 -0.090311,0.01129 -0.056444,0.01129 -0.1185333,0.04516 -0.059267,0.03104 -0.115711,0.09031 -0.053622,0.05927 -0.084667,0.155222 -0.016933,0.04798 -0.036689,0.129822 -0.019756,0.07902 -0.042333,0.174978 -0.019756,0.09313 -0.039511,0.191911 -0.019756,0.09878 -0.036689,0.186266 -0.014111,0.08467 -0.0254,0.146756 -0.011289,0.06209 -0.014111,0.07902 -0.022578,-0.0028 -0.047978,-0.0028 -0.0254,0 -0.056444,0 -0.031044,0 -0.062089,0 -0.028222,0 -0.0508,0.0028 0.019755,-0.05645 0.045155,-0.163689 0.028222,-0.110067 0.056444,-0.239889 0.028222,-0.129822 0.056444,-0.268111 0.031044,-0.141111 0.056444,-0.268111 0.0254,-0.126999 0.042333,-0.228599 0.019756,-0.104422 0.028222,-0.160867 0.042333,0.01129 0.1015999,0.01129 0.0254,0 0.053622,-0.0028 0.028222,-0.0028 0.053622,-0.0085 L 6.3820135,29.3624 Z"
         style="font-style:italic;font-variant:normal;font-weight:normal;font-stretch:normal;font-size:2.82222px;font-family:Optima;-inkscape-font-specification:'Optima Italic';fill:#e9e9e9;fill-opacity:1;stroke-width:0.264583"
         id="path4499"
         inkscape:connector-curvature="0" />
    </g>
  </g>
  <g
     inkscape:groupmode="layer"
     id="layer2"
     inkscape:label="components"
     style="display:none"
     sodipodi:insensitive="true">
    <circle
       style="display:inline;fill:#f2f2f2;stroke:#00ff00;stroke-width:0.264583;stroke-opacity:1"
       id="path15"
       cx="7.6200004"
       cy="10.160001"
       r="2.6458333"
       inkscape:label="clock" />
    <circle
       style="display:inline;fill:#f2f2f2;stroke:#00ff00;stroke-width:0.264583;stroke-opacity:1"
       id="path17"
       cx="7.6200004"
       cy="25.400002"
       r="2.6458333"
       inkscape:label="signal" />
    <circle
       inkscape:label="out1"
       r="2.6458333"
       cy="10.160001"
       cx="22.860001"
       id="path15-4-6-5"
       style="display:inline;fill:#f2f2f2;stroke:#0000ff;stroke-width:0.264583;stroke-opacity:1" />
    <circle
       inkscape:label="out2"
       r="2.6458333"
       cy="25.400002"
       cx="22.860001"
       id="path17-0-5-4"
       style="display:inline;fill:#f2f2f2;stroke:#0000ff;stroke-width:0.264583;stroke-opacity:1" />
    <circle
       inkscape:label="out3"
       r="2.6458333"
       cy="40.640003"
       cx="22.860001"
       id="path34-0-3-2"
       style="display:inline;fill:#f2f2f2;stroke:#0000ff;stroke-width:0.264583;stroke-opacity:1" />
    <circle
       style="display:inline;fill:#f2f2f2;stroke:#0000ff;stroke-width:0.264583;stroke-opacity:1"
       id="path15-0-9-0-1"
       cx="23.008728"
       cy="55.746063"
       r="2.6458333"
       inkscape:label="out4" />
    <circle
       style="display:inline;fill:#f2f2f2;stroke:#0000ff;stroke-width:0.264583;stroke-opacity:1"
       id="path17-5-37-4-9"
       cx="22.860001"
       cy="71.120003"
       r="2.6458333"
       inkscape:label="out5" />
    <circle
       style="display:inline;fill:#f2f2f2;stroke:#0000ff;stroke-width:0.264583;stroke-opacity:1"
       id="path34-6-5-8-2"
       cx="22.860001"
       cy="86.360001"
       r="2.6458333"
       inkscape:label="out6" />
    <circle
       inkscape:label="out7"
       r="2.6458333"
       cy="101.60001"
       cx="22.860001"
       id="path17-5-3-7-5-4"
       style="display:inline;fill:#f2f2f2;stroke:#0000ff;stroke-width:0.264583;stroke-opacity:1" />
    <circle
       inkscape:label="out8"
       r="2.6458333"
       cy="116.84"
       cx="22.860001"
       id="path34-6-8-2-5-5"
       style="display:inline;fill:#f2f2f2;stroke:#0000ff;stroke-width:0.264583;stroke-opacity:1" />
  </g>
</svg>
