<?xml version="1.0" encoding="UTF-8" standalone="no"?>
<svg
   xmlns:dc="http://purl.org/dc/elements/1.1/"
   xmlns:cc="http://creativecommons.org/ns#"
   xmlns:rdf="http://www.w3.org/1999/02/22-rdf-syntax-ns#"
   xmlns:svg="http://www.w3.org/2000/svg"
   xmlns="http://www.w3.org/2000/svg"
   xmlns:sodipodi="http://sodipodi.sourceforge.net/DTD/sodipodi-0.dtd"
   xmlns:inkscape="http://www.inkscape.org/namespaces/inkscape"
   width="60.959999mm"
   height="128.5mm"
   viewBox="0 0 60.959999 128.5"
   version="1.1"
   id="svg1138"
   inkscape:version="1.0beta1 (32d4812, 2019-09-19)"
   sodipodi:docname="Comparator.svg">
  <defs
     id="defs1132">
    <filter
       style="color-interpolation-filters:sRGB"
       inkscape:label="Bump"
       id="filter912">
      <feGaussianBlur
         in="SourceGraphic"
         stdDeviation="0.01"
         result="blur1"
         id="feGaussianBlur890" />
      <feColorMatrix
         in="BackgroundImage"
         values="1 0 0 0 0 0 1 0 0 0 0 0 1 0 0 0 0 0 1 0 "
         result="colormatrix1"
         id="feColorMatrix892" />
      <feColorMatrix
         in="colormatrix1"
         type="luminanceToAlpha"
         result="colormatrix2"
         id="feColorMatrix894" />
      <feComposite
         k4="0"
         k1="0"
         in2="blur1"
         operator="arithmetic"
         k2="1"
         k3="0"
         result="composite1"
         id="feComposite896" />
      <feGaussianBlur
         in="composite1"
         stdDeviation="0.01"
         result="blur2"
         id="feGaussianBlur898" />
      <feSpecularLighting
         lighting-color="#ffffff"
         surfaceScale="5"
         specularConstant="1"
         specularExponent="15"
         result="lighting"
         id="feSpecularLighting902">
        <feDistantLight
           azimuth="225"
           elevation="45"
           id="feDistantLight900" />
      </feSpecularLighting>
      <feFlood
         flood-color="rgb(197,41,41)"
         flood-opacity="1"
         result="flood"
         id="feFlood904" />
      <feComposite
         k4="0"
         k1="0"
         in="lighting"
         in2="blur1"
         operator="arithmetic"
         k3="1"
         k2="1"
         result="composite2"
         id="feComposite906" />
      <feBlend
         in2="SourceGraphic"
         mode="normal"
         result="blend"
         id="feBlend908" />
      <feComposite
         in="blend"
         in2="SourceGraphic"
         operator="in"
         result="composite3"
         id="feComposite910" />
    </filter>
    <filter
       id="filter2180"
       inkscape:label="Bump"
       style="color-interpolation-filters:sRGB">
      <feGaussianBlur
         id="feGaussianBlur2158"
         result="blur1"
         stdDeviation="0.01"
         in="SourceGraphic" />
      <feColorMatrix
         id="feColorMatrix2160"
         result="colormatrix1"
         values="1 0 0 0 0 0 1 0 0 0 0 0 1 0 0 0 0 0 1 0 "
         in="BackgroundImage" />
      <feColorMatrix
         id="feColorMatrix2162"
         result="colormatrix2"
         type="luminanceToAlpha"
         in="colormatrix1" />
      <feComposite
         k4="0"
         k1="0"
         id="feComposite2164"
         result="composite1"
         k3="0"
         k2="1"
         operator="arithmetic"
         in2="blur1" />
      <feGaussianBlur
         id="feGaussianBlur2166"
         result="blur2"
         stdDeviation="0.01"
         in="composite1" />
      <feSpecularLighting
         id="feSpecularLighting2170"
         result="lighting"
         specularExponent="15"
         specularConstant="1"
         surfaceScale="5"
         lighting-color="#ffffff">
        <feDistantLight
           id="feDistantLight2168"
           elevation="45"
           azimuth="225" />
      </feSpecularLighting>
      <feFlood
         id="feFlood2172"
         result="flood"
         flood-opacity="1"
         flood-color="rgb(197,41,41)" />
      <feComposite
         k4="0"
         k1="0"
         id="feComposite2174"
         result="composite2"
         k2="1"
         k3="1"
         operator="arithmetic"
         in2="blur1"
         in="lighting" />
      <feBlend
         id="feBlend2176"
         result="blend"
         mode="normal"
         in2="SourceGraphic" />
      <feComposite
         id="feComposite2178"
         result="composite3"
         operator="in"
         in2="SourceGraphic"
         in="blend" />
    </filter>
  </defs>
  <sodipodi:namedview
     inkscape:snap-bbox-midpoints="true"
     inkscape:snap-bbox="true"
     id="base"
     pagecolor="#ffffff"
     bordercolor="#666666"
     borderopacity="1.0"
     inkscape:pageopacity="0.0"
     inkscape:pageshadow="2"
     inkscape:zoom="1.7789883"
     inkscape:cx="115.2"
     inkscape:cy="242.83465"
     inkscape:document-units="mm"
     inkscape:current-layer="layer4"
     inkscape:document-rotation="0"
     showgrid="true"
     inkscape:snap-object-midpoints="true"
     inkscape:window-width="1920"
     inkscape:window-height="1054"
     inkscape:window-x="1440"
     inkscape:window-y="26"
     inkscape:window-maximized="0">
    <inkscape:grid
       spacingy="2.54"
       spacingx="2.54"
       units="mm"
       type="xygrid"
       id="grid1738" />
  </sodipodi:namedview>
  <metadata
     id="metadata1135">
    <rdf:RDF>
      <cc:Work
         rdf:about="">
        <dc:format>image/svg+xml</dc:format>
        <dc:type
           rdf:resource="http://purl.org/dc/dcmitype/StillImage" />
        <dc:title></dc:title>
      </cc:Work>
    </rdf:RDF>
  </metadata>
  <g
     sodipodi:insensitive="true"
     inkscape:label="Background"
     inkscape:groupmode="layer"
     id="layer1">
    <rect
       style="display:inline;fill:#000000;fill-opacity:1;stroke:none;stroke-width:0.173754"
       id="rect10"
       width="60.959999"
       height="128.5"
       x="0"
       y="0" />
  </g>
  <g
     sodipodi:insensitive="true"
     inkscape:groupmode="layer"
     id="layer3"
     inkscape:label="boxes">
    <rect
       style="display:inline;fill:#e9e9e9;fill-opacity:0.501961;stroke:none;stroke-width:0.508799;stroke-miterlimit:4;stroke-dasharray:0.508799, 1.0176;stroke-dashoffset:0;stroke-opacity:1"
       id="rect1740-1"
       width="10.160002"
       height="10.160002"
       x="48.259998"
       y="5.0799952" />
    <rect
       style="display:inline;fill:#e9e9e9;fill-opacity:0.501961;stroke:none;stroke-width:0.508799;stroke-miterlimit:4;stroke-dasharray:0.508799, 1.0176;stroke-dashoffset:0;stroke-opacity:1"
       id="rect1740-1-0"
       width="10.160002"
       height="10.160002"
       x="48.259998"
       y="20.319996" />
    <rect
       y="35.559994"
       x="48.259998"
       height="10.160002"
       width="10.160002"
       id="rect1740-1-0-3"
       style="display:inline;fill:#e9e9e9;fill-opacity:0.501961;stroke:none;stroke-width:0.508799;stroke-miterlimit:4;stroke-dasharray:0.508799, 1.0176;stroke-dashoffset:0;stroke-opacity:1" />
    <rect
       y="50.799992"
       x="48.259998"
       height="10.160002"
       width="10.160002"
       id="rect1740-1-0-5"
       style="display:inline;fill:#e9e9e9;fill-opacity:0.501961;stroke:none;stroke-width:0.508799;stroke-miterlimit:4;stroke-dasharray:0.508799, 1.0176;stroke-dashoffset:0;stroke-opacity:1" />
    <rect
       y="66.039993"
       x="48.259998"
       height="10.160002"
       width="10.160002"
       id="rect1740-1-0-4"
       style="display:inline;fill:#e9e9e9;fill-opacity:0.501961;stroke:none;stroke-width:0.508799;stroke-miterlimit:4;stroke-dasharray:0.508799, 1.0176;stroke-dashoffset:0;stroke-opacity:1" />
    <rect
       y="81.279991"
       x="48.259998"
       height="10.160002"
       width="10.160002"
       id="rect1740-1-0-36"
       style="display:inline;fill:#e9e9e9;fill-opacity:0.501961;stroke:none;stroke-width:0.508799;stroke-miterlimit:4;stroke-dasharray:0.508799, 1.0176;stroke-dashoffset:0;stroke-opacity:1" />
    <rect
       y="96.520004"
       x="48.259998"
       height="10.160002"
       width="10.160002"
       id="rect1740-1-0-59"
       style="display:inline;fill:#e9e9e9;fill-opacity:0.501961;stroke:none;stroke-width:0.508799;stroke-miterlimit:4;stroke-dasharray:0.508799, 1.0176;stroke-dashoffset:0;stroke-opacity:1" />
    <rect
       y="111.75999"
       x="48.259998"
       height="10.160002"
       width="10.160002"
       id="rect1740-1-0-54"
       style="display:inline;fill:#e9e9e9;fill-opacity:0.501961;stroke:none;stroke-width:0.508799;stroke-miterlimit:4;stroke-dasharray:0.508799, 1.0176;stroke-dashoffset:0;stroke-opacity:1" />
  </g>
  <g
     sodipodi:insensitive="true"
     inkscape:groupmode="layer"
     id="layer4"
     inkscape:label="text"
     style="display:inline">
    <text
       xml:space="preserve"
       style="font-size:6.35px;line-height:1.25;font-family:Futura;-inkscape-font-specification:Futura;stroke-width:0.264583"
       x="7.9375"
       y="19.84375"
       id="text1987"><tspan
         sodipodi:role="line"
         id="tspan1985"
         x="7.9375"
         y="19.84375"
         style="stroke-width:0.264583" /></text>
    <g
       style="display:inline;opacity:1"
       transform="translate(10.615339,0.03718092)"
       id="g2200">
      <g
         transform="matrix(0.13229166,0,0,0.13229166,-10.822541,109.90112)"
         id="g971">
        <g
           data-v-fde0c5aa=""
           id="b1560e19-ee0a-4c5c-a1e3-872fa4d571f9"
           stroke="none"
           fill="#e9e9e9"
           transform="matrix(0.38004571,0,0,0.38004571,177.21513,100.89119)"
           style="opacity:1;fill:#e9e9e9;fill-opacity:1;filter:url(#filter912);stop-opacity:1">
          <path
             d="M 15.88,75.262 14.006,73.346 35.661,52.171 v -3.915 l 8.825,-8.822 V 27.077 l 3.479,-5.144 V 3.223 h 2.68 v 19.531 l -3.479,5.144 v 12.646 l -8.825,8.823 v 3.931 z"
             id="path844"
             inkscape:connector-curvature="0"
             style="fill:#e9e9e9;fill-opacity:1" />
          <path
             d="m 42.998,72.05 h -2.68 V 49.8 l 6.842,-8.212 h 6.881 L 65.068,28.841 h 10.416 v 2.68 H 66.293 L 55.266,44.268 h -6.851 l -5.417,6.502 z"
             id="path846"
             inkscape:connector-curvature="0"
             style="fill:#e9e9e9;fill-opacity:1" />
          <path
             d="M 59.14,90.004 53.313,84.698 V 71.493 L 45.221,64.634 V 49.942 l 4.004,-3.695 h 10.262 l 3.039,-3.039 1.895,1.895 -3.824,3.824 H 50.271 L 47.9,51.115 v 12.277 l 8.093,6.859 v 13.264 l 4.951,4.508 z M 28.026,51.507 26.194,49.551 41.21,35.488 V 7.773 h 2.68 V 36.65 Z M 41.658,72.05 a 4.2740001,4.2740001 0 1 0 0.002,8.548 4.2740001,4.2740001 0 0 0 -0.002,-8.548 z m -12.62,3.491 a 4.278,4.278 0 0 0 -4.276,4.278 4.272,4.272 0 0 0 4.276,4.272 4.27,4.27 0 0 0 4.271,-4.272 4.277,4.277 0 0 0 -4.271,-4.278 z"
             id="path848"
             inkscape:connector-curvature="0"
             style="fill:#e9e9e9;fill-opacity:1" />
          <circle
             cx="29.038"
             cy="79.819"
             r="2.138"
             id="circle850"
             style="fill:#e9e9e9;fill-opacity:1" />
          <path
             d="m 41.658,88.231 a 4.271,4.271 0 0 0 -4.272,4.27 4.274,4.274 0 1 0 4.272,-4.27 z"
             id="path852"
             inkscape:connector-curvature="0"
             style="fill:#e9e9e9;fill-opacity:1" />
          <path
             d="m 41.658,90.366 a 2.137,2.137 0 1 0 0,4.274 2.136,2.136 0 0 0 2.139,-2.139 2.135,2.135 0 0 0 -2.139,-2.135 z M 11.76,73.409 Z m 0,2.132 a 2.1395,2.1395 0 0 0 0,4.279 2.14,2.14 0 0 0 0,-4.279 z M 66.721,38.318 a 4.272,4.272 0 0 0 -4.27,4.276 4.27,4.27 0 0 0 4.27,4.271 4.271,4.271 0 0 0 4.276,-4.271 4.272,4.272 0 0 0 -4.276,-4.276 z"
             id="path854"
             inkscape:connector-curvature="0"
             style="fill:#e9e9e9;fill-opacity:1" />
          <path
             d="m 66.721,40.455 a 2.139,2.139 0 0 0 0,4.276 c 1.183,0 2.14,-0.963 2.14,-2.137 a 2.14,2.14 0 0 0 -2.14,-2.139 z M 78.856,25.912 a 4.27,4.27 0 0 0 -4.275,4.27 4.273,4.273 0 0 0 4.275,4.278 4.272,4.272 0 0 0 4.274,-4.278 4.267,4.267 0 0 0 -4.274,-4.27 z"
             id="path856"
             inkscape:connector-curvature="0"
             style="fill:#e9e9e9;fill-opacity:1" />
          <path
             d="m 78.856,28.046 a 2.135,2.135 0 0 0 -2.139,2.135 c 0,1.185 0.956,2.137 2.139,2.137 a 2.133,2.133 0 0 0 2.135,-2.137 2.134,2.134 0 0 0 -2.135,-2.135 z M 53.903,51.115 a 4.275,4.275 0 1 0 0,8.55 4.273,4.273 0 0 0 4.27,-4.276 4.274,4.274 0 0 0 -4.27,-4.274 z"
             id="path858"
             inkscape:connector-curvature="0"
             style="fill:#e9e9e9;fill-opacity:1" />
          <path
             d="m 53.903,53.252 a 2.14,2.14 0 1 0 0,4.277 2.136,2.136 0 0 0 2.133,-2.139 2.137,2.137 0 0 0 -2.133,-2.138 z m 11.745,3.477 H 58.173 V 54.05 h 6.313 l 28.098,-30.019 1.957,1.831 z M 24.968,48.798 A 4.275,4.275 0 0 0 20.69,53.07 4.28,4.28 0 0 0 24.968,57.346 4.277,4.277 0 0 0 29.24,53.07 4.272,4.272 0 0 0 24.968,48.798 Z M 62.11,87.126 a 4.2740001,4.2740001 0 1 0 0.002,8.548 4.2740001,4.2740001 0 0 0 -0.002,-8.548 z"
             id="path860"
             inkscape:connector-curvature="0"
             style="fill:#e9e9e9;fill-opacity:1" />
        </g>
      </g>
      <g
         aria-label="Stalys"
         id="text2143"
         style="font-size:3.52777px;line-height:1.25;font-family:Futura;-inkscape-font-specification:Futura;stroke-width:0.264583;filter:url(#filter2180)">
        <path
           inkscape:connector-curvature="0"
           d="m 19.395719,124.86158 q -0.04233,-0.11642 -0.148166,-0.18344 -0.105833,-0.067 -0.246944,-0.067 -0.109361,0 -0.204611,0.0423 -0.09172,0.0423 -0.162277,0.11289 -0.06703,0.067 -0.105833,0.15875 -0.03528,0.0917 -0.03528,0.1905 0,0.0953 0.02822,0.16228 0.02822,0.067 0.08114,0.11994 0.05292,0.0529 0.123472,0.0988 0.07056,0.0459 0.155222,0.0953 0.08114,0.0494 0.155222,0.0988 0.07408,0.0459 0.130527,0.10936 0.05645,0.06 0.08819,0.14464 0.03528,0.0811 0.03528,0.20108 0,0.14111 -0.0635,0.28928 -0.0635,0.14816 -0.186971,0.27163 -0.119945,0.11995 -0.299861,0.19403 -0.179916,0.0741 -0.416277,0.0741 -0.134055,0 -0.264582,-0.0282 -0.127,-0.0247 -0.239889,-0.0917 0.03528,-0.067 0.0635,-0.13405 0.03175,-0.0706 0.05292,-0.13759 h 0.02469 q 0.0388,0.0741 0.09878,0.12347 0.0635,0.0494 0.130527,0.0811 0.07055,0.0282 0.141111,0.0423 0.07055,0.0106 0.123472,0.0106 0.137583,0 0.243416,-0.0529 0.109361,-0.0564 0.179916,-0.14111 0.07056,-0.0847 0.105833,-0.18697 0.03881,-0.1023 0.03881,-0.19403 0,-0.0953 -0.03175,-0.16227 -0.02822,-0.0706 -0.07761,-0.12348 -0.04939,-0.0529 -0.119944,-0.0988 -0.06703,-0.0459 -0.141111,-0.0953 -0.08114,-0.0494 -0.15875,-0.0988 -0.07408,-0.0529 -0.134055,-0.11642 -0.05644,-0.067 -0.09172,-0.15169 -0.03528,-0.0882 -0.03528,-0.20814 0,-0.15169 0.0635,-0.28222 0.0635,-0.13406 0.176389,-0.22931 0.116416,-0.0988 0.271638,-0.15522 0.15875,-0.0564 0.345721,-0.0564 0.172861,0 0.282222,0.0388 0.109361,0.0388 0.169333,0.067 -0.04586,0.0811 -0.07056,0.13406 -0.02117,0.0494 -0.04939,0.13405 h -0.0247 z"
           style="font-style:italic;font-variant:normal;font-weight:normal;font-stretch:normal;font-family:Optima;-inkscape-font-specification:'Optima Italic';fill:#e9e9e9;fill-opacity:1;stroke-width:0.264583"
           id="path2145" />
        <path
           inkscape:connector-curvature="0"
           d="m 20.376439,124.82278 q -0.03528,0.12347 -0.0635,0.24341 -0.0247,0.11995 -0.05292,0.24342 0.08114,0 0.176389,-0.004 0.09878,-0.007 0.190499,-0.0106 -0.02117,0.0741 -0.02117,0.14464 -0.09172,-0.004 -0.194027,-0.007 -0.09878,-0.007 -0.179916,-0.007 l -0.137583,0.66322 q -0.01058,0.0564 -0.0247,0.127 -0.01411,0.067 -0.02822,0.13406 -0.01058,0.067 -0.02117,0.13053 -0.0071,0.06 -0.0071,0.1023 0,0.0706 0.02469,0.11995 0.02469,0.0494 0.05997,0.0811 0.0388,0.0282 0.08114,0.0423 0.04586,0.0141 0.08467,0.0141 0.05997,0 0.119944,-0.0176 0.05997,-0.0212 0.112889,-0.0529 l -0.0071,0.0917 q -0.07055,0.0564 -0.172861,0.0776 -0.09878,0.0212 -0.186971,0.0212 -0.06703,0 -0.137583,-0.0212 -0.06703,-0.0176 -0.119945,-0.0564 -0.05292,-0.0388 -0.08819,-0.0988 -0.03175,-0.0635 -0.03175,-0.14464 0,-0.0706 0.01411,-0.14817 0.01764,-0.0776 0.03528,-0.1658 0.0388,-0.17992 0.0635,-0.29281 0.02469,-0.11289 0.04233,-0.20108 0.02117,-0.0917 0.0388,-0.17992 0.01764,-0.0917 0.04586,-0.22578 -0.04939,0 -0.112889,0.004 -0.05997,0 -0.119944,0.004 0.01058,-0.0282 0.01411,-0.0564 0.0071,-0.0282 0.0071,-0.0811 0.05644,0.004 0.116417,0.0106 0.0635,0.004 0.109361,0.004 l 0.0635,-0.37395 0.306916,-0.11288 z"
           style="font-style:italic;font-variant:normal;font-weight:normal;font-stretch:normal;font-family:Optima;-inkscape-font-specification:'Optima Italic';fill:#e9e9e9;fill-opacity:1;stroke-width:0.264583"
           id="path2147" />
        <path
           inkscape:connector-curvature="0"
           d="m 20.933386,126.54786 q 0,0.13052 0.08114,0.20108 0.08467,0.067 0.194027,0.067 0.148167,0 0.264583,-0.0811 0.116416,-0.0811 0.197555,-0.19756 0.02117,-0.12347 0.04586,-0.24341 0.0247,-0.12348 0.05997,-0.24695 -0.08114,0.0176 -0.158749,0.0318 -0.07761,0.0141 -0.15875,0.0318 -0.08819,0.0212 -0.183444,0.0529 -0.09172,0.0282 -0.169333,0.0811 -0.07408,0.0494 -0.123472,0.12347 -0.04939,0.0741 -0.04939,0.17992 z m 0.105833,-1.12889 q 0.134056,-0.0917 0.271639,-0.13758 0.14111,-0.0494 0.29986,-0.0494 0.22225,0 0.352777,0.10936 0.134055,0.10936 0.134055,0.28222 0,0.0741 -0.01764,0.15169 -0.01411,0.0776 -0.02469,0.12348 l -0.102305,0.43038 q -0.02822,0.11289 -0.03881,0.18698 -0.01058,0.0741 -0.01058,0.12699 0,0.0635 0.03175,0.11289 0.03528,0.0459 0.105833,0.0459 0.03175,0 0.05292,-0.007 0.02469,-0.0106 0.04233,-0.0247 l 0.01764,0.0741 q -0.05997,0.0388 -0.123472,0.06 -0.0635,0.0212 -0.137583,0.0212 -0.109361,0 -0.169333,-0.0564 -0.05645,-0.06 -0.0635,-0.16933 -0.105833,0.11289 -0.243416,0.1905 -0.134056,0.0741 -0.306916,0.0741 -0.07761,0 -0.155222,-0.0212 -0.07761,-0.0212 -0.141111,-0.067 -0.05997,-0.0494 -0.09878,-0.11995 -0.0388,-0.0741 -0.0388,-0.1658 0,-0.16933 0.08819,-0.27517 0.08819,-0.10583 0.211666,-0.1658 0.123472,-0.0635 0.254,-0.0917 0.130527,-0.0318 0.211666,-0.0494 0.07055,-0.0141 0.151694,-0.0247 0.08114,-0.0141 0.130528,-0.0353 0.07408,-0.0318 0.09172,-0.10936 0.02117,-0.0776 0.02117,-0.15169 0,-0.15875 -0.102305,-0.23283 -0.102305,-0.0776 -0.250472,-0.0776 -0.148166,0 -0.253999,0.067 -0.102305,0.0635 -0.197555,0.16581 h -0.04233 z"
           style="font-style:italic;font-variant:normal;font-weight:normal;font-stretch:normal;font-family:Optima;-inkscape-font-specification:'Optima Italic';fill:#e9e9e9;fill-opacity:1;stroke-width:0.264583"
           id="path2149" />
        <path
           inkscape:connector-curvature="0"
           d="m 23.30052,124.29714 q -0.01411,0.0459 -0.05644,0.21872 -0.03881,0.16933 -0.09525,0.41275 -0.05292,0.24341 -0.116416,0.53269 -0.0635,0.28575 -0.123472,0.56445 -0.05645,0.27516 -0.102306,0.51858 -0.04586,0.23989 -0.07055,0.381 -0.02822,-0.004 -0.0635,-0.004 -0.03175,0 -0.08114,0 -0.04586,0 -0.08114,0 -0.03175,0 -0.05997,0.004 0.05644,-0.20461 0.112888,-0.4445 0.05997,-0.24342 0.116417,-0.49389 0.05644,-0.25047 0.105833,-0.49742 0.05292,-0.24694 0.09525,-0.46919 0.04233,-0.22225 0.07408,-0.40922 0.03175,-0.18697 0.04939,-0.31397 0.05292,0.0141 0.134056,0.0141 0.0388,0 0.08114,-0.004 0.04233,-0.004 0.08114,-0.0106 z"
           style="font-style:italic;font-variant:normal;font-weight:normal;font-stretch:normal;font-family:Optima;-inkscape-font-specification:'Optima Italic';fill:#e9e9e9;fill-opacity:1;stroke-width:0.264583"
           id="path2151" />
        <path
           inkscape:connector-curvature="0"
           d="m 24.063345,126.60783 q 0.07055,-0.127 0.144638,-0.254 0.07761,-0.13053 0.148167,-0.26106 0.109361,-0.20108 0.176388,-0.32455 0.07056,-0.127 0.112889,-0.20461 0.04233,-0.0811 0.0635,-0.127 0.02117,-0.0459 0.0388,-0.0882 l 0.03528,-0.0847 q 0.05292,0.0141 0.123472,0.0141 0.07055,0 0.112889,-0.0141 -0.194028,0.30691 -0.395111,0.63147 -0.201083,0.32455 -0.39511,0.65616 -0.194027,0.33161 -0.377471,0.65617 -0.179917,0.32455 -0.331611,0.635 -0.0388,-0.0141 -0.112888,-0.0141 -0.07056,0 -0.109361,0.0141 0.148166,-0.23284 0.296332,-0.4692 0.148167,-0.23636 0.282222,-0.45155 -0.105833,-0.43392 -0.211666,-0.83256 -0.102305,-0.40216 -0.215194,-0.82549 0.03175,0.007 0.07055,0.0106 0.03881,0.004 0.07761,0.004 0.08467,0 0.137583,-0.0141 0.04233,0.24341 0.119944,0.58561 0.07761,0.34219 0.1905,0.75847 h 0.01764 z"
           style="font-style:italic;font-variant:normal;font-weight:normal;font-stretch:normal;font-family:Optima;-inkscape-font-specification:'Optima Italic';fill:#e9e9e9;fill-opacity:1;stroke-width:0.264583"
           id="path2153" />
        <path
           inkscape:connector-curvature="0"
           d="m 26.088285,125.54597 q -0.02822,-0.0988 -0.109361,-0.1517 -0.07761,-0.0564 -0.179916,-0.0564 -0.07761,0 -0.141111,0.0318 -0.05997,0.0282 -0.105833,0.0776 -0.04233,0.0459 -0.06703,0.10583 -0.02117,0.06 -0.02117,0.11995 0,0.0635 0.02469,0.11289 0.02469,0.0459 0.06703,0.0811 0.04233,0.0353 0.09525,0.0635 0.05645,0.0282 0.116417,0.0529 0.05644,0.0247 0.112888,0.0564 0.05645,0.0282 0.102306,0.0705 0.04586,0.0423 0.07408,0.10231 0.02822,0.06 0.02822,0.14464 0,0.12347 -0.05644,0.23636 -0.05645,0.10936 -0.155222,0.19402 -0.09525,0.0847 -0.229305,0.13053 -0.130528,0.0459 -0.285749,0.0459 -0.109361,0 -0.201083,-0.0212 -0.08819,-0.0212 -0.179917,-0.0706 0.03881,-0.0635 0.06703,-0.13053 0.02822,-0.067 0.04586,-0.10583 h 0.02469 q 0.03881,0.10583 0.134056,0.15875 0.09878,0.0529 0.215194,0.0529 0.102305,0 0.17286,-0.0353 0.07408,-0.0353 0.119945,-0.0882 0.04586,-0.0529 0.06703,-0.11641 0.02469,-0.067 0.02469,-0.12347 0,-0.11289 -0.07056,-0.16934 -0.07055,-0.0564 -0.211666,-0.11994 -0.05644,-0.0247 -0.116416,-0.0564 -0.05645,-0.0318 -0.102306,-0.0776 -0.04586,-0.0459 -0.07408,-0.10936 -0.02822,-0.067 -0.02822,-0.16228 0,-0.0917 0.03528,-0.1905 0.03528,-0.0988 0.10936,-0.18344 0.07761,-0.0847 0.201083,-0.13758 0.123472,-0.0564 0.299861,-0.0564 0.09525,0 0.165805,0.0176 0.07055,0.0141 0.155222,0.0529 -0.05292,0.11994 -0.07056,0.16933 -0.01411,0.0494 -0.02117,0.0847 h -0.03175 z"
           style="font-style:italic;font-variant:normal;font-weight:normal;font-stretch:normal;font-family:Optima;-inkscape-font-specification:'Optima Italic';fill:#e9e9e9;fill-opacity:1;stroke-width:0.264583"
           id="path2155" />
      </g>
    </g>
    <g
       transform="translate(-0.47725646,1.2570025)"
       style="font-size:3.52777px;line-height:1.25;font-family:Futura;-inkscape-font-specification:Futura;stroke-width:0.264583"
       id="text12280"
       aria-label="8 Comparator">
      <path
         inkscape:connector-curvature="0"
         id="path12282"
         style="font-style:italic;font-variant:normal;font-weight:normal;font-stretch:normal;font-family:Optima;-inkscape-font-specification:'Optima Italic';fill:#e9e9e9;fill-opacity:1;stroke-width:0.264583"
         d="m 20.764499,2.0320011 q 0,0.084666 0.02117,0.1693329 0.02469,0.081139 0.07408,0.1446386 0.04939,0.0635 0.123471,0.1023053 0.07761,0.038806 0.186972,0.038806 0.148167,0 0.257527,-0.070555 0.112889,-0.074083 0.183445,-0.183444 0.07408,-0.1128887 0.10936,-0.2434162 0.03528,-0.1340552 0.03528,-0.2539994 0,-0.1164164 -0.03175,-0.1975551 -0.03175,-0.084666 -0.08819,-0.1375831 -0.05292,-0.056444 -0.127,-0.081139 -0.07408,-0.028222 -0.155222,-0.028222 -0.151694,0 -0.264582,0.074083 -0.112889,0.074083 -0.183444,0.1869718 -0.07056,0.1093609 -0.105834,0.2398884 -0.03528,0.1269997 -0.03528,0.2398884 z m 0.338666,-1.18885853 q 0,0.16227743 0.07761,0.25752723 0.07761,0.09525 0.246943,0.09525 0.102306,0 0.186972,-0.045861 0.08467,-0.045861 0.141111,-0.123472 0.05997,-0.0776109 0.09172,-0.17638849 0.03175,-0.0987776 0.03175,-0.20461066 0,-0.14816634 -0.08114,-0.25047167 -0.07761,-0.10230534 -0.23636,-0.10230534 -0.0882,0 -0.172861,0.0388055 -0.08114,0.0388055 -0.144639,0.11288864 -0.0635,0.0705554 -0.102305,0.17286073 -0.0388,0.10230533 -0.0388,0.22577728 z m 0.945442,0.90663693 q 0,0.1481663 -0.05997,0.2998604 -0.05644,0.1481664 -0.172861,0.2681105 -0.112888,0.1199442 -0.278694,0.1940274 -0.165805,0.070555 -0.380999,0.070555 -0.123472,0 -0.246944,-0.028222 -0.119944,-0.024694 -0.215194,-0.091722 -0.09525,-0.070555 -0.155222,-0.1799163 -0.05644,-0.1128886 -0.05644,-0.2716382 0,-0.1481664 0.04586,-0.2751661 0.04939,-0.1305275 0.134055,-0.2293051 0.0882,-0.1023053 0.211667,-0.1693329 0.126999,-0.070555 0.282221,-0.098778 V 1.220614 Q 21.096116,1.202975 21.03967,1.171225 20.98322,1.135947 20.937364,1.083031 q -0.04586,-0.052917 -0.07408,-0.11994415 -0.02469,-0.0705554 -0.02469,-0.15522188 0,-0.10230533 0.0388,-0.2116662 0.04233,-0.10936087 0.130528,-0.20108289 0.08819,-0.091722 0.229305,-0.14816635 0.144638,-0.0599721 0.349249,-0.0599721 0.179916,0 0.289277,0.0529166 0.112889,0.0493888 0.172861,0.12347196 0.0635,0.0705554 0.08114,0.15169411 0.02117,0.0776109 0.02117,0.13758303 0,0.11994418 -0.04233,0.21519397 -0.0388,0.0952498 -0.109361,0.1658052 -0.07055,0.070555 -0.162277,0.1199441 -0.09172,0.049389 -0.197555,0.077611 v 0.017639 q 0.194027,0.049389 0.29986,0.1869718 0.109361,0.1340553 0.109361,0.3139716 z" />
      <path
         inkscape:connector-curvature="0"
         id="path12284"
         style="font-style:italic;font-variant:normal;font-weight:normal;font-stretch:normal;font-family:Optima;-inkscape-font-specification:'Optima Italic';fill:#e9e9e9;fill-opacity:1;stroke-width:0.264583"
         d="m 25.385823,2.2507228 q -0.02469,0.059972 -0.03528,0.098778 -0.01058,0.035278 -0.02117,0.088194 -0.09172,0.045861 -0.264583,0.098778 -0.17286,0.052917 -0.430387,0.052917 -0.22225,0 -0.430388,-0.056444 -0.204611,-0.056444 -0.363361,-0.183444 -0.155222,-0.1305275 -0.250471,-0.3316104 -0.09525,-0.2010829 -0.09525,-0.4833045 0,-0.2963327 0.102305,-0.55738767 0.105833,-0.26105498 0.299861,-0.45508233 0.197555,-0.19755512 0.479776,-0.31044377 0.28575,-0.11288864 0.642054,-0.11288864 0.179917,0 0.345722,0.02822216 0.169333,0.0282222 0.328083,0.10936087 -0.04586,0.0846665 -0.07056,0.14463858 -0.02117,0.0564443 -0.03175,0.091722 -0.02469,-0.0246944 -0.07408,-0.0670276 -0.04939,-0.0423332 -0.127,-0.0811387 -0.07761,-0.0423332 -0.186971,-0.0705554 -0.105834,-0.0317499 -0.246944,-0.0317499 -0.278694,0 -0.493888,0.11288865 -0.215194,0.11288864 -0.359833,0.30338822 -0.144638,0.18697181 -0.222249,0.43038803 -0.07408,0.2398883 -0.07408,0.4974155 0,0.2504717 0.05997,0.398638 0.0635,0.1446386 0.144638,0.2328329 0.127,0.137583 0.296333,0.2010829 0.169333,0.0635 0.349249,0.0635 0.1905,0 0.370416,-0.059972 0.183444,-0.0635 0.345721,-0.1693329 l 0.01411,0.017639 z" />
      <path
         inkscape:connector-curvature="0"
         id="path12286"
         style="font-style:italic;font-variant:normal;font-weight:normal;font-stretch:normal;font-family:Optima;-inkscape-font-specification:'Optima Italic';fill:#e9e9e9;fill-opacity:1;stroke-width:0.264583"
         d="m 26.010128,1.9649734 q 0,0.2222496 0.102305,0.3668881 0.105833,0.1446386 0.345721,0.1446386 0.201083,0 0.338666,-0.1058331 0.137583,-0.1093609 0.225778,-0.2645828 0.08819,-0.1552218 0.126999,-0.3280826 0.03881,-0.1728607 0.03881,-0.3033882 0,-0.1093609 -0.03175,-0.2010829 -0.02822,-0.09525 -0.08819,-0.1622774 -0.05997,-0.070555 -0.148167,-0.1093609 -0.08819,-0.0388054 -0.201083,-0.0388054 -0.190499,0 -0.328082,0.1023053 -0.134056,0.1023053 -0.218722,0.2539994 -0.08467,0.1481664 -0.123472,0.3245549 -0.0388,0.1728607 -0.0388,0.321027 z M 25.731434,1.880307 q 0,-0.1904996 0.06703,-0.3739437 0.07056,-0.183444 0.197555,-0.3280826 0.127,-0.1481663 0.310444,-0.23636057 0.183444,-0.091722 0.409222,-0.091722 0.208138,0 0.352777,0.0599721 0.144638,0.0564443 0.232832,0.15169407 0.0882,0.09525 0.127,0.2187218 0.03881,0.1234719 0.03881,0.2575272 0,0.1940273 -0.07056,0.3845269 -0.07055,0.1869718 -0.201083,0.3351382 -0.130527,0.1481663 -0.313971,0.2363606 -0.183444,0.084666 -0.412749,0.084666 -0.218722,0 -0.363361,-0.0635 -0.14111,-0.0635 -0.225777,-0.1658052 -0.08114,-0.1058331 -0.116416,-0.2293051 -0.03175,-0.1269997 -0.03175,-0.2398883 z" />
      <path
         inkscape:connector-curvature="0"
         id="path12288"
         style="font-style:italic;font-variant:normal;font-weight:normal;font-stretch:normal;font-family:Optima;-inkscape-font-specification:'Optima Italic';fill:#e9e9e9;fill-opacity:1;stroke-width:0.264583"
         d="m 28.224299,1.1465308 q 0.03175,-0.03175 0.08114,-0.077611 0.04939,-0.049389 0.119944,-0.0952498 0.07056,-0.045861 0.162277,-0.0776109 0.09525,-0.0317499 0.215194,-0.0317499 0.127,0 0.204611,0.0352777 0.08114,0.0352777 0.127,0.0881942 0.04939,0.0529166 0.07055,0.1128887 0.02117,0.056444 0.03175,0.1058331 0.04233,-0.052917 0.09878,-0.1128887 0.05644,-0.059972 0.130527,-0.10936087 0.07408,-0.0529166 0.169333,-0.0846665 0.09525,-0.0352777 0.218722,-0.0352777 0.116416,0 0.201083,0.0352777 0.08467,0.0317499 0.14111,0.0846665 0.05997,0.0529165 0.0882,0.11994427 0.02822,0.067028 0.02822,0.1340552 0,0.056444 -0.01764,0.1411108 -0.01411,0.084666 -0.03528,0.1869718 l -0.134055,0.6420542 q -0.03175,0.1516941 -0.04233,0.229305 -0.0071,0.074083 -0.01411,0.1058331 Q 30.041101,2.54 30.005823,2.54 q -0.03528,0 -0.07408,0 -0.03881,0 -0.07761,0 -0.03881,0 -0.07408,0.00353 0.01411,-0.03175 0.0388,-0.1234719 0.02822,-0.09525 0.05644,-0.215194 0.03175,-0.1199442 0.0635,-0.2504717 0.03175,-0.1340552 0.05645,-0.2539994 0.02822,-0.1199442 0.04233,-0.215194 0.01764,-0.098777 0.01764,-0.1446386 0,-0.1481663 -0.09172,-0.229305 -0.08819,-0.081139 -0.229305,-0.081139 -0.06703,0 -0.144639,0.024694 -0.07408,0.021167 -0.144639,0.070555 -0.06703,0.045861 -0.126999,0.1234719 -0.05645,0.074083 -0.08819,0.1834441 -0.02117,0.070555 -0.05292,0.2187217 -0.03175,0.1446386 -0.06703,0.3139715 -0.03175,0.1658052 -0.0635,0.3280827 -0.02822,0.1587496 -0.04233,0.2504716 Q 28.975714,2.54 28.936909,2.54 q -0.03528,0 -0.06703,0 -0.03881,0 -0.07761,0 -0.0388,0 -0.07408,0.00353 0.01764,-0.052916 0.04586,-0.1516941 0.02822,-0.098778 0.05644,-0.2187217 0.02822,-0.1199442 0.05644,-0.2504717 0.03175,-0.1305275 0.05645,-0.2469439 0.02469,-0.1199442 0.0388,-0.215194 0.01411,-0.09525 0.01411,-0.1481663 0,-0.081139 -0.03175,-0.1340553 -0.02822,-0.052917 -0.07408,-0.084666 -0.04233,-0.035278 -0.09878,-0.049389 -0.05645,-0.014111 -0.109361,-0.014111 -0.02822,0 -0.09525,0.010583 -0.0635,0.010583 -0.141111,0.052917 -0.07408,0.038806 -0.148166,0.1199442 -0.07408,0.081139 -0.119944,0.2257773 -0.02117,0.067028 -0.05645,0.2187218 -0.03175,0.1516941 -0.0635,0.3245548 -0.03175,0.1728607 -0.05997,0.3316104 -0.02822,0.1587496 -0.0388,0.229305 Q 27.920911,2.54 27.882105,2.54 q -0.03528,0 -0.07408,0 -0.0388,0 -0.07761,0 -0.03528,0 -0.0635,0.00353 0.02822,-0.091722 0.05997,-0.2257773 0.03528,-0.137583 0.07056,-0.2892771 0.03528,-0.1516941 0.07055,-0.3139715 0.03528,-0.1622775 0.0635,-0.3139716 0.03175,-0.1516941 0.05292,-0.2857493 0.02469,-0.1340553 0.03528,-0.23283286 0.02117,0.007056 0.05645,0.0105833 0.03528,0.003528 0.06703,0.003528 0.08467,0 0.144639,-0.0141111 l -0.07056,0.26458276 z" />
      <path
         inkscape:connector-curvature="0"
         id="path12290"
         style="font-style:italic;font-variant:normal;font-weight:normal;font-stretch:normal;font-family:Optima;-inkscape-font-specification:'Optima Italic';fill:#e9e9e9;fill-opacity:1;stroke-width:0.264583"
         d="m 31.028821,1.9896678 q 0,0.1446386 0.04233,0.2363606 0.04233,0.091722 0.105833,0.1446386 0.0635,0.052917 0.137583,0.074083 0.07408,0.017639 0.134055,0.017639 0.190499,0 0.321027,-0.1093609 0.134055,-0.1093608 0.215194,-0.2610549 0.08114,-0.1552219 0.116416,-0.3210271 0.03881,-0.1658052 0.03881,-0.2786938 0,-0.1375831 -0.03881,-0.2293051 -0.03881,-0.09525 -0.102305,-0.1516941 -0.05997,-0.059972 -0.137583,-0.084667 -0.07408,-0.024694 -0.148166,-0.024694 -0.141111,0 -0.246944,0.0635 -0.105833,0.059972 -0.183444,0.1552219 -0.07408,0.09525 -0.123472,0.2116662 -0.04939,0.1164164 -0.07761,0.2257773 -0.02822,0.1093608 -0.04233,0.2010828 -0.01058,0.088194 -0.01058,0.1305275 z M 30.958266,2.233084 Q 30.898294,2.54 30.834794,2.861027 q -0.0635,0.3245549 -0.116416,0.5997209 -0.04233,-0.014111 -0.119945,-0.014111 -0.07761,0 -0.137583,0.014111 0.04586,-0.1975551 0.09525,-0.4409712 0.04939,-0.2398884 0.102305,-0.49036 0.05292,-0.2539995 0.105834,-0.5150545 0.05292,-0.261055 0.102305,-0.4974156 0.03175,-0.1587496 0.05644,-0.3174993 0.02822,-0.1587496 0.05997,-0.31749926 0.02822,0.007056 0.0635,0.0105833 0.03881,0.003528 0.07408,0.003528 0.02822,0 0.0635,-0.003528 0.03881,-0.003528 0.06703,-0.0105833 -0.02117,0.0846665 -0.03528,0.14463856 -0.01411,0.059972 -0.03175,0.1622774 0.03528,-0.049389 0.08819,-0.1058331 0.05645,-0.059972 0.134056,-0.10936084 0.07761,-0.0529165 0.176388,-0.0881943 0.09878,-0.0352777 0.225777,-0.0352777 0.07408,0 0.179917,0.0211666 0.105833,0.0211666 0.201083,0.091722 0.09525,0.0670277 0.162277,0.19402734 0.06703,0.1269997 0.06703,0.3386659 0,0.1975552 -0.06703,0.3951103 -0.0635,0.1940273 -0.183444,0.3492492 -0.119944,0.1552219 -0.292805,0.2504717 -0.169333,0.091722 -0.384527,0.091722 -0.08467,0 -0.169333,-0.017639 -0.08114,-0.017639 -0.151694,-0.052917 -0.07055,-0.038806 -0.123472,-0.1058331 -0.05292,-0.070555 -0.07761,-0.1728607 z" />
      <path
         inkscape:connector-curvature="0"
         id="path12292"
         style="font-style:italic;font-variant:normal;font-weight:normal;font-stretch:normal;font-family:Optima;-inkscape-font-specification:'Optima Italic';fill:#e9e9e9;fill-opacity:1;stroke-width:0.264583"
         d="m 32.892256,2.1660563 q 0,0.1305275 0.08114,0.2010829 0.08467,0.067028 0.194027,0.067028 0.148166,0 0.264583,-0.081139 0.116416,-0.081139 0.197555,-0.1975551 0.02117,-0.1234719 0.04586,-0.2434161 0.02469,-0.123472 0.05997,-0.2469439 -0.08114,0.017639 -0.15875,0.03175 -0.07761,0.014111 -0.158749,0.03175 -0.08819,0.021167 -0.183444,0.052917 -0.09172,0.028222 -0.169333,0.081139 -0.07408,0.049389 -0.123472,0.123472 -0.04939,0.074083 -0.04939,0.1799162 z m 0.105833,-1.1288864 q 0.134055,-0.091722 0.271638,-0.13758301 0.141111,-0.0493888 0.299861,-0.0493888 0.222249,0 0.352777,0.10936087 0.134055,0.10936094 0.134055,0.28222164 0,0.074083 -0.01764,0.1516941 -0.01411,0.077611 -0.02469,0.1234719 l -0.102306,0.430388 q -0.02822,0.1128886 -0.0388,0.1869718 -0.01058,0.074083 -0.01058,0.1269997 0,0.0635 0.03175,0.1128887 0.03528,0.045861 0.105833,0.045861 0.03175,0 0.05292,-0.00706 0.0247,-0.010583 0.04233,-0.024694 l 0.01764,0.074083 q -0.05997,0.038806 -0.123472,0.059972 -0.0635,0.021167 -0.137583,0.021167 -0.109361,0 -0.169333,-0.056444 -0.05644,-0.059972 -0.0635,-0.169333 -0.105834,0.1128887 -0.243417,0.1904996 -0.134055,0.074083 -0.306916,0.074083 -0.07761,0 -0.155222,-0.021167 -0.07761,-0.021167 -0.14111,-0.067028 -0.05997,-0.049389 -0.09878,-0.1199442 -0.0388,-0.074083 -0.0388,-0.1658052 0,-0.169333 0.08819,-0.2751661 0.08819,-0.1058331 0.211666,-0.1658052 0.123472,-0.0635 0.254,-0.091722 0.130527,-0.03175 0.211666,-0.049389 0.07055,-0.014111 0.151694,-0.024694 0.08114,-0.014111 0.130527,-0.035278 0.07408,-0.03175 0.09172,-0.1093608 0.02117,-0.077611 0.02117,-0.1516942 0,-0.1587496 -0.102305,-0.2328328 Q 33.590766,0.994832 33.4426,0.994832 q -0.148166,0 -0.253999,0.0670276 -0.102306,0.0635 -0.197556,0.1658052 H 32.9487 Z" />
      <path
         inkscape:connector-curvature="0"
         id="path12294"
         style="font-style:italic;font-variant:normal;font-weight:normal;font-stretch:normal;font-family:Optima;-inkscape-font-specification:'Optima Italic';fill:#e9e9e9;fill-opacity:1;stroke-width:0.264583"
         d="m 35.453416,1.1606419 q -0.02822,-0.010583 -0.0635,-0.021167 -0.03528,-0.010583 -0.07761,-0.010583 -0.123472,0 -0.243416,0.1058331 -0.116417,0.1023054 -0.176389,0.3139716 -0.0071,0.014111 -0.02469,0.081139 -0.01411,0.067028 -0.03528,0.1622774 -0.02117,0.091722 -0.04586,0.2046107 -0.02117,0.1093608 -0.04233,0.2151939 -0.02117,0.1058331 -0.03881,0.1975552 -0.01411,0.088194 -0.02117,0.1340552 Q 34.65614,2.54 34.62439,2.54 q -0.03175,0 -0.07055,0 -0.0388,0 -0.07761,0 -0.03528,0 -0.06703,0.00353 0.02117,-0.059972 0.05292,-0.183444 0.03175,-0.1269997 0.06703,-0.2822216 0.03528,-0.1552219 0.07055,-0.3280826 0.03881,-0.1728608 0.06703,-0.3351382 0.03175,-0.1622774 0.05644,-0.2998604 0.02469,-0.14111084 0.03528,-0.23283286 0.02822,0.007056 0.0635,0.0105833 0.03881,0.003528 0.07408,0.003528 0.07761,0 0.130527,-0.0141111 -0.0071,0.0211666 -0.02117,0.0634999 -0.01058,0.0388055 -0.0247,0.091722 -0.01411,0.052917 -0.02822,0.1128887 -0.01058,0.056444 -0.01764,0.1128886 h 0.01764 q 0.05644,-0.070555 0.112889,-0.1446386 0.05997,-0.074083 0.123472,-0.13052674 0.06703,-0.0599721 0.148166,-0.0952498 0.08114,-0.0388055 0.183444,-0.0352777 -0.01764,0.0881943 -0.02822,0.15522114 -0.0071,0.0635 -0.0071,0.1305275 l -0.03175,0.017639 z" />
      <path
         inkscape:connector-curvature="0"
         id="path12296"
         style="font-style:italic;font-variant:normal;font-weight:normal;font-stretch:normal;font-family:Optima;-inkscape-font-specification:'Optima Italic';fill:#e9e9e9;fill-opacity:1;stroke-width:0.264583"
         d="m 35.792528,2.1660563 q 0,0.1305275 0.08114,0.2010829 0.08467,0.067028 0.194027,0.067028 0.148167,0 0.264583,-0.081139 0.116416,-0.081139 0.197555,-0.1975551 0.02117,-0.1234719 0.04586,-0.2434161 0.0247,-0.123472 0.05997,-0.2469439 -0.08114,0.017639 -0.158749,0.03175 -0.07761,0.014111 -0.15875,0.03175 -0.08819,0.021167 -0.183444,0.052917 -0.09172,0.028222 -0.169333,0.081139 -0.07408,0.049389 -0.123472,0.123472 -0.04939,0.074083 -0.04939,0.1799162 z M 35.898361,1.0371699 Q 36.032417,0.9454479 36.17,0.89958689 q 0.14111,-0.0493888 0.29986,-0.0493888 0.22225,0 0.352777,0.10936087 0.134055,0.10936094 0.134055,0.28222164 0,0.074083 -0.01764,0.1516941 -0.01411,0.077611 -0.0247,0.1234719 l -0.102305,0.430388 q -0.02822,0.1128886 -0.03881,0.1869718 -0.01058,0.074083 -0.01058,0.1269997 0,0.0635 0.03175,0.1128887 0.03528,0.045861 0.105833,0.045861 0.03175,0 0.05292,-0.00706 0.02469,-0.010583 0.04233,-0.024694 l 0.01764,0.074083 q -0.05997,0.038806 -0.123472,0.059972 -0.0635,0.021167 -0.137583,0.021167 -0.109361,0 -0.169333,-0.056444 -0.05644,-0.059972 -0.0635,-0.169333 -0.105833,0.1128887 -0.243416,0.1904996 -0.134056,0.074083 -0.306916,0.074083 -0.07761,0 -0.155222,-0.021167 Q 35.736084,2.54 35.672584,2.494139 35.612614,2.44475 35.573804,2.3741948 q -0.03881,-0.074083 -0.03881,-0.1658052 0,-0.169333 0.08819,-0.2751661 0.08819,-0.1058331 0.211666,-0.1658052 0.123472,-0.0635 0.254,-0.091722 0.130527,-0.03175 0.211666,-0.049389 0.07056,-0.014111 0.151694,-0.024694 0.08114,-0.014111 0.130528,-0.035278 0.07408,-0.03175 0.09172,-0.1093608 0.02117,-0.077611 0.02117,-0.1516942 0,-0.1587496 -0.102305,-0.2328328 -0.102305,-0.0776109 -0.250472,-0.0776109 -0.148166,0 -0.253999,0.0670276 -0.102305,0.0635 -0.197555,0.1658052 h -0.04233 z" />
      <path
         inkscape:connector-curvature="0"
         id="path12298"
         style="font-style:italic;font-variant:normal;font-weight:normal;font-stretch:normal;font-family:Optima;-inkscape-font-specification:'Optima Italic';fill:#e9e9e9;fill-opacity:1;stroke-width:0.264583"
         d="m 38.047264,0.44097679 q -0.03528,0.12347195 -0.0635,0.24341613 -0.02469,0.11994418 -0.05292,0.24341613 0.08114,0 0.176388,-0.003528 0.09878,-0.007056 0.1905,-0.0105833 -0.02117,0.0740832 -0.02117,0.14463855 -0.09172,-0.00353 -0.194027,-0.00706 -0.09878,-0.00706 -0.179917,-0.00706 L 37.765035,1.707437 q -0.01058,0.056444 -0.02469,0.1269998 -0.01411,0.067028 -0.02822,0.1340552 -0.01058,0.067028 -0.02117,0.1305275 -0.0071,0.059972 -0.0071,0.1023053 0,0.070555 0.02469,0.1199442 0.02469,0.049389 0.05997,0.081139 0.03881,0.028222 0.08114,0.042333 0.04586,0.014111 0.08467,0.014111 0.05997,0 0.119945,-0.017639 0.05997,-0.021167 0.112888,-0.052916 l -0.0071,0.091722 q -0.07056,0.056444 -0.172861,0.077611 -0.09878,0.021167 -0.186972,0.021167 -0.06703,0 -0.137583,-0.021167 -0.06703,-0.017639 -0.119944,-0.056444 -0.05292,-0.038806 -0.08819,-0.098778 -0.03175,-0.0635 -0.03175,-0.1446385 0,-0.070555 0.01411,-0.1481664 0.01764,-0.077611 0.03528,-0.1658052 0.03881,-0.1799162 0.0635,-0.2928049 0.0247,-0.1128886 0.04233,-0.2010829 0.02117,-0.091722 0.0388,-0.1799163 0.01764,-0.091722 0.04586,-0.2257772 -0.04939,0 -0.112889,0.00353 -0.05997,0 -0.119944,0.00353 0.01058,-0.028222 0.01411,-0.0564443 0.0071,-0.0282222 0.0071,-0.0811387 0.05644,0.003528 0.116416,0.0105833 0.0635,0.003528 0.109361,0.003528 l 0.0635,-0.37394362 0.306916,-0.11288864 z" />
      <path
         inkscape:connector-curvature="0"
         id="path12300"
         style="font-style:italic;font-variant:normal;font-weight:normal;font-stretch:normal;font-family:Optima;-inkscape-font-specification:'Optima Italic';fill:#e9e9e9;fill-opacity:1;stroke-width:0.264583"
         d="m 38.653601,1.9649734 q 0,0.2222496 0.102305,0.3668881 0.105833,0.1446386 0.345721,0.1446386 0.201083,0 0.338666,-0.1058331 0.137583,-0.1093609 0.225778,-0.2645828 0.08819,-0.1552218 0.126999,-0.3280826 0.03881,-0.1728607 0.03881,-0.3033882 0,-0.1093609 -0.03175,-0.2010829 -0.02822,-0.09525 -0.08819,-0.1622774 -0.05997,-0.070555 -0.148167,-0.1093609 -0.08819,-0.0388054 -0.201083,-0.0388054 -0.190499,0 -0.328082,0.1023053 -0.134055,0.1023053 -0.218722,0.2539994 -0.08467,0.1481664 -0.123472,0.3245549 -0.0388,0.1728607 -0.0388,0.321027 z M 38.374907,1.880307 q 0,-0.1904996 0.06703,-0.3739437 0.07056,-0.183444 0.197556,-0.3280826 0.126999,-0.1481663 0.310443,-0.23636057 0.183444,-0.091722 0.409222,-0.091722 0.208138,0 0.352777,0.0599721 0.144638,0.0564443 0.232833,0.15169407 0.08819,0.09525 0.126999,0.2187218 0.03881,0.1234719 0.03881,0.2575272 0,0.1940273 -0.07056,0.3845269 -0.07055,0.1869718 -0.201083,0.3351382 -0.130527,0.1481663 -0.313971,0.2363606 -0.183444,0.084666 -0.412749,0.084666 -0.218722,0 -0.363361,-0.0635 -0.14111,-0.0635 -0.225777,-0.1658052 Q 38.441936,2.2436667 38.40666,2.1201947 38.37491,1.993195 38.37491,1.8803064 Z" />
      <path
         inkscape:connector-curvature="0"
         id="path12302"
         style="font-style:italic;font-variant:normal;font-weight:normal;font-stretch:normal;font-family:Optima;-inkscape-font-specification:'Optima Italic';fill:#e9e9e9;fill-opacity:1;stroke-width:0.264583"
         d="m 41.365187,1.1606419 q -0.02822,-0.010583 -0.0635,-0.021167 -0.03528,-0.010583 -0.07761,-0.010583 -0.123471,0 -0.243416,0.1058331 -0.116416,0.1023054 -0.176388,0.3139716 -0.0071,0.014111 -0.02469,0.081139 -0.01411,0.067028 -0.03528,0.1622774 -0.02117,0.091722 -0.04586,0.2046107 -0.02117,0.1093608 -0.04233,0.2151939 -0.02117,0.1058331 -0.0388,0.1975552 -0.01411,0.088194 -0.02117,0.1340552 Q 40.567911,2.54 40.536161,2.54 q -0.03175,0 -0.07055,0 -0.03881,0 -0.07761,0 -0.03528,0 -0.06703,0.00353 0.02117,-0.059972 0.05292,-0.183444 0.03175,-0.1269997 0.06703,-0.2822216 0.03528,-0.1552219 0.07056,-0.3280826 0.0388,-0.1728608 0.06703,-0.3351382 0.03175,-0.1622774 0.05644,-0.2998604 0.02469,-0.14111084 0.03528,-0.23283286 0.02822,0.007056 0.0635,0.0105833 0.03881,0.003528 0.07408,0.003528 0.07761,0 0.130527,-0.0141111 -0.0071,0.0211666 -0.02117,0.0634999 -0.01058,0.0388055 -0.02469,0.091722 -0.01411,0.052917 -0.02822,0.1128887 -0.01058,0.056444 -0.01764,0.1128886 h 0.01764 q 0.05644,-0.070555 0.112889,-0.1446386 0.05997,-0.074083 0.123472,-0.13052674 0.06703,-0.0599721 0.148166,-0.0952498 0.08114,-0.0388055 0.183444,-0.0352777 -0.01764,0.0881943 -0.02822,0.15522114 -0.0071,0.0635 -0.0071,0.1305275 l -0.03175,0.017639 z" />
    </g>
    <g
       transform="translate(-1.363132,0.6801552)"
       style="font-size:3.52777px;line-height:1.25;font-family:Futura;-inkscape-font-specification:Futura;stroke-width:0.264583"
       id="text12307"
       aria-label="&gt; (">
      <path
         inkscape:connector-curvature="0"
         id="path12309"
         style="font-style:italic;font-variant:normal;font-weight:normal;font-stretch:normal;font-size:2.82222px;font-family:Optima;-inkscape-font-specification:'Optima Italic';fill:#e9e9e9;fill-opacity:1;stroke-width:0.264583"
         d="M 15.375466,9.9652667 16.603132,9.4798448 15.375466,8.9916007 V 8.8392008 l 1.402644,0.5644441 v 0.1523998 l -1.402644,0.5587993 z" />
      <path
         inkscape:connector-curvature="0"
         id="path12311"
         style="font-style:italic;font-variant:normal;font-weight:normal;font-stretch:normal;font-size:2.82222px;font-family:Optima;-inkscape-font-specification:'Optima Italic';fill:#e9e9e9;fill-opacity:1;stroke-width:0.264583"
         d="m 18.807551,8.2719346 q -0.132645,0.1241777 -0.231422,0.2455332 -0.09596,0.1213554 -0.172156,0.2850442 -0.104422,0.2257776 -0.169333,0.4910663 -0.06491,0.2624664 -0.06491,0.513644 0,0.098778 0.0085,0.1862666 0.01129,0.084666 0.03104,0.1636891 0.02258,0.07902 0.05362,0.160866 0.03105,0.08184 0.07338,0.172156 l -0.06491,0.03951 q -0.06491,-0.118534 -0.112889,-0.2286 -0.04516,-0.107245 -0.0762,-0.211667 -0.02822,-0.1044218 -0.04233,-0.2116662 -0.01411,-0.1100665 -0.01411,-0.231422 0,-0.2229554 0.05644,-0.4317997 0.05644,-0.2088443 0.155222,-0.3922886 0.09878,-0.1834443 0.234244,-0.3358442 0.135467,-0.1523998 0.290689,-0.2652887 l 0.04516,0.0508 z" />
    </g>
    <g
       transform="translate(-0.589839,0.5588041)"
       style="font-size:3.52777px;line-height:1.25;font-family:Futura;-inkscape-font-specification:Futura;stroke-width:0.264583"
       id="text12316"
       aria-label="x">
      <path
         inkscape:connector-curvature="0"
         id="path12318"
         style="font-style:italic;font-variant:normal;font-weight:normal;font-stretch:normal;font-size:2.82222px;font-family:Optima;-inkscape-font-specification:'Optima Italic';fill:#e9e9e9;fill-opacity:1;stroke-width:0.264583"
         d="M 31.024688,9.5108892 Q 30.942844,9.341556 30.84971,9.1722228 30.756577,9.0028896 30.666266,8.8335564 q 0.03387,0.00564 0.06773,0.00847 0.03669,0.00282 0.07056,0.00282 0.07338,0 0.118533,-0.011289 0.0085,0.019755 0.02822,0.070555 0.02258,0.0508 0.04798,0.1072444 0.0254,0.053622 0.04516,0.1044221 0.02258,0.047978 0.03104,0.064911 0.02258,0.042333 0.03951,0.087489 0.01976,0.042333 0.04233,0.084667 0.06209,-0.073378 0.118534,-0.1495777 0.05927,-0.0762 0.115711,-0.1523998 0.0085,-0.014111 0.03104,-0.045156 0.02258,-0.031044 0.04516,-0.064911 0.0254,-0.036689 0.04515,-0.064911 0.02258,-0.031044 0.03105,-0.042333 0.04233,0.011289 0.09031,0.011289 0.05644,0 0.101599,-0.011289 -0.07902,0.084667 -0.166511,0.1834443 -0.08467,0.095955 -0.163688,0.1834443 -0.0762,0.087489 -0.132645,0.1552221 -0.05644,0.064911 -0.0762,0.087489 0.04516,0.087489 0.07338,0.141111 0.03104,0.053622 0.05645,0.1016 0.0254,0.045155 0.05362,0.098778 0.02822,0.053622 0.07055,0.1382888 0.03105,0.062089 0.06491,0.1241781 0.03387,0.05927 0.06773,0.115711 -0.02822,-0.0028 -0.06209,-0.0028 -0.03104,0 -0.06491,0 -0.03104,0 -0.06491,0 -0.03105,0 -0.05927,0.0028 -0.0085,-0.0085 -0.02822,-0.04798 -0.01693,-0.03951 -0.03669,-0.08467 -0.01976,-0.045157 -0.03669,-0.084668 -0.01693,-0.039511 -0.02258,-0.053622 -0.04798,-0.115711 -0.08184,-0.1777998 -0.03387,-0.064911 -0.05644,-0.1128888 -0.09313,0.115711 -0.158045,0.2003776 -0.06491,0.081844 -0.112889,0.1467554 -0.04798,0.064911 -0.08467,0.1185336 -0.03669,0.0508 -0.07338,0.09596 -0.01975,-0.0028 -0.03951,-0.0028 -0.01693,0 -0.04798,0 -0.03104,0 -0.05362,0 -0.01975,0 -0.03669,0.0028 0.04516,-0.05362 0.110067,-0.127 0.06773,-0.076199 0.141111,-0.1608663 0.0762,-0.084667 0.155222,-0.1777998 0.07902,-0.093133 0.155222,-0.1862666 z" />
    </g>
    <g
       style="font-size:3.52777px;line-height:1.25;font-family:Futura;-inkscape-font-specification:Futura;stroke-width:0.264583"
       id="text12323"
       aria-label=")">
      <path
         inkscape:connector-curvature="0"
         id="path14661"
         style="font-style:italic;font-variant:normal;font-weight:normal;font-stretch:normal;font-size:2.82222px;font-family:Optima;-inkscape-font-specification:'Optima Italic';fill:#e9e9e9;fill-opacity:1;stroke-width:0.264583"
         d="m 43.555712,11.263488 q 0.135467,-0.121355 0.231422,-0.239889 0.09596,-0.118533 0.172156,-0.282222 0.104422,-0.225777 0.169333,-0.488244 0.06491,-0.2652884 0.06491,-0.516466 0,-0.098778 -0.01129,-0.1834443 -0.0085,-0.087489 -0.03104,-0.1693332 -0.01976,-0.084667 -0.0508,-0.166511 -0.03104,-0.081844 -0.07338,-0.1721554 l 0.06491,-0.039511 q 0.129822,0.2342443 0.186266,0.4459108 0.05927,0.2088443 0.05927,0.4459108 0,0.2229553 -0.05644,0.4317993 -0.05644,0.208845 -0.155222,0.392289 -0.09878,0.180622 -0.234245,0.3302 -0.132644,0.149577 -0.290688,0.262466 l -0.04516,-0.0508 z" />
    </g>
    <g
       aria-label="&gt; ("
       id="text12307-6"
       style="font-size:3.52777px;line-height:1.25;font-family:Futura;-inkscape-font-specification:Futura;display:inline;stroke-width:0.264583"
       transform="translate(-1.3631319,15.920154)">
      <path
         d="M 15.375466,9.9652667 16.603132,9.4798448 15.375466,8.9916007 V 8.8392008 l 1.402644,0.5644441 v 0.1523998 l -1.402644,0.5587993 z"
         style="font-style:italic;font-variant:normal;font-weight:normal;font-stretch:normal;font-size:2.82222px;font-family:Optima;-inkscape-font-specification:'Optima Italic';fill:#e9e9e9;fill-opacity:1;stroke-width:0.264583"
         id="path12309-3"
         inkscape:connector-curvature="0" />
      <path
         d="m 18.807551,8.2719346 q -0.132645,0.1241777 -0.231422,0.2455332 -0.09596,0.1213554 -0.172156,0.2850442 -0.104422,0.2257776 -0.169333,0.4910663 -0.06491,0.2624664 -0.06491,0.513644 0,0.098778 0.0085,0.1862666 0.01129,0.084666 0.03104,0.1636891 0.02258,0.07902 0.05362,0.160866 0.03105,0.08184 0.07338,0.172156 l -0.06491,0.03951 q -0.06491,-0.118534 -0.112889,-0.2286 -0.04516,-0.107245 -0.0762,-0.211667 -0.02822,-0.1044218 -0.04233,-0.2116662 -0.01411,-0.1100665 -0.01411,-0.231422 0,-0.2229554 0.05644,-0.4317997 0.05644,-0.2088443 0.155222,-0.3922886 0.09878,-0.1834443 0.234244,-0.3358442 0.135467,-0.1523998 0.290689,-0.2652887 l 0.04516,0.0508 z"
         style="font-style:italic;font-variant:normal;font-weight:normal;font-stretch:normal;font-size:2.82222px;font-family:Optima;-inkscape-font-specification:'Optima Italic';fill:#e9e9e9;fill-opacity:1;stroke-width:0.264583"
         id="path12311-4"
         inkscape:connector-curvature="0" />
    </g>
    <g
       aria-label="x"
       id="text12316-7"
       style="font-size:3.52777px;line-height:1.25;font-family:Futura;-inkscape-font-specification:Futura;display:inline;stroke-width:0.264583"
       transform="translate(-0.58983887,15.798803)">
      <path
         d="M 31.024688,9.5108892 Q 30.942844,9.341556 30.84971,9.1722228 30.756577,9.0028896 30.666266,8.8335564 q 0.03387,0.00564 0.06773,0.00847 0.03669,0.00282 0.07056,0.00282 0.07338,0 0.118533,-0.011289 0.0085,0.019755 0.02822,0.070555 0.02258,0.0508 0.04798,0.1072444 0.0254,0.053622 0.04516,0.1044221 0.02258,0.047978 0.03104,0.064911 0.02258,0.042333 0.03951,0.087489 0.01976,0.042333 0.04233,0.084667 0.06209,-0.073378 0.118534,-0.1495777 0.05927,-0.0762 0.115711,-0.1523998 0.0085,-0.014111 0.03104,-0.045156 0.02258,-0.031044 0.04516,-0.064911 0.0254,-0.036689 0.04515,-0.064911 0.02258,-0.031044 0.03105,-0.042333 0.04233,0.011289 0.09031,0.011289 0.05644,0 0.101599,-0.011289 -0.07902,0.084667 -0.166511,0.1834443 -0.08467,0.095955 -0.163688,0.1834443 -0.0762,0.087489 -0.132645,0.1552221 -0.05644,0.064911 -0.0762,0.087489 0.04516,0.087489 0.07338,0.141111 0.03104,0.053622 0.05645,0.1016 0.0254,0.045155 0.05362,0.098778 0.02822,0.053622 0.07055,0.1382888 0.03105,0.062089 0.06491,0.1241781 0.03387,0.05927 0.06773,0.115711 -0.02822,-0.0028 -0.06209,-0.0028 -0.03104,0 -0.06491,0 -0.03104,0 -0.06491,0 -0.03105,0 -0.05927,0.0028 -0.0085,-0.0085 -0.02822,-0.04798 -0.01693,-0.03951 -0.03669,-0.08467 -0.01976,-0.045157 -0.03669,-0.084668 -0.01693,-0.039511 -0.02258,-0.053622 -0.04798,-0.115711 -0.08184,-0.1777998 -0.03387,-0.064911 -0.05644,-0.1128888 -0.09313,0.115711 -0.158045,0.2003776 -0.06491,0.081844 -0.112889,0.1467554 -0.04798,0.064911 -0.08467,0.1185336 -0.03669,0.0508 -0.07338,0.09596 -0.01975,-0.0028 -0.03951,-0.0028 -0.01693,0 -0.04798,0 -0.03104,0 -0.05362,0 -0.01975,0 -0.03669,0.0028 0.04516,-0.05362 0.110067,-0.127 0.06773,-0.076199 0.141111,-0.1608663 0.0762,-0.084667 0.155222,-0.1777998 0.07902,-0.093133 0.155222,-0.1862666 z"
         style="font-style:italic;font-variant:normal;font-weight:normal;font-stretch:normal;font-size:2.82222px;font-family:Optima;-inkscape-font-specification:'Optima Italic';fill:#e9e9e9;fill-opacity:1;stroke-width:0.264583"
         id="path12318-4"
         inkscape:connector-curvature="0" />
    </g>
    <g
       style="font-size:3.52777px;line-height:1.25;font-family:Futura;-inkscape-font-specification:Futura;display:inline;stroke-width:0.264583"
       id="text12323-0"
       aria-label=")">
      <path
         inkscape:connector-curvature="0"
         id="path14664"
         style="font-style:italic;font-variant:normal;font-weight:normal;font-stretch:normal;font-size:2.82223px;font-family:Optima;-inkscape-font-specification:'Optima Italic';fill:#e9e9e9;fill-opacity:1;stroke-width:0.264583"
         d="m 43.555712,26.503488 q 0.135467,-0.121356 0.231423,-0.23989 0.09596,-0.118533 0.172156,-0.282223 0.104423,-0.225778 0.169334,-0.488245 0.06491,-0.26529 0.06491,-0.516468 0,-0.09878 -0.01129,-0.183445 -0.0085,-0.08749 -0.03104,-0.169334 -0.01976,-0.08467 -0.0508,-0.166512 -0.03104,-0.08184 -0.07338,-0.172156 l 0.06491,-0.03951 q 0.129823,0.234245 0.186267,0.445912 0.05927,0.208845 0.05927,0.445913 0,0.222956 -0.05645,0.431801 -0.05644,0.208845 -0.155222,0.39229 -0.09878,0.180623 -0.234245,0.330201 -0.132645,0.149578 -0.29069,0.262467 l -0.04516,-0.0508 z" />
    </g>
    <g
       aria-label="&gt; ("
       id="text12307-5"
       style="font-size:3.52777px;line-height:1.25;font-family:Futura;-inkscape-font-specification:Futura;display:inline;stroke-width:0.264583"
       transform="translate(-1.3631319,31.160154)">
      <path
         d="M 15.375466,9.9652667 16.603132,9.4798448 15.375466,8.9916007 V 8.8392008 l 1.402644,0.5644441 v 0.1523998 l -1.402644,0.5587993 z"
         style="font-style:italic;font-variant:normal;font-weight:normal;font-stretch:normal;font-size:2.82222px;font-family:Optima;-inkscape-font-specification:'Optima Italic';fill:#e9e9e9;fill-opacity:1;stroke-width:0.264583"
         id="path12309-0"
         inkscape:connector-curvature="0" />
      <path
         d="m 18.807551,8.2719346 q -0.132645,0.1241777 -0.231422,0.2455332 -0.09596,0.1213554 -0.172156,0.2850442 -0.104422,0.2257776 -0.169333,0.4910663 -0.06491,0.2624664 -0.06491,0.513644 0,0.098778 0.0085,0.1862666 0.01129,0.084666 0.03104,0.1636891 0.02258,0.07902 0.05362,0.160866 0.03105,0.08184 0.07338,0.172156 l -0.06491,0.03951 q -0.06491,-0.118534 -0.112889,-0.2286 -0.04516,-0.107245 -0.0762,-0.211667 -0.02822,-0.1044218 -0.04233,-0.2116662 -0.01411,-0.1100665 -0.01411,-0.231422 0,-0.2229554 0.05644,-0.4317997 0.05644,-0.2088443 0.155222,-0.3922886 0.09878,-0.1834443 0.234244,-0.3358442 0.135467,-0.1523998 0.290689,-0.2652887 l 0.04516,0.0508 z"
         style="font-style:italic;font-variant:normal;font-weight:normal;font-stretch:normal;font-size:2.82222px;font-family:Optima;-inkscape-font-specification:'Optima Italic';fill:#e9e9e9;fill-opacity:1;stroke-width:0.264583"
         id="path12311-2"
         inkscape:connector-curvature="0" />
    </g>
    <g
       aria-label="x"
       id="text12316-5"
       style="font-size:3.52777px;line-height:1.25;font-family:Futura;-inkscape-font-specification:Futura;display:inline;stroke-width:0.264583"
       transform="translate(-0.58983887,31.038803)">
      <path
         d="M 31.024688,9.5108892 Q 30.942844,9.341556 30.84971,9.1722228 30.756577,9.0028896 30.666266,8.8335564 q 0.03387,0.00564 0.06773,0.00847 0.03669,0.00282 0.07056,0.00282 0.07338,0 0.118533,-0.011289 0.0085,0.019755 0.02822,0.070555 0.02258,0.0508 0.04798,0.1072444 0.0254,0.053622 0.04516,0.1044221 0.02258,0.047978 0.03104,0.064911 0.02258,0.042333 0.03951,0.087489 0.01976,0.042333 0.04233,0.084667 0.06209,-0.073378 0.118534,-0.1495777 0.05927,-0.0762 0.115711,-0.1523998 0.0085,-0.014111 0.03104,-0.045156 0.02258,-0.031044 0.04516,-0.064911 0.0254,-0.036689 0.04515,-0.064911 0.02258,-0.031044 0.03105,-0.042333 0.04233,0.011289 0.09031,0.011289 0.05644,0 0.101599,-0.011289 -0.07902,0.084667 -0.166511,0.1834443 -0.08467,0.095955 -0.163688,0.1834443 -0.0762,0.087489 -0.132645,0.1552221 -0.05644,0.064911 -0.0762,0.087489 0.04516,0.087489 0.07338,0.141111 0.03104,0.053622 0.05645,0.1016 0.0254,0.045155 0.05362,0.098778 0.02822,0.053622 0.07055,0.1382888 0.03105,0.062089 0.06491,0.1241781 0.03387,0.05927 0.06773,0.115711 -0.02822,-0.0028 -0.06209,-0.0028 -0.03104,0 -0.06491,0 -0.03104,0 -0.06491,0 -0.03105,0 -0.05927,0.0028 -0.0085,-0.0085 -0.02822,-0.04798 -0.01693,-0.03951 -0.03669,-0.08467 -0.01976,-0.045157 -0.03669,-0.084668 -0.01693,-0.039511 -0.02258,-0.053622 -0.04798,-0.115711 -0.08184,-0.1777998 -0.03387,-0.064911 -0.05644,-0.1128888 -0.09313,0.115711 -0.158045,0.2003776 -0.06491,0.081844 -0.112889,0.1467554 -0.04798,0.064911 -0.08467,0.1185336 -0.03669,0.0508 -0.07338,0.09596 -0.01975,-0.0028 -0.03951,-0.0028 -0.01693,0 -0.04798,0 -0.03104,0 -0.05362,0 -0.01975,0 -0.03669,0.0028 0.04516,-0.05362 0.110067,-0.127 0.06773,-0.076199 0.141111,-0.1608663 0.0762,-0.084667 0.155222,-0.1777998 0.07902,-0.093133 0.155222,-0.1862666 z"
         style="font-style:italic;font-variant:normal;font-weight:normal;font-stretch:normal;font-size:2.82222px;font-family:Optima;-inkscape-font-specification:'Optima Italic';fill:#e9e9e9;fill-opacity:1;stroke-width:0.264583"
         id="path12318-42"
         inkscape:connector-curvature="0" />
    </g>
    <g
       style="font-size:3.52777px;line-height:1.25;font-family:Futura;-inkscape-font-specification:Futura;display:inline;stroke-width:0.264583"
       id="text12323-1"
       aria-label=")">
      <path
         inkscape:connector-curvature="0"
         id="path14667"
         style="font-style:italic;font-variant:normal;font-weight:normal;font-stretch:normal;font-size:2.82223px;font-family:Optima;-inkscape-font-specification:'Optima Italic';fill:#e9e9e9;fill-opacity:1;stroke-width:0.264583"
         d="m 43.555712,41.743488 q 0.135467,-0.121356 0.231423,-0.23989 0.09596,-0.118533 0.172156,-0.282223 0.104423,-0.225778 0.169334,-0.488246 0.06491,-0.265289 0.06491,-0.516468 0,-0.09878 -0.01129,-0.183445 -0.0085,-0.08749 -0.03104,-0.169333 -0.01976,-0.08467 -0.0508,-0.166512 -0.03104,-0.08184 -0.07338,-0.172156 l 0.06491,-0.03951 q 0.129823,0.234245 0.186267,0.445912 0.05927,0.208845 0.05927,0.445912 0,0.222957 -0.05645,0.431802 -0.05644,0.208845 -0.155222,0.39229 -0.09878,0.180622 -0.234245,0.330201 -0.132645,0.149578 -0.29069,0.262467 l -0.04516,-0.0508 z" />
    </g>
    <g
       aria-label="&gt; ("
       id="text12307-1"
       style="font-size:3.52777px;line-height:1.25;font-family:Futura;-inkscape-font-specification:Futura;display:inline;stroke-width:0.264583"
       transform="translate(-1.3631319,46.400154)">
      <path
         d="M 15.375466,9.9652667 16.603132,9.4798448 15.375466,8.9916007 V 8.8392008 l 1.402644,0.5644441 v 0.1523998 l -1.402644,0.5587993 z"
         style="font-style:italic;font-variant:normal;font-weight:normal;font-stretch:normal;font-size:2.82222px;font-family:Optima;-inkscape-font-specification:'Optima Italic';fill:#e9e9e9;fill-opacity:1;stroke-width:0.264583"
         id="path12309-6"
         inkscape:connector-curvature="0" />
      <path
         d="m 18.807551,8.2719346 q -0.132645,0.1241777 -0.231422,0.2455332 -0.09596,0.1213554 -0.172156,0.2850442 -0.104422,0.2257776 -0.169333,0.4910663 -0.06491,0.2624664 -0.06491,0.513644 0,0.098778 0.0085,0.1862666 0.01129,0.084666 0.03104,0.1636891 0.02258,0.07902 0.05362,0.160866 0.03105,0.08184 0.07338,0.172156 l -0.06491,0.03951 q -0.06491,-0.118534 -0.112889,-0.2286 -0.04516,-0.107245 -0.0762,-0.211667 -0.02822,-0.1044218 -0.04233,-0.2116662 -0.01411,-0.1100665 -0.01411,-0.231422 0,-0.2229554 0.05644,-0.4317997 0.05644,-0.2088443 0.155222,-0.3922886 0.09878,-0.1834443 0.234244,-0.3358442 0.135467,-0.1523998 0.290689,-0.2652887 l 0.04516,0.0508 z"
         style="font-style:italic;font-variant:normal;font-weight:normal;font-stretch:normal;font-size:2.82222px;font-family:Optima;-inkscape-font-specification:'Optima Italic';fill:#e9e9e9;fill-opacity:1;stroke-width:0.264583"
         id="path12311-0"
         inkscape:connector-curvature="0" />
    </g>
    <g
       aria-label="x"
       id="text12316-0"
       style="font-size:3.52777px;line-height:1.25;font-family:Futura;-inkscape-font-specification:Futura;display:inline;stroke-width:0.264583"
       transform="translate(-0.58983887,46.278803)">
      <path
         d="M 31.024688,9.5108892 Q 30.942844,9.341556 30.84971,9.1722228 30.756577,9.0028896 30.666266,8.8335564 q 0.03387,0.00564 0.06773,0.00847 0.03669,0.00282 0.07056,0.00282 0.07338,0 0.118533,-0.011289 0.0085,0.019755 0.02822,0.070555 0.02258,0.0508 0.04798,0.1072444 0.0254,0.053622 0.04516,0.1044221 0.02258,0.047978 0.03104,0.064911 0.02258,0.042333 0.03951,0.087489 0.01976,0.042333 0.04233,0.084667 0.06209,-0.073378 0.118534,-0.1495777 0.05927,-0.0762 0.115711,-0.1523998 0.0085,-0.014111 0.03104,-0.045156 0.02258,-0.031044 0.04516,-0.064911 0.0254,-0.036689 0.04515,-0.064911 0.02258,-0.031044 0.03105,-0.042333 0.04233,0.011289 0.09031,0.011289 0.05644,0 0.101599,-0.011289 -0.07902,0.084667 -0.166511,0.1834443 -0.08467,0.095955 -0.163688,0.1834443 -0.0762,0.087489 -0.132645,0.1552221 -0.05644,0.064911 -0.0762,0.087489 0.04516,0.087489 0.07338,0.141111 0.03104,0.053622 0.05645,0.1016 0.0254,0.045155 0.05362,0.098778 0.02822,0.053622 0.07055,0.1382888 0.03105,0.062089 0.06491,0.1241781 0.03387,0.05927 0.06773,0.115711 -0.02822,-0.0028 -0.06209,-0.0028 -0.03104,0 -0.06491,0 -0.03104,0 -0.06491,0 -0.03105,0 -0.05927,0.0028 -0.0085,-0.0085 -0.02822,-0.04798 -0.01693,-0.03951 -0.03669,-0.08467 -0.01976,-0.045157 -0.03669,-0.084668 -0.01693,-0.039511 -0.02258,-0.053622 -0.04798,-0.115711 -0.08184,-0.1777998 -0.03387,-0.064911 -0.05644,-0.1128888 -0.09313,0.115711 -0.158045,0.2003776 -0.06491,0.081844 -0.112889,0.1467554 -0.04798,0.064911 -0.08467,0.1185336 -0.03669,0.0508 -0.07338,0.09596 -0.01975,-0.0028 -0.03951,-0.0028 -0.01693,0 -0.04798,0 -0.03104,0 -0.05362,0 -0.01975,0 -0.03669,0.0028 0.04516,-0.05362 0.110067,-0.127 0.06773,-0.076199 0.141111,-0.1608663 0.0762,-0.084667 0.155222,-0.1777998 0.07902,-0.093133 0.155222,-0.1862666 z"
         style="font-style:italic;font-variant:normal;font-weight:normal;font-stretch:normal;font-size:2.82222px;font-family:Optima;-inkscape-font-specification:'Optima Italic';fill:#e9e9e9;fill-opacity:1;stroke-width:0.264583"
         id="path12318-2"
         inkscape:connector-curvature="0" />
    </g>
    <g
       style="font-size:3.52777px;line-height:1.25;font-family:Futura;-inkscape-font-specification:Futura;display:inline;stroke-width:0.264583"
       id="text12323-3"
       aria-label=")">
      <path
         inkscape:connector-curvature="0"
         id="path14670"
         style="font-style:italic;font-variant:normal;font-weight:normal;font-stretch:normal;font-size:2.82223px;font-family:Optima;-inkscape-font-specification:'Optima Italic';fill:#e9e9e9;fill-opacity:1;stroke-width:0.264583"
         d="m 43.555712,56.983489 q 0.135467,-0.121355 0.231423,-0.239889 0.09596,-0.118534 0.172156,-0.282223 0.104423,-0.225778 0.169334,-0.488246 0.06491,-0.26529 0.06491,-0.516468 0,-0.09878 -0.01129,-0.183445 -0.0085,-0.08749 -0.03104,-0.169334 -0.01976,-0.08467 -0.0508,-0.166511 -0.03104,-0.08185 -0.07338,-0.172156 l 0.06491,-0.03951 q 0.129823,0.234246 0.186267,0.445913 0.05927,0.208845 0.05927,0.445912 0,0.222956 -0.05645,0.431801 -0.05644,0.208845 -0.155222,0.39229 -0.09878,0.180623 -0.234245,0.330201 -0.132645,0.149578 -0.29069,0.262468 l -0.04516,-0.0508 z" />
    </g>
    <g
       aria-label="&gt; ("
       id="text12307-50"
       style="font-size:3.52777px;line-height:1.25;font-family:Futura;-inkscape-font-specification:Futura;display:inline;stroke-width:0.264583"
       transform="translate(-1.3631319,61.640154)">
      <path
         d="M 15.375466,9.9652667 16.603132,9.4798448 15.375466,8.9916007 V 8.8392008 l 1.402644,0.5644441 v 0.1523998 l -1.402644,0.5587993 z"
         style="font-style:italic;font-variant:normal;font-weight:normal;font-stretch:normal;font-size:2.82222px;font-family:Optima;-inkscape-font-specification:'Optima Italic';fill:#e9e9e9;fill-opacity:1;stroke-width:0.264583"
         id="path12309-5"
         inkscape:connector-curvature="0" />
      <path
         d="m 18.807551,8.2719346 q -0.132645,0.1241777 -0.231422,0.2455332 -0.09596,0.1213554 -0.172156,0.2850442 -0.104422,0.2257776 -0.169333,0.4910663 -0.06491,0.2624664 -0.06491,0.513644 0,0.098778 0.0085,0.1862666 0.01129,0.084666 0.03104,0.1636891 0.02258,0.07902 0.05362,0.160866 0.03105,0.08184 0.07338,0.172156 l -0.06491,0.03951 q -0.06491,-0.118534 -0.112889,-0.2286 -0.04516,-0.107245 -0.0762,-0.211667 -0.02822,-0.1044218 -0.04233,-0.2116662 -0.01411,-0.1100665 -0.01411,-0.231422 0,-0.2229554 0.05644,-0.4317997 0.05644,-0.2088443 0.155222,-0.3922886 0.09878,-0.1834443 0.234244,-0.3358442 0.135467,-0.1523998 0.290689,-0.2652887 l 0.04516,0.0508 z"
         style="font-style:italic;font-variant:normal;font-weight:normal;font-stretch:normal;font-size:2.82222px;font-family:Optima;-inkscape-font-specification:'Optima Italic';fill:#e9e9e9;fill-opacity:1;stroke-width:0.264583"
         id="path12311-7"
         inkscape:connector-curvature="0" />
    </g>
    <g
       aria-label="x"
       id="text12316-4"
       style="font-size:3.52777px;line-height:1.25;font-family:Futura;-inkscape-font-specification:Futura;display:inline;stroke-width:0.264583"
       transform="translate(-0.58983887,61.518803)">
      <path
         d="M 31.024688,9.5108892 Q 30.942844,9.341556 30.84971,9.1722228 30.756577,9.0028896 30.666266,8.8335564 q 0.03387,0.00564 0.06773,0.00847 0.03669,0.00282 0.07056,0.00282 0.07338,0 0.118533,-0.011289 0.0085,0.019755 0.02822,0.070555 0.02258,0.0508 0.04798,0.1072444 0.0254,0.053622 0.04516,0.1044221 0.02258,0.047978 0.03104,0.064911 0.02258,0.042333 0.03951,0.087489 0.01976,0.042333 0.04233,0.084667 0.06209,-0.073378 0.118534,-0.1495777 0.05927,-0.0762 0.115711,-0.1523998 0.0085,-0.014111 0.03104,-0.045156 0.02258,-0.031044 0.04516,-0.064911 0.0254,-0.036689 0.04515,-0.064911 0.02258,-0.031044 0.03105,-0.042333 0.04233,0.011289 0.09031,0.011289 0.05644,0 0.101599,-0.011289 -0.07902,0.084667 -0.166511,0.1834443 -0.08467,0.095955 -0.163688,0.1834443 -0.0762,0.087489 -0.132645,0.1552221 -0.05644,0.064911 -0.0762,0.087489 0.04516,0.087489 0.07338,0.141111 0.03104,0.053622 0.05645,0.1016 0.0254,0.045155 0.05362,0.098778 0.02822,0.053622 0.07055,0.1382888 0.03105,0.062089 0.06491,0.1241781 0.03387,0.05927 0.06773,0.115711 -0.02822,-0.0028 -0.06209,-0.0028 -0.03104,0 -0.06491,0 -0.03104,0 -0.06491,0 -0.03105,0 -0.05927,0.0028 -0.0085,-0.0085 -0.02822,-0.04798 -0.01693,-0.03951 -0.03669,-0.08467 -0.01976,-0.045157 -0.03669,-0.084668 -0.01693,-0.039511 -0.02258,-0.053622 -0.04798,-0.115711 -0.08184,-0.1777998 -0.03387,-0.064911 -0.05644,-0.1128888 -0.09313,0.115711 -0.158045,0.2003776 -0.06491,0.081844 -0.112889,0.1467554 -0.04798,0.064911 -0.08467,0.1185336 -0.03669,0.0508 -0.07338,0.09596 -0.01975,-0.0028 -0.03951,-0.0028 -0.01693,0 -0.04798,0 -0.03104,0 -0.05362,0 -0.01975,0 -0.03669,0.0028 0.04516,-0.05362 0.110067,-0.127 0.06773,-0.076199 0.141111,-0.1608663 0.0762,-0.084667 0.155222,-0.1777998 0.07902,-0.093133 0.155222,-0.1862666 z"
         style="font-style:italic;font-variant:normal;font-weight:normal;font-stretch:normal;font-size:2.82222px;font-family:Optima;-inkscape-font-specification:'Optima Italic';fill:#e9e9e9;fill-opacity:1;stroke-width:0.264583"
         id="path12318-8"
         inkscape:connector-curvature="0" />
    </g>
    <g
       style="font-size:3.52777px;line-height:1.25;font-family:Futura;-inkscape-font-specification:Futura;display:inline;stroke-width:0.264583"
       id="text12323-06"
       aria-label=")">
      <path
         inkscape:connector-curvature="0"
         id="path14673"
         style="font-style:italic;font-variant:normal;font-weight:normal;font-stretch:normal;font-size:2.82223px;font-family:Optima;-inkscape-font-specification:'Optima Italic';fill:#e9e9e9;fill-opacity:1;stroke-width:0.264583"
         d="m 43.555712,72.223491 q 0.135467,-0.121356 0.231423,-0.239889 0.09596,-0.118534 0.172156,-0.282223 0.104423,-0.225779 0.169334,-0.488246 0.06491,-0.26529 0.06491,-0.516468 0,-0.09878 -0.01129,-0.183445 -0.0085,-0.08749 -0.03104,-0.169334 -0.01976,-0.08467 -0.0508,-0.166512 -0.03104,-0.08184 -0.07338,-0.172156 l 0.06491,-0.03951 q 0.129823,0.234245 0.186267,0.445912 0.05927,0.208845 0.05927,0.445913 0,0.222956 -0.05645,0.431801 -0.05644,0.208845 -0.155222,0.39229 -0.09878,0.180623 -0.234245,0.330201 -0.132645,0.149578 -0.29069,0.262467 l -0.04516,-0.0508 z" />
    </g>
    <g
       aria-label="&gt; ("
       id="text12307-9"
       style="font-size:3.52777px;line-height:1.25;font-family:Futura;-inkscape-font-specification:Futura;display:inline;stroke-width:0.264583"
       transform="translate(-1.3631319,76.880154)">
      <path
         d="M 15.375466,9.9652667 16.603132,9.4798448 15.375466,8.9916007 V 8.8392008 l 1.402644,0.5644441 v 0.1523998 l -1.402644,0.5587993 z"
         style="font-style:italic;font-variant:normal;font-weight:normal;font-stretch:normal;font-size:2.82222px;font-family:Optima;-inkscape-font-specification:'Optima Italic';fill:#e9e9e9;fill-opacity:1;stroke-width:0.264583"
         id="path12309-2"
         inkscape:connector-curvature="0" />
      <path
         d="m 18.807551,8.2719346 q -0.132645,0.1241777 -0.231422,0.2455332 -0.09596,0.1213554 -0.172156,0.2850442 -0.104422,0.2257776 -0.169333,0.4910663 -0.06491,0.2624664 -0.06491,0.513644 0,0.098778 0.0085,0.1862666 0.01129,0.084666 0.03104,0.1636891 0.02258,0.07902 0.05362,0.160866 0.03105,0.08184 0.07338,0.172156 l -0.06491,0.03951 q -0.06491,-0.118534 -0.112889,-0.2286 -0.04516,-0.107245 -0.0762,-0.211667 -0.02822,-0.1044218 -0.04233,-0.2116662 -0.01411,-0.1100665 -0.01411,-0.231422 0,-0.2229554 0.05644,-0.4317997 0.05644,-0.2088443 0.155222,-0.3922886 0.09878,-0.1834443 0.234244,-0.3358442 0.135467,-0.1523998 0.290689,-0.2652887 l 0.04516,0.0508 z"
         style="font-style:italic;font-variant:normal;font-weight:normal;font-stretch:normal;font-size:2.82222px;font-family:Optima;-inkscape-font-specification:'Optima Italic';fill:#e9e9e9;fill-opacity:1;stroke-width:0.264583"
         id="path12311-8"
         inkscape:connector-curvature="0" />
    </g>
    <g
       aria-label="x"
       id="text12316-3"
       style="font-size:3.52777px;line-height:1.25;font-family:Futura;-inkscape-font-specification:Futura;display:inline;stroke-width:0.264583"
       transform="translate(-0.58983887,76.758803)">
      <path
         d="M 31.024688,9.5108892 Q 30.942844,9.341556 30.84971,9.1722228 30.756577,9.0028896 30.666266,8.8335564 q 0.03387,0.00564 0.06773,0.00847 0.03669,0.00282 0.07056,0.00282 0.07338,0 0.118533,-0.011289 0.0085,0.019755 0.02822,0.070555 0.02258,0.0508 0.04798,0.1072444 0.0254,0.053622 0.04516,0.1044221 0.02258,0.047978 0.03104,0.064911 0.02258,0.042333 0.03951,0.087489 0.01976,0.042333 0.04233,0.084667 0.06209,-0.073378 0.118534,-0.1495777 0.05927,-0.0762 0.115711,-0.1523998 0.0085,-0.014111 0.03104,-0.045156 0.02258,-0.031044 0.04516,-0.064911 0.0254,-0.036689 0.04515,-0.064911 0.02258,-0.031044 0.03105,-0.042333 0.04233,0.011289 0.09031,0.011289 0.05644,0 0.101599,-0.011289 -0.07902,0.084667 -0.166511,0.1834443 -0.08467,0.095955 -0.163688,0.1834443 -0.0762,0.087489 -0.132645,0.1552221 -0.05644,0.064911 -0.0762,0.087489 0.04516,0.087489 0.07338,0.141111 0.03104,0.053622 0.05645,0.1016 0.0254,0.045155 0.05362,0.098778 0.02822,0.053622 0.07055,0.1382888 0.03105,0.062089 0.06491,0.1241781 0.03387,0.05927 0.06773,0.115711 -0.02822,-0.0028 -0.06209,-0.0028 -0.03104,0 -0.06491,0 -0.03104,0 -0.06491,0 -0.03105,0 -0.05927,0.0028 -0.0085,-0.0085 -0.02822,-0.04798 -0.01693,-0.03951 -0.03669,-0.08467 -0.01976,-0.045157 -0.03669,-0.084668 -0.01693,-0.039511 -0.02258,-0.053622 -0.04798,-0.115711 -0.08184,-0.1777998 -0.03387,-0.064911 -0.05644,-0.1128888 -0.09313,0.115711 -0.158045,0.2003776 -0.06491,0.081844 -0.112889,0.1467554 -0.04798,0.064911 -0.08467,0.1185336 -0.03669,0.0508 -0.07338,0.09596 -0.01975,-0.0028 -0.03951,-0.0028 -0.01693,0 -0.04798,0 -0.03104,0 -0.05362,0 -0.01975,0 -0.03669,0.0028 0.04516,-0.05362 0.110067,-0.127 0.06773,-0.076199 0.141111,-0.1608663 0.0762,-0.084667 0.155222,-0.1777998 0.07902,-0.093133 0.155222,-0.1862666 z"
         style="font-style:italic;font-variant:normal;font-weight:normal;font-stretch:normal;font-size:2.82222px;font-family:Optima;-inkscape-font-specification:'Optima Italic';fill:#e9e9e9;fill-opacity:1;stroke-width:0.264583"
         id="path12318-7"
         inkscape:connector-curvature="0" />
    </g>
    <g
       style="font-size:3.52777px;line-height:1.25;font-family:Futura;-inkscape-font-specification:Futura;display:inline;stroke-width:0.264583"
       id="text12323-6"
       aria-label=")">
      <path
         inkscape:connector-curvature="0"
         id="path14676"
         style="font-style:italic;font-variant:normal;font-weight:normal;font-stretch:normal;font-size:2.82223px;font-family:Optima;-inkscape-font-specification:'Optima Italic';fill:#e9e9e9;fill-opacity:1;stroke-width:0.264583"
         d="m 43.555712,87.463489 q 0.135467,-0.121356 0.231423,-0.23989 0.09596,-0.118533 0.172156,-0.282223 0.104423,-0.225778 0.169334,-0.488245 0.06491,-0.26529 0.06491,-0.516468 0,-0.09878 -0.01129,-0.183445 -0.0085,-0.08749 -0.03104,-0.169334 -0.01976,-0.08467 -0.0508,-0.166512 -0.03104,-0.08184 -0.07338,-0.172156 l 0.06491,-0.03951 q 0.129823,0.234245 0.186267,0.445912 0.05927,0.208845 0.05927,0.445913 0,0.222956 -0.05645,0.431801 -0.05644,0.208845 -0.155222,0.39229 -0.09878,0.180623 -0.234245,0.330201 -0.132645,0.149578 -0.29069,0.262467 l -0.04516,-0.0508 z" />
    </g>
    <g
       aria-label="&gt; ("
       id="text12307-98"
       style="font-size:3.52777px;line-height:1.25;font-family:Futura;-inkscape-font-specification:Futura;display:inline;stroke-width:0.264583"
       transform="translate(-1.3631319,92.120154)">
      <path
         d="M 15.375466,9.9652667 16.603132,9.4798448 15.375466,8.9916007 V 8.8392008 l 1.402644,0.5644441 v 0.1523998 l -1.402644,0.5587993 z"
         style="font-style:italic;font-variant:normal;font-weight:normal;font-stretch:normal;font-size:2.82222px;font-family:Optima;-inkscape-font-specification:'Optima Italic';fill:#e9e9e9;fill-opacity:1;stroke-width:0.264583"
         id="path12309-59"
         inkscape:connector-curvature="0" />
      <path
         d="m 18.807551,8.2719346 q -0.132645,0.1241777 -0.231422,0.2455332 -0.09596,0.1213554 -0.172156,0.2850442 -0.104422,0.2257776 -0.169333,0.4910663 -0.06491,0.2624664 -0.06491,0.513644 0,0.098778 0.0085,0.1862666 0.01129,0.084666 0.03104,0.1636891 0.02258,0.07902 0.05362,0.160866 0.03105,0.08184 0.07338,0.172156 l -0.06491,0.03951 q -0.06491,-0.118534 -0.112889,-0.2286 -0.04516,-0.107245 -0.0762,-0.211667 -0.02822,-0.1044218 -0.04233,-0.2116662 -0.01411,-0.1100665 -0.01411,-0.231422 0,-0.2229554 0.05644,-0.4317997 0.05644,-0.2088443 0.155222,-0.3922886 0.09878,-0.1834443 0.234244,-0.3358442 0.135467,-0.1523998 0.290689,-0.2652887 l 0.04516,0.0508 z"
         style="font-style:italic;font-variant:normal;font-weight:normal;font-stretch:normal;font-size:2.82222px;font-family:Optima;-inkscape-font-specification:'Optima Italic';fill:#e9e9e9;fill-opacity:1;stroke-width:0.264583"
         id="path12311-25"
         inkscape:connector-curvature="0" />
    </g>
    <g
       aria-label="x"
       id="text12316-59"
       style="font-size:3.52777px;line-height:1.25;font-family:Futura;-inkscape-font-specification:Futura;display:inline;stroke-width:0.264583"
       transform="translate(-0.58983887,91.998803)">
      <path
         d="M 31.024688,9.5108892 Q 30.942844,9.341556 30.84971,9.1722228 30.756577,9.0028896 30.666266,8.8335564 q 0.03387,0.00564 0.06773,0.00847 0.03669,0.00282 0.07056,0.00282 0.07338,0 0.118533,-0.011289 0.0085,0.019755 0.02822,0.070555 0.02258,0.0508 0.04798,0.1072444 0.0254,0.053622 0.04516,0.1044221 0.02258,0.047978 0.03104,0.064911 0.02258,0.042333 0.03951,0.087489 0.01976,0.042333 0.04233,0.084667 0.06209,-0.073378 0.118534,-0.1495777 0.05927,-0.0762 0.115711,-0.1523998 0.0085,-0.014111 0.03104,-0.045156 0.02258,-0.031044 0.04516,-0.064911 0.0254,-0.036689 0.04515,-0.064911 0.02258,-0.031044 0.03105,-0.042333 0.04233,0.011289 0.09031,0.011289 0.05644,0 0.101599,-0.011289 -0.07902,0.084667 -0.166511,0.1834443 -0.08467,0.095955 -0.163688,0.1834443 -0.0762,0.087489 -0.132645,0.1552221 -0.05644,0.064911 -0.0762,0.087489 0.04516,0.087489 0.07338,0.141111 0.03104,0.053622 0.05645,0.1016 0.0254,0.045155 0.05362,0.098778 0.02822,0.053622 0.07055,0.1382888 0.03105,0.062089 0.06491,0.1241781 0.03387,0.05927 0.06773,0.115711 -0.02822,-0.0028 -0.06209,-0.0028 -0.03104,0 -0.06491,0 -0.03104,0 -0.06491,0 -0.03105,0 -0.05927,0.0028 -0.0085,-0.0085 -0.02822,-0.04798 -0.01693,-0.03951 -0.03669,-0.08467 -0.01976,-0.045157 -0.03669,-0.084668 -0.01693,-0.039511 -0.02258,-0.053622 -0.04798,-0.115711 -0.08184,-0.1777998 -0.03387,-0.064911 -0.05644,-0.1128888 -0.09313,0.115711 -0.158045,0.2003776 -0.06491,0.081844 -0.112889,0.1467554 -0.04798,0.064911 -0.08467,0.1185336 -0.03669,0.0508 -0.07338,0.09596 -0.01975,-0.0028 -0.03951,-0.0028 -0.01693,0 -0.04798,0 -0.03104,0 -0.05362,0 -0.01975,0 -0.03669,0.0028 0.04516,-0.05362 0.110067,-0.127 0.06773,-0.076199 0.141111,-0.1608663 0.0762,-0.084667 0.155222,-0.1777998 0.07902,-0.093133 0.155222,-0.1862666 z"
         style="font-style:italic;font-variant:normal;font-weight:normal;font-stretch:normal;font-size:2.82222px;font-family:Optima;-inkscape-font-specification:'Optima Italic';fill:#e9e9e9;fill-opacity:1;stroke-width:0.264583"
         id="path12318-1"
         inkscape:connector-curvature="0" />
    </g>
    <g
       style="font-size:3.52777px;line-height:1.25;font-family:Futura;-inkscape-font-specification:Futura;display:inline;stroke-width:0.264583"
       id="text12323-14"
       aria-label=")">
      <path
         inkscape:connector-curvature="0"
         id="path14679"
         style="font-style:italic;font-variant:normal;font-weight:normal;font-stretch:normal;font-size:2.82223px;font-family:Optima;-inkscape-font-specification:'Optima Italic';fill:#e9e9e9;fill-opacity:1;stroke-width:0.264583"
         d="m 43.555712,102.70348 q 0.135467,-0.12136 0.231423,-0.23989 0.09596,-0.11853 0.172156,-0.28222 0.104423,-0.22578 0.169334,-0.48825 0.06491,-0.26529 0.06491,-0.51647 0,-0.0988 -0.01129,-0.18344 -0.0085,-0.0875 -0.03104,-0.16934 -0.01976,-0.0847 -0.0508,-0.16651 -0.03104,-0.0818 -0.07338,-0.17215 l 0.06491,-0.0395 q 0.129823,0.23424 0.186267,0.44591 0.05927,0.20884 0.05927,0.44591 0,0.22296 -0.05645,0.4318 -0.05644,0.20885 -0.155222,0.39229 -0.09878,0.18062 -0.234245,0.3302 -0.132645,0.14958 -0.29069,0.26247 l -0.04516,-0.0508 z" />
    </g>
    <g
       aria-label="&gt; ("
       id="text12307-2"
       style="font-size:3.52777px;line-height:1.25;font-family:Futura;-inkscape-font-specification:Futura;display:inline;stroke-width:0.264583"
       transform="translate(-1.3631319,107.36015)">
      <path
         d="M 15.375466,9.9652667 16.603132,9.4798448 15.375466,8.9916007 V 8.8392008 l 1.402644,0.5644441 v 0.1523998 l -1.402644,0.5587993 z"
         style="font-style:italic;font-variant:normal;font-weight:normal;font-stretch:normal;font-size:2.82222px;font-family:Optima;-inkscape-font-specification:'Optima Italic';fill:#e9e9e9;fill-opacity:1;stroke-width:0.264583"
         id="path12309-63"
         inkscape:connector-curvature="0" />
      <path
         d="m 18.807551,8.2719346 q -0.132645,0.1241777 -0.231422,0.2455332 -0.09596,0.1213554 -0.172156,0.2850442 -0.104422,0.2257776 -0.169333,0.4910663 -0.06491,0.2624664 -0.06491,0.513644 0,0.098778 0.0085,0.1862666 0.01129,0.084666 0.03104,0.1636891 0.02258,0.07902 0.05362,0.160866 0.03105,0.08184 0.07338,0.172156 l -0.06491,0.03951 q -0.06491,-0.118534 -0.112889,-0.2286 -0.04516,-0.107245 -0.0762,-0.211667 -0.02822,-0.1044218 -0.04233,-0.2116662 -0.01411,-0.1100665 -0.01411,-0.231422 0,-0.2229554 0.05644,-0.4317997 0.05644,-0.2088443 0.155222,-0.3922886 0.09878,-0.1834443 0.234244,-0.3358442 0.135467,-0.1523998 0.290689,-0.2652887 l 0.04516,0.0508 z"
         style="font-style:italic;font-variant:normal;font-weight:normal;font-stretch:normal;font-size:2.82222px;font-family:Optima;-inkscape-font-specification:'Optima Italic';fill:#e9e9e9;fill-opacity:1;stroke-width:0.264583"
         id="path12311-6"
         inkscape:connector-curvature="0" />
    </g>
    <g
       aria-label="x"
       id="text12316-9"
       style="font-size:3.52777px;line-height:1.25;font-family:Futura;-inkscape-font-specification:Futura;display:inline;stroke-width:0.264583"
       transform="translate(-0.58983887,107.2388)">
      <path
         d="M 31.024688,9.5108892 Q 30.942844,9.341556 30.84971,9.1722228 30.756577,9.0028896 30.666266,8.8335564 q 0.03387,0.00564 0.06773,0.00847 0.03669,0.00282 0.07056,0.00282 0.07338,0 0.118533,-0.011289 0.0085,0.019755 0.02822,0.070555 0.02258,0.0508 0.04798,0.1072444 0.0254,0.053622 0.04516,0.1044221 0.02258,0.047978 0.03104,0.064911 0.02258,0.042333 0.03951,0.087489 0.01976,0.042333 0.04233,0.084667 0.06209,-0.073378 0.118534,-0.1495777 0.05927,-0.0762 0.115711,-0.1523998 0.0085,-0.014111 0.03104,-0.045156 0.02258,-0.031044 0.04516,-0.064911 0.0254,-0.036689 0.04515,-0.064911 0.02258,-0.031044 0.03105,-0.042333 0.04233,0.011289 0.09031,0.011289 0.05644,0 0.101599,-0.011289 -0.07902,0.084667 -0.166511,0.1834443 -0.08467,0.095955 -0.163688,0.1834443 -0.0762,0.087489 -0.132645,0.1552221 -0.05644,0.064911 -0.0762,0.087489 0.04516,0.087489 0.07338,0.141111 0.03104,0.053622 0.05645,0.1016 0.0254,0.045155 0.05362,0.098778 0.02822,0.053622 0.07055,0.1382888 0.03105,0.062089 0.06491,0.1241781 0.03387,0.05927 0.06773,0.115711 -0.02822,-0.0028 -0.06209,-0.0028 -0.03104,0 -0.06491,0 -0.03104,0 -0.06491,0 -0.03105,0 -0.05927,0.0028 -0.0085,-0.0085 -0.02822,-0.04798 -0.01693,-0.03951 -0.03669,-0.08467 -0.01976,-0.045157 -0.03669,-0.084668 -0.01693,-0.039511 -0.02258,-0.053622 -0.04798,-0.115711 -0.08184,-0.1777998 -0.03387,-0.064911 -0.05644,-0.1128888 -0.09313,0.115711 -0.158045,0.2003776 -0.06491,0.081844 -0.112889,0.1467554 -0.04798,0.064911 -0.08467,0.1185336 -0.03669,0.0508 -0.07338,0.09596 -0.01975,-0.0028 -0.03951,-0.0028 -0.01693,0 -0.04798,0 -0.03104,0 -0.05362,0 -0.01975,0 -0.03669,0.0028 0.04516,-0.05362 0.110067,-0.127 0.06773,-0.076199 0.141111,-0.1608663 0.0762,-0.084667 0.155222,-0.1777998 0.07902,-0.093133 0.155222,-0.1862666 z"
         style="font-style:italic;font-variant:normal;font-weight:normal;font-stretch:normal;font-size:2.82222px;font-family:Optima;-inkscape-font-specification:'Optima Italic';fill:#e9e9e9;fill-opacity:1;stroke-width:0.264583"
         id="path12318-10"
         inkscape:connector-curvature="0" />
    </g>
    <g
       style="font-size:3.52777px;line-height:1.25;font-family:Futura;-inkscape-font-specification:Futura;display:inline;stroke-width:0.264583"
       id="text12323-4"
       aria-label=")">
      <path
         inkscape:connector-curvature="0"
         id="path14682"
         style="font-style:italic;font-variant:normal;font-weight:normal;font-stretch:normal;font-size:2.82223px;font-family:Optima;-inkscape-font-specification:'Optima Italic';fill:#e9e9e9;fill-opacity:1;stroke-width:0.264583"
         d="m 43.555712,117.94348 q 0.135467,-0.12135 0.231423,-0.23988 0.09596,-0.11854 0.172156,-0.28223 0.104423,-0.22578 0.169334,-0.48824 0.06491,-0.26529 0.06491,-0.51647 0,-0.0988 -0.01129,-0.18345 -0.0085,-0.0875 -0.03104,-0.16933 -0.01976,-0.0847 -0.0508,-0.16651 -0.03104,-0.0818 -0.07338,-0.17216 l 0.06491,-0.0395 q 0.129823,0.23425 0.186267,0.44591 0.05927,0.20885 0.05927,0.44592 0,0.22295 -0.05645,0.4318 -0.05644,0.20884 -0.155222,0.39229 -0.09878,0.18062 -0.234245,0.3302 -0.132645,0.14958 -0.29069,0.26246 l -0.04516,-0.0508 z" />
    </g>
  </g>
  <g
     sodipodi:insensitive="true"
     inkscape:groupmode="layer"
     id="layer2"
     inkscape:label="components"
     style="display:none">
    <circle
       style="display:inline;fill:#f2f2f2;stroke:#00ff00;stroke-width:0.264583;stroke-opacity:1"
       id="path15"
       cx="7.6199999"
       cy="10.16"
       r="2.6458333"
       inkscape:label="signal1" />
    <circle
       style="display:inline;fill:#f2f2f2;stroke:#00ff00;stroke-width:0.264583;stroke-opacity:1"
       id="path17"
       cx="7.6199985"
       cy="25.400002"
       r="2.6458333"
       inkscape:label="signal2" />
    <circle
       style="display:inline;fill:#f2f2f2;stroke:#00ff00;stroke-width:0.264583;stroke-opacity:1"
       id="path34"
       cx="7.619998"
       cy="40.639996"
       r="2.6458333"
       inkscape:label="signal3" />
    <circle
       inkscape:label="signal4"
       r="2.6458333"
       cy="55.879993"
       cx="7.6199975"
       id="path15-0"
       style="display:inline;fill:#f2f2f2;stroke:#00ff00;stroke-width:0.264583;stroke-opacity:1" />
    <circle
       inkscape:label="signal5"
       r="2.6458333"
       cy="71.120003"
       cx="7.619997"
       id="path17-5"
       style="display:inline;fill:#f2f2f2;stroke:#00ff00;stroke-width:0.264583;stroke-opacity:1" />
    <circle
       inkscape:label="signal6"
       r="2.6458333"
       cy="86.360001"
       cx="7.6199965"
       id="path34-6"
       style="display:inline;fill:#f2f2f2;stroke:#00ff00;stroke-width:0.264583;stroke-opacity:1" />
    <circle
       style="display:inline;fill:#f2f2f2;stroke:#00ff00;stroke-width:0.264583;stroke-opacity:1"
       id="path17-5-3"
       cx="7.6199961"
       cy="101.6"
       r="2.6458333"
       inkscape:label="signal7" />
    <circle
       style="display:inline;fill:#f2f2f2;stroke:#00ff00;stroke-width:0.264583;stroke-opacity:1"
       id="path34-6-8"
       cx="7.6199956"
       cy="116.84"
       r="2.6458333"
       inkscape:label="signal8" />
    <circle
       inkscape:label="value_level1"
       r="2.6458333"
       cy="10.16"
       cx="22.860001"
       id="path15-4"
       style="display:inline;fill:#f2f2f2;stroke:#ff0000;stroke-width:0.264583;stroke-opacity:1" />
    <circle
       inkscape:label="value_level2"
       r="2.6458333"
       cy="25.4"
       cx="22.860001"
       id="path17-0"
       style="display:inline;fill:#f2f2f2;stroke:#ff0000;stroke-width:0.264583;stroke-opacity:1" />
    <circle
       inkscape:label="value_level3"
       r="2.6458333"
       cy="40.639999"
       cx="22.860001"
       id="path34-0"
       style="display:inline;fill:#f2f2f2;stroke:#ff0000;stroke-width:0.264583;stroke-opacity:1" />
    <circle
       style="display:inline;fill:#f2f2f2;stroke:#ff0000;stroke-width:0.264583;stroke-opacity:1"
       id="path15-0-9"
       cx="22.860001"
       cy="55.880001"
       r="2.6458333"
       inkscape:label="value_level4" />
    <circle
       style="display:inline;fill:#f2f2f2;stroke:#ff0000;stroke-width:0.264583;stroke-opacity:1"
       id="path17-5-37"
       cx="22.860001"
       cy="71.120003"
       r="2.6458333"
       inkscape:label="value_level5" />
    <circle
       style="display:inline;fill:#f2f2f2;stroke:#ff0000;stroke-width:0.264583;stroke-opacity:1"
       id="path34-6-5"
       cx="22.860001"
       cy="86.360001"
       r="2.6458333"
       inkscape:label="value_level6" />
    <circle
       inkscape:label="value_level7"
       r="2.6458333"
       cy="101.6"
       cx="22.860001"
       id="path17-5-3-7"
       style="display:inline;fill:#f2f2f2;stroke:#ff0000;stroke-width:0.264583;stroke-opacity:1" />
    <circle
       inkscape:label="value_level8"
       r="2.6458333"
       cy="116.84"
       cx="22.860001"
       id="path34-6-8-2"
       style="display:inline;fill:#f2f2f2;stroke:#ff0000;stroke-width:0.264583;stroke-opacity:1" />
    <circle
       style="display:inline;fill:#f2f2f2;stroke:#00ff00;stroke-width:0.264583;stroke-opacity:1"
       id="path15-4-6"
       cx="38.099998"
       cy="10.16"
       r="2.6458333"
       inkscape:label="value1" />
    <circle
       style="display:inline;fill:#f2f2f2;stroke:#00ff00;stroke-width:0.264583;stroke-opacity:1"
       id="path17-0-5"
       cx="38.099998"
       cy="25.4"
       r="2.6458333"
       inkscape:label="value2" />
    <circle
       style="display:inline;fill:#f2f2f2;stroke:#00ff00;stroke-width:0.264583;stroke-opacity:1"
       id="path34-0-3"
       cx="38.099998"
       cy="40.639999"
       r="2.6458333"
       inkscape:label="value3" />
    <circle
       inkscape:label="value4"
       r="2.6458333"
       cy="55.880001"
       cx="38.099998"
       id="path15-0-9-0"
       style="display:inline;fill:#f2f2f2;stroke:#00ff00;stroke-width:0.264583;stroke-opacity:1" />
    <circle
       inkscape:label="value5"
       r="2.6458333"
       cy="71.120018"
       cx="38.099998"
       id="path17-5-37-4"
       style="display:inline;fill:#f2f2f2;stroke:#00ff00;stroke-width:0.264583;stroke-opacity:1" />
    <circle
       inkscape:label="value6"
       r="2.6458333"
       cy="86.360001"
       cx="38.099998"
       id="path34-6-5-8"
       style="display:inline;fill:#f2f2f2;stroke:#00ff00;stroke-width:0.264583;stroke-opacity:1" />
    <circle
       style="display:inline;fill:#f2f2f2;stroke:#00ff00;stroke-width:0.264583;stroke-opacity:1"
       id="path17-5-3-7-5"
       cx="38.099998"
       cy="101.6"
       r="2.6458333"
       inkscape:label="value7" />
    <circle
       style="display:inline;fill:#f2f2f2;stroke:#00ff00;stroke-width:0.264583;stroke-opacity:1"
       id="path34-6-8-2-5"
       cx="38.099998"
       cy="116.84"
       r="2.6458333"
       inkscape:label="value8" />
    <circle
       inkscape:label="out1"
       r="2.6458333"
       cy="10.16"
       cx="53.34"
       id="path15-4-6-5"
       style="display:inline;fill:#f2f2f2;stroke:#0000ff;stroke-width:0.264583;stroke-opacity:1" />
    <circle
       inkscape:label="out2"
       r="2.6458333"
       cy="25.399998"
       cx="53.34"
       id="path17-0-5-4"
       style="display:inline;fill:#f2f2f2;stroke:#0000ff;stroke-width:0.264583;stroke-opacity:1" />
    <circle
       inkscape:label="out3"
       r="2.6458333"
       cy="40.640003"
       cx="53.34"
       id="path34-0-3-2"
       style="display:inline;fill:#f2f2f2;stroke:#0000ff;stroke-width:0.264583;stroke-opacity:1" />
    <circle
       style="display:inline;fill:#f2f2f2;stroke:#0000ff;stroke-width:0.264583;stroke-opacity:1"
       id="path15-0-9-0-1"
       cx="53.34"
       cy="55.880001"
       r="2.6458333"
       inkscape:label="out4" />
    <circle
       style="display:inline;fill:#f2f2f2;stroke:#0000ff;stroke-width:0.264583;stroke-opacity:1"
       id="path17-5-37-4-9"
       cx="53.34"
       cy="71.12001"
       r="2.6458333"
       inkscape:label="out5" />
    <circle
       style="display:inline;fill:#f2f2f2;stroke:#0000ff;stroke-width:0.264583;stroke-opacity:1"
       id="path34-6-5-8-2"
       cx="53.34"
       cy="86.359993"
       r="2.6458333"
       inkscape:label="out6" />
    <circle
       inkscape:label="out7"
       r="2.6458333"
       cy="101.6"
       cx="53.34"
       id="path17-5-3-7-5-4"
       style="display:inline;fill:#f2f2f2;stroke:#0000ff;stroke-width:0.264583;stroke-opacity:1" />
    <circle
       inkscape:label="out8"
       r="2.6458333"
       cy="116.84"
       cx="53.34"
       id="path34-6-8-2-5-5"
       style="display:inline;fill:#f2f2f2;stroke:#0000ff;stroke-width:0.264583;stroke-opacity:1" />
  </g>
</svg>
